<svg xmlns="http://www.w3.org/2000/svg" xmlns:xlink="http://www.w3.org/1999/xlink" contentStyleType="text/css" data-diagram-type="SEQUENCE" height="732px" preserveAspectRatio="none" style="width:2057px;height:732px;background:#FFFFFF;" version="1.1" viewBox="0 0 2057 732" width="2057px" zoomAndPan="magnify"><defs/><g><g><title>..fronteira..</title><rect fill="#FFFFFF" height="275.1953" style="stroke:#181818;stroke-width:1;" width="10" x="388.7476" y="112.4297"/></g><g><title>..fronteira..</title><rect fill="#FFFFFF" height="216.9297" style="stroke:#181818;stroke-width:1;" width="10" x="388.7476" y="416.7578"/></g><g><title>..controller..</title><rect fill="#FFFFFF" height="246.0625" style="stroke:#181818;stroke-width:1;" width="10" x="658.6553" y="141.5625"/></g><g><title>..controller..</title><rect fill="#FFFFFF" height="187.7969" style="stroke:#181818;stroke-width:1;" width="10" x="860.6396" y="445.8906"/></g><g><title>Candidatos</title><rect fill="#FFFFFF" height="87.3984" style="stroke:#181818;stroke-width:1;" width="10" x="1398.4429" y="170.6953"/></g><g><title>Voluntarios</title><rect fill="#FFFFFF" height="29.1328" style="stroke:#181818;stroke-width:1;" width="10" x="1505.5278" y="329.3594"/></g><g><title>ONGs</title><rect fill="#FFFFFF" height="29.1328" style="stroke:#181818;stroke-width:1;" width="10" x="1593.021" y="475.0234"/></g><g><title>Campanhas</title><rect fill="#FFFFFF" height="29.1328" style="stroke:#181818;stroke-width:1;" width="10" x="1682.377" y="533.2891"/></g><g><title>Candidato</title><rect fill="#FFFFFF" height="29.1328" style="stroke:#181818;stroke-width:1;" width="10" x="1925.041" y="199.8281"/></g><g><title>Representante R.S</title><rect fill="#000000" fill-opacity="0.00000" height="570.3906" width="8" x="73.1079" y="81.2969"/><line style="stroke:#181818;stroke-width:0.5;stroke-dasharray:5,5;" x1="77" x2="77" y1="81.2969" y2="651.6875"/></g><g><title>..fronteira..</title><rect fill="#000000" fill-opacity="0.00000" height="570.3906" width="8" x="389.7476" y="81.2969"/><line style="stroke:#181818;stroke-width:0.5;stroke-dasharray:5,5;" x1="392.957" x2="392.957" y1="81.2969" y2="651.6875"/></g><g><title>..controller..</title><rect fill="#000000" fill-opacity="0.00000" height="570.3906" width="8" x="508.9224" y="81.2969"/><line style="stroke:#181818;stroke-width:0.5;stroke-dasharray:5,5;" x1="512.5381" x2="512.5381" y1="81.2969" y2="651.6875"/></g><g><title>..controller..</title><rect fill="#000000" fill-opacity="0.00000" height="570.3906" width="8" x="659.6553" y="81.2969"/><line style="stroke:#181818;stroke-width:0.5;stroke-dasharray:5,5;" x1="663.3066" x2="663.3066" y1="81.2969" y2="651.6875"/></g><g><title>..controller..</title><rect fill="#000000" fill-opacity="0.00000" height="570.3906" width="8" x="861.6396" y="81.2969"/><line style="stroke:#181818;stroke-width:0.5;stroke-dasharray:5,5;" x1="864.8828" x2="864.8828" y1="81.2969" y2="651.6875"/></g><g><title>..controller..</title><rect fill="#000000" fill-opacity="0.00000" height="570.3906" width="8" x="1131.3218" y="81.2969"/><line style="stroke:#181818;stroke-width:0.5;stroke-dasharray:5,5;" x1="1134.4897" x2="1134.4897" y1="81.2969" y2="651.6875"/></g><g><title>PedidoAfiliacao</title><rect fill="#000000" fill-opacity="0.00000" height="570.3906" width="8" x="1278.5938" y="81.2969"/><line style="stroke:#181818;stroke-width:0.5;stroke-dasharray:5,5;" x1="1282.1538" x2="1282.1538" y1="81.2969" y2="651.6875"/></g><g><title>Candidatos</title><rect fill="#000000" fill-opacity="0.00000" height="570.3906" width="8" x="1399.4429" y="81.2969"/><line style="stroke:#181818;stroke-width:0.5;stroke-dasharray:5,5;" x1="1403.0337" x2="1403.0337" y1="81.2969" y2="651.6875"/></g><g><title>Voluntarios</title><rect fill="#000000" fill-opacity="0.00000" height="570.3906" width="8" x="1506.5278" y="81.2969"/><line style="stroke:#181818;stroke-width:0.5;stroke-dasharray:5,5;" x1="1509.8521" x2="1509.8521" y1="81.2969" y2="651.6875"/></g><g><title>ONGs</title><rect fill="#000000" fill-opacity="0.00000" height="570.3906" width="8" x="1594.021" y="81.2969"/><line style="stroke:#181818;stroke-width:0.5;stroke-dasharray:5,5;" x1="1597.2036" x2="1597.2036" y1="81.2969" y2="651.6875"/></g><g><title>Campanhas</title><rect fill="#000000" fill-opacity="0.00000" height="570.3906" width="8" x="1683.377" y="81.2969"/><line style="stroke:#181818;stroke-width:0.5;stroke-dasharray:5,5;" x1="1686.8384" x2="1686.8384" y1="81.2969" y2="651.6875"/></g><g><title>Recomendacoes</title><rect fill="#000000" fill-opacity="0.00000" height="570.3906" width="8" x="1810.5972" y="81.2969"/><line style="stroke:#181818;stroke-width:0.5;stroke-dasharray:5,5;" x1="1813.9155" x2="1813.9155" y1="81.2969" y2="651.6875"/></g><g><title>Candidato</title><rect fill="#000000" fill-opacity="0.00000" height="570.3906" width="8" x="1926.041" y="81.2969"/><line style="stroke:#181818;stroke-width:0.5;stroke-dasharray:5,5;" x1="1929.2788" x2="1929.2788" y1="81.2969" y2="651.6875"/></g><g><title>Voluntario</title><rect fill="#000000" fill-opacity="0.00000" height="570.3906" width="8" x="2013.832" y="81.2969"/><line style="stroke:#181818;stroke-width:0.5;stroke-dasharray:5,5;" x1="2017.8032" x2="2017.8032" y1="81.2969" y2="651.6875"/></g><g class="participant participant-head" data-participant="representante"><text fill="#000000" font-family="sans-serif" font-size="14" lengthAdjust="spacing" textLength="138.2158" x="5" y="77.9951">Representante R+S</text><ellipse cx="77.1079" cy="13.5" fill="#E2E2F0" rx="8" ry="8" style="stroke:#181818;stroke-width:0.5;"/><path d="M77.1079,21.5 L77.1079,48.5 M64.1079,29.5 L90.1079,29.5 M77.1079,48.5 L64.1079,63.5 M77.1079,48.5 L90.1079,63.5" fill="none" style="stroke:#181818;stroke-width:0.5;"/></g><g class="participant participant-tail" data-participant="representante"><text fill="#000000" font-family="sans-serif" font-size="14" lengthAdjust="spacing" textLength="138.2158" x="5" y="663.6826">Representante R+S</text><ellipse cx="77.1079" cy="675.4844" fill="#E2E2F0" rx="8" ry="8" style="stroke:#181818;stroke-width:0.5;"/><path d="M77.1079,683.4844 L77.1079,710.4844 M64.1079,691.4844 L90.1079,691.4844 M77.1079,710.4844 L64.1079,725.4844 M77.1079,710.4844 L90.1079,725.4844" fill="none" style="stroke:#181818;stroke-width:0.5;"/></g><g class="participant participant-head" data-participant="gui"><text fill="#000000" font-family="sans-serif" font-size="14" font-style="italic" lengthAdjust="spacing" textLength="77.5811" x="351.957" y="61.6982">&#171;fronteira&#187;</text><text fill="#000000" font-family="sans-serif" font-size="14" lengthAdjust="spacing" textLength="25.2246" x="378.1353" y="77.9951">GUI</text><path d="M373.2476,20.7031 L373.2476,44.7031 M373.2476,32.7031 L390.2476,32.7031" fill="none" style="stroke:#181818;stroke-width:0.5;"/><ellipse cx="402.2476" cy="32.7031" fill="#E2E2F0" rx="12" ry="12" style="stroke:#181818;stroke-width:0.5;"/></g><g class="participant participant-tail" data-participant="gui"><text fill="#000000" font-family="sans-serif" font-size="14" font-style="italic" lengthAdjust="spacing" textLength="77.5811" x="351.957" y="663.6826">&#171;fronteira&#187;</text><text fill="#000000" font-family="sans-serif" font-size="14" lengthAdjust="spacing" textLength="25.2246" x="378.1353" y="679.9795">GUI</text><path d="M373.2476,687.2813 L373.2476,711.2813 M373.2476,699.2813 L390.2476,699.2813" fill="none" style="stroke:#181818;stroke-width:0.5;"/><ellipse cx="402.2476" cy="699.2813" fill="#E2E2F0" rx="12" ry="12" style="stroke:#181818;stroke-width:0.5;"/></g><g class="participant participant-head" data-participant="afiliacaoController"><text fill="#000000" font-family="sans-serif" font-size="14" font-style="italic" lengthAdjust="spacing" textLength="84.2256" x="467.8096" y="61.6982">&#171;controller&#187;</text><text fill="#000000" font-family="sans-serif" font-size="14" lengthAdjust="spacing" textLength="128.7686" x="445.5381" y="77.9951">AfiliacaoController</text><ellipse cx="512.9224" cy="32.7031" fill="#E2E2F0" rx="12" ry="12" style="stroke:#181818;stroke-width:0.5;"/><polygon fill="#181818" points="508.9224,20.7031,514.9224,15.7031,512.9224,20.7031,514.9224,25.7031,508.9224,20.7031" style="stroke:#181818;stroke-width:1;"/></g><g class="participant participant-tail" data-participant="afiliacaoController"><text fill="#000000" font-family="sans-serif" font-size="14" font-style="italic" lengthAdjust="spacing" textLength="84.2256" x="467.8096" y="663.6826">&#171;controller&#187;</text><text fill="#000000" font-family="sans-serif" font-size="14" lengthAdjust="spacing" textLength="128.7686" x="445.5381" y="679.9795">AfiliacaoController</text><ellipse cx="512.9224" cy="699.2813" fill="#E2E2F0" rx="12" ry="12" style="stroke:#181818;stroke-width:0.5;"/><polygon fill="#181818" points="508.9224,687.2813,514.9224,682.2813,512.9224,687.2813,514.9224,692.2813,508.9224,687.2813" style="stroke:#181818;stroke-width:1;"/></g><g class="participant participant-head" data-participant="candidatoController"><text fill="#000000" font-family="sans-serif" font-size="14" font-style="italic" lengthAdjust="spacing" textLength="84.2256" x="618.5425" y="61.6982">&#171;controller&#187;</text><text fill="#000000" font-family="sans-serif" font-size="14" lengthAdjust="spacing" textLength="140.6973" x="590.3066" y="77.9951">CandidatoController</text><ellipse cx="663.6553" cy="32.7031" fill="#E2E2F0" rx="12" ry="12" style="stroke:#181818;stroke-width:0.5;"/><polygon fill="#181818" points="659.6553,20.7031,665.6553,15.7031,663.6553,20.7031,665.6553,25.7031,659.6553,20.7031" style="stroke:#181818;stroke-width:1;"/></g><g class="participant participant-tail" data-participant="candidatoController"><text fill="#000000" font-family="sans-serif" font-size="14" font-style="italic" lengthAdjust="spacing" textLength="84.2256" x="618.5425" y="663.6826">&#171;controller&#187;</text><text fill="#000000" font-family="sans-serif" font-size="14" lengthAdjust="spacing" textLength="140.6973" x="590.3066" y="679.9795">CandidatoController</text><ellipse cx="663.6553" cy="699.2813" fill="#E2E2F0" rx="12" ry="12" style="stroke:#181818;stroke-width:0.5;"/><polygon fill="#181818" points="659.6553,687.2813,665.6553,682.2813,663.6553,687.2813,665.6553,692.2813,659.6553,687.2813" style="stroke:#181818;stroke-width:1;"/></g><g class="participant participant-head" data-participant="ongController"><text fill="#000000" font-family="sans-serif" font-size="14" font-style="italic" lengthAdjust="spacing" textLength="84.2256" x="820.5269" y="61.6982">&#171;controller&#187;</text><text fill="#000000" font-family="sans-serif" font-size="14" lengthAdjust="spacing" textLength="101.5137" x="811.8828" y="77.9951">ONGController</text><ellipse cx="865.6396" cy="32.7031" fill="#E2E2F0" rx="12" ry="12" style="stroke:#181818;stroke-width:0.5;"/><polygon fill="#181818" points="861.6396,20.7031,867.6396,15.7031,865.6396,20.7031,867.6396,25.7031,861.6396,20.7031" style="stroke:#181818;stroke-width:1;"/></g><g class="participant participant-tail" data-participant="ongController"><text fill="#000000" font-family="sans-serif" font-size="14" font-style="italic" lengthAdjust="spacing" textLength="84.2256" x="820.5269" y="663.6826">&#171;controller&#187;</text><text fill="#000000" font-family="sans-serif" font-size="14" lengthAdjust="spacing" textLength="101.5137" x="811.8828" y="679.9795">ONGController</text><ellipse cx="865.6396" cy="699.2813" fill="#E2E2F0" rx="12" ry="12" style="stroke:#181818;stroke-width:0.5;"/><polygon fill="#181818" points="861.6396,687.2813,867.6396,682.2813,865.6396,687.2813,867.6396,692.2813,861.6396,687.2813" style="stroke:#181818;stroke-width:1;"/></g><g class="participant participant-head" data-participant="aprovacaoController"><text fill="#000000" font-family="sans-serif" font-size="14" font-style="italic" lengthAdjust="spacing" textLength="84.2256" x="1090.209" y="61.6982">&#171;controller&#187;</text><text fill="#000000" font-family="sans-serif" font-size="14" lengthAdjust="spacing" textLength="143.6641" x="1060.4897" y="77.9951">AprovacaoController</text><ellipse cx="1135.3218" cy="32.7031" fill="#E2E2F0" rx="12" ry="12" style="stroke:#181818;stroke-width:0.5;"/><polygon fill="#181818" points="1131.3218,20.7031,1137.3218,15.7031,1135.3218,20.7031,1137.3218,25.7031,1131.3218,20.7031" style="stroke:#181818;stroke-width:1;"/></g><g class="participant participant-tail" data-participant="aprovacaoController"><text fill="#000000" font-family="sans-serif" font-size="14" font-style="italic" lengthAdjust="spacing" textLength="84.2256" x="1090.209" y="663.6826">&#171;controller&#187;</text><text fill="#000000" font-family="sans-serif" font-size="14" lengthAdjust="spacing" textLength="143.6641" x="1060.4897" y="679.9795">AprovacaoController</text><ellipse cx="1135.3218" cy="699.2813" fill="#E2E2F0" rx="12" ry="12" style="stroke:#181818;stroke-width:0.5;"/><polygon fill="#181818" points="1131.3218,687.2813,1137.3218,682.2813,1135.3218,687.2813,1137.3218,692.2813,1131.3218,687.2813" style="stroke:#181818;stroke-width:1;"/></g><g class="participant participant-head" data-participant="pedidoAfiliacao"><rect fill="#E2E2F0" height="30.2969" style="stroke:#181818;stroke-width:0.5;" width="120.8799" x="1224.1538" y="46"/><rect fill="#E2E2F0" height="30.2969" style="stroke:#181818;stroke-width:0.5;" width="120.8799" x="1220.1538" y="50"/><text fill="#000000" font-family="sans-serif" font-size="14" lengthAdjust="spacing" textLength="106.8799" x="1227.1538" y="69.9951">PedidoAfiliacao</text></g><g class="participant participant-tail" data-participant="pedidoAfiliacao"><rect fill="#E2E2F0" height="30.2969" style="stroke:#181818;stroke-width:0.5;" width="120.8799" x="1224.1538" y="650.6875"/><rect fill="#E2E2F0" height="30.2969" style="stroke:#181818;stroke-width:0.5;" width="120.8799" x="1220.1538" y="654.6875"/><text fill="#000000" font-family="sans-serif" font-size="14" lengthAdjust="spacing" textLength="106.8799" x="1227.1538" y="674.6826">PedidoAfiliacao</text></g><g class="participant participant-head" data-participant="candidatos"><rect fill="#E2E2F0" height="30.2969" style="stroke:#181818;stroke-width:0.5;" width="92.8184" x="1359.0337" y="46"/><rect fill="#E2E2F0" height="30.2969" style="stroke:#181818;stroke-width:0.5;" width="92.8184" x="1355.0337" y="50"/><text fill="#000000" font-family="sans-serif" font-size="14" lengthAdjust="spacing" textLength="78.8184" x="1362.0337" y="69.9951">Candidatos</text></g><g class="participant participant-tail" data-participant="candidatos"><rect fill="#E2E2F0" height="30.2969" style="stroke:#181818;stroke-width:0.5;" width="92.8184" x="1359.0337" y="650.6875"/><rect fill="#E2E2F0" height="30.2969" style="stroke:#181818;stroke-width:0.5;" width="92.8184" x="1355.0337" y="654.6875"/><text fill="#000000" font-family="sans-serif" font-size="14" lengthAdjust="spacing" textLength="78.8184" x="1362.0337" y="674.6826">Candidatos</text></g><g class="participant participant-head" data-participant="voluntarios"><rect fill="#E2E2F0" height="30.2969" style="stroke:#181818;stroke-width:0.5;" width="93.3516" x="1465.8521" y="46"/><rect fill="#E2E2F0" height="30.2969" style="stroke:#181818;stroke-width:0.5;" width="93.3516" x="1461.8521" y="50"/><text fill="#000000" font-family="sans-serif" font-size="14" lengthAdjust="spacing" textLength="79.3516" x="1468.8521" y="69.9951">Voluntarios</text></g><g class="participant participant-tail" data-participant="voluntarios"><rect fill="#E2E2F0" height="30.2969" style="stroke:#181818;stroke-width:0.5;" width="93.3516" x="1465.8521" y="650.6875"/><rect fill="#E2E2F0" height="30.2969" style="stroke:#181818;stroke-width:0.5;" width="93.3516" x="1461.8521" y="654.6875"/><text fill="#000000" font-family="sans-serif" font-size="14" lengthAdjust="spacing" textLength="79.3516" x="1468.8521" y="674.6826">Voluntarios</text></g><g class="participant participant-head" data-participant="ongs"><rect fill="#E2E2F0" height="30.2969" style="stroke:#181818;stroke-width:0.5;" width="53.6348" x="1573.2036" y="46"/><rect fill="#E2E2F0" height="30.2969" style="stroke:#181818;stroke-width:0.5;" width="53.6348" x="1569.2036" y="50"/><text fill="#000000" font-family="sans-serif" font-size="14" lengthAdjust="spacing" textLength="39.6348" x="1576.2036" y="69.9951">ONGs</text></g><g class="participant participant-tail" data-participant="ongs"><rect fill="#E2E2F0" height="30.2969" style="stroke:#181818;stroke-width:0.5;" width="53.6348" x="1573.2036" y="650.6875"/><rect fill="#E2E2F0" height="30.2969" style="stroke:#181818;stroke-width:0.5;" width="53.6348" x="1569.2036" y="654.6875"/><text fill="#000000" font-family="sans-serif" font-size="14" lengthAdjust="spacing" textLength="39.6348" x="1576.2036" y="674.6826">ONGs</text></g><g class="participant participant-head" data-participant="campanhas"><rect fill="#E2E2F0" height="30.2969" style="stroke:#181818;stroke-width:0.5;" width="97.0771" x="1640.8384" y="46"/><rect fill="#E2E2F0" height="30.2969" style="stroke:#181818;stroke-width:0.5;" width="97.0771" x="1636.8384" y="50"/><text fill="#000000" font-family="sans-serif" font-size="14" lengthAdjust="spacing" textLength="83.0771" x="1643.8384" y="69.9951">Campanhas</text></g><g class="participant participant-tail" data-participant="campanhas"><rect fill="#E2E2F0" height="30.2969" style="stroke:#181818;stroke-width:0.5;" width="97.0771" x="1640.8384" y="650.6875"/><rect fill="#E2E2F0" height="30.2969" style="stroke:#181818;stroke-width:0.5;" width="97.0771" x="1636.8384" y="654.6875"/><text fill="#000000" font-family="sans-serif" font-size="14" lengthAdjust="spacing" textLength="83.0771" x="1643.8384" y="674.6826">Campanhas</text></g><g class="participant participant-head" data-participant="recomendacoes"><rect fill="#E2E2F0" height="30.2969" style="stroke:#181818;stroke-width:0.5;" width="129.3633" x="1751.9155" y="46"/><rect fill="#E2E2F0" height="30.2969" style="stroke:#181818;stroke-width:0.5;" width="129.3633" x="1747.9155" y="50"/><text fill="#000000" font-family="sans-serif" font-size="14" lengthAdjust="spacing" textLength="115.3633" x="1754.9155" y="69.9951">Recomendacoes</text></g><g class="participant participant-tail" data-participant="recomendacoes"><rect fill="#E2E2F0" height="30.2969" style="stroke:#181818;stroke-width:0.5;" width="129.3633" x="1751.9155" y="650.6875"/><rect fill="#E2E2F0" height="30.2969" style="stroke:#181818;stroke-width:0.5;" width="129.3633" x="1747.9155" y="654.6875"/><text fill="#000000" font-family="sans-serif" font-size="14" lengthAdjust="spacing" textLength="115.3633" x="1754.9155" y="674.6826">Recomendacoes</text></g><g class="participant participant-head" data-participant="candidato"><text fill="#000000" font-family="sans-serif" font-size="14" lengthAdjust="spacing" textLength="71.5244" x="1891.2788" y="77.9951">Candidato</text><ellipse cx="1930.041" cy="49" fill="#E2E2F0" rx="12" ry="12" style="stroke:#181818;stroke-width:0.5;"/><line style="stroke:#181818;stroke-width:0.5;" x1="1918.041" x2="1942.041" y1="63" y2="63"/></g><g class="participant participant-tail" data-participant="candidato"><text fill="#000000" font-family="sans-serif" font-size="14" lengthAdjust="spacing" textLength="71.5244" x="1891.2788" y="663.6826">Candidato</text><ellipse cx="1930.041" cy="682.9844" fill="#E2E2F0" rx="12" ry="12" style="stroke:#181818;stroke-width:0.5;"/><line style="stroke:#181818;stroke-width:0.5;" x1="1918.041" x2="1942.041" y1="696.9844" y2="696.9844"/></g><g class="participant participant-head" data-participant="voluntario"><text fill="#000000" font-family="sans-serif" font-size="14" lengthAdjust="spacing" textLength="72.0576" x="1978.8032" y="77.9951">Voluntario</text><ellipse cx="2017.832" cy="49" fill="#E2E2F0" rx="12" ry="12" style="stroke:#181818;stroke-width:0.5;"/><line style="stroke:#181818;stroke-width:0.5;" x1="2005.832" x2="2029.832" y1="63" y2="63"/></g><g class="participant participant-tail" data-participant="voluntario"><text fill="#000000" font-family="sans-serif" font-size="14" lengthAdjust="spacing" textLength="72.0576" x="1978.8032" y="663.6826">Voluntario</text><ellipse cx="2017.832" cy="682.9844" fill="#E2E2F0" rx="12" ry="12" style="stroke:#181818;stroke-width:0.5;"/><line style="stroke:#181818;stroke-width:0.5;" x1="2005.832" x2="2029.832" y1="696.9844" y2="696.9844"/></g><g><title>..fronteira..</title><rect fill="#FFFFFF" height="275.1953" style="stroke:#181818;stroke-width:1;" width="10" x="388.7476" y="112.4297"/></g><g><title>..fronteira..</title><rect fill="#FFFFFF" height="216.9297" style="stroke:#181818;stroke-width:1;" width="10" x="388.7476" y="416.7578"/></g><g><title>..controller..</title><rect fill="#FFFFFF" height="246.0625" style="stroke:#181818;stroke-width:1;" width="10" x="658.6553" y="141.5625"/></g><g><title>..controller..</title><rect fill="#FFFFFF" height="187.7969" style="stroke:#181818;stroke-width:1;" width="10" x="860.6396" y="445.8906"/></g><g><title>Candidatos</title><rect fill="#FFFFFF" height="87.3984" style="stroke:#181818;stroke-width:1;" width="10" x="1398.4429" y="170.6953"/></g><g><title>Voluntarios</title><rect fill="#FFFFFF" height="29.1328" style="stroke:#181818;stroke-width:1;" width="10" x="1505.5278" y="329.3594"/></g><g><title>ONGs</title><rect fill="#FFFFFF" height="29.1328" style="stroke:#181818;stroke-width:1;" width="10" x="1593.021" y="475.0234"/></g><g><title>Campanhas</title><rect fill="#FFFFFF" height="29.1328" style="stroke:#181818;stroke-width:1;" width="10" x="1682.377" y="533.2891"/></g><g><title>Candidato</title><rect fill="#FFFFFF" height="29.1328" style="stroke:#181818;stroke-width:1;" width="10" x="1925.041" y="199.8281"/></g><g class="message" data-participant-1="representante" data-participant-2="gui"><polygon fill="#181818" points="376.7476,108.4297,386.7476,112.4297,376.7476,116.4297,380.7476,112.4297" style="stroke:#181818;stroke-width:1;"/><line style="stroke:#181818;stroke-width:1;" x1="77.1079" x2="382.7476" y1="112.4297" y2="112.4297"/><text fill="#000000" font-family="sans-serif" font-size="13" lengthAdjust="spacing" textLength="203.3662" x="84.1079" y="107.3638">solicitaAprovacaoCandidato(id)</text></g><g class="message" data-participant-1="gui" data-participant-2="candidatoController"><polygon fill="#181818" points="646.6553,137.5625,656.6553,141.5625,646.6553,145.5625,650.6553,141.5625" style="stroke:#181818;stroke-width:1;"/><line style="stroke:#181818;stroke-width:1;" x1="398.7476" x2="652.6553" y1="141.5625" y2="141.5625"/><text fill="#000000" font-family="sans-serif" font-size="13" lengthAdjust="spacing" textLength="203.3662" x="405.7476" y="136.4966">solicitaAprovacaoCandidato(id)</text></g><g class="message" data-participant-1="candidatoController" data-participant-2="candidatos"><polygon fill="#181818" points="1386.4429,166.6953,1396.4429,170.6953,1386.4429,174.6953,1390.4429,170.6953" style="stroke:#181818;stroke-width:1;"/><line style="stroke:#181818;stroke-width:1;" x1="668.6553" x2="1392.4429" y1="170.6953" y2="170.6953"/><text fill="#000000" font-family="sans-serif" font-size="13" lengthAdjust="spacing" textLength="126.8008" x="675.6553" y="165.6294">buscaCandidato(id)</text></g><g class="message" data-participant-1="candidatos" data-participant-2="candidato"><polygon fill="#181818" points="1913.041,195.8281,1923.041,199.8281,1913.041,203.8281,1917.041,199.8281" style="stroke:#181818;stroke-width:1;"/><line style="stroke:#181818;stroke-width:1;" x1="1408.4429" x2="1919.041" y1="199.8281" y2="199.8281"/><text fill="#000000" font-family="sans-serif" font-size="13" lengthAdjust="spacing" textLength="43.3545" x="1415.4429" y="194.7622">get(id)</text></g><g class="message" data-participant-1="candidato" data-participant-2="candidatos"><polygon fill="#181818" points="1419.4429,224.9609,1409.4429,228.9609,1419.4429,232.9609,1415.4429,228.9609" style="stroke:#181818;stroke-width:1;"/><line style="stroke:#181818;stroke-width:1;stroke-dasharray:2,2;" x1="1413.4429" x2="1929.041" y1="228.9609" y2="228.9609"/><text fill="#000000" font-family="sans-serif" font-size="13" lengthAdjust="spacing" textLength="64.4858" x="1425.4429" y="223.895">candidato</text></g><g class="message" data-participant-1="candidatos" data-participant-2="candidatoController"><polygon fill="#181818" points="679.6553,254.0938,669.6553,258.0938,679.6553,262.0938,675.6553,258.0938" style="stroke:#181818;stroke-width:1;"/><line style="stroke:#181818;stroke-width:1;stroke-dasharray:2,2;" x1="673.6553" x2="1402.4429" y1="258.0938" y2="258.0938"/><text fill="#000000" font-family="sans-serif" font-size="13" lengthAdjust="spacing" textLength="64.4858" x="685.6553" y="253.0278">candidato</text></g><g class="message" data-participant-1="candidatoController" data-participant-2="candidatoController"><line style="stroke:#181818;stroke-width:1;" x1="668.6553" x2="710.6553" y1="287.2266" y2="287.2266"/><line style="stroke:#181818;stroke-width:1;" x1="710.6553" x2="710.6553" y1="287.2266" y2="300.2266"/><line style="stroke:#181818;stroke-width:1;" x1="669.6553" x2="710.6553" y1="300.2266" y2="300.2266"/><polygon fill="#181818" points="679.6553,296.2266,669.6553,300.2266,679.6553,304.2266,675.6553,300.2266" style="stroke:#181818;stroke-width:1;"/><text fill="#000000" font-family="sans-serif" font-size="13" lengthAdjust="spacing" textLength="167.9844" x="675.6553" y="282.1606">mudaSituacao(candidato)</text></g><g class="message" data-participant-1="candidatoController" data-participant-2="voluntarios"><polygon fill="#181818" points="1493.5278,325.3594,1503.5278,329.3594,1493.5278,333.3594,1497.5278,329.3594" style="stroke:#181818;stroke-width:1;"/><line style="stroke:#181818;stroke-width:1;" x1="668.6553" x2="1499.5278" y1="329.3594" y2="329.3594"/><text fill="#000000" font-family="sans-serif" font-size="13" lengthAdjust="spacing" textLength="109.8652" x="675.6553" y="324.2935">salva(voluntario)</text></g><g class="message" data-participant-1="voluntarios" data-participant-2="candidatoController"><polygon fill="#181818" points="679.6553,354.4922,669.6553,358.4922,679.6553,362.4922,675.6553,358.4922" style="stroke:#181818;stroke-width:1;"/><line style="stroke:#181818;stroke-width:1;stroke-dasharray:2,2;" x1="673.6553" x2="1509.5278" y1="358.4922" y2="358.4922"/><text fill="#000000" font-family="sans-serif" font-size="13" lengthAdjust="spacing" textLength="65.7109" x="685.6553" y="353.4263">voluntario</text></g><g class="message" data-participant-1="candidatoController" data-participant-2="gui"><polygon fill="#181818" points="404.7476,383.625,394.7476,387.625,404.7476,391.625,400.7476,387.625" style="stroke:#181818;stroke-width:1;"/><line style="stroke:#181818;stroke-width:1;stroke-dasharray:2,2;" x1="398.7476" x2="662.6553" y1="387.625" y2="387.625"/><text fill="#000000" font-family="sans-serif" font-size="13" lengthAdjust="spacing" textLength="65.7109" x="410.7476" y="382.5591">voluntario</text></g><g class="message" data-participant-1="representante" data-participant-2="gui"><polygon fill="#181818" points="376.7476,412.7578,386.7476,416.7578,376.7476,420.7578,380.7476,416.7578" style="stroke:#181818;stroke-width:1;"/><line style="stroke:#181818;stroke-width:1;" x1="77.1079" x2="382.7476" y1="416.7578" y2="416.7578"/><text fill="#000000" font-family="sans-serif" font-size="13" lengthAdjust="spacing" textLength="292.6396" x="84.1079" y="411.6919">solicita&#231;&#227;oRecomendacaoOngParceira(perfil)</text></g><g class="message" data-participant-1="gui" data-participant-2="ongController"><polygon fill="#181818" points="848.6396,441.8906,858.6396,445.8906,848.6396,449.8906,852.6396,445.8906" style="stroke:#181818;stroke-width:1;"/><line style="stroke:#181818;stroke-width:1;" x1="398.7476" x2="854.6396" y1="445.8906" y2="445.8906"/><text fill="#000000" font-family="sans-serif" font-size="13" lengthAdjust="spacing" textLength="292.6396" x="405.7476" y="440.8247">solicita&#231;&#227;oRecomendacaoOngParceira(perfil)</text></g><g class="message" data-participant-1="ongController" data-participant-2="ongs"><polygon fill="#181818" points="1581.021,471.0234,1591.021,475.0234,1581.021,479.0234,1585.021,475.0234" style="stroke:#181818;stroke-width:1;"/><line style="stroke:#181818;stroke-width:1;" x1="870.6396" x2="1587.021" y1="475.0234" y2="475.0234"/><text fill="#000000" font-family="sans-serif" font-size="13" lengthAdjust="spacing" textLength="229.9946" x="877.6396" y="469.9575">filtroONGDeAcordoComPerfil(perfil)</text></g><g class="message" data-participant-1="ongs" data-participant-2="ongController"><polygon fill="#181818" points="881.6396,500.1563,871.6396,504.1563,881.6396,508.1563,877.6396,504.1563" style="stroke:#181818;stroke-width:1;"/><line style="stroke:#181818;stroke-width:1;stroke-dasharray:2,2;" x1="875.6396" x2="1597.021" y1="504.1563" y2="504.1563"/><text fill="#000000" font-family="sans-serif" font-size="13" lengthAdjust="spacing" textLength="31.2178" x="887.6396" y="499.0903">ongs</text></g><g class="message" data-participant-1="ongController" data-participant-2="campanhas"><polygon fill="#181818" points="1670.377,529.2891,1680.377,533.2891,1670.377,537.2891,1674.377,533.2891" style="stroke:#181818;stroke-width:1;"/><line style="stroke:#181818;stroke-width:1;" x1="870.6396" x2="1676.377" y1="533.2891" y2="533.2891"/><text fill="#000000" font-family="sans-serif" font-size="13" lengthAdjust="spacing" textLength="206.7114" x="877.6396" y="528.2231">procuraCampanhasDeOng(ong)</text></g><g class="message" data-participant-1="campanhas" data-participant-2="ongController"><polygon fill="#181818" points="881.6396,558.4219,871.6396,562.4219,881.6396,566.4219,877.6396,562.4219" style="stroke:#181818;stroke-width:1;"/><line style="stroke:#181818;stroke-width:1;stroke-dasharray:2,2;" x1="875.6396" x2="1686.377" y1="562.4219" y2="562.4219"/><text fill="#000000" font-family="sans-serif" font-size="13" lengthAdjust="spacing" textLength="75.2134" x="887.6396" y="557.356">campanhas</text></g><g class="message" data-participant-1="ongController" data-participant-2="ongController"><line style="stroke:#181818;stroke-width:1;" x1="870.6396" x2="912.6396" y1="591.5547" y2="591.5547"/><line style="stroke:#181818;stroke-width:1;" x1="912.6396" x2="912.6396" y1="591.5547" y2="604.5547"/><line style="stroke:#181818;stroke-width:1;" x1="871.6396" x2="912.6396" y1="604.5547" y2="604.5547"/><polygon fill="#181818" points="881.6396,600.5547,871.6396,604.5547,881.6396,608.5547,877.6396,604.5547" style="stroke:#181818;stroke-width:1;"/><text fill="#000000" font-family="sans-serif" font-size="13" lengthAdjust="spacing" textLength="235.6821" x="877.6396" y="586.4888">criaRecomendacao(ong, campanha)</text></g><g class="message" data-participant-1="ongController" data-participant-2="gui"><polygon fill="#181818" points="404.7476,629.6875,394.7476,633.6875,404.7476,637.6875,400.7476,633.6875" style="stroke:#181818;stroke-width:1;"/><line style="stroke:#181818;stroke-width:1;stroke-dasharray:2,2;" x1="398.7476" x2="864.6396" y1="633.6875" y2="633.6875"/><text fill="#000000" font-family="sans-serif" font-size="13" lengthAdjust="spacing" textLength="96.6304" x="410.7476" y="628.6216">recomenda&#231;&#227;o</text></g><!--SRC=[bLLDJkim4Dxx55PMgQ0Ng52b2YJqDe-g2FQ3OugbD8vifnBdUOjt42x6E2IE9tOeP5L_C_FD_nI4quON1zaQQMNZe76I7wuU2mwMcnXbBxfhAZ3llBX_-jFBZvtYDpUlHgDO6TXkcS2VHjUysBsgMe40VVk5rDBq9f3YI2728-QuXQPI5RWvXqZnHOw7l_SpQzqS9sJ9RDSQVSw5d-891VuGJkd6yc8lCL0TQj5Jj1IZ1Y5bIpErLErPrnrsnQX1xpozgIAcRyUixTpLgONc3KPFmuig7QJG9ubj5rhQOIOYXE5iAFSUnKt33l8fu5cyZ94Xu-kjdweDjxfMGZcO6Z5obgfQCS00pu3wgCmuVduKqJOp6XUvl7dWon3q2lxBpLtiqsxuIsS5fFHv5pR8_4SUamxniE57wGXhdfc82HzVpoBEsrGoGyfoqIqLFUNDSLhsu-h6vAUkWaVbEj_CCcYiBd55Qu9J0VKPoWbQiRHLyLx5vOdmvGf4GvufGKpD5cCUrs76bIjbDB2HsE_7XHNx-F_nJq-B3lgXEUx127_IorOQl5JB2qUkwIyvIQa9KIWOGGT_s3iqHmoFsvtS2MqgJFwqxra9-Tm1RQ87-WhFSY2AKIa9dWGM3kY6uvaHdO5mOEyaPb-YHVOOZ7UNhkk0vk9BJSWuZC9lQqZuZ8AuLJxIwq2qMk8PnoZy8VGzvoojsk9aVW80]--></g></svg>