<svg xmlns="http://www.w3.org/2000/svg" xmlns:xlink="http://www.w3.org/1999/xlink" contentStyleType="text/css" data-diagram-type="SEQUENCE" height="793px" preserveAspectRatio="none" style="width:1653px;height:793px;background:#FFFFFF;" version="1.1" viewBox="0 0 1653 793" width="1653px" zoomAndPan="magnify"><defs/><g><g><title>..fronteira..</title><rect fill="#FFFFFF" height="582.6563" style="stroke:#181818;stroke-width:1;" width="10" x="388.7476" y="112.4297"/></g><g><title>..controller..</title><rect fill="#FFFFFF" height="553.5234" style="stroke:#181818;stroke-width:1;" width="10" x="710.3872" y="141.5625"/></g><g><title>ONGs</title><rect fill="#FFFFFF" height="203.9297" style="stroke:#181818;stroke-width:1;" width="10" x="969.3818" y="170.6953"/></g><g><title>Campanhas</title><rect fill="#FFFFFF" height="87.3984" style="stroke:#181818;stroke-width:1;" width="10" x="1058.7378" y="549.4219"/></g><g><title>Perfis</title><rect fill="#FFFFFF" height="87.3984" style="stroke:#181818;stroke-width:1;" width="10" x="1147.7383" y="228.9609"/></g><g><title>Perfil</title><rect fill="#FFFFFF" height="29.1328" style="stroke:#181818;stroke-width:1;" width="10" x="1274.6064" y="258.0938"/></g><g><title>ONG</title><rect fill="#FFFFFF" height="145.6641" style="stroke:#181818;stroke-width:1;" width="10" x="1324.5366" y="199.8281"/></g><g><title>ONG</title><rect fill="#FFFFFF" height="145.6641" style="stroke:#181818;stroke-width:1;" width="10" x="1324.5366" y="520.2891"/></g><g><title>Recomendacao</title><rect fill="#FFFFFF" height="262.1953" style="stroke:#181818;stroke-width:1;" width="10" x="1498.249" y="403.7578"/></g><g><title>Campanha</title><rect fill="#FFFFFF" height="29.1328" style="stroke:#181818;stroke-width:1;" width="10" x="1606.1582" y="578.5547"/></g><g><title>Representante R.S</title><rect fill="#000000" fill-opacity="0.00000" height="631.7891" width="8" x="73.1079" y="81.2969"/><line style="stroke:#181818;stroke-width:0.5;stroke-dasharray:5,5;" x1="77" x2="77" y1="81.2969" y2="713.0859"/></g><g><title>..fronteira..</title><rect fill="#000000" fill-opacity="0.00000" height="631.7891" width="8" x="389.7476" y="81.2969"/><line style="stroke:#181818;stroke-width:0.5;stroke-dasharray:5,5;" x1="392.957" x2="392.957" y1="81.2969" y2="713.0859"/></g><g><title>..controller..</title><rect fill="#000000" fill-opacity="0.00000" height="631.7891" width="8" x="514.8867" y="81.2969"/><line style="stroke:#181818;stroke-width:0.5;stroke-dasharray:5,5;" x1="518.5381" x2="518.5381" y1="81.2969" y2="713.0859"/></g><g><title>..controller..</title><rect fill="#000000" fill-opacity="0.00000" height="631.7891" width="8" x="711.3872" y="81.2969"/><line style="stroke:#181818;stroke-width:0.5;stroke-dasharray:5,5;" x1="714.6304" x2="714.6304" y1="81.2969" y2="713.0859"/></g><g><title>Candidatos</title><rect fill="#000000" fill-opacity="0.00000" height="631.7891" width="8" x="823.5532" y="81.2969"/><line style="stroke:#181818;stroke-width:0.5;stroke-dasharray:5,5;" x1="827.144" x2="827.144" y1="81.2969" y2="713.0859"/></g><g><title>ONGs</title><rect fill="#000000" fill-opacity="0.00000" height="631.7891" width="8" x="970.3818" y="81.2969"/><line style="stroke:#181818;stroke-width:0.5;stroke-dasharray:5,5;" x1="973.5645" x2="973.5645" y1="81.2969" y2="713.0859"/></g><g><title>Campanhas</title><rect fill="#000000" fill-opacity="0.00000" height="631.7891" width="8" x="1059.7378" y="81.2969"/><line style="stroke:#181818;stroke-width:0.5;stroke-dasharray:5,5;" x1="1063.1992" x2="1063.1992" y1="81.2969" y2="713.0859"/></g><g><title>Perfis</title><rect fill="#000000" fill-opacity="0.00000" height="631.7891" width="8" x="1148.7383" y="81.2969"/><line style="stroke:#181818;stroke-width:0.5;stroke-dasharray:5,5;" x1="1152.2764" x2="1152.2764" y1="81.2969" y2="713.0859"/></g><g><title>Perfil</title><rect fill="#000000" fill-opacity="0.00000" height="631.7891" width="8" x="1275.6064" y="81.2969"/><line style="stroke:#181818;stroke-width:0.5;stroke-dasharray:5,5;" x1="1278.8467" x2="1278.8467" y1="81.2969" y2="713.0859"/></g><g><title>ONG</title><rect fill="#000000" fill-opacity="0.00000" height="631.7891" width="8" x="1325.5366" y="81.2969"/><line style="stroke:#181818;stroke-width:0.5;stroke-dasharray:5,5;" x1="1329.3662" x2="1329.3662" y1="81.2969" y2="713.0859"/></g><g><title>Candidato</title><rect fill="#000000" fill-opacity="0.00000" height="631.7891" width="8" x="1393.4692" y="81.2969"/><line style="stroke:#181818;stroke-width:0.5;stroke-dasharray:5,5;" x1="1396.707" x2="1396.707" y1="81.2969" y2="713.0859"/></g><g><title>Recomendacao</title><rect fill="#000000" fill-opacity="0.00000" height="631.7891" width="8" x="1499.249" y="81.2969"/><line style="stroke:#181818;stroke-width:0.5;stroke-dasharray:5,5;" x1="1503.2314" x2="1503.2314" y1="81.2969" y2="713.0859"/></g><g><title>Campanha</title><rect fill="#000000" fill-opacity="0.00000" height="631.7891" width="8" x="1607.1582" y="81.2969"/><line style="stroke:#181818;stroke-width:0.5;stroke-dasharray:5,5;" x1="1610.2666" x2="1610.2666" y1="81.2969" y2="713.0859"/></g><g class="participant participant-head" data-participant="representante"><text fill="#000000" font-family="sans-serif" font-size="14" lengthAdjust="spacing" textLength="138.2158" x="5" y="77.9951">Representante R+S</text><ellipse cx="77.1079" cy="13.5" fill="#E2E2F0" rx="8" ry="8" style="stroke:#181818;stroke-width:0.5;"/><path d="M77.1079,21.5 L77.1079,48.5 M64.1079,29.5 L90.1079,29.5 M77.1079,48.5 L64.1079,63.5 M77.1079,48.5 L90.1079,63.5" fill="none" style="stroke:#181818;stroke-width:0.5;"/></g><g class="participant participant-tail" data-participant="representante"><text fill="#000000" font-family="sans-serif" font-size="14" lengthAdjust="spacing" textLength="138.2158" x="5" y="725.0811">Representante R+S</text><ellipse cx="77.1079" cy="736.8828" fill="#E2E2F0" rx="8" ry="8" style="stroke:#181818;stroke-width:0.5;"/><path d="M77.1079,744.8828 L77.1079,771.8828 M64.1079,752.8828 L90.1079,752.8828 M77.1079,771.8828 L64.1079,786.8828 M77.1079,771.8828 L90.1079,786.8828" fill="none" style="stroke:#181818;stroke-width:0.5;"/></g><g class="participant participant-head" data-participant="gui"><text fill="#000000" font-family="sans-serif" font-size="14" font-style="italic" lengthAdjust="spacing" textLength="77.5811" x="351.957" y="61.6982">&#171;fronteira&#187;</text><text fill="#000000" font-family="sans-serif" font-size="14" lengthAdjust="spacing" textLength="25.2246" x="378.1353" y="77.9951">GUI</text><path d="M373.2476,20.7031 L373.2476,44.7031 M373.2476,32.7031 L390.2476,32.7031" fill="none" style="stroke:#181818;stroke-width:0.5;"/><ellipse cx="402.2476" cy="32.7031" fill="#E2E2F0" rx="12" ry="12" style="stroke:#181818;stroke-width:0.5;"/></g><g class="participant participant-tail" data-participant="gui"><text fill="#000000" font-family="sans-serif" font-size="14" font-style="italic" lengthAdjust="spacing" textLength="77.5811" x="351.957" y="725.0811">&#171;fronteira&#187;</text><text fill="#000000" font-family="sans-serif" font-size="14" lengthAdjust="spacing" textLength="25.2246" x="378.1353" y="741.3779">GUI</text><path d="M373.2476,748.6797 L373.2476,772.6797 M373.2476,760.6797 L390.2476,760.6797" fill="none" style="stroke:#181818;stroke-width:0.5;"/><ellipse cx="402.2476" cy="760.6797" fill="#E2E2F0" rx="12" ry="12" style="stroke:#181818;stroke-width:0.5;"/></g><g class="participant participant-head" data-participant="candidatoController"><text fill="#000000" font-family="sans-serif" font-size="14" font-style="italic" lengthAdjust="spacing" textLength="84.2256" x="473.7739" y="61.6982">&#171;controller&#187;</text><text fill="#000000" font-family="sans-serif" font-size="14" lengthAdjust="spacing" textLength="140.6973" x="445.5381" y="77.9951">CandidatoController</text><ellipse cx="518.8867" cy="32.7031" fill="#E2E2F0" rx="12" ry="12" style="stroke:#181818;stroke-width:0.5;"/><polygon fill="#181818" points="514.8867,20.7031,520.8867,15.7031,518.8867,20.7031,520.8867,25.7031,514.8867,20.7031" style="stroke:#181818;stroke-width:1;"/></g><g class="participant participant-tail" data-participant="candidatoController"><text fill="#000000" font-family="sans-serif" font-size="14" font-style="italic" lengthAdjust="spacing" textLength="84.2256" x="473.7739" y="725.0811">&#171;controller&#187;</text><text fill="#000000" font-family="sans-serif" font-size="14" lengthAdjust="spacing" textLength="140.6973" x="445.5381" y="741.3779">CandidatoController</text><ellipse cx="518.8867" cy="760.6797" fill="#E2E2F0" rx="12" ry="12" style="stroke:#181818;stroke-width:0.5;"/><polygon fill="#181818" points="514.8867,748.6797,520.8867,743.6797,518.8867,748.6797,520.8867,753.6797,514.8867,748.6797" style="stroke:#181818;stroke-width:1;"/></g><g class="participant participant-head" data-participant="ongController"><text fill="#000000" font-family="sans-serif" font-size="14" font-style="italic" lengthAdjust="spacing" textLength="84.2256" x="670.2744" y="61.6982">&#171;controller&#187;</text><text fill="#000000" font-family="sans-serif" font-size="14" lengthAdjust="spacing" textLength="101.5137" x="661.6304" y="77.9951">ONGController</text><ellipse cx="715.3872" cy="32.7031" fill="#E2E2F0" rx="12" ry="12" style="stroke:#181818;stroke-width:0.5;"/><polygon fill="#181818" points="711.3872,20.7031,717.3872,15.7031,715.3872,20.7031,717.3872,25.7031,711.3872,20.7031" style="stroke:#181818;stroke-width:1;"/></g><g class="participant participant-tail" data-participant="ongController"><text fill="#000000" font-family="sans-serif" font-size="14" font-style="italic" lengthAdjust="spacing" textLength="84.2256" x="670.2744" y="725.0811">&#171;controller&#187;</text><text fill="#000000" font-family="sans-serif" font-size="14" lengthAdjust="spacing" textLength="101.5137" x="661.6304" y="741.3779">ONGController</text><ellipse cx="715.3872" cy="760.6797" fill="#E2E2F0" rx="12" ry="12" style="stroke:#181818;stroke-width:0.5;"/><polygon fill="#181818" points="711.3872,748.6797,717.3872,743.6797,715.3872,748.6797,717.3872,753.6797,711.3872,748.6797" style="stroke:#181818;stroke-width:1;"/></g><g class="participant participant-head" data-participant="candidatos"><rect fill="#E2E2F0" height="30.2969" style="stroke:#181818;stroke-width:0.5;" width="92.8184" x="783.144" y="46"/><rect fill="#E2E2F0" height="30.2969" style="stroke:#181818;stroke-width:0.5;" width="92.8184" x="779.144" y="50"/><text fill="#000000" font-family="sans-serif" font-size="14" lengthAdjust="spacing" textLength="78.8184" x="786.144" y="69.9951">Candidatos</text></g><g class="participant participant-tail" data-participant="candidatos"><rect fill="#E2E2F0" height="30.2969" style="stroke:#181818;stroke-width:0.5;" width="92.8184" x="783.144" y="712.0859"/><rect fill="#E2E2F0" height="30.2969" style="stroke:#181818;stroke-width:0.5;" width="92.8184" x="779.144" y="716.0859"/><text fill="#000000" font-family="sans-serif" font-size="14" lengthAdjust="spacing" textLength="78.8184" x="786.144" y="736.0811">Candidatos</text></g><g class="participant participant-head" data-participant="ongs"><rect fill="#E2E2F0" height="30.2969" style="stroke:#181818;stroke-width:0.5;" width="53.6348" x="949.5645" y="46"/><rect fill="#E2E2F0" height="30.2969" style="stroke:#181818;stroke-width:0.5;" width="53.6348" x="945.5645" y="50"/><text fill="#000000" font-family="sans-serif" font-size="14" lengthAdjust="spacing" textLength="39.6348" x="952.5645" y="69.9951">ONGs</text></g><g class="participant participant-tail" data-participant="ongs"><rect fill="#E2E2F0" height="30.2969" style="stroke:#181818;stroke-width:0.5;" width="53.6348" x="949.5645" y="712.0859"/><rect fill="#E2E2F0" height="30.2969" style="stroke:#181818;stroke-width:0.5;" width="53.6348" x="945.5645" y="716.0859"/><text fill="#000000" font-family="sans-serif" font-size="14" lengthAdjust="spacing" textLength="39.6348" x="952.5645" y="736.0811">ONGs</text></g><g class="participant participant-head" data-participant="campanhas"><rect fill="#E2E2F0" height="30.2969" style="stroke:#181818;stroke-width:0.5;" width="97.0771" x="1017.1992" y="46"/><rect fill="#E2E2F0" height="30.2969" style="stroke:#181818;stroke-width:0.5;" width="97.0771" x="1013.1992" y="50"/><text fill="#000000" font-family="sans-serif" font-size="14" lengthAdjust="spacing" textLength="83.0771" x="1020.1992" y="69.9951">Campanhas</text></g><g class="participant participant-tail" data-participant="campanhas"><rect fill="#E2E2F0" height="30.2969" style="stroke:#181818;stroke-width:0.5;" width="97.0771" x="1017.1992" y="712.0859"/><rect fill="#E2E2F0" height="30.2969" style="stroke:#181818;stroke-width:0.5;" width="97.0771" x="1013.1992" y="716.0859"/><text fill="#000000" font-family="sans-serif" font-size="14" lengthAdjust="spacing" textLength="83.0771" x="1020.1992" y="736.0811">Campanhas</text></g><g class="participant participant-head" data-participant="perfis"><rect fill="#E2E2F0" height="30.2969" style="stroke:#181818;stroke-width:0.5;" width="52.9238" x="1128.2764" y="46"/><rect fill="#E2E2F0" height="30.2969" style="stroke:#181818;stroke-width:0.5;" width="52.9238" x="1124.2764" y="50"/><text fill="#000000" font-family="sans-serif" font-size="14" lengthAdjust="spacing" textLength="38.9238" x="1131.2764" y="69.9951">Perfis</text></g><g class="participant participant-tail" data-participant="perfis"><rect fill="#E2E2F0" height="30.2969" style="stroke:#181818;stroke-width:0.5;" width="52.9238" x="1128.2764" y="712.0859"/><rect fill="#E2E2F0" height="30.2969" style="stroke:#181818;stroke-width:0.5;" width="52.9238" x="1124.2764" y="716.0859"/><text fill="#000000" font-family="sans-serif" font-size="14" lengthAdjust="spacing" textLength="38.9238" x="1131.2764" y="736.0811">Perfis</text></g><g class="participant participant-head" data-participant="perfil"><text fill="#000000" font-family="sans-serif" font-size="14" lengthAdjust="spacing" textLength="35.5195" x="1258.8467" y="77.9951">Perfil</text><ellipse cx="1279.6064" cy="49" fill="#E2E2F0" rx="12" ry="12" style="stroke:#181818;stroke-width:0.5;"/><line style="stroke:#181818;stroke-width:0.5;" x1="1267.6064" x2="1291.6064" y1="63" y2="63"/></g><g class="participant participant-tail" data-participant="perfil"><text fill="#000000" font-family="sans-serif" font-size="14" lengthAdjust="spacing" textLength="35.5195" x="1258.8467" y="725.0811">Perfil</text><ellipse cx="1279.6064" cy="744.3828" fill="#E2E2F0" rx="12" ry="12" style="stroke:#181818;stroke-width:0.5;"/><line style="stroke:#181818;stroke-width:0.5;" x1="1267.6064" x2="1291.6064" y1="758.3828" y2="758.3828"/></g><g class="participant participant-head" data-participant="ong"><text fill="#000000" font-family="sans-serif" font-size="14" lengthAdjust="spacing" textLength="32.3408" x="1310.3662" y="77.9951">ONG</text><ellipse cx="1329.5366" cy="49" fill="#E2E2F0" rx="12" ry="12" style="stroke:#181818;stroke-width:0.5;"/><line style="stroke:#181818;stroke-width:0.5;" x1="1317.5366" x2="1341.5366" y1="63" y2="63"/></g><g class="participant participant-tail" data-participant="ong"><text fill="#000000" font-family="sans-serif" font-size="14" lengthAdjust="spacing" textLength="32.3408" x="1310.3662" y="725.0811">ONG</text><ellipse cx="1329.5366" cy="744.3828" fill="#E2E2F0" rx="12" ry="12" style="stroke:#181818;stroke-width:0.5;"/><line style="stroke:#181818;stroke-width:0.5;" x1="1317.5366" x2="1341.5366" y1="758.3828" y2="758.3828"/></g><g class="participant participant-head" data-participant="candidato"><text fill="#000000" font-family="sans-serif" font-size="14" lengthAdjust="spacing" textLength="71.5244" x="1358.707" y="77.9951">Candidato</text><ellipse cx="1397.4692" cy="49" fill="#E2E2F0" rx="12" ry="12" style="stroke:#181818;stroke-width:0.5;"/><line style="stroke:#181818;stroke-width:0.5;" x1="1385.4692" x2="1409.4692" y1="63" y2="63"/></g><g class="participant participant-tail" data-participant="candidato"><text fill="#000000" font-family="sans-serif" font-size="14" lengthAdjust="spacing" textLength="71.5244" x="1358.707" y="725.0811">Candidato</text><ellipse cx="1397.4692" cy="744.3828" fill="#E2E2F0" rx="12" ry="12" style="stroke:#181818;stroke-width:0.5;"/><line style="stroke:#181818;stroke-width:0.5;" x1="1385.4692" x2="1409.4692" y1="758.3828" y2="758.3828"/></g><g class="participant participant-head" data-participant="recomendacao"><text fill="#000000" font-family="sans-serif" font-size="14" lengthAdjust="spacing" textLength="108.0352" x="1446.2314" y="77.9951">Recomendacao</text><ellipse cx="1503.249" cy="49" fill="#E2E2F0" rx="12" ry="12" style="stroke:#181818;stroke-width:0.5;"/><line style="stroke:#181818;stroke-width:0.5;" x1="1491.249" x2="1515.249" y1="63" y2="63"/></g><g class="participant participant-tail" data-participant="recomendacao"><text fill="#000000" font-family="sans-serif" font-size="14" lengthAdjust="spacing" textLength="108.0352" x="1446.2314" y="725.0811">Recomendacao</text><ellipse cx="1503.249" cy="744.3828" fill="#E2E2F0" rx="12" ry="12" style="stroke:#181818;stroke-width:0.5;"/><line style="stroke:#181818;stroke-width:0.5;" x1="1491.249" x2="1515.249" y1="758.3828" y2="758.3828"/></g><g class="participant participant-head" data-participant="campanha"><text fill="#000000" font-family="sans-serif" font-size="14" lengthAdjust="spacing" textLength="75.7832" x="1570.2666" y="77.9951">Campanha</text><ellipse cx="1611.1582" cy="49" fill="#E2E2F0" rx="12" ry="12" style="stroke:#181818;stroke-width:0.5;"/><line style="stroke:#181818;stroke-width:0.5;" x1="1599.1582" x2="1623.1582" y1="63" y2="63"/></g><g class="participant participant-tail" data-participant="campanha"><text fill="#000000" font-family="sans-serif" font-size="14" lengthAdjust="spacing" textLength="75.7832" x="1570.2666" y="725.0811">Campanha</text><ellipse cx="1611.1582" cy="744.3828" fill="#E2E2F0" rx="12" ry="12" style="stroke:#181818;stroke-width:0.5;"/><line style="stroke:#181818;stroke-width:0.5;" x1="1599.1582" x2="1623.1582" y1="758.3828" y2="758.3828"/></g><g><title>..fronteira..</title><rect fill="#FFFFFF" height="582.6563" style="stroke:#181818;stroke-width:1;" width="10" x="388.7476" y="112.4297"/></g><g><title>..controller..</title><rect fill="#FFFFFF" height="553.5234" style="stroke:#181818;stroke-width:1;" width="10" x="710.3872" y="141.5625"/></g><g><title>ONGs</title><rect fill="#FFFFFF" height="203.9297" style="stroke:#181818;stroke-width:1;" width="10" x="969.3818" y="170.6953"/></g><g><title>Campanhas</title><rect fill="#FFFFFF" height="87.3984" style="stroke:#181818;stroke-width:1;" width="10" x="1058.7378" y="549.4219"/></g><g><title>Perfis</title><rect fill="#FFFFFF" height="87.3984" style="stroke:#181818;stroke-width:1;" width="10" x="1147.7383" y="228.9609"/></g><g><title>Perfil</title><rect fill="#FFFFFF" height="29.1328" style="stroke:#181818;stroke-width:1;" width="10" x="1274.6064" y="258.0938"/></g><g><title>ONG</title><rect fill="#FFFFFF" height="145.6641" style="stroke:#181818;stroke-width:1;" width="10" x="1324.5366" y="199.8281"/></g><g><title>ONG</title><rect fill="#FFFFFF" height="145.6641" style="stroke:#181818;stroke-width:1;" width="10" x="1324.5366" y="520.2891"/></g><g><title>Recomendacao</title><rect fill="#FFFFFF" height="262.1953" style="stroke:#181818;stroke-width:1;" width="10" x="1498.249" y="403.7578"/></g><g><title>Campanha</title><rect fill="#FFFFFF" height="29.1328" style="stroke:#181818;stroke-width:1;" width="10" x="1606.1582" y="578.5547"/></g><g class="message" data-participant-1="representante" data-participant-2="gui"><polygon fill="#181818" points="376.7476,108.4297,386.7476,112.4297,376.7476,116.4297,380.7476,112.4297" style="stroke:#181818;stroke-width:1;"/><line style="stroke:#181818;stroke-width:1;" x1="77.1079" x2="382.7476" y1="112.4297" y2="112.4297"/><text fill="#000000" font-family="sans-serif" font-size="13" lengthAdjust="spacing" textLength="292.6396" x="84.1079" y="107.3638">solicita&#231;&#227;oRecomendacaoOngParceira(perfil)</text></g><g class="message" data-participant-1="gui" data-participant-2="ongController"><polygon fill="#181818" points="698.3872,137.5625,708.3872,141.5625,698.3872,145.5625,702.3872,141.5625" style="stroke:#181818;stroke-width:1;"/><line style="stroke:#181818;stroke-width:1;" x1="398.7476" x2="704.3872" y1="141.5625" y2="141.5625"/><text fill="#000000" font-family="sans-serif" font-size="13" lengthAdjust="spacing" textLength="292.6396" x="405.7476" y="136.4966">solicita&#231;&#227;oRecomendacaoOngParceira(perfil)</text></g><g class="message" data-participant-1="ongController" data-participant-2="ongs"><polygon fill="#181818" points="957.3818,166.6953,967.3818,170.6953,957.3818,174.6953,961.3818,170.6953" style="stroke:#181818;stroke-width:1;"/><line style="stroke:#181818;stroke-width:1;" x1="720.3872" x2="963.3818" y1="170.6953" y2="170.6953"/><text fill="#000000" font-family="sans-serif" font-size="13" lengthAdjust="spacing" textLength="229.9946" x="727.3872" y="165.6294">filtroONGDeAcordoComPerfil(perfil)</text></g><g class="message" data-participant-1="ongs" data-participant-2="ong"><polygon fill="#181818" points="1312.5366,195.8281,1322.5366,199.8281,1312.5366,203.8281,1316.5366,199.8281" style="stroke:#181818;stroke-width:1;"/><line style="stroke:#181818;stroke-width:1;" x1="979.3818" x2="1318.5366" y1="199.8281" y2="199.8281"/><text fill="#000000" font-family="sans-serif" font-size="13" lengthAdjust="spacing" textLength="217.7119" x="986.3818" y="194.7622">retornaDeAcordoComPerfil(perfil)</text></g><g class="message" data-participant-1="ong" data-participant-2="perfis"><polygon fill="#181818" points="1168.7383,224.9609,1158.7383,228.9609,1168.7383,232.9609,1164.7383,228.9609" style="stroke:#181818;stroke-width:1;"/><line style="stroke:#181818;stroke-width:1;" x1="1162.7383" x2="1323.5366" y1="228.9609" y2="228.9609"/><text fill="#000000" font-family="sans-serif" font-size="13" lengthAdjust="spacing" textLength="126.769" x="1174.7383" y="223.895">procuraPerfil(perfil)</text></g><g class="message" data-participant-1="perfis" data-participant-2="perfil"><polygon fill="#181818" points="1262.6064,254.0938,1272.6064,258.0938,1262.6064,262.0938,1266.6064,258.0938" style="stroke:#181818;stroke-width:1;"/><line style="stroke:#181818;stroke-width:1;" x1="1157.7383" x2="1268.6064" y1="258.0938" y2="258.0938"/><text fill="#000000" font-family="sans-serif" font-size="13" lengthAdjust="spacing" textLength="97.8682" x="1164.7383" y="253.0278">getPerfil(perfil)</text></g><g class="message" data-participant-1="perfil" data-participant-2="perfis"><polygon fill="#181818" points="1168.7383,283.2266,1158.7383,287.2266,1168.7383,291.2266,1164.7383,287.2266" style="stroke:#181818;stroke-width:1;"/><line style="stroke:#181818;stroke-width:1;stroke-dasharray:2,2;" x1="1162.7383" x2="1278.6064" y1="287.2266" y2="287.2266"/><text fill="#000000" font-family="sans-serif" font-size="13" lengthAdjust="spacing" textLength="33.395" x="1174.7383" y="282.1606">perfil</text></g><g class="message" data-participant-1="perfis" data-participant-2="ong"><polygon fill="#181818" points="1312.5366,312.3594,1322.5366,316.3594,1312.5366,320.3594,1316.5366,316.3594" style="stroke:#181818;stroke-width:1;"/><line style="stroke:#181818;stroke-width:1;stroke-dasharray:2,2;" x1="1152.7383" x2="1318.5366" y1="316.3594" y2="316.3594"/><text fill="#000000" font-family="sans-serif" font-size="13" lengthAdjust="spacing" textLength="33.395" x="1159.7383" y="311.2935">perfil</text></g><g class="message" data-participant-1="ong" data-participant-2="ongs"><polygon fill="#181818" points="990.3818,341.4922,980.3818,345.4922,990.3818,349.4922,986.3818,345.4922" style="stroke:#181818;stroke-width:1;"/><line style="stroke:#181818;stroke-width:1;stroke-dasharray:2,2;" x1="984.3818" x2="1328.5366" y1="345.4922" y2="345.4922"/><text fill="#000000" font-family="sans-serif" font-size="13" lengthAdjust="spacing" textLength="24.4448" x="996.3818" y="340.4263">ong</text></g><g class="message" data-participant-1="ongs" data-participant-2="ongController"><polygon fill="#181818" points="731.3872,370.625,721.3872,374.625,731.3872,378.625,727.3872,374.625" style="stroke:#181818;stroke-width:1;"/><line style="stroke:#181818;stroke-width:1;stroke-dasharray:2,2;" x1="725.3872" x2="973.3818" y1="374.625" y2="374.625"/><text fill="#000000" font-family="sans-serif" font-size="13" lengthAdjust="spacing" textLength="31.2178" x="737.3872" y="369.5591">ongs</text></g><g class="message" data-participant-1="ongController" data-participant-2="recomendacao"><polygon fill="#181818" points="1486.249,399.7578,1496.249,403.7578,1486.249,407.7578,1490.249,403.7578" style="stroke:#181818;stroke-width:1;"/><line style="stroke:#181818;stroke-width:1;" x1="720.3872" x2="1492.249" y1="403.7578" y2="403.7578"/><text fill="#000000" font-family="sans-serif" font-size="13" lengthAdjust="spacing" textLength="41.5518" x="727.3872" y="398.6919">create</text></g><g class="message" data-participant-1="recomendacao" data-participant-2="ongController"><polygon fill="#181818" points="731.3872,428.8906,721.3872,432.8906,731.3872,436.8906,727.3872,432.8906" style="stroke:#181818;stroke-width:1;"/><line style="stroke:#181818;stroke-width:1;stroke-dasharray:2,2;" x1="725.3872" x2="1497.249" y1="432.8906" y2="432.8906"/><text fill="#000000" font-family="sans-serif" font-size="13" lengthAdjust="spacing" textLength="96.6304" x="737.3872" y="427.8247">recomendacao</text></g><g class="message" data-participant-1="ongController" data-participant-2="recomendacao"><polygon fill="#181818" points="1486.249,458.0234,1496.249,462.0234,1486.249,466.0234,1490.249,462.0234" style="stroke:#181818;stroke-width:1;"/><line style="stroke:#181818;stroke-width:1;" x1="720.3872" x2="1492.249" y1="462.0234" y2="462.0234"/><text fill="#000000" font-family="sans-serif" font-size="13" lengthAdjust="spacing" textLength="123.0493" x="727.3872" y="456.9575">associaOngs(ongs)</text></g><g class="message" data-participant-1="ongController" data-participant-2="recomendacao"><polygon fill="#181818" points="1486.249,487.1563,1496.249,491.1563,1486.249,495.1563,1490.249,491.1563" style="stroke:#181818;stroke-width:1;"/><line style="stroke:#181818;stroke-width:1;" x1="720.3872" x2="1492.249" y1="491.1563" y2="491.1563"/><text fill="#000000" font-family="sans-serif" font-size="13" lengthAdjust="spacing" textLength="159.9229" x="727.3872" y="486.0903">associaCampanha(ongs)</text></g><g class="message" data-participant-1="recomendacao" data-participant-2="ong"><polygon fill="#181818" points="1345.5366,516.2891,1335.5366,520.2891,1345.5366,524.2891,1341.5366,520.2891" style="stroke:#181818;stroke-width:1;"/><line style="stroke:#181818;stroke-width:1;" x1="1339.5366" x2="1497.249" y1="520.2891" y2="520.2891"/><text fill="#000000" font-family="sans-serif" font-size="13" lengthAdjust="spacing" textLength="108.6338" x="1351.5366" y="515.2231">getCampanhas()</text></g><g class="message" data-participant-1="ong" data-participant-2="campanhas"><polygon fill="#181818" points="1079.7378,545.4219,1069.7378,549.4219,1079.7378,553.4219,1075.7378,549.4219" style="stroke:#181818;stroke-width:1;"/><line style="stroke:#181818;stroke-width:1;" x1="1073.7378" x2="1323.5366" y1="549.4219" y2="549.4219"/><text fill="#000000" font-family="sans-serif" font-size="13" lengthAdjust="spacing" textLength="101.8608" x="1085.7378" y="544.356">getCampanha()</text></g><g class="message" data-participant-1="campanhas" data-participant-2="campanha"><polygon fill="#181818" points="1594.1582,574.5547,1604.1582,578.5547,1594.1582,582.5547,1598.1582,578.5547" style="stroke:#181818;stroke-width:1;"/><line style="stroke:#181818;stroke-width:1;" x1="1068.7378" x2="1600.1582" y1="578.5547" y2="578.5547"/><text fill="#000000" font-family="sans-serif" font-size="13" lengthAdjust="spacing" textLength="31.4907" x="1075.7378" y="573.4888">get()</text></g><g class="message" data-participant-1="campanha" data-participant-2="campanhas"><polygon fill="#181818" points="1079.7378,603.6875,1069.7378,607.6875,1079.7378,611.6875,1075.7378,607.6875" style="stroke:#181818;stroke-width:1;"/><line style="stroke:#181818;stroke-width:1;stroke-dasharray:2,2;" x1="1073.7378" x2="1610.1582" y1="607.6875" y2="607.6875"/><text fill="#000000" font-family="sans-serif" font-size="13" lengthAdjust="spacing" textLength="68.4404" x="1085.7378" y="602.6216">campanha</text></g><g class="message" data-participant-1="campanhas" data-participant-2="ong"><polygon fill="#181818" points="1312.5366,632.8203,1322.5366,636.8203,1312.5366,640.8203,1316.5366,636.8203" style="stroke:#181818;stroke-width:1;"/><line style="stroke:#181818;stroke-width:1;stroke-dasharray:2,2;" x1="1063.7378" x2="1318.5366" y1="636.8203" y2="636.8203"/><text fill="#000000" font-family="sans-serif" font-size="13" lengthAdjust="spacing" textLength="83.1797" x="1070.7378" y="631.7544">camapanhas</text></g><g class="message" data-participant-1="ong" data-participant-2="recomendacao"><polygon fill="#181818" points="1491.249,661.9531,1501.249,665.9531,1491.249,669.9531,1495.249,665.9531" style="stroke:#181818;stroke-width:1;"/><line style="stroke:#181818;stroke-width:1;stroke-dasharray:2,2;" x1="1329.5366" x2="1497.249" y1="665.9531" y2="665.9531"/><text fill="#000000" font-family="sans-serif" font-size="13" lengthAdjust="spacing" textLength="75.2134" x="1336.5366" y="660.8872">campanhas</text></g><g class="message" data-participant-1="ongController" data-participant-2="gui"><polygon fill="#181818" points="404.7476,691.0859,394.7476,695.0859,404.7476,699.0859,400.7476,695.0859" style="stroke:#181818;stroke-width:1;"/><line style="stroke:#181818;stroke-width:1;stroke-dasharray:2,2;" x1="398.7476" x2="714.3872" y1="695.0859" y2="695.0859"/><text fill="#000000" font-family="sans-serif" font-size="13" lengthAdjust="spacing" textLength="96.6304" x="410.7476" y="690.02">recomenda&#231;&#227;o</text></g><!--SRC=[dPLTQkCm4CVVTOeXJocb5p0bi7IXz6LRKlO0ixAQ2XmfICv2pzE7FKWljcFh8nh5TjhgoPwFtumqVzaeU-jWjLK7fxmoFPfUmVRwUGNemPLMySSUJOlk3LRtlnz6_-weuVRsnLboQuURZP3qw6m7gpiqhMwnjtV1qYatfiXpEo5aVYaPZx_kgsnhTYTBbKPvz2HxROqlwdjUrlCmAk4JsTU4_G7DAoP0VED1Jygzw11n61-5eEFI_LjqTITNbprKDDNCjjmlRpVxjqhQlQBpbsZZR4w6WXAwP2qB8TWWuMOpJAu1RpijTOyV_pxURLdWqUoUqCbXfklG-vL0sl9Vf6nA5K1h63wHs4Y-o1mmcSj0esjOp1hh-GOedMnqa3_L3sbTItBQXmDdyBg0pzR8zX7Pq7dIHJ1ucJSizb8MO8vOOoWHnD70mLbvTBY0PiGaAfXOmPNXNGCxrLy0dnM8oeI55KBWfjp5SbQhFiDF_QS1p8JMC3zzn5aPzH2A_DeLvd-kuL4eOXf0ZdbjbdUo0UaK9PthaDtSUZEbSwgtnUGB3Q7tLcgac-ZNmrQklWb8NvaP2Dz2d2vfCtzGrmkANxX3-HFCQ4kmqqUx3icU4ZnoFyERr7DoZbChUfrDAeGr6rFqcKwIJ3YpgmdY_7Mfn3eRlt21fkx8f40hNQKVK8uT_nO1nyiLVuJ2GSd_0G00]--></g></svg>