<svg xmlns="http://www.w3.org/2000/svg" xmlns:xlink="http://www.w3.org/1999/xlink" contentStyleType="text/css" data-diagram-type="SEQUENCE" height="1347px" preserveAspectRatio="none" style="width:2014px;height:1347px;background:#FFFFFF;" version="1.1" viewBox="0 0 2014 1347" width="2014px" zoomAndPan="magnify"><defs/><g><g><title>..fronteira..</title><rect fill="#FFFFFF" height="1136.1797" style="stroke:#181818;stroke-width:1;" width="10" x="299.4741" y="112.4297"/></g><g><title>..controller..</title><rect fill="#FFFFFF" height="1107.0469" style="stroke:#181818;stroke-width:1;" width="10" x="605.0459" y="141.5625"/></g><g><title>Candidatos</title><rect fill="#FFFFFF" height="87.3984" style="stroke:#181818;stroke-width:1;" width="10" x="854.3174" y="170.6953"/></g><g><title>Candidato</title><rect fill="#FFFFFF" height="29.1328" style="stroke:#181818;stroke-width:1;" width="10" x="1197.1245" y="199.8281"/></g><g><title>Candidato</title><rect fill="#FFFFFF" height="145.6641" style="stroke:#181818;stroke-width:1;" width="10" x="1197.1245" y="287.2266"/></g><g><title>Perfil</title><rect fill="#FFFFFF" height="29.1328" style="stroke:#181818;stroke-width:1;" width="10" x="1290.5977" y="374.625"/></g><g><title>Perfil</title><rect fill="#FFFFFF" height="495.2578" style="stroke:#181818;stroke-width:1;" width="10" x="1290.5977" y="695.0859"/></g><g><title>Habilidades</title><rect fill="#FFFFFF" height="87.3984" style="stroke:#181818;stroke-width:1;" width="10" x="1432.1143" y="840.75"/></g><g><title>Habilidade</title><rect fill="#FFFFFF" height="29.1328" style="stroke:#181818;stroke-width:1;" width="10" x="1561.9023" y="869.8828"/></g><g><title>Interesses</title><rect fill="#FFFFFF" height="87.3984" style="stroke:#181818;stroke-width:1;" width="10" x="1657.2007" y="1073.8125"/></g><g><title>Interesse</title><rect fill="#FFFFFF" height="29.1328" style="stroke:#181818;stroke-width:1;" width="10" x="1777.7466" y="1102.9453"/></g><g><title>Volunt.rios</title><rect fill="#FFFFFF" height="29.1328" style="stroke:#181818;stroke-width:1;" width="10" x="1871.7598" y="578.5547"/></g><g><title>Volunt.rio</title><rect fill="#FFFFFF" height="58.2656" style="stroke:#181818;stroke-width:1;" width="10" x="1969.4644" y="491.1563"/></g><g><title>Volunt.rio</title><rect fill="#FFFFFF" height="553.5234" style="stroke:#181818;stroke-width:1;" width="10" x="1969.4644" y="665.9531"/></g><g><title>Representante R.S</title><rect fill="#000000" fill-opacity="0.00000" height="1185.3125" width="8" x="73.1079" y="81.2969"/><line style="stroke:#181818;stroke-width:0.5;stroke-dasharray:5,5;" x1="77" x2="77" y1="81.2969" y2="1266.6094"/></g><g><title>..fronteira..</title><rect fill="#000000" fill-opacity="0.00000" height="1185.3125" width="8" x="300.4741" y="81.2969"/><line style="stroke:#181818;stroke-width:0.5;stroke-dasharray:5,5;" x1="303.6836" x2="303.6836" y1="81.2969" y2="1266.6094"/></g><g><title>..controller..</title><rect fill="#000000" fill-opacity="0.00000" height="1185.3125" width="8" x="606.0459" y="81.2969"/><line style="stroke:#181818;stroke-width:0.5;stroke-dasharray:5,5;" x1="609.6973" x2="609.6973" y1="81.2969" y2="1266.6094"/></g><g><title>..controller..</title><rect fill="#000000" fill-opacity="0.00000" height="1185.3125" width="8" x="743.1514" y="81.2969"/><line style="stroke:#181818;stroke-width:0.5;stroke-dasharray:5,5;" x1="746.3945" x2="746.3945" y1="81.2969" y2="1266.6094"/></g><g><title>Candidatos</title><rect fill="#000000" fill-opacity="0.00000" height="1185.3125" width="8" x="855.3174" y="81.2969"/><line style="stroke:#181818;stroke-width:0.5;stroke-dasharray:5,5;" x1="858.9082" x2="858.9082" y1="81.2969" y2="1266.6094"/></g><g><title>ONGs</title><rect fill="#000000" fill-opacity="0.00000" height="1185.3125" width="8" x="942.5439" y="81.2969"/><line style="stroke:#181818;stroke-width:0.5;stroke-dasharray:5,5;" x1="945.7266" x2="945.7266" y1="81.2969" y2="1266.6094"/></g><g><title>Campanhas</title><rect fill="#000000" fill-opacity="0.00000" height="1185.3125" width="8" x="1031.8999" y="81.2969"/><line style="stroke:#181818;stroke-width:0.5;stroke-dasharray:5,5;" x1="1035.3613" x2="1035.3613" y1="81.2969" y2="1266.6094"/></g><g><title>Perfis</title><rect fill="#000000" fill-opacity="0.00000" height="1185.3125" width="8" x="1120.9004" y="81.2969"/><line style="stroke:#181818;stroke-width:0.5;stroke-dasharray:5,5;" x1="1124.4385" x2="1124.4385" y1="81.2969" y2="1266.6094"/></g><g><title>Candidato</title><rect fill="#000000" fill-opacity="0.00000" height="1185.3125" width="8" x="1198.1245" y="81.2969"/><line style="stroke:#181818;stroke-width:0.5;stroke-dasharray:5,5;" x1="1201.3623" x2="1201.3623" y1="81.2969" y2="1266.6094"/></g><g><title>Perfil</title><rect fill="#000000" fill-opacity="0.00000" height="1185.3125" width="8" x="1291.5977" y="81.2969"/><line style="stroke:#181818;stroke-width:0.5;stroke-dasharray:5,5;" x1="1294.8379" x2="1294.8379" y1="81.2969" y2="1266.6094"/></g><g><title>Habilidades</title><rect fill="#000000" fill-opacity="0.00000" height="1185.3125" width="8" x="1433.1143" y="81.2969"/><line style="stroke:#181818;stroke-width:0.5;stroke-dasharray:5,5;" x1="1436.1533" x2="1436.1533" y1="81.2969" y2="1266.6094"/></g><g><title>Habilidade</title><rect fill="#000000" fill-opacity="0.00000" height="1185.3125" width="8" x="1562.9023" y="81.2969"/><line style="stroke:#181818;stroke-width:0.5;stroke-dasharray:5,5;" x1="1566.5884" x2="1566.5884" y1="81.2969" y2="1266.6094"/></g><g><title>Interesses</title><rect fill="#000000" fill-opacity="0.00000" height="1185.3125" width="8" x="1658.2007" y="81.2969"/><line style="stroke:#181818;stroke-width:0.5;stroke-dasharray:5,5;" x1="1661.2163" x2="1661.2163" y1="81.2969" y2="1266.6094"/></g><g><title>Interesse</title><rect fill="#000000" fill-opacity="0.00000" height="1185.3125" width="8" x="1778.7466" y="81.2969"/><line style="stroke:#181818;stroke-width:0.5;stroke-dasharray:5,5;" x1="1782.4092" x2="1782.4092" y1="81.2969" y2="1266.6094"/></g><g><title>Volunt.rios</title><rect fill="#000000" fill-opacity="0.00000" height="1185.3125" width="8" x="1872.7598" y="81.2969"/><line style="stroke:#181818;stroke-width:0.5;stroke-dasharray:5,5;" x1="1876.084" x2="1876.084" y1="81.2969" y2="1266.6094"/></g><g><title>Volunt.rio</title><rect fill="#000000" fill-opacity="0.00000" height="1185.3125" width="8" x="1970.4644" y="81.2969"/><line style="stroke:#181818;stroke-width:0.5;stroke-dasharray:5,5;" x1="1974.4355" x2="1974.4355" y1="81.2969" y2="1266.6094"/></g><g class="participant participant-head" data-participant="representante"><text fill="#000000" font-family="sans-serif" font-size="14" lengthAdjust="spacing" textLength="138.2158" x="5" y="77.9951">Representante R+S</text><ellipse cx="77.1079" cy="13.5" fill="#E2E2F0" rx="8" ry="8" style="stroke:#181818;stroke-width:0.5;"/><path d="M77.1079,21.5 L77.1079,48.5 M64.1079,29.5 L90.1079,29.5 M77.1079,48.5 L64.1079,63.5 M77.1079,48.5 L90.1079,63.5" fill="none" style="stroke:#181818;stroke-width:0.5;"/></g><g class="participant participant-tail" data-participant="representante"><text fill="#000000" font-family="sans-serif" font-size="14" lengthAdjust="spacing" textLength="138.2158" x="5" y="1278.6045">Representante R+S</text><ellipse cx="77.1079" cy="1290.4063" fill="#E2E2F0" rx="8" ry="8" style="stroke:#181818;stroke-width:0.5;"/><path d="M77.1079,1298.4063 L77.1079,1325.4063 M64.1079,1306.4063 L90.1079,1306.4063 M77.1079,1325.4063 L64.1079,1340.4063 M77.1079,1325.4063 L90.1079,1340.4063" fill="none" style="stroke:#181818;stroke-width:0.5;"/></g><g class="participant participant-head" data-participant="gui"><text fill="#000000" font-family="sans-serif" font-size="14" font-style="italic" lengthAdjust="spacing" textLength="77.5811" x="262.6836" y="61.6982">&#171;fronteira&#187;</text><text fill="#000000" font-family="sans-serif" font-size="14" lengthAdjust="spacing" textLength="25.2246" x="288.8618" y="77.9951">GUI</text><path d="M283.9741,20.7031 L283.9741,44.7031 M283.9741,32.7031 L300.9741,32.7031" fill="none" style="stroke:#181818;stroke-width:0.5;"/><ellipse cx="312.9741" cy="32.7031" fill="#E2E2F0" rx="12" ry="12" style="stroke:#181818;stroke-width:0.5;"/></g><g class="participant participant-tail" data-participant="gui"><text fill="#000000" font-family="sans-serif" font-size="14" font-style="italic" lengthAdjust="spacing" textLength="77.5811" x="262.6836" y="1278.6045">&#171;fronteira&#187;</text><text fill="#000000" font-family="sans-serif" font-size="14" lengthAdjust="spacing" textLength="25.2246" x="288.8618" y="1294.9014">GUI</text><path d="M283.9741,1302.2031 L283.9741,1326.2031 M283.9741,1314.2031 L300.9741,1314.2031" fill="none" style="stroke:#181818;stroke-width:0.5;"/><ellipse cx="312.9741" cy="1314.2031" fill="#E2E2F0" rx="12" ry="12" style="stroke:#181818;stroke-width:0.5;"/></g><g class="participant participant-head" data-participant="candidatoController"><text fill="#000000" font-family="sans-serif" font-size="14" font-style="italic" lengthAdjust="spacing" textLength="84.2256" x="564.9331" y="61.6982">&#171;controller&#187;</text><text fill="#000000" font-family="sans-serif" font-size="14" lengthAdjust="spacing" textLength="140.6973" x="536.6973" y="77.9951">CandidatoController</text><ellipse cx="610.0459" cy="32.7031" fill="#E2E2F0" rx="12" ry="12" style="stroke:#181818;stroke-width:0.5;"/><polygon fill="#181818" points="606.0459,20.7031,612.0459,15.7031,610.0459,20.7031,612.0459,25.7031,606.0459,20.7031" style="stroke:#181818;stroke-width:1;"/></g><g class="participant participant-tail" data-participant="candidatoController"><text fill="#000000" font-family="sans-serif" font-size="14" font-style="italic" lengthAdjust="spacing" textLength="84.2256" x="564.9331" y="1278.6045">&#171;controller&#187;</text><text fill="#000000" font-family="sans-serif" font-size="14" lengthAdjust="spacing" textLength="140.6973" x="536.6973" y="1294.9014">CandidatoController</text><ellipse cx="610.0459" cy="1314.2031" fill="#E2E2F0" rx="12" ry="12" style="stroke:#181818;stroke-width:0.5;"/><polygon fill="#181818" points="606.0459,1302.2031,612.0459,1297.2031,610.0459,1302.2031,612.0459,1307.2031,606.0459,1302.2031" style="stroke:#181818;stroke-width:1;"/></g><g class="participant participant-head" data-participant="ongController"><text fill="#000000" font-family="sans-serif" font-size="14" font-style="italic" lengthAdjust="spacing" textLength="84.2256" x="702.0386" y="61.6982">&#171;controller&#187;</text><text fill="#000000" font-family="sans-serif" font-size="14" lengthAdjust="spacing" textLength="101.5137" x="693.3945" y="77.9951">ONGController</text><ellipse cx="747.1514" cy="32.7031" fill="#E2E2F0" rx="12" ry="12" style="stroke:#181818;stroke-width:0.5;"/><polygon fill="#181818" points="743.1514,20.7031,749.1514,15.7031,747.1514,20.7031,749.1514,25.7031,743.1514,20.7031" style="stroke:#181818;stroke-width:1;"/></g><g class="participant participant-tail" data-participant="ongController"><text fill="#000000" font-family="sans-serif" font-size="14" font-style="italic" lengthAdjust="spacing" textLength="84.2256" x="702.0386" y="1278.6045">&#171;controller&#187;</text><text fill="#000000" font-family="sans-serif" font-size="14" lengthAdjust="spacing" textLength="101.5137" x="693.3945" y="1294.9014">ONGController</text><ellipse cx="747.1514" cy="1314.2031" fill="#E2E2F0" rx="12" ry="12" style="stroke:#181818;stroke-width:0.5;"/><polygon fill="#181818" points="743.1514,1302.2031,749.1514,1297.2031,747.1514,1302.2031,749.1514,1307.2031,743.1514,1302.2031" style="stroke:#181818;stroke-width:1;"/></g><g class="participant participant-head" data-participant="candidatos"><rect fill="#E2E2F0" height="30.2969" style="stroke:#181818;stroke-width:0.5;" width="92.8184" x="814.9082" y="46"/><rect fill="#E2E2F0" height="30.2969" style="stroke:#181818;stroke-width:0.5;" width="92.8184" x="810.9082" y="50"/><text fill="#000000" font-family="sans-serif" font-size="14" lengthAdjust="spacing" textLength="78.8184" x="817.9082" y="69.9951">Candidatos</text></g><g class="participant participant-tail" data-participant="candidatos"><rect fill="#E2E2F0" height="30.2969" style="stroke:#181818;stroke-width:0.5;" width="92.8184" x="814.9082" y="1265.6094"/><rect fill="#E2E2F0" height="30.2969" style="stroke:#181818;stroke-width:0.5;" width="92.8184" x="810.9082" y="1269.6094"/><text fill="#000000" font-family="sans-serif" font-size="14" lengthAdjust="spacing" textLength="78.8184" x="817.9082" y="1289.6045">Candidatos</text></g><g class="participant participant-head" data-participant="ongs"><rect fill="#E2E2F0" height="30.2969" style="stroke:#181818;stroke-width:0.5;" width="53.6348" x="921.7266" y="46"/><rect fill="#E2E2F0" height="30.2969" style="stroke:#181818;stroke-width:0.5;" width="53.6348" x="917.7266" y="50"/><text fill="#000000" font-family="sans-serif" font-size="14" lengthAdjust="spacing" textLength="39.6348" x="924.7266" y="69.9951">ONGs</text></g><g class="participant participant-tail" data-participant="ongs"><rect fill="#E2E2F0" height="30.2969" style="stroke:#181818;stroke-width:0.5;" width="53.6348" x="921.7266" y="1265.6094"/><rect fill="#E2E2F0" height="30.2969" style="stroke:#181818;stroke-width:0.5;" width="53.6348" x="917.7266" y="1269.6094"/><text fill="#000000" font-family="sans-serif" font-size="14" lengthAdjust="spacing" textLength="39.6348" x="924.7266" y="1289.6045">ONGs</text></g><g class="participant participant-head" data-participant="campanhas"><rect fill="#E2E2F0" height="30.2969" style="stroke:#181818;stroke-width:0.5;" width="97.0771" x="989.3613" y="46"/><rect fill="#E2E2F0" height="30.2969" style="stroke:#181818;stroke-width:0.5;" width="97.0771" x="985.3613" y="50"/><text fill="#000000" font-family="sans-serif" font-size="14" lengthAdjust="spacing" textLength="83.0771" x="992.3613" y="69.9951">Campanhas</text></g><g class="participant participant-tail" data-participant="campanhas"><rect fill="#E2E2F0" height="30.2969" style="stroke:#181818;stroke-width:0.5;" width="97.0771" x="989.3613" y="1265.6094"/><rect fill="#E2E2F0" height="30.2969" style="stroke:#181818;stroke-width:0.5;" width="97.0771" x="985.3613" y="1269.6094"/><text fill="#000000" font-family="sans-serif" font-size="14" lengthAdjust="spacing" textLength="83.0771" x="992.3613" y="1289.6045">Campanhas</text></g><g class="participant participant-head" data-participant="perfis"><rect fill="#E2E2F0" height="30.2969" style="stroke:#181818;stroke-width:0.5;" width="52.9238" x="1100.4385" y="46"/><rect fill="#E2E2F0" height="30.2969" style="stroke:#181818;stroke-width:0.5;" width="52.9238" x="1096.4385" y="50"/><text fill="#000000" font-family="sans-serif" font-size="14" lengthAdjust="spacing" textLength="38.9238" x="1103.4385" y="69.9951">Perfis</text></g><g class="participant participant-tail" data-participant="perfis"><rect fill="#E2E2F0" height="30.2969" style="stroke:#181818;stroke-width:0.5;" width="52.9238" x="1100.4385" y="1265.6094"/><rect fill="#E2E2F0" height="30.2969" style="stroke:#181818;stroke-width:0.5;" width="52.9238" x="1096.4385" y="1269.6094"/><text fill="#000000" font-family="sans-serif" font-size="14" lengthAdjust="spacing" textLength="38.9238" x="1103.4385" y="1289.6045">Perfis</text></g><g class="participant participant-head" data-participant="candidato"><text fill="#000000" font-family="sans-serif" font-size="14" lengthAdjust="spacing" textLength="71.5244" x="1163.3623" y="77.9951">Candidato</text><ellipse cx="1202.1245" cy="49" fill="#E2E2F0" rx="12" ry="12" style="stroke:#181818;stroke-width:0.5;"/><line style="stroke:#181818;stroke-width:0.5;" x1="1190.1245" x2="1214.1245" y1="63" y2="63"/></g><g class="participant participant-tail" data-participant="candidato"><text fill="#000000" font-family="sans-serif" font-size="14" lengthAdjust="spacing" textLength="71.5244" x="1163.3623" y="1278.6045">Candidato</text><ellipse cx="1202.1245" cy="1297.9063" fill="#E2E2F0" rx="12" ry="12" style="stroke:#181818;stroke-width:0.5;"/><line style="stroke:#181818;stroke-width:0.5;" x1="1190.1245" x2="1214.1245" y1="1311.9063" y2="1311.9063"/></g><g class="participant participant-head" data-participant="perfil"><text fill="#000000" font-family="sans-serif" font-size="14" lengthAdjust="spacing" textLength="35.5195" x="1274.8379" y="77.9951">Perfil</text><ellipse cx="1295.5977" cy="49" fill="#E2E2F0" rx="12" ry="12" style="stroke:#181818;stroke-width:0.5;"/><line style="stroke:#181818;stroke-width:0.5;" x1="1283.5977" x2="1307.5977" y1="63" y2="63"/></g><g class="participant participant-tail" data-participant="perfil"><text fill="#000000" font-family="sans-serif" font-size="14" lengthAdjust="spacing" textLength="35.5195" x="1274.8379" y="1278.6045">Perfil</text><ellipse cx="1295.5977" cy="1297.9063" fill="#E2E2F0" rx="12" ry="12" style="stroke:#181818;stroke-width:0.5;"/><line style="stroke:#181818;stroke-width:0.5;" x1="1283.5977" x2="1307.5977" y1="1311.9063" y2="1311.9063"/></g><g class="participant participant-head" data-participant="habilidades"><rect fill="#E2E2F0" height="30.2969" style="stroke:#181818;stroke-width:0.5;" width="95.9219" x="1391.1533" y="46"/><rect fill="#E2E2F0" height="30.2969" style="stroke:#181818;stroke-width:0.5;" width="95.9219" x="1387.1533" y="50"/><text fill="#000000" font-family="sans-serif" font-size="14" lengthAdjust="spacing" textLength="81.9219" x="1394.1533" y="69.9951">Habilidades</text></g><g class="participant participant-tail" data-participant="habilidades"><rect fill="#E2E2F0" height="30.2969" style="stroke:#181818;stroke-width:0.5;" width="95.9219" x="1391.1533" y="1265.6094"/><rect fill="#E2E2F0" height="30.2969" style="stroke:#181818;stroke-width:0.5;" width="95.9219" x="1387.1533" y="1269.6094"/><text fill="#000000" font-family="sans-serif" font-size="14" lengthAdjust="spacing" textLength="81.9219" x="1394.1533" y="1289.6045">Habilidades</text></g><g class="participant participant-head" data-participant="habilidade"><text fill="#000000" font-family="sans-serif" font-size="14" lengthAdjust="spacing" textLength="74.6279" x="1526.5884" y="77.9951">Habilidade</text><ellipse cx="1566.9023" cy="49" fill="#E2E2F0" rx="12" ry="12" style="stroke:#181818;stroke-width:0.5;"/><line style="stroke:#181818;stroke-width:0.5;" x1="1554.9023" x2="1578.9023" y1="63" y2="63"/></g><g class="participant participant-tail" data-participant="habilidade"><text fill="#000000" font-family="sans-serif" font-size="14" lengthAdjust="spacing" textLength="74.6279" x="1526.5884" y="1278.6045">Habilidade</text><ellipse cx="1566.9023" cy="1297.9063" fill="#E2E2F0" rx="12" ry="12" style="stroke:#181818;stroke-width:0.5;"/><line style="stroke:#181818;stroke-width:0.5;" x1="1554.9023" x2="1578.9023" y1="1311.9063" y2="1311.9063"/></g><g class="participant participant-head" data-participant="interesses"><rect fill="#E2E2F0" height="30.2969" style="stroke:#181818;stroke-width:0.5;" width="85.9688" x="1621.2163" y="46"/><rect fill="#E2E2F0" height="30.2969" style="stroke:#181818;stroke-width:0.5;" width="85.9688" x="1617.2163" y="50"/><text fill="#000000" font-family="sans-serif" font-size="14" lengthAdjust="spacing" textLength="71.9688" x="1624.2163" y="69.9951">Interesses</text></g><g class="participant participant-tail" data-participant="interesses"><rect fill="#E2E2F0" height="30.2969" style="stroke:#181818;stroke-width:0.5;" width="85.9688" x="1621.2163" y="1265.6094"/><rect fill="#E2E2F0" height="30.2969" style="stroke:#181818;stroke-width:0.5;" width="85.9688" x="1617.2163" y="1269.6094"/><text fill="#000000" font-family="sans-serif" font-size="14" lengthAdjust="spacing" textLength="71.9688" x="1624.2163" y="1289.6045">Interesses</text></g><g class="participant participant-head" data-participant="interesse"><text fill="#000000" font-family="sans-serif" font-size="14" lengthAdjust="spacing" textLength="64.6748" x="1747.4092" y="77.9951">Interesse</text><ellipse cx="1782.7466" cy="49" fill="#E2E2F0" rx="12" ry="12" style="stroke:#181818;stroke-width:0.5;"/><line style="stroke:#181818;stroke-width:0.5;" x1="1770.7466" x2="1794.7466" y1="63" y2="63"/></g><g class="participant participant-tail" data-participant="interesse"><text fill="#000000" font-family="sans-serif" font-size="14" lengthAdjust="spacing" textLength="64.6748" x="1747.4092" y="1278.6045">Interesse</text><ellipse cx="1782.7466" cy="1297.9063" fill="#E2E2F0" rx="12" ry="12" style="stroke:#181818;stroke-width:0.5;"/><line style="stroke:#181818;stroke-width:0.5;" x1="1770.7466" x2="1794.7466" y1="1311.9063" y2="1311.9063"/></g><g class="participant participant-head" data-participant="voluntarios"><rect fill="#E2E2F0" height="30.2969" style="stroke:#181818;stroke-width:0.5;" width="93.3516" x="1832.084" y="46"/><rect fill="#E2E2F0" height="30.2969" style="stroke:#181818;stroke-width:0.5;" width="93.3516" x="1828.084" y="50"/><text fill="#000000" font-family="sans-serif" font-size="14" lengthAdjust="spacing" textLength="79.3516" x="1835.084" y="69.9951">Volunt&#225;rios</text></g><g class="participant participant-tail" data-participant="voluntarios"><rect fill="#E2E2F0" height="30.2969" style="stroke:#181818;stroke-width:0.5;" width="93.3516" x="1832.084" y="1265.6094"/><rect fill="#E2E2F0" height="30.2969" style="stroke:#181818;stroke-width:0.5;" width="93.3516" x="1828.084" y="1269.6094"/><text fill="#000000" font-family="sans-serif" font-size="14" lengthAdjust="spacing" textLength="79.3516" x="1835.084" y="1289.6045">Volunt&#225;rios</text></g><g class="participant participant-head" data-participant="voluntario"><text fill="#000000" font-family="sans-serif" font-size="14" lengthAdjust="spacing" textLength="72.0576" x="1935.4355" y="77.9951">Volunt&#225;rio</text><ellipse cx="1974.4644" cy="49" fill="#E2E2F0" rx="12" ry="12" style="stroke:#181818;stroke-width:0.5;"/><line style="stroke:#181818;stroke-width:0.5;" x1="1962.4644" x2="1986.4644" y1="63" y2="63"/></g><g class="participant participant-tail" data-participant="voluntario"><text fill="#000000" font-family="sans-serif" font-size="14" lengthAdjust="spacing" textLength="72.0576" x="1935.4355" y="1278.6045">Volunt&#225;rio</text><ellipse cx="1974.4644" cy="1297.9063" fill="#E2E2F0" rx="12" ry="12" style="stroke:#181818;stroke-width:0.5;"/><line style="stroke:#181818;stroke-width:0.5;" x1="1962.4644" x2="1986.4644" y1="1311.9063" y2="1311.9063"/></g><g><title>..fronteira..</title><rect fill="#FFFFFF" height="1136.1797" style="stroke:#181818;stroke-width:1;" width="10" x="299.4741" y="112.4297"/></g><g><title>..controller..</title><rect fill="#FFFFFF" height="1107.0469" style="stroke:#181818;stroke-width:1;" width="10" x="605.0459" y="141.5625"/></g><g><title>Candidatos</title><rect fill="#FFFFFF" height="87.3984" style="stroke:#181818;stroke-width:1;" width="10" x="854.3174" y="170.6953"/></g><g><title>Candidato</title><rect fill="#FFFFFF" height="29.1328" style="stroke:#181818;stroke-width:1;" width="10" x="1197.1245" y="199.8281"/></g><g><title>Candidato</title><rect fill="#FFFFFF" height="145.6641" style="stroke:#181818;stroke-width:1;" width="10" x="1197.1245" y="287.2266"/></g><g><title>Perfil</title><rect fill="#FFFFFF" height="29.1328" style="stroke:#181818;stroke-width:1;" width="10" x="1290.5977" y="374.625"/></g><g><title>Perfil</title><rect fill="#FFFFFF" height="495.2578" style="stroke:#181818;stroke-width:1;" width="10" x="1290.5977" y="695.0859"/></g><g><title>Habilidades</title><rect fill="#FFFFFF" height="87.3984" style="stroke:#181818;stroke-width:1;" width="10" x="1432.1143" y="840.75"/></g><g><title>Habilidade</title><rect fill="#FFFFFF" height="29.1328" style="stroke:#181818;stroke-width:1;" width="10" x="1561.9023" y="869.8828"/></g><g><title>Interesses</title><rect fill="#FFFFFF" height="87.3984" style="stroke:#181818;stroke-width:1;" width="10" x="1657.2007" y="1073.8125"/></g><g><title>Interesse</title><rect fill="#FFFFFF" height="29.1328" style="stroke:#181818;stroke-width:1;" width="10" x="1777.7466" y="1102.9453"/></g><g><title>Volunt.rios</title><rect fill="#FFFFFF" height="29.1328" style="stroke:#181818;stroke-width:1;" width="10" x="1871.7598" y="578.5547"/></g><g><title>Volunt.rio</title><rect fill="#FFFFFF" height="58.2656" style="stroke:#181818;stroke-width:1;" width="10" x="1969.4644" y="491.1563"/></g><g><title>Volunt.rio</title><rect fill="#FFFFFF" height="553.5234" style="stroke:#181818;stroke-width:1;" width="10" x="1969.4644" y="665.9531"/></g><g class="message" data-participant-1="representante" data-participant-2="gui"><polygon fill="#181818" points="287.4741,108.4297,297.4741,112.4297,287.4741,116.4297,291.4741,112.4297" style="stroke:#181818;stroke-width:1;"/><line style="stroke:#181818;stroke-width:1;" x1="77.1079" x2="293.4741" y1="112.4297" y2="112.4297"/><text fill="#000000" font-family="sans-serif" font-size="13" lengthAdjust="spacing" textLength="203.3662" x="84.1079" y="107.3638">solicitaAprovacaoCandidato(id)</text></g><g class="message" data-participant-1="gui" data-participant-2="candidatoController"><polygon fill="#181818" points="593.0459,137.5625,603.0459,141.5625,593.0459,145.5625,597.0459,141.5625" style="stroke:#181818;stroke-width:1;"/><line style="stroke:#181818;stroke-width:1;" x1="309.4741" x2="599.0459" y1="141.5625" y2="141.5625"/><text fill="#000000" font-family="sans-serif" font-size="13" lengthAdjust="spacing" textLength="203.3662" x="316.4741" y="136.4966">solicitaAprovacaoCandidato(id)</text></g><g class="message" data-participant-1="candidatoController" data-participant-2="candidatos"><polygon fill="#181818" points="842.3174,166.6953,852.3174,170.6953,842.3174,174.6953,846.3174,170.6953" style="stroke:#181818;stroke-width:1;"/><line style="stroke:#181818;stroke-width:1;" x1="615.0459" x2="848.3174" y1="170.6953" y2="170.6953"/><text fill="#000000" font-family="sans-serif" font-size="13" lengthAdjust="spacing" textLength="126.8008" x="622.0459" y="165.6294">buscaCandidato(id)</text></g><g class="message" data-participant-1="candidatos" data-participant-2="candidato"><polygon fill="#181818" points="1185.1245,195.8281,1195.1245,199.8281,1185.1245,203.8281,1189.1245,199.8281" style="stroke:#181818;stroke-width:1;"/><line style="stroke:#181818;stroke-width:1;" x1="864.3174" x2="1191.1245" y1="199.8281" y2="199.8281"/><text fill="#000000" font-family="sans-serif" font-size="13" lengthAdjust="spacing" textLength="43.3545" x="871.3174" y="194.7622">get(id)</text></g><g class="message" data-participant-1="candidato" data-participant-2="candidatos"><polygon fill="#181818" points="875.3174,224.9609,865.3174,228.9609,875.3174,232.9609,871.3174,228.9609" style="stroke:#181818;stroke-width:1;"/><line style="stroke:#181818;stroke-width:1;stroke-dasharray:2,2;" x1="869.3174" x2="1201.1245" y1="228.9609" y2="228.9609"/><text fill="#000000" font-family="sans-serif" font-size="13" lengthAdjust="spacing" textLength="64.4858" x="881.3174" y="223.895">candidato</text></g><g class="message" data-participant-1="candidatos" data-participant-2="candidatoController"><polygon fill="#181818" points="626.0459,254.0938,616.0459,258.0938,626.0459,262.0938,622.0459,258.0938" style="stroke:#181818;stroke-width:1;"/><line style="stroke:#181818;stroke-width:1;stroke-dasharray:2,2;" x1="620.0459" x2="858.3174" y1="258.0938" y2="258.0938"/><text fill="#000000" font-family="sans-serif" font-size="13" lengthAdjust="spacing" textLength="64.4858" x="632.0459" y="253.0278">candidato</text></g><g class="message" data-participant-1="candidatoController" data-participant-2="candidato"><polygon fill="#181818" points="1185.1245,283.2266,1195.1245,287.2266,1185.1245,291.2266,1189.1245,287.2266" style="stroke:#181818;stroke-width:1;"/><line style="stroke:#181818;stroke-width:1;" x1="615.0459" x2="1191.1245" y1="287.2266" y2="287.2266"/><text fill="#000000" font-family="sans-serif" font-size="13" lengthAdjust="spacing" textLength="167.9844" x="622.0459" y="282.1606">mudaSituacao(candidato)</text></g><g class="message" data-participant-1="candidato" data-participant-2="candidatoController"><polygon fill="#181818" points="626.0459,312.3594,616.0459,316.3594,626.0459,320.3594,622.0459,316.3594" style="stroke:#181818;stroke-width:1;"/><line style="stroke:#181818;stroke-width:1;stroke-dasharray:2,2;" x1="620.0459" x2="1196.1245" y1="316.3594" y2="316.3594"/><text fill="#000000" font-family="sans-serif" font-size="13" lengthAdjust="spacing" textLength="64.4858" x="632.0459" y="311.2935">candidato</text></g><g class="message" data-participant-1="candidatoController" data-participant-2="candidato"><polygon fill="#181818" points="1185.1245,341.4922,1195.1245,345.4922,1185.1245,349.4922,1189.1245,345.4922" style="stroke:#181818;stroke-width:1;"/><line style="stroke:#181818;stroke-width:1;" x1="615.0459" x2="1191.1245" y1="345.4922" y2="345.4922"/><text fill="#000000" font-family="sans-serif" font-size="13" lengthAdjust="spacing" textLength="130.8887" x="622.0459" y="340.4263">getPerfilCandidato()</text></g><g class="message" data-participant-1="candidato" data-participant-2="perfil"><polygon fill="#181818" points="1278.5977,370.625,1288.5977,374.625,1278.5977,378.625,1282.5977,374.625" style="stroke:#181818;stroke-width:1;"/><line style="stroke:#181818;stroke-width:1;" x1="1207.1245" x2="1284.5977" y1="374.625" y2="374.625"/><text fill="#000000" font-family="sans-serif" font-size="13" lengthAdjust="spacing" textLength="64.4731" x="1214.1245" y="369.5591">getPerfil()</text></g><g class="message" data-participant-1="perfil" data-participant-2="candidato"><polygon fill="#181818" points="1218.1245,399.7578,1208.1245,403.7578,1218.1245,407.7578,1214.1245,403.7578" style="stroke:#181818;stroke-width:1;"/><line style="stroke:#181818;stroke-width:1;stroke-dasharray:2,2;" x1="1212.1245" x2="1294.5977" y1="403.7578" y2="403.7578"/><text fill="#000000" font-family="sans-serif" font-size="13" lengthAdjust="spacing" textLength="33.395" x="1224.1245" y="398.6919">perfil</text></g><g class="message" data-participant-1="candidato" data-participant-2="candidatoController"><polygon fill="#181818" points="626.0459,428.8906,616.0459,432.8906,626.0459,436.8906,622.0459,432.8906" style="stroke:#181818;stroke-width:1;"/><line style="stroke:#181818;stroke-width:1;stroke-dasharray:2,2;" x1="620.0459" x2="1201.1245" y1="432.8906" y2="432.8906"/><text fill="#000000" font-family="sans-serif" font-size="13" lengthAdjust="spacing" textLength="99.8105" x="632.0459" y="427.8247">perfilCandidato</text></g><g class="message" data-participant-1="candidatoController" data-participant-2="candidatos"><polygon fill="#181818" points="847.3174,458.0234,857.3174,462.0234,847.3174,466.0234,851.3174,462.0234" style="stroke:#181818;stroke-width:1;"/><line style="stroke:#181818;stroke-width:1;" x1="615.0459" x2="853.3174" y1="462.0234" y2="462.0234"/><text fill="#000000" font-family="sans-serif" font-size="13" lengthAdjust="spacing" textLength="108.6401" x="622.0459" y="456.9575">salva(candidato)</text></g><g class="message" data-participant-1="candidatoController" data-participant-2="voluntario"><polygon fill="#181818" points="1957.4644,487.1563,1967.4644,491.1563,1957.4644,495.1563,1961.4644,491.1563" style="stroke:#181818;stroke-width:1;"/><line style="stroke:#181818;stroke-width:1;" x1="615.0459" x2="1963.4644" y1="491.1563" y2="491.1563"/><text fill="#000000" font-family="sans-serif" font-size="13" lengthAdjust="spacing" textLength="41.5518" x="622.0459" y="486.0903">create</text></g><g class="message" data-participant-1="candidatoController" data-participant-2="voluntario"><polygon fill="#181818" points="1957.4644,516.2891,1967.4644,520.2891,1957.4644,524.2891,1961.4644,520.2891" style="stroke:#181818;stroke-width:1;"/><line style="stroke:#181818;stroke-width:1;" x1="615.0459" x2="1963.4644" y1="520.2891" y2="520.2891"/><text fill="#000000" font-family="sans-serif" font-size="13" lengthAdjust="spacing" textLength="162.8047" x="622.0459" y="515.2231">setPerfil(perfilCandidato)</text></g><g class="message" data-participant-1="voluntario" data-participant-2="candidatoController"><polygon fill="#181818" points="626.0459,545.4219,616.0459,549.4219,626.0459,553.4219,622.0459,549.4219" style="stroke:#181818;stroke-width:1;"/><line style="stroke:#181818;stroke-width:1;stroke-dasharray:2,2;" x1="620.0459" x2="1973.4644" y1="549.4219" y2="549.4219"/><text fill="#000000" font-family="sans-serif" font-size="13" lengthAdjust="spacing" textLength="65.7109" x="632.0459" y="544.356">voluntario</text></g><g class="message" data-participant-1="candidatoController" data-participant-2="voluntarios"><polygon fill="#181818" points="1859.7598,574.5547,1869.7598,578.5547,1859.7598,582.5547,1863.7598,578.5547" style="stroke:#181818;stroke-width:1;"/><line style="stroke:#181818;stroke-width:1;" x1="615.0459" x2="1865.7598" y1="578.5547" y2="578.5547"/><text fill="#000000" font-family="sans-serif" font-size="13" lengthAdjust="spacing" textLength="109.8652" x="622.0459" y="573.4888">salva(voluntario)</text></g><g class="message" data-participant-1="voluntarios" data-participant-2="candidatoController"><polygon fill="#181818" points="626.0459,603.6875,616.0459,607.6875,626.0459,611.6875,622.0459,607.6875" style="stroke:#181818;stroke-width:1;"/><line style="stroke:#181818;stroke-width:1;stroke-dasharray:2,2;" x1="620.0459" x2="1875.7598" y1="607.6875" y2="607.6875"/><text fill="#000000" font-family="sans-serif" font-size="13" lengthAdjust="spacing" textLength="101.188" x="632.0459" y="602.6216">voluntarioSalvo</text></g><g class="message" data-participant-1="gui" data-participant-2="candidatoController"><polygon fill="#181818" points="593.0459,632.8203,603.0459,636.8203,593.0459,640.8203,597.0459,636.8203" style="stroke:#181818;stroke-width:1;"/><line style="stroke:#181818;stroke-width:1;stroke-dasharray:2,2;" x1="309.4741" x2="599.0459" y1="636.8203" y2="636.8203"/><text fill="#000000" font-family="sans-serif" font-size="13" lengthAdjust="spacing" textLength="271.5718" x="316.4741" y="631.7544">exibeHabilidadePerfilInteressesVoluntario</text></g><g class="message" data-participant-1="candidatoController" data-participant-2="voluntario"><polygon fill="#181818" points="1957.4644,661.9531,1967.4644,665.9531,1957.4644,669.9531,1961.4644,665.9531" style="stroke:#181818;stroke-width:1;"/><line style="stroke:#181818;stroke-width:1;" x1="615.0459" x2="1963.4644" y1="665.9531" y2="665.9531"/><text fill="#000000" font-family="sans-serif" font-size="13" lengthAdjust="spacing" textLength="131.3838" x="622.0459" y="660.8872">getPerfilVoluntario()</text></g><g class="message" data-participant-1="voluntario" data-participant-2="perfil"><polygon fill="#181818" points="1311.5977,691.0859,1301.5977,695.0859,1311.5977,699.0859,1307.5977,695.0859" style="stroke:#181818;stroke-width:1;"/><line style="stroke:#181818;stroke-width:1;" x1="1305.5977" x2="1968.4644" y1="695.0859" y2="695.0859"/><text fill="#000000" font-family="sans-serif" font-size="13" lengthAdjust="spacing" textLength="64.4731" x="1317.5977" y="690.02">getPerfil()</text></g><g class="message" data-participant-1="perfil" data-participant-2="voluntario"><polygon fill="#181818" points="1957.4644,720.2188,1967.4644,724.2188,1957.4644,728.2188,1961.4644,724.2188" style="stroke:#181818;stroke-width:1;"/><line style="stroke:#181818;stroke-width:1;stroke-dasharray:2,2;" x1="1300.5977" x2="1963.4644" y1="724.2188" y2="724.2188"/><text fill="#000000" font-family="sans-serif" font-size="13" lengthAdjust="spacing" textLength="33.395" x="1307.5977" y="719.1528">perfil</text></g><g class="message" data-participant-1="voluntario" data-participant-2="candidatoController"><polygon fill="#181818" points="626.0459,749.3516,616.0459,753.3516,626.0459,757.3516,622.0459,753.3516" style="stroke:#181818;stroke-width:1;"/><line style="stroke:#181818;stroke-width:1;stroke-dasharray:2,2;" x1="620.0459" x2="1968.4644" y1="753.3516" y2="753.3516"/><text fill="#000000" font-family="sans-serif" font-size="13" lengthAdjust="spacing" textLength="33.395" x="632.0459" y="748.2856">perfil</text></g><g class="message" data-participant-1="candidatoController" data-participant-2="voluntario"><polygon fill="#181818" points="1957.4644,778.4844,1967.4644,782.4844,1957.4644,786.4844,1961.4644,782.4844" style="stroke:#181818;stroke-width:1;"/><line style="stroke:#181818;stroke-width:1;" x1="615.0459" x2="1963.4644" y1="782.4844" y2="782.4844"/><text fill="#000000" font-family="sans-serif" font-size="13" lengthAdjust="spacing" textLength="174.4717" x="622.0459" y="777.4185">getHabilidadesVoluntario()</text></g><g class="message" data-participant-1="voluntario" data-participant-2="perfil"><polygon fill="#181818" points="1311.5977,807.6172,1301.5977,811.6172,1311.5977,815.6172,1307.5977,811.6172" style="stroke:#181818;stroke-width:1;"/><line style="stroke:#181818;stroke-width:1;" x1="1305.5977" x2="1968.4644" y1="811.6172" y2="811.6172"/><text fill="#000000" font-family="sans-serif" font-size="13" lengthAdjust="spacing" textLength="107.561" x="1317.5977" y="806.5513">getHabilidades()</text></g><g class="message" data-participant-1="perfil" data-participant-2="habilidades"><polygon fill="#181818" points="1420.1143,836.75,1430.1143,840.75,1420.1143,844.75,1424.1143,840.75" style="stroke:#181818;stroke-width:1;"/><line style="stroke:#181818;stroke-width:1;" x1="1300.5977" x2="1426.1143" y1="840.75" y2="840.75"/><text fill="#000000" font-family="sans-serif" font-size="13" lengthAdjust="spacing" textLength="107.561" x="1307.5977" y="835.6841">getHabilidades()</text></g><g class="message" data-participant-1="habilidades" data-participant-2="habilidade"><polygon fill="#181818" points="1549.9023,865.8828,1559.9023,869.8828,1549.9023,873.8828,1553.9023,869.8828" style="stroke:#181818;stroke-width:1;"/><line style="stroke:#181818;stroke-width:1;" x1="1442.1143" x2="1555.9023" y1="869.8828" y2="869.8828"/><text fill="#000000" font-family="sans-serif" font-size="13" lengthAdjust="spacing" textLength="100.7881" x="1449.1143" y="864.8169">getHabilidade()</text></g><g class="message" data-participant-1="habilidade" data-participant-2="habilidades"><polygon fill="#181818" points="1453.1143,895.0156,1443.1143,899.0156,1453.1143,903.0156,1449.1143,899.0156" style="stroke:#181818;stroke-width:1;"/><line style="stroke:#181818;stroke-width:1;stroke-dasharray:2,2;" x1="1447.1143" x2="1565.9023" y1="899.0156" y2="899.0156"/><text fill="#000000" font-family="sans-serif" font-size="13" lengthAdjust="spacing" textLength="67.7612" x="1459.1143" y="893.9497">habilidade</text></g><g class="message" data-participant-1="habilidades" data-participant-2="perfil"><polygon fill="#181818" points="1311.5977,924.1484,1301.5977,928.1484,1311.5977,932.1484,1307.5977,928.1484" style="stroke:#181818;stroke-width:1;"/><line style="stroke:#181818;stroke-width:1;" x1="1305.5977" x2="1436.1143" y1="928.1484" y2="928.1484"/><text fill="#000000" font-family="sans-serif" font-size="13" lengthAdjust="spacing" textLength="107.5166" x="1317.5977" y="923.0825">habilidadesPerfil</text></g><g class="message" data-participant-1="perfil" data-participant-2="voluntario"><polygon fill="#181818" points="1957.4644,953.2813,1967.4644,957.2813,1957.4644,961.2813,1961.4644,957.2813" style="stroke:#181818;stroke-width:1;"/><line style="stroke:#181818;stroke-width:1;stroke-dasharray:2,2;" x1="1300.5977" x2="1963.4644" y1="957.2813" y2="957.2813"/><text fill="#000000" font-family="sans-serif" font-size="13" lengthAdjust="spacing" textLength="107.5166" x="1307.5977" y="952.2153">habilidadesPerfil</text></g><g class="message" data-participant-1="voluntario" data-participant-2="candidatoController"><polygon fill="#181818" points="626.0459,982.4141,616.0459,986.4141,626.0459,990.4141,622.0459,986.4141" style="stroke:#181818;stroke-width:1;"/><line style="stroke:#181818;stroke-width:1;stroke-dasharray:2,2;" x1="620.0459" x2="1968.4644" y1="986.4141" y2="986.4141"/><text fill="#000000" font-family="sans-serif" font-size="13" lengthAdjust="spacing" textLength="141.4448" x="632.0459" y="981.3481">habilidadesVoluntario</text></g><g class="message" data-participant-1="candidatoController" data-participant-2="voluntario"><polygon fill="#181818" points="1957.4644,1011.5469,1967.4644,1015.5469,1957.4644,1019.5469,1961.4644,1015.5469" style="stroke:#181818;stroke-width:1;"/><line style="stroke:#181818;stroke-width:1;" x1="615.0459" x2="1963.4644" y1="1015.5469" y2="1015.5469"/><text fill="#000000" font-family="sans-serif" font-size="13" lengthAdjust="spacing" textLength="165.2295" x="622.0459" y="1010.481">getInteressesVoluntario()</text></g><g class="message" data-participant-1="voluntario" data-participant-2="perfil"><polygon fill="#181818" points="1311.5977,1040.6797,1301.5977,1044.6797,1311.5977,1048.6797,1307.5977,1044.6797" style="stroke:#181818;stroke-width:1;"/><line style="stroke:#181818;stroke-width:1;" x1="1305.5977" x2="1968.4644" y1="1044.6797" y2="1044.6797"/><text fill="#000000" font-family="sans-serif" font-size="13" lengthAdjust="spacing" textLength="98.3188" x="1317.5977" y="1039.6138">getInteresses()</text></g><g class="message" data-participant-1="perfil" data-participant-2="interesses"><polygon fill="#181818" points="1645.2007,1069.8125,1655.2007,1073.8125,1645.2007,1077.8125,1649.2007,1073.8125" style="stroke:#181818;stroke-width:1;"/><line style="stroke:#181818;stroke-width:1;" x1="1300.5977" x2="1651.2007" y1="1073.8125" y2="1073.8125"/><text fill="#000000" font-family="sans-serif" font-size="13" lengthAdjust="spacing" textLength="98.3188" x="1307.5977" y="1068.7466">getInteresses()</text></g><g class="message" data-participant-1="interesses" data-participant-2="interesse"><polygon fill="#181818" points="1765.7466,1098.9453,1775.7466,1102.9453,1765.7466,1106.9453,1769.7466,1102.9453" style="stroke:#181818;stroke-width:1;"/><line style="stroke:#181818;stroke-width:1;" x1="1667.2007" x2="1771.7466" y1="1102.9453" y2="1102.9453"/><text fill="#000000" font-family="sans-serif" font-size="13" lengthAdjust="spacing" textLength="91.5459" x="1674.2007" y="1097.8794">getInteresse()</text></g><g class="message" data-participant-1="interesse" data-participant-2="interesses"><polygon fill="#181818" points="1678.2007,1128.0781,1668.2007,1132.0781,1678.2007,1136.0781,1674.2007,1132.0781" style="stroke:#181818;stroke-width:1;"/><line style="stroke:#181818;stroke-width:1;stroke-dasharray:2,2;" x1="1672.2007" x2="1781.7466" y1="1132.0781" y2="1132.0781"/><text fill="#000000" font-family="sans-serif" font-size="13" lengthAdjust="spacing" textLength="59.833" x="1684.2007" y="1127.0122">interesse</text></g><g class="message" data-participant-1="interesses" data-participant-2="perfil"><polygon fill="#181818" points="1311.5977,1157.2109,1301.5977,1161.2109,1311.5977,1165.2109,1307.5977,1161.2109" style="stroke:#181818;stroke-width:1;"/><line style="stroke:#181818;stroke-width:1;" x1="1305.5977" x2="1661.2007" y1="1161.2109" y2="1161.2109"/><text fill="#000000" font-family="sans-serif" font-size="13" lengthAdjust="spacing" textLength="99.5884" x="1317.5977" y="1156.145">interessesPerfil</text></g><g class="message" data-participant-1="perfil" data-participant-2="voluntario"><polygon fill="#181818" points="1957.4644,1186.3438,1967.4644,1190.3438,1957.4644,1194.3438,1961.4644,1190.3438" style="stroke:#181818;stroke-width:1;"/><line style="stroke:#181818;stroke-width:1;stroke-dasharray:2,2;" x1="1295.5977" x2="1963.4644" y1="1190.3438" y2="1190.3438"/><text fill="#000000" font-family="sans-serif" font-size="13" lengthAdjust="spacing" textLength="99.5884" x="1302.5977" y="1185.2778">interessesPerfil</text></g><g class="message" data-participant-1="voluntario" data-participant-2="candidatoController"><polygon fill="#181818" points="626.0459,1215.4766,616.0459,1219.4766,626.0459,1223.4766,622.0459,1219.4766" style="stroke:#181818;stroke-width:1;"/><line style="stroke:#181818;stroke-width:1;stroke-dasharray:2,2;" x1="620.0459" x2="1973.4644" y1="1219.4766" y2="1219.4766"/><text fill="#000000" font-family="sans-serif" font-size="13" lengthAdjust="spacing" textLength="126.7437" x="632.0459" y="1214.4106">interesseVoluntario</text></g><g class="message" data-participant-1="candidatoController" data-participant-2="gui"><polygon fill="#181818" points="315.4741,1244.6094,305.4741,1248.6094,315.4741,1252.6094,311.4741,1248.6094" style="stroke:#181818;stroke-width:1;"/><line style="stroke:#181818;stroke-width:1;stroke-dasharray:2,2;" x1="309.4741" x2="609.0459" y1="1248.6094" y2="1248.6094"/><text fill="#000000" font-family="sans-serif" font-size="13" lengthAdjust="spacing" textLength="243.2041" x="321.4741" y="1243.5435">perfilHabilidadesInteressesVoluntario</text></g><!--SRC=[fLV1RkCW4Btp5IYdHAl-G5H5MlNGxMMtQhIz4vicIAw9m8wsdxFViZ-ss4vW1W-OgZwPOURDyEQ1iQWwRVZgHPwDjBBjHDj9_l9jl-B2SWEjxA3xjXRcWwyUVp-DyyTUyVlxDwFTj39YjsELUpMwuQi7qTQg5fr-c2oDD6D8DRSxYCeF8CQlduzHj6wFmHA5kJZtLdLAjnRajpYjnMukXRqXsnZX_IpQaxW1N4VOwLcQDpLvdCTNvXv7cEe-G0su13y_1ZSXk67H8dw8WsfSJ2sd5ASmzY319tA9i9vSZrmpxHLA-Q57yXxO8IxgLJTzs_txQzILsyje4CFOOm6do8Snf2f-jnjajELMDwfIdVX-DleYAg4zUsjLRvXmwI_2-JjdnjqpQC_54dfQn1h2FHu1C3eC3oLMcDDk-Q6tbPZ3qocidniUD0W-ACEM7sM7K6baD8tm-5rKCHrJImAKKTMbI9_ZKfYM5RExvUzzBVQgwuSMhhqznp0hu21VT5bbhYlJxWsjtwHoxwwx6qIj4_sy7WDnCoSpNiMMSWQC4xC5V9pnejWdvP7U9rOq5q7rC14R3WpN92DTuddNmQ4osrC5iDPt8rfrA2wufoaZgW1iVQb6primRN8quFC5s4kgtxjC2qi0cvUXLmQ6uy6SIYV_g8CCdwo9__1fUfspLT18lwr2-3hB4qlmzDMz2lOfh2_oB15L55960hWkG2PusMf1j5joyWpQmLi84HZ7URxWvOKJ3vZ7MQ8aH8v47j8FfnexW1Qq40xsnO9dj9uRqy3yJ9_sP0gR-oX07UJnIxHtecJqIIbIMpfgN5A88JQA218CjzTy1186kF9I_GhJA0DEi2I-S6jEQSzxZ0s02yd70bNa7V4wRhm6wxBg4aGb19T5pbz8IjJeuGaj5dnhMLApjn-FgIvmY2K_HzGb2FmrW6a7_1y0]--></g></svg>