<svg xmlns="http://www.w3.org/2000/svg" xmlns:xlink="http://www.w3.org/1999/xlink" contentStyleType="text/css" data-diagram-type="SEQUENCE" height="1201px" preserveAspectRatio="none" style="width:1975px;height:1201px;background:#FFFFFF;" version="1.1" viewBox="0 0 1975 1201" width="1975px" zoomAndPan="magnify"><defs/><g><g><title>..fronteira..</title><rect fill="#FFFFFF" height="233.0625" style="stroke:#181818;stroke-width:1;" width="10" x="360.8369" y="112.4297"/></g><g><title>..fronteira..</title><rect fill="#FFFFFF" height="728.3203" style="stroke:#181818;stroke-width:1;" width="10" x="360.8369" y="374.625"/></g><g><title>..controller..</title><rect fill="#FFFFFF" height="203.9297" style="stroke:#181818;stroke-width:1;" width="10" x="579.981" y="141.5625"/></g><g><title>..controller..</title><rect fill="#FFFFFF" height="699.1875" style="stroke:#181818;stroke-width:1;" width="10" x="730.7139" y="403.7578"/></g><g><title>PedidoAfiliacao</title><rect fill="#FFFFFF" height="145.6641" style="stroke:#181818;stroke-width:1;" width="10" x="876.5024" y="170.6953"/></g><g><title>Candidatos</title><rect fill="#FFFFFF" height="87.3984" style="stroke:#181818;stroke-width:1;" width="10" x="1101.2451" y="199.8281"/></g><g><title>Candidatos</title><rect fill="#FFFFFF" height="87.3984" style="stroke:#181818;stroke-width:1;" width="10" x="1101.2451" y="432.8906"/></g><g><title>Candidato</title><rect fill="#FFFFFF" height="29.1328" style="stroke:#181818;stroke-width:1;" width="10" x="1305.7681" y="228.9609"/></g><g><title>Candidato</title><rect fill="#FFFFFF" height="29.1328" style="stroke:#181818;stroke-width:1;" width="10" x="1305.7681" y="462.0234"/></g><g><title>Candidato</title><rect fill="#FFFFFF" height="562.5234" style="stroke:#181818;stroke-width:1;" width="10" x="1305.7681" y="549.4219"/></g><g><title>Perfil</title><rect fill="#FFFFFF" height="466.125" style="stroke:#181818;stroke-width:1;" width="10" x="1447.3291" y="578.5547"/></g><g><title>Habilidades</title><rect fill="#FFFFFF" height="87.3984" style="stroke:#181818;stroke-width:1;" width="10" x="1588.8457" y="695.0859"/></g><g><title>Habilidade</title><rect fill="#FFFFFF" height="29.1328" style="stroke:#181818;stroke-width:1;" width="10" x="1718.6338" y="724.2188"/></g><g><title>Interesses</title><rect fill="#FFFFFF" height="87.3984" style="stroke:#181818;stroke-width:1;" width="10" x="1813.9321" y="928.1484"/></g><g><title>Interesse</title><rect fill="#FFFFFF" height="29.1328" style="stroke:#181818;stroke-width:1;" width="10" x="1934.478" y="957.2813"/></g><g><title>Representante R.S</title><rect fill="#000000" fill-opacity="0.00000" height="1039.6484" width="8" x="73.1079" y="81.2969"/><line style="stroke:#181818;stroke-width:0.5;stroke-dasharray:5,5;" x1="77" x2="77" y1="81.2969" y2="1120.9453"/></g><g><title>..fronteira..</title><rect fill="#000000" fill-opacity="0.00000" height="1039.6484" width="8" x="361.8369" y="81.2969"/><line style="stroke:#181818;stroke-width:0.5;stroke-dasharray:5,5;" x1="365.0464" x2="365.0464" y1="81.2969" y2="1120.9453"/></g><g><title>..controller..</title><rect fill="#000000" fill-opacity="0.00000" height="1039.6484" width="8" x="580.981" y="81.2969"/><line style="stroke:#181818;stroke-width:0.5;stroke-dasharray:5,5;" x1="584.5967" x2="584.5967" y1="81.2969" y2="1120.9453"/></g><g><title>..controller..</title><rect fill="#000000" fill-opacity="0.00000" height="1039.6484" width="8" x="731.7139" y="81.2969"/><line style="stroke:#181818;stroke-width:0.5;stroke-dasharray:5,5;" x1="735.3652" x2="735.3652" y1="81.2969" y2="1120.9453"/></g><g><title>PedidoAfiliacao</title><rect fill="#000000" fill-opacity="0.00000" height="1039.6484" width="8" x="877.5024" y="81.2969"/><line style="stroke:#181818;stroke-width:0.5;stroke-dasharray:5,5;" x1="881.0625" x2="881.0625" y1="81.2969" y2="1120.9453"/></g><g><title>Candidatos</title><rect fill="#000000" fill-opacity="0.00000" height="1039.6484" width="8" x="1102.2451" y="81.2969"/><line style="stroke:#181818;stroke-width:0.5;stroke-dasharray:5,5;" x1="1105.8359" x2="1105.8359" y1="81.2969" y2="1120.9453"/></g><g><title>Voluntarios</title><rect fill="#000000" fill-opacity="0.00000" height="1039.6484" width="8" x="1209.3301" y="81.2969"/><line style="stroke:#181818;stroke-width:0.5;stroke-dasharray:5,5;" x1="1212.6543" x2="1212.6543" y1="81.2969" y2="1120.9453"/></g><g><title>Candidato</title><rect fill="#000000" fill-opacity="0.00000" height="1039.6484" width="8" x="1306.7681" y="81.2969"/><line style="stroke:#181818;stroke-width:0.5;stroke-dasharray:5,5;" x1="1310.0059" x2="1310.0059" y1="81.2969" y2="1120.9453"/></g><g><title>Perfil</title><rect fill="#000000" fill-opacity="0.00000" height="1039.6484" width="8" x="1448.3291" y="81.2969"/><line style="stroke:#181818;stroke-width:0.5;stroke-dasharray:5,5;" x1="1451.5693" x2="1451.5693" y1="81.2969" y2="1120.9453"/></g><g><title>Habilidades</title><rect fill="#000000" fill-opacity="0.00000" height="1039.6484" width="8" x="1589.8457" y="81.2969"/><line style="stroke:#181818;stroke-width:0.5;stroke-dasharray:5,5;" x1="1592.8848" x2="1592.8848" y1="81.2969" y2="1120.9453"/></g><g><title>Habilidade</title><rect fill="#000000" fill-opacity="0.00000" height="1039.6484" width="8" x="1719.6338" y="81.2969"/><line style="stroke:#181818;stroke-width:0.5;stroke-dasharray:5,5;" x1="1723.3198" x2="1723.3198" y1="81.2969" y2="1120.9453"/></g><g><title>Interesses</title><rect fill="#000000" fill-opacity="0.00000" height="1039.6484" width="8" x="1814.9321" y="81.2969"/><line style="stroke:#181818;stroke-width:0.5;stroke-dasharray:5,5;" x1="1817.9478" x2="1817.9478" y1="81.2969" y2="1120.9453"/></g><g><title>Interesse</title><rect fill="#000000" fill-opacity="0.00000" height="1039.6484" width="8" x="1935.478" y="81.2969"/><line style="stroke:#181818;stroke-width:0.5;stroke-dasharray:5,5;" x1="1939.1406" x2="1939.1406" y1="81.2969" y2="1120.9453"/></g><g class="participant participant-head" data-participant="representante"><text fill="#000000" font-family="sans-serif" font-size="14" lengthAdjust="spacing" textLength="138.2158" x="5" y="77.9951">Representante R+S</text><ellipse cx="77.1079" cy="13.5" fill="#E2E2F0" rx="8" ry="8" style="stroke:#181818;stroke-width:0.5;"/><path d="M77.1079,21.5 L77.1079,48.5 M64.1079,29.5 L90.1079,29.5 M77.1079,48.5 L64.1079,63.5 M77.1079,48.5 L90.1079,63.5" fill="none" style="stroke:#181818;stroke-width:0.5;"/></g><g class="participant participant-tail" data-participant="representante"><text fill="#000000" font-family="sans-serif" font-size="14" lengthAdjust="spacing" textLength="138.2158" x="5" y="1132.9404">Representante R+S</text><ellipse cx="77.1079" cy="1144.7422" fill="#E2E2F0" rx="8" ry="8" style="stroke:#181818;stroke-width:0.5;"/><path d="M77.1079,1152.7422 L77.1079,1179.7422 M64.1079,1160.7422 L90.1079,1160.7422 M77.1079,1179.7422 L64.1079,1194.7422 M77.1079,1179.7422 L90.1079,1194.7422" fill="none" style="stroke:#181818;stroke-width:0.5;"/></g><g class="participant participant-head" data-participant="gui"><text fill="#000000" font-family="sans-serif" font-size="14" font-style="italic" lengthAdjust="spacing" textLength="77.5811" x="324.0464" y="61.6982">&#171;fronteira&#187;</text><text fill="#000000" font-family="sans-serif" font-size="14" lengthAdjust="spacing" textLength="25.2246" x="350.2246" y="77.9951">GUI</text><path d="M345.3369,20.7031 L345.3369,44.7031 M345.3369,32.7031 L362.3369,32.7031" fill="none" style="stroke:#181818;stroke-width:0.5;"/><ellipse cx="374.3369" cy="32.7031" fill="#E2E2F0" rx="12" ry="12" style="stroke:#181818;stroke-width:0.5;"/></g><g class="participant participant-tail" data-participant="gui"><text fill="#000000" font-family="sans-serif" font-size="14" font-style="italic" lengthAdjust="spacing" textLength="77.5811" x="324.0464" y="1132.9404">&#171;fronteira&#187;</text><text fill="#000000" font-family="sans-serif" font-size="14" lengthAdjust="spacing" textLength="25.2246" x="350.2246" y="1149.2373">GUI</text><path d="M345.3369,1156.5391 L345.3369,1180.5391 M345.3369,1168.5391 L362.3369,1168.5391" fill="none" style="stroke:#181818;stroke-width:0.5;"/><ellipse cx="374.3369" cy="1168.5391" fill="#E2E2F0" rx="12" ry="12" style="stroke:#181818;stroke-width:0.5;"/></g><g class="participant participant-head" data-participant="afiliacaoController"><text fill="#000000" font-family="sans-serif" font-size="14" font-style="italic" lengthAdjust="spacing" textLength="84.2256" x="539.8682" y="61.6982">&#171;controller&#187;</text><text fill="#000000" font-family="sans-serif" font-size="14" lengthAdjust="spacing" textLength="128.7686" x="517.5967" y="77.9951">AfiliacaoController</text><ellipse cx="584.981" cy="32.7031" fill="#E2E2F0" rx="12" ry="12" style="stroke:#181818;stroke-width:0.5;"/><polygon fill="#181818" points="580.981,20.7031,586.981,15.7031,584.981,20.7031,586.981,25.7031,580.981,20.7031" style="stroke:#181818;stroke-width:1;"/></g><g class="participant participant-tail" data-participant="afiliacaoController"><text fill="#000000" font-family="sans-serif" font-size="14" font-style="italic" lengthAdjust="spacing" textLength="84.2256" x="539.8682" y="1132.9404">&#171;controller&#187;</text><text fill="#000000" font-family="sans-serif" font-size="14" lengthAdjust="spacing" textLength="128.7686" x="517.5967" y="1149.2373">AfiliacaoController</text><ellipse cx="584.981" cy="1168.5391" fill="#E2E2F0" rx="12" ry="12" style="stroke:#181818;stroke-width:0.5;"/><polygon fill="#181818" points="580.981,1156.5391,586.981,1151.5391,584.981,1156.5391,586.981,1161.5391,580.981,1156.5391" style="stroke:#181818;stroke-width:1;"/></g><g class="participant participant-head" data-participant="candidatoController"><text fill="#000000" font-family="sans-serif" font-size="14" font-style="italic" lengthAdjust="spacing" textLength="84.2256" x="690.6011" y="61.6982">&#171;controller&#187;</text><text fill="#000000" font-family="sans-serif" font-size="14" lengthAdjust="spacing" textLength="140.6973" x="662.3652" y="77.9951">CandidatoController</text><ellipse cx="735.7139" cy="32.7031" fill="#E2E2F0" rx="12" ry="12" style="stroke:#181818;stroke-width:0.5;"/><polygon fill="#181818" points="731.7139,20.7031,737.7139,15.7031,735.7139,20.7031,737.7139,25.7031,731.7139,20.7031" style="stroke:#181818;stroke-width:1;"/></g><g class="participant participant-tail" data-participant="candidatoController"><text fill="#000000" font-family="sans-serif" font-size="14" font-style="italic" lengthAdjust="spacing" textLength="84.2256" x="690.6011" y="1132.9404">&#171;controller&#187;</text><text fill="#000000" font-family="sans-serif" font-size="14" lengthAdjust="spacing" textLength="140.6973" x="662.3652" y="1149.2373">CandidatoController</text><ellipse cx="735.7139" cy="1168.5391" fill="#E2E2F0" rx="12" ry="12" style="stroke:#181818;stroke-width:0.5;"/><polygon fill="#181818" points="731.7139,1156.5391,737.7139,1151.5391,735.7139,1156.5391,737.7139,1161.5391,731.7139,1156.5391" style="stroke:#181818;stroke-width:1;"/></g><g class="participant participant-head" data-participant="pedidoAfiliacao"><rect fill="#E2E2F0" height="30.2969" style="stroke:#181818;stroke-width:0.5;" width="120.8799" x="823.0625" y="46"/><rect fill="#E2E2F0" height="30.2969" style="stroke:#181818;stroke-width:0.5;" width="120.8799" x="819.0625" y="50"/><text fill="#000000" font-family="sans-serif" font-size="14" lengthAdjust="spacing" textLength="106.8799" x="826.0625" y="69.9951">PedidoAfiliacao</text></g><g class="participant participant-tail" data-participant="pedidoAfiliacao"><rect fill="#E2E2F0" height="30.2969" style="stroke:#181818;stroke-width:0.5;" width="120.8799" x="823.0625" y="1119.9453"/><rect fill="#E2E2F0" height="30.2969" style="stroke:#181818;stroke-width:0.5;" width="120.8799" x="819.0625" y="1123.9453"/><text fill="#000000" font-family="sans-serif" font-size="14" lengthAdjust="spacing" textLength="106.8799" x="826.0625" y="1143.9404">PedidoAfiliacao</text></g><g class="participant participant-head" data-participant="candidatos"><rect fill="#E2E2F0" height="30.2969" style="stroke:#181818;stroke-width:0.5;" width="92.8184" x="1061.8359" y="46"/><rect fill="#E2E2F0" height="30.2969" style="stroke:#181818;stroke-width:0.5;" width="92.8184" x="1057.8359" y="50"/><text fill="#000000" font-family="sans-serif" font-size="14" lengthAdjust="spacing" textLength="78.8184" x="1064.8359" y="69.9951">Candidatos</text></g><g class="participant participant-tail" data-participant="candidatos"><rect fill="#E2E2F0" height="30.2969" style="stroke:#181818;stroke-width:0.5;" width="92.8184" x="1061.8359" y="1119.9453"/><rect fill="#E2E2F0" height="30.2969" style="stroke:#181818;stroke-width:0.5;" width="92.8184" x="1057.8359" y="1123.9453"/><text fill="#000000" font-family="sans-serif" font-size="14" lengthAdjust="spacing" textLength="78.8184" x="1064.8359" y="1143.9404">Candidatos</text></g><g class="participant participant-head" data-participant="voluntarios"><rect fill="#E2E2F0" height="30.2969" style="stroke:#181818;stroke-width:0.5;" width="93.3516" x="1168.6543" y="46"/><rect fill="#E2E2F0" height="30.2969" style="stroke:#181818;stroke-width:0.5;" width="93.3516" x="1164.6543" y="50"/><text fill="#000000" font-family="sans-serif" font-size="14" lengthAdjust="spacing" textLength="79.3516" x="1171.6543" y="69.9951">Voluntarios</text></g><g class="participant participant-tail" data-participant="voluntarios"><rect fill="#E2E2F0" height="30.2969" style="stroke:#181818;stroke-width:0.5;" width="93.3516" x="1168.6543" y="1119.9453"/><rect fill="#E2E2F0" height="30.2969" style="stroke:#181818;stroke-width:0.5;" width="93.3516" x="1164.6543" y="1123.9453"/><text fill="#000000" font-family="sans-serif" font-size="14" lengthAdjust="spacing" textLength="79.3516" x="1171.6543" y="1143.9404">Voluntarios</text></g><g class="participant participant-head" data-participant="candidato"><text fill="#000000" font-family="sans-serif" font-size="14" lengthAdjust="spacing" textLength="71.5244" x="1272.0059" y="77.9951">Candidato</text><ellipse cx="1310.7681" cy="49" fill="#E2E2F0" rx="12" ry="12" style="stroke:#181818;stroke-width:0.5;"/><line style="stroke:#181818;stroke-width:0.5;" x1="1298.7681" x2="1322.7681" y1="63" y2="63"/></g><g class="participant participant-tail" data-participant="candidato"><text fill="#000000" font-family="sans-serif" font-size="14" lengthAdjust="spacing" textLength="71.5244" x="1272.0059" y="1132.9404">Candidato</text><ellipse cx="1310.7681" cy="1152.2422" fill="#E2E2F0" rx="12" ry="12" style="stroke:#181818;stroke-width:0.5;"/><line style="stroke:#181818;stroke-width:0.5;" x1="1298.7681" x2="1322.7681" y1="1166.2422" y2="1166.2422"/></g><g class="participant participant-head" data-participant="perfil"><text fill="#000000" font-family="sans-serif" font-size="14" lengthAdjust="spacing" textLength="35.5195" x="1431.5693" y="77.9951">Perfil</text><ellipse cx="1452.3291" cy="49" fill="#E2E2F0" rx="12" ry="12" style="stroke:#181818;stroke-width:0.5;"/><line style="stroke:#181818;stroke-width:0.5;" x1="1440.3291" x2="1464.3291" y1="63" y2="63"/></g><g class="participant participant-tail" data-participant="perfil"><text fill="#000000" font-family="sans-serif" font-size="14" lengthAdjust="spacing" textLength="35.5195" x="1431.5693" y="1132.9404">Perfil</text><ellipse cx="1452.3291" cy="1152.2422" fill="#E2E2F0" rx="12" ry="12" style="stroke:#181818;stroke-width:0.5;"/><line style="stroke:#181818;stroke-width:0.5;" x1="1440.3291" x2="1464.3291" y1="1166.2422" y2="1166.2422"/></g><g class="participant participant-head" data-participant="habilidades"><rect fill="#E2E2F0" height="30.2969" style="stroke:#181818;stroke-width:0.5;" width="95.9219" x="1547.8848" y="46"/><rect fill="#E2E2F0" height="30.2969" style="stroke:#181818;stroke-width:0.5;" width="95.9219" x="1543.8848" y="50"/><text fill="#000000" font-family="sans-serif" font-size="14" lengthAdjust="spacing" textLength="81.9219" x="1550.8848" y="69.9951">Habilidades</text></g><g class="participant participant-tail" data-participant="habilidades"><rect fill="#E2E2F0" height="30.2969" style="stroke:#181818;stroke-width:0.5;" width="95.9219" x="1547.8848" y="1119.9453"/><rect fill="#E2E2F0" height="30.2969" style="stroke:#181818;stroke-width:0.5;" width="95.9219" x="1543.8848" y="1123.9453"/><text fill="#000000" font-family="sans-serif" font-size="14" lengthAdjust="spacing" textLength="81.9219" x="1550.8848" y="1143.9404">Habilidades</text></g><g class="participant participant-head" data-participant="habilidade"><text fill="#000000" font-family="sans-serif" font-size="14" lengthAdjust="spacing" textLength="74.6279" x="1683.3198" y="77.9951">Habilidade</text><ellipse cx="1723.6338" cy="49" fill="#E2E2F0" rx="12" ry="12" style="stroke:#181818;stroke-width:0.5;"/><line style="stroke:#181818;stroke-width:0.5;" x1="1711.6338" x2="1735.6338" y1="63" y2="63"/></g><g class="participant participant-tail" data-participant="habilidade"><text fill="#000000" font-family="sans-serif" font-size="14" lengthAdjust="spacing" textLength="74.6279" x="1683.3198" y="1132.9404">Habilidade</text><ellipse cx="1723.6338" cy="1152.2422" fill="#E2E2F0" rx="12" ry="12" style="stroke:#181818;stroke-width:0.5;"/><line style="stroke:#181818;stroke-width:0.5;" x1="1711.6338" x2="1735.6338" y1="1166.2422" y2="1166.2422"/></g><g class="participant participant-head" data-participant="interesses"><rect fill="#E2E2F0" height="30.2969" style="stroke:#181818;stroke-width:0.5;" width="85.9688" x="1777.9478" y="46"/><rect fill="#E2E2F0" height="30.2969" style="stroke:#181818;stroke-width:0.5;" width="85.9688" x="1773.9478" y="50"/><text fill="#000000" font-family="sans-serif" font-size="14" lengthAdjust="spacing" textLength="71.9688" x="1780.9478" y="69.9951">Interesses</text></g><g class="participant participant-tail" data-participant="interesses"><rect fill="#E2E2F0" height="30.2969" style="stroke:#181818;stroke-width:0.5;" width="85.9688" x="1777.9478" y="1119.9453"/><rect fill="#E2E2F0" height="30.2969" style="stroke:#181818;stroke-width:0.5;" width="85.9688" x="1773.9478" y="1123.9453"/><text fill="#000000" font-family="sans-serif" font-size="14" lengthAdjust="spacing" textLength="71.9688" x="1780.9478" y="1143.9404">Interesses</text></g><g class="participant participant-head" data-participant="interesse"><text fill="#000000" font-family="sans-serif" font-size="14" lengthAdjust="spacing" textLength="64.6748" x="1904.1406" y="77.9951">Interesse</text><ellipse cx="1939.478" cy="49" fill="#E2E2F0" rx="12" ry="12" style="stroke:#181818;stroke-width:0.5;"/><line style="stroke:#181818;stroke-width:0.5;" x1="1927.478" x2="1951.478" y1="63" y2="63"/></g><g class="participant participant-tail" data-participant="interesse"><text fill="#000000" font-family="sans-serif" font-size="14" lengthAdjust="spacing" textLength="64.6748" x="1904.1406" y="1132.9404">Interesse</text><ellipse cx="1939.478" cy="1152.2422" fill="#E2E2F0" rx="12" ry="12" style="stroke:#181818;stroke-width:0.5;"/><line style="stroke:#181818;stroke-width:0.5;" x1="1927.478" x2="1951.478" y1="1166.2422" y2="1166.2422"/></g><g><title>..fronteira..</title><rect fill="#FFFFFF" height="233.0625" style="stroke:#181818;stroke-width:1;" width="10" x="360.8369" y="112.4297"/></g><g><title>..fronteira..</title><rect fill="#FFFFFF" height="728.3203" style="stroke:#181818;stroke-width:1;" width="10" x="360.8369" y="374.625"/></g><g><title>..controller..</title><rect fill="#FFFFFF" height="203.9297" style="stroke:#181818;stroke-width:1;" width="10" x="579.981" y="141.5625"/></g><g><title>..controller..</title><rect fill="#FFFFFF" height="699.1875" style="stroke:#181818;stroke-width:1;" width="10" x="730.7139" y="403.7578"/></g><g><title>PedidoAfiliacao</title><rect fill="#FFFFFF" height="145.6641" style="stroke:#181818;stroke-width:1;" width="10" x="876.5024" y="170.6953"/></g><g><title>Candidatos</title><rect fill="#FFFFFF" height="87.3984" style="stroke:#181818;stroke-width:1;" width="10" x="1101.2451" y="199.8281"/></g><g><title>Candidatos</title><rect fill="#FFFFFF" height="87.3984" style="stroke:#181818;stroke-width:1;" width="10" x="1101.2451" y="432.8906"/></g><g><title>Candidato</title><rect fill="#FFFFFF" height="29.1328" style="stroke:#181818;stroke-width:1;" width="10" x="1305.7681" y="228.9609"/></g><g><title>Candidato</title><rect fill="#FFFFFF" height="29.1328" style="stroke:#181818;stroke-width:1;" width="10" x="1305.7681" y="462.0234"/></g><g><title>Candidato</title><rect fill="#FFFFFF" height="562.5234" style="stroke:#181818;stroke-width:1;" width="10" x="1305.7681" y="549.4219"/></g><g><title>Perfil</title><rect fill="#FFFFFF" height="466.125" style="stroke:#181818;stroke-width:1;" width="10" x="1447.3291" y="578.5547"/></g><g><title>Habilidades</title><rect fill="#FFFFFF" height="87.3984" style="stroke:#181818;stroke-width:1;" width="10" x="1588.8457" y="695.0859"/></g><g><title>Habilidade</title><rect fill="#FFFFFF" height="29.1328" style="stroke:#181818;stroke-width:1;" width="10" x="1718.6338" y="724.2188"/></g><g><title>Interesses</title><rect fill="#FFFFFF" height="87.3984" style="stroke:#181818;stroke-width:1;" width="10" x="1813.9321" y="928.1484"/></g><g><title>Interesse</title><rect fill="#FFFFFF" height="29.1328" style="stroke:#181818;stroke-width:1;" width="10" x="1934.478" y="957.2813"/></g><g class="message" data-participant-1="representante" data-participant-2="gui"><polygon fill="#181818" points="348.8369,108.4297,358.8369,112.4297,348.8369,116.4297,352.8369,112.4297" style="stroke:#181818;stroke-width:1;"/><line style="stroke:#181818;stroke-width:1;" x1="77.1079" x2="354.8369" y1="112.4297" y2="112.4297"/><text fill="#000000" font-family="sans-serif" font-size="13" lengthAdjust="spacing" textLength="190.144" x="84.1079" y="107.3638">buscaCandidatosPendentes()</text></g><g class="message" data-participant-1="gui" data-participant-2="afiliacaoController"><polygon fill="#181818" points="567.981,137.5625,577.981,141.5625,567.981,145.5625,571.981,141.5625" style="stroke:#181818;stroke-width:1;"/><line style="stroke:#181818;stroke-width:1;" x1="370.8369" x2="573.981" y1="141.5625" y2="141.5625"/><text fill="#000000" font-family="sans-serif" font-size="13" lengthAdjust="spacing" textLength="190.144" x="377.8369" y="136.4966">buscaCandidatosPendentes()</text></g><g class="message" data-participant-1="afiliacaoController" data-participant-2="pedidoAfiliacao"><polygon fill="#181818" points="864.5024,166.6953,874.5024,170.6953,864.5024,174.6953,868.5024,170.6953" style="stroke:#181818;stroke-width:1;"/><line style="stroke:#181818;stroke-width:1;" x1="589.981" x2="870.5024" y1="170.6953" y2="170.6953"/><text fill="#000000" font-family="sans-serif" font-size="13" lengthAdjust="spacing" textLength="190.144" x="596.981" y="165.6294">buscaCandidatosPendentes()</text></g><g class="message" data-participant-1="pedidoAfiliacao" data-participant-2="candidatos"><polygon fill="#181818" points="1089.2451,195.8281,1099.2451,199.8281,1089.2451,203.8281,1093.2451,199.8281" style="stroke:#181818;stroke-width:1;"/><line style="stroke:#181818;stroke-width:1;stroke-dasharray:2,2;" x1="886.5024" x2="1095.2451" y1="199.8281" y2="199.8281"/><text fill="#000000" font-family="sans-serif" font-size="13" lengthAdjust="spacing" textLength="195.7427" x="893.5024" y="194.7622">buscaCandidatos("pendente")</text></g><g class="message" data-participant-1="candidatos" data-participant-2="candidato"><polygon fill="#181818" points="1293.7681,224.9609,1303.7681,228.9609,1293.7681,232.9609,1297.7681,228.9609" style="stroke:#181818;stroke-width:1;"/><line style="stroke:#181818;stroke-width:1;stroke-dasharray:2,2;" x1="1111.2451" x2="1299.7681" y1="228.9609" y2="228.9609"/><text fill="#000000" font-family="sans-serif" font-size="13" lengthAdjust="spacing" textLength="171.939" x="1118.2451" y="223.895">getCandidato("pendente")</text></g><g class="message" data-participant-1="candidato" data-participant-2="candidatos"><polygon fill="#181818" points="1122.2451,254.0938,1112.2451,258.0938,1122.2451,262.0938,1118.2451,258.0938" style="stroke:#181818;stroke-width:1;"/><line style="stroke:#181818;stroke-width:1;stroke-dasharray:2,2;" x1="1116.2451" x2="1309.7681" y1="258.0938" y2="258.0938"/><text fill="#000000" font-family="sans-serif" font-size="13" lengthAdjust="spacing" textLength="126.147" x="1128.2451" y="253.0278">candidatoPendente</text></g><g class="message" data-participant-1="candidatos" data-participant-2="pedidoAfiliacao"><polygon fill="#181818" points="897.5024,283.2266,887.5024,287.2266,897.5024,291.2266,893.5024,287.2266" style="stroke:#181818;stroke-width:1;"/><line style="stroke:#181818;stroke-width:1;stroke-dasharray:2,2;" x1="891.5024" x2="1105.2451" y1="287.2266" y2="287.2266"/><text fill="#000000" font-family="sans-serif" font-size="13" lengthAdjust="spacing" textLength="168.6826" x="903.5024" y="282.1606">listaCandidatosPendentes</text></g><g class="message" data-participant-1="pedidoAfiliacao" data-participant-2="afiliacaoController"><polygon fill="#181818" points="600.981,312.3594,590.981,316.3594,600.981,320.3594,596.981,316.3594" style="stroke:#181818;stroke-width:1;"/><line style="stroke:#181818;stroke-width:1;stroke-dasharray:2,2;" x1="594.981" x2="880.5024" y1="316.3594" y2="316.3594"/><text fill="#000000" font-family="sans-serif" font-size="13" lengthAdjust="spacing" textLength="168.6826" x="606.981" y="311.2935">listaCandidatosPendentes</text></g><g class="message" data-participant-1="afiliacaoController" data-participant-2="gui"><polygon fill="#181818" points="376.8369,341.4922,366.8369,345.4922,376.8369,349.4922,372.8369,345.4922" style="stroke:#181818;stroke-width:1;"/><line style="stroke:#181818;stroke-width:1;stroke-dasharray:2,2;" x1="370.8369" x2="583.981" y1="345.4922" y2="345.4922"/><text fill="#000000" font-family="sans-serif" font-size="13" lengthAdjust="spacing" textLength="168.6826" x="382.8369" y="340.4263">listaCandidatosPendentes</text></g><g class="message" data-participant-1="representante" data-participant-2="gui"><polygon fill="#181818" points="348.8369,370.625,358.8369,374.625,348.8369,378.625,352.8369,374.625" style="stroke:#181818;stroke-width:1;"/><line style="stroke:#181818;stroke-width:1;" x1="77.1079" x2="354.8369" y1="374.625" y2="374.625"/><text fill="#000000" font-family="sans-serif" font-size="13" lengthAdjust="spacing" textLength="264.729" x="84.1079" y="369.5591">exibeInformacaoDetalhadaCandidato(id)</text></g><g class="message" data-participant-1="gui" data-participant-2="candidatoController"><polygon fill="#181818" points="718.7139,399.7578,728.7139,403.7578,718.7139,407.7578,722.7139,403.7578" style="stroke:#181818;stroke-width:1;"/><line style="stroke:#181818;stroke-width:1;" x1="370.8369" x2="724.7139" y1="403.7578" y2="403.7578"/><text fill="#000000" font-family="sans-serif" font-size="13" lengthAdjust="spacing" textLength="264.729" x="377.8369" y="398.6919">exibeInformacaoDetalhadaCandidato(id)</text></g><g class="message" data-participant-1="candidatoController" data-participant-2="candidatos"><polygon fill="#181818" points="1089.2451,428.8906,1099.2451,432.8906,1089.2451,436.8906,1093.2451,432.8906" style="stroke:#181818;stroke-width:1;"/><line style="stroke:#181818;stroke-width:1;" x1="740.7139" x2="1095.2451" y1="432.8906" y2="432.8906"/><text fill="#000000" font-family="sans-serif" font-size="13" lengthAdjust="spacing" textLength="126.8008" x="747.7139" y="427.8247">buscaCandidato(id)</text></g><g class="message" data-participant-1="candidatos" data-participant-2="candidato"><polygon fill="#181818" points="1293.7681,458.0234,1303.7681,462.0234,1293.7681,466.0234,1297.7681,462.0234" style="stroke:#181818;stroke-width:1;"/><line style="stroke:#181818;stroke-width:1;" x1="1111.2451" x2="1299.7681" y1="462.0234" y2="462.0234"/><text fill="#000000" font-family="sans-serif" font-size="13" lengthAdjust="spacing" textLength="43.3545" x="1118.2451" y="456.9575">get(id)</text></g><g class="message" data-participant-1="candidato" data-participant-2="candidatos"><polygon fill="#181818" points="1122.2451,487.1563,1112.2451,491.1563,1122.2451,495.1563,1118.2451,491.1563" style="stroke:#181818;stroke-width:1;"/><line style="stroke:#181818;stroke-width:1;stroke-dasharray:2,2;" x1="1116.2451" x2="1309.7681" y1="491.1563" y2="491.1563"/><text fill="#000000" font-family="sans-serif" font-size="13" lengthAdjust="spacing" textLength="66.4155" x="1128.2451" y="486.0903">Candidato</text></g><g class="message" data-participant-1="candidatos" data-participant-2="candidatoController"><polygon fill="#181818" points="751.7139,516.2891,741.7139,520.2891,751.7139,524.2891,747.7139,520.2891" style="stroke:#181818;stroke-width:1;"/><line style="stroke:#181818;stroke-width:1;stroke-dasharray:2,2;" x1="745.7139" x2="1105.2451" y1="520.2891" y2="520.2891"/><text fill="#000000" font-family="sans-serif" font-size="13" lengthAdjust="spacing" textLength="66.4155" x="757.7139" y="515.2231">Candidato</text></g><g class="message" data-participant-1="candidatoController" data-participant-2="candidato"><polygon fill="#181818" points="1293.7681,545.4219,1303.7681,549.4219,1293.7681,553.4219,1297.7681,549.4219" style="stroke:#181818;stroke-width:1;"/><line style="stroke:#181818;stroke-width:1;" x1="740.7139" x2="1299.7681" y1="549.4219" y2="549.4219"/><text fill="#000000" font-family="sans-serif" font-size="13" lengthAdjust="spacing" textLength="130.8887" x="747.7139" y="544.356">getPerfilCandidato()</text></g><g class="message" data-participant-1="perfil" data-participant-2="candidato"><polygon fill="#181818" points="1326.7681,574.5547,1316.7681,578.5547,1326.7681,582.5547,1322.7681,578.5547" style="stroke:#181818;stroke-width:1;"/><line style="stroke:#181818;stroke-width:1;stroke-dasharray:2,2;" x1="1320.7681" x2="1446.3291" y1="578.5547" y2="578.5547"/><text fill="#000000" font-family="sans-serif" font-size="13" lengthAdjust="spacing" textLength="33.395" x="1332.7681" y="573.4888">perfil</text></g><g class="message" data-participant-1="candidato" data-participant-2="candidatoController"><polygon fill="#181818" points="751.7139,603.6875,741.7139,607.6875,751.7139,611.6875,747.7139,607.6875" style="stroke:#181818;stroke-width:1;"/><line style="stroke:#181818;stroke-width:1;stroke-dasharray:2,2;" x1="745.7139" x2="1304.7681" y1="607.6875" y2="607.6875"/><text fill="#000000" font-family="sans-serif" font-size="13" lengthAdjust="spacing" textLength="33.395" x="757.7139" y="602.6216">perfil</text></g><g class="message" data-participant-1="candidatoController" data-participant-2="candidato"><polygon fill="#181818" points="1293.7681,632.8203,1303.7681,636.8203,1293.7681,640.8203,1297.7681,636.8203" style="stroke:#181818;stroke-width:1;"/><line style="stroke:#181818;stroke-width:1;" x1="740.7139" x2="1299.7681" y1="636.8203" y2="636.8203"/><text fill="#000000" font-family="sans-serif" font-size="13" lengthAdjust="spacing" textLength="173.9766" x="747.7139" y="631.7544">getHabilidadesCandidato()</text></g><g class="message" data-participant-1="candidato" data-participant-2="perfil"><polygon fill="#181818" points="1435.3291,661.9531,1445.3291,665.9531,1435.3291,669.9531,1439.3291,665.9531" style="stroke:#181818;stroke-width:1;"/><line style="stroke:#181818;stroke-width:1;" x1="1315.7681" x2="1441.3291" y1="665.9531" y2="665.9531"/><text fill="#000000" font-family="sans-serif" font-size="13" lengthAdjust="spacing" textLength="107.561" x="1322.7681" y="660.8872">getHabilidades()</text></g><g class="message" data-participant-1="perfil" data-participant-2="habilidades"><polygon fill="#181818" points="1576.8457,691.0859,1586.8457,695.0859,1576.8457,699.0859,1580.8457,695.0859" style="stroke:#181818;stroke-width:1;"/><line style="stroke:#181818;stroke-width:1;" x1="1457.3291" x2="1582.8457" y1="695.0859" y2="695.0859"/><text fill="#000000" font-family="sans-serif" font-size="13" lengthAdjust="spacing" textLength="107.561" x="1464.3291" y="690.02">getHabilidades()</text></g><g class="message" data-participant-1="habilidades" data-participant-2="habilidade"><polygon fill="#181818" points="1706.6338,720.2188,1716.6338,724.2188,1706.6338,728.2188,1710.6338,724.2188" style="stroke:#181818;stroke-width:1;"/><line style="stroke:#181818;stroke-width:1;" x1="1598.8457" x2="1712.6338" y1="724.2188" y2="724.2188"/><text fill="#000000" font-family="sans-serif" font-size="13" lengthAdjust="spacing" textLength="100.7881" x="1605.8457" y="719.1528">getHabilidade()</text></g><g class="message" data-participant-1="habilidade" data-participant-2="habilidades"><polygon fill="#181818" points="1609.8457,749.3516,1599.8457,753.3516,1609.8457,757.3516,1605.8457,753.3516" style="stroke:#181818;stroke-width:1;"/><line style="stroke:#181818;stroke-width:1;stroke-dasharray:2,2;" x1="1603.8457" x2="1722.6338" y1="753.3516" y2="753.3516"/><text fill="#000000" font-family="sans-serif" font-size="13" lengthAdjust="spacing" textLength="67.7612" x="1615.8457" y="748.2856">habilidade</text></g><g class="message" data-participant-1="habilidades" data-participant-2="perfil"><polygon fill="#181818" points="1468.3291,778.4844,1458.3291,782.4844,1468.3291,786.4844,1464.3291,782.4844" style="stroke:#181818;stroke-width:1;"/><line style="stroke:#181818;stroke-width:1;" x1="1462.3291" x2="1592.8457" y1="782.4844" y2="782.4844"/><text fill="#000000" font-family="sans-serif" font-size="13" lengthAdjust="spacing" textLength="107.5166" x="1474.3291" y="777.4185">habilidadesPerfil</text></g><g class="message" data-participant-1="perfil" data-participant-2="candidato"><polygon fill="#181818" points="1326.7681,807.6172,1316.7681,811.6172,1326.7681,815.6172,1322.7681,811.6172" style="stroke:#181818;stroke-width:1;"/><line style="stroke:#181818;stroke-width:1;stroke-dasharray:2,2;" x1="1320.7681" x2="1446.3291" y1="811.6172" y2="811.6172"/><text fill="#000000" font-family="sans-serif" font-size="13" lengthAdjust="spacing" textLength="107.5166" x="1332.7681" y="806.5513">habilidadesPerfil</text></g><g class="message" data-participant-1="candidato" data-participant-2="candidatoController"><polygon fill="#181818" points="751.7139,836.75,741.7139,840.75,751.7139,844.75,747.7139,840.75" style="stroke:#181818;stroke-width:1;"/><line style="stroke:#181818;stroke-width:1;stroke-dasharray:2,2;" x1="745.7139" x2="1304.7681" y1="840.75" y2="840.75"/><text fill="#000000" font-family="sans-serif" font-size="13" lengthAdjust="spacing" textLength="140.9497" x="757.7139" y="835.6841">habilidadesCandidato</text></g><g class="message" data-participant-1="candidatoController" data-participant-2="candidato"><polygon fill="#181818" points="1293.7681,865.8828,1303.7681,869.8828,1293.7681,873.8828,1297.7681,869.8828" style="stroke:#181818;stroke-width:1;"/><line style="stroke:#181818;stroke-width:1;" x1="740.7139" x2="1299.7681" y1="869.8828" y2="869.8828"/><text fill="#000000" font-family="sans-serif" font-size="13" lengthAdjust="spacing" textLength="164.7344" x="747.7139" y="864.8169">getInteressesCandidato()</text></g><g class="message" data-participant-1="candidato" data-participant-2="perfil"><polygon fill="#181818" points="1435.3291,895.0156,1445.3291,899.0156,1435.3291,903.0156,1439.3291,899.0156" style="stroke:#181818;stroke-width:1;"/><line style="stroke:#181818;stroke-width:1;" x1="1315.7681" x2="1441.3291" y1="899.0156" y2="899.0156"/><text fill="#000000" font-family="sans-serif" font-size="13" lengthAdjust="spacing" textLength="98.3188" x="1322.7681" y="893.9497">getInteresses()</text></g><g class="message" data-participant-1="perfil" data-participant-2="interesses"><polygon fill="#181818" points="1801.9321,924.1484,1811.9321,928.1484,1801.9321,932.1484,1805.9321,928.1484" style="stroke:#181818;stroke-width:1;"/><line style="stroke:#181818;stroke-width:1;" x1="1457.3291" x2="1807.9321" y1="928.1484" y2="928.1484"/><text fill="#000000" font-family="sans-serif" font-size="13" lengthAdjust="spacing" textLength="98.3188" x="1464.3291" y="923.0825">getInteresses()</text></g><g class="message" data-participant-1="interesses" data-participant-2="interesse"><polygon fill="#181818" points="1922.478,953.2813,1932.478,957.2813,1922.478,961.2813,1926.478,957.2813" style="stroke:#181818;stroke-width:1;"/><line style="stroke:#181818;stroke-width:1;" x1="1823.9321" x2="1928.478" y1="957.2813" y2="957.2813"/><text fill="#000000" font-family="sans-serif" font-size="13" lengthAdjust="spacing" textLength="91.5459" x="1830.9321" y="952.2153">getInteresse()</text></g><g class="message" data-participant-1="interesse" data-participant-2="interesses"><polygon fill="#181818" points="1834.9321,982.4141,1824.9321,986.4141,1834.9321,990.4141,1830.9321,986.4141" style="stroke:#181818;stroke-width:1;"/><line style="stroke:#181818;stroke-width:1;stroke-dasharray:2,2;" x1="1828.9321" x2="1938.478" y1="986.4141" y2="986.4141"/><text fill="#000000" font-family="sans-serif" font-size="13" lengthAdjust="spacing" textLength="59.833" x="1840.9321" y="981.3481">interesse</text></g><g class="message" data-participant-1="interesses" data-participant-2="perfil"><polygon fill="#181818" points="1468.3291,1011.5469,1458.3291,1015.5469,1468.3291,1019.5469,1464.3291,1015.5469" style="stroke:#181818;stroke-width:1;"/><line style="stroke:#181818;stroke-width:1;" x1="1462.3291" x2="1817.9321" y1="1015.5469" y2="1015.5469"/><text fill="#000000" font-family="sans-serif" font-size="13" lengthAdjust="spacing" textLength="99.5884" x="1474.3291" y="1010.481">interessesPerfil</text></g><g class="message" data-participant-1="perfil" data-participant-2="candidato"><polygon fill="#181818" points="1326.7681,1040.6797,1316.7681,1044.6797,1326.7681,1048.6797,1322.7681,1044.6797" style="stroke:#181818;stroke-width:1;"/><line style="stroke:#181818;stroke-width:1;stroke-dasharray:2,2;" x1="1320.7681" x2="1451.3291" y1="1044.6797" y2="1044.6797"/><text fill="#000000" font-family="sans-serif" font-size="13" lengthAdjust="spacing" textLength="99.5884" x="1332.7681" y="1039.6138">interessesPerfil</text></g><g class="message" data-participant-1="candidato" data-participant-2="candidatoController"><polygon fill="#181818" points="751.7139,1069.8125,741.7139,1073.8125,751.7139,1077.8125,747.7139,1073.8125" style="stroke:#181818;stroke-width:1;"/><line style="stroke:#181818;stroke-width:1;stroke-dasharray:2,2;" x1="745.7139" x2="1304.7681" y1="1073.8125" y2="1073.8125"/><text fill="#000000" font-family="sans-serif" font-size="13" lengthAdjust="spacing" textLength="126.2485" x="757.7139" y="1068.7466">interesseCandidato</text></g><g class="message" data-participant-1="candidatoController" data-participant-2="gui"><polygon fill="#181818" points="376.8369,1098.9453,366.8369,1102.9453,376.8369,1106.9453,372.8369,1102.9453" style="stroke:#181818;stroke-width:1;"/><line style="stroke:#181818;stroke-width:1;stroke-dasharray:2,2;" x1="370.8369" x2="734.7139" y1="1102.9453" y2="1102.9453"/><text fill="#000000" font-family="sans-serif" font-size="13" lengthAdjust="spacing" textLength="154.1084" x="382.8369" y="1097.8794">informacoesDetalhadas</text></g><!--SRC=[dLR1Rjim3BtxAmIVKWpzWQ8mC6J0bblGeRihjj88SAr0SehrxqixjaJAbEpD9qiYtnF9HqcoxeqLvOkwMkLKrykkL-Bbs-zII2SidYrEvjOrqdwAykVhOLn_ksdn_7os1fQrbLLLrF1hJIlAxsVTQbbBix_FjCgEBd8v3n2r7s2ClUmQtSW-ngYNyp46WC1VtMlJEL4U5TWRlwKHv4hdg8DdTfJGKRC_fhr1SgoUx3x2k80F4gVxJuH6mVpwKLdOnhIhuJVQ_YzvWbqsib5tcaiOUunW4vb4M0Se5TJKJL3Q3psIjw0640-HWtYiXle_YTFDrJ8axAYw1aoKspqK4bW_9DY2OL48-0R5W2EZWYpGuEh16ESx-6Z5w0i8esglaX72M2e2VMGG6Of7O0xQMP3kokj4MpuG7C-CX2UYBonHcYVnfdhFaQJWQHOcX0c8ee3y_vo_1K2ZDh2GMBXgjThrNBMADIgtMXzMYfluWkWGSwoLl33d7iho8NHM-cXzQAzaewg_-gGEtTdOzm7YX-fbUv5DuDtf9jEppAcx5PCN6zU-tD6URIAFd-gR8YMqk6S8Kg8zYbnlq6tkUQVLVaZrDSuwWvqN_rfQnmJShw6GsLnUexOQ7EDZQBhAs8n6Quaiuf1J7hc0qBs9eX95ee3LH1BxGY8MTPz3hl1bp3WcZrnyXtE7BbgdB149mv7WOUqerPX-4j2AErBTYcKKpvnfD7rSwYL9uP85eIB8ms-GtOMHqB-9C3oukCxAIJ1uHWv1VE7vblSWaa1lFgvIOPamK88rsOLdOqfrtc9CFWuaxulqa3UaSSnv3RFhUaiaYfTQ5fWy4Fv7XnvzemhdErzFLxDHpj_Dqvt8tHZfPyKN]--></g></svg>