<svg xmlns="http://www.w3.org/2000/svg" xmlns:xlink="http://www.w3.org/1999/xlink" contentStyleType="text/css" data-diagram-type="SEQUENCE" height="621px" preserveAspectRatio="none" style="width:1261px;height:621px;background:#FFFFFF;" version="1.1" viewBox="0 0 1261 621" width="1261px" zoomAndPan="magnify"><defs/><g><g><title>..fronteira..</title><rect fill="#FFFFFF" height="205.9297" style="stroke:#181818;stroke-width:1;" width="10" x="360.8369" y="112.4297"/></g><g><title>..fronteira..</title><rect fill="#FFFFFF" height="174.7969" style="stroke:#181818;stroke-width:1;" width="10" x="360.8369" y="347.4922"/></g><g><title>..controller..</title><rect fill="#FFFFFF" height="176.7969" style="stroke:#181818;stroke-width:1;" width="10" x="579.981" y="141.5625"/></g><g><title>..controller..</title><rect fill="#FFFFFF" height="145.6641" style="stroke:#181818;stroke-width:1;" width="10" x="730.7139" y="376.625"/></g><g><title>PedidoAfiliacao</title><rect fill="#FFFFFF" height="118.5313" style="stroke:#181818;stroke-width:1;" width="10" x="876.5024" y="170.6953"/></g><g><title>Candidatos</title><rect fill="#FFFFFF" height="87.3984" style="stroke:#181818;stroke-width:1;" width="10" x="997.3516" y="405.7578"/></g><g><title>Candidato</title><rect fill="#FFFFFF" height="29.1328" style="stroke:#181818;stroke-width:1;" width="10" x="1201.8745" y="223.9609"/></g><g><title>Candidato</title><rect fill="#FFFFFF" height="29.1328" style="stroke:#181818;stroke-width:1;" width="10" x="1201.8745" y="434.8906"/></g><rect fill="none" height="75.3984" style="stroke:#000000;stroke-width:1.5;" width="446.5742" x="809.0625" y="185.6953"/><g><title>Representante R.S</title><rect fill="#000000" fill-opacity="0.00000" height="458.9922" width="8" x="73.1079" y="81.2969"/><line style="stroke:#181818;stroke-width:0.5;stroke-dasharray:5,5;" x1="77" x2="77" y1="81.2969" y2="540.2891"/></g><g><title>..fronteira..</title><rect fill="#000000" fill-opacity="0.00000" height="458.9922" width="8" x="361.8369" y="81.2969"/><line style="stroke:#181818;stroke-width:0.5;stroke-dasharray:5,5;" x1="365.0464" x2="365.0464" y1="81.2969" y2="540.2891"/></g><g><title>..controller..</title><rect fill="#000000" fill-opacity="0.00000" height="458.9922" width="8" x="580.981" y="81.2969"/><line style="stroke:#181818;stroke-width:0.5;stroke-dasharray:5,5;" x1="584.5967" x2="584.5967" y1="81.2969" y2="540.2891"/></g><g><title>..controller..</title><rect fill="#000000" fill-opacity="0.00000" height="458.9922" width="8" x="731.7139" y="81.2969"/><line style="stroke:#181818;stroke-width:0.5;stroke-dasharray:5,5;" x1="735.3652" x2="735.3652" y1="81.2969" y2="540.2891"/></g><g><title>PedidoAfiliacao</title><rect fill="#000000" fill-opacity="0.00000" height="458.9922" width="8" x="877.5024" y="81.2969"/><line style="stroke:#181818;stroke-width:0.5;stroke-dasharray:5,5;" x1="881.0625" x2="881.0625" y1="81.2969" y2="540.2891"/></g><g><title>Candidatos</title><rect fill="#000000" fill-opacity="0.00000" height="458.9922" width="8" x="998.3516" y="81.2969"/><line style="stroke:#181818;stroke-width:0.5;stroke-dasharray:5,5;" x1="1001.9424" x2="1001.9424" y1="81.2969" y2="540.2891"/></g><g><title>Voluntarios</title><rect fill="#000000" fill-opacity="0.00000" height="458.9922" width="8" x="1105.4365" y="81.2969"/><line style="stroke:#181818;stroke-width:0.5;stroke-dasharray:5,5;" x1="1108.7607" x2="1108.7607" y1="81.2969" y2="540.2891"/></g><g><title>Candidato</title><rect fill="#000000" fill-opacity="0.00000" height="458.9922" width="8" x="1202.8745" y="81.2969"/><line style="stroke:#181818;stroke-width:0.5;stroke-dasharray:5,5;" x1="1206.1123" x2="1206.1123" y1="81.2969" y2="540.2891"/></g><g class="participant participant-head" data-participant="representante"><text fill="#000000" font-family="sans-serif" font-size="14" lengthAdjust="spacing" textLength="138.2158" x="5" y="77.9951">Representante R+S</text><ellipse cx="77.1079" cy="13.5" fill="#E2E2F0" rx="8" ry="8" style="stroke:#181818;stroke-width:0.5;"/><path d="M77.1079,21.5 L77.1079,48.5 M64.1079,29.5 L90.1079,29.5 M77.1079,48.5 L64.1079,63.5 M77.1079,48.5 L90.1079,63.5" fill="none" style="stroke:#181818;stroke-width:0.5;"/></g><g class="participant participant-tail" data-participant="representante"><text fill="#000000" font-family="sans-serif" font-size="14" lengthAdjust="spacing" textLength="138.2158" x="5" y="552.2842">Representante R+S</text><ellipse cx="77.1079" cy="564.0859" fill="#E2E2F0" rx="8" ry="8" style="stroke:#181818;stroke-width:0.5;"/><path d="M77.1079,572.0859 L77.1079,599.0859 M64.1079,580.0859 L90.1079,580.0859 M77.1079,599.0859 L64.1079,614.0859 M77.1079,599.0859 L90.1079,614.0859" fill="none" style="stroke:#181818;stroke-width:0.5;"/></g><g class="participant participant-head" data-participant="gui"><text fill="#000000" font-family="sans-serif" font-size="14" font-style="italic" lengthAdjust="spacing" textLength="77.5811" x="324.0464" y="61.6982">&#171;fronteira&#187;</text><text fill="#000000" font-family="sans-serif" font-size="14" lengthAdjust="spacing" textLength="25.2246" x="350.2246" y="77.9951">GUI</text><path d="M345.3369,20.7031 L345.3369,44.7031 M345.3369,32.7031 L362.3369,32.7031" fill="none" style="stroke:#181818;stroke-width:0.5;"/><ellipse cx="374.3369" cy="32.7031" fill="#E2E2F0" rx="12" ry="12" style="stroke:#181818;stroke-width:0.5;"/></g><g class="participant participant-tail" data-participant="gui"><text fill="#000000" font-family="sans-serif" font-size="14" font-style="italic" lengthAdjust="spacing" textLength="77.5811" x="324.0464" y="552.2842">&#171;fronteira&#187;</text><text fill="#000000" font-family="sans-serif" font-size="14" lengthAdjust="spacing" textLength="25.2246" x="350.2246" y="568.5811">GUI</text><path d="M345.3369,575.8828 L345.3369,599.8828 M345.3369,587.8828 L362.3369,587.8828" fill="none" style="stroke:#181818;stroke-width:0.5;"/><ellipse cx="374.3369" cy="587.8828" fill="#E2E2F0" rx="12" ry="12" style="stroke:#181818;stroke-width:0.5;"/></g><g class="participant participant-head" data-participant="afiliacaoController"><text fill="#000000" font-family="sans-serif" font-size="14" font-style="italic" lengthAdjust="spacing" textLength="84.2256" x="539.8682" y="61.6982">&#171;controller&#187;</text><text fill="#000000" font-family="sans-serif" font-size="14" lengthAdjust="spacing" textLength="128.7686" x="517.5967" y="77.9951">AfiliacaoController</text><ellipse cx="584.981" cy="32.7031" fill="#E2E2F0" rx="12" ry="12" style="stroke:#181818;stroke-width:0.5;"/><polygon fill="#181818" points="580.981,20.7031,586.981,15.7031,584.981,20.7031,586.981,25.7031,580.981,20.7031" style="stroke:#181818;stroke-width:1;"/></g><g class="participant participant-tail" data-participant="afiliacaoController"><text fill="#000000" font-family="sans-serif" font-size="14" font-style="italic" lengthAdjust="spacing" textLength="84.2256" x="539.8682" y="552.2842">&#171;controller&#187;</text><text fill="#000000" font-family="sans-serif" font-size="14" lengthAdjust="spacing" textLength="128.7686" x="517.5967" y="568.5811">AfiliacaoController</text><ellipse cx="584.981" cy="587.8828" fill="#E2E2F0" rx="12" ry="12" style="stroke:#181818;stroke-width:0.5;"/><polygon fill="#181818" points="580.981,575.8828,586.981,570.8828,584.981,575.8828,586.981,580.8828,580.981,575.8828" style="stroke:#181818;stroke-width:1;"/></g><g class="participant participant-head" data-participant="candidatoController"><text fill="#000000" font-family="sans-serif" font-size="14" font-style="italic" lengthAdjust="spacing" textLength="84.2256" x="690.6011" y="61.6982">&#171;controller&#187;</text><text fill="#000000" font-family="sans-serif" font-size="14" lengthAdjust="spacing" textLength="140.6973" x="662.3652" y="77.9951">CandidatoController</text><ellipse cx="735.7139" cy="32.7031" fill="#E2E2F0" rx="12" ry="12" style="stroke:#181818;stroke-width:0.5;"/><polygon fill="#181818" points="731.7139,20.7031,737.7139,15.7031,735.7139,20.7031,737.7139,25.7031,731.7139,20.7031" style="stroke:#181818;stroke-width:1;"/></g><g class="participant participant-tail" data-participant="candidatoController"><text fill="#000000" font-family="sans-serif" font-size="14" font-style="italic" lengthAdjust="spacing" textLength="84.2256" x="690.6011" y="552.2842">&#171;controller&#187;</text><text fill="#000000" font-family="sans-serif" font-size="14" lengthAdjust="spacing" textLength="140.6973" x="662.3652" y="568.5811">CandidatoController</text><ellipse cx="735.7139" cy="587.8828" fill="#E2E2F0" rx="12" ry="12" style="stroke:#181818;stroke-width:0.5;"/><polygon fill="#181818" points="731.7139,575.8828,737.7139,570.8828,735.7139,575.8828,737.7139,580.8828,731.7139,575.8828" style="stroke:#181818;stroke-width:1;"/></g><g class="participant participant-head" data-participant="pedidoAfiliacao"><rect fill="#E2E2F0" height="30.2969" style="stroke:#181818;stroke-width:0.5;" width="120.8799" x="823.0625" y="46"/><rect fill="#E2E2F0" height="30.2969" style="stroke:#181818;stroke-width:0.5;" width="120.8799" x="819.0625" y="50"/><text fill="#000000" font-family="sans-serif" font-size="14" lengthAdjust="spacing" textLength="106.8799" x="826.0625" y="69.9951">PedidoAfiliacao</text></g><g class="participant participant-tail" data-participant="pedidoAfiliacao"><rect fill="#E2E2F0" height="30.2969" style="stroke:#181818;stroke-width:0.5;" width="120.8799" x="823.0625" y="539.2891"/><rect fill="#E2E2F0" height="30.2969" style="stroke:#181818;stroke-width:0.5;" width="120.8799" x="819.0625" y="543.2891"/><text fill="#000000" font-family="sans-serif" font-size="14" lengthAdjust="spacing" textLength="106.8799" x="826.0625" y="563.2842">PedidoAfiliacao</text></g><g class="participant participant-head" data-participant="candidatos"><rect fill="#E2E2F0" height="30.2969" style="stroke:#181818;stroke-width:0.5;" width="92.8184" x="957.9424" y="46"/><rect fill="#E2E2F0" height="30.2969" style="stroke:#181818;stroke-width:0.5;" width="92.8184" x="953.9424" y="50"/><text fill="#000000" font-family="sans-serif" font-size="14" lengthAdjust="spacing" textLength="78.8184" x="960.9424" y="69.9951">Candidatos</text></g><g class="participant participant-tail" data-participant="candidatos"><rect fill="#E2E2F0" height="30.2969" style="stroke:#181818;stroke-width:0.5;" width="92.8184" x="957.9424" y="539.2891"/><rect fill="#E2E2F0" height="30.2969" style="stroke:#181818;stroke-width:0.5;" width="92.8184" x="953.9424" y="543.2891"/><text fill="#000000" font-family="sans-serif" font-size="14" lengthAdjust="spacing" textLength="78.8184" x="960.9424" y="563.2842">Candidatos</text></g><g class="participant participant-head" data-participant="voluntarios"><rect fill="#E2E2F0" height="30.2969" style="stroke:#181818;stroke-width:0.5;" width="93.3516" x="1064.7607" y="46"/><rect fill="#E2E2F0" height="30.2969" style="stroke:#181818;stroke-width:0.5;" width="93.3516" x="1060.7607" y="50"/><text fill="#000000" font-family="sans-serif" font-size="14" lengthAdjust="spacing" textLength="79.3516" x="1067.7607" y="69.9951">Voluntarios</text></g><g class="participant participant-tail" data-participant="voluntarios"><rect fill="#E2E2F0" height="30.2969" style="stroke:#181818;stroke-width:0.5;" width="93.3516" x="1064.7607" y="539.2891"/><rect fill="#E2E2F0" height="30.2969" style="stroke:#181818;stroke-width:0.5;" width="93.3516" x="1060.7607" y="543.2891"/><text fill="#000000" font-family="sans-serif" font-size="14" lengthAdjust="spacing" textLength="79.3516" x="1067.7607" y="563.2842">Voluntarios</text></g><g class="participant participant-head" data-participant="candidato"><text fill="#000000" font-family="sans-serif" font-size="14" lengthAdjust="spacing" textLength="71.5244" x="1168.1123" y="77.9951">Candidato</text><ellipse cx="1206.8745" cy="49" fill="#E2E2F0" rx="12" ry="12" style="stroke:#181818;stroke-width:0.5;"/><line style="stroke:#181818;stroke-width:0.5;" x1="1194.8745" x2="1218.8745" y1="63" y2="63"/></g><g class="participant participant-tail" data-participant="candidato"><text fill="#000000" font-family="sans-serif" font-size="14" lengthAdjust="spacing" textLength="71.5244" x="1168.1123" y="552.2842">Candidato</text><ellipse cx="1206.8745" cy="571.5859" fill="#E2E2F0" rx="12" ry="12" style="stroke:#181818;stroke-width:0.5;"/><line style="stroke:#181818;stroke-width:0.5;" x1="1194.8745" x2="1218.8745" y1="585.5859" y2="585.5859"/></g><g><title>..fronteira..</title><rect fill="#FFFFFF" height="205.9297" style="stroke:#181818;stroke-width:1;" width="10" x="360.8369" y="112.4297"/></g><g><title>..fronteira..</title><rect fill="#FFFFFF" height="174.7969" style="stroke:#181818;stroke-width:1;" width="10" x="360.8369" y="347.4922"/></g><g><title>..controller..</title><rect fill="#FFFFFF" height="176.7969" style="stroke:#181818;stroke-width:1;" width="10" x="579.981" y="141.5625"/></g><g><title>..controller..</title><rect fill="#FFFFFF" height="145.6641" style="stroke:#181818;stroke-width:1;" width="10" x="730.7139" y="376.625"/></g><g><title>PedidoAfiliacao</title><rect fill="#FFFFFF" height="118.5313" style="stroke:#181818;stroke-width:1;" width="10" x="876.5024" y="170.6953"/></g><g><title>Candidatos</title><rect fill="#FFFFFF" height="87.3984" style="stroke:#181818;stroke-width:1;" width="10" x="997.3516" y="405.7578"/></g><g><title>Candidato</title><rect fill="#FFFFFF" height="29.1328" style="stroke:#181818;stroke-width:1;" width="10" x="1201.8745" y="223.9609"/></g><g><title>Candidato</title><rect fill="#FFFFFF" height="29.1328" style="stroke:#181818;stroke-width:1;" width="10" x="1201.8745" y="434.8906"/></g><g class="message" data-participant-1="representante" data-participant-2="gui"><polygon fill="#181818" points="348.8369,108.4297,358.8369,112.4297,348.8369,116.4297,352.8369,112.4297" style="stroke:#181818;stroke-width:1;"/><line style="stroke:#181818;stroke-width:1;" x1="77.1079" x2="354.8369" y1="112.4297" y2="112.4297"/><text fill="#000000" font-family="sans-serif" font-size="13" lengthAdjust="spacing" textLength="190.144" x="84.1079" y="107.3638">buscaCandidatosPendentes()</text></g><g class="message" data-participant-1="gui" data-participant-2="afiliacaoController"><polygon fill="#181818" points="567.981,137.5625,577.981,141.5625,567.981,145.5625,571.981,141.5625" style="stroke:#181818;stroke-width:1;"/><line style="stroke:#181818;stroke-width:1;" x1="370.8369" x2="573.981" y1="141.5625" y2="141.5625"/><text fill="#000000" font-family="sans-serif" font-size="13" lengthAdjust="spacing" textLength="190.144" x="377.8369" y="136.4966">buscaCandidatosPendentes()</text></g><g class="message" data-participant-1="afiliacaoController" data-participant-2="pedidoAfiliacao"><polygon fill="#181818" points="864.5024,166.6953,874.5024,170.6953,864.5024,174.6953,868.5024,170.6953" style="stroke:#181818;stroke-width:1;"/><line style="stroke:#181818;stroke-width:1;" x1="589.981" x2="870.5024" y1="170.6953" y2="170.6953"/><text fill="#000000" font-family="sans-serif" font-size="13" lengthAdjust="spacing" textLength="190.144" x="596.981" y="165.6294">buscaCandidatosPendentes()</text></g><path d="M809.0625,185.6953 L1146.5688,185.6953 L1146.5688,192.8281 L1136.5688,202.8281 L809.0625,202.8281 L809.0625,185.6953" fill="#EEEEEE" style="stroke:#000000;stroke-width:1.5;"/><rect fill="none" height="75.3984" style="stroke:#000000;stroke-width:1.5;" width="446.5742" x="809.0625" y="185.6953"/><text fill="#000000" font-family="sans-serif" font-size="13" font-weight="bold" lengthAdjust="spacing" textLength="292.5063" x="824.0625" y="198.7622">enquanto houver candidatos pendentes</text><g class="message" data-participant-1="pedidoAfiliacao" data-participant-2="candidato"><polygon fill="#181818" points="1189.8745,219.9609,1199.8745,223.9609,1189.8745,227.9609,1193.8745,223.9609" style="stroke:#181818;stroke-width:1;"/><line style="stroke:#181818;stroke-width:1;" x1="886.5024" x2="1195.8745" y1="223.9609" y2="223.9609"/><text fill="#000000" font-family="sans-serif" font-size="13" lengthAdjust="spacing" textLength="97.9063" x="893.5024" y="218.895">getCandidato()</text></g><g class="message" data-participant-1="candidato" data-participant-2="pedidoAfiliacao"><polygon fill="#181818" points="897.5024,249.0938,887.5024,253.0938,897.5024,257.0938,893.5024,253.0938" style="stroke:#181818;stroke-width:1;"/><line style="stroke:#181818;stroke-width:1;stroke-dasharray:2,2;" x1="891.5024" x2="1205.8745" y1="253.0938" y2="253.0938"/><text fill="#000000" font-family="sans-serif" font-size="13" lengthAdjust="spacing" textLength="66.4155" x="903.5024" y="248.0278">Candidato</text></g><g class="message" data-participant-1="pedidoAfiliacao" data-participant-2="afiliacaoController"><polygon fill="#181818" points="600.981,285.2266,590.981,289.2266,600.981,293.2266,596.981,289.2266" style="stroke:#181818;stroke-width:1;"/><line style="stroke:#181818;stroke-width:1;stroke-dasharray:2,2;" x1="594.981" x2="880.5024" y1="289.2266" y2="289.2266"/><text fill="#000000" font-family="sans-serif" font-size="13" lengthAdjust="spacing" textLength="73.1885" x="606.981" y="284.1606">Candidatos</text></g><g class="message" data-participant-1="afiliacaoController" data-participant-2="gui"><polygon fill="#181818" points="376.8369,314.3594,366.8369,318.3594,376.8369,322.3594,372.8369,318.3594" style="stroke:#181818;stroke-width:1;"/><line style="stroke:#181818;stroke-width:1;stroke-dasharray:2,2;" x1="370.8369" x2="583.981" y1="318.3594" y2="318.3594"/><text fill="#000000" font-family="sans-serif" font-size="13" lengthAdjust="spacing" textLength="73.1885" x="382.8369" y="313.2935">Candidatos</text></g><g class="message" data-participant-1="representante" data-participant-2="gui"><polygon fill="#181818" points="348.8369,343.4922,358.8369,347.4922,348.8369,351.4922,352.8369,347.4922" style="stroke:#181818;stroke-width:1;"/><line style="stroke:#181818;stroke-width:1;" x1="77.1079" x2="354.8369" y1="347.4922" y2="347.4922"/><text fill="#000000" font-family="sans-serif" font-size="13" lengthAdjust="spacing" textLength="264.729" x="84.1079" y="342.4263">exibeInformacaoDetalhadaCandidato(id)</text></g><g class="message" data-participant-1="gui" data-participant-2="candidatoController"><polygon fill="#181818" points="718.7139,372.625,728.7139,376.625,718.7139,380.625,722.7139,376.625" style="stroke:#181818;stroke-width:1;"/><line style="stroke:#181818;stroke-width:1;" x1="370.8369" x2="724.7139" y1="376.625" y2="376.625"/><text fill="#000000" font-family="sans-serif" font-size="13" lengthAdjust="spacing" textLength="264.729" x="377.8369" y="371.5591">exibeInformacaoDetalhadaCandidato(id)</text></g><g class="message" data-participant-1="candidatoController" data-participant-2="candidatos"><polygon fill="#181818" points="985.3516,401.7578,995.3516,405.7578,985.3516,409.7578,989.3516,405.7578" style="stroke:#181818;stroke-width:1;"/><line style="stroke:#181818;stroke-width:1;" x1="740.7139" x2="991.3516" y1="405.7578" y2="405.7578"/><text fill="#000000" font-family="sans-serif" font-size="13" lengthAdjust="spacing" textLength="126.8008" x="747.7139" y="400.6919">buscaCandidato(id)</text></g><g class="message" data-participant-1="candidatos" data-participant-2="candidato"><polygon fill="#181818" points="1189.8745,430.8906,1199.8745,434.8906,1189.8745,438.8906,1193.8745,434.8906" style="stroke:#181818;stroke-width:1;"/><line style="stroke:#181818;stroke-width:1;" x1="1007.3516" x2="1195.8745" y1="434.8906" y2="434.8906"/><text fill="#000000" font-family="sans-serif" font-size="13" lengthAdjust="spacing" textLength="43.3545" x="1014.3516" y="429.8247">get(id)</text></g><g class="message" data-participant-1="candidato" data-participant-2="candidatos"><polygon fill="#181818" points="1018.3516,460.0234,1008.3516,464.0234,1018.3516,468.0234,1014.3516,464.0234" style="stroke:#181818;stroke-width:1;"/><line style="stroke:#181818;stroke-width:1;stroke-dasharray:2,2;" x1="1012.3516" x2="1205.8745" y1="464.0234" y2="464.0234"/><text fill="#000000" font-family="sans-serif" font-size="13" lengthAdjust="spacing" textLength="66.4155" x="1024.3516" y="458.9575">Candidato</text></g><g class="message" data-participant-1="candidatos" data-participant-2="candidatoController"><polygon fill="#181818" points="751.7139,489.1563,741.7139,493.1563,751.7139,497.1563,747.7139,493.1563" style="stroke:#181818;stroke-width:1;"/><line style="stroke:#181818;stroke-width:1;stroke-dasharray:2,2;" x1="745.7139" x2="1001.3516" y1="493.1563" y2="493.1563"/><text fill="#000000" font-family="sans-serif" font-size="13" lengthAdjust="spacing" textLength="66.4155" x="757.7139" y="488.0903">Candidato</text></g><g class="message" data-participant-1="candidatoController" data-participant-2="gui"><polygon fill="#181818" points="376.8369,518.2891,366.8369,522.2891,376.8369,526.2891,372.8369,522.2891" style="stroke:#181818;stroke-width:1;"/><line style="stroke:#181818;stroke-width:1;stroke-dasharray:2,2;" x1="370.8369" x2="734.7139" y1="522.2891" y2="522.2891"/><text fill="#000000" font-family="sans-serif" font-size="13" lengthAdjust="spacing" textLength="66.4155" x="382.8369" y="517.2231">Candidato</text></g><!--SRC=[ZPJ1Ri8m38RlUGgh9wQ95q08QMBIn0qnRNVJ1eZK9In9qNZxkOMbIUgMvTGczlUxzfzYwOs5OYVFLZgfFMelOVVyNW0wiF6ks9j6LsYlKBnzRBhpOwDWkJnOGyVAucebIdgqfeRYvQ1gXIMQzMsdbhPBmU4-8Shm4ZFMg2jLeSyPvN0_Pn24daglZ7PGR2N5cr1I1pcdUsb2K7Qfe4l3FatTK7EikiTT-dSXg6tANoDMYX929Es5-QhjvmBsZIknBs0hTKKXqisU19Bm1IcM0eK0Mkq4A97fwYIeJGqm9la6xwAOUP5Wrhs7OebWtdg8rj6QvWnIVpVK50Cdqrn8iHy09T_9ILgxCcnRPiXRm57wK5vKrA2uVa30B7OpfC2SQysw7tcUMSa7klInOl8RnuRVZo9LZHJpCKpF_C-U4PXXibwApbk_ZZfV_gYztEY3iLyjubLwh4zOzRQQgMhY4Z2_XVyoUGTmzu7xzyJQBhyAWSzhPEE9Z3wmRq8QyQoOzcPSveWj7reoBd6iwmoRuxhfjWuiTwDnf76x_G80]--></g></svg>