<svg xmlns="http://www.w3.org/2000/svg" xmlns:xlink="http://www.w3.org/1999/xlink" contentStyleType="text/css" data-diagram-type="SEQUENCE" height="502px" preserveAspectRatio="none" style="width:1484px;height:502px;background:#FFFFFF;" version="1.1" viewBox="0 0 1484 502" width="1484px" zoomAndPan="magnify"><defs/><g><g><title>..fronteira..</title><rect fill="#FFFFFF" height="291.3281" style="stroke:#181818;stroke-width:1;" width="10" x="299.4741" y="112.4297"/></g><g><title>..controller..</title><rect fill="#FFFFFF" height="262.1953" style="stroke:#181818;stroke-width:1;" width="10" x="531.8403" y="141.5625"/></g><g><title>Candidatos</title><rect fill="#FFFFFF" height="87.3984" style="stroke:#181818;stroke-width:1;" width="10" x="781.1118" y="170.6953"/></g><g><title>Candidatos</title><rect fill="#FFFFFF" height="29.1328" style="stroke:#181818;stroke-width:1;" width="10" x="781.1118" y="345.4922"/></g><g><title>Candidato</title><rect fill="#FFFFFF" height="29.1328" style="stroke:#181818;stroke-width:1;" width="10" x="1223.7793" y="199.8281"/></g><g><title>Candidato</title><rect fill="#FFFFFF" height="29.1328" style="stroke:#181818;stroke-width:1;" width="10" x="1223.7793" y="287.2266"/></g><g><title>Representante R.S</title><rect fill="#000000" fill-opacity="0.00000" height="340.4609" width="8" x="73.1079" y="81.2969"/><line style="stroke:#181818;stroke-width:0.5;stroke-dasharray:5,5;" x1="77" x2="77" y1="81.2969" y2="421.7578"/></g><g><title>..fronteira..</title><rect fill="#000000" fill-opacity="0.00000" height="340.4609" width="8" x="300.4741" y="81.2969"/><line style="stroke:#181818;stroke-width:0.5;stroke-dasharray:5,5;" x1="303.6836" x2="303.6836" y1="81.2969" y2="421.7578"/></g><g><title>..controller..</title><rect fill="#000000" fill-opacity="0.00000" height="340.4609" width="8" x="532.8403" y="81.2969"/><line style="stroke:#181818;stroke-width:0.5;stroke-dasharray:5,5;" x1="536.4917" x2="536.4917" y1="81.2969" y2="421.7578"/></g><g><title>..controller..</title><rect fill="#000000" fill-opacity="0.00000" height="340.4609" width="8" x="669.9458" y="81.2969"/><line style="stroke:#181818;stroke-width:0.5;stroke-dasharray:5,5;" x1="673.189" x2="673.189" y1="81.2969" y2="421.7578"/></g><g><title>Candidatos</title><rect fill="#000000" fill-opacity="0.00000" height="340.4609" width="8" x="782.1118" y="81.2969"/><line style="stroke:#181818;stroke-width:0.5;stroke-dasharray:5,5;" x1="785.7026" x2="785.7026" y1="81.2969" y2="421.7578"/></g><g><title>ONGs</title><rect fill="#000000" fill-opacity="0.00000" height="340.4609" width="8" x="869.3384" y="81.2969"/><line style="stroke:#181818;stroke-width:0.5;stroke-dasharray:5,5;" x1="872.521" x2="872.521" y1="81.2969" y2="421.7578"/></g><g><title>Campanhas</title><rect fill="#000000" fill-opacity="0.00000" height="340.4609" width="8" x="958.6943" y="81.2969"/><line style="stroke:#181818;stroke-width:0.5;stroke-dasharray:5,5;" x1="962.1558" x2="962.1558" y1="81.2969" y2="421.7578"/></g><g><title>Perfis</title><rect fill="#000000" fill-opacity="0.00000" height="340.4609" width="8" x="1047.6948" y="81.2969"/><line style="stroke:#181818;stroke-width:0.5;stroke-dasharray:5,5;" x1="1051.2329" x2="1051.2329" y1="81.2969" y2="421.7578"/></g><g><title>Perfil</title><rect fill="#000000" fill-opacity="0.00000" height="340.4609" width="8" x="1106.9165" y="81.2969"/><line style="stroke:#181818;stroke-width:0.5;stroke-dasharray:5,5;" x1="1110.1567" x2="1110.1567" y1="81.2969" y2="421.7578"/></g><g><title>ONG</title><rect fill="#000000" fill-opacity="0.00000" height="340.4609" width="8" x="1156.8467" y="81.2969"/><line style="stroke:#181818;stroke-width:0.5;stroke-dasharray:5,5;" x1="1160.6763" x2="1160.6763" y1="81.2969" y2="421.7578"/></g><g><title>Candidato</title><rect fill="#000000" fill-opacity="0.00000" height="340.4609" width="8" x="1224.7793" y="81.2969"/><line style="stroke:#181818;stroke-width:0.5;stroke-dasharray:5,5;" x1="1228.0171" x2="1228.0171" y1="81.2969" y2="421.7578"/></g><g><title>Recomendacao</title><rect fill="#000000" fill-opacity="0.00000" height="340.4609" width="8" x="1330.5591" y="81.2969"/><line style="stroke:#181818;stroke-width:0.5;stroke-dasharray:5,5;" x1="1334.5415" x2="1334.5415" y1="81.2969" y2="421.7578"/></g><g><title>Campanha</title><rect fill="#000000" fill-opacity="0.00000" height="340.4609" width="8" x="1438.4683" y="81.2969"/><line style="stroke:#181818;stroke-width:0.5;stroke-dasharray:5,5;" x1="1441.5767" x2="1441.5767" y1="81.2969" y2="421.7578"/></g><g class="participant participant-head" data-participant="representante"><text fill="#000000" font-family="sans-serif" font-size="14" lengthAdjust="spacing" textLength="138.2158" x="5" y="77.9951">Representante R+S</text><ellipse cx="77.1079" cy="13.5" fill="#E2E2F0" rx="8" ry="8" style="stroke:#181818;stroke-width:0.5;"/><path d="M77.1079,21.5 L77.1079,48.5 M64.1079,29.5 L90.1079,29.5 M77.1079,48.5 L64.1079,63.5 M77.1079,48.5 L90.1079,63.5" fill="none" style="stroke:#181818;stroke-width:0.5;"/></g><g class="participant participant-tail" data-participant="representante"><text fill="#000000" font-family="sans-serif" font-size="14" lengthAdjust="spacing" textLength="138.2158" x="5" y="433.7529">Representante R+S</text><ellipse cx="77.1079" cy="445.5547" fill="#E2E2F0" rx="8" ry="8" style="stroke:#181818;stroke-width:0.5;"/><path d="M77.1079,453.5547 L77.1079,480.5547 M64.1079,461.5547 L90.1079,461.5547 M77.1079,480.5547 L64.1079,495.5547 M77.1079,480.5547 L90.1079,495.5547" fill="none" style="stroke:#181818;stroke-width:0.5;"/></g><g class="participant participant-head" data-participant="gui"><text fill="#000000" font-family="sans-serif" font-size="14" font-style="italic" lengthAdjust="spacing" textLength="77.5811" x="262.6836" y="61.6982">&#171;fronteira&#187;</text><text fill="#000000" font-family="sans-serif" font-size="14" lengthAdjust="spacing" textLength="25.2246" x="288.8618" y="77.9951">GUI</text><path d="M283.9741,20.7031 L283.9741,44.7031 M283.9741,32.7031 L300.9741,32.7031" fill="none" style="stroke:#181818;stroke-width:0.5;"/><ellipse cx="312.9741" cy="32.7031" fill="#E2E2F0" rx="12" ry="12" style="stroke:#181818;stroke-width:0.5;"/></g><g class="participant participant-tail" data-participant="gui"><text fill="#000000" font-family="sans-serif" font-size="14" font-style="italic" lengthAdjust="spacing" textLength="77.5811" x="262.6836" y="433.7529">&#171;fronteira&#187;</text><text fill="#000000" font-family="sans-serif" font-size="14" lengthAdjust="spacing" textLength="25.2246" x="288.8618" y="450.0498">GUI</text><path d="M283.9741,457.3516 L283.9741,481.3516 M283.9741,469.3516 L300.9741,469.3516" fill="none" style="stroke:#181818;stroke-width:0.5;"/><ellipse cx="312.9741" cy="469.3516" fill="#E2E2F0" rx="12" ry="12" style="stroke:#181818;stroke-width:0.5;"/></g><g class="participant participant-head" data-participant="candidatoController"><text fill="#000000" font-family="sans-serif" font-size="14" font-style="italic" lengthAdjust="spacing" textLength="84.2256" x="491.7275" y="61.6982">&#171;controller&#187;</text><text fill="#000000" font-family="sans-serif" font-size="14" lengthAdjust="spacing" textLength="140.6973" x="463.4917" y="77.9951">CandidatoController</text><ellipse cx="536.8403" cy="32.7031" fill="#E2E2F0" rx="12" ry="12" style="stroke:#181818;stroke-width:0.5;"/><polygon fill="#181818" points="532.8403,20.7031,538.8403,15.7031,536.8403,20.7031,538.8403,25.7031,532.8403,20.7031" style="stroke:#181818;stroke-width:1;"/></g><g class="participant participant-tail" data-participant="candidatoController"><text fill="#000000" font-family="sans-serif" font-size="14" font-style="italic" lengthAdjust="spacing" textLength="84.2256" x="491.7275" y="433.7529">&#171;controller&#187;</text><text fill="#000000" font-family="sans-serif" font-size="14" lengthAdjust="spacing" textLength="140.6973" x="463.4917" y="450.0498">CandidatoController</text><ellipse cx="536.8403" cy="469.3516" fill="#E2E2F0" rx="12" ry="12" style="stroke:#181818;stroke-width:0.5;"/><polygon fill="#181818" points="532.8403,457.3516,538.8403,452.3516,536.8403,457.3516,538.8403,462.3516,532.8403,457.3516" style="stroke:#181818;stroke-width:1;"/></g><g class="participant participant-head" data-participant="ongController"><text fill="#000000" font-family="sans-serif" font-size="14" font-style="italic" lengthAdjust="spacing" textLength="84.2256" x="628.833" y="61.6982">&#171;controller&#187;</text><text fill="#000000" font-family="sans-serif" font-size="14" lengthAdjust="spacing" textLength="101.5137" x="620.189" y="77.9951">ONGController</text><ellipse cx="673.9458" cy="32.7031" fill="#E2E2F0" rx="12" ry="12" style="stroke:#181818;stroke-width:0.5;"/><polygon fill="#181818" points="669.9458,20.7031,675.9458,15.7031,673.9458,20.7031,675.9458,25.7031,669.9458,20.7031" style="stroke:#181818;stroke-width:1;"/></g><g class="participant participant-tail" data-participant="ongController"><text fill="#000000" font-family="sans-serif" font-size="14" font-style="italic" lengthAdjust="spacing" textLength="84.2256" x="628.833" y="433.7529">&#171;controller&#187;</text><text fill="#000000" font-family="sans-serif" font-size="14" lengthAdjust="spacing" textLength="101.5137" x="620.189" y="450.0498">ONGController</text><ellipse cx="673.9458" cy="469.3516" fill="#E2E2F0" rx="12" ry="12" style="stroke:#181818;stroke-width:0.5;"/><polygon fill="#181818" points="669.9458,457.3516,675.9458,452.3516,673.9458,457.3516,675.9458,462.3516,669.9458,457.3516" style="stroke:#181818;stroke-width:1;"/></g><g class="participant participant-head" data-participant="candidatos"><rect fill="#E2E2F0" height="30.2969" style="stroke:#181818;stroke-width:0.5;" width="92.8184" x="741.7026" y="46"/><rect fill="#E2E2F0" height="30.2969" style="stroke:#181818;stroke-width:0.5;" width="92.8184" x="737.7026" y="50"/><text fill="#000000" font-family="sans-serif" font-size="14" lengthAdjust="spacing" textLength="78.8184" x="744.7026" y="69.9951">Candidatos</text></g><g class="participant participant-tail" data-participant="candidatos"><rect fill="#E2E2F0" height="30.2969" style="stroke:#181818;stroke-width:0.5;" width="92.8184" x="741.7026" y="420.7578"/><rect fill="#E2E2F0" height="30.2969" style="stroke:#181818;stroke-width:0.5;" width="92.8184" x="737.7026" y="424.7578"/><text fill="#000000" font-family="sans-serif" font-size="14" lengthAdjust="spacing" textLength="78.8184" x="744.7026" y="444.7529">Candidatos</text></g><g class="participant participant-head" data-participant="ongs"><rect fill="#E2E2F0" height="30.2969" style="stroke:#181818;stroke-width:0.5;" width="53.6348" x="848.521" y="46"/><rect fill="#E2E2F0" height="30.2969" style="stroke:#181818;stroke-width:0.5;" width="53.6348" x="844.521" y="50"/><text fill="#000000" font-family="sans-serif" font-size="14" lengthAdjust="spacing" textLength="39.6348" x="851.521" y="69.9951">ONGs</text></g><g class="participant participant-tail" data-participant="ongs"><rect fill="#E2E2F0" height="30.2969" style="stroke:#181818;stroke-width:0.5;" width="53.6348" x="848.521" y="420.7578"/><rect fill="#E2E2F0" height="30.2969" style="stroke:#181818;stroke-width:0.5;" width="53.6348" x="844.521" y="424.7578"/><text fill="#000000" font-family="sans-serif" font-size="14" lengthAdjust="spacing" textLength="39.6348" x="851.521" y="444.7529">ONGs</text></g><g class="participant participant-head" data-participant="campanhas"><rect fill="#E2E2F0" height="30.2969" style="stroke:#181818;stroke-width:0.5;" width="97.0771" x="916.1558" y="46"/><rect fill="#E2E2F0" height="30.2969" style="stroke:#181818;stroke-width:0.5;" width="97.0771" x="912.1558" y="50"/><text fill="#000000" font-family="sans-serif" font-size="14" lengthAdjust="spacing" textLength="83.0771" x="919.1558" y="69.9951">Campanhas</text></g><g class="participant participant-tail" data-participant="campanhas"><rect fill="#E2E2F0" height="30.2969" style="stroke:#181818;stroke-width:0.5;" width="97.0771" x="916.1558" y="420.7578"/><rect fill="#E2E2F0" height="30.2969" style="stroke:#181818;stroke-width:0.5;" width="97.0771" x="912.1558" y="424.7578"/><text fill="#000000" font-family="sans-serif" font-size="14" lengthAdjust="spacing" textLength="83.0771" x="919.1558" y="444.7529">Campanhas</text></g><g class="participant participant-head" data-participant="perfis"><rect fill="#E2E2F0" height="30.2969" style="stroke:#181818;stroke-width:0.5;" width="52.9238" x="1027.2329" y="46"/><rect fill="#E2E2F0" height="30.2969" style="stroke:#181818;stroke-width:0.5;" width="52.9238" x="1023.2329" y="50"/><text fill="#000000" font-family="sans-serif" font-size="14" lengthAdjust="spacing" textLength="38.9238" x="1030.2329" y="69.9951">Perfis</text></g><g class="participant participant-tail" data-participant="perfis"><rect fill="#E2E2F0" height="30.2969" style="stroke:#181818;stroke-width:0.5;" width="52.9238" x="1027.2329" y="420.7578"/><rect fill="#E2E2F0" height="30.2969" style="stroke:#181818;stroke-width:0.5;" width="52.9238" x="1023.2329" y="424.7578"/><text fill="#000000" font-family="sans-serif" font-size="14" lengthAdjust="spacing" textLength="38.9238" x="1030.2329" y="444.7529">Perfis</text></g><g class="participant participant-head" data-participant="perfil"><text fill="#000000" font-family="sans-serif" font-size="14" lengthAdjust="spacing" textLength="35.5195" x="1090.1567" y="77.9951">Perfil</text><ellipse cx="1110.9165" cy="49" fill="#E2E2F0" rx="12" ry="12" style="stroke:#181818;stroke-width:0.5;"/><line style="stroke:#181818;stroke-width:0.5;" x1="1098.9165" x2="1122.9165" y1="63" y2="63"/></g><g class="participant participant-tail" data-participant="perfil"><text fill="#000000" font-family="sans-serif" font-size="14" lengthAdjust="spacing" textLength="35.5195" x="1090.1567" y="433.7529">Perfil</text><ellipse cx="1110.9165" cy="453.0547" fill="#E2E2F0" rx="12" ry="12" style="stroke:#181818;stroke-width:0.5;"/><line style="stroke:#181818;stroke-width:0.5;" x1="1098.9165" x2="1122.9165" y1="467.0547" y2="467.0547"/></g><g class="participant participant-head" data-participant="ong"><text fill="#000000" font-family="sans-serif" font-size="14" lengthAdjust="spacing" textLength="32.3408" x="1141.6763" y="77.9951">ONG</text><ellipse cx="1160.8467" cy="49" fill="#E2E2F0" rx="12" ry="12" style="stroke:#181818;stroke-width:0.5;"/><line style="stroke:#181818;stroke-width:0.5;" x1="1148.8467" x2="1172.8467" y1="63" y2="63"/></g><g class="participant participant-tail" data-participant="ong"><text fill="#000000" font-family="sans-serif" font-size="14" lengthAdjust="spacing" textLength="32.3408" x="1141.6763" y="433.7529">ONG</text><ellipse cx="1160.8467" cy="453.0547" fill="#E2E2F0" rx="12" ry="12" style="stroke:#181818;stroke-width:0.5;"/><line style="stroke:#181818;stroke-width:0.5;" x1="1148.8467" x2="1172.8467" y1="467.0547" y2="467.0547"/></g><g class="participant participant-head" data-participant="candidato"><text fill="#000000" font-family="sans-serif" font-size="14" lengthAdjust="spacing" textLength="71.5244" x="1190.0171" y="77.9951">Candidato</text><ellipse cx="1228.7793" cy="49" fill="#E2E2F0" rx="12" ry="12" style="stroke:#181818;stroke-width:0.5;"/><line style="stroke:#181818;stroke-width:0.5;" x1="1216.7793" x2="1240.7793" y1="63" y2="63"/></g><g class="participant participant-tail" data-participant="candidato"><text fill="#000000" font-family="sans-serif" font-size="14" lengthAdjust="spacing" textLength="71.5244" x="1190.0171" y="433.7529">Candidato</text><ellipse cx="1228.7793" cy="453.0547" fill="#E2E2F0" rx="12" ry="12" style="stroke:#181818;stroke-width:0.5;"/><line style="stroke:#181818;stroke-width:0.5;" x1="1216.7793" x2="1240.7793" y1="467.0547" y2="467.0547"/></g><g class="participant participant-head" data-participant="recomendacao"><text fill="#000000" font-family="sans-serif" font-size="14" lengthAdjust="spacing" textLength="108.0352" x="1277.5415" y="77.9951">Recomendacao</text><ellipse cx="1334.5591" cy="49" fill="#E2E2F0" rx="12" ry="12" style="stroke:#181818;stroke-width:0.5;"/><line style="stroke:#181818;stroke-width:0.5;" x1="1322.5591" x2="1346.5591" y1="63" y2="63"/></g><g class="participant participant-tail" data-participant="recomendacao"><text fill="#000000" font-family="sans-serif" font-size="14" lengthAdjust="spacing" textLength="108.0352" x="1277.5415" y="433.7529">Recomendacao</text><ellipse cx="1334.5591" cy="453.0547" fill="#E2E2F0" rx="12" ry="12" style="stroke:#181818;stroke-width:0.5;"/><line style="stroke:#181818;stroke-width:0.5;" x1="1322.5591" x2="1346.5591" y1="467.0547" y2="467.0547"/></g><g class="participant participant-head" data-participant="campanha"><text fill="#000000" font-family="sans-serif" font-size="14" lengthAdjust="spacing" textLength="75.7832" x="1401.5767" y="77.9951">Campanha</text><ellipse cx="1442.4683" cy="49" fill="#E2E2F0" rx="12" ry="12" style="stroke:#181818;stroke-width:0.5;"/><line style="stroke:#181818;stroke-width:0.5;" x1="1430.4683" x2="1454.4683" y1="63" y2="63"/></g><g class="participant participant-tail" data-participant="campanha"><text fill="#000000" font-family="sans-serif" font-size="14" lengthAdjust="spacing" textLength="75.7832" x="1401.5767" y="433.7529">Campanha</text><ellipse cx="1442.4683" cy="453.0547" fill="#E2E2F0" rx="12" ry="12" style="stroke:#181818;stroke-width:0.5;"/><line style="stroke:#181818;stroke-width:0.5;" x1="1430.4683" x2="1454.4683" y1="467.0547" y2="467.0547"/></g><g><title>..fronteira..</title><rect fill="#FFFFFF" height="291.3281" style="stroke:#181818;stroke-width:1;" width="10" x="299.4741" y="112.4297"/></g><g><title>..controller..</title><rect fill="#FFFFFF" height="262.1953" style="stroke:#181818;stroke-width:1;" width="10" x="531.8403" y="141.5625"/></g><g><title>Candidatos</title><rect fill="#FFFFFF" height="87.3984" style="stroke:#181818;stroke-width:1;" width="10" x="781.1118" y="170.6953"/></g><g><title>Candidatos</title><rect fill="#FFFFFF" height="29.1328" style="stroke:#181818;stroke-width:1;" width="10" x="781.1118" y="345.4922"/></g><g><title>Candidato</title><rect fill="#FFFFFF" height="29.1328" style="stroke:#181818;stroke-width:1;" width="10" x="1223.7793" y="199.8281"/></g><g><title>Candidato</title><rect fill="#FFFFFF" height="29.1328" style="stroke:#181818;stroke-width:1;" width="10" x="1223.7793" y="287.2266"/></g><g class="message" data-participant-1="representante" data-participant-2="gui"><polygon fill="#181818" points="287.4741,108.4297,297.4741,112.4297,287.4741,116.4297,291.4741,112.4297" style="stroke:#181818;stroke-width:1;"/><line style="stroke:#181818;stroke-width:1;" x1="77.1079" x2="293.4741" y1="112.4297" y2="112.4297"/><text fill="#000000" font-family="sans-serif" font-size="13" lengthAdjust="spacing" textLength="203.3662" x="84.1079" y="107.3638">solicitaAprovacaoCandidato(id)</text></g><g class="message" data-participant-1="gui" data-participant-2="candidatoController"><polygon fill="#181818" points="519.8403,137.5625,529.8403,141.5625,519.8403,145.5625,523.8403,141.5625" style="stroke:#181818;stroke-width:1;"/><line style="stroke:#181818;stroke-width:1;" x1="309.4741" x2="525.8403" y1="141.5625" y2="141.5625"/><text fill="#000000" font-family="sans-serif" font-size="13" lengthAdjust="spacing" textLength="203.3662" x="316.4741" y="136.4966">solicitaAprovacaoCandidato(id)</text></g><g class="message" data-participant-1="candidatoController" data-participant-2="candidatos"><polygon fill="#181818" points="769.1118,166.6953,779.1118,170.6953,769.1118,174.6953,773.1118,170.6953" style="stroke:#181818;stroke-width:1;"/><line style="stroke:#181818;stroke-width:1;" x1="541.8403" x2="775.1118" y1="170.6953" y2="170.6953"/><text fill="#000000" font-family="sans-serif" font-size="13" lengthAdjust="spacing" textLength="126.8008" x="548.8403" y="165.6294">buscaCandidato(id)</text></g><g class="message" data-participant-1="candidatos" data-participant-2="candidato"><polygon fill="#181818" points="1211.7793,195.8281,1221.7793,199.8281,1211.7793,203.8281,1215.7793,199.8281" style="stroke:#181818;stroke-width:1;"/><line style="stroke:#181818;stroke-width:1;" x1="791.1118" x2="1217.7793" y1="199.8281" y2="199.8281"/><text fill="#000000" font-family="sans-serif" font-size="13" lengthAdjust="spacing" textLength="43.3545" x="798.1118" y="194.7622">get(id)</text></g><g class="message" data-participant-1="candidato" data-participant-2="candidatos"><polygon fill="#181818" points="802.1118,224.9609,792.1118,228.9609,802.1118,232.9609,798.1118,228.9609" style="stroke:#181818;stroke-width:1;"/><line style="stroke:#181818;stroke-width:1;stroke-dasharray:2,2;" x1="796.1118" x2="1227.7793" y1="228.9609" y2="228.9609"/><text fill="#000000" font-family="sans-serif" font-size="13" lengthAdjust="spacing" textLength="64.4858" x="808.1118" y="223.895">candidato</text></g><g class="message" data-participant-1="candidatos" data-participant-2="candidatoController"><polygon fill="#181818" points="552.8403,254.0938,542.8403,258.0938,552.8403,262.0938,548.8403,258.0938" style="stroke:#181818;stroke-width:1;"/><line style="stroke:#181818;stroke-width:1;stroke-dasharray:2,2;" x1="546.8403" x2="785.1118" y1="258.0938" y2="258.0938"/><text fill="#000000" font-family="sans-serif" font-size="13" lengthAdjust="spacing" textLength="64.4858" x="558.8403" y="253.0278">candidato</text></g><g class="message" data-participant-1="candidatoController" data-participant-2="candidato"><polygon fill="#181818" points="1211.7793,283.2266,1221.7793,287.2266,1211.7793,291.2266,1215.7793,287.2266" style="stroke:#181818;stroke-width:1;"/><line style="stroke:#181818;stroke-width:1;" x1="541.8403" x2="1217.7793" y1="287.2266" y2="287.2266"/><text fill="#000000" font-family="sans-serif" font-size="13" lengthAdjust="spacing" textLength="167.9844" x="548.8403" y="282.1606">mudaSituacao(candidato)</text></g><g class="message" data-participant-1="candidato" data-participant-2="candidatoController"><polygon fill="#181818" points="552.8403,312.3594,542.8403,316.3594,552.8403,320.3594,548.8403,316.3594" style="stroke:#181818;stroke-width:1;"/><line style="stroke:#181818;stroke-width:1;stroke-dasharray:2,2;" x1="546.8403" x2="1227.7793" y1="316.3594" y2="316.3594"/><text fill="#000000" font-family="sans-serif" font-size="13" lengthAdjust="spacing" textLength="64.4858" x="558.8403" y="311.2935">candidato</text></g><g class="message" data-participant-1="candidatoController" data-participant-2="candidatos"><polygon fill="#181818" points="769.1118,341.4922,779.1118,345.4922,769.1118,349.4922,773.1118,345.4922" style="stroke:#181818;stroke-width:1;"/><line style="stroke:#181818;stroke-width:1;" x1="541.8403" x2="775.1118" y1="345.4922" y2="345.4922"/><text fill="#000000" font-family="sans-serif" font-size="13" lengthAdjust="spacing" textLength="108.6401" x="548.8403" y="340.4263">salva(candidato)</text></g><g class="message" data-participant-1="candidatos" data-participant-2="candidatoController"><polygon fill="#181818" points="552.8403,370.625,542.8403,374.625,552.8403,378.625,548.8403,374.625" style="stroke:#181818;stroke-width:1;"/><line style="stroke:#181818;stroke-width:1;stroke-dasharray:2,2;" x1="546.8403" x2="785.1118" y1="374.625" y2="374.625"/><text fill="#000000" font-family="sans-serif" font-size="13" lengthAdjust="spacing" textLength="64.4858" x="558.8403" y="369.5591">candidato</text></g><g class="message" data-participant-1="candidatoController" data-participant-2="gui"><polygon fill="#181818" points="315.4741,399.7578,305.4741,403.7578,315.4741,407.7578,311.4741,403.7578" style="stroke:#181818;stroke-width:1;"/><line style="stroke:#181818;stroke-width:1;stroke-dasharray:2,2;" x1="309.4741" x2="535.8403" y1="403.7578" y2="403.7578"/><text fill="#000000" font-family="sans-serif" font-size="13" lengthAdjust="spacing" textLength="64.4858" x="321.4741" y="398.6919">candidato</text></g><!--SRC=[hPDBRiCW48Rtd6BaLQeg5x0YIrKMKJTjbQW7c62I8ZbW0OwKstUmOmmERHEfh60Ut_pC07Ad3HHRqHfXXNAed83jywu0j61YAzlhJjLeBb1iFbzx_x6Ji5eTZ2QtD5XLZDFMw0QADQfQrkZqUh0qmlGf_DPE21uECUFzRJFBrkeuMMPfb4SxxgHMDgflqx8s3QCITYJREU7Kelh24N0zfK4VmXpa4D7sMyQeNT9ThgvcSZN1GqN7ci4MzAPoWtyhk3u9wZz7VPtDP8WeWyf4CcF9765P-S6LO7KZkNJuqXfzzfYWOI7h9uPqnpDIF0KpeEMdJRcP2Vx9ykc1bm7q0NxbdaTSqvQmxop7Mto-X0q-lvB359DKAE4eN4BDanDtmeFbJ74-fnOPACkf-wdfjzmSqxAxkrl2gQjn9rtdHxW8zjywpExemUEYsIClmc9pnbZjtGzYClzFaxDYn_-MadAKw4D4Rah-1W00]--></g></svg>