<svg xmlns="http://www.w3.org/2000/svg" xmlns:xlink="http://www.w3.org/1999/xlink" contentStyleType="text/css" data-diagram-type="SEQUENCE" height="599px" preserveAspectRatio="none" style="width:2270px;height:599px;background:#FFFFFF;" version="1.1" viewBox="0 0 2270 599" width="2270px" zoomAndPan="magnify"><defs/><g><g><title>..fronteira..</title><rect fill="#FFFFFF" height="388.5938" style="stroke:#181818;stroke-width:1;" width="10" x="402.0078" y="112.4297"/></g><g><title>..controller..</title><rect fill="#FFFFFF" height="359.4609" style="stroke:#181818;stroke-width:1;" width="10" x="947.6099" y="141.5625"/></g><g><title>Voluntarios</title><rect fill="#FFFFFF" height="158.6641" style="stroke:#181818;stroke-width:1;" width="10" x="1718.5181" y="228.9609"/></g><g><title>Recomendacoes</title><rect fill="#FFFFFF" height="29.1328" style="stroke:#181818;stroke-width:1;" width="10" x="2022.5874" y="170.6953"/></g><g><title>Voluntario</title><rect fill="#FFFFFF" height="29.1328" style="stroke:#181818;stroke-width:1;" width="10" x="2225.8223" y="258.0938"/></g><g><title>Representante R.S</title><rect fill="#000000" fill-opacity="0.00000" height="437.7266" width="8" x="73.1079" y="81.2969"/><line style="stroke:#181818;stroke-width:0.5;stroke-dasharray:5,5;" x1="77" x2="77" y1="81.2969" y2="519.0234"/></g><g><title>..fronteira..</title><rect fill="#000000" fill-opacity="0.00000" height="437.7266" width="8" x="403.0078" y="81.2969"/><line style="stroke:#181818;stroke-width:0.5;stroke-dasharray:5,5;" x1="406.2173" x2="406.2173" y1="81.2969" y2="519.0234"/></g><g><title>..controller..</title><rect fill="#000000" fill-opacity="0.00000" height="437.7266" width="8" x="522.1826" y="81.2969"/><line style="stroke:#181818;stroke-width:0.5;stroke-dasharray:5,5;" x1="525.7983" x2="525.7983" y1="81.2969" y2="519.0234"/></g><g><title>..controller..</title><rect fill="#000000" fill-opacity="0.00000" height="437.7266" width="8" x="672.9155" y="81.2969"/><line style="stroke:#181818;stroke-width:0.5;stroke-dasharray:5,5;" x1="676.5669" x2="676.5669" y1="81.2969" y2="519.0234"/></g><g><title>..controller..</title><rect fill="#000000" fill-opacity="0.00000" height="437.7266" width="8" x="810.021" y="81.2969"/><line style="stroke:#181818;stroke-width:0.5;stroke-dasharray:5,5;" x1="813.2642" x2="813.2642" y1="81.2969" y2="519.0234"/></g><g><title>..controller..</title><rect fill="#000000" fill-opacity="0.00000" height="437.7266" width="8" x="948.6099" y="81.2969"/><line style="stroke:#181818;stroke-width:0.5;stroke-dasharray:5,5;" x1="951.7778" x2="951.7778" y1="81.2969" y2="519.0234"/></g><g><title>PedidoAfiliacao</title><rect fill="#000000" fill-opacity="0.00000" height="437.7266" width="8" x="1491.584" y="81.2969"/><line style="stroke:#181818;stroke-width:0.5;stroke-dasharray:5,5;" x1="1495.144" x2="1495.144" y1="81.2969" y2="519.0234"/></g><g><title>Candidatos</title><rect fill="#000000" fill-opacity="0.00000" height="437.7266" width="8" x="1612.4331" y="81.2969"/><line style="stroke:#181818;stroke-width:0.5;stroke-dasharray:5,5;" x1="1616.0239" x2="1616.0239" y1="81.2969" y2="519.0234"/></g><g><title>Voluntarios</title><rect fill="#000000" fill-opacity="0.00000" height="437.7266" width="8" x="1719.5181" y="81.2969"/><line style="stroke:#181818;stroke-width:0.5;stroke-dasharray:5,5;" x1="1722.8423" x2="1722.8423" y1="81.2969" y2="519.0234"/></g><g><title>ONGs</title><rect fill="#000000" fill-opacity="0.00000" height="437.7266" width="8" x="1807.0112" y="81.2969"/><line style="stroke:#181818;stroke-width:0.5;stroke-dasharray:5,5;" x1="1810.1938" x2="1810.1938" y1="81.2969" y2="519.0234"/></g><g><title>Campanhas</title><rect fill="#000000" fill-opacity="0.00000" height="437.7266" width="8" x="1896.3672" y="81.2969"/><line style="stroke:#181818;stroke-width:0.5;stroke-dasharray:5,5;" x1="1899.8286" x2="1899.8286" y1="81.2969" y2="519.0234"/></g><g><title>Recomendacoes</title><rect fill="#000000" fill-opacity="0.00000" height="437.7266" width="8" x="2023.5874" y="81.2969"/><line style="stroke:#181818;stroke-width:0.5;stroke-dasharray:5,5;" x1="2026.9058" x2="2026.9058" y1="81.2969" y2="519.0234"/></g><g><title>Candidato</title><rect fill="#000000" fill-opacity="0.00000" height="437.7266" width="8" x="2139.0313" y="81.2969"/><line style="stroke:#181818;stroke-width:0.5;stroke-dasharray:5,5;" x1="2142.269" x2="2142.269" y1="81.2969" y2="519.0234"/></g><g><title>Voluntario</title><rect fill="#000000" fill-opacity="0.00000" height="437.7266" width="8" x="2226.8223" y="81.2969"/><line style="stroke:#181818;stroke-width:0.5;stroke-dasharray:5,5;" x1="2230.7935" x2="2230.7935" y1="81.2969" y2="519.0234"/></g><g class="participant participant-head" data-participant="representante"><text fill="#000000" font-family="sans-serif" font-size="14" lengthAdjust="spacing" textLength="138.2158" x="5" y="77.9951">Representante R+S</text><ellipse cx="77.1079" cy="13.5" fill="#E2E2F0" rx="8" ry="8" style="stroke:#181818;stroke-width:0.5;"/><path d="M77.1079,21.5 L77.1079,48.5 M64.1079,29.5 L90.1079,29.5 M77.1079,48.5 L64.1079,63.5 M77.1079,48.5 L90.1079,63.5" fill="none" style="stroke:#181818;stroke-width:0.5;"/></g><g class="participant participant-tail" data-participant="representante"><text fill="#000000" font-family="sans-serif" font-size="14" lengthAdjust="spacing" textLength="138.2158" x="5" y="531.0186">Representante R+S</text><ellipse cx="77.1079" cy="542.8203" fill="#E2E2F0" rx="8" ry="8" style="stroke:#181818;stroke-width:0.5;"/><path d="M77.1079,550.8203 L77.1079,577.8203 M64.1079,558.8203 L90.1079,558.8203 M77.1079,577.8203 L64.1079,592.8203 M77.1079,577.8203 L90.1079,592.8203" fill="none" style="stroke:#181818;stroke-width:0.5;"/></g><g class="participant participant-head" data-participant="gui"><text fill="#000000" font-family="sans-serif" font-size="14" font-style="italic" lengthAdjust="spacing" textLength="77.5811" x="365.2173" y="61.6982">&#171;fronteira&#187;</text><text fill="#000000" font-family="sans-serif" font-size="14" lengthAdjust="spacing" textLength="25.2246" x="391.3955" y="77.9951">GUI</text><path d="M386.5078,20.7031 L386.5078,44.7031 M386.5078,32.7031 L403.5078,32.7031" fill="none" style="stroke:#181818;stroke-width:0.5;"/><ellipse cx="415.5078" cy="32.7031" fill="#E2E2F0" rx="12" ry="12" style="stroke:#181818;stroke-width:0.5;"/></g><g class="participant participant-tail" data-participant="gui"><text fill="#000000" font-family="sans-serif" font-size="14" font-style="italic" lengthAdjust="spacing" textLength="77.5811" x="365.2173" y="531.0186">&#171;fronteira&#187;</text><text fill="#000000" font-family="sans-serif" font-size="14" lengthAdjust="spacing" textLength="25.2246" x="391.3955" y="547.3154">GUI</text><path d="M386.5078,554.6172 L386.5078,578.6172 M386.5078,566.6172 L403.5078,566.6172" fill="none" style="stroke:#181818;stroke-width:0.5;"/><ellipse cx="415.5078" cy="566.6172" fill="#E2E2F0" rx="12" ry="12" style="stroke:#181818;stroke-width:0.5;"/></g><g class="participant participant-head" data-participant="afiliacaoController"><text fill="#000000" font-family="sans-serif" font-size="14" font-style="italic" lengthAdjust="spacing" textLength="84.2256" x="481.0698" y="61.6982">&#171;controller&#187;</text><text fill="#000000" font-family="sans-serif" font-size="14" lengthAdjust="spacing" textLength="128.7686" x="458.7983" y="77.9951">AfiliacaoController</text><ellipse cx="526.1826" cy="32.7031" fill="#E2E2F0" rx="12" ry="12" style="stroke:#181818;stroke-width:0.5;"/><polygon fill="#181818" points="522.1826,20.7031,528.1826,15.7031,526.1826,20.7031,528.1826,25.7031,522.1826,20.7031" style="stroke:#181818;stroke-width:1;"/></g><g class="participant participant-tail" data-participant="afiliacaoController"><text fill="#000000" font-family="sans-serif" font-size="14" font-style="italic" lengthAdjust="spacing" textLength="84.2256" x="481.0698" y="531.0186">&#171;controller&#187;</text><text fill="#000000" font-family="sans-serif" font-size="14" lengthAdjust="spacing" textLength="128.7686" x="458.7983" y="547.3154">AfiliacaoController</text><ellipse cx="526.1826" cy="566.6172" fill="#E2E2F0" rx="12" ry="12" style="stroke:#181818;stroke-width:0.5;"/><polygon fill="#181818" points="522.1826,554.6172,528.1826,549.6172,526.1826,554.6172,528.1826,559.6172,522.1826,554.6172" style="stroke:#181818;stroke-width:1;"/></g><g class="participant participant-head" data-participant="candidatoController"><text fill="#000000" font-family="sans-serif" font-size="14" font-style="italic" lengthAdjust="spacing" textLength="84.2256" x="631.8027" y="61.6982">&#171;controller&#187;</text><text fill="#000000" font-family="sans-serif" font-size="14" lengthAdjust="spacing" textLength="140.6973" x="603.5669" y="77.9951">CandidatoController</text><ellipse cx="676.9155" cy="32.7031" fill="#E2E2F0" rx="12" ry="12" style="stroke:#181818;stroke-width:0.5;"/><polygon fill="#181818" points="672.9155,20.7031,678.9155,15.7031,676.9155,20.7031,678.9155,25.7031,672.9155,20.7031" style="stroke:#181818;stroke-width:1;"/></g><g class="participant participant-tail" data-participant="candidatoController"><text fill="#000000" font-family="sans-serif" font-size="14" font-style="italic" lengthAdjust="spacing" textLength="84.2256" x="631.8027" y="531.0186">&#171;controller&#187;</text><text fill="#000000" font-family="sans-serif" font-size="14" lengthAdjust="spacing" textLength="140.6973" x="603.5669" y="547.3154">CandidatoController</text><ellipse cx="676.9155" cy="566.6172" fill="#E2E2F0" rx="12" ry="12" style="stroke:#181818;stroke-width:0.5;"/><polygon fill="#181818" points="672.9155,554.6172,678.9155,549.6172,676.9155,554.6172,678.9155,559.6172,672.9155,554.6172" style="stroke:#181818;stroke-width:1;"/></g><g class="participant participant-head" data-participant="ongController"><text fill="#000000" font-family="sans-serif" font-size="14" font-style="italic" lengthAdjust="spacing" textLength="84.2256" x="768.9082" y="61.6982">&#171;controller&#187;</text><text fill="#000000" font-family="sans-serif" font-size="14" lengthAdjust="spacing" textLength="101.5137" x="760.2642" y="77.9951">ONGController</text><ellipse cx="814.021" cy="32.7031" fill="#E2E2F0" rx="12" ry="12" style="stroke:#181818;stroke-width:0.5;"/><polygon fill="#181818" points="810.021,20.7031,816.021,15.7031,814.021,20.7031,816.021,25.7031,810.021,20.7031" style="stroke:#181818;stroke-width:1;"/></g><g class="participant participant-tail" data-participant="ongController"><text fill="#000000" font-family="sans-serif" font-size="14" font-style="italic" lengthAdjust="spacing" textLength="84.2256" x="768.9082" y="531.0186">&#171;controller&#187;</text><text fill="#000000" font-family="sans-serif" font-size="14" lengthAdjust="spacing" textLength="101.5137" x="760.2642" y="547.3154">ONGController</text><ellipse cx="814.021" cy="566.6172" fill="#E2E2F0" rx="12" ry="12" style="stroke:#181818;stroke-width:0.5;"/><polygon fill="#181818" points="810.021,554.6172,816.021,549.6172,814.021,554.6172,816.021,559.6172,810.021,554.6172" style="stroke:#181818;stroke-width:1;"/></g><g class="participant participant-head" data-participant="aprovacaoController"><text fill="#000000" font-family="sans-serif" font-size="14" font-style="italic" lengthAdjust="spacing" textLength="84.2256" x="907.4971" y="61.6982">&#171;controller&#187;</text><text fill="#000000" font-family="sans-serif" font-size="14" lengthAdjust="spacing" textLength="143.6641" x="877.7778" y="77.9951">AprovacaoController</text><ellipse cx="952.6099" cy="32.7031" fill="#E2E2F0" rx="12" ry="12" style="stroke:#181818;stroke-width:0.5;"/><polygon fill="#181818" points="948.6099,20.7031,954.6099,15.7031,952.6099,20.7031,954.6099,25.7031,948.6099,20.7031" style="stroke:#181818;stroke-width:1;"/></g><g class="participant participant-tail" data-participant="aprovacaoController"><text fill="#000000" font-family="sans-serif" font-size="14" font-style="italic" lengthAdjust="spacing" textLength="84.2256" x="907.4971" y="531.0186">&#171;controller&#187;</text><text fill="#000000" font-family="sans-serif" font-size="14" lengthAdjust="spacing" textLength="143.6641" x="877.7778" y="547.3154">AprovacaoController</text><ellipse cx="952.6099" cy="566.6172" fill="#E2E2F0" rx="12" ry="12" style="stroke:#181818;stroke-width:0.5;"/><polygon fill="#181818" points="948.6099,554.6172,954.6099,549.6172,952.6099,554.6172,954.6099,559.6172,948.6099,554.6172" style="stroke:#181818;stroke-width:1;"/></g><g class="participant participant-head" data-participant="pedidoAfiliacao"><rect fill="#E2E2F0" height="30.2969" style="stroke:#181818;stroke-width:0.5;" width="120.8799" x="1437.144" y="46"/><rect fill="#E2E2F0" height="30.2969" style="stroke:#181818;stroke-width:0.5;" width="120.8799" x="1433.144" y="50"/><text fill="#000000" font-family="sans-serif" font-size="14" lengthAdjust="spacing" textLength="106.8799" x="1440.144" y="69.9951">PedidoAfiliacao</text></g><g class="participant participant-tail" data-participant="pedidoAfiliacao"><rect fill="#E2E2F0" height="30.2969" style="stroke:#181818;stroke-width:0.5;" width="120.8799" x="1437.144" y="518.0234"/><rect fill="#E2E2F0" height="30.2969" style="stroke:#181818;stroke-width:0.5;" width="120.8799" x="1433.144" y="522.0234"/><text fill="#000000" font-family="sans-serif" font-size="14" lengthAdjust="spacing" textLength="106.8799" x="1440.144" y="542.0186">PedidoAfiliacao</text></g><g class="participant participant-head" data-participant="candidatos"><rect fill="#E2E2F0" height="30.2969" style="stroke:#181818;stroke-width:0.5;" width="92.8184" x="1572.0239" y="46"/><rect fill="#E2E2F0" height="30.2969" style="stroke:#181818;stroke-width:0.5;" width="92.8184" x="1568.0239" y="50"/><text fill="#000000" font-family="sans-serif" font-size="14" lengthAdjust="spacing" textLength="78.8184" x="1575.0239" y="69.9951">Candidatos</text></g><g class="participant participant-tail" data-participant="candidatos"><rect fill="#E2E2F0" height="30.2969" style="stroke:#181818;stroke-width:0.5;" width="92.8184" x="1572.0239" y="518.0234"/><rect fill="#E2E2F0" height="30.2969" style="stroke:#181818;stroke-width:0.5;" width="92.8184" x="1568.0239" y="522.0234"/><text fill="#000000" font-family="sans-serif" font-size="14" lengthAdjust="spacing" textLength="78.8184" x="1575.0239" y="542.0186">Candidatos</text></g><g class="participant participant-head" data-participant="voluntarios"><rect fill="#E2E2F0" height="30.2969" style="stroke:#181818;stroke-width:0.5;" width="93.3516" x="1678.8423" y="46"/><rect fill="#E2E2F0" height="30.2969" style="stroke:#181818;stroke-width:0.5;" width="93.3516" x="1674.8423" y="50"/><text fill="#000000" font-family="sans-serif" font-size="14" lengthAdjust="spacing" textLength="79.3516" x="1681.8423" y="69.9951">Voluntarios</text></g><g class="participant participant-tail" data-participant="voluntarios"><rect fill="#E2E2F0" height="30.2969" style="stroke:#181818;stroke-width:0.5;" width="93.3516" x="1678.8423" y="518.0234"/><rect fill="#E2E2F0" height="30.2969" style="stroke:#181818;stroke-width:0.5;" width="93.3516" x="1674.8423" y="522.0234"/><text fill="#000000" font-family="sans-serif" font-size="14" lengthAdjust="spacing" textLength="79.3516" x="1681.8423" y="542.0186">Voluntarios</text></g><g class="participant participant-head" data-participant="ongs"><rect fill="#E2E2F0" height="30.2969" style="stroke:#181818;stroke-width:0.5;" width="53.6348" x="1786.1938" y="46"/><rect fill="#E2E2F0" height="30.2969" style="stroke:#181818;stroke-width:0.5;" width="53.6348" x="1782.1938" y="50"/><text fill="#000000" font-family="sans-serif" font-size="14" lengthAdjust="spacing" textLength="39.6348" x="1789.1938" y="69.9951">ONGs</text></g><g class="participant participant-tail" data-participant="ongs"><rect fill="#E2E2F0" height="30.2969" style="stroke:#181818;stroke-width:0.5;" width="53.6348" x="1786.1938" y="518.0234"/><rect fill="#E2E2F0" height="30.2969" style="stroke:#181818;stroke-width:0.5;" width="53.6348" x="1782.1938" y="522.0234"/><text fill="#000000" font-family="sans-serif" font-size="14" lengthAdjust="spacing" textLength="39.6348" x="1789.1938" y="542.0186">ONGs</text></g><g class="participant participant-head" data-participant="campanhas"><rect fill="#E2E2F0" height="30.2969" style="stroke:#181818;stroke-width:0.5;" width="97.0771" x="1853.8286" y="46"/><rect fill="#E2E2F0" height="30.2969" style="stroke:#181818;stroke-width:0.5;" width="97.0771" x="1849.8286" y="50"/><text fill="#000000" font-family="sans-serif" font-size="14" lengthAdjust="spacing" textLength="83.0771" x="1856.8286" y="69.9951">Campanhas</text></g><g class="participant participant-tail" data-participant="campanhas"><rect fill="#E2E2F0" height="30.2969" style="stroke:#181818;stroke-width:0.5;" width="97.0771" x="1853.8286" y="518.0234"/><rect fill="#E2E2F0" height="30.2969" style="stroke:#181818;stroke-width:0.5;" width="97.0771" x="1849.8286" y="522.0234"/><text fill="#000000" font-family="sans-serif" font-size="14" lengthAdjust="spacing" textLength="83.0771" x="1856.8286" y="542.0186">Campanhas</text></g><g class="participant participant-head" data-participant="recomendacoes"><rect fill="#E2E2F0" height="30.2969" style="stroke:#181818;stroke-width:0.5;" width="129.3633" x="1964.9058" y="46"/><rect fill="#E2E2F0" height="30.2969" style="stroke:#181818;stroke-width:0.5;" width="129.3633" x="1960.9058" y="50"/><text fill="#000000" font-family="sans-serif" font-size="14" lengthAdjust="spacing" textLength="115.3633" x="1967.9058" y="69.9951">Recomendacoes</text></g><g class="participant participant-tail" data-participant="recomendacoes"><rect fill="#E2E2F0" height="30.2969" style="stroke:#181818;stroke-width:0.5;" width="129.3633" x="1964.9058" y="518.0234"/><rect fill="#E2E2F0" height="30.2969" style="stroke:#181818;stroke-width:0.5;" width="129.3633" x="1960.9058" y="522.0234"/><text fill="#000000" font-family="sans-serif" font-size="14" lengthAdjust="spacing" textLength="115.3633" x="1967.9058" y="542.0186">Recomendacoes</text></g><g class="participant participant-head" data-participant="candidato"><text fill="#000000" font-family="sans-serif" font-size="14" lengthAdjust="spacing" textLength="71.5244" x="2104.269" y="77.9951">Candidato</text><ellipse cx="2143.0313" cy="49" fill="#E2E2F0" rx="12" ry="12" style="stroke:#181818;stroke-width:0.5;"/><line style="stroke:#181818;stroke-width:0.5;" x1="2131.0313" x2="2155.0313" y1="63" y2="63"/></g><g class="participant participant-tail" data-participant="candidato"><text fill="#000000" font-family="sans-serif" font-size="14" lengthAdjust="spacing" textLength="71.5244" x="2104.269" y="531.0186">Candidato</text><ellipse cx="2143.0313" cy="550.3203" fill="#E2E2F0" rx="12" ry="12" style="stroke:#181818;stroke-width:0.5;"/><line style="stroke:#181818;stroke-width:0.5;" x1="2131.0313" x2="2155.0313" y1="564.3203" y2="564.3203"/></g><g class="participant participant-head" data-participant="voluntario"><text fill="#000000" font-family="sans-serif" font-size="14" lengthAdjust="spacing" textLength="72.0576" x="2191.7935" y="77.9951">Voluntario</text><ellipse cx="2230.8223" cy="49" fill="#E2E2F0" rx="12" ry="12" style="stroke:#181818;stroke-width:0.5;"/><line style="stroke:#181818;stroke-width:0.5;" x1="2218.8223" x2="2242.8223" y1="63" y2="63"/></g><g class="participant participant-tail" data-participant="voluntario"><text fill="#000000" font-family="sans-serif" font-size="14" lengthAdjust="spacing" textLength="72.0576" x="2191.7935" y="531.0186">Voluntario</text><ellipse cx="2230.8223" cy="550.3203" fill="#E2E2F0" rx="12" ry="12" style="stroke:#181818;stroke-width:0.5;"/><line style="stroke:#181818;stroke-width:0.5;" x1="2218.8223" x2="2242.8223" y1="564.3203" y2="564.3203"/></g><g><title>..fronteira..</title><rect fill="#FFFFFF" height="388.5938" style="stroke:#181818;stroke-width:1;" width="10" x="402.0078" y="112.4297"/></g><g><title>..controller..</title><rect fill="#FFFFFF" height="359.4609" style="stroke:#181818;stroke-width:1;" width="10" x="947.6099" y="141.5625"/></g><g><title>Voluntarios</title><rect fill="#FFFFFF" height="158.6641" style="stroke:#181818;stroke-width:1;" width="10" x="1718.5181" y="228.9609"/></g><g><title>Recomendacoes</title><rect fill="#FFFFFF" height="29.1328" style="stroke:#181818;stroke-width:1;" width="10" x="2022.5874" y="170.6953"/></g><g><title>Voluntario</title><rect fill="#FFFFFF" height="29.1328" style="stroke:#181818;stroke-width:1;" width="10" x="2225.8223" y="258.0938"/></g><g class="message" data-participant-1="representante" data-participant-2="gui"><polygon fill="#181818" points="390.0078,108.4297,400.0078,112.4297,390.0078,116.4297,394.0078,112.4297" style="stroke:#181818;stroke-width:1;"/><line style="stroke:#181818;stroke-width:1;" x1="77.1079" x2="396.0078" y1="112.4297" y2="112.4297"/><text fill="#000000" font-family="sans-serif" font-size="13" lengthAdjust="spacing" textLength="305.8999" x="84.1079" y="107.3638">aprovaVoluntario(idVoluntario, recomendacao)</text></g><g class="message" data-participant-1="gui" data-participant-2="aprovacaoController"><polygon fill="#181818" points="935.6099,137.5625,945.6099,141.5625,935.6099,145.5625,939.6099,141.5625" style="stroke:#181818;stroke-width:1;"/><line style="stroke:#181818;stroke-width:1;" x1="412.0078" x2="941.6099" y1="141.5625" y2="141.5625"/><text fill="#000000" font-family="sans-serif" font-size="13" lengthAdjust="spacing" textLength="305.8999" x="419.0078" y="136.4966">aprovaVoluntario(idVoluntario, recomendacao)</text></g><g class="message" data-participant-1="aprovacaoController" data-participant-2="recomendacoes"><polygon fill="#181818" points="2010.5874,166.6953,2020.5874,170.6953,2010.5874,174.6953,2014.5874,170.6953" style="stroke:#181818;stroke-width:1;"/><line style="stroke:#181818;stroke-width:1;" x1="957.6099" x2="2016.5874" y1="170.6953" y2="170.6953"/><text fill="#000000" font-family="sans-serif" font-size="13" lengthAdjust="spacing" textLength="241.103" x="964.6099" y="165.6294">salvaRecomendacao(recomendacao)</text></g><g class="message" data-participant-1="recomendacoes" data-participant-2="aprovacaoController"><polygon fill="#181818" points="968.6099,195.8281,958.6099,199.8281,968.6099,203.8281,964.6099,199.8281" style="stroke:#181818;stroke-width:1;"/><line style="stroke:#181818;stroke-width:1;stroke-dasharray:2,2;" x1="962.6099" x2="2026.5874" y1="199.8281" y2="199.8281"/><text fill="#000000" font-family="sans-serif" font-size="13" lengthAdjust="spacing" textLength="96.6304" x="974.6099" y="194.7622">recomendacao</text></g><g class="message" data-participant-1="aprovacaoController" data-participant-2="voluntarios"><polygon fill="#181818" points="1706.5181,224.9609,1716.5181,228.9609,1706.5181,232.9609,1710.5181,228.9609" style="stroke:#181818;stroke-width:1;"/><line style="stroke:#181818;stroke-width:1;" x1="957.6099" x2="1712.5181" y1="228.9609" y2="228.9609"/><text fill="#000000" font-family="sans-serif" font-size="13" lengthAdjust="spacing" textLength="206.0767" x="964.6099" y="223.895">procuraVoluntario(idVoluntario)</text></g><g class="message" data-participant-1="voluntarios" data-participant-2="voluntario"><polygon fill="#181818" points="2213.8223,254.0938,2223.8223,258.0938,2213.8223,262.0938,2217.8223,258.0938" style="stroke:#181818;stroke-width:1;"/><line style="stroke:#181818;stroke-width:1;" x1="1728.5181" x2="2219.8223" y1="258.0938" y2="258.0938"/><text fill="#000000" font-family="sans-serif" font-size="13" lengthAdjust="spacing" textLength="110.2651" x="1735.5181" y="253.0278">get(idVoluntario)</text></g><g class="message" data-participant-1="voluntario" data-participant-2="voluntarios"><polygon fill="#181818" points="1739.5181,283.2266,1729.5181,287.2266,1739.5181,291.2266,1735.5181,287.2266" style="stroke:#181818;stroke-width:1;"/><line style="stroke:#181818;stroke-width:1;stroke-dasharray:2,2;" x1="1733.5181" x2="2229.8223" y1="287.2266" y2="287.2266"/><text fill="#000000" font-family="sans-serif" font-size="13" lengthAdjust="spacing" textLength="65.7109" x="1745.5181" y="282.1606">voluntario</text></g><g class="message" data-participant-1="voluntarios" data-participant-2="aprovacaoController"><polygon fill="#181818" points="968.6099,312.3594,958.6099,316.3594,968.6099,320.3594,964.6099,316.3594" style="stroke:#181818;stroke-width:1;"/><line style="stroke:#181818;stroke-width:1;stroke-dasharray:2,2;" x1="962.6099" x2="1717.5181" y1="316.3594" y2="316.3594"/><text fill="#000000" font-family="sans-serif" font-size="13" lengthAdjust="spacing" textLength="65.7109" x="974.6099" y="311.2935">voluntario</text></g><g class="message" data-participant-1="aprovacaoController" data-participant-2="aprovacaoController"><line style="stroke:#181818;stroke-width:1;" x1="957.6099" x2="999.6099" y1="345.4922" y2="345.4922"/><line style="stroke:#181818;stroke-width:1;" x1="999.6099" x2="999.6099" y1="345.4922" y2="358.4922"/><line style="stroke:#181818;stroke-width:1;" x1="958.6099" x2="999.6099" y1="358.4922" y2="358.4922"/><polygon fill="#181818" points="968.6099,354.4922,958.6099,358.4922,968.6099,362.4922,964.6099,358.4922" style="stroke:#181818;stroke-width:1;"/><text fill="#000000" font-family="sans-serif" font-size="13" lengthAdjust="spacing" textLength="248.3203" x="964.6099" y="340.4263">geraLoginSenhaVoluntario(voluntario)</text></g><g class="message" data-participant-1="aprovacaoController" data-participant-2="voluntarios"><polygon fill="#181818" points="1711.5181,383.625,1721.5181,387.625,1711.5181,391.625,1715.5181,387.625" style="stroke:#181818;stroke-width:1;"/><line style="stroke:#181818;stroke-width:1;" x1="957.6099" x2="1717.5181" y1="387.625" y2="387.625"/><text fill="#000000" font-family="sans-serif" font-size="13" lengthAdjust="spacing" textLength="176.7759" x="964.6099" y="382.5591">salvaVoluntario(voluntario)</text></g><g class="message" data-participant-1="aprovacaoController" data-participant-2="aprovacaoController"><line style="stroke:#181818;stroke-width:1;" x1="957.6099" x2="999.6099" y1="416.7578" y2="416.7578"/><line style="stroke:#181818;stroke-width:1;" x1="999.6099" x2="999.6099" y1="416.7578" y2="429.7578"/><line style="stroke:#181818;stroke-width:1;" x1="958.6099" x2="999.6099" y1="429.7578" y2="429.7578"/><polygon fill="#181818" points="968.6099,425.7578,958.6099,429.7578,968.6099,433.7578,964.6099,429.7578" style="stroke:#181818;stroke-width:1;"/><text fill="#000000" font-family="sans-serif" font-size="13" lengthAdjust="spacing" textLength="503.3374" x="964.6099" y="411.6919">enviaEmailLoginInstrucao(voluntarioEmail, voluntarioLogin, voluntarioSenha)</text></g><g class="message" data-participant-1="aprovacaoController" data-participant-2="aprovacaoController"><line style="stroke:#181818;stroke-width:1;" x1="957.6099" x2="999.6099" y1="458.8906" y2="458.8906"/><line style="stroke:#181818;stroke-width:1;" x1="999.6099" x2="999.6099" y1="458.8906" y2="471.8906"/><line style="stroke:#181818;stroke-width:1;" x1="958.6099" x2="999.6099" y1="471.8906" y2="471.8906"/><polygon fill="#181818" points="968.6099,467.8906,958.6099,471.8906,968.6099,475.8906,964.6099,471.8906" style="stroke:#181818;stroke-width:1;"/><text fill="#000000" font-family="sans-serif" font-size="13" lengthAdjust="spacing" textLength="508.9741" x="964.6099" y="453.8247">enviaEmailResultadoAfiliacaoRecomendacao(voluntarioEmail, recomendacao)</text></g><g class="message" data-participant-1="aprovacaoController" data-participant-2="gui"><polygon fill="#181818" points="418.0078,497.0234,408.0078,501.0234,418.0078,505.0234,414.0078,501.0234" style="stroke:#181818;stroke-width:1;"/><line style="stroke:#181818;stroke-width:1;stroke-dasharray:2,2;" x1="412.0078" x2="951.6099" y1="501.0234" y2="501.0234"/><text fill="#000000" font-family="sans-serif" font-size="13" lengthAdjust="spacing" textLength="70.7637" x="424.0078" y="495.9575">"successo"</text></g><!--SRC=[fLJRIiGm47tFLuG-AUeFBB8W8YA8IaNVnpJMG3TPahJWtpkDk-rCs-nwoLCobpDpJYO15PsNHQctNWTj8zYePNdsN4W8qbEhU7EjhS1_okBsvIxvwzR8oyjtxz1jFApNGk7MkqOML- -cCQ30NNzR6krJ2ipj2A660yMu1bkP2k8KGytjMOp7Xzj9jhFrQCcbNMszwvRQdzjd4BXHqJWRPF6aiL4tQ94Wjjp64mRAWJCDFEpLDItUYZUxk6uyyq2a7_QimxJKPWls0_QLTYSUL6hbDXglNJaTTZD1B09dmyHFqZTlU_2F3K_w5O8DcRnOzrErsWazffsOQZoSaox0dGh0TZl0R4mL4bS_c8YqS5k_HEx11lG5k1IGWkQ-lWEcrae6Q3eeIOMJUJbMagijoM8UUP5ZI_67_4eVAP1XGyPi9J54jJudv08NEgIK2R7p8YjPwvX1pI0pFmTF6Z46cJIYJYQ2TPnJVY7tcBwBEBNsSEzgOvyrlayYTxSazWykBWtX4HnnK8mW_iH4syx0pGPCa_ZSsH1zsp-24Jbvpqcf54aDIONJVzOlTMYR2EGRPezorWz_fOUBxt-m8hHAwH1S8IP2BlqZn8tPNm00]--></g></svg>