<svg xmlns="http://www.w3.org/2000/svg" xmlns:xlink="http://www.w3.org/1999/xlink" contentStyleType="text/css" data-diagram-type="SEQUENCE" height="599px" preserveAspectRatio="none" style="width:1760px;height:599px;background:#FFFFFF;" version="1.1" viewBox="0 0 1760 599" width="1760px" zoomAndPan="magnify"><defs/><g><g><title>..fronteira..</title><rect fill="#FFFFFF" height="388.5938" style="stroke:#181818;stroke-width:1;" width="10" x="402.0078" y="112.4297"/></g><g><title>..controller..</title><rect fill="#FFFFFF" height="359.4609" style="stroke:#181818;stroke-width:1;" width="10" x="736.9077" y="141.5625"/></g><g><title>Voluntarios</title><rect fill="#FFFFFF" height="158.6641" style="stroke:#181818;stroke-width:1;" width="10" x="1386.9668" y="228.9609"/></g><g><title>Recomendacoes</title><rect fill="#FFFFFF" height="29.1328" style="stroke:#181818;stroke-width:1;" width="10" x="1512.3242" y="170.6953"/></g><g><title>Voluntario</title><rect fill="#FFFFFF" height="29.1328" style="stroke:#181818;stroke-width:1;" width="10" x="1715.5591" y="258.0938"/></g><g><title>Representante R.S</title><rect fill="#000000" fill-opacity="0.00000" height="437.7266" width="8" x="73.1079" y="81.2969"/><line style="stroke:#181818;stroke-width:0.5;stroke-dasharray:5,5;" x1="77" x2="77" y1="81.2969" y2="519.0234"/></g><g><title>..fronteira..</title><rect fill="#000000" fill-opacity="0.00000" height="437.7266" width="8" x="403.0078" y="81.2969"/><line style="stroke:#181818;stroke-width:0.5;stroke-dasharray:5,5;" x1="406.2173" x2="406.2173" y1="81.2969" y2="519.0234"/></g><g><title>..controller..</title><rect fill="#000000" fill-opacity="0.00000" height="437.7266" width="8" x="737.9077" y="81.2969"/><line style="stroke:#181818;stroke-width:0.5;stroke-dasharray:5,5;" x1="741.0757" x2="741.0757" y1="81.2969" y2="519.0234"/></g><g><title>Candidatos</title><rect fill="#000000" fill-opacity="0.00000" height="437.7266" width="8" x="1280.8818" y="81.2969"/><line style="stroke:#181818;stroke-width:0.5;stroke-dasharray:5,5;" x1="1284.4727" x2="1284.4727" y1="81.2969" y2="519.0234"/></g><g><title>Voluntarios</title><rect fill="#000000" fill-opacity="0.00000" height="437.7266" width="8" x="1387.9668" y="81.2969"/><line style="stroke:#181818;stroke-width:0.5;stroke-dasharray:5,5;" x1="1391.291" x2="1391.291" y1="81.2969" y2="519.0234"/></g><g><title>Recomendacoes</title><rect fill="#000000" fill-opacity="0.00000" height="437.7266" width="8" x="1513.3242" y="81.2969"/><line style="stroke:#181818;stroke-width:0.5;stroke-dasharray:5,5;" x1="1516.6426" x2="1516.6426" y1="81.2969" y2="519.0234"/></g><g><title>Candidato</title><rect fill="#000000" fill-opacity="0.00000" height="437.7266" width="8" x="1628.7681" y="81.2969"/><line style="stroke:#181818;stroke-width:0.5;stroke-dasharray:5,5;" x1="1632.0059" x2="1632.0059" y1="81.2969" y2="519.0234"/></g><g><title>Voluntario</title><rect fill="#000000" fill-opacity="0.00000" height="437.7266" width="8" x="1716.5591" y="81.2969"/><line style="stroke:#181818;stroke-width:0.5;stroke-dasharray:5,5;" x1="1720.5303" x2="1720.5303" y1="81.2969" y2="519.0234"/></g><g class="participant participant-head" data-participant="representante"><text fill="#000000" font-family="sans-serif" font-size="14" lengthAdjust="spacing" textLength="138.2158" x="5" y="77.9951">Representante R+S</text><ellipse cx="77.1079" cy="13.5" fill="#E2E2F0" rx="8" ry="8" style="stroke:#181818;stroke-width:0.5;"/><path d="M77.1079,21.5 L77.1079,48.5 M64.1079,29.5 L90.1079,29.5 M77.1079,48.5 L64.1079,63.5 M77.1079,48.5 L90.1079,63.5" fill="none" style="stroke:#181818;stroke-width:0.5;"/></g><g class="participant participant-tail" data-participant="representante"><text fill="#000000" font-family="sans-serif" font-size="14" lengthAdjust="spacing" textLength="138.2158" x="5" y="531.0186">Representante R+S</text><ellipse cx="77.1079" cy="542.8203" fill="#E2E2F0" rx="8" ry="8" style="stroke:#181818;stroke-width:0.5;"/><path d="M77.1079,550.8203 L77.1079,577.8203 M64.1079,558.8203 L90.1079,558.8203 M77.1079,577.8203 L64.1079,592.8203 M77.1079,577.8203 L90.1079,592.8203" fill="none" style="stroke:#181818;stroke-width:0.5;"/></g><g class="participant participant-head" data-participant="gui"><text fill="#000000" font-family="sans-serif" font-size="14" font-style="italic" lengthAdjust="spacing" textLength="77.5811" x="365.2173" y="61.6982">&#171;fronteira&#187;</text><text fill="#000000" font-family="sans-serif" font-size="14" lengthAdjust="spacing" textLength="25.2246" x="391.3955" y="77.9951">GUI</text><path d="M386.5078,20.7031 L386.5078,44.7031 M386.5078,32.7031 L403.5078,32.7031" fill="none" style="stroke:#181818;stroke-width:0.5;"/><ellipse cx="415.5078" cy="32.7031" fill="#E2E2F0" rx="12" ry="12" style="stroke:#181818;stroke-width:0.5;"/></g><g class="participant participant-tail" data-participant="gui"><text fill="#000000" font-family="sans-serif" font-size="14" font-style="italic" lengthAdjust="spacing" textLength="77.5811" x="365.2173" y="531.0186">&#171;fronteira&#187;</text><text fill="#000000" font-family="sans-serif" font-size="14" lengthAdjust="spacing" textLength="25.2246" x="391.3955" y="547.3154">GUI</text><path d="M386.5078,554.6172 L386.5078,578.6172 M386.5078,566.6172 L403.5078,566.6172" fill="none" style="stroke:#181818;stroke-width:0.5;"/><ellipse cx="415.5078" cy="566.6172" fill="#E2E2F0" rx="12" ry="12" style="stroke:#181818;stroke-width:0.5;"/></g><g class="participant participant-head" data-participant="aprovacaoController"><text fill="#000000" font-family="sans-serif" font-size="14" font-style="italic" lengthAdjust="spacing" textLength="84.2256" x="696.7949" y="61.6982">&#171;controller&#187;</text><text fill="#000000" font-family="sans-serif" font-size="14" lengthAdjust="spacing" textLength="143.6641" x="667.0757" y="77.9951">AprovacaoController</text><ellipse cx="741.9077" cy="32.7031" fill="#E2E2F0" rx="12" ry="12" style="stroke:#181818;stroke-width:0.5;"/><polygon fill="#181818" points="737.9077,20.7031,743.9077,15.7031,741.9077,20.7031,743.9077,25.7031,737.9077,20.7031" style="stroke:#181818;stroke-width:1;"/></g><g class="participant participant-tail" data-participant="aprovacaoController"><text fill="#000000" font-family="sans-serif" font-size="14" font-style="italic" lengthAdjust="spacing" textLength="84.2256" x="696.7949" y="531.0186">&#171;controller&#187;</text><text fill="#000000" font-family="sans-serif" font-size="14" lengthAdjust="spacing" textLength="143.6641" x="667.0757" y="547.3154">AprovacaoController</text><ellipse cx="741.9077" cy="566.6172" fill="#E2E2F0" rx="12" ry="12" style="stroke:#181818;stroke-width:0.5;"/><polygon fill="#181818" points="737.9077,554.6172,743.9077,549.6172,741.9077,554.6172,743.9077,559.6172,737.9077,554.6172" style="stroke:#181818;stroke-width:1;"/></g><g class="participant participant-head" data-participant="candidatos"><rect fill="#E2E2F0" height="30.2969" style="stroke:#181818;stroke-width:0.5;" width="92.8184" x="1240.4727" y="46"/><rect fill="#E2E2F0" height="30.2969" style="stroke:#181818;stroke-width:0.5;" width="92.8184" x="1236.4727" y="50"/><text fill="#000000" font-family="sans-serif" font-size="14" lengthAdjust="spacing" textLength="78.8184" x="1243.4727" y="69.9951">Candidatos</text></g><g class="participant participant-tail" data-participant="candidatos"><rect fill="#E2E2F0" height="30.2969" style="stroke:#181818;stroke-width:0.5;" width="92.8184" x="1240.4727" y="518.0234"/><rect fill="#E2E2F0" height="30.2969" style="stroke:#181818;stroke-width:0.5;" width="92.8184" x="1236.4727" y="522.0234"/><text fill="#000000" font-family="sans-serif" font-size="14" lengthAdjust="spacing" textLength="78.8184" x="1243.4727" y="542.0186">Candidatos</text></g><g class="participant participant-head" data-participant="voluntarios"><rect fill="#E2E2F0" height="30.2969" style="stroke:#181818;stroke-width:0.5;" width="93.3516" x="1347.291" y="46"/><rect fill="#E2E2F0" height="30.2969" style="stroke:#181818;stroke-width:0.5;" width="93.3516" x="1343.291" y="50"/><text fill="#000000" font-family="sans-serif" font-size="14" lengthAdjust="spacing" textLength="79.3516" x="1350.291" y="69.9951">Voluntarios</text></g><g class="participant participant-tail" data-participant="voluntarios"><rect fill="#E2E2F0" height="30.2969" style="stroke:#181818;stroke-width:0.5;" width="93.3516" x="1347.291" y="518.0234"/><rect fill="#E2E2F0" height="30.2969" style="stroke:#181818;stroke-width:0.5;" width="93.3516" x="1343.291" y="522.0234"/><text fill="#000000" font-family="sans-serif" font-size="14" lengthAdjust="spacing" textLength="79.3516" x="1350.291" y="542.0186">Voluntarios</text></g><g class="participant participant-head" data-participant="recomendacoes"><rect fill="#E2E2F0" height="30.2969" style="stroke:#181818;stroke-width:0.5;" width="129.3633" x="1454.6426" y="46"/><rect fill="#E2E2F0" height="30.2969" style="stroke:#181818;stroke-width:0.5;" width="129.3633" x="1450.6426" y="50"/><text fill="#000000" font-family="sans-serif" font-size="14" lengthAdjust="spacing" textLength="115.3633" x="1457.6426" y="69.9951">Recomendacoes</text></g><g class="participant participant-tail" data-participant="recomendacoes"><rect fill="#E2E2F0" height="30.2969" style="stroke:#181818;stroke-width:0.5;" width="129.3633" x="1454.6426" y="518.0234"/><rect fill="#E2E2F0" height="30.2969" style="stroke:#181818;stroke-width:0.5;" width="129.3633" x="1450.6426" y="522.0234"/><text fill="#000000" font-family="sans-serif" font-size="14" lengthAdjust="spacing" textLength="115.3633" x="1457.6426" y="542.0186">Recomendacoes</text></g><g class="participant participant-head" data-participant="candidato"><text fill="#000000" font-family="sans-serif" font-size="14" lengthAdjust="spacing" textLength="71.5244" x="1594.0059" y="77.9951">Candidato</text><ellipse cx="1632.7681" cy="49" fill="#E2E2F0" rx="12" ry="12" style="stroke:#181818;stroke-width:0.5;"/><line style="stroke:#181818;stroke-width:0.5;" x1="1620.7681" x2="1644.7681" y1="63" y2="63"/></g><g class="participant participant-tail" data-participant="candidato"><text fill="#000000" font-family="sans-serif" font-size="14" lengthAdjust="spacing" textLength="71.5244" x="1594.0059" y="531.0186">Candidato</text><ellipse cx="1632.7681" cy="550.3203" fill="#E2E2F0" rx="12" ry="12" style="stroke:#181818;stroke-width:0.5;"/><line style="stroke:#181818;stroke-width:0.5;" x1="1620.7681" x2="1644.7681" y1="564.3203" y2="564.3203"/></g><g class="participant participant-head" data-participant="voluntario"><text fill="#000000" font-family="sans-serif" font-size="14" lengthAdjust="spacing" textLength="72.0576" x="1681.5303" y="77.9951">Voluntario</text><ellipse cx="1720.5591" cy="49" fill="#E2E2F0" rx="12" ry="12" style="stroke:#181818;stroke-width:0.5;"/><line style="stroke:#181818;stroke-width:0.5;" x1="1708.5591" x2="1732.5591" y1="63" y2="63"/></g><g class="participant participant-tail" data-participant="voluntario"><text fill="#000000" font-family="sans-serif" font-size="14" lengthAdjust="spacing" textLength="72.0576" x="1681.5303" y="531.0186">Voluntario</text><ellipse cx="1720.5591" cy="550.3203" fill="#E2E2F0" rx="12" ry="12" style="stroke:#181818;stroke-width:0.5;"/><line style="stroke:#181818;stroke-width:0.5;" x1="1708.5591" x2="1732.5591" y1="564.3203" y2="564.3203"/></g><g><title>..fronteira..</title><rect fill="#FFFFFF" height="388.5938" style="stroke:#181818;stroke-width:1;" width="10" x="402.0078" y="112.4297"/></g><g><title>..controller..</title><rect fill="#FFFFFF" height="359.4609" style="stroke:#181818;stroke-width:1;" width="10" x="736.9077" y="141.5625"/></g><g><title>Voluntarios</title><rect fill="#FFFFFF" height="158.6641" style="stroke:#181818;stroke-width:1;" width="10" x="1386.9668" y="228.9609"/></g><g><title>Recomendacoes</title><rect fill="#FFFFFF" height="29.1328" style="stroke:#181818;stroke-width:1;" width="10" x="1512.3242" y="170.6953"/></g><g><title>Voluntario</title><rect fill="#FFFFFF" height="29.1328" style="stroke:#181818;stroke-width:1;" width="10" x="1715.5591" y="258.0938"/></g><g class="message" data-participant-1="representante" data-participant-2="gui"><polygon fill="#181818" points="390.0078,108.4297,400.0078,112.4297,390.0078,116.4297,394.0078,112.4297" style="stroke:#181818;stroke-width:1;"/><line style="stroke:#181818;stroke-width:1;" x1="77.1079" x2="396.0078" y1="112.4297" y2="112.4297"/><text fill="#000000" font-family="sans-serif" font-size="13" lengthAdjust="spacing" textLength="305.8999" x="84.1079" y="107.3638">aprovaVoluntario(idVoluntario, recomendacao)</text></g><g class="message" data-participant-1="gui" data-participant-2="aprovacaoController"><polygon fill="#181818" points="724.9077,137.5625,734.9077,141.5625,724.9077,145.5625,728.9077,141.5625" style="stroke:#181818;stroke-width:1;"/><line style="stroke:#181818;stroke-width:1;" x1="412.0078" x2="730.9077" y1="141.5625" y2="141.5625"/><text fill="#000000" font-family="sans-serif" font-size="13" lengthAdjust="spacing" textLength="305.8999" x="419.0078" y="136.4966">aprovaVoluntario(idVoluntario, recomendacao)</text></g><g class="message" data-participant-1="aprovacaoController" data-participant-2="recomendacoes"><polygon fill="#181818" points="1500.3242,166.6953,1510.3242,170.6953,1500.3242,174.6953,1504.3242,170.6953" style="stroke:#181818;stroke-width:1;"/><line style="stroke:#181818;stroke-width:1;" x1="746.9077" x2="1506.3242" y1="170.6953" y2="170.6953"/><text fill="#000000" font-family="sans-serif" font-size="13" lengthAdjust="spacing" textLength="241.103" x="753.9077" y="165.6294">salvaRecomendacao(recomendacao)</text></g><g class="message" data-participant-1="recomendacoes" data-participant-2="aprovacaoController"><polygon fill="#181818" points="757.9077,195.8281,747.9077,199.8281,757.9077,203.8281,753.9077,199.8281" style="stroke:#181818;stroke-width:1;"/><line style="stroke:#181818;stroke-width:1;stroke-dasharray:2,2;" x1="751.9077" x2="1516.3242" y1="199.8281" y2="199.8281"/><text fill="#000000" font-family="sans-serif" font-size="13" lengthAdjust="spacing" textLength="96.6304" x="763.9077" y="194.7622">recomendacao</text></g><g class="message" data-participant-1="aprovacaoController" data-participant-2="voluntarios"><polygon fill="#181818" points="1374.9668,224.9609,1384.9668,228.9609,1374.9668,232.9609,1378.9668,228.9609" style="stroke:#181818;stroke-width:1;"/><line style="stroke:#181818;stroke-width:1;" x1="746.9077" x2="1380.9668" y1="228.9609" y2="228.9609"/><text fill="#000000" font-family="sans-serif" font-size="13" lengthAdjust="spacing" textLength="206.0767" x="753.9077" y="223.895">procuraVoluntario(idVoluntario)</text></g><g class="message" data-participant-1="voluntarios" data-participant-2="voluntario"><polygon fill="#181818" points="1703.5591,254.0938,1713.5591,258.0938,1703.5591,262.0938,1707.5591,258.0938" style="stroke:#181818;stroke-width:1;"/><line style="stroke:#181818;stroke-width:1;" x1="1396.9668" x2="1709.5591" y1="258.0938" y2="258.0938"/><text fill="#000000" font-family="sans-serif" font-size="13" lengthAdjust="spacing" textLength="110.2651" x="1403.9668" y="253.0278">get(idVoluntario)</text></g><g class="message" data-participant-1="voluntario" data-participant-2="voluntarios"><polygon fill="#181818" points="1407.9668,283.2266,1397.9668,287.2266,1407.9668,291.2266,1403.9668,287.2266" style="stroke:#181818;stroke-width:1;"/><line style="stroke:#181818;stroke-width:1;stroke-dasharray:2,2;" x1="1401.9668" x2="1719.5591" y1="287.2266" y2="287.2266"/><text fill="#000000" font-family="sans-serif" font-size="13" lengthAdjust="spacing" textLength="65.7109" x="1413.9668" y="282.1606">voluntario</text></g><g class="message" data-participant-1="voluntarios" data-participant-2="aprovacaoController"><polygon fill="#181818" points="757.9077,312.3594,747.9077,316.3594,757.9077,320.3594,753.9077,316.3594" style="stroke:#181818;stroke-width:1;"/><line style="stroke:#181818;stroke-width:1;stroke-dasharray:2,2;" x1="751.9077" x2="1385.9668" y1="316.3594" y2="316.3594"/><text fill="#000000" font-family="sans-serif" font-size="13" lengthAdjust="spacing" textLength="65.7109" x="763.9077" y="311.2935">voluntario</text></g><g class="message" data-participant-1="aprovacaoController" data-participant-2="aprovacaoController"><line style="stroke:#181818;stroke-width:1;" x1="746.9077" x2="788.9077" y1="345.4922" y2="345.4922"/><line style="stroke:#181818;stroke-width:1;" x1="788.9077" x2="788.9077" y1="345.4922" y2="358.4922"/><line style="stroke:#181818;stroke-width:1;" x1="747.9077" x2="788.9077" y1="358.4922" y2="358.4922"/><polygon fill="#181818" points="757.9077,354.4922,747.9077,358.4922,757.9077,362.4922,753.9077,358.4922" style="stroke:#181818;stroke-width:1;"/><text fill="#000000" font-family="sans-serif" font-size="13" lengthAdjust="spacing" textLength="248.3203" x="753.9077" y="340.4263">geraLoginSenhaVoluntario(voluntario)</text></g><g class="message" data-participant-1="aprovacaoController" data-participant-2="voluntarios"><polygon fill="#181818" points="1379.9668,383.625,1389.9668,387.625,1379.9668,391.625,1383.9668,387.625" style="stroke:#181818;stroke-width:1;"/><line style="stroke:#181818;stroke-width:1;" x1="746.9077" x2="1385.9668" y1="387.625" y2="387.625"/><text fill="#000000" font-family="sans-serif" font-size="13" lengthAdjust="spacing" textLength="176.7759" x="753.9077" y="382.5591">salvaVoluntario(voluntario)</text></g><g class="message" data-participant-1="aprovacaoController" data-participant-2="aprovacaoController"><line style="stroke:#181818;stroke-width:1;" x1="746.9077" x2="788.9077" y1="416.7578" y2="416.7578"/><line style="stroke:#181818;stroke-width:1;" x1="788.9077" x2="788.9077" y1="416.7578" y2="429.7578"/><line style="stroke:#181818;stroke-width:1;" x1="747.9077" x2="788.9077" y1="429.7578" y2="429.7578"/><polygon fill="#181818" points="757.9077,425.7578,747.9077,429.7578,757.9077,433.7578,753.9077,429.7578" style="stroke:#181818;stroke-width:1;"/><text fill="#000000" font-family="sans-serif" font-size="13" lengthAdjust="spacing" textLength="503.3374" x="753.9077" y="411.6919">enviaEmailLoginInstrucao(voluntarioEmail, voluntarioLogin, voluntarioSenha)</text></g><g class="message" data-participant-1="aprovacaoController" data-participant-2="aprovacaoController"><line style="stroke:#181818;stroke-width:1;" x1="746.9077" x2="788.9077" y1="458.8906" y2="458.8906"/><line style="stroke:#181818;stroke-width:1;" x1="788.9077" x2="788.9077" y1="458.8906" y2="471.8906"/><line style="stroke:#181818;stroke-width:1;" x1="747.9077" x2="788.9077" y1="471.8906" y2="471.8906"/><polygon fill="#181818" points="757.9077,467.8906,747.9077,471.8906,757.9077,475.8906,753.9077,471.8906" style="stroke:#181818;stroke-width:1;"/><text fill="#000000" font-family="sans-serif" font-size="13" lengthAdjust="spacing" textLength="508.9741" x="753.9077" y="453.8247">enviaEmailResultadoAfiliacaoRecomendacao(voluntarioEmail, recomendacao)</text></g><g class="message" data-participant-1="aprovacaoController" data-participant-2="gui"><polygon fill="#181818" points="418.0078,497.0234,408.0078,501.0234,418.0078,505.0234,414.0078,501.0234" style="stroke:#181818;stroke-width:1;"/><line style="stroke:#181818;stroke-width:1;stroke-dasharray:2,2;" x1="412.0078" x2="740.9077" y1="501.0234" y2="501.0234"/><text fill="#000000" font-family="sans-serif" font-size="13" lengthAdjust="spacing" textLength="70.7637" x="424.0078" y="495.9575">"successo"</text></g><!--SRC=[fLJBQiCm4BphAuHF2Mr-m9X02AK4Ud9exrjPSGME5FGmvEyhgQczYgsa3vsiVSpiZ2K1iqhJekOdpGsN5gJbj7xO5nGCrJXAtfMJ3UWpBPvVTp7VEa6hwg2LJmiDwpNnY_cTLXqjDYUjUc2Wjb-HZklO1TDuLR7XEw2myCMiKDBGOWko4GrOPM8x6xPfsPlgd9zKYqjTF-x95MBDcJfoBuOfRYvAKOHunSAU4NDAFEH7oYj6GXBhw6eTl2elqiUsXMZ6pIEQ0jIIW1-t1z_jMmdrAzZjaMRy-oLo01lGP-1YGIoQvi84YLibDT3rK2E6nPGkeKpTfcWb6RhAgSNuGt_3xn1arA23Kb9VmfpE6JcZ1Hyph0J5KvAIjjncK3F8IJu5Znub2Z9jo9rCHJ9nplcPtdl-pkAqNCEBQeNSS_c1xUxdpFx1Zuk7y0uEkMc6VoR-eeJBNi3J4KGNzUoaiTg5Ip0Yn-mZeegLE11TMFwJl-R6THOQjJc8JeIwv59EvablwMtoxnUiC8unRemgo9MHS-y8IllkJm00]--></g></svg>