<svg xmlns="http://www.w3.org/2000/svg" xmlns:xlink="http://www.w3.org/1999/xlink" contentStyleType="text/css" data-diagram-type="SEQUENCE" height="619px" preserveAspectRatio="none" style="width:1142px;height:619px;background:#FFFFFF;" version="1.1" viewBox="0 0 1142 619" width="1142px" zoomAndPan="magnify"><defs/><g><g><title>..fronteira..</title><rect fill="#FFFFFF" height="174.7969" style="stroke:#181818;stroke-width:1;" width="10" x="360.8369" y="112.4297"/></g><g><title>..fronteira..</title><rect fill="#FFFFFF" height="174.7969" style="stroke:#181818;stroke-width:1;" width="10" x="360.8369" y="316.3594"/></g><g><title>..fronteira..</title><rect fill="#FFFFFF" height="9" style="stroke:#181818;stroke-width:1;" width="10" x="360.8369" y="520.2891"/></g><g><title>..controller..</title><rect fill="#FFFFFF" height="145.6641" style="stroke:#181818;stroke-width:1;" width="10" x="579.981" y="141.5625"/></g><g><title>..controller..</title><rect fill="#FFFFFF" height="145.6641" style="stroke:#181818;stroke-width:1;" width="10" x="730.7139" y="345.4922"/></g><g><title>PedidoAfiliacao</title><rect fill="#FFFFFF" height="87.3984" style="stroke:#181818;stroke-width:1;" width="10" x="876.5024" y="170.6953"/></g><g><title>Candidatos</title><rect fill="#FFFFFF" height="87.3984" style="stroke:#181818;stroke-width:1;" width="10" x="997.3516" y="374.625"/></g><g><title>Candidato</title><rect fill="#FFFFFF" height="29.1328" style="stroke:#181818;stroke-width:1;" width="10" x="1097.7671" y="199.8281"/></g><g><title>Candidato</title><rect fill="#FFFFFF" height="29.1328" style="stroke:#181818;stroke-width:1;" width="10" x="1097.7671" y="403.7578"/></g><g><title>Representante R.S</title><rect fill="#000000" fill-opacity="0.00000" height="456.9922" width="8" x="73.1079" y="81.2969"/><line style="stroke:#181818;stroke-width:0.5;stroke-dasharray:5,5;" x1="77" x2="77" y1="81.2969" y2="538.2891"/></g><g><title>..fronteira..</title><rect fill="#000000" fill-opacity="0.00000" height="456.9922" width="8" x="361.8369" y="81.2969"/><line style="stroke:#181818;stroke-width:0.5;stroke-dasharray:5,5;" x1="365.0464" x2="365.0464" y1="81.2969" y2="538.2891"/></g><g><title>..controller..</title><rect fill="#000000" fill-opacity="0.00000" height="456.9922" width="8" x="580.981" y="81.2969"/><line style="stroke:#181818;stroke-width:0.5;stroke-dasharray:5,5;" x1="584.5967" x2="584.5967" y1="81.2969" y2="538.2891"/></g><g><title>..controller..</title><rect fill="#000000" fill-opacity="0.00000" height="456.9922" width="8" x="731.7139" y="81.2969"/><line style="stroke:#181818;stroke-width:0.5;stroke-dasharray:5,5;" x1="735.3652" x2="735.3652" y1="81.2969" y2="538.2891"/></g><g><title>PedidoAfiliacao</title><rect fill="#000000" fill-opacity="0.00000" height="456.9922" width="8" x="877.5024" y="81.2969"/><line style="stroke:#181818;stroke-width:0.5;stroke-dasharray:5,5;" x1="881.0625" x2="881.0625" y1="81.2969" y2="538.2891"/></g><g><title>Candidatos</title><rect fill="#000000" fill-opacity="0.00000" height="456.9922" width="8" x="998.3516" y="81.2969"/><line style="stroke:#181818;stroke-width:0.5;stroke-dasharray:5,5;" x1="1001.9424" x2="1001.9424" y1="81.2969" y2="538.2891"/></g><g><title>Candidato</title><rect fill="#000000" fill-opacity="0.00000" height="456.9922" width="8" x="1098.7671" y="81.2969"/><line style="stroke:#181818;stroke-width:0.5;stroke-dasharray:5,5;" x1="1102.0049" x2="1102.0049" y1="81.2969" y2="538.2891"/></g><g class="participant participant-head" data-participant="representante"><text fill="#000000" font-family="sans-serif" font-size="14" lengthAdjust="spacing" textLength="138.2158" x="5" y="77.9951">Representante R+S</text><ellipse cx="77.1079" cy="13.5" fill="#E2E2F0" rx="8" ry="8" style="stroke:#181818;stroke-width:0.5;"/><path d="M77.1079,21.5 L77.1079,48.5 M64.1079,29.5 L90.1079,29.5 M77.1079,48.5 L64.1079,63.5 M77.1079,48.5 L90.1079,63.5" fill="none" style="stroke:#181818;stroke-width:0.5;"/></g><g class="participant participant-tail" data-participant="representante"><text fill="#000000" font-family="sans-serif" font-size="14" lengthAdjust="spacing" textLength="138.2158" x="5" y="550.2842">Representante R+S</text><ellipse cx="77.1079" cy="562.0859" fill="#E2E2F0" rx="8" ry="8" style="stroke:#181818;stroke-width:0.5;"/><path d="M77.1079,570.0859 L77.1079,597.0859 M64.1079,578.0859 L90.1079,578.0859 M77.1079,597.0859 L64.1079,612.0859 M77.1079,597.0859 L90.1079,612.0859" fill="none" style="stroke:#181818;stroke-width:0.5;"/></g><g class="participant participant-head" data-participant="gui"><text fill="#000000" font-family="sans-serif" font-size="14" font-style="italic" lengthAdjust="spacing" textLength="77.5811" x="324.0464" y="61.6982">&#171;fronteira&#187;</text><text fill="#000000" font-family="sans-serif" font-size="14" lengthAdjust="spacing" textLength="25.2246" x="350.2246" y="77.9951">GUI</text><path d="M345.3369,20.7031 L345.3369,44.7031 M345.3369,32.7031 L362.3369,32.7031" fill="none" style="stroke:#181818;stroke-width:0.5;"/><ellipse cx="374.3369" cy="32.7031" fill="#E2E2F0" rx="12" ry="12" style="stroke:#181818;stroke-width:0.5;"/></g><g class="participant participant-tail" data-participant="gui"><text fill="#000000" font-family="sans-serif" font-size="14" font-style="italic" lengthAdjust="spacing" textLength="77.5811" x="324.0464" y="550.2842">&#171;fronteira&#187;</text><text fill="#000000" font-family="sans-serif" font-size="14" lengthAdjust="spacing" textLength="25.2246" x="350.2246" y="566.5811">GUI</text><path d="M345.3369,573.8828 L345.3369,597.8828 M345.3369,585.8828 L362.3369,585.8828" fill="none" style="stroke:#181818;stroke-width:0.5;"/><ellipse cx="374.3369" cy="585.8828" fill="#E2E2F0" rx="12" ry="12" style="stroke:#181818;stroke-width:0.5;"/></g><g class="participant participant-head" data-participant="afiliacaoController"><text fill="#000000" font-family="sans-serif" font-size="14" font-style="italic" lengthAdjust="spacing" textLength="84.2256" x="539.8682" y="61.6982">&#171;controller&#187;</text><text fill="#000000" font-family="sans-serif" font-size="14" lengthAdjust="spacing" textLength="128.7686" x="517.5967" y="77.9951">AfiliacaoController</text><ellipse cx="584.981" cy="32.7031" fill="#E2E2F0" rx="12" ry="12" style="stroke:#181818;stroke-width:0.5;"/><polygon fill="#181818" points="580.981,20.7031,586.981,15.7031,584.981,20.7031,586.981,25.7031,580.981,20.7031" style="stroke:#181818;stroke-width:1;"/></g><g class="participant participant-tail" data-participant="afiliacaoController"><text fill="#000000" font-family="sans-serif" font-size="14" font-style="italic" lengthAdjust="spacing" textLength="84.2256" x="539.8682" y="550.2842">&#171;controller&#187;</text><text fill="#000000" font-family="sans-serif" font-size="14" lengthAdjust="spacing" textLength="128.7686" x="517.5967" y="566.5811">AfiliacaoController</text><ellipse cx="584.981" cy="585.8828" fill="#E2E2F0" rx="12" ry="12" style="stroke:#181818;stroke-width:0.5;"/><polygon fill="#181818" points="580.981,573.8828,586.981,568.8828,584.981,573.8828,586.981,578.8828,580.981,573.8828" style="stroke:#181818;stroke-width:1;"/></g><g class="participant participant-head" data-participant="candidatoController"><text fill="#000000" font-family="sans-serif" font-size="14" font-style="italic" lengthAdjust="spacing" textLength="84.2256" x="690.6011" y="61.6982">&#171;controller&#187;</text><text fill="#000000" font-family="sans-serif" font-size="14" lengthAdjust="spacing" textLength="140.6973" x="662.3652" y="77.9951">CandidatoController</text><ellipse cx="735.7139" cy="32.7031" fill="#E2E2F0" rx="12" ry="12" style="stroke:#181818;stroke-width:0.5;"/><polygon fill="#181818" points="731.7139,20.7031,737.7139,15.7031,735.7139,20.7031,737.7139,25.7031,731.7139,20.7031" style="stroke:#181818;stroke-width:1;"/></g><g class="participant participant-tail" data-participant="candidatoController"><text fill="#000000" font-family="sans-serif" font-size="14" font-style="italic" lengthAdjust="spacing" textLength="84.2256" x="690.6011" y="550.2842">&#171;controller&#187;</text><text fill="#000000" font-family="sans-serif" font-size="14" lengthAdjust="spacing" textLength="140.6973" x="662.3652" y="566.5811">CandidatoController</text><ellipse cx="735.7139" cy="585.8828" fill="#E2E2F0" rx="12" ry="12" style="stroke:#181818;stroke-width:0.5;"/><polygon fill="#181818" points="731.7139,573.8828,737.7139,568.8828,735.7139,573.8828,737.7139,578.8828,731.7139,573.8828" style="stroke:#181818;stroke-width:1;"/></g><g class="participant participant-head" data-participant="pedidoAfiliacao"><rect fill="#E2E2F0" height="30.2969" style="stroke:#181818;stroke-width:0.5;" width="120.8799" x="823.0625" y="46"/><rect fill="#E2E2F0" height="30.2969" style="stroke:#181818;stroke-width:0.5;" width="120.8799" x="819.0625" y="50"/><text fill="#000000" font-family="sans-serif" font-size="14" lengthAdjust="spacing" textLength="106.8799" x="826.0625" y="69.9951">PedidoAfiliacao</text></g><g class="participant participant-tail" data-participant="pedidoAfiliacao"><rect fill="#E2E2F0" height="30.2969" style="stroke:#181818;stroke-width:0.5;" width="120.8799" x="823.0625" y="537.2891"/><rect fill="#E2E2F0" height="30.2969" style="stroke:#181818;stroke-width:0.5;" width="120.8799" x="819.0625" y="541.2891"/><text fill="#000000" font-family="sans-serif" font-size="14" lengthAdjust="spacing" textLength="106.8799" x="826.0625" y="561.2842">PedidoAfiliacao</text></g><g class="participant participant-head" data-participant="candidatos"><rect fill="#E2E2F0" height="30.2969" style="stroke:#181818;stroke-width:0.5;" width="92.8184" x="957.9424" y="46"/><rect fill="#E2E2F0" height="30.2969" style="stroke:#181818;stroke-width:0.5;" width="92.8184" x="953.9424" y="50"/><text fill="#000000" font-family="sans-serif" font-size="14" lengthAdjust="spacing" textLength="78.8184" x="960.9424" y="69.9951">Candidatos</text></g><g class="participant participant-tail" data-participant="candidatos"><rect fill="#E2E2F0" height="30.2969" style="stroke:#181818;stroke-width:0.5;" width="92.8184" x="957.9424" y="537.2891"/><rect fill="#E2E2F0" height="30.2969" style="stroke:#181818;stroke-width:0.5;" width="92.8184" x="953.9424" y="541.2891"/><text fill="#000000" font-family="sans-serif" font-size="14" lengthAdjust="spacing" textLength="78.8184" x="960.9424" y="561.2842">Candidatos</text></g><g class="participant participant-head" data-participant="candidato"><text fill="#000000" font-family="sans-serif" font-size="14" lengthAdjust="spacing" textLength="71.5244" x="1064.0049" y="77.9951">Candidato</text><ellipse cx="1102.7671" cy="49" fill="#E2E2F0" rx="12" ry="12" style="stroke:#181818;stroke-width:0.5;"/><line style="stroke:#181818;stroke-width:0.5;" x1="1090.7671" x2="1114.7671" y1="63" y2="63"/></g><g class="participant participant-tail" data-participant="candidato"><text fill="#000000" font-family="sans-serif" font-size="14" lengthAdjust="spacing" textLength="71.5244" x="1064.0049" y="550.2842">Candidato</text><ellipse cx="1102.7671" cy="569.5859" fill="#E2E2F0" rx="12" ry="12" style="stroke:#181818;stroke-width:0.5;"/><line style="stroke:#181818;stroke-width:0.5;" x1="1090.7671" x2="1114.7671" y1="583.5859" y2="583.5859"/></g><g><title>..fronteira..</title><rect fill="#FFFFFF" height="174.7969" style="stroke:#181818;stroke-width:1;" width="10" x="360.8369" y="112.4297"/></g><g><title>..fronteira..</title><rect fill="#FFFFFF" height="174.7969" style="stroke:#181818;stroke-width:1;" width="10" x="360.8369" y="316.3594"/></g><g><title>..fronteira..</title><rect fill="#FFFFFF" height="9" style="stroke:#181818;stroke-width:1;" width="10" x="360.8369" y="520.2891"/></g><g><title>..controller..</title><rect fill="#FFFFFF" height="145.6641" style="stroke:#181818;stroke-width:1;" width="10" x="579.981" y="141.5625"/></g><g><title>..controller..</title><rect fill="#FFFFFF" height="145.6641" style="stroke:#181818;stroke-width:1;" width="10" x="730.7139" y="345.4922"/></g><g><title>PedidoAfiliacao</title><rect fill="#FFFFFF" height="87.3984" style="stroke:#181818;stroke-width:1;" width="10" x="876.5024" y="170.6953"/></g><g><title>Candidatos</title><rect fill="#FFFFFF" height="87.3984" style="stroke:#181818;stroke-width:1;" width="10" x="997.3516" y="374.625"/></g><g><title>Candidato</title><rect fill="#FFFFFF" height="29.1328" style="stroke:#181818;stroke-width:1;" width="10" x="1097.7671" y="199.8281"/></g><g><title>Candidato</title><rect fill="#FFFFFF" height="29.1328" style="stroke:#181818;stroke-width:1;" width="10" x="1097.7671" y="403.7578"/></g><g class="message" data-participant-1="representante" data-participant-2="gui"><polygon fill="#181818" points="348.8369,108.4297,358.8369,112.4297,348.8369,116.4297,352.8369,112.4297" style="stroke:#181818;stroke-width:1;"/><line style="stroke:#181818;stroke-width:1;" x1="77.1079" x2="354.8369" y1="112.4297" y2="112.4297"/><text fill="#000000" font-family="sans-serif" font-size="13" lengthAdjust="spacing" textLength="190.144" x="84.1079" y="107.3638">buscaCandidatosPendentes()</text></g><g class="message" data-participant-1="gui" data-participant-2="afiliacaoController"><polygon fill="#181818" points="567.981,137.5625,577.981,141.5625,567.981,145.5625,571.981,141.5625" style="stroke:#181818;stroke-width:1;"/><line style="stroke:#181818;stroke-width:1;" x1="370.8369" x2="573.981" y1="141.5625" y2="141.5625"/><text fill="#000000" font-family="sans-serif" font-size="13" lengthAdjust="spacing" textLength="190.144" x="377.8369" y="136.4966">buscaCandidatosPendentes()</text></g><g class="message" data-participant-1="afiliacaoController" data-participant-2="pedidoAfiliacao"><polygon fill="#181818" points="864.5024,166.6953,874.5024,170.6953,864.5024,174.6953,868.5024,170.6953" style="stroke:#181818;stroke-width:1;"/><line style="stroke:#181818;stroke-width:1;" x1="589.981" x2="870.5024" y1="170.6953" y2="170.6953"/><text fill="#000000" font-family="sans-serif" font-size="13" lengthAdjust="spacing" textLength="190.144" x="596.981" y="165.6294">buscaCandidatosPendentes()</text></g><g class="message" data-participant-1="pedidoAfiliacao" data-participant-2="candidato"><polygon fill="#181818" points="1085.7671,195.8281,1095.7671,199.8281,1085.7671,203.8281,1089.7671,199.8281" style="stroke:#181818;stroke-width:1;"/><line style="stroke:#181818;stroke-width:1;" x1="886.5024" x2="1091.7671" y1="199.8281" y2="199.8281"/><text fill="#000000" font-family="sans-serif" font-size="13" lengthAdjust="spacing" textLength="97.9063" x="893.5024" y="194.7622">getCandidato()</text></g><g class="message" data-participant-1="candidato" data-participant-2="pedidoAfiliacao"><polygon fill="#181818" points="897.5024,224.9609,887.5024,228.9609,897.5024,232.9609,893.5024,228.9609" style="stroke:#181818;stroke-width:1;"/><line style="stroke:#181818;stroke-width:1;stroke-dasharray:2,2;" x1="891.5024" x2="1101.7671" y1="228.9609" y2="228.9609"/><text fill="#000000" font-family="sans-serif" font-size="13" lengthAdjust="spacing" textLength="66.4155" x="903.5024" y="223.895">Candidato</text></g><g class="message" data-participant-1="pedidoAfiliacao" data-participant-2="afiliacaoController"><polygon fill="#181818" points="600.981,254.0938,590.981,258.0938,600.981,262.0938,596.981,258.0938" style="stroke:#181818;stroke-width:1;"/><line style="stroke:#181818;stroke-width:1;stroke-dasharray:2,2;" x1="594.981" x2="880.5024" y1="258.0938" y2="258.0938"/><text fill="#000000" font-family="sans-serif" font-size="13" lengthAdjust="spacing" textLength="73.1885" x="606.981" y="253.0278">Candidatos</text></g><g class="message" data-participant-1="afiliacaoController" data-participant-2="gui"><polygon fill="#181818" points="376.8369,283.2266,366.8369,287.2266,376.8369,291.2266,372.8369,287.2266" style="stroke:#181818;stroke-width:1;"/><line style="stroke:#181818;stroke-width:1;stroke-dasharray:2,2;" x1="370.8369" x2="583.981" y1="287.2266" y2="287.2266"/><text fill="#000000" font-family="sans-serif" font-size="13" lengthAdjust="spacing" textLength="73.1885" x="382.8369" y="282.1606">Candidatos</text></g><g class="message" data-participant-1="representante" data-participant-2="gui"><polygon fill="#181818" points="348.8369,312.3594,358.8369,316.3594,348.8369,320.3594,352.8369,316.3594" style="stroke:#181818;stroke-width:1;"/><line style="stroke:#181818;stroke-width:1;" x1="77.1079" x2="354.8369" y1="316.3594" y2="316.3594"/><text fill="#000000" font-family="sans-serif" font-size="13" lengthAdjust="spacing" textLength="264.729" x="84.1079" y="311.2935">exibeInformacaoDetalhadaCandidato(id)</text></g><g class="message" data-participant-1="gui" data-participant-2="candidatoController"><polygon fill="#181818" points="718.7139,341.4922,728.7139,345.4922,718.7139,349.4922,722.7139,345.4922" style="stroke:#181818;stroke-width:1;"/><line style="stroke:#181818;stroke-width:1;" x1="370.8369" x2="724.7139" y1="345.4922" y2="345.4922"/><text fill="#000000" font-family="sans-serif" font-size="13" lengthAdjust="spacing" textLength="264.729" x="377.8369" y="340.4263">exibeInformacaoDetalhadaCandidato(id)</text></g><g class="message" data-participant-1="candidatoController" data-participant-2="candidatos"><polygon fill="#181818" points="985.3516,370.625,995.3516,374.625,985.3516,378.625,989.3516,374.625" style="stroke:#181818;stroke-width:1;"/><line style="stroke:#181818;stroke-width:1;" x1="740.7139" x2="991.3516" y1="374.625" y2="374.625"/><text fill="#000000" font-family="sans-serif" font-size="13" lengthAdjust="spacing" textLength="109.77" x="747.7139" y="369.5591">getCandidato(id)</text></g><g class="message" data-participant-1="candidatos" data-participant-2="candidato"><polygon fill="#181818" points="1085.7671,399.7578,1095.7671,403.7578,1085.7671,407.7578,1089.7671,403.7578" style="stroke:#181818;stroke-width:1;"/><line style="stroke:#181818;stroke-width:1;" x1="1007.3516" x2="1091.7671" y1="403.7578" y2="403.7578"/><text fill="#000000" font-family="sans-serif" font-size="13" lengthAdjust="spacing" textLength="43.3545" x="1014.3516" y="398.6919">get(id)</text></g><g class="message" data-participant-1="candidato" data-participant-2="candidatos"><polygon fill="#181818" points="1018.3516,428.8906,1008.3516,432.8906,1018.3516,436.8906,1014.3516,432.8906" style="stroke:#181818;stroke-width:1;"/><line style="stroke:#181818;stroke-width:1;stroke-dasharray:2,2;" x1="1012.3516" x2="1101.7671" y1="432.8906" y2="432.8906"/><text fill="#000000" font-family="sans-serif" font-size="13" lengthAdjust="spacing" textLength="66.4155" x="1024.3516" y="427.8247">Candidato</text></g><g class="message" data-participant-1="candidatos" data-participant-2="candidatoController"><polygon fill="#181818" points="751.7139,458.0234,741.7139,462.0234,751.7139,466.0234,747.7139,462.0234" style="stroke:#181818;stroke-width:1;"/><line style="stroke:#181818;stroke-width:1;stroke-dasharray:2,2;" x1="745.7139" x2="1001.3516" y1="462.0234" y2="462.0234"/><text fill="#000000" font-family="sans-serif" font-size="13" lengthAdjust="spacing" textLength="66.4155" x="757.7139" y="456.9575">Candidato</text></g><g class="message" data-participant-1="candidatoController" data-participant-2="gui"><polygon fill="#181818" points="376.8369,487.1563,366.8369,491.1563,376.8369,495.1563,372.8369,491.1563" style="stroke:#181818;stroke-width:1;"/><line style="stroke:#181818;stroke-width:1;stroke-dasharray:2,2;" x1="370.8369" x2="734.7139" y1="491.1563" y2="491.1563"/><text fill="#000000" font-family="sans-serif" font-size="13" lengthAdjust="spacing" textLength="66.4155" x="382.8369" y="486.0903">Candidato</text></g><g class="message" data-participant-1="representante" data-participant-2="gui"><polygon fill="#181818" points="348.8369,516.2891,358.8369,520.2891,348.8369,524.2891,352.8369,520.2891" style="stroke:#181818;stroke-width:1;"/><line style="stroke:#181818;stroke-width:1;" x1="77.1079" x2="354.8369" y1="520.2891" y2="520.2891"/><text fill="#000000" font-family="sans-serif" font-size="13" lengthAdjust="spacing" textLength="203.3662" x="84.1079" y="515.2231">solicitaAprovacaoCandidato(id)</text></g><!--SRC=[bPFHRi8W58RlUOgJNhaile0n9iObYtV6PGzm17Ga7HX0Czz-K2E5zb0thjh3uVlfV_uYzyP2ivTdAvtK7hMNi7_zQ00TsBpA3kQY1TeRDE-Vssx_T56mN1wj2TlAuch5U7YqfeLcVLIjGevcSw-qqdP7S5mF29vUSiO6jL02_P31n_Kn8pnmhunsqEnaQ3VfHXtZNDRA0qdObNgE1I-KlsKTPGDZXMKmNqMF5d2uE8uzTIUr22tIpLuO1j4hXjxGo1Y45LqD1mcd9a7nQ88HX-_mhekOGH0SMF9Kh10S-fawuXfiHh5asG9EqYUH35tWUuTXi4Q5r0fpwgCs_QpoKq8IMjCVKPjHxrXLekeMEPf7YZ8mmIH7dkt7MB5QGEMFEiYjFXhx7H5lqcFxXQAV_ao9YQmIV-HVcVIOgTXIltskxGPHUj1fXS5m-leudGMf4iidCSml-Py4rgvOyvnWKrmtRUeeS7SQHQg7hHOrPrh5bSVrsPfhbzTgndu1]--></g></svg>