<svg xmlns="http://www.w3.org/2000/svg" xmlns:xlink="http://www.w3.org/1999/xlink" contentStyleType="text/css" data-diagram-type="SEQUENCE" height="589px" preserveAspectRatio="none" style="width:1933px;height:589px;background:#FFFFFF;" version="1.1" viewBox="0 0 1933 589" width="1933px" zoomAndPan="magnify"><defs/><g><g><title>..fronteira..</title><rect fill="#FFFFFF" height="174.7969" style="stroke:#181818;stroke-width:1;" width="10" x="360.8369" y="112.4297"/></g><g><title>..fronteira..</title><rect fill="#FFFFFF" height="174.7969" style="stroke:#181818;stroke-width:1;" width="10" x="360.8369" y="316.3594"/></g><g><title>..controller..</title><rect fill="#FFFFFF" height="145.6641" style="stroke:#181818;stroke-width:1;" width="10" x="579.981" y="141.5625"/></g><g><title>..controller..</title><rect fill="#FFFFFF" height="145.6641" style="stroke:#181818;stroke-width:1;" width="10" x="730.7139" y="345.4922"/></g><g><title>PedidoAfiliacao</title><rect fill="#FFFFFF" height="87.3984" style="stroke:#181818;stroke-width:1;" width="10" x="1153.6802" y="170.6953"/></g><g><title>Candidatos</title><rect fill="#FFFFFF" height="87.3984" style="stroke:#181818;stroke-width:1;" width="10" x="1274.5293" y="374.625"/></g><g><title>Candidato</title><rect fill="#FFFFFF" height="29.1328" style="stroke:#181818;stroke-width:1;" width="10" x="1801.1274" y="199.8281"/></g><g><title>Candidato</title><rect fill="#FFFFFF" height="29.1328" style="stroke:#181818;stroke-width:1;" width="10" x="1801.1274" y="403.7578"/></g><g><title>Representante R.S</title><rect fill="#000000" fill-opacity="0.00000" height="427.8594" width="8" x="73.1079" y="81.2969"/><line style="stroke:#181818;stroke-width:0.5;stroke-dasharray:5,5;" x1="77" x2="77" y1="81.2969" y2="509.1563"/></g><g><title>..fronteira..</title><rect fill="#000000" fill-opacity="0.00000" height="427.8594" width="8" x="361.8369" y="81.2969"/><line style="stroke:#181818;stroke-width:0.5;stroke-dasharray:5,5;" x1="365.0464" x2="365.0464" y1="81.2969" y2="509.1563"/></g><g><title>..controller..</title><rect fill="#000000" fill-opacity="0.00000" height="427.8594" width="8" x="580.981" y="81.2969"/><line style="stroke:#181818;stroke-width:0.5;stroke-dasharray:5,5;" x1="584.5967" x2="584.5967" y1="81.2969" y2="509.1563"/></g><g><title>..controller..</title><rect fill="#000000" fill-opacity="0.00000" height="427.8594" width="8" x="731.7139" y="81.2969"/><line style="stroke:#181818;stroke-width:0.5;stroke-dasharray:5,5;" x1="735.3652" x2="735.3652" y1="81.2969" y2="509.1563"/></g><g><title>..controller..</title><rect fill="#000000" fill-opacity="0.00000" height="427.8594" width="8" x="868.8193" y="81.2969"/><line style="stroke:#181818;stroke-width:0.5;stroke-dasharray:5,5;" x1="872.0625" x2="872.0625" y1="81.2969" y2="509.1563"/></g><g><title>..controller..</title><rect fill="#000000" fill-opacity="0.00000" height="427.8594" width="8" x="1007.4082" y="81.2969"/><line style="stroke:#181818;stroke-width:0.5;stroke-dasharray:5,5;" x1="1010.5762" x2="1010.5762" y1="81.2969" y2="509.1563"/></g><g><title>PedidoAfiliacao</title><rect fill="#000000" fill-opacity="0.00000" height="427.8594" width="8" x="1154.6802" y="81.2969"/><line style="stroke:#181818;stroke-width:0.5;stroke-dasharray:5,5;" x1="1158.2402" x2="1158.2402" y1="81.2969" y2="509.1563"/></g><g><title>Candidatos</title><rect fill="#000000" fill-opacity="0.00000" height="427.8594" width="8" x="1275.5293" y="81.2969"/><line style="stroke:#181818;stroke-width:0.5;stroke-dasharray:5,5;" x1="1279.1201" x2="1279.1201" y1="81.2969" y2="509.1563"/></g><g><title>Voluntarios</title><rect fill="#000000" fill-opacity="0.00000" height="427.8594" width="8" x="1382.6143" y="81.2969"/><line style="stroke:#181818;stroke-width:0.5;stroke-dasharray:5,5;" x1="1385.9385" x2="1385.9385" y1="81.2969" y2="509.1563"/></g><g><title>ONGs</title><rect fill="#000000" fill-opacity="0.00000" height="427.8594" width="8" x="1470.1074" y="81.2969"/><line style="stroke:#181818;stroke-width:0.5;stroke-dasharray:5,5;" x1="1473.29" x2="1473.29" y1="81.2969" y2="509.1563"/></g><g><title>Campanhas</title><rect fill="#000000" fill-opacity="0.00000" height="427.8594" width="8" x="1559.4634" y="81.2969"/><line style="stroke:#181818;stroke-width:0.5;stroke-dasharray:5,5;" x1="1562.9248" x2="1562.9248" y1="81.2969" y2="509.1563"/></g><g><title>Recomendacoes</title><rect fill="#000000" fill-opacity="0.00000" height="427.8594" width="8" x="1686.6836" y="81.2969"/><line style="stroke:#181818;stroke-width:0.5;stroke-dasharray:5,5;" x1="1690.002" x2="1690.002" y1="81.2969" y2="509.1563"/></g><g><title>Candidato</title><rect fill="#000000" fill-opacity="0.00000" height="427.8594" width="8" x="1802.1274" y="81.2969"/><line style="stroke:#181818;stroke-width:0.5;stroke-dasharray:5,5;" x1="1805.3652" x2="1805.3652" y1="81.2969" y2="509.1563"/></g><g><title>Voluntario</title><rect fill="#000000" fill-opacity="0.00000" height="427.8594" width="8" x="1889.9185" y="81.2969"/><line style="stroke:#181818;stroke-width:0.5;stroke-dasharray:5,5;" x1="1893.8896" x2="1893.8896" y1="81.2969" y2="509.1563"/></g><g class="participant participant-head" data-participant="representante"><text fill="#000000" font-family="sans-serif" font-size="14" lengthAdjust="spacing" textLength="138.2158" x="5" y="77.9951">Representante R+S</text><ellipse cx="77.1079" cy="13.5" fill="#E2E2F0" rx="8" ry="8" style="stroke:#181818;stroke-width:0.5;"/><path d="M77.1079,21.5 L77.1079,48.5 M64.1079,29.5 L90.1079,29.5 M77.1079,48.5 L64.1079,63.5 M77.1079,48.5 L90.1079,63.5" fill="none" style="stroke:#181818;stroke-width:0.5;"/></g><g class="participant participant-tail" data-participant="representante"><text fill="#000000" font-family="sans-serif" font-size="14" lengthAdjust="spacing" textLength="138.2158" x="5" y="521.1514">Representante R+S</text><ellipse cx="77.1079" cy="532.9531" fill="#E2E2F0" rx="8" ry="8" style="stroke:#181818;stroke-width:0.5;"/><path d="M77.1079,540.9531 L77.1079,567.9531 M64.1079,548.9531 L90.1079,548.9531 M77.1079,567.9531 L64.1079,582.9531 M77.1079,567.9531 L90.1079,582.9531" fill="none" style="stroke:#181818;stroke-width:0.5;"/></g><g class="participant participant-head" data-participant="gui"><text fill="#000000" font-family="sans-serif" font-size="14" font-style="italic" lengthAdjust="spacing" textLength="77.5811" x="324.0464" y="61.6982">&#171;fronteira&#187;</text><text fill="#000000" font-family="sans-serif" font-size="14" lengthAdjust="spacing" textLength="25.2246" x="350.2246" y="77.9951">GUI</text><path d="M345.3369,20.7031 L345.3369,44.7031 M345.3369,32.7031 L362.3369,32.7031" fill="none" style="stroke:#181818;stroke-width:0.5;"/><ellipse cx="374.3369" cy="32.7031" fill="#E2E2F0" rx="12" ry="12" style="stroke:#181818;stroke-width:0.5;"/></g><g class="participant participant-tail" data-participant="gui"><text fill="#000000" font-family="sans-serif" font-size="14" font-style="italic" lengthAdjust="spacing" textLength="77.5811" x="324.0464" y="521.1514">&#171;fronteira&#187;</text><text fill="#000000" font-family="sans-serif" font-size="14" lengthAdjust="spacing" textLength="25.2246" x="350.2246" y="537.4482">GUI</text><path d="M345.3369,544.75 L345.3369,568.75 M345.3369,556.75 L362.3369,556.75" fill="none" style="stroke:#181818;stroke-width:0.5;"/><ellipse cx="374.3369" cy="556.75" fill="#E2E2F0" rx="12" ry="12" style="stroke:#181818;stroke-width:0.5;"/></g><g class="participant participant-head" data-participant="afiliacaoController"><text fill="#000000" font-family="sans-serif" font-size="14" font-style="italic" lengthAdjust="spacing" textLength="84.2256" x="539.8682" y="61.6982">&#171;controller&#187;</text><text fill="#000000" font-family="sans-serif" font-size="14" lengthAdjust="spacing" textLength="128.7686" x="517.5967" y="77.9951">AfiliacaoController</text><ellipse cx="584.981" cy="32.7031" fill="#E2E2F0" rx="12" ry="12" style="stroke:#181818;stroke-width:0.5;"/><polygon fill="#181818" points="580.981,20.7031,586.981,15.7031,584.981,20.7031,586.981,25.7031,580.981,20.7031" style="stroke:#181818;stroke-width:1;"/></g><g class="participant participant-tail" data-participant="afiliacaoController"><text fill="#000000" font-family="sans-serif" font-size="14" font-style="italic" lengthAdjust="spacing" textLength="84.2256" x="539.8682" y="521.1514">&#171;controller&#187;</text><text fill="#000000" font-family="sans-serif" font-size="14" lengthAdjust="spacing" textLength="128.7686" x="517.5967" y="537.4482">AfiliacaoController</text><ellipse cx="584.981" cy="556.75" fill="#E2E2F0" rx="12" ry="12" style="stroke:#181818;stroke-width:0.5;"/><polygon fill="#181818" points="580.981,544.75,586.981,539.75,584.981,544.75,586.981,549.75,580.981,544.75" style="stroke:#181818;stroke-width:1;"/></g><g class="participant participant-head" data-participant="candidatoController"><text fill="#000000" font-family="sans-serif" font-size="14" font-style="italic" lengthAdjust="spacing" textLength="84.2256" x="690.6011" y="61.6982">&#171;controller&#187;</text><text fill="#000000" font-family="sans-serif" font-size="14" lengthAdjust="spacing" textLength="140.6973" x="662.3652" y="77.9951">CandidatoController</text><ellipse cx="735.7139" cy="32.7031" fill="#E2E2F0" rx="12" ry="12" style="stroke:#181818;stroke-width:0.5;"/><polygon fill="#181818" points="731.7139,20.7031,737.7139,15.7031,735.7139,20.7031,737.7139,25.7031,731.7139,20.7031" style="stroke:#181818;stroke-width:1;"/></g><g class="participant participant-tail" data-participant="candidatoController"><text fill="#000000" font-family="sans-serif" font-size="14" font-style="italic" lengthAdjust="spacing" textLength="84.2256" x="690.6011" y="521.1514">&#171;controller&#187;</text><text fill="#000000" font-family="sans-serif" font-size="14" lengthAdjust="spacing" textLength="140.6973" x="662.3652" y="537.4482">CandidatoController</text><ellipse cx="735.7139" cy="556.75" fill="#E2E2F0" rx="12" ry="12" style="stroke:#181818;stroke-width:0.5;"/><polygon fill="#181818" points="731.7139,544.75,737.7139,539.75,735.7139,544.75,737.7139,549.75,731.7139,544.75" style="stroke:#181818;stroke-width:1;"/></g><g class="participant participant-head" data-participant="ongController"><text fill="#000000" font-family="sans-serif" font-size="14" font-style="italic" lengthAdjust="spacing" textLength="84.2256" x="827.7065" y="61.6982">&#171;controller&#187;</text><text fill="#000000" font-family="sans-serif" font-size="14" lengthAdjust="spacing" textLength="101.5137" x="819.0625" y="77.9951">ONGController</text><ellipse cx="872.8193" cy="32.7031" fill="#E2E2F0" rx="12" ry="12" style="stroke:#181818;stroke-width:0.5;"/><polygon fill="#181818" points="868.8193,20.7031,874.8193,15.7031,872.8193,20.7031,874.8193,25.7031,868.8193,20.7031" style="stroke:#181818;stroke-width:1;"/></g><g class="participant participant-tail" data-participant="ongController"><text fill="#000000" font-family="sans-serif" font-size="14" font-style="italic" lengthAdjust="spacing" textLength="84.2256" x="827.7065" y="521.1514">&#171;controller&#187;</text><text fill="#000000" font-family="sans-serif" font-size="14" lengthAdjust="spacing" textLength="101.5137" x="819.0625" y="537.4482">ONGController</text><ellipse cx="872.8193" cy="556.75" fill="#E2E2F0" rx="12" ry="12" style="stroke:#181818;stroke-width:0.5;"/><polygon fill="#181818" points="868.8193,544.75,874.8193,539.75,872.8193,544.75,874.8193,549.75,868.8193,544.75" style="stroke:#181818;stroke-width:1;"/></g><g class="participant participant-head" data-participant="aprovacaoController"><text fill="#000000" font-family="sans-serif" font-size="14" font-style="italic" lengthAdjust="spacing" textLength="84.2256" x="966.2954" y="61.6982">&#171;controller&#187;</text><text fill="#000000" font-family="sans-serif" font-size="14" lengthAdjust="spacing" textLength="143.6641" x="936.5762" y="77.9951">AprovacaoController</text><ellipse cx="1011.4082" cy="32.7031" fill="#E2E2F0" rx="12" ry="12" style="stroke:#181818;stroke-width:0.5;"/><polygon fill="#181818" points="1007.4082,20.7031,1013.4082,15.7031,1011.4082,20.7031,1013.4082,25.7031,1007.4082,20.7031" style="stroke:#181818;stroke-width:1;"/></g><g class="participant participant-tail" data-participant="aprovacaoController"><text fill="#000000" font-family="sans-serif" font-size="14" font-style="italic" lengthAdjust="spacing" textLength="84.2256" x="966.2954" y="521.1514">&#171;controller&#187;</text><text fill="#000000" font-family="sans-serif" font-size="14" lengthAdjust="spacing" textLength="143.6641" x="936.5762" y="537.4482">AprovacaoController</text><ellipse cx="1011.4082" cy="556.75" fill="#E2E2F0" rx="12" ry="12" style="stroke:#181818;stroke-width:0.5;"/><polygon fill="#181818" points="1007.4082,544.75,1013.4082,539.75,1011.4082,544.75,1013.4082,549.75,1007.4082,544.75" style="stroke:#181818;stroke-width:1;"/></g><g class="participant participant-head" data-participant="pedidoAfiliacao"><rect fill="#E2E2F0" height="30.2969" style="stroke:#181818;stroke-width:0.5;" width="120.8799" x="1100.2402" y="46"/><rect fill="#E2E2F0" height="30.2969" style="stroke:#181818;stroke-width:0.5;" width="120.8799" x="1096.2402" y="50"/><text fill="#000000" font-family="sans-serif" font-size="14" lengthAdjust="spacing" textLength="106.8799" x="1103.2402" y="69.9951">PedidoAfiliacao</text></g><g class="participant participant-tail" data-participant="pedidoAfiliacao"><rect fill="#E2E2F0" height="30.2969" style="stroke:#181818;stroke-width:0.5;" width="120.8799" x="1100.2402" y="508.1563"/><rect fill="#E2E2F0" height="30.2969" style="stroke:#181818;stroke-width:0.5;" width="120.8799" x="1096.2402" y="512.1563"/><text fill="#000000" font-family="sans-serif" font-size="14" lengthAdjust="spacing" textLength="106.8799" x="1103.2402" y="532.1514">PedidoAfiliacao</text></g><g class="participant participant-head" data-participant="candidatos"><rect fill="#E2E2F0" height="30.2969" style="stroke:#181818;stroke-width:0.5;" width="92.8184" x="1235.1201" y="46"/><rect fill="#E2E2F0" height="30.2969" style="stroke:#181818;stroke-width:0.5;" width="92.8184" x="1231.1201" y="50"/><text fill="#000000" font-family="sans-serif" font-size="14" lengthAdjust="spacing" textLength="78.8184" x="1238.1201" y="69.9951">Candidatos</text></g><g class="participant participant-tail" data-participant="candidatos"><rect fill="#E2E2F0" height="30.2969" style="stroke:#181818;stroke-width:0.5;" width="92.8184" x="1235.1201" y="508.1563"/><rect fill="#E2E2F0" height="30.2969" style="stroke:#181818;stroke-width:0.5;" width="92.8184" x="1231.1201" y="512.1563"/><text fill="#000000" font-family="sans-serif" font-size="14" lengthAdjust="spacing" textLength="78.8184" x="1238.1201" y="532.1514">Candidatos</text></g><g class="participant participant-head" data-participant="voluntarios"><rect fill="#E2E2F0" height="30.2969" style="stroke:#181818;stroke-width:0.5;" width="93.3516" x="1341.9385" y="46"/><rect fill="#E2E2F0" height="30.2969" style="stroke:#181818;stroke-width:0.5;" width="93.3516" x="1337.9385" y="50"/><text fill="#000000" font-family="sans-serif" font-size="14" lengthAdjust="spacing" textLength="79.3516" x="1344.9385" y="69.9951">Voluntarios</text></g><g class="participant participant-tail" data-participant="voluntarios"><rect fill="#E2E2F0" height="30.2969" style="stroke:#181818;stroke-width:0.5;" width="93.3516" x="1341.9385" y="508.1563"/><rect fill="#E2E2F0" height="30.2969" style="stroke:#181818;stroke-width:0.5;" width="93.3516" x="1337.9385" y="512.1563"/><text fill="#000000" font-family="sans-serif" font-size="14" lengthAdjust="spacing" textLength="79.3516" x="1344.9385" y="532.1514">Voluntarios</text></g><g class="participant participant-head" data-participant="ongs"><rect fill="#E2E2F0" height="30.2969" style="stroke:#181818;stroke-width:0.5;" width="53.6348" x="1449.29" y="46"/><rect fill="#E2E2F0" height="30.2969" style="stroke:#181818;stroke-width:0.5;" width="53.6348" x="1445.29" y="50"/><text fill="#000000" font-family="sans-serif" font-size="14" lengthAdjust="spacing" textLength="39.6348" x="1452.29" y="69.9951">ONGs</text></g><g class="participant participant-tail" data-participant="ongs"><rect fill="#E2E2F0" height="30.2969" style="stroke:#181818;stroke-width:0.5;" width="53.6348" x="1449.29" y="508.1563"/><rect fill="#E2E2F0" height="30.2969" style="stroke:#181818;stroke-width:0.5;" width="53.6348" x="1445.29" y="512.1563"/><text fill="#000000" font-family="sans-serif" font-size="14" lengthAdjust="spacing" textLength="39.6348" x="1452.29" y="532.1514">ONGs</text></g><g class="participant participant-head" data-participant="campanhas"><rect fill="#E2E2F0" height="30.2969" style="stroke:#181818;stroke-width:0.5;" width="97.0771" x="1516.9248" y="46"/><rect fill="#E2E2F0" height="30.2969" style="stroke:#181818;stroke-width:0.5;" width="97.0771" x="1512.9248" y="50"/><text fill="#000000" font-family="sans-serif" font-size="14" lengthAdjust="spacing" textLength="83.0771" x="1519.9248" y="69.9951">Campanhas</text></g><g class="participant participant-tail" data-participant="campanhas"><rect fill="#E2E2F0" height="30.2969" style="stroke:#181818;stroke-width:0.5;" width="97.0771" x="1516.9248" y="508.1563"/><rect fill="#E2E2F0" height="30.2969" style="stroke:#181818;stroke-width:0.5;" width="97.0771" x="1512.9248" y="512.1563"/><text fill="#000000" font-family="sans-serif" font-size="14" lengthAdjust="spacing" textLength="83.0771" x="1519.9248" y="532.1514">Campanhas</text></g><g class="participant participant-head" data-participant="recomendacoes"><rect fill="#E2E2F0" height="30.2969" style="stroke:#181818;stroke-width:0.5;" width="129.3633" x="1628.002" y="46"/><rect fill="#E2E2F0" height="30.2969" style="stroke:#181818;stroke-width:0.5;" width="129.3633" x="1624.002" y="50"/><text fill="#000000" font-family="sans-serif" font-size="14" lengthAdjust="spacing" textLength="115.3633" x="1631.002" y="69.9951">Recomendacoes</text></g><g class="participant participant-tail" data-participant="recomendacoes"><rect fill="#E2E2F0" height="30.2969" style="stroke:#181818;stroke-width:0.5;" width="129.3633" x="1628.002" y="508.1563"/><rect fill="#E2E2F0" height="30.2969" style="stroke:#181818;stroke-width:0.5;" width="129.3633" x="1624.002" y="512.1563"/><text fill="#000000" font-family="sans-serif" font-size="14" lengthAdjust="spacing" textLength="115.3633" x="1631.002" y="532.1514">Recomendacoes</text></g><g class="participant participant-head" data-participant="candidato"><text fill="#000000" font-family="sans-serif" font-size="14" lengthAdjust="spacing" textLength="71.5244" x="1767.3652" y="77.9951">Candidato</text><ellipse cx="1806.1274" cy="49" fill="#E2E2F0" rx="12" ry="12" style="stroke:#181818;stroke-width:0.5;"/><line style="stroke:#181818;stroke-width:0.5;" x1="1794.1274" x2="1818.1274" y1="63" y2="63"/></g><g class="participant participant-tail" data-participant="candidato"><text fill="#000000" font-family="sans-serif" font-size="14" lengthAdjust="spacing" textLength="71.5244" x="1767.3652" y="521.1514">Candidato</text><ellipse cx="1806.1274" cy="540.4531" fill="#E2E2F0" rx="12" ry="12" style="stroke:#181818;stroke-width:0.5;"/><line style="stroke:#181818;stroke-width:0.5;" x1="1794.1274" x2="1818.1274" y1="554.4531" y2="554.4531"/></g><g class="participant participant-head" data-participant="voluntario"><text fill="#000000" font-family="sans-serif" font-size="14" lengthAdjust="spacing" textLength="72.0576" x="1854.8896" y="77.9951">Voluntario</text><ellipse cx="1893.9185" cy="49" fill="#E2E2F0" rx="12" ry="12" style="stroke:#181818;stroke-width:0.5;"/><line style="stroke:#181818;stroke-width:0.5;" x1="1881.9185" x2="1905.9185" y1="63" y2="63"/></g><g class="participant participant-tail" data-participant="voluntario"><text fill="#000000" font-family="sans-serif" font-size="14" lengthAdjust="spacing" textLength="72.0576" x="1854.8896" y="521.1514">Voluntario</text><ellipse cx="1893.9185" cy="540.4531" fill="#E2E2F0" rx="12" ry="12" style="stroke:#181818;stroke-width:0.5;"/><line style="stroke:#181818;stroke-width:0.5;" x1="1881.9185" x2="1905.9185" y1="554.4531" y2="554.4531"/></g><g><title>..fronteira..</title><rect fill="#FFFFFF" height="174.7969" style="stroke:#181818;stroke-width:1;" width="10" x="360.8369" y="112.4297"/></g><g><title>..fronteira..</title><rect fill="#FFFFFF" height="174.7969" style="stroke:#181818;stroke-width:1;" width="10" x="360.8369" y="316.3594"/></g><g><title>..controller..</title><rect fill="#FFFFFF" height="145.6641" style="stroke:#181818;stroke-width:1;" width="10" x="579.981" y="141.5625"/></g><g><title>..controller..</title><rect fill="#FFFFFF" height="145.6641" style="stroke:#181818;stroke-width:1;" width="10" x="730.7139" y="345.4922"/></g><g><title>PedidoAfiliacao</title><rect fill="#FFFFFF" height="87.3984" style="stroke:#181818;stroke-width:1;" width="10" x="1153.6802" y="170.6953"/></g><g><title>Candidatos</title><rect fill="#FFFFFF" height="87.3984" style="stroke:#181818;stroke-width:1;" width="10" x="1274.5293" y="374.625"/></g><g><title>Candidato</title><rect fill="#FFFFFF" height="29.1328" style="stroke:#181818;stroke-width:1;" width="10" x="1801.1274" y="199.8281"/></g><g><title>Candidato</title><rect fill="#FFFFFF" height="29.1328" style="stroke:#181818;stroke-width:1;" width="10" x="1801.1274" y="403.7578"/></g><g class="message" data-participant-1="representante" data-participant-2="gui"><polygon fill="#181818" points="348.8369,108.4297,358.8369,112.4297,348.8369,116.4297,352.8369,112.4297" style="stroke:#181818;stroke-width:1;"/><line style="stroke:#181818;stroke-width:1;" x1="77.1079" x2="354.8369" y1="112.4297" y2="112.4297"/><text fill="#000000" font-family="sans-serif" font-size="13" lengthAdjust="spacing" textLength="190.144" x="84.1079" y="107.3638">buscaCandidatosPendentes()</text></g><g class="message" data-participant-1="gui" data-participant-2="afiliacaoController"><polygon fill="#181818" points="567.981,137.5625,577.981,141.5625,567.981,145.5625,571.981,141.5625" style="stroke:#181818;stroke-width:1;"/><line style="stroke:#181818;stroke-width:1;" x1="370.8369" x2="573.981" y1="141.5625" y2="141.5625"/><text fill="#000000" font-family="sans-serif" font-size="13" lengthAdjust="spacing" textLength="190.144" x="377.8369" y="136.4966">buscaCandidatosPendentes()</text></g><g class="message" data-participant-1="afiliacaoController" data-participant-2="pedidoAfiliacao"><polygon fill="#181818" points="1141.6802,166.6953,1151.6802,170.6953,1141.6802,174.6953,1145.6802,170.6953" style="stroke:#181818;stroke-width:1;"/><line style="stroke:#181818;stroke-width:1;" x1="589.981" x2="1147.6802" y1="170.6953" y2="170.6953"/><text fill="#000000" font-family="sans-serif" font-size="13" lengthAdjust="spacing" textLength="190.144" x="596.981" y="165.6294">buscaCandidatosPendentes()</text></g><g class="message" data-participant-1="pedidoAfiliacao" data-participant-2="candidato"><polygon fill="#181818" points="1789.1274,195.8281,1799.1274,199.8281,1789.1274,203.8281,1793.1274,199.8281" style="stroke:#181818;stroke-width:1;"/><line style="stroke:#181818;stroke-width:1;" x1="1163.6802" x2="1795.1274" y1="199.8281" y2="199.8281"/><text fill="#000000" font-family="sans-serif" font-size="13" lengthAdjust="spacing" textLength="97.9063" x="1170.6802" y="194.7622">getCandidato()</text></g><g class="message" data-participant-1="candidato" data-participant-2="pedidoAfiliacao"><polygon fill="#181818" points="1174.6802,224.9609,1164.6802,228.9609,1174.6802,232.9609,1170.6802,228.9609" style="stroke:#181818;stroke-width:1;"/><line style="stroke:#181818;stroke-width:1;stroke-dasharray:2,2;" x1="1168.6802" x2="1805.1274" y1="228.9609" y2="228.9609"/><text fill="#000000" font-family="sans-serif" font-size="13" lengthAdjust="spacing" textLength="66.4155" x="1180.6802" y="223.895">Candidato</text></g><g class="message" data-participant-1="pedidoAfiliacao" data-participant-2="afiliacaoController"><polygon fill="#181818" points="600.981,254.0938,590.981,258.0938,600.981,262.0938,596.981,258.0938" style="stroke:#181818;stroke-width:1;"/><line style="stroke:#181818;stroke-width:1;stroke-dasharray:2,2;" x1="594.981" x2="1157.6802" y1="258.0938" y2="258.0938"/><text fill="#000000" font-family="sans-serif" font-size="13" lengthAdjust="spacing" textLength="73.1885" x="606.981" y="253.0278">Candidatos</text></g><g class="message" data-participant-1="afiliacaoController" data-participant-2="gui"><polygon fill="#181818" points="376.8369,283.2266,366.8369,287.2266,376.8369,291.2266,372.8369,287.2266" style="stroke:#181818;stroke-width:1;"/><line style="stroke:#181818;stroke-width:1;stroke-dasharray:2,2;" x1="370.8369" x2="583.981" y1="287.2266" y2="287.2266"/><text fill="#000000" font-family="sans-serif" font-size="13" lengthAdjust="spacing" textLength="73.1885" x="382.8369" y="282.1606">Candidatos</text></g><g class="message" data-participant-1="representante" data-participant-2="gui"><polygon fill="#181818" points="348.8369,312.3594,358.8369,316.3594,348.8369,320.3594,352.8369,316.3594" style="stroke:#181818;stroke-width:1;"/><line style="stroke:#181818;stroke-width:1;" x1="77.1079" x2="354.8369" y1="316.3594" y2="316.3594"/><text fill="#000000" font-family="sans-serif" font-size="13" lengthAdjust="spacing" textLength="264.729" x="84.1079" y="311.2935">exibeInformacaoDetalhadaCandidato(id)</text></g><g class="message" data-participant-1="gui" data-participant-2="candidatoController"><polygon fill="#181818" points="718.7139,341.4922,728.7139,345.4922,718.7139,349.4922,722.7139,345.4922" style="stroke:#181818;stroke-width:1;"/><line style="stroke:#181818;stroke-width:1;" x1="370.8369" x2="724.7139" y1="345.4922" y2="345.4922"/><text fill="#000000" font-family="sans-serif" font-size="13" lengthAdjust="spacing" textLength="264.729" x="377.8369" y="340.4263">exibeInformacaoDetalhadaCandidato(id)</text></g><g class="message" data-participant-1="candidatoController" data-participant-2="candidatos"><polygon fill="#181818" points="1262.5293,370.625,1272.5293,374.625,1262.5293,378.625,1266.5293,374.625" style="stroke:#181818;stroke-width:1;"/><line style="stroke:#181818;stroke-width:1;" x1="740.7139" x2="1268.5293" y1="374.625" y2="374.625"/><text fill="#000000" font-family="sans-serif" font-size="13" lengthAdjust="spacing" textLength="126.8008" x="747.7139" y="369.5591">buscaCandidato(id)</text></g><g class="message" data-participant-1="candidatos" data-participant-2="candidato"><polygon fill="#181818" points="1789.1274,399.7578,1799.1274,403.7578,1789.1274,407.7578,1793.1274,403.7578" style="stroke:#181818;stroke-width:1;"/><line style="stroke:#181818;stroke-width:1;" x1="1284.5293" x2="1795.1274" y1="403.7578" y2="403.7578"/><text fill="#000000" font-family="sans-serif" font-size="13" lengthAdjust="spacing" textLength="43.3545" x="1291.5293" y="398.6919">get(id)</text></g><g class="message" data-participant-1="candidato" data-participant-2="candidatos"><polygon fill="#181818" points="1295.5293,428.8906,1285.5293,432.8906,1295.5293,436.8906,1291.5293,432.8906" style="stroke:#181818;stroke-width:1;"/><line style="stroke:#181818;stroke-width:1;stroke-dasharray:2,2;" x1="1289.5293" x2="1805.1274" y1="432.8906" y2="432.8906"/><text fill="#000000" font-family="sans-serif" font-size="13" lengthAdjust="spacing" textLength="66.4155" x="1301.5293" y="427.8247">Candidato</text></g><g class="message" data-participant-1="candidatos" data-participant-2="candidatoController"><polygon fill="#181818" points="751.7139,458.0234,741.7139,462.0234,751.7139,466.0234,747.7139,462.0234" style="stroke:#181818;stroke-width:1;"/><line style="stroke:#181818;stroke-width:1;stroke-dasharray:2,2;" x1="745.7139" x2="1278.5293" y1="462.0234" y2="462.0234"/><text fill="#000000" font-family="sans-serif" font-size="13" lengthAdjust="spacing" textLength="66.4155" x="757.7139" y="456.9575">Candidato</text></g><g class="message" data-participant-1="candidatoController" data-participant-2="gui"><polygon fill="#181818" points="376.8369,487.1563,366.8369,491.1563,376.8369,495.1563,372.8369,491.1563" style="stroke:#181818;stroke-width:1;"/><line style="stroke:#181818;stroke-width:1;stroke-dasharray:2,2;" x1="370.8369" x2="734.7139" y1="491.1563" y2="491.1563"/><text fill="#000000" font-family="sans-serif" font-size="13" lengthAdjust="spacing" textLength="66.4155" x="382.8369" y="486.0903">Candidato</text></g><!--SRC=[bLJBRi8m4BpxAwoSg2f-024aH2N4fKLKxNrn35WASMGdgFnzDm4Ssrc7rgTul3kpZr50rDhmR2Sh8wqiQoXhoNUldna7ousFihrkoXpCbMVhhqttVcmKdyyFHkEpCh1OC86VHXSyMnvKeK20NjsGGfek1OOuKWXtyJbMKEOgXphc44CyoV7nlewoTNdiaLJQiZBwGfK_n0SK-25gfKlBiwt4GhMRHKTHXLYOu5gsOQSs3FlMHODRCUeUT-dlOI2sRnzTsrZgN45vWeVI_HO6xQJGPubh5rhQkoSyXA4tL7trwWxBTkzzmL6zZB70PNowQ6qru_l62kZ7iKL9395syi80gxi0nc8WOnnFQqHC9CmrIjIcEZ8Y-KRUHH6sHS5ebq_50i7O22wYFT5ZA-QcEkD7MJiHZpgWxvV0epC0N2YVKaqvgR34N19QuqsaTjHFB2cHd1QvceUBF6A2arovzzxQAcbG-QFsSbCUj3ct56-oXk84UR_zYSf7l4hynFxAIQ-PiYtrf_IrRUnOnqzhHElfyQ4_0wQ4CPyOqI_pFnvCbPYQEi5DyThniGuiTsEZcD9s-mK0]--></g></svg>