<svg xmlns="http://www.w3.org/2000/svg" xmlns:xlink="http://www.w3.org/1999/xlink" contentStyleType="text/css" data-diagram-type="SEQUENCE" height="710px" preserveAspectRatio="none" style="width:1653px;height:710px;background:#FFFFFF;" version="1.1" viewBox="0 0 1653 710" width="1653px" zoomAndPan="magnify"><defs/><g><g><title>..fronteira..</title><rect fill="#FFFFFF" height="498.9922" style="stroke:#181818;stroke-width:1;" width="10" x="388.7476" y="112.4297"/></g><g><title>..controller..</title><rect fill="#FFFFFF" height="469.8594" style="stroke:#181818;stroke-width:1;" width="10" x="710.3872" y="141.5625"/></g><g><title>ONGs</title><rect fill="#FFFFFF" height="203.9297" style="stroke:#181818;stroke-width:1;" width="10" x="969.3818" y="170.6953"/></g><g><title>Campanhas</title><rect fill="#FFFFFF" height="30" style="stroke:#181818;stroke-width:1;" width="10" x="1058.7378" y="516.1563"/></g><g><title>Perfis</title><rect fill="#FFFFFF" height="87.3984" style="stroke:#181818;stroke-width:1;" width="10" x="1147.7383" y="228.9609"/></g><g><title>Perfil</title><rect fill="#FFFFFF" height="29.1328" style="stroke:#181818;stroke-width:1;" width="10" x="1274.6064" y="258.0938"/></g><g><title>ONG</title><rect fill="#FFFFFF" height="145.6641" style="stroke:#181818;stroke-width:1;" width="10" x="1324.5366" y="199.8281"/></g><g><title>ONG</title><rect fill="#FFFFFF" height="30" style="stroke:#181818;stroke-width:1;" width="10" x="1324.5366" y="457.0234"/></g><g><title>Recomendacao</title><rect fill="#FFFFFF" height="178.5313" style="stroke:#181818;stroke-width:1;" width="10" x="1498.249" y="403.7578"/></g><rect fill="none" height="135.3984" style="stroke:#000000;stroke-width:1.5;" width="567.0674" x="1003.1992" y="418.7578"/><g><title>Representante R.S</title><rect fill="#000000" fill-opacity="0.00000" height="548.125" width="8" x="73.1079" y="81.2969"/><line style="stroke:#181818;stroke-width:0.5;stroke-dasharray:5,5;" x1="77" x2="77" y1="81.2969" y2="629.4219"/></g><g><title>..fronteira..</title><rect fill="#000000" fill-opacity="0.00000" height="548.125" width="8" x="389.7476" y="81.2969"/><line style="stroke:#181818;stroke-width:0.5;stroke-dasharray:5,5;" x1="392.957" x2="392.957" y1="81.2969" y2="629.4219"/></g><g><title>..controller..</title><rect fill="#000000" fill-opacity="0.00000" height="548.125" width="8" x="514.8867" y="81.2969"/><line style="stroke:#181818;stroke-width:0.5;stroke-dasharray:5,5;" x1="518.5381" x2="518.5381" y1="81.2969" y2="629.4219"/></g><g><title>..controller..</title><rect fill="#000000" fill-opacity="0.00000" height="548.125" width="8" x="711.3872" y="81.2969"/><line style="stroke:#181818;stroke-width:0.5;stroke-dasharray:5,5;" x1="714.6304" x2="714.6304" y1="81.2969" y2="629.4219"/></g><g><title>Candidatos</title><rect fill="#000000" fill-opacity="0.00000" height="548.125" width="8" x="823.5532" y="81.2969"/><line style="stroke:#181818;stroke-width:0.5;stroke-dasharray:5,5;" x1="827.144" x2="827.144" y1="81.2969" y2="629.4219"/></g><g><title>ONGs</title><rect fill="#000000" fill-opacity="0.00000" height="548.125" width="8" x="970.3818" y="81.2969"/><line style="stroke:#181818;stroke-width:0.5;stroke-dasharray:5,5;" x1="973.5645" x2="973.5645" y1="81.2969" y2="629.4219"/></g><g><title>Campanhas</title><rect fill="#000000" fill-opacity="0.00000" height="548.125" width="8" x="1059.7378" y="81.2969"/><line style="stroke:#181818;stroke-width:0.5;stroke-dasharray:5,5;" x1="1063.1992" x2="1063.1992" y1="81.2969" y2="629.4219"/></g><g><title>Perfis</title><rect fill="#000000" fill-opacity="0.00000" height="548.125" width="8" x="1148.7383" y="81.2969"/><line style="stroke:#181818;stroke-width:0.5;stroke-dasharray:5,5;" x1="1152.2764" x2="1152.2764" y1="81.2969" y2="629.4219"/></g><g><title>Perfil</title><rect fill="#000000" fill-opacity="0.00000" height="548.125" width="8" x="1275.6064" y="81.2969"/><line style="stroke:#181818;stroke-width:0.5;stroke-dasharray:5,5;" x1="1278.8467" x2="1278.8467" y1="81.2969" y2="629.4219"/></g><g><title>ONG</title><rect fill="#000000" fill-opacity="0.00000" height="548.125" width="8" x="1325.5366" y="81.2969"/><line style="stroke:#181818;stroke-width:0.5;stroke-dasharray:5,5;" x1="1329.3662" x2="1329.3662" y1="81.2969" y2="629.4219"/></g><g><title>Candidato</title><rect fill="#000000" fill-opacity="0.00000" height="548.125" width="8" x="1393.4692" y="81.2969"/><line style="stroke:#181818;stroke-width:0.5;stroke-dasharray:5,5;" x1="1396.707" x2="1396.707" y1="81.2969" y2="629.4219"/></g><g><title>Recomendacao</title><rect fill="#000000" fill-opacity="0.00000" height="548.125" width="8" x="1499.249" y="81.2969"/><line style="stroke:#181818;stroke-width:0.5;stroke-dasharray:5,5;" x1="1503.2314" x2="1503.2314" y1="81.2969" y2="629.4219"/></g><g><title>Campanha</title><rect fill="#000000" fill-opacity="0.00000" height="548.125" width="8" x="1607.1582" y="81.2969"/><line style="stroke:#181818;stroke-width:0.5;stroke-dasharray:5,5;" x1="1610.2666" x2="1610.2666" y1="81.2969" y2="629.4219"/></g><g class="participant participant-head" data-participant="representante"><text fill="#000000" font-family="sans-serif" font-size="14" lengthAdjust="spacing" textLength="138.2158" x="5" y="77.9951">Representante R+S</text><ellipse cx="77.1079" cy="13.5" fill="#E2E2F0" rx="8" ry="8" style="stroke:#181818;stroke-width:0.5;"/><path d="M77.1079,21.5 L77.1079,48.5 M64.1079,29.5 L90.1079,29.5 M77.1079,48.5 L64.1079,63.5 M77.1079,48.5 L90.1079,63.5" fill="none" style="stroke:#181818;stroke-width:0.5;"/></g><g class="participant participant-tail" data-participant="representante"><text fill="#000000" font-family="sans-serif" font-size="14" lengthAdjust="spacing" textLength="138.2158" x="5" y="641.417">Representante R+S</text><ellipse cx="77.1079" cy="653.2188" fill="#E2E2F0" rx="8" ry="8" style="stroke:#181818;stroke-width:0.5;"/><path d="M77.1079,661.2188 L77.1079,688.2188 M64.1079,669.2188 L90.1079,669.2188 M77.1079,688.2188 L64.1079,703.2188 M77.1079,688.2188 L90.1079,703.2188" fill="none" style="stroke:#181818;stroke-width:0.5;"/></g><g class="participant participant-head" data-participant="gui"><text fill="#000000" font-family="sans-serif" font-size="14" font-style="italic" lengthAdjust="spacing" textLength="77.5811" x="351.957" y="61.6982">&#171;fronteira&#187;</text><text fill="#000000" font-family="sans-serif" font-size="14" lengthAdjust="spacing" textLength="25.2246" x="378.1353" y="77.9951">GUI</text><path d="M373.2476,20.7031 L373.2476,44.7031 M373.2476,32.7031 L390.2476,32.7031" fill="none" style="stroke:#181818;stroke-width:0.5;"/><ellipse cx="402.2476" cy="32.7031" fill="#E2E2F0" rx="12" ry="12" style="stroke:#181818;stroke-width:0.5;"/></g><g class="participant participant-tail" data-participant="gui"><text fill="#000000" font-family="sans-serif" font-size="14" font-style="italic" lengthAdjust="spacing" textLength="77.5811" x="351.957" y="641.417">&#171;fronteira&#187;</text><text fill="#000000" font-family="sans-serif" font-size="14" lengthAdjust="spacing" textLength="25.2246" x="378.1353" y="657.7139">GUI</text><path d="M373.2476,665.0156 L373.2476,689.0156 M373.2476,677.0156 L390.2476,677.0156" fill="none" style="stroke:#181818;stroke-width:0.5;"/><ellipse cx="402.2476" cy="677.0156" fill="#E2E2F0" rx="12" ry="12" style="stroke:#181818;stroke-width:0.5;"/></g><g class="participant participant-head" data-participant="candidatoController"><text fill="#000000" font-family="sans-serif" font-size="14" font-style="italic" lengthAdjust="spacing" textLength="84.2256" x="473.7739" y="61.6982">&#171;controller&#187;</text><text fill="#000000" font-family="sans-serif" font-size="14" lengthAdjust="spacing" textLength="140.6973" x="445.5381" y="77.9951">CandidatoController</text><ellipse cx="518.8867" cy="32.7031" fill="#E2E2F0" rx="12" ry="12" style="stroke:#181818;stroke-width:0.5;"/><polygon fill="#181818" points="514.8867,20.7031,520.8867,15.7031,518.8867,20.7031,520.8867,25.7031,514.8867,20.7031" style="stroke:#181818;stroke-width:1;"/></g><g class="participant participant-tail" data-participant="candidatoController"><text fill="#000000" font-family="sans-serif" font-size="14" font-style="italic" lengthAdjust="spacing" textLength="84.2256" x="473.7739" y="641.417">&#171;controller&#187;</text><text fill="#000000" font-family="sans-serif" font-size="14" lengthAdjust="spacing" textLength="140.6973" x="445.5381" y="657.7139">CandidatoController</text><ellipse cx="518.8867" cy="677.0156" fill="#E2E2F0" rx="12" ry="12" style="stroke:#181818;stroke-width:0.5;"/><polygon fill="#181818" points="514.8867,665.0156,520.8867,660.0156,518.8867,665.0156,520.8867,670.0156,514.8867,665.0156" style="stroke:#181818;stroke-width:1;"/></g><g class="participant participant-head" data-participant="ongController"><text fill="#000000" font-family="sans-serif" font-size="14" font-style="italic" lengthAdjust="spacing" textLength="84.2256" x="670.2744" y="61.6982">&#171;controller&#187;</text><text fill="#000000" font-family="sans-serif" font-size="14" lengthAdjust="spacing" textLength="101.5137" x="661.6304" y="77.9951">ONGController</text><ellipse cx="715.3872" cy="32.7031" fill="#E2E2F0" rx="12" ry="12" style="stroke:#181818;stroke-width:0.5;"/><polygon fill="#181818" points="711.3872,20.7031,717.3872,15.7031,715.3872,20.7031,717.3872,25.7031,711.3872,20.7031" style="stroke:#181818;stroke-width:1;"/></g><g class="participant participant-tail" data-participant="ongController"><text fill="#000000" font-family="sans-serif" font-size="14" font-style="italic" lengthAdjust="spacing" textLength="84.2256" x="670.2744" y="641.417">&#171;controller&#187;</text><text fill="#000000" font-family="sans-serif" font-size="14" lengthAdjust="spacing" textLength="101.5137" x="661.6304" y="657.7139">ONGController</text><ellipse cx="715.3872" cy="677.0156" fill="#E2E2F0" rx="12" ry="12" style="stroke:#181818;stroke-width:0.5;"/><polygon fill="#181818" points="711.3872,665.0156,717.3872,660.0156,715.3872,665.0156,717.3872,670.0156,711.3872,665.0156" style="stroke:#181818;stroke-width:1;"/></g><g class="participant participant-head" data-participant="candidatos"><rect fill="#E2E2F0" height="30.2969" style="stroke:#181818;stroke-width:0.5;" width="92.8184" x="783.144" y="46"/><rect fill="#E2E2F0" height="30.2969" style="stroke:#181818;stroke-width:0.5;" width="92.8184" x="779.144" y="50"/><text fill="#000000" font-family="sans-serif" font-size="14" lengthAdjust="spacing" textLength="78.8184" x="786.144" y="69.9951">Candidatos</text></g><g class="participant participant-tail" data-participant="candidatos"><rect fill="#E2E2F0" height="30.2969" style="stroke:#181818;stroke-width:0.5;" width="92.8184" x="783.144" y="628.4219"/><rect fill="#E2E2F0" height="30.2969" style="stroke:#181818;stroke-width:0.5;" width="92.8184" x="779.144" y="632.4219"/><text fill="#000000" font-family="sans-serif" font-size="14" lengthAdjust="spacing" textLength="78.8184" x="786.144" y="652.417">Candidatos</text></g><g class="participant participant-head" data-participant="ongs"><rect fill="#E2E2F0" height="30.2969" style="stroke:#181818;stroke-width:0.5;" width="53.6348" x="949.5645" y="46"/><rect fill="#E2E2F0" height="30.2969" style="stroke:#181818;stroke-width:0.5;" width="53.6348" x="945.5645" y="50"/><text fill="#000000" font-family="sans-serif" font-size="14" lengthAdjust="spacing" textLength="39.6348" x="952.5645" y="69.9951">ONGs</text></g><g class="participant participant-tail" data-participant="ongs"><rect fill="#E2E2F0" height="30.2969" style="stroke:#181818;stroke-width:0.5;" width="53.6348" x="949.5645" y="628.4219"/><rect fill="#E2E2F0" height="30.2969" style="stroke:#181818;stroke-width:0.5;" width="53.6348" x="945.5645" y="632.4219"/><text fill="#000000" font-family="sans-serif" font-size="14" lengthAdjust="spacing" textLength="39.6348" x="952.5645" y="652.417">ONGs</text></g><g class="participant participant-head" data-participant="campanhas"><rect fill="#E2E2F0" height="30.2969" style="stroke:#181818;stroke-width:0.5;" width="97.0771" x="1017.1992" y="46"/><rect fill="#E2E2F0" height="30.2969" style="stroke:#181818;stroke-width:0.5;" width="97.0771" x="1013.1992" y="50"/><text fill="#000000" font-family="sans-serif" font-size="14" lengthAdjust="spacing" textLength="83.0771" x="1020.1992" y="69.9951">Campanhas</text></g><g class="participant participant-tail" data-participant="campanhas"><rect fill="#E2E2F0" height="30.2969" style="stroke:#181818;stroke-width:0.5;" width="97.0771" x="1017.1992" y="628.4219"/><rect fill="#E2E2F0" height="30.2969" style="stroke:#181818;stroke-width:0.5;" width="97.0771" x="1013.1992" y="632.4219"/><text fill="#000000" font-family="sans-serif" font-size="14" lengthAdjust="spacing" textLength="83.0771" x="1020.1992" y="652.417">Campanhas</text></g><g class="participant participant-head" data-participant="perfis"><rect fill="#E2E2F0" height="30.2969" style="stroke:#181818;stroke-width:0.5;" width="52.9238" x="1128.2764" y="46"/><rect fill="#E2E2F0" height="30.2969" style="stroke:#181818;stroke-width:0.5;" width="52.9238" x="1124.2764" y="50"/><text fill="#000000" font-family="sans-serif" font-size="14" lengthAdjust="spacing" textLength="38.9238" x="1131.2764" y="69.9951">Perfis</text></g><g class="participant participant-tail" data-participant="perfis"><rect fill="#E2E2F0" height="30.2969" style="stroke:#181818;stroke-width:0.5;" width="52.9238" x="1128.2764" y="628.4219"/><rect fill="#E2E2F0" height="30.2969" style="stroke:#181818;stroke-width:0.5;" width="52.9238" x="1124.2764" y="632.4219"/><text fill="#000000" font-family="sans-serif" font-size="14" lengthAdjust="spacing" textLength="38.9238" x="1131.2764" y="652.417">Perfis</text></g><g class="participant participant-head" data-participant="perfil"><text fill="#000000" font-family="sans-serif" font-size="14" lengthAdjust="spacing" textLength="35.5195" x="1258.8467" y="77.9951">Perfil</text><ellipse cx="1279.6064" cy="49" fill="#E2E2F0" rx="12" ry="12" style="stroke:#181818;stroke-width:0.5;"/><line style="stroke:#181818;stroke-width:0.5;" x1="1267.6064" x2="1291.6064" y1="63" y2="63"/></g><g class="participant participant-tail" data-participant="perfil"><text fill="#000000" font-family="sans-serif" font-size="14" lengthAdjust="spacing" textLength="35.5195" x="1258.8467" y="641.417">Perfil</text><ellipse cx="1279.6064" cy="660.7188" fill="#E2E2F0" rx="12" ry="12" style="stroke:#181818;stroke-width:0.5;"/><line style="stroke:#181818;stroke-width:0.5;" x1="1267.6064" x2="1291.6064" y1="674.7188" y2="674.7188"/></g><g class="participant participant-head" data-participant="ong"><text fill="#000000" font-family="sans-serif" font-size="14" lengthAdjust="spacing" textLength="32.3408" x="1310.3662" y="77.9951">ONG</text><ellipse cx="1329.5366" cy="49" fill="#E2E2F0" rx="12" ry="12" style="stroke:#181818;stroke-width:0.5;"/><line style="stroke:#181818;stroke-width:0.5;" x1="1317.5366" x2="1341.5366" y1="63" y2="63"/></g><g class="participant participant-tail" data-participant="ong"><text fill="#000000" font-family="sans-serif" font-size="14" lengthAdjust="spacing" textLength="32.3408" x="1310.3662" y="641.417">ONG</text><ellipse cx="1329.5366" cy="660.7188" fill="#E2E2F0" rx="12" ry="12" style="stroke:#181818;stroke-width:0.5;"/><line style="stroke:#181818;stroke-width:0.5;" x1="1317.5366" x2="1341.5366" y1="674.7188" y2="674.7188"/></g><g class="participant participant-head" data-participant="candidato"><text fill="#000000" font-family="sans-serif" font-size="14" lengthAdjust="spacing" textLength="71.5244" x="1358.707" y="77.9951">Candidato</text><ellipse cx="1397.4692" cy="49" fill="#E2E2F0" rx="12" ry="12" style="stroke:#181818;stroke-width:0.5;"/><line style="stroke:#181818;stroke-width:0.5;" x1="1385.4692" x2="1409.4692" y1="63" y2="63"/></g><g class="participant participant-tail" data-participant="candidato"><text fill="#000000" font-family="sans-serif" font-size="14" lengthAdjust="spacing" textLength="71.5244" x="1358.707" y="641.417">Candidato</text><ellipse cx="1397.4692" cy="660.7188" fill="#E2E2F0" rx="12" ry="12" style="stroke:#181818;stroke-width:0.5;"/><line style="stroke:#181818;stroke-width:0.5;" x1="1385.4692" x2="1409.4692" y1="674.7188" y2="674.7188"/></g><g class="participant participant-head" data-participant="recomendacao"><text fill="#000000" font-family="sans-serif" font-size="14" lengthAdjust="spacing" textLength="108.0352" x="1446.2314" y="77.9951">Recomendacao</text><ellipse cx="1503.249" cy="49" fill="#E2E2F0" rx="12" ry="12" style="stroke:#181818;stroke-width:0.5;"/><line style="stroke:#181818;stroke-width:0.5;" x1="1491.249" x2="1515.249" y1="63" y2="63"/></g><g class="participant participant-tail" data-participant="recomendacao"><text fill="#000000" font-family="sans-serif" font-size="14" lengthAdjust="spacing" textLength="108.0352" x="1446.2314" y="641.417">Recomendacao</text><ellipse cx="1503.249" cy="660.7188" fill="#E2E2F0" rx="12" ry="12" style="stroke:#181818;stroke-width:0.5;"/><line style="stroke:#181818;stroke-width:0.5;" x1="1491.249" x2="1515.249" y1="674.7188" y2="674.7188"/></g><g class="participant participant-head" data-participant="campanha"><text fill="#000000" font-family="sans-serif" font-size="14" lengthAdjust="spacing" textLength="75.7832" x="1570.2666" y="77.9951">Campanha</text><ellipse cx="1611.1582" cy="49" fill="#E2E2F0" rx="12" ry="12" style="stroke:#181818;stroke-width:0.5;"/><line style="stroke:#181818;stroke-width:0.5;" x1="1599.1582" x2="1623.1582" y1="63" y2="63"/></g><g class="participant participant-tail" data-participant="campanha"><text fill="#000000" font-family="sans-serif" font-size="14" lengthAdjust="spacing" textLength="75.7832" x="1570.2666" y="641.417">Campanha</text><ellipse cx="1611.1582" cy="660.7188" fill="#E2E2F0" rx="12" ry="12" style="stroke:#181818;stroke-width:0.5;"/><line style="stroke:#181818;stroke-width:0.5;" x1="1599.1582" x2="1623.1582" y1="674.7188" y2="674.7188"/></g><g><title>..fronteira..</title><rect fill="#FFFFFF" height="498.9922" style="stroke:#181818;stroke-width:1;" width="10" x="388.7476" y="112.4297"/></g><g><title>..controller..</title><rect fill="#FFFFFF" height="469.8594" style="stroke:#181818;stroke-width:1;" width="10" x="710.3872" y="141.5625"/></g><g><title>ONGs</title><rect fill="#FFFFFF" height="203.9297" style="stroke:#181818;stroke-width:1;" width="10" x="969.3818" y="170.6953"/></g><g><title>Campanhas</title><rect fill="#FFFFFF" height="30" style="stroke:#181818;stroke-width:1;" width="10" x="1058.7378" y="516.1563"/></g><g><title>Perfis</title><rect fill="#FFFFFF" height="87.3984" style="stroke:#181818;stroke-width:1;" width="10" x="1147.7383" y="228.9609"/></g><g><title>Perfil</title><rect fill="#FFFFFF" height="29.1328" style="stroke:#181818;stroke-width:1;" width="10" x="1274.6064" y="258.0938"/></g><g><title>ONG</title><rect fill="#FFFFFF" height="145.6641" style="stroke:#181818;stroke-width:1;" width="10" x="1324.5366" y="199.8281"/></g><g><title>ONG</title><rect fill="#FFFFFF" height="30" style="stroke:#181818;stroke-width:1;" width="10" x="1324.5366" y="457.0234"/></g><g><title>Recomendacao</title><rect fill="#FFFFFF" height="178.5313" style="stroke:#181818;stroke-width:1;" width="10" x="1498.249" y="403.7578"/></g><g class="message" data-participant-1="representante" data-participant-2="gui"><polygon fill="#181818" points="376.7476,108.4297,386.7476,112.4297,376.7476,116.4297,380.7476,112.4297" style="stroke:#181818;stroke-width:1;"/><line style="stroke:#181818;stroke-width:1;" x1="77.1079" x2="382.7476" y1="112.4297" y2="112.4297"/><text fill="#000000" font-family="sans-serif" font-size="13" lengthAdjust="spacing" textLength="292.6396" x="84.1079" y="107.3638">solicita&#231;&#227;oRecomendacaoOngParceira(perfil)</text></g><g class="message" data-participant-1="gui" data-participant-2="ongController"><polygon fill="#181818" points="698.3872,137.5625,708.3872,141.5625,698.3872,145.5625,702.3872,141.5625" style="stroke:#181818;stroke-width:1;"/><line style="stroke:#181818;stroke-width:1;" x1="398.7476" x2="704.3872" y1="141.5625" y2="141.5625"/><text fill="#000000" font-family="sans-serif" font-size="13" lengthAdjust="spacing" textLength="292.6396" x="405.7476" y="136.4966">solicita&#231;&#227;oRecomendacaoOngParceira(perfil)</text></g><g class="message" data-participant-1="ongController" data-participant-2="ongs"><polygon fill="#181818" points="957.3818,166.6953,967.3818,170.6953,957.3818,174.6953,961.3818,170.6953" style="stroke:#181818;stroke-width:1;"/><line style="stroke:#181818;stroke-width:1;" x1="720.3872" x2="963.3818" y1="170.6953" y2="170.6953"/><text fill="#000000" font-family="sans-serif" font-size="13" lengthAdjust="spacing" textLength="229.9946" x="727.3872" y="165.6294">filtroONGDeAcordoComPerfil(perfil)</text></g><g class="message" data-participant-1="ongs" data-participant-2="ong"><polygon fill="#181818" points="1312.5366,195.8281,1322.5366,199.8281,1312.5366,203.8281,1316.5366,199.8281" style="stroke:#181818;stroke-width:1;"/><line style="stroke:#181818;stroke-width:1;" x1="979.3818" x2="1318.5366" y1="199.8281" y2="199.8281"/><text fill="#000000" font-family="sans-serif" font-size="13" lengthAdjust="spacing" textLength="217.7119" x="986.3818" y="194.7622">retornaDeAcordoComPerfil(perfil)</text></g><g class="message" data-participant-1="ong" data-participant-2="perfis"><polygon fill="#181818" points="1168.7383,224.9609,1158.7383,228.9609,1168.7383,232.9609,1164.7383,228.9609" style="stroke:#181818;stroke-width:1;"/><line style="stroke:#181818;stroke-width:1;" x1="1162.7383" x2="1323.5366" y1="228.9609" y2="228.9609"/><text fill="#000000" font-family="sans-serif" font-size="13" lengthAdjust="spacing" textLength="126.769" x="1174.7383" y="223.895">procuraPerfil(perfil)</text></g><g class="message" data-participant-1="perfis" data-participant-2="perfil"><polygon fill="#181818" points="1262.6064,254.0938,1272.6064,258.0938,1262.6064,262.0938,1266.6064,258.0938" style="stroke:#181818;stroke-width:1;"/><line style="stroke:#181818;stroke-width:1;" x1="1157.7383" x2="1268.6064" y1="258.0938" y2="258.0938"/><text fill="#000000" font-family="sans-serif" font-size="13" lengthAdjust="spacing" textLength="97.8682" x="1164.7383" y="253.0278">getPerfil(perfil)</text></g><g class="message" data-participant-1="perfil" data-participant-2="perfis"><polygon fill="#181818" points="1168.7383,283.2266,1158.7383,287.2266,1168.7383,291.2266,1164.7383,287.2266" style="stroke:#181818;stroke-width:1;"/><line style="stroke:#181818;stroke-width:1;stroke-dasharray:2,2;" x1="1162.7383" x2="1278.6064" y1="287.2266" y2="287.2266"/><text fill="#000000" font-family="sans-serif" font-size="13" lengthAdjust="spacing" textLength="33.395" x="1174.7383" y="282.1606">perfil</text></g><g class="message" data-participant-1="perfis" data-participant-2="ong"><polygon fill="#181818" points="1312.5366,312.3594,1322.5366,316.3594,1312.5366,320.3594,1316.5366,316.3594" style="stroke:#181818;stroke-width:1;"/><line style="stroke:#181818;stroke-width:1;stroke-dasharray:2,2;" x1="1152.7383" x2="1318.5366" y1="316.3594" y2="316.3594"/><text fill="#000000" font-family="sans-serif" font-size="13" lengthAdjust="spacing" textLength="33.395" x="1159.7383" y="311.2935">perfil</text></g><g class="message" data-participant-1="ong" data-participant-2="ongs"><polygon fill="#181818" points="990.3818,341.4922,980.3818,345.4922,990.3818,349.4922,986.3818,345.4922" style="stroke:#181818;stroke-width:1;"/><line style="stroke:#181818;stroke-width:1;stroke-dasharray:2,2;" x1="984.3818" x2="1328.5366" y1="345.4922" y2="345.4922"/><text fill="#000000" font-family="sans-serif" font-size="13" lengthAdjust="spacing" textLength="24.4448" x="996.3818" y="340.4263">ong</text></g><g class="message" data-participant-1="ongs" data-participant-2="ongController"><polygon fill="#181818" points="731.3872,370.625,721.3872,374.625,731.3872,378.625,727.3872,374.625" style="stroke:#181818;stroke-width:1;"/><line style="stroke:#181818;stroke-width:1;stroke-dasharray:2,2;" x1="725.3872" x2="973.3818" y1="374.625" y2="374.625"/><text fill="#000000" font-family="sans-serif" font-size="13" lengthAdjust="spacing" textLength="31.2178" x="737.3872" y="369.5591">ongs</text></g><g class="message" data-participant-1="ongController" data-participant-2="recomendacao"><polygon fill="#181818" points="1486.249,399.7578,1496.249,403.7578,1486.249,407.7578,1490.249,403.7578" style="stroke:#181818;stroke-width:1;"/><line style="stroke:#181818;stroke-width:1;" x1="720.3872" x2="1492.249" y1="403.7578" y2="403.7578"/><text fill="#000000" font-family="sans-serif" font-size="13" lengthAdjust="spacing" textLength="165.75" x="727.3872" y="398.6919">criaRecomendacao(ongs)</text></g><path d="M1003.1992,418.7578 L1204.1738,418.7578 L1204.1738,425.8906 L1194.1738,435.8906 L1003.1992,435.8906 L1003.1992,418.7578" fill="#EEEEEE" style="stroke:#000000;stroke-width:1.5;"/><rect fill="none" height="135.3984" style="stroke:#000000;stroke-width:1.5;" width="567.0674" x="1003.1992" y="418.7578"/><text fill="#000000" font-family="sans-serif" font-size="13" font-weight="bold" lengthAdjust="spacing" textLength="155.9746" x="1018.1992" y="431.8247">enquanto hover ongs</text><g class="message" data-participant-1="recomendacao" data-participant-2="ong"><polygon fill="#181818" points="1345.5366,453.0234,1335.5366,457.0234,1345.5366,461.0234,1341.5366,457.0234" style="stroke:#181818;stroke-width:1;"/><line style="stroke:#181818;stroke-width:1;" x1="1339.5366" x2="1497.249" y1="457.0234" y2="457.0234"/><text fill="#000000" font-family="sans-serif" font-size="13" lengthAdjust="spacing" textLength="109.5034" x="1351.5366" y="451.9575">associaOng(ong)</text></g><g class="message" data-participant-1="recomendacao" data-participant-2="campanhas"><polygon fill="#181818" points="1079.7378,512.1563,1069.7378,516.1563,1079.7378,520.1563,1075.7378,516.1563" style="stroke:#181818;stroke-width:1;"/><line style="stroke:#181818;stroke-width:1;" x1="1073.7378" x2="1497.249" y1="516.1563" y2="516.1563"/><text fill="#000000" font-family="sans-serif" font-size="13" lengthAdjust="spacing" textLength="159.9229" x="1085.7378" y="511.0903">associaCampanhas(ong)</text></g><g class="message" data-participant-1="recomendacao" data-participant-2="ongController"><polygon fill="#181818" points="731.3872,578.2891,721.3872,582.2891,731.3872,586.2891,727.3872,582.2891" style="stroke:#181818;stroke-width:1;"/><line style="stroke:#181818;stroke-width:1;stroke-dasharray:2,2;" x1="725.3872" x2="1502.249" y1="582.2891" y2="582.2891"/><text fill="#000000" font-family="sans-serif" font-size="13" lengthAdjust="spacing" textLength="96.6304" x="737.3872" y="577.2231">recomendacao</text></g><g class="message" data-participant-1="ongController" data-participant-2="gui"><polygon fill="#181818" points="404.7476,607.4219,394.7476,611.4219,404.7476,615.4219,400.7476,611.4219" style="stroke:#181818;stroke-width:1;"/><line style="stroke:#181818;stroke-width:1;stroke-dasharray:2,2;" x1="398.7476" x2="714.3872" y1="611.4219" y2="611.4219"/><text fill="#000000" font-family="sans-serif" font-size="13" lengthAdjust="spacing" textLength="96.6304" x="410.7476" y="606.356">recomenda&#231;&#227;o</text></g><!--SRC=[bLH1Rjmm3Bph5SIU4XJvW14i4AH0q4iIRD47iBBY2F2AZcG7o7jww4FoiLAMhPLihRVHIUQ8CpGv4igUBEmEghFAATEZwHKSlltS0JgmQLJyfi7KQ3zWz_3hnuWtWuRRsnTB36kB-xsGlBNKmkuUJQrhxEa-H5fbnnIvZZE5Z1yfnzFZmoARJ7EABD8uZtUorsHSekzoMPSVOmatCxibmx53yuepmVIL7tfMzaM74zsu5OBRfVkF2MfFK1iH5fqrOopMcvSRyOEIT5JSVuaqpUOKI5X2bLd9GeXia72pzvEhm56hfUxny-_d7qe5dappZ5RwcLw5sgy5yY-_8sTpgW1UVlZCb8taYvoU9l9cH2FaLnQTz5m5dCunRkHtTIV9rcodOsXuHhuKS34wSRk9ik9-yaKmU9dFh-mZ5SY0ISDB17DKq5cIWyKDwennDXKKLe0YULj1e_eBn2k1oPcmiS8Hk4d_OZkhLl_3FzS_3-3CqIMPAxSuEcCvX2H_2ONvhpqy6aMK2HWuxytqJbOWhSRq1bpvz88livkSrjTO6Ze0PTu6lhS4h_JEEYiR-vLoH4kZSoGryitpqXisAnbtesybmVW-HjduVbuGFxsi9PTirLNEvAB4-KhNqowsFr4fuelHpozgF3i-Vw7ul9794vS0dFmF]--></g></svg>