<svg xmlns="http://www.w3.org/2000/svg" xmlns:xlink="http://www.w3.org/1999/xlink" contentStyleType="text/css" data-diagram-type="CLASS" height="1185px" preserveAspectRatio="none" style="width:1562px;height:1185px;background:#FFFFFF;" version="1.1" viewBox="0 0 1562 1185" width="1562px" zoomAndPan="magnify"><title>Diagrama de classes de projeto - UC003</title><defs/><g><g class="title" data-source-line="1"><text fill="#000000" font-family="sans-serif" font-size="14" font-weight="bold" lengthAdjust="spacing" textLength="315.417" x="616.5545" y="22.9951">Diagrama de classes de projeto - UC003</text></g><!--class AfiliacaoController--><g class="entity" data-entity="AfiliacaoController" data-source-line="5" data-uid="ent0002" id="entity_AfiliacaoController"><rect fill="#F1F1F1" height="129.4844" rx="2.5" ry="2.5" style="stroke:#181818;stroke-width:0.5;" width="260.9238" x="7" y="60.5969"/><ellipse cx="68.8276" cy="76.5969" fill="#ADD1B2" rx="11" ry="11" style="stroke:#181818;stroke-width:1;"/><path d="M71.7964,82.2375 Q71.2183,82.5344 70.5776,82.675 Q69.937,82.8312 69.2339,82.8312 Q66.7339,82.8312 65.4058,81.1906 Q64.0933,79.5344 64.0933,76.4094 Q64.0933,73.2844 65.4058,71.6281 Q66.7339,69.9719 69.2339,69.9719 Q69.937,69.9719 70.5776,70.1281 Q71.2339,70.2844 71.7964,70.5812 L71.7964,73.3 Q71.1714,72.7219 70.5776,72.4562 Q69.9839,72.175 69.3589,72.175 Q68.0151,72.175 67.3276,73.2531 Q66.6401,74.3156 66.6401,76.4094 Q66.6401,78.5031 67.3276,79.5812 Q68.0151,80.6437 69.3589,80.6437 Q69.9839,80.6437 70.5776,80.3781 Q71.1714,80.0969 71.7964,79.5187 L71.7964,82.2375 Z " fill="#000000"/><text fill="#000000" font-family="sans-serif" font-size="14" lengthAdjust="spacing" textLength="128.7686" x="89.3276" y="81.4436">AfiliacaoController</text><line style="stroke:#181818;stroke-width:0.5;" x1="8" x2="266.9238" y1="92.5969" y2="92.5969"/><line style="stroke:#181818;stroke-width:0.5;" x1="8" x2="266.9238" y1="100.5969" y2="100.5969"/><ellipse cx="18" cy="114.2453" fill="#84BE84" rx="3" ry="3" style="stroke:#038048;stroke-width:1;"/><text fill="#000000" font-family="sans-serif" font-size="14" lengthAdjust="spacing" textLength="188.8359" x="27" y="117.592">solicitaAfiliacao(email, cpf)</text><ellipse cx="18" cy="130.5422" fill="#84BE84" rx="3" ry="3" style="stroke:#038048;stroke-width:1;"/><text fill="#000000" font-family="sans-serif" font-size="14" lengthAdjust="spacing" textLength="234.9238" x="27" y="133.8889">validarDadosIdentificacao(dados)</text><ellipse cx="18" cy="146.8391" fill="#84BE84" rx="3" ry="3" style="stroke:#038048;stroke-width:1;"/><text fill="#000000" font-family="sans-serif" font-size="14" lengthAdjust="spacing" textLength="219.4404" x="27" y="150.1857">validarPerfil(perfil, habilidades)</text><ellipse cx="18" cy="163.1359" fill="#84BE84" rx="3" ry="3" style="stroke:#038048;stroke-width:1;"/><text fill="#000000" font-family="sans-serif" font-size="14" lengthAdjust="spacing" textLength="114.8232" x="27" y="166.4826">registrarAceite()</text><ellipse cx="18" cy="179.4328" fill="#84BE84" rx="3" ry="3" style="stroke:#038048;stroke-width:1;"/><text fill="#000000" font-family="sans-serif" font-size="14" lengthAdjust="spacing" textLength="204.7705" x="27" y="182.7795">buscaCandidatosPendentes()</text></g><!--class PedidoAfiliacao--><g class="entity" data-entity="PedidoAfiliacao" data-source-line="13" data-uid="ent0003" id="entity_PedidoAfiliacao"><rect fill="#F1F1F1" height="129.4844" rx="2.5" ry="2.5" style="stroke:#181818;stroke-width:0.5;" width="235.5488" x="19.69" y="315.9669"/><ellipse cx="79.7745" cy="331.9669" fill="#ADD1B2" rx="11" ry="11" style="stroke:#181818;stroke-width:1;"/><path d="M82.7432,337.6075 Q82.1651,337.9044 81.5245,338.045 Q80.8838,338.2013 80.1807,338.2013 Q77.6807,338.2013 76.3526,336.5606 Q75.0401,334.9044 75.0401,331.7794 Q75.0401,328.6544 76.3526,326.9981 Q77.6807,325.3419 80.1807,325.3419 Q80.8838,325.3419 81.5245,325.4981 Q82.1807,325.6544 82.7432,325.9513 L82.7432,328.67 Q82.1182,328.0919 81.5245,327.8263 Q80.9307,327.545 80.3057,327.545 Q78.962,327.545 78.2745,328.6231 Q77.587,329.6856 77.587,331.7794 Q77.587,333.8731 78.2745,334.9513 Q78.962,336.0138 80.3057,336.0138 Q80.9307,336.0138 81.5245,335.7481 Q82.1182,335.4669 82.7432,334.8888 L82.7432,337.6075 Z " fill="#000000"/><text fill="#000000" font-family="sans-serif" font-size="14" lengthAdjust="spacing" textLength="106.8799" x="100.2745" y="336.8136">PedidoAfiliacao</text><line style="stroke:#181818;stroke-width:0.5;" x1="20.69" x2="254.2388" y1="347.9669" y2="347.9669"/><rect fill="none" height="6" style="stroke:#C82930;stroke-width:1;" width="6" x="27.69" y="358.6153"/><text fill="#000000" font-family="sans-serif" font-size="14" lengthAdjust="spacing" textLength="43.0186" x="39.69" y="364.962">status</text><rect fill="none" height="6" style="stroke:#C82930;stroke-width:1;" width="6" x="27.69" y="374.9122"/><text fill="#000000" font-family="sans-serif" font-size="14" lengthAdjust="spacing" textLength="31.5342" x="39.69" y="381.2589">data</text><line style="stroke:#181818;stroke-width:0.5;" x1="20.69" x2="254.2388" y1="388.5606" y2="388.5606"/><ellipse cx="30.69" cy="402.2091" fill="#84BE84" rx="3" ry="3" style="stroke:#038048;stroke-width:1;"/><text fill="#000000" font-family="sans-serif" font-size="14" lengthAdjust="spacing" textLength="149.4814" x="39.69" y="405.5557">criarPedidoAfiliacao()</text><ellipse cx="30.69" cy="418.5059" fill="#84BE84" rx="3" ry="3" style="stroke:#038048;stroke-width:1;"/><text fill="#000000" font-family="sans-serif" font-size="14" lengthAdjust="spacing" textLength="209.5488" x="39.69" y="421.8526">associarCandidato(candidato)</text><ellipse cx="30.69" cy="434.8028" fill="#84BE84" rx="3" ry="3" style="stroke:#038048;stroke-width:1;"/><text fill="#000000" font-family="sans-serif" font-size="14" lengthAdjust="spacing" textLength="197.4766" x="39.69" y="438.1495">buscaCandidatoPendentes()</text></g><!--class Candidato--><g class="entity" data-entity="Candidato" data-source-line="22" data-uid="ent0004" id="entity_Candidato"><rect fill="#F1F1F1" height="276.1563" rx="2.5" ry="2.5" style="stroke:#181818;stroke-width:0.5;" width="213.3594" x="247.78" y="555.0469"/><ellipse cx="314.4475" cy="571.0469" fill="#ADD1B2" rx="11" ry="11" style="stroke:#181818;stroke-width:1;"/><path d="M317.4162,576.6875 Q316.8381,576.9844 316.1975,577.125 Q315.5569,577.2813 314.8537,577.2813 Q312.3537,577.2813 311.0256,575.6406 Q309.7131,573.9844 309.7131,570.8594 Q309.7131,567.7344 311.0256,566.0781 Q312.3537,564.4219 314.8537,564.4219 Q315.5569,564.4219 316.1975,564.5781 Q316.8537,564.7344 317.4162,565.0313 L317.4162,567.75 Q316.7912,567.1719 316.1975,566.9063 Q315.6037,566.625 314.9787,566.625 Q313.635,566.625 312.9475,567.7031 Q312.26,568.7656 312.26,570.8594 Q312.26,572.9531 312.9475,574.0313 Q313.635,575.0938 314.9787,575.0938 Q315.6037,575.0938 316.1975,574.8281 Q316.7912,574.5469 317.4162,573.9688 L317.4162,576.6875 Z " fill="#000000"/><text fill="#000000" font-family="sans-serif" font-size="14" lengthAdjust="spacing" textLength="71.5244" x="334.9475" y="575.8936">Candidato</text><line style="stroke:#181818;stroke-width:0.5;" x1="248.78" x2="460.1394" y1="587.0469" y2="587.0469"/><rect fill="none" height="6" style="stroke:#C82930;stroke-width:1;" width="6" x="255.78" y="597.6953"/><text fill="#000000" font-family="sans-serif" font-size="14" lengthAdjust="spacing" textLength="39.6895" x="267.78" y="604.042">nome</text><rect fill="none" height="6" style="stroke:#C82930;stroke-width:1;" width="6" x="255.78" y="613.9922"/><text fill="#000000" font-family="sans-serif" font-size="14" lengthAdjust="spacing" textLength="32.7578" x="267.78" y="620.3389">sexo</text><rect fill="none" height="6" style="stroke:#C82930;stroke-width:1;" width="6" x="255.78" y="630.2891"/><text fill="#000000" font-family="sans-serif" font-size="14" lengthAdjust="spacing" textLength="114.6455" x="267.78" y="636.6357">dataNascimento</text><rect fill="none" height="6" style="stroke:#C82930;stroke-width:1;" width="6" x="255.78" y="646.5859"/><text fill="#000000" font-family="sans-serif" font-size="14" lengthAdjust="spacing" textLength="97.8018" x="267.78" y="652.9326">nacionalidade</text><rect fill="none" height="6" style="stroke:#C82930;stroke-width:1;" width="6" x="255.78" y="662.8828"/><text fill="#000000" font-family="sans-serif" font-size="14" lengthAdjust="spacing" textLength="63.7588" x="267.78" y="669.2295">profissao</text><rect fill="none" height="6" style="stroke:#C82930;stroke-width:1;" width="6" x="255.78" y="679.1797"/><text fill="#000000" font-family="sans-serif" font-size="14" lengthAdjust="spacing" textLength="58.9668" x="267.78" y="685.5264">situacao</text><line style="stroke:#181818;stroke-width:0.5;" x1="248.78" x2="460.1394" y1="692.8281" y2="692.8281"/><ellipse cx="258.78" cy="706.4766" fill="#84BE84" rx="3" ry="3" style="stroke:#038048;stroke-width:1;"/><text fill="#000000" font-family="sans-serif" font-size="14" lengthAdjust="spacing" textLength="105.4375" x="267.78" y="709.8232">getCandidato()</text><ellipse cx="258.78" cy="722.7734" fill="#84BE84" rx="3" ry="3" style="stroke:#038048;stroke-width:1;"/><text fill="#000000" font-family="sans-serif" font-size="14" lengthAdjust="spacing" textLength="46.6895" x="267.78" y="726.1201">get(id)</text><ellipse cx="258.78" cy="739.0703" fill="#84BE84" rx="3" ry="3" style="stroke:#038048;stroke-width:1;"/><text fill="#000000" font-family="sans-serif" font-size="14" lengthAdjust="spacing" textLength="180.9063" x="267.78" y="742.417">mudaSituacao(candidato)</text><ellipse cx="258.78" cy="755.3672" fill="#84BE84" rx="3" ry="3" style="stroke:#038048;stroke-width:1;"/><text fill="#000000" font-family="sans-serif" font-size="14" lengthAdjust="spacing" textLength="185.165" x="267.78" y="758.7139">getCandidato("pendente")</text><ellipse cx="258.78" cy="771.6641" fill="#84BE84" rx="3" ry="3" style="stroke:#038048;stroke-width:1;"/><text fill="#000000" font-family="sans-serif" font-size="14" lengthAdjust="spacing" textLength="116.9971" x="267.78" y="775.0107">salva(candidato)</text><ellipse cx="258.78" cy="787.9609" fill="#84BE84" rx="3" ry="3" style="stroke:#038048;stroke-width:1;"/><text fill="#000000" font-family="sans-serif" font-size="14" lengthAdjust="spacing" textLength="140.957" x="267.78" y="791.3076">getPerfilCandidato()</text><ellipse cx="258.78" cy="804.2578" fill="#84BE84" rx="3" ry="3" style="stroke:#038048;stroke-width:1;"/><text fill="#000000" font-family="sans-serif" font-size="14" lengthAdjust="spacing" textLength="187.3594" x="267.78" y="807.6045">getHabilidadesCandidato()</text><ellipse cx="258.78" cy="820.5547" fill="#84BE84" rx="3" ry="3" style="stroke:#038048;stroke-width:1;"/><text fill="#000000" font-family="sans-serif" font-size="14" lengthAdjust="spacing" textLength="177.4063" x="267.78" y="823.9014">getInteressesCandidato()</text></g><!--class CandidatoController--><g class="entity" data-entity="CandidatoController" data-source-line="43" data-uid="ent0007" id="entity_CandidatoController"><rect fill="#F1F1F1" height="96.8906" rx="2.5" ry="2.5" style="stroke:#181818;stroke-width:0.5;" width="349.4561" x="290.73" y="332.2669"/><ellipse cx="390.8594" cy="348.2669" fill="#ADD1B2" rx="11" ry="11" style="stroke:#181818;stroke-width:1;"/><path d="M393.8281,353.9075 Q393.25,354.2044 392.6094,354.345 Q391.9688,354.5013 391.2656,354.5013 Q388.7656,354.5013 387.4375,352.8606 Q386.125,351.2044 386.125,348.0794 Q386.125,344.9544 387.4375,343.2981 Q388.7656,341.6419 391.2656,341.6419 Q391.9688,341.6419 392.6094,341.7981 Q393.2656,341.9544 393.8281,342.2513 L393.8281,344.97 Q393.2031,344.3919 392.6094,344.1263 Q392.0156,343.845 391.3906,343.845 Q390.0469,343.845 389.3594,344.9231 Q388.6719,345.9856 388.6719,348.0794 Q388.6719,350.1731 389.3594,351.2513 Q390.0469,352.3138 391.3906,352.3138 Q392.0156,352.3138 392.6094,352.0481 Q393.2031,351.7669 393.8281,351.1888 L393.8281,353.9075 Z " fill="#000000"/><text fill="#000000" font-family="sans-serif" font-size="14" lengthAdjust="spacing" textLength="140.6973" x="411.3594" y="353.1136">CandidatoController</text><line style="stroke:#181818;stroke-width:0.5;" x1="291.73" x2="639.1861" y1="364.2669" y2="364.2669"/><line style="stroke:#181818;stroke-width:0.5;" x1="291.73" x2="639.1861" y1="372.2669" y2="372.2669"/><ellipse cx="301.73" cy="385.9153" fill="#84BE84" rx="3" ry="3" style="stroke:#038048;stroke-width:1;"/><text fill="#000000" font-family="sans-serif" font-size="14" lengthAdjust="spacing" textLength="285.0928" x="310.73" y="389.262">exibeInformacaoDetalhadaCandidato(id)</text><ellipse cx="301.73" cy="402.2122" fill="#84BE84" rx="3" ry="3" style="stroke:#038048;stroke-width:1;"/><text fill="#000000" font-family="sans-serif" font-size="14" lengthAdjust="spacing" textLength="323.4561" x="310.73" y="405.5589">exibeHabilidadesPerfilInteressesVoluntario(id)</text><ellipse cx="301.73" cy="418.5091" fill="#84BE84" rx="3" ry="3" style="stroke:#038048;stroke-width:1;"/><text fill="#000000" font-family="sans-serif" font-size="14" lengthAdjust="spacing" textLength="219.0098" x="310.73" y="421.8557">solicitaAprovacaoCandidato(id)</text></g><!--class ONGController--><g class="entity" data-entity="ONGController" data-source-line="51" data-uid="ent0009" id="entity_ONGController"><rect fill="#F1F1F1" height="64.2969" rx="2.5" ry="2.5" style="stroke:#181818;stroke-width:0.5;" width="341.1504" x="577.89" y="93.1869"/><ellipse cx="693.4584" cy="109.1869" fill="#ADD1B2" rx="11" ry="11" style="stroke:#181818;stroke-width:1;"/><path d="M696.4271,114.8275 Q695.849,115.1244 695.2084,115.265 Q694.5677,115.4213 693.8646,115.4213 Q691.3646,115.4213 690.0365,113.7806 Q688.724,112.1244 688.724,108.9994 Q688.724,105.8744 690.0365,104.2181 Q691.3646,102.5619 693.8646,102.5619 Q694.5677,102.5619 695.2084,102.7181 Q695.8646,102.8744 696.4271,103.1713 L696.4271,105.89 Q695.8021,105.3119 695.2084,105.0463 Q694.6146,104.765 693.9896,104.765 Q692.6459,104.765 691.9584,105.8431 Q691.2709,106.9056 691.2709,108.9994 Q691.2709,111.0931 691.9584,112.1713 Q692.6459,113.2338 693.9896,113.2338 Q694.6146,113.2338 695.2084,112.9681 Q695.8021,112.6869 696.4271,112.1088 L696.4271,114.8275 Z " fill="#000000"/><text fill="#000000" font-family="sans-serif" font-size="14" lengthAdjust="spacing" textLength="101.5137" x="713.9584" y="114.0336">ONGController</text><line style="stroke:#181818;stroke-width:0.5;" x1="578.89" x2="918.0404" y1="125.1869" y2="125.1869"/><line style="stroke:#181818;stroke-width:0.5;" x1="578.89" x2="918.0404" y1="133.1869" y2="133.1869"/><ellipse cx="588.89" cy="146.8353" fill="#84BE84" rx="3" ry="3" style="stroke:#038048;stroke-width:1;"/><text fill="#000000" font-family="sans-serif" font-size="14" lengthAdjust="spacing" textLength="315.1504" x="597.89" y="150.182">solicitacaoRecomendacaoOngParceira(perfil)</text></g><!--class ONG--><g class="entity" data-entity="ONG" data-source-line="55" data-uid="ent0010" id="entity_ONG"><rect fill="#F1F1F1" height="80.5938" rx="2.5" ry="2.5" style="stroke:#181818;stroke-width:0.5;" width="278.4033" x="595.26" y="652.8269"/><ellipse cx="714.0413" cy="668.8269" fill="#ADD1B2" rx="11" ry="11" style="stroke:#181818;stroke-width:1;"/><path d="M717.01,674.4675 Q716.4319,674.7644 715.7913,674.905 Q715.1506,675.0613 714.4475,675.0613 Q711.9475,675.0613 710.6194,673.4206 Q709.3069,671.7644 709.3069,668.6394 Q709.3069,665.5144 710.6194,663.8581 Q711.9475,662.2019 714.4475,662.2019 Q715.1506,662.2019 715.7913,662.3581 Q716.4475,662.5144 717.01,662.8113 L717.01,665.53 Q716.385,664.9519 715.7913,664.6863 Q715.1975,664.405 714.5725,664.405 Q713.2288,664.405 712.5413,665.4831 Q711.8538,666.5456 711.8538,668.6394 Q711.8538,670.7331 712.5413,671.8113 Q713.2288,672.8738 714.5725,672.8738 Q715.1975,672.8738 715.7913,672.6081 Q716.385,672.3269 717.01,671.7488 L717.01,674.4675 Z " fill="#000000"/><text fill="#000000" font-family="sans-serif" font-size="14" lengthAdjust="spacing" textLength="32.3408" x="734.5413" y="673.6736">ONG</text><line style="stroke:#181818;stroke-width:0.5;" x1="596.26" x2="872.6633" y1="684.8269" y2="684.8269"/><line style="stroke:#181818;stroke-width:0.5;" x1="596.26" x2="872.6633" y1="692.8269" y2="692.8269"/><ellipse cx="606.26" cy="706.4753" fill="#84BE84" rx="3" ry="3" style="stroke:#038048;stroke-width:1;"/><text fill="#000000" font-family="sans-serif" font-size="14" lengthAdjust="spacing" textLength="252.4033" x="615.26" y="709.822">filtroONGDeAcordoComPerfil(perfil);</text><ellipse cx="606.26" cy="722.7722" fill="#84BE84" rx="3" ry="3" style="stroke:#038048;stroke-width:1;"/><text fill="#000000" font-family="sans-serif" font-size="14" lengthAdjust="spacing" textLength="116.9902" x="615.26" y="726.1189">getCampanhas()</text></g><!--class Perfil--><g class="entity" data-entity="Perfil" data-source-line="60" data-uid="ent0011" id="entity_Perfil"><rect fill="#F1F1F1" height="129.4844" rx="2.5" ry="2.5" style="stroke:#181818;stroke-width:0.5;" width="162.5205" x="653.2" y="908.2069"/><ellipse cx="712.4505" cy="924.2069" fill="#ADD1B2" rx="11" ry="11" style="stroke:#181818;stroke-width:1;"/><path d="M715.4192,929.8475 Q714.8411,930.1444 714.2005,930.285 Q713.5599,930.4413 712.8567,930.4413 Q710.3567,930.4413 709.0286,928.8006 Q707.7161,927.1444 707.7161,924.0194 Q707.7161,920.8944 709.0286,919.2381 Q710.3567,917.5819 712.8567,917.5819 Q713.5599,917.5819 714.2005,917.7381 Q714.8567,917.8944 715.4192,918.1913 L715.4192,920.91 Q714.7942,920.3319 714.2005,920.0663 Q713.6067,919.785 712.9817,919.785 Q711.638,919.785 710.9505,920.8631 Q710.263,921.9256 710.263,924.0194 Q710.263,926.1131 710.9505,927.1913 Q711.638,928.2538 712.9817,928.2538 Q713.6067,928.2538 714.2005,927.9881 Q714.7942,927.7069 715.4192,927.1288 L715.4192,929.8475 Z " fill="#000000"/><text fill="#000000" font-family="sans-serif" font-size="14" lengthAdjust="spacing" textLength="35.5195" x="732.9505" y="929.0536">Perfil</text><line style="stroke:#181818;stroke-width:0.5;" x1="654.2" x2="814.7205" y1="940.2069" y2="940.2069"/><rect fill="none" height="6" style="stroke:#C82930;stroke-width:1;" width="6" x="661.2" y="950.8553"/><text fill="#000000" font-family="sans-serif" font-size="14" lengthAdjust="spacing" textLength="80.2676" x="673.2" y="957.202">habilidades</text><rect fill="none" height="6" style="stroke:#C82930;stroke-width:1;" width="6" x="661.2" y="967.1522"/><text fill="#000000" font-family="sans-serif" font-size="14" lengthAdjust="spacing" textLength="71.7295" x="673.2" y="973.4989">interesses</text><line style="stroke:#181818;stroke-width:0.5;" x1="654.2" x2="814.7205" y1="980.8006" y2="980.8006"/><ellipse cx="664.2" cy="994.4491" fill="#84BE84" rx="3" ry="3" style="stroke:#038048;stroke-width:1;"/><text fill="#000000" font-family="sans-serif" font-size="14" lengthAdjust="spacing" textLength="115.835" x="673.2" y="997.7957">getHabilidades()</text><ellipse cx="664.2" cy="1010.7459" fill="#84BE84" rx="3" ry="3" style="stroke:#038048;stroke-width:1;"/><text fill="#000000" font-family="sans-serif" font-size="14" lengthAdjust="spacing" textLength="105.8818" x="673.2" y="1014.0926">getInteresses()</text><ellipse cx="664.2" cy="1027.0428" fill="#84BE84" rx="3" ry="3" style="stroke:#038048;stroke-width:1;"/><text fill="#000000" font-family="sans-serif" font-size="14" lengthAdjust="spacing" textLength="136.5205" x="673.2" y="1030.3895">procuraPerfil(perfil)</text></g><!--class Recomendacao--><g class="entity" data-entity="Recomendacao" data-source-line="72" data-uid="ent0014" id="entity_Recomendacao"><rect fill="#F1F1F1" height="129.4844" rx="2.5" ry="2.5" style="stroke:#181818;stroke-width:0.5;" width="285.6494" x="800.64" y="315.9669"/><ellipse cx="885.1971" cy="331.9669" fill="#ADD1B2" rx="11" ry="11" style="stroke:#181818;stroke-width:1;"/><path d="M888.1659,337.6075 Q887.5878,337.9044 886.9471,338.045 Q886.3065,338.2013 885.6034,338.2013 Q883.1034,338.2013 881.7753,336.5606 Q880.4628,334.9044 880.4628,331.7794 Q880.4628,328.6544 881.7753,326.9981 Q883.1034,325.3419 885.6034,325.3419 Q886.3065,325.3419 886.9471,325.4981 Q887.6034,325.6544 888.1659,325.9513 L888.1659,328.67 Q887.5409,328.0919 886.9471,327.8263 Q886.3534,327.545 885.7284,327.545 Q884.3846,327.545 883.6971,328.6231 Q883.0096,329.6856 883.0096,331.7794 Q883.0096,333.8731 883.6971,334.9513 Q884.3846,336.0138 885.7284,336.0138 Q886.3534,336.0138 886.9471,335.7481 Q887.5409,335.4669 888.1659,334.8888 L888.1659,337.6075 Z " fill="#000000"/><text fill="#000000" font-family="sans-serif" font-size="14" lengthAdjust="spacing" textLength="108.0352" x="905.6971" y="336.8136">Recomendacao</text><line style="stroke:#181818;stroke-width:0.5;" x1="801.64" x2="1085.2894" y1="347.9669" y2="347.9669"/><rect fill="none" height="6" style="stroke:#C82930;stroke-width:1;" width="6" x="808.64" y="358.6153"/><text fill="#000000" font-family="sans-serif" font-size="14" lengthAdjust="spacing" textLength="80.999" x="820.64" y="364.962">campanhas</text><line style="stroke:#181818;stroke-width:0.5;" x1="801.64" x2="1085.2894" y1="372.2638" y2="372.2638"/><ellipse cx="811.64" cy="385.9122" fill="#84BE84" rx="3" ry="3" style="stroke:#038048;stroke-width:1;"/><text fill="#000000" font-family="sans-serif" font-size="14" lengthAdjust="spacing" textLength="178.5" x="820.64" y="389.2589">criaRecomendacao(ongs)</text><ellipse cx="811.64" cy="402.2091" fill="#84BE84" rx="3" ry="3" style="stroke:#038048;stroke-width:1;"/><text fill="#000000" font-family="sans-serif" font-size="14" lengthAdjust="spacing" textLength="259.6494" x="820.64" y="405.5557">salvaRecomendacao(recomendacao)</text><ellipse cx="811.64" cy="418.5059" fill="#84BE84" rx="3" ry="3" style="stroke:#038048;stroke-width:1;"/><text fill="#000000" font-family="sans-serif" font-size="14" lengthAdjust="spacing" textLength="125.2207" x="820.64" y="421.8526">associaOngs(ong)</text><ellipse cx="811.64" cy="434.8028" fill="#84BE84" rx="3" ry="3" style="stroke:#038048;stroke-width:1;"/><text fill="#000000" font-family="sans-serif" font-size="14" lengthAdjust="spacing" textLength="179.5186" x="820.64" y="438.1495">associaCampanhas(ongs)</text></g><!--class Campanha--><g class="entity" data-entity="Campanha" data-source-line="80" data-uid="ent0015" id="entity_Campanha"><rect fill="#F1F1F1" height="64.2969" rx="2.5" ry="2.5" style="stroke:#181818;stroke-width:0.5;" width="107.7832" x="870.57" y="940.7969"/><ellipse cx="885.57" cy="956.7969" fill="#ADD1B2" rx="11" ry="11" style="stroke:#181818;stroke-width:1;"/><path d="M888.5388,962.4375 Q887.9606,962.7344 887.32,962.875 Q886.6794,963.0313 885.9763,963.0313 Q883.4763,963.0313 882.1481,961.3906 Q880.8356,959.7344 880.8356,956.6094 Q880.8356,953.4844 882.1481,951.8281 Q883.4763,950.1719 885.9763,950.1719 Q886.6794,950.1719 887.32,950.3281 Q887.9763,950.4844 888.5388,950.7813 L888.5388,953.5 Q887.9138,952.9219 887.32,952.6563 Q886.7263,952.375 886.1013,952.375 Q884.7575,952.375 884.07,953.4531 Q883.3825,954.5156 883.3825,956.6094 Q883.3825,958.7031 884.07,959.7813 Q884.7575,960.8438 886.1013,960.8438 Q886.7263,960.8438 887.32,960.5781 Q887.9138,960.2969 888.5388,959.7188 L888.5388,962.4375 Z " fill="#000000"/><text fill="#000000" font-family="sans-serif" font-size="14" lengthAdjust="spacing" textLength="75.7832" x="899.57" y="961.6436">Campanha</text><line style="stroke:#181818;stroke-width:0.5;" x1="871.57" x2="977.3532" y1="972.7969" y2="972.7969"/><rect fill="none" height="6" style="stroke:#C82930;stroke-width:1;" width="6" x="878.57" y="983.4453"/><text fill="#000000" font-family="sans-serif" font-size="14" lengthAdjust="spacing" textLength="66.9785" x="890.57" y="989.792">descricao</text><line style="stroke:#181818;stroke-width:0.5;" x1="871.57" x2="977.3532" y1="997.0938" y2="997.0938"/></g><!--class AprovacaoController--><g class="entity" data-entity="AprovacaoController" data-source-line="89" data-uid="ent0019" id="entity_AprovacaoController"><rect fill="#F1F1F1" height="162.0781" rx="2.5" ry="2.5" style="stroke:#181818;stroke-width:0.5;" width="574.126" x="981.4" y="44.2969"/><ellipse cx="1192.381" cy="60.2969" fill="#ADD1B2" rx="11" ry="11" style="stroke:#181818;stroke-width:1;"/><path d="M1195.3497,65.9375 Q1194.7716,66.2344 1194.131,66.375 Q1193.4903,66.5313 1192.7872,66.5313 Q1190.2872,66.5313 1188.9591,64.8906 Q1187.6466,63.2344 1187.6466,60.1094 Q1187.6466,56.9844 1188.9591,55.3281 Q1190.2872,53.6719 1192.7872,53.6719 Q1193.4903,53.6719 1194.131,53.8281 Q1194.7872,53.9844 1195.3497,54.2813 L1195.3497,57 Q1194.7247,56.4219 1194.131,56.1563 Q1193.5372,55.875 1192.9122,55.875 Q1191.5685,55.875 1190.881,56.9531 Q1190.1935,58.0156 1190.1935,60.1094 Q1190.1935,62.2031 1190.881,63.2813 Q1191.5685,64.3438 1192.9122,64.3438 Q1193.5372,64.3438 1194.131,64.0781 Q1194.7247,63.7969 1195.3497,63.2188 L1195.3497,65.9375 Z " fill="#000000"/><text fill="#000000" font-family="sans-serif" font-size="14" lengthAdjust="spacing" textLength="143.6641" x="1212.881" y="65.1436">AprovacaoController</text><line style="stroke:#181818;stroke-width:0.5;" x1="982.4" x2="1554.526" y1="76.2969" y2="76.2969"/><line style="stroke:#181818;stroke-width:0.5;" x1="982.4" x2="1554.526" y1="84.2969" y2="84.2969"/><ellipse cx="992.4" cy="97.9453" fill="#84BE84" rx="3" ry="3" style="stroke:#038048;stroke-width:1;"/><text fill="#000000" font-family="sans-serif" font-size="14" lengthAdjust="spacing" textLength="329.4307" x="1001.4" y="101.292">aprovaVoluntario(idVoluntario, recomendacao)</text><ellipse cx="992.4" cy="114.2422" fill="#84BE84" rx="3" ry="3" style="stroke:#038048;stroke-width:1;"/><text fill="#000000" font-family="sans-serif" font-size="14" lengthAdjust="spacing" textLength="542.0557" x="1001.4" y="117.5889">enviaEmailLoginInstrucao(voluntarioEmail, voluntarioLogin, voluntarioSenha)</text><ellipse cx="992.4" cy="130.5391" fill="#84BE84" rx="3" ry="3" style="stroke:#038048;stroke-width:1;"/><text fill="#000000" font-family="sans-serif" font-size="14" lengthAdjust="spacing" textLength="543.6758" x="1001.4" y="133.8857">enviaEmailResultadoAfiliacaoRecomendacao(voluntarioEmail,recomendacao)</text><ellipse cx="992.4" cy="146.8359" fill="#84BE84" rx="3" ry="3" style="stroke:#038048;stroke-width:1;"/><text fill="#000000" font-family="sans-serif" font-size="14" lengthAdjust="spacing" textLength="254.0576" x="1001.4" y="150.1826">rejeitaCandidato(candidato, motivo)</text><ellipse cx="992.4" cy="163.1328" fill="#84BE84" rx="3" ry="3" style="stroke:#038048;stroke-width:1;"/><text fill="#000000" font-family="sans-serif" font-size="14" lengthAdjust="spacing" textLength="367.4385" x="1001.4" y="166.4795">atualizaMotivoSituacaoCandidato(candidato,motivo)</text><ellipse cx="992.4" cy="179.4297" fill="#84BE84" rx="3" ry="3" style="stroke:#038048;stroke-width:1;"/><text fill="#000000" font-family="sans-serif" font-size="14" lengthAdjust="spacing" textLength="255.8691" x="1001.4" y="182.7764">enviaEmailRejeicao(candidatoEmail)</text><ellipse cx="992.4" cy="195.7266" fill="#84BE84" rx="3" ry="3" style="stroke:#038048;stroke-width:1;"/><text fill="#000000" font-family="sans-serif" font-size="14" lengthAdjust="spacing" textLength="548.126" x="1001.4" y="199.0732">enviaEmailResultadoAfiliacaoRecomendacao(voluntarioEmail, recomendacao)</text></g><!--class Voluntario--><g class="entity" data-entity="Voluntario" data-source-line="99" data-uid="ent0020" id="entity_Voluntario"><rect fill="#F1F1F1" height="194.6719" rx="2.5" ry="2.5" style="stroke:#181818;stroke-width:0.5;" width="293.4219" x="1121.75" y="283.3769"/><ellipse cx="1228.1821" cy="299.3769" fill="#ADD1B2" rx="11" ry="11" style="stroke:#181818;stroke-width:1;"/><path d="M1231.1509,305.0175 Q1230.5728,305.3144 1229.9321,305.455 Q1229.2915,305.6113 1228.5884,305.6113 Q1226.0884,305.6113 1224.7603,303.9706 Q1223.4478,302.3144 1223.4478,299.1894 Q1223.4478,296.0644 1224.7603,294.4081 Q1226.0884,292.7519 1228.5884,292.7519 Q1229.2915,292.7519 1229.9321,292.9081 Q1230.5884,293.0644 1231.1509,293.3613 L1231.1509,296.08 Q1230.5259,295.5019 1229.9321,295.2363 Q1229.3384,294.955 1228.7134,294.955 Q1227.3696,294.955 1226.6821,296.0331 Q1225.9946,297.0956 1225.9946,299.1894 Q1225.9946,301.2831 1226.6821,302.3613 Q1227.3696,303.4238 1228.7134,303.4238 Q1229.3384,303.4238 1229.9321,303.1581 Q1230.5259,302.8769 1231.1509,302.2988 L1231.1509,305.0175 Z " fill="#000000"/><text fill="#000000" font-family="sans-serif" font-size="14" lengthAdjust="spacing" textLength="72.0576" x="1248.6821" y="304.2236">Voluntario</text><line style="stroke:#181818;stroke-width:0.5;" x1="1122.75" x2="1414.1719" y1="315.3769" y2="315.3769"/><rect fill="none" height="6" style="stroke:#C82930;stroke-width:1;" width="6" x="1129.75" y="326.0253"/><text fill="#000000" font-family="sans-serif" font-size="14" lengthAdjust="spacing" textLength="34.1045" x="1141.75" y="332.372">login</text><rect fill="none" height="6" style="stroke:#C82930;stroke-width:1;" width="6" x="1129.75" y="342.3222"/><text fill="#000000" font-family="sans-serif" font-size="14" lengthAdjust="spacing" textLength="42.2324" x="1141.75" y="348.6689">senha</text><line style="stroke:#181818;stroke-width:0.5;" x1="1122.75" x2="1414.1719" y1="355.9706" y2="355.9706"/><ellipse cx="1132.75" cy="369.6191" fill="#84BE84" rx="3" ry="3" style="stroke:#038048;stroke-width:1;"/><text fill="#000000" font-family="sans-serif" font-size="14" lengthAdjust="spacing" textLength="118.7471" x="1141.75" y="372.9657">get(idVoluntario)</text><ellipse cx="1132.75" cy="385.9159" fill="#84BE84" rx="3" ry="3" style="stroke:#038048;stroke-width:1;"/><text fill="#000000" font-family="sans-serif" font-size="14" lengthAdjust="spacing" textLength="190.374" x="1141.75" y="389.2626">salvaVoluntario(voluntario)</text><ellipse cx="1132.75" cy="402.2128" fill="#84BE84" rx="3" ry="3" style="stroke:#038048;stroke-width:1;"/><text fill="#000000" font-family="sans-serif" font-size="14" lengthAdjust="spacing" textLength="103.8037" x="1141.75" y="405.5595">setPerfil(perfil)</text><ellipse cx="1132.75" cy="418.5097" fill="#84BE84" rx="3" ry="3" style="stroke:#038048;stroke-width:1;"/><text fill="#000000" font-family="sans-serif" font-size="14" lengthAdjust="spacing" textLength="141.4902" x="1141.75" y="421.8564">getPerfilVoluntario()</text><ellipse cx="1132.75" cy="434.8066" fill="#84BE84" rx="3" ry="3" style="stroke:#038048;stroke-width:1;"/><text fill="#000000" font-family="sans-serif" font-size="14" lengthAdjust="spacing" textLength="187.8926" x="1141.75" y="438.1532">getHabilidadesVoluntario()</text><ellipse cx="1132.75" cy="451.1034" fill="#84BE84" rx="3" ry="3" style="stroke:#038048;stroke-width:1;"/><text fill="#000000" font-family="sans-serif" font-size="14" lengthAdjust="spacing" textLength="177.9395" x="1141.75" y="454.4501">getInteressesVoluntario()</text><ellipse cx="1132.75" cy="467.4003" fill="#84BE84" rx="3" ry="3" style="stroke:#038048;stroke-width:1;"/><text fill="#000000" font-family="sans-serif" font-size="14" lengthAdjust="spacing" textLength="267.4219" x="1141.75" y="470.747">geraLoginSenhaVoluntario(voluntario)</text></g><!--class Interesses--><g class="entity" data-entity="Interesses" data-source-line="113" data-uid="ent0022" id="entity_Interesses"><rect fill="#F1F1F1" height="64.2969" rx="2.5" ry="2.5" style="stroke:#181818;stroke-width:0.5;" width="103.9688" x="610.48" y="1114.6869"/><ellipse cx="625.48" cy="1130.6869" fill="#ADD1B2" rx="11" ry="11" style="stroke:#181818;stroke-width:1;"/><path d="M628.4488,1136.3275 Q627.8706,1136.6244 627.23,1136.765 Q626.5894,1136.9213 625.8863,1136.9213 Q623.3863,1136.9213 622.0581,1135.2806 Q620.7456,1133.6244 620.7456,1130.4994 Q620.7456,1127.3744 622.0581,1125.7181 Q623.3863,1124.0619 625.8863,1124.0619 Q626.5894,1124.0619 627.23,1124.2181 Q627.8863,1124.3744 628.4488,1124.6713 L628.4488,1127.39 Q627.8238,1126.8119 627.23,1126.5463 Q626.6363,1126.265 626.0113,1126.265 Q624.6675,1126.265 623.98,1127.3431 Q623.2925,1128.4056 623.2925,1130.4994 Q623.2925,1132.5931 623.98,1133.6713 Q624.6675,1134.7338 626.0113,1134.7338 Q626.6363,1134.7338 627.23,1134.4681 Q627.8238,1134.1869 628.4488,1133.6088 L628.4488,1136.3275 Z " fill="#000000"/><text fill="#000000" font-family="sans-serif" font-size="14" lengthAdjust="spacing" textLength="71.9688" x="639.48" y="1135.5336">Interesses</text><line style="stroke:#181818;stroke-width:0.5;" x1="611.48" x2="713.4488" y1="1146.6869" y2="1146.6869"/><rect fill="none" height="6" style="stroke:#C82930;stroke-width:1;" width="6" x="618.48" y="1157.3353"/><text fill="#000000" font-family="sans-serif" font-size="14" lengthAdjust="spacing" textLength="66.9785" x="630.48" y="1163.682">descricao</text><line style="stroke:#181818;stroke-width:0.5;" x1="611.48" x2="713.4488" y1="1170.9838" y2="1170.9838"/></g><!--class Habilidades--><g class="entity" data-entity="Habilidades" data-source-line="117" data-uid="ent0023" id="entity_Habilidades"><rect fill="#F1F1F1" height="64.2969" rx="2.5" ry="2.5" style="stroke:#181818;stroke-width:0.5;" width="113.9219" x="749.5" y="1114.6869"/><ellipse cx="764.5" cy="1130.6869" fill="#ADD1B2" rx="11" ry="11" style="stroke:#181818;stroke-width:1;"/><path d="M767.4688,1136.3275 Q766.8906,1136.6244 766.25,1136.765 Q765.6094,1136.9213 764.9063,1136.9213 Q762.4063,1136.9213 761.0781,1135.2806 Q759.7656,1133.6244 759.7656,1130.4994 Q759.7656,1127.3744 761.0781,1125.7181 Q762.4063,1124.0619 764.9063,1124.0619 Q765.6094,1124.0619 766.25,1124.2181 Q766.9063,1124.3744 767.4688,1124.6713 L767.4688,1127.39 Q766.8438,1126.8119 766.25,1126.5463 Q765.6563,1126.265 765.0313,1126.265 Q763.6875,1126.265 763,1127.3431 Q762.3125,1128.4056 762.3125,1130.4994 Q762.3125,1132.5931 763,1133.6713 Q763.6875,1134.7338 765.0313,1134.7338 Q765.6563,1134.7338 766.25,1134.4681 Q766.8438,1134.1869 767.4688,1133.6088 L767.4688,1136.3275 Z " fill="#000000"/><text fill="#000000" font-family="sans-serif" font-size="14" lengthAdjust="spacing" textLength="81.9219" x="778.5" y="1135.5336">Habilidades</text><line style="stroke:#181818;stroke-width:0.5;" x1="750.5" x2="862.4219" y1="1146.6869" y2="1146.6869"/><rect fill="none" height="6" style="stroke:#C82930;stroke-width:1;" width="6" x="757.5" y="1157.3353"/><text fill="#000000" font-family="sans-serif" font-size="14" lengthAdjust="spacing" textLength="66.9785" x="769.5" y="1163.682">descricao</text><line style="stroke:#181818;stroke-width:0.5;" x1="750.5" x2="862.4219" y1="1170.9838" y2="1170.9838"/></g><!--link AfiliacaoController to PedidoAfiliacao--><g class="link" data-entity-1="AfiliacaoController" data-entity-2="PedidoAfiliacao" data-source-line="40" data-uid="lnk5" id="link_AfiliacaoController_PedidoAfiliacao"><path codeLine="40" d="M137.46,190.2769 C137.46,228.6869 137.46,277.3869 137.46,315.7969" fill="none" id="AfiliacaoController-PedidoAfiliacao" style="stroke:#181818;stroke-width:1;"/><text fill="#000000" font-family="sans-serif" font-size="13" lengthAdjust="spacing" textLength="41.6025" x="138.46" y="249.4438">possui</text><text fill="#000000" font-family="sans-serif" font-size="13" lengthAdjust="spacing" textLength="8.271" x="129.0371" y="210.2739">1</text><text fill="#000000" font-family="sans-serif" font-size="13" lengthAdjust="spacing" textLength="23.0356" x="113.2037" y="304.9509">1..*</text></g><!--link PedidoAfiliacao to Candidato--><g class="link" data-entity-1="PedidoAfiliacao" data-entity-2="Candidato" data-source-line="41" data-uid="lnk6" id="link_PedidoAfiliacao_Candidato"><path codeLine="41" d="M182.16,445.6569 C204.25,477.2469 231.8,516.6569 258.35,554.6469" fill="none" id="PedidoAfiliacao-Candidato" style="stroke:#181818;stroke-width:1;"/><text fill="#000000" font-family="sans-serif" font-size="13" lengthAdjust="spacing" textLength="50.248" x="234.46" y="521.1138">procura</text><text fill="#000000" font-family="sans-serif" font-size="13" lengthAdjust="spacing" textLength="8.271" x="178.6259" y="465.655">1</text><text fill="#000000" font-family="sans-serif" font-size="13" lengthAdjust="spacing" textLength="8.271" x="245.1951" y="544.1902">1</text></g><!--link CandidatoController to Candidato--><g class="link" data-entity-1="CandidatoController" data-entity-2="Candidato" data-source-line="49" data-uid="lnk8" id="link_CandidatoController_Candidato"><path codeLine="49" d="M448.36,429.5369 C436.35,463.1269 419.63,509.8669 403.63,554.6269" fill="none" id="CandidatoController-Candidato" style="stroke:#181818;stroke-width:1;"/><text fill="#000000" font-family="sans-serif" font-size="13" lengthAdjust="spacing" textLength="41.6025" x="421.46" y="521.1138">possui</text><text fill="#000000" font-family="sans-serif" font-size="13" lengthAdjust="spacing" textLength="8.271" x="437.5432" y="449.1813">1</text><text fill="#000000" font-family="sans-serif" font-size="13" lengthAdjust="spacing" textLength="23.0356" x="382.5733" y="544.1692">0..*</text></g><!--link ONGController to ONG--><g class="link" data-entity-1="ONGController" data-entity-2="ONG" data-source-line="69" data-uid="lnk12" id="link_ONGController_ONG"><path codeLine="69" d="M746.52,157.9069 C744.64,189.6069 741.89,239.8569 740.46,283.3769 C736.02,418.6869 734.87,579.2869 734.57,652.3669" fill="none" id="ONGController-ONG" style="stroke:#181818;stroke-width:1;"/><text fill="#000000" font-family="sans-serif" font-size="13" lengthAdjust="spacing" textLength="41.6025" x="741.46" y="385.2838">possui</text><text fill="#000000" font-family="sans-serif" font-size="13" lengthAdjust="spacing" textLength="8.271" x="737.4125" y="177.6251">1</text><text fill="#000000" font-family="sans-serif" font-size="13" lengthAdjust="spacing" textLength="23.0356" x="709.7573" y="641.7534">0..*</text></g><!--link ONG to Perfil--><g class="link" data-entity-1="ONG" data-entity-2="Perfil" data-source-line="70" data-uid="lnk13" id="link_ONG_Perfil"><path codeLine="70" d="M734.46,733.6369 C734.46,779.0269 734.46,854.1569 734.46,907.9269" fill="none" id="ONG-Perfil" style="stroke:#181818;stroke-width:1;"/><text fill="#000000" font-family="sans-serif" font-size="13" lengthAdjust="spacing" textLength="41.6025" x="735.46" y="874.2738">possui</text><text fill="#000000" font-family="sans-serif" font-size="13" lengthAdjust="spacing" textLength="23.0356" x="709.6298" y="753.3664">0..*</text><text fill="#000000" font-family="sans-serif" font-size="13" lengthAdjust="spacing" textLength="23.0356" x="710.2041" y="897.0689">1..*</text></g><!--link ONGController to Recomendacao--><g class="link" data-entity-1="ONGController" data-entity-2="Recomendacao" data-source-line="85" data-uid="lnk16" id="link_ONGController_Recomendacao"><path codeLine="85" d="M772.76,157.9169 C802.98,197.1869 855.31,265.1769 894.09,315.5569" fill="none" id="ONGController-Recomendacao" style="stroke:#181818;stroke-width:1;"/><text fill="#000000" font-family="sans-serif" font-size="13" lengthAdjust="spacing" textLength="24.0703" x="847.46" y="249.4438">cria</text><text fill="#000000" font-family="sans-serif" font-size="13" lengthAdjust="spacing" textLength="8.271" x="768.6545" y="177.637">1</text><text fill="#000000" font-family="sans-serif" font-size="13" lengthAdjust="spacing" textLength="8.271" x="880.267" y="304.6847">1</text></g><!--link Recomendacao to ONG--><g class="link" data-entity-1="Recomendacao" data-entity-2="ONG" data-source-line="86" data-uid="lnk17" id="link_Recomendacao_ONG"><path codeLine="86" d="M900.41,445.6569 C858.59,507.7769 796.4,600.1369 761.23,652.3769" fill="none" id="Recomendacao-ONG" style="stroke:#181818;stroke-width:1;"/><text fill="#000000" font-family="sans-serif" font-size="13" lengthAdjust="spacing" textLength="41.6025" x="859.46" y="521.1138">possui</text><text fill="#000000" font-family="sans-serif" font-size="13" lengthAdjust="spacing" textLength="23.0356" x="871.445" y="465.655">0..*</text><text fill="#000000" font-family="sans-serif" font-size="13" lengthAdjust="spacing" textLength="23.0356" x="740.6662" y="641.765">0..*</text></g><!--link Recomendacao to Campanha--><g class="link" data-entity-1="Recomendacao" data-entity-2="Campanha" data-source-line="87" data-uid="lnk18" id="link_Recomendacao_Campanha"><path codeLine="87" d="M941.4,445.7169 C937.35,571.6569 928.47,847.4769 925.47,940.5569" fill="none" id="Recomendacao-Campanha" style="stroke:#181818;stroke-width:1;"/><text fill="#000000" font-family="sans-serif" font-size="13" lengthAdjust="spacing" textLength="41.6025" x="939.46" y="697.6938">possui</text><text fill="#000000" font-family="sans-serif" font-size="13" lengthAdjust="spacing" textLength="23.0356" x="916.9183" y="465.7216">0..*</text><text fill="#000000" font-family="sans-serif" font-size="13" lengthAdjust="spacing" textLength="23.0356" x="927.9361" y="929.7838">0..*</text></g><!--link AprovacaoController to Voluntario--><g class="link" data-entity-1="AprovacaoController" data-entity-2="Voluntario" data-source-line="111" data-uid="lnk21" id="link_AprovacaoController_Voluntario"><path codeLine="111" d="M1268.46,206.8569 C1268.46,231.0569 1268.46,257.8569 1268.46,282.9969" fill="none" id="AprovacaoController-Voluntario" style="stroke:#181818;stroke-width:1;"/><text fill="#000000" font-family="sans-serif" font-size="13" lengthAdjust="spacing" textLength="41.6025" x="1269.46" y="249.4438">possui</text><text fill="#000000" font-family="sans-serif" font-size="13" lengthAdjust="spacing" textLength="8.271" x="1260.1276" y="226.5797">1</text><text fill="#000000" font-family="sans-serif" font-size="13" lengthAdjust="spacing" textLength="23.0356" x="1244.6167" y="272.3419">1..*</text></g><!--link Perfil to Interesses--><g class="link" data-entity-1="Perfil" data-entity-2="Interesses" data-source-line="121" data-uid="lnk24" id="link_Perfil_Interesses"><path codeLine="121" d="M707.65,1037.9569 C696.7,1064.1069 684.53,1093.1669 675.58,1114.5269" fill="none" id="Perfil-Interesses" style="stroke:#181818;stroke-width:1;"/><text fill="#000000" font-family="sans-serif" font-size="13" lengthAdjust="spacing" textLength="41.6025" x="695.46" y="1080.7538">possui</text><text fill="#000000" font-family="sans-serif" font-size="13" lengthAdjust="spacing" textLength="8.271" x="696.2949" y="1057.9616">1</text><text fill="#000000" font-family="sans-serif" font-size="13" lengthAdjust="spacing" textLength="23.0356" x="652.9169" y="1103.397">1..*</text></g><!--link Perfil to Habilidades--><g class="link" data-entity-1="Perfil" data-entity-2="Habilidades" data-source-line="122" data-uid="lnk25" id="link_Perfil_Habilidades"><path codeLine="122" d="M761.27,1037.9569 C772.23,1064.1069 784.4,1093.1669 793.35,1114.5269" fill="none" id="Perfil-Habilidades" style="stroke:#181818;stroke-width:1;"/><text fill="#000000" font-family="sans-serif" font-size="13" lengthAdjust="spacing" textLength="41.6025" x="780.46" y="1080.7538">possui</text><text fill="#000000" font-family="sans-serif" font-size="13" lengthAdjust="spacing" textLength="8.271" x="755.7796" y="1057.9616">1</text><text fill="#000000" font-family="sans-serif" font-size="13" lengthAdjust="spacing" textLength="23.0356" x="765.2777" y="1103.397">1..*</text></g><!--link ONG to Campanha--><g class="link" data-entity-1="ONG" data-entity-2="Campanha" data-source-line="124" data-uid="lnk26" id="link_ONG_Campanha"><path codeLine="124" d="M761.48,733.6369 C799.49,789.2169 867.99,889.3769 902.84,940.3269" fill="none" id="ONG-Campanha" style="stroke:#181818;stroke-width:1;"/><text fill="#000000" font-family="sans-serif" font-size="13" lengthAdjust="spacing" textLength="41.6025" x="859.46" y="874.2738">possui</text><text fill="#000000" font-family="sans-serif" font-size="13" lengthAdjust="spacing" textLength="8.271" x="757.1701" y="753.3664">1</text><text fill="#000000" font-family="sans-serif" font-size="13" lengthAdjust="spacing" textLength="23.0356" x="873.5296" y="929.7589">0..*</text></g><!--SRC=[fLKxRzim4DxrAmWlTLexID0jdO8uQ0sqYP6WtI_KsM4WaG992K6B_lSU9L4a9IPBlTY-5x_xxcM5hP3j19mqrC1APBm2Oz2udurMBsWLsxAVDnSNdulY0pjeKQFGm6ujD50KlJMxFefA00TrewJLggfGipy5eyydeoh1XON9P8qrY6h3U7Cy6qmwg4G9UWUbCliIfHL7mNlJqebIgmDgYhHk-gyDUuOduUGbUZkD9s6i1dtDKLXSZ-Adrd2u0LcIiLNcWDAzX8RqVtqQ1oIjcf2EAMoD1TkQuJSvmn2GQ-7G91x-CGgcEAcdzzRS_yh2YT44E9FQ0v6gnX4Ilge0w0uCfx98EyeaSA4a3BmC8YhbKHW3euKHjdM01p0dj07fsIHRYtByKxSbF8ukYrGIxrKpfh8QjGQg3d8-Go5pxtuBDSsfznHTe-lHM4ki5RasN5sks7PBN-Vd7rVp2b-nHXdJYc9U-Sbh5QfmvUQ1jneMzLbsFRwA9zpBezArYxT32zKpbA7YWTlUD4fvu2Ka-KjLhRIWHUGp3HKXwlg4axZ4HGwRJ-gYfoBEQo1XJEl-xklROqnlFI2dFfIb-tqlJmVGt6s4SIIZSQ90tfqK5904ExpcIfS4gquc-UnBr4nr0_8PPgFfhFmWH5C_2CH4LwwBiitZXMDHKpHzEwL4fEoHRkBDvJcAuqvpWURSnjpvPBZFD-oLs6ojvCd4mvGeTVGdNJvK6kDyKsaWTmWRBPj1uL4HROJ4hOYtgQ2l6CmLSzYB9CU8boLnxrjwH7CEGzClkXHwLJ8nuS-6PSX2sGcuTHVfkpe9kPTqEbf7R3VvtGxtAWXworZmY0Hp4V01JLjPYDPAKhdv0nbm6b_eX47cYcnOhQpeffBJQgx4R_ZH2_scplabRZ5MUYbPxhtuVtEQCJurMoYARxVASUfl6x4P7w5W7Oz1LELkOU3FopJFwTM9VBDd9wlFhkH9hQ5lYxuLte16wUTwDxrGmNVUz-7zx8mEHb4IMQjnZwPlXiZHGSpOHS43k7xxNRutkFy0]--></g></svg>