<svg xmlns="http://www.w3.org/2000/svg" xmlns:xlink="http://www.w3.org/1999/xlink" contentStyleType="text/css" data-diagram-type="CLASS" height="865px" preserveAspectRatio="none" style="width:1498px;height:865px;background:#FFFFFF;" version="1.1" viewBox="0 0 1498 865" width="1498px" zoomAndPan="magnify"><title>Diagrama de classes de projeto - UC003</title><defs/><g><g class="title" data-source-line="1"><text fill="#000000" font-family="sans-serif" font-size="14" font-weight="bold" lengthAdjust="spacing" textLength="315.417" x="584.5545" y="22.9951">Diagrama de classes de projeto - UC003</text></g><!--class AfiliacaoController--><g class="entity" data-entity="AfiliacaoController" data-source-line="5" data-uid="ent0002" id="entity_AfiliacaoController"><rect fill="#F1F1F1" height="129.4844" rx="2.5" ry="2.5" style="stroke:#181818;stroke-width:0.5;" width="260.9238" x="7" y="68.7469"/><ellipse cx="68.8276" cy="84.7469" fill="#ADD1B2" rx="11" ry="11" style="stroke:#181818;stroke-width:1;"/><path d="M71.7964,90.3875 Q71.2183,90.6844 70.5776,90.825 Q69.937,90.9813 69.2339,90.9813 Q66.7339,90.9813 65.4058,89.3406 Q64.0933,87.6844 64.0933,84.5594 Q64.0933,81.4344 65.4058,79.7781 Q66.7339,78.1219 69.2339,78.1219 Q69.937,78.1219 70.5776,78.2781 Q71.2339,78.4344 71.7964,78.7313 L71.7964,81.45 Q71.1714,80.8719 70.5776,80.6063 Q69.9839,80.325 69.3589,80.325 Q68.0151,80.325 67.3276,81.4031 Q66.6401,82.4656 66.6401,84.5594 Q66.6401,86.6531 67.3276,87.7313 Q68.0151,88.7938 69.3589,88.7938 Q69.9839,88.7938 70.5776,88.5281 Q71.1714,88.2469 71.7964,87.6688 L71.7964,90.3875 Z " fill="#000000"/><text fill="#000000" font-family="sans-serif" font-size="14" lengthAdjust="spacing" textLength="128.7686" x="89.3276" y="89.5936">AfiliacaoController</text><line style="stroke:#181818;stroke-width:0.5;" x1="8" x2="266.9238" y1="100.7469" y2="100.7469"/><line style="stroke:#181818;stroke-width:0.5;" x1="8" x2="266.9238" y1="108.7469" y2="108.7469"/><ellipse cx="18" cy="122.3953" fill="#84BE84" rx="3" ry="3" style="stroke:#038048;stroke-width:1;"/><text fill="#000000" font-family="sans-serif" font-size="14" lengthAdjust="spacing" textLength="188.8359" x="27" y="125.742">solicitaAfiliacao(email, cpf)</text><ellipse cx="18" cy="138.6922" fill="#84BE84" rx="3" ry="3" style="stroke:#038048;stroke-width:1;"/><text fill="#000000" font-family="sans-serif" font-size="14" lengthAdjust="spacing" textLength="234.9238" x="27" y="142.0389">validarDadosIdentificacao(dados)</text><ellipse cx="18" cy="154.9891" fill="#84BE84" rx="3" ry="3" style="stroke:#038048;stroke-width:1;"/><text fill="#000000" font-family="sans-serif" font-size="14" lengthAdjust="spacing" textLength="219.4404" x="27" y="158.3357">validarPerfil(perfil, habilidades)</text><ellipse cx="18" cy="171.2859" fill="#84BE84" rx="3" ry="3" style="stroke:#038048;stroke-width:1;"/><text fill="#000000" font-family="sans-serif" font-size="14" lengthAdjust="spacing" textLength="114.8232" x="27" y="174.6326">registrarAceite()</text><ellipse cx="18" cy="187.5828" fill="#84BE84" rx="3" ry="3" style="stroke:#038048;stroke-width:1;"/><text fill="#000000" font-family="sans-serif" font-size="14" lengthAdjust="spacing" textLength="204.7705" x="27" y="190.9295">buscaCandidatosPendentes()</text></g><!--class PedidoAfiliacao--><g class="entity" data-entity="PedidoAfiliacao" data-source-line="13" data-uid="ent0003" id="entity_PedidoAfiliacao"><rect fill="#F1F1F1" height="129.4844" rx="2.5" ry="2.5" style="stroke:#181818;stroke-width:0.5;" width="235.5488" x="19.69" y="299.6769"/><ellipse cx="79.7745" cy="315.6769" fill="#ADD1B2" rx="11" ry="11" style="stroke:#181818;stroke-width:1;"/><path d="M82.7432,321.3175 Q82.1651,321.6144 81.5245,321.755 Q80.8838,321.9113 80.1807,321.9113 Q77.6807,321.9113 76.3526,320.2706 Q75.0401,318.6144 75.0401,315.4894 Q75.0401,312.3644 76.3526,310.7081 Q77.6807,309.0519 80.1807,309.0519 Q80.8838,309.0519 81.5245,309.2081 Q82.1807,309.3644 82.7432,309.6613 L82.7432,312.38 Q82.1182,311.8019 81.5245,311.5363 Q80.9307,311.255 80.3057,311.255 Q78.962,311.255 78.2745,312.3331 Q77.587,313.3956 77.587,315.4894 Q77.587,317.5831 78.2745,318.6613 Q78.962,319.7238 80.3057,319.7238 Q80.9307,319.7238 81.5245,319.4581 Q82.1182,319.1769 82.7432,318.5988 L82.7432,321.3175 Z " fill="#000000"/><text fill="#000000" font-family="sans-serif" font-size="14" lengthAdjust="spacing" textLength="106.8799" x="100.2745" y="320.5236">PedidoAfiliacao</text><line style="stroke:#181818;stroke-width:0.5;" x1="20.69" x2="254.2388" y1="331.6769" y2="331.6769"/><rect fill="none" height="6" style="stroke:#C82930;stroke-width:1;" width="6" x="27.69" y="342.3253"/><text fill="#000000" font-family="sans-serif" font-size="14" lengthAdjust="spacing" textLength="43.0186" x="39.69" y="348.672">status</text><rect fill="none" height="6" style="stroke:#C82930;stroke-width:1;" width="6" x="27.69" y="358.6222"/><text fill="#000000" font-family="sans-serif" font-size="14" lengthAdjust="spacing" textLength="31.5342" x="39.69" y="364.9689">data</text><line style="stroke:#181818;stroke-width:0.5;" x1="20.69" x2="254.2388" y1="372.2706" y2="372.2706"/><ellipse cx="30.69" cy="385.9191" fill="#84BE84" rx="3" ry="3" style="stroke:#038048;stroke-width:1;"/><text fill="#000000" font-family="sans-serif" font-size="14" lengthAdjust="spacing" textLength="149.4814" x="39.69" y="389.2657">criarPedidoAfiliacao()</text><ellipse cx="30.69" cy="402.2159" fill="#84BE84" rx="3" ry="3" style="stroke:#038048;stroke-width:1;"/><text fill="#000000" font-family="sans-serif" font-size="14" lengthAdjust="spacing" textLength="209.5488" x="39.69" y="405.5626">associarCandidato(candidato)</text><ellipse cx="30.69" cy="418.5128" fill="#84BE84" rx="3" ry="3" style="stroke:#038048;stroke-width:1;"/><text fill="#000000" font-family="sans-serif" font-size="14" lengthAdjust="spacing" textLength="197.4766" x="39.69" y="421.8595">buscaCandidatoPendentes()</text></g><!--class Candidato--><g class="entity" data-entity="Candidato" data-source-line="22" data-uid="ent0004" id="entity_Candidato"><rect fill="#F1F1F1" height="210.9688" rx="2.5" ry="2.5" style="stroke:#181818;stroke-width:0.5;" width="206.9063" x="229.01" y="506.1569"/><ellipse cx="292.4509" cy="522.1569" fill="#ADD1B2" rx="11" ry="11" style="stroke:#181818;stroke-width:1;"/><path d="M295.4197,527.7975 Q294.8415,528.0944 294.2009,528.235 Q293.5603,528.3913 292.8572,528.3913 Q290.3572,528.3913 289.029,526.7506 Q287.7165,525.0944 287.7165,521.9694 Q287.7165,518.8444 289.029,517.1881 Q290.3572,515.5319 292.8572,515.5319 Q293.5603,515.5319 294.2009,515.6881 Q294.8572,515.8444 295.4197,516.1413 L295.4197,518.86 Q294.7947,518.2819 294.2009,518.0163 Q293.6072,517.735 292.9822,517.735 Q291.6384,517.735 290.9509,518.8131 Q290.2634,519.8756 290.2634,521.9694 Q290.2634,524.0631 290.9509,525.1413 Q291.6384,526.2038 292.9822,526.2038 Q293.6072,526.2038 294.2009,525.9381 Q294.7947,525.6569 295.4197,525.0788 L295.4197,527.7975 Z " fill="#000000"/><text fill="#000000" font-family="sans-serif" font-size="14" lengthAdjust="spacing" textLength="71.5244" x="312.9509" y="527.0036">Candidato</text><line style="stroke:#181818;stroke-width:0.5;" x1="230.01" x2="434.9163" y1="538.1569" y2="538.1569"/><rect fill="none" height="6" style="stroke:#C82930;stroke-width:1;" width="6" x="237.01" y="548.8053"/><text fill="#000000" font-family="sans-serif" font-size="14" lengthAdjust="spacing" textLength="39.6895" x="249.01" y="555.152">nome</text><rect fill="none" height="6" style="stroke:#C82930;stroke-width:1;" width="6" x="237.01" y="565.1022"/><text fill="#000000" font-family="sans-serif" font-size="14" lengthAdjust="spacing" textLength="32.7578" x="249.01" y="571.4489">sexo</text><rect fill="none" height="6" style="stroke:#C82930;stroke-width:1;" width="6" x="237.01" y="581.3991"/><text fill="#000000" font-family="sans-serif" font-size="14" lengthAdjust="spacing" textLength="114.6455" x="249.01" y="587.7457">dataNascimento</text><rect fill="none" height="6" style="stroke:#C82930;stroke-width:1;" width="6" x="237.01" y="597.6959"/><text fill="#000000" font-family="sans-serif" font-size="14" lengthAdjust="spacing" textLength="97.8018" x="249.01" y="604.0426">nacionalidade</text><rect fill="none" height="6" style="stroke:#C82930;stroke-width:1;" width="6" x="237.01" y="613.9928"/><text fill="#000000" font-family="sans-serif" font-size="14" lengthAdjust="spacing" textLength="63.7588" x="249.01" y="620.3395">profissao</text><rect fill="none" height="6" style="stroke:#C82930;stroke-width:1;" width="6" x="237.01" y="630.2897"/><text fill="#000000" font-family="sans-serif" font-size="14" lengthAdjust="spacing" textLength="58.9668" x="249.01" y="636.6364">situacao</text><line style="stroke:#181818;stroke-width:0.5;" x1="230.01" x2="434.9163" y1="643.9381" y2="643.9381"/><ellipse cx="240.01" cy="657.5866" fill="#84BE84" rx="3" ry="3" style="stroke:#038048;stroke-width:1;"/><text fill="#000000" font-family="sans-serif" font-size="14" lengthAdjust="spacing" textLength="105.4375" x="249.01" y="660.9332">getCandidato()</text><ellipse cx="240.01" cy="673.8834" fill="#84BE84" rx="3" ry="3" style="stroke:#038048;stroke-width:1;"/><text fill="#000000" font-family="sans-serif" font-size="14" lengthAdjust="spacing" textLength="46.6895" x="249.01" y="677.2301">get(id)</text><ellipse cx="240.01" cy="690.1803" fill="#84BE84" rx="3" ry="3" style="stroke:#038048;stroke-width:1;"/><text fill="#000000" font-family="sans-serif" font-size="14" lengthAdjust="spacing" textLength="180.9063" x="249.01" y="693.527">mudaSituacao(candidato)</text><ellipse cx="240.01" cy="706.4772" fill="#84BE84" rx="3" ry="3" style="stroke:#038048;stroke-width:1;"/><text fill="#000000" font-family="sans-serif" font-size="14" lengthAdjust="spacing" textLength="116.9971" x="249.01" y="709.8239">salva(candidato)</text></g><!--class CandidatoController--><g class="entity" data-entity="CandidatoController" data-source-line="38" data-uid="ent0007" id="entity_CandidatoController"><rect fill="#F1F1F1" height="80.5938" rx="2.5" ry="2.5" style="stroke:#181818;stroke-width:0.5;" width="311.0928" x="289.92" y="324.1269"/><ellipse cx="370.8678" cy="340.1269" fill="#ADD1B2" rx="11" ry="11" style="stroke:#181818;stroke-width:1;"/><path d="M373.8365,345.7675 Q373.2584,346.0644 372.6178,346.205 Q371.9771,346.3613 371.274,346.3613 Q368.774,346.3613 367.4459,344.7206 Q366.1334,343.0644 366.1334,339.9394 Q366.1334,336.8144 367.4459,335.1581 Q368.774,333.5019 371.274,333.5019 Q371.9771,333.5019 372.6178,333.6581 Q373.274,333.8144 373.8365,334.1113 L373.8365,336.83 Q373.2115,336.2519 372.6178,335.9863 Q372.024,335.705 371.399,335.705 Q370.0553,335.705 369.3678,336.7831 Q368.6803,337.8456 368.6803,339.9394 Q368.6803,342.0331 369.3678,343.1113 Q370.0553,344.1738 371.399,344.1738 Q372.024,344.1738 372.6178,343.9081 Q373.2115,343.6269 373.8365,343.0488 L373.8365,345.7675 Z " fill="#000000"/><text fill="#000000" font-family="sans-serif" font-size="14" lengthAdjust="spacing" textLength="140.6973" x="391.3678" y="344.9736">CandidatoController</text><line style="stroke:#181818;stroke-width:0.5;" x1="290.92" x2="600.0128" y1="356.1269" y2="356.1269"/><line style="stroke:#181818;stroke-width:0.5;" x1="290.92" x2="600.0128" y1="364.1269" y2="364.1269"/><ellipse cx="300.92" cy="377.7753" fill="#84BE84" rx="3" ry="3" style="stroke:#038048;stroke-width:1;"/><text fill="#000000" font-family="sans-serif" font-size="14" lengthAdjust="spacing" textLength="285.0928" x="309.92" y="381.122">exibeInformacaoDetalhadaCandidato(id)</text><ellipse cx="300.92" cy="394.0722" fill="#84BE84" rx="3" ry="3" style="stroke:#038048;stroke-width:1;"/><text fill="#000000" font-family="sans-serif" font-size="14" lengthAdjust="spacing" textLength="219.0098" x="309.92" y="397.4189">solicitaAprovacaoCandidato(id)</text></g><!--class ONGController--><g class="entity" data-entity="ONGController" data-source-line="45" data-uid="ent0009" id="entity_ONGController"><rect fill="#F1F1F1" height="64.2969" rx="2.5" ry="2.5" style="stroke:#181818;stroke-width:0.5;" width="341.1504" x="533.89" y="101.3369"/><ellipse cx="649.4584" cy="117.3369" fill="#ADD1B2" rx="11" ry="11" style="stroke:#181818;stroke-width:1;"/><path d="M652.4271,122.9775 Q651.849,123.2744 651.2084,123.415 Q650.5677,123.5712 649.8646,123.5712 Q647.3646,123.5712 646.0365,121.9306 Q644.724,120.2744 644.724,117.1494 Q644.724,114.0244 646.0365,112.3681 Q647.3646,110.7119 649.8646,110.7119 Q650.5677,110.7119 651.2084,110.8681 Q651.8646,111.0244 652.4271,111.3212 L652.4271,114.04 Q651.8021,113.4619 651.2084,113.1962 Q650.6146,112.915 649.9896,112.915 Q648.6459,112.915 647.9584,113.9931 Q647.2709,115.0556 647.2709,117.1494 Q647.2709,119.2431 647.9584,120.3212 Q648.6459,121.3837 649.9896,121.3837 Q650.6146,121.3837 651.2084,121.1181 Q651.8021,120.8369 652.4271,120.2587 L652.4271,122.9775 Z " fill="#000000"/><text fill="#000000" font-family="sans-serif" font-size="14" lengthAdjust="spacing" textLength="101.5137" x="669.9584" y="122.1836">ONGController</text><line style="stroke:#181818;stroke-width:0.5;" x1="534.89" x2="874.0404" y1="133.3369" y2="133.3369"/><line style="stroke:#181818;stroke-width:0.5;" x1="534.89" x2="874.0404" y1="141.3369" y2="141.3369"/><ellipse cx="544.89" cy="154.9853" fill="#84BE84" rx="3" ry="3" style="stroke:#038048;stroke-width:1;"/><text fill="#000000" font-family="sans-serif" font-size="14" lengthAdjust="spacing" textLength="315.1504" x="553.89" y="158.332">solicitacaoRecomendacaoOngParceira(perfil)</text></g><!--class ONG--><g class="entity" data-entity="ONG" data-source-line="49" data-uid="ent0010" id="entity_ONG"><rect fill="#F1F1F1" height="80.5938" rx="2.5" ry="2.5" style="stroke:#181818;stroke-width:0.5;" width="278.4033" x="558.26" y="571.3469"/><ellipse cx="677.0413" cy="587.3469" fill="#ADD1B2" rx="11" ry="11" style="stroke:#181818;stroke-width:1;"/><path d="M680.01,592.9875 Q679.4319,593.2844 678.7913,593.425 Q678.1506,593.5813 677.4475,593.5813 Q674.9475,593.5813 673.6194,591.9406 Q672.3069,590.2844 672.3069,587.1594 Q672.3069,584.0344 673.6194,582.3781 Q674.9475,580.7219 677.4475,580.7219 Q678.1506,580.7219 678.7913,580.8781 Q679.4475,581.0344 680.01,581.3313 L680.01,584.05 Q679.385,583.4719 678.7913,583.2063 Q678.1975,582.925 677.5725,582.925 Q676.2288,582.925 675.5413,584.0031 Q674.8538,585.0656 674.8538,587.1594 Q674.8538,589.2531 675.5413,590.3313 Q676.2288,591.3938 677.5725,591.3938 Q678.1975,591.3938 678.7913,591.1281 Q679.385,590.8469 680.01,590.2688 L680.01,592.9875 Z " fill="#000000"/><text fill="#000000" font-family="sans-serif" font-size="14" lengthAdjust="spacing" textLength="32.3408" x="697.5413" y="592.1936">ONG</text><line style="stroke:#181818;stroke-width:0.5;" x1="559.26" x2="835.6633" y1="603.3469" y2="603.3469"/><line style="stroke:#181818;stroke-width:0.5;" x1="559.26" x2="835.6633" y1="611.3469" y2="611.3469"/><ellipse cx="569.26" cy="624.9953" fill="#84BE84" rx="3" ry="3" style="stroke:#038048;stroke-width:1;"/><text fill="#000000" font-family="sans-serif" font-size="14" lengthAdjust="spacing" textLength="252.4033" x="578.26" y="628.342">filtroONGDeAcordoComPerfil(perfil);</text><ellipse cx="569.26" cy="641.2922" fill="#84BE84" rx="3" ry="3" style="stroke:#038048;stroke-width:1;"/><text fill="#000000" font-family="sans-serif" font-size="14" lengthAdjust="spacing" textLength="117.9268" x="578.26" y="644.6389">associaOng(ong)</text></g><!--class Perfil--><g class="entity" data-entity="Perfil" data-source-line="54" data-uid="ent0011" id="entity_Perfil"><rect fill="#F1F1F1" height="64.2969" rx="2.5" ry="2.5" style="stroke:#181818;stroke-width:0.5;" width="162.5205" x="616.2" y="794.1269"/><ellipse cx="675.4505" cy="810.1269" fill="#ADD1B2" rx="11" ry="11" style="stroke:#181818;stroke-width:1;"/><path d="M678.4192,815.7675 Q677.8411,816.0644 677.2005,816.205 Q676.5599,816.3613 675.8567,816.3613 Q673.3567,816.3613 672.0286,814.7206 Q670.7161,813.0644 670.7161,809.9394 Q670.7161,806.8144 672.0286,805.1581 Q673.3567,803.5019 675.8567,803.5019 Q676.5599,803.5019 677.2005,803.6581 Q677.8567,803.8144 678.4192,804.1113 L678.4192,806.83 Q677.7942,806.2519 677.2005,805.9863 Q676.6067,805.705 675.9817,805.705 Q674.638,805.705 673.9505,806.7831 Q673.263,807.8456 673.263,809.9394 Q673.263,812.0331 673.9505,813.1113 Q674.638,814.1738 675.9817,814.1738 Q676.6067,814.1738 677.2005,813.9081 Q677.7942,813.6269 678.4192,813.0488 L678.4192,815.7675 Z " fill="#000000"/><text fill="#000000" font-family="sans-serif" font-size="14" lengthAdjust="spacing" textLength="35.5195" x="695.9505" y="814.9736">Perfil</text><line style="stroke:#181818;stroke-width:0.5;" x1="617.2" x2="777.7205" y1="826.1269" y2="826.1269"/><line style="stroke:#181818;stroke-width:0.5;" x1="617.2" x2="777.7205" y1="834.1269" y2="834.1269"/><ellipse cx="627.2" cy="847.7753" fill="#84BE84" rx="3" ry="3" style="stroke:#038048;stroke-width:1;"/><text fill="#000000" font-family="sans-serif" font-size="14" lengthAdjust="spacing" textLength="136.5205" x="636.2" y="851.122">procuraPerfil(perfil)</text></g><!--class Recomendacao--><g class="entity" data-entity="Recomendacao" data-source-line="62" data-uid="ent0014" id="entity_Recomendacao"><rect fill="#F1F1F1" height="80.5938" rx="2.5" ry="2.5" style="stroke:#181818;stroke-width:0.5;" width="285.6494" x="775.64" y="324.1269"/><ellipse cx="860.1971" cy="340.1269" fill="#ADD1B2" rx="11" ry="11" style="stroke:#181818;stroke-width:1;"/><path d="M863.1659,345.7675 Q862.5878,346.0644 861.9471,346.205 Q861.3065,346.3613 860.6034,346.3613 Q858.1034,346.3613 856.7753,344.7206 Q855.4628,343.0644 855.4628,339.9394 Q855.4628,336.8144 856.7753,335.1581 Q858.1034,333.5019 860.6034,333.5019 Q861.3065,333.5019 861.9471,333.6581 Q862.6034,333.8144 863.1659,334.1113 L863.1659,336.83 Q862.5409,336.2519 861.9471,335.9863 Q861.3534,335.705 860.7284,335.705 Q859.3846,335.705 858.6971,336.7831 Q858.0096,337.8456 858.0096,339.9394 Q858.0096,342.0331 858.6971,343.1113 Q859.3846,344.1738 860.7284,344.1738 Q861.3534,344.1738 861.9471,343.9081 Q862.5409,343.6269 863.1659,343.0488 L863.1659,345.7675 Z " fill="#000000"/><text fill="#000000" font-family="sans-serif" font-size="14" lengthAdjust="spacing" textLength="108.0352" x="880.6971" y="344.9736">Recomendacao</text><line style="stroke:#181818;stroke-width:0.5;" x1="776.64" x2="1060.2894" y1="356.1269" y2="356.1269"/><line style="stroke:#181818;stroke-width:0.5;" x1="776.64" x2="1060.2894" y1="364.1269" y2="364.1269"/><ellipse cx="786.64" cy="377.7753" fill="#84BE84" rx="3" ry="3" style="stroke:#038048;stroke-width:1;"/><text fill="#000000" font-family="sans-serif" font-size="14" lengthAdjust="spacing" textLength="178.5" x="795.64" y="381.122">criaRecomendacao(ongs)</text><ellipse cx="786.64" cy="394.0722" fill="#84BE84" rx="3" ry="3" style="stroke:#038048;stroke-width:1;"/><text fill="#000000" font-family="sans-serif" font-size="14" lengthAdjust="spacing" textLength="259.6494" x="795.64" y="397.4189">salvaRecomendacao(recomendacao)</text></g><!--class Campanha--><g class="entity" data-entity="Campanha" data-source-line="67" data-uid="ent0015" id="entity_Campanha"><rect fill="#F1F1F1" height="64.2969" rx="2.5" ry="2.5" style="stroke:#181818;stroke-width:0.5;" width="198.2246" x="871.35" y="579.4969"/><ellipse cx="928.3207" cy="595.4969" fill="#ADD1B2" rx="11" ry="11" style="stroke:#181818;stroke-width:1;"/><path d="M931.2895,601.1375 Q930.7113,601.4344 930.0707,601.575 Q929.4301,601.7312 928.727,601.7312 Q926.227,601.7312 924.8988,600.0906 Q923.5863,598.4344 923.5863,595.3094 Q923.5863,592.1844 924.8988,590.5281 Q926.227,588.8719 928.727,588.8719 Q929.4301,588.8719 930.0707,589.0281 Q930.727,589.1844 931.2895,589.4812 L931.2895,592.2 Q930.6645,591.6219 930.0707,591.3562 Q929.477,591.075 928.852,591.075 Q927.5082,591.075 926.8207,592.1531 Q926.1332,593.2156 926.1332,595.3094 Q926.1332,597.4031 926.8207,598.4812 Q927.5082,599.5437 928.852,599.5437 Q929.477,599.5437 930.0707,599.2781 Q930.6645,598.9969 931.2895,598.4187 L931.2895,601.1375 Z " fill="#000000"/><text fill="#000000" font-family="sans-serif" font-size="14" lengthAdjust="spacing" textLength="75.7832" x="948.8207" y="600.3436">Campanha</text><line style="stroke:#181818;stroke-width:0.5;" x1="872.35" x2="1068.5746" y1="611.4969" y2="611.4969"/><line style="stroke:#181818;stroke-width:0.5;" x1="872.35" x2="1068.5746" y1="619.4969" y2="619.4969"/><ellipse cx="882.35" cy="633.1453" fill="#84BE84" rx="3" ry="3" style="stroke:#038048;stroke-width:1;"/><text fill="#000000" font-family="sans-serif" font-size="14" lengthAdjust="spacing" textLength="172.2246" x="891.35" y="636.492">associaCampanhas(ong)</text></g><!--class AprovacaoController--><g class="entity" data-entity="AprovacaoController" data-source-line="76" data-uid="ent0019" id="entity_AprovacaoController"><rect fill="#F1F1F1" height="178.375" rx="2.5" ry="2.5" style="stroke:#181818;stroke-width:0.5;" width="574.126" x="917.4" y="44.2969"/><ellipse cx="1128.381" cy="60.2969" fill="#ADD1B2" rx="11" ry="11" style="stroke:#181818;stroke-width:1;"/><path d="M1131.3497,65.9375 Q1130.7716,66.2344 1130.131,66.375 Q1129.4903,66.5313 1128.7872,66.5313 Q1126.2872,66.5313 1124.9591,64.8906 Q1123.6466,63.2344 1123.6466,60.1094 Q1123.6466,56.9844 1124.9591,55.3281 Q1126.2872,53.6719 1128.7872,53.6719 Q1129.4903,53.6719 1130.131,53.8281 Q1130.7872,53.9844 1131.3497,54.2813 L1131.3497,57 Q1130.7247,56.4219 1130.131,56.1563 Q1129.5372,55.875 1128.9122,55.875 Q1127.5685,55.875 1126.881,56.9531 Q1126.1935,58.0156 1126.1935,60.1094 Q1126.1935,62.2031 1126.881,63.2813 Q1127.5685,64.3438 1128.9122,64.3438 Q1129.5372,64.3438 1130.131,64.0781 Q1130.7247,63.7969 1131.3497,63.2188 L1131.3497,65.9375 Z " fill="#000000"/><text fill="#000000" font-family="sans-serif" font-size="14" lengthAdjust="spacing" textLength="143.6641" x="1148.881" y="65.1436">AprovacaoController</text><line style="stroke:#181818;stroke-width:0.5;" x1="918.4" x2="1490.526" y1="76.2969" y2="76.2969"/><line style="stroke:#181818;stroke-width:0.5;" x1="918.4" x2="1490.526" y1="84.2969" y2="84.2969"/><ellipse cx="928.4" cy="97.9453" fill="#84BE84" rx="3" ry="3" style="stroke:#038048;stroke-width:1;"/><text fill="#000000" font-family="sans-serif" font-size="14" lengthAdjust="spacing" textLength="329.4307" x="937.4" y="101.292">aprovaVoluntario(idVoluntario, recomendacao)</text><ellipse cx="928.4" cy="114.2422" fill="#84BE84" rx="3" ry="3" style="stroke:#038048;stroke-width:1;"/><text fill="#000000" font-family="sans-serif" font-size="14" lengthAdjust="spacing" textLength="542.0557" x="937.4" y="117.5889">enviaEmailLoginInstrucao(voluntarioEmail, voluntarioLogin, voluntarioSenha)</text><ellipse cx="928.4" cy="130.5391" fill="#84BE84" rx="3" ry="3" style="stroke:#038048;stroke-width:1;"/><text fill="#000000" font-family="sans-serif" font-size="14" lengthAdjust="spacing" textLength="543.6758" x="937.4" y="133.8857">enviaEmailResultadoAfiliacaoRecomendacao(voluntarioEmail,recomendacao)</text><ellipse cx="928.4" cy="146.8359" fill="#84BE84" rx="3" ry="3" style="stroke:#038048;stroke-width:1;"/><text fill="#000000" font-family="sans-serif" font-size="14" lengthAdjust="spacing" textLength="267.4219" x="937.4" y="150.1826">geraLoginSenhaVoluntario(voluntario)</text><ellipse cx="928.4" cy="163.1328" fill="#84BE84" rx="3" ry="3" style="stroke:#038048;stroke-width:1;"/><text fill="#000000" font-family="sans-serif" font-size="14" lengthAdjust="spacing" textLength="254.0576" x="937.4" y="166.4795">rejeitaCandidato(candidato, motivo)</text><ellipse cx="928.4" cy="179.4297" fill="#84BE84" rx="3" ry="3" style="stroke:#038048;stroke-width:1;"/><text fill="#000000" font-family="sans-serif" font-size="14" lengthAdjust="spacing" textLength="367.4385" x="937.4" y="182.7764">atualizaMotivoSituacaoCandidato(candidato,motivo)</text><ellipse cx="928.4" cy="195.7266" fill="#84BE84" rx="3" ry="3" style="stroke:#038048;stroke-width:1;"/><text fill="#000000" font-family="sans-serif" font-size="14" lengthAdjust="spacing" textLength="255.8691" x="937.4" y="199.0732">enviaEmailRejeicao(candidatoEmail)</text><ellipse cx="928.4" cy="212.0234" fill="#84BE84" rx="3" ry="3" style="stroke:#038048;stroke-width:1;"/><text fill="#000000" font-family="sans-serif" font-size="14" lengthAdjust="spacing" textLength="548.126" x="937.4" y="215.3701">enviaEmailResultadoAfiliacaoRecomendacao(voluntarioEmail, recomendacao)</text></g><!--class Voluntario--><g class="entity" data-entity="Voluntario" data-source-line="87" data-uid="ent0020" id="entity_Voluntario"><rect fill="#F1F1F1" height="113.1875" rx="2.5" ry="2.5" style="stroke:#181818;stroke-width:0.5;" width="216.374" x="1096.27" y="307.8269"/><ellipse cx="1164.1782" cy="323.8269" fill="#ADD1B2" rx="11" ry="11" style="stroke:#181818;stroke-width:1;"/><path d="M1167.147,329.4675 Q1166.5688,329.7644 1165.9282,329.905 Q1165.2876,330.0613 1164.5845,330.0613 Q1162.0845,330.0613 1160.7563,328.4206 Q1159.4438,326.7644 1159.4438,323.6394 Q1159.4438,320.5144 1160.7563,318.8581 Q1162.0845,317.2019 1164.5845,317.2019 Q1165.2876,317.2019 1165.9282,317.3581 Q1166.5845,317.5144 1167.147,317.8113 L1167.147,320.53 Q1166.522,319.9519 1165.9282,319.6863 Q1165.3345,319.405 1164.7095,319.405 Q1163.3657,319.405 1162.6782,320.4831 Q1161.9907,321.5456 1161.9907,323.6394 Q1161.9907,325.7331 1162.6782,326.8113 Q1163.3657,327.8738 1164.7095,327.8738 Q1165.3345,327.8738 1165.9282,327.6081 Q1166.522,327.3269 1167.147,326.7488 L1167.147,329.4675 Z " fill="#000000"/><text fill="#000000" font-family="sans-serif" font-size="14" lengthAdjust="spacing" textLength="72.0576" x="1184.6782" y="328.6736">Voluntario</text><line style="stroke:#181818;stroke-width:0.5;" x1="1097.27" x2="1311.644" y1="339.8269" y2="339.8269"/><rect fill="none" height="6" style="stroke:#C82930;stroke-width:1;" width="6" x="1104.27" y="350.4753"/><text fill="#000000" font-family="sans-serif" font-size="14" lengthAdjust="spacing" textLength="34.1045" x="1116.27" y="356.822">login</text><rect fill="none" height="6" style="stroke:#C82930;stroke-width:1;" width="6" x="1104.27" y="366.7722"/><text fill="#000000" font-family="sans-serif" font-size="14" lengthAdjust="spacing" textLength="42.2324" x="1116.27" y="373.1189">senha</text><line style="stroke:#181818;stroke-width:0.5;" x1="1097.27" x2="1311.644" y1="380.4206" y2="380.4206"/><ellipse cx="1107.27" cy="394.0691" fill="#84BE84" rx="3" ry="3" style="stroke:#038048;stroke-width:1;"/><text fill="#000000" font-family="sans-serif" font-size="14" lengthAdjust="spacing" textLength="118.7471" x="1116.27" y="397.4157">get(idVoluntario)</text><ellipse cx="1107.27" cy="410.3659" fill="#84BE84" rx="3" ry="3" style="stroke:#038048;stroke-width:1;"/><text fill="#000000" font-family="sans-serif" font-size="14" lengthAdjust="spacing" textLength="190.374" x="1116.27" y="413.7126">salvaVoluntario(voluntario)</text></g><!--link AfiliacaoController to PedidoAfiliacao--><g class="link" data-entity-1="AfiliacaoController" data-entity-2="PedidoAfiliacao" data-source-line="35" data-uid="lnk5" id="link_AfiliacaoController_PedidoAfiliacao"><path codeLine="35" d="M137.46,198.5669 C137.46,230.0469 137.46,267.8769 137.46,299.3569" fill="none" id="AfiliacaoController-PedidoAfiliacao" style="stroke:#181818;stroke-width:1;"/><text fill="#000000" font-family="sans-serif" font-size="13" lengthAdjust="spacing" textLength="41.6025" x="138.46" y="265.7438">possui</text><text fill="#000000" font-family="sans-serif" font-size="13" lengthAdjust="spacing" textLength="8.271" x="129.0613" y="218.1252">1</text><text fill="#000000" font-family="sans-serif" font-size="13" lengthAdjust="spacing" textLength="23.0356" x="113.2037" y="288.4945">1..*</text></g><!--link PedidoAfiliacao to Candidato--><g class="link" data-entity-1="PedidoAfiliacao" data-entity-2="Candidato" data-source-line="36" data-uid="lnk6" id="link_PedidoAfiliacao_Candidato"><path codeLine="36" d="M188.44,429.5269 C207.06,452.9469 228.64,480.0769 249.33,506.0969" fill="none" id="PedidoAfiliacao-Candidato" style="stroke:#181818;stroke-width:1;"/><text fill="#000000" font-family="sans-serif" font-size="13" lengthAdjust="spacing" textLength="50.248" x="224.46" y="472.2238">procura</text><text fill="#000000" font-family="sans-serif" font-size="13" lengthAdjust="spacing" textLength="8.271" x="185.2983" y="449.0883">1</text><text fill="#000000" font-family="sans-serif" font-size="13" lengthAdjust="spacing" textLength="8.271" x="235.213" y="495.22">1</text></g><!--link CandidatoController to Candidato--><g class="link" data-entity-1="CandidatoController" data-entity-2="Candidato" data-source-line="43" data-uid="lnk8" id="link_CandidatoController_Candidato"><path codeLine="43" d="M427.18,405.0869 C414.59,432.4069 397.24,470.0569 380.83,505.6769" fill="none" id="CandidatoController-Candidato" style="stroke:#181818;stroke-width:1;"/><text fill="#000000" font-family="sans-serif" font-size="13" lengthAdjust="spacing" textLength="41.6025" x="400.46" y="472.2238">possui</text><text fill="#000000" font-family="sans-serif" font-size="13" lengthAdjust="spacing" textLength="8.271" x="415.6497" y="424.8404">1</text><text fill="#000000" font-family="sans-serif" font-size="13" lengthAdjust="spacing" textLength="23.0356" x="360.3082" y="495.1248">0..*</text></g><!--link ONGController to ONG--><g class="link" data-entity-1="ONGController" data-entity-2="ONG" data-source-line="59" data-uid="lnk12" id="link_ONGController_ONG"><path codeLine="59" d="M704,166.0969 C702.76,250.0169 699.41,478.2869 698.05,570.8469" fill="none" id="ONGController-ONG" style="stroke:#181818;stroke-width:1;"/><text fill="#000000" font-family="sans-serif" font-size="13" lengthAdjust="spacing" textLength="41.6025" x="703.46" y="368.9838">possui</text><text fill="#000000" font-family="sans-serif" font-size="13" lengthAdjust="spacing" textLength="8.271" x="695.1747" y="185.8227">1</text><text fill="#000000" font-family="sans-serif" font-size="13" lengthAdjust="spacing" textLength="23.0356" x="673.3138" y="560.227">0..*</text></g><!--link ONG to Perfil--><g class="link" data-entity-1="ONG" data-entity-2="Perfil" data-source-line="60" data-uid="lnk13" id="link_ONG_Perfil"><path codeLine="60" d="M697.46,652.1469 C697.46,693.0969 697.46,756.2969 697.46,793.9469" fill="none" id="ONG-Perfil" style="stroke:#181818;stroke-width:1;"/><text fill="#000000" font-family="sans-serif" font-size="13" lengthAdjust="spacing" textLength="41.6025" x="698.46" y="760.1938">possui</text><text fill="#000000" font-family="sans-serif" font-size="13" lengthAdjust="spacing" textLength="23.0356" x="672.6298" y="671.8749">0..*</text><text fill="#000000" font-family="sans-serif" font-size="13" lengthAdjust="spacing" textLength="23.0356" x="672.0917" y="782.8129">1..*</text></g><!--link ONGController to Recomendacao--><g class="link" data-entity-1="ONGController" data-entity-2="Recomendacao" data-source-line="72" data-uid="lnk16" id="link_ONGController_Recomendacao"><path codeLine="72" d="M733.77,165.8369 C772.23,206.9869 839.75,279.2169 881.63,324.0169" fill="none" id="ONGController-Recomendacao" style="stroke:#181818;stroke-width:1;"/><text fill="#000000" font-family="sans-serif" font-size="13" lengthAdjust="spacing" textLength="24.0703" x="832.46" y="265.7438">cria</text><text fill="#000000" font-family="sans-serif" font-size="13" lengthAdjust="spacing" textLength="8.271" x="730.7786" y="185.7626">1</text><text fill="#000000" font-family="sans-serif" font-size="13" lengthAdjust="spacing" textLength="8.271" x="866.8892" y="313.1602">1</text></g><!--link Recomendacao to ONG--><g class="link" data-entity-1="Recomendacao" data-entity-2="ONG" data-source-line="73" data-uid="lnk17" id="link_Recomendacao_ONG"><path codeLine="73" d="M882.71,405.0869 C841.54,450.7769 774.31,525.3769 733.16,571.0269" fill="none" id="Recomendacao-ONG" style="stroke:#181818;stroke-width:1;"/><text fill="#000000" font-family="sans-serif" font-size="13" lengthAdjust="spacing" textLength="41.6025" x="829.46" y="472.2238">possui</text><text fill="#000000" font-family="sans-serif" font-size="13" lengthAdjust="spacing" textLength="23.0356" x="852.1816" y="424.8404">0..*</text><text fill="#000000" font-family="sans-serif" font-size="13" lengthAdjust="spacing" textLength="23.0356" x="714.1708" y="560.1354">0..*</text></g><!--link Recomendacao to Campanha--><g class="link" data-entity-1="Recomendacao" data-entity-2="Campanha" data-source-line="74" data-uid="lnk18" id="link_Recomendacao_Campanha"><path codeLine="74" d="M926.87,405.0869 C937.16,453.6169 954.38,534.7769 963.8,579.2169" fill="none" id="Recomendacao-Campanha" style="stroke:#181818;stroke-width:1;"/><text fill="#000000" font-family="sans-serif" font-size="13" lengthAdjust="spacing" textLength="41.6025" x="942.46" y="472.2238">possui</text><text fill="#000000" font-family="sans-serif" font-size="13" lengthAdjust="spacing" textLength="23.0356" x="903.3796" y="424.8404">0..*</text><text fill="#000000" font-family="sans-serif" font-size="13" lengthAdjust="spacing" textLength="23.0356" x="937.2278" y="568.4359">0..*</text></g><!--link AprovacaoController to Voluntario--><g class="link" data-entity-1="AprovacaoController" data-entity-2="Voluntario" data-source-line="94" data-uid="lnk21" id="link_AprovacaoController_Voluntario"><path codeLine="94" d="M1204.46,222.9969 C1204.46,251.4369 1204.46,282.1269 1204.46,307.5469" fill="none" id="AprovacaoController-Voluntario" style="stroke:#181818;stroke-width:1;"/><text fill="#000000" font-family="sans-serif" font-size="13" lengthAdjust="spacing" textLength="41.6025" x="1205.46" y="265.7438">possui</text><text fill="#000000" font-family="sans-serif" font-size="13" lengthAdjust="spacing" textLength="8.271" x="1196.1518" y="242.7997">1</text><text fill="#000000" font-family="sans-serif" font-size="13" lengthAdjust="spacing" textLength="23.0356" x="1180.061" y="296.7763">1..*</text></g><!--SRC=[fLGzRzim4DtrAmWljLixID4jdOBOA0oqYP6WsI_KMRc08WsICe8M_UyzIg94sdANQf5qd-yz7i-JLoZM19M56aI9GYfm3btuF5ZpXjw8bVXvTttzfIW-Y9sb6ic2s7WuG56qqU9sJuf0WhapsbkZ55hnkn3yV796aIGFGyWSQo2r5FAmNtGXHr1KWbr3QTosHErfJx8DBOCfZzgXvKhpG_jQYbTueM0lCSPPhCXv2_PM8dcSz-QNnacu0rroi3TkXpfqGiV-Fv763jbh1gGzXPNpu1lNVNCoT0MbfO0couZDk9YHx1xwpMNyceIJeXdX3Eu8H9iQUqZuRaP0z-0a7ulslKs39AEXqwKpyL7koJde8npv9W3km5JeHwIBmJQdil-fcnAU-fGpAWxK4L8h4vWQYDddcLYj-7LrzN5sglMDE1Zd6YfEps38cerwt8J9b8s5CwNEvm_VwGMtUczi7UgjqODwXNBKVcGvZ2fNFxRWinYcDTKd0hnkQQKOEq8zn8VxRvSl1_TwHCcdgylm_Q2h7LWPxba_wCcGSg6OpWuko8OrtafZIuPLP_TZyJMRHwuxDxhA9Zw4nNgzgdc945paw7FAx1l81d2zEJtgKEXKa9Hm113kL6eFQ5qwPfdJ9Z-BzDhK1z2l48lsvAFP3H9SOCMljCsD2AYA36v2yLo3VqT66AToZ4DtDYNGkfwDQhG7Is4Qnv-bo6NeXbuV2JPXptut5UcjveNO1CcEGzwcsyAZeOrC3K_8CCyAFg9hb8VaYcPdSjfW0bo55jfcROE4rfWxhF8tNk4miKMNeZQUZZ6GzpDlkr_mepN6JJMLbwMbhBXJjjnQy_-o5nT6T2GTLxiAWiJTphAaI_ZvL9VsAbmGBYpVYL7Ab- -O6yVmBm00]--></g></svg>