<svg xmlns="http://www.w3.org/2000/svg" xmlns:xlink="http://www.w3.org/1999/xlink" contentStyleType="text/css" data-diagram-type="CLASS" height="833px" preserveAspectRatio="none" style="width:676px;height:833px;background:#FFFFFF;" version="1.1" viewBox="0 0 676 833" width="676px" zoomAndPan="magnify"><defs/><g><!--class Candidato--><g class="entity" data-entity="Candidato" data-source-line="1" data-uid="ent0002" id="entity_Candidato"><rect fill="#F1F1F1" height="80.5938" rx="2.5" ry="2.5" style="stroke:#181818;stroke-width:0.5;" width="103.5244" x="108.27" y="7"/><ellipse cx="123.27" cy="23" fill="#ADD1B2" rx="11" ry="11" style="stroke:#181818;stroke-width:1;"/><path d="M126.2388,28.6406 Q125.6606,28.9375 125.02,29.0781 Q124.3794,29.2344 123.6763,29.2344 Q121.1763,29.2344 119.8481,27.5938 Q118.5356,25.9375 118.5356,22.8125 Q118.5356,19.6875 119.8481,18.0313 Q121.1763,16.375 123.6763,16.375 Q124.3794,16.375 125.02,16.5313 Q125.6763,16.6875 126.2388,16.9844 L126.2388,19.7031 Q125.6138,19.125 125.02,18.8594 Q124.4263,18.5781 123.8013,18.5781 Q122.4575,18.5781 121.77,19.6563 Q121.0825,20.7188 121.0825,22.8125 Q121.0825,24.9063 121.77,25.9844 Q122.4575,27.0469 123.8013,27.0469 Q124.4263,27.0469 125.02,26.7813 Q125.6138,26.5 126.2388,25.9219 L126.2388,28.6406 Z " fill="#000000"/><text fill="#000000" font-family="sans-serif" font-size="14" lengthAdjust="spacing" textLength="71.5244" x="137.27" y="27.8467">Candidato</text><line style="stroke:#181818;stroke-width:0.5;" x1="109.27" x2="210.7944" y1="39" y2="39"/><rect fill="none" height="6" style="stroke:#C82930;stroke-width:1;" width="6" x="116.27" y="49.6484"/><text fill="#000000" font-family="sans-serif" font-size="14" lengthAdjust="spacing" textLength="39.6895" x="128.27" y="55.9951">nome</text><rect fill="none" height="6" style="stroke:#C82930;stroke-width:1;" width="6" x="116.27" y="65.9453"/><text fill="#000000" font-family="sans-serif" font-size="14" lengthAdjust="spacing" textLength="57.8594" x="128.27" y="72.292">cpf_cnpj</text><line style="stroke:#181818;stroke-width:0.5;" x1="109.27" x2="210.7944" y1="79.5938" y2="79.5938"/></g><!--class ONG--><g class="entity" data-entity="ONG" data-source-line="6" data-uid="ent0003" id="entity_ONG"><rect fill="#F1F1F1" height="64.2969" rx="2.5" ry="2.5" style="stroke:#181818;stroke-width:0.5;" width="65.6895" x="437.18" y="338.48"/><ellipse cx="452.7869" cy="354.48" fill="#ADD1B2" rx="11" ry="11" style="stroke:#181818;stroke-width:1;"/><path d="M455.7556,360.1206 Q455.1775,360.4175 454.5369,360.5581 Q453.8963,360.7144 453.1931,360.7144 Q450.6931,360.7144 449.365,359.0737 Q448.0525,357.4175 448.0525,354.2925 Q448.0525,351.1675 449.365,349.5112 Q450.6931,347.855 453.1931,347.855 Q453.8963,347.855 454.5369,348.0112 Q455.1931,348.1675 455.7556,348.4644 L455.7556,351.1831 Q455.1306,350.605 454.5369,350.3394 Q453.9431,350.0581 453.3181,350.0581 Q451.9744,350.0581 451.2869,351.1362 Q450.5994,352.1987 450.5994,354.2925 Q450.5994,356.3862 451.2869,357.4644 Q451.9744,358.5269 453.3181,358.5269 Q453.9431,358.5269 454.5369,358.2612 Q455.1306,357.98 455.7556,357.4019 L455.7556,360.1206 Z " fill="#000000"/><text fill="#000000" font-family="sans-serif" font-size="14" lengthAdjust="spacing" textLength="32.3408" x="466.9217" y="359.3267">ONG</text><line style="stroke:#181818;stroke-width:0.5;" x1="438.18" x2="501.8695" y1="370.48" y2="370.48"/><rect fill="none" height="6" style="stroke:#C82930;stroke-width:1;" width="6" x="445.18" y="381.1284"/><text fill="#000000" font-family="sans-serif" font-size="14" lengthAdjust="spacing" textLength="39.6895" x="457.18" y="387.4751">nome</text><line style="stroke:#181818;stroke-width:0.5;" x1="438.18" x2="501.8695" y1="394.7769" y2="394.7769"/></g><!--class Volunt?rio--><g class="entity" data-entity="Volunt.rio" data-source-line="10" data-uid="ent0004" id="entity_Volunt.rio"><rect fill="#F1F1F1" height="48" rx="2.5" ry="2.5" style="stroke:#181818;stroke-width:0.5;" width="104.0576" x="7" y="189.04"/><ellipse cx="22" cy="205.04" fill="#ADD1B2" rx="11" ry="11" style="stroke:#181818;stroke-width:1;"/><path d="M24.9688,210.6806 Q24.3906,210.9775 23.75,211.1181 Q23.1094,211.2744 22.4063,211.2744 Q19.9063,211.2744 18.5781,209.6337 Q17.2656,207.9775 17.2656,204.8525 Q17.2656,201.7275 18.5781,200.0712 Q19.9063,198.415 22.4063,198.415 Q23.1094,198.415 23.75,198.5712 Q24.4063,198.7275 24.9688,199.0244 L24.9688,201.7431 Q24.3438,201.165 23.75,200.8994 Q23.1563,200.6181 22.5313,200.6181 Q21.1875,200.6181 20.5,201.6962 Q19.8125,202.7587 19.8125,204.8525 Q19.8125,206.9462 20.5,208.0244 Q21.1875,209.0869 22.5313,209.0869 Q23.1563,209.0869 23.75,208.8212 Q24.3438,208.54 24.9688,207.9619 L24.9688,210.6806 Z " fill="#000000"/><text fill="#000000" font-family="sans-serif" font-size="14" lengthAdjust="spacing" textLength="72.0576" x="36" y="209.8867">Volunt&#225;rio</text><line style="stroke:#181818;stroke-width:0.5;" x1="8" x2="110.0576" y1="221.04" y2="221.04"/><line style="stroke:#181818;stroke-width:0.5;" x1="8" x2="110.0576" y1="229.04" y2="229.04"/></g><!--class Campanha--><g class="entity" data-entity="Campanha" data-source-line="14" data-uid="ent0006" id="entity_Campanha"><rect fill="#F1F1F1" height="80.5938" rx="2.5" ry="2.5" style="stroke:#181818;stroke-width:0.5;" width="107.7832" x="402.14" y="479.78"/><ellipse cx="417.14" cy="495.78" fill="#ADD1B2" rx="11" ry="11" style="stroke:#181818;stroke-width:1;"/><path d="M420.1088,501.4206 Q419.5306,501.7175 418.89,501.8581 Q418.2494,502.0144 417.5463,502.0144 Q415.0463,502.0144 413.7181,500.3738 Q412.4056,498.7175 412.4056,495.5925 Q412.4056,492.4675 413.7181,490.8113 Q415.0463,489.155 417.5463,489.155 Q418.2494,489.155 418.89,489.3113 Q419.5463,489.4675 420.1088,489.7644 L420.1088,492.4831 Q419.4838,491.905 418.89,491.6394 Q418.2963,491.3581 417.6713,491.3581 Q416.3275,491.3581 415.64,492.4363 Q414.9525,493.4988 414.9525,495.5925 Q414.9525,497.6863 415.64,498.7644 Q416.3275,499.8269 417.6713,499.8269 Q418.2963,499.8269 418.89,499.5613 Q419.4838,499.28 420.1088,498.7019 L420.1088,501.4206 Z " fill="#000000"/><text fill="#000000" font-family="sans-serif" font-size="14" lengthAdjust="spacing" textLength="75.7832" x="431.14" y="500.6267">Campanha</text><line style="stroke:#181818;stroke-width:0.5;" x1="403.14" x2="508.9232" y1="511.78" y2="511.78"/><rect fill="none" height="6" style="stroke:#C82930;stroke-width:1;" width="6" x="410.14" y="522.4284"/><text fill="#000000" font-family="sans-serif" font-size="14" lengthAdjust="spacing" textLength="39.6895" x="422.14" y="528.7751">nome</text><rect fill="none" height="6" style="stroke:#C82930;stroke-width:1;" width="6" x="410.14" y="538.7253"/><text fill="#000000" font-family="sans-serif" font-size="14" lengthAdjust="spacing" textLength="66.9785" x="422.14" y="545.072">descricao</text><line style="stroke:#181818;stroke-width:0.5;" x1="403.14" x2="508.9232" y1="552.3738" y2="552.3738"/></g><!--class Afiliacao--><g class="entity" data-entity="Afiliacao" data-source-line="19" data-uid="ent0007" id="entity_Afiliacao"><rect fill="#F1F1F1" height="64.2969" rx="2.5" ry="2.5" style="stroke:#181818;stroke-width:0.5;" width="136.5234" x="145.77" y="180.89"/><ellipse cx="180.9875" cy="196.89" fill="#ADD1B2" rx="11" ry="11" style="stroke:#181818;stroke-width:1;"/><path d="M183.9562,202.5306 Q183.3781,202.8275 182.7375,202.9681 Q182.0969,203.1244 181.3937,203.1244 Q178.8937,203.1244 177.5656,201.4838 Q176.2531,199.8275 176.2531,196.7025 Q176.2531,193.5775 177.5656,191.9213 Q178.8937,190.265 181.3937,190.265 Q182.0969,190.265 182.7375,190.4213 Q183.3937,190.5775 183.9562,190.8744 L183.9562,193.5931 Q183.3312,193.015 182.7375,192.7494 Q182.1437,192.4681 181.5187,192.4681 Q180.175,192.4681 179.4875,193.5463 Q178.8,194.6088 178.8,196.7025 Q178.8,198.7963 179.4875,199.8744 Q180.175,200.9369 181.5187,200.9369 Q182.1437,200.9369 182.7375,200.6713 Q183.3312,200.39 183.9562,199.8119 L183.9562,202.5306 Z " fill="#000000"/><text fill="#000000" font-family="sans-serif" font-size="14" lengthAdjust="spacing" textLength="59.5957" x="199.4803" y="201.7367">Afiliacao</text><line style="stroke:#181818;stroke-width:0.5;" x1="146.77" x2="281.2934" y1="212.89" y2="212.89"/><rect fill="none" height="6" style="stroke:#C82930;stroke-width:1;" width="6" x="153.77" y="223.5384"/><text fill="#000000" font-family="sans-serif" font-size="14" lengthAdjust="spacing" textLength="110.5234" x="165.77" y="229.8851">dataDeAfiliacao</text><line style="stroke:#181818;stroke-width:0.5;" x1="146.77" x2="281.2934" y1="237.1869" y2="237.1869"/></g><!--class Perfil--><g class="entity" data-entity="Perfil" data-source-line="23" data-uid="ent0008" id="entity_Perfil"><rect fill="#F1F1F1" height="48" rx="2.5" ry="2.5" style="stroke:#181818;stroke-width:0.5;" width="67.5195" x="301.27" y="637.37"/><ellipse cx="316.27" cy="653.37" fill="#ADD1B2" rx="11" ry="11" style="stroke:#181818;stroke-width:1;"/><path d="M319.2388,659.0106 Q318.6606,659.3075 318.02,659.4481 Q317.3794,659.6044 316.6763,659.6044 Q314.1763,659.6044 312.8481,657.9638 Q311.5356,656.3075 311.5356,653.1825 Q311.5356,650.0575 312.8481,648.4013 Q314.1763,646.745 316.6763,646.745 Q317.3794,646.745 318.02,646.9013 Q318.6763,647.0575 319.2388,647.3544 L319.2388,650.0731 Q318.6138,649.495 318.02,649.2294 Q317.4263,648.9481 316.8013,648.9481 Q315.4575,648.9481 314.77,650.0263 Q314.0825,651.0888 314.0825,653.1825 Q314.0825,655.2763 314.77,656.3544 Q315.4575,657.4169 316.8013,657.4169 Q317.4263,657.4169 318.02,657.1513 Q318.6138,656.87 319.2388,656.2919 L319.2388,659.0106 Z " fill="#000000"/><text fill="#000000" font-family="sans-serif" font-size="14" lengthAdjust="spacing" textLength="35.5195" x="330.27" y="658.2167">Perfil</text><line style="stroke:#181818;stroke-width:0.5;" x1="302.27" x2="367.7895" y1="669.37" y2="669.37"/><line style="stroke:#181818;stroke-width:0.5;" x1="302.27" x2="367.7895" y1="677.37" y2="677.37"/></g><!--class Habilidade--><g class="entity" data-entity="Habilidade" data-source-line="27" data-uid="ent0009" id="entity_Habilidade"><rect fill="#F1F1F1" height="64.2969" rx="2.5" ry="2.5" style="stroke:#181818;stroke-width:0.5;" width="106.6279" x="213.71" y="762.37"/><ellipse cx="228.71" cy="778.37" fill="#ADD1B2" rx="11" ry="11" style="stroke:#181818;stroke-width:1;"/><path d="M231.6788,784.0106 Q231.1006,784.3075 230.46,784.4481 Q229.8194,784.6044 229.1163,784.6044 Q226.6163,784.6044 225.2881,782.9638 Q223.9756,781.3075 223.9756,778.1825 Q223.9756,775.0575 225.2881,773.4013 Q226.6163,771.745 229.1163,771.745 Q229.8194,771.745 230.46,771.9013 Q231.1163,772.0575 231.6788,772.3544 L231.6788,775.0731 Q231.0538,774.495 230.46,774.2294 Q229.8663,773.9481 229.2413,773.9481 Q227.8975,773.9481 227.21,775.0263 Q226.5225,776.0888 226.5225,778.1825 Q226.5225,780.2763 227.21,781.3544 Q227.8975,782.4169 229.2413,782.4169 Q229.8663,782.4169 230.46,782.1513 Q231.0538,781.87 231.6788,781.2919 L231.6788,784.0106 Z " fill="#000000"/><text fill="#000000" font-family="sans-serif" font-size="14" lengthAdjust="spacing" textLength="74.6279" x="242.71" y="783.2167">Habilidade</text><line style="stroke:#181818;stroke-width:0.5;" x1="214.71" x2="319.3379" y1="794.37" y2="794.37"/><rect fill="none" height="6" style="stroke:#C82930;stroke-width:1;" width="6" x="221.71" y="805.0184"/><text fill="#000000" font-family="sans-serif" font-size="14" lengthAdjust="spacing" textLength="66.9785" x="233.71" y="811.3651">descricao</text><line style="stroke:#181818;stroke-width:0.5;" x1="214.71" x2="319.3379" y1="818.6669" y2="818.6669"/></g><!--class Interesse--><g class="entity" data-entity="Interesse" data-source-line="31" data-uid="ent0010" id="entity_Interesse"><rect fill="#F1F1F1" height="64.2969" rx="2.5" ry="2.5" style="stroke:#181818;stroke-width:0.5;" width="96.6748" x="355.69" y="762.37"/><ellipse cx="370.69" cy="778.37" fill="#ADD1B2" rx="11" ry="11" style="stroke:#181818;stroke-width:1;"/><path d="M373.6588,784.0106 Q373.0806,784.3075 372.44,784.4481 Q371.7994,784.6044 371.0963,784.6044 Q368.5963,784.6044 367.2681,782.9638 Q365.9556,781.3075 365.9556,778.1825 Q365.9556,775.0575 367.2681,773.4013 Q368.5963,771.745 371.0963,771.745 Q371.7994,771.745 372.44,771.9013 Q373.0963,772.0575 373.6588,772.3544 L373.6588,775.0731 Q373.0338,774.495 372.44,774.2294 Q371.8463,773.9481 371.2213,773.9481 Q369.8775,773.9481 369.19,775.0263 Q368.5025,776.0888 368.5025,778.1825 Q368.5025,780.2763 369.19,781.3544 Q369.8775,782.4169 371.2213,782.4169 Q371.8463,782.4169 372.44,782.1513 Q373.0338,781.87 373.6588,781.2919 L373.6588,784.0106 Z " fill="#000000"/><text fill="#000000" font-family="sans-serif" font-size="14" lengthAdjust="spacing" textLength="64.6748" x="384.69" y="783.2167">Interesse</text><line style="stroke:#181818;stroke-width:0.5;" x1="356.69" x2="451.3648" y1="794.37" y2="794.37"/><rect fill="none" height="6" style="stroke:#C82930;stroke-width:1;" width="6" x="363.69" y="805.0184"/><text fill="#000000" font-family="sans-serif" font-size="14" lengthAdjust="spacing" textLength="66.9785" x="375.69" y="811.3651">descricao</text><line style="stroke:#181818;stroke-width:0.5;" x1="356.69" x2="451.3648" y1="818.6669" y2="818.6669"/></g><!--class Representante--><g class="entity" data-entity="Representante" data-source-line="35" data-uid="ent0011" id="entity_Representante"><rect fill="#F1F1F1" height="48" rx="2.5" ry="2.5" style="stroke:#181818;stroke-width:0.5;" width="135.4209" x="271.32" y="23.29"/><ellipse cx="286.32" cy="39.29" fill="#ADD1B2" rx="11" ry="11" style="stroke:#181818;stroke-width:1;"/><path d="M289.2888,44.9306 Q288.7106,45.2275 288.07,45.3681 Q287.4294,45.5244 286.7263,45.5244 Q284.2263,45.5244 282.8981,43.8837 Q281.5856,42.2275 281.5856,39.1025 Q281.5856,35.9775 282.8981,34.3212 Q284.2263,32.665 286.7263,32.665 Q287.4294,32.665 288.07,32.8212 Q288.7263,32.9775 289.2888,33.2744 L289.2888,35.9931 Q288.6638,35.415 288.07,35.1494 Q287.4763,34.8681 286.8513,34.8681 Q285.5075,34.8681 284.82,35.9462 Q284.1325,37.0087 284.1325,39.1025 Q284.1325,41.1962 284.82,42.2744 Q285.5075,43.3369 286.8513,43.3369 Q287.4763,43.3369 288.07,43.0712 Q288.6638,42.79 289.2888,42.2119 L289.2888,44.9306 Z " fill="#000000"/><text fill="#000000" font-family="sans-serif" font-size="14" lengthAdjust="spacing" textLength="103.4209" x="300.32" y="44.1367">Representante</text><line style="stroke:#181818;stroke-width:0.5;" x1="272.32" x2="405.7409" y1="55.29" y2="55.29"/><line style="stroke:#181818;stroke-width:0.5;" x1="272.32" x2="405.7409" y1="63.29" y2="63.29"/></g><!--class Email--><g class="entity" data-entity="Email" data-source-line="39" data-uid="ent0012" id="entity_Email"><rect fill="#F1F1F1" height="64.2969" rx="2.5" ry="2.5" style="stroke:#181818;stroke-width:0.5;" width="91.6182" x="112.22" y="338.48"/><ellipse cx="136.5694" cy="354.48" fill="#ADD1B2" rx="11" ry="11" style="stroke:#181818;stroke-width:1;"/><path d="M139.5381,360.1206 Q138.96,360.4175 138.3194,360.5581 Q137.6787,360.7144 136.9756,360.7144 Q134.4756,360.7144 133.1475,359.0737 Q131.835,357.4175 131.835,354.2925 Q131.835,351.1675 133.1475,349.5112 Q134.4756,347.855 136.9756,347.855 Q137.6787,347.855 138.3194,348.0112 Q138.9756,348.1675 139.5381,348.4644 L139.5381,351.1831 Q138.9131,350.605 138.3194,350.3394 Q137.7256,350.0581 137.1006,350.0581 Q135.7569,350.0581 135.0694,351.1362 Q134.3819,352.1987 134.3819,354.2925 Q134.3819,356.3862 135.0694,357.4644 Q135.7569,358.5269 137.1006,358.5269 Q137.7256,358.5269 138.3194,358.2612 Q138.9131,357.98 139.5381,357.4019 L139.5381,360.1206 Z " fill="#000000"/><text fill="#000000" font-family="sans-serif" font-size="14" lengthAdjust="spacing" textLength="38.8418" x="152.647" y="359.3267">Email</text><line style="stroke:#181818;stroke-width:0.5;" x1="113.22" x2="202.8382" y1="370.48" y2="370.48"/><rect fill="none" height="6" style="stroke:#C82930;stroke-width:1;" width="6" x="120.22" y="381.1284"/><text fill="#000000" font-family="sans-serif" font-size="14" lengthAdjust="spacing" textLength="65.6182" x="132.22" y="387.4751">endereco</text><line style="stroke:#181818;stroke-width:0.5;" x1="113.22" x2="202.8382" y1="394.7769" y2="394.7769"/></g><!--class Recomendacao--><g class="entity" data-entity="Recomendacao" data-source-line="43" data-uid="ent0013" id="entity_Recomendacao"><rect fill="#F1F1F1" height="48" rx="2.5" ry="2.5" style="stroke:#181818;stroke-width:0.5;" width="140.0352" x="388.01" y="189.04"/><ellipse cx="403.01" cy="205.04" fill="#ADD1B2" rx="11" ry="11" style="stroke:#181818;stroke-width:1;"/><path d="M405.9788,210.6806 Q405.4006,210.9775 404.76,211.1181 Q404.1194,211.2744 403.4163,211.2744 Q400.9163,211.2744 399.5881,209.6337 Q398.2756,207.9775 398.2756,204.8525 Q398.2756,201.7275 399.5881,200.0712 Q400.9163,198.415 403.4163,198.415 Q404.1194,198.415 404.76,198.5712 Q405.4163,198.7275 405.9788,199.0244 L405.9788,201.7431 Q405.3538,201.165 404.76,200.8994 Q404.1663,200.6181 403.5413,200.6181 Q402.1975,200.6181 401.51,201.6962 Q400.8225,202.7587 400.8225,204.8525 Q400.8225,206.9462 401.51,208.0244 Q402.1975,209.0869 403.5413,209.0869 Q404.1663,209.0869 404.76,208.8212 Q405.3538,208.54 405.9788,207.9619 L405.9788,210.6806 Z " fill="#000000"/><text fill="#000000" font-family="sans-serif" font-size="14" lengthAdjust="spacing" textLength="108.0352" x="417.01" y="209.8867">Recomendacao</text><line style="stroke:#181818;stroke-width:0.5;" x1="389.01" x2="527.0452" y1="221.04" y2="221.04"/><line style="stroke:#181818;stroke-width:0.5;" x1="389.01" x2="527.0452" y1="229.04" y2="229.04"/></g><!--class Aprovacao--><g class="entity" data-entity="Aprovacao" data-source-line="47" data-uid="ent0014" id="entity_Aprovacao"><rect fill="#F1F1F1" height="96.8906" rx="2.5" ry="2.5" style="stroke:#181818;stroke-width:0.5;" width="106.4912" x="562.78" y="164.59"/><ellipse cx="577.78" cy="180.59" fill="#ADD1B2" rx="11" ry="11" style="stroke:#181818;stroke-width:1;"/><path d="M580.7488,186.2306 Q580.1706,186.5275 579.53,186.6681 Q578.8894,186.8244 578.1863,186.8244 Q575.6863,186.8244 574.3581,185.1837 Q573.0456,183.5275 573.0456,180.4025 Q573.0456,177.2775 574.3581,175.6212 Q575.6863,173.965 578.1863,173.965 Q578.8894,173.965 579.53,174.1212 Q580.1863,174.2775 580.7488,174.5744 L580.7488,177.2931 Q580.1238,176.715 579.53,176.4494 Q578.9363,176.1681 578.3113,176.1681 Q576.9675,176.1681 576.28,177.2462 Q575.5925,178.3087 575.5925,180.4025 Q575.5925,182.4962 576.28,183.5744 Q576.9675,184.6369 578.3113,184.6369 Q578.9363,184.6369 579.53,184.3712 Q580.1238,184.09 580.7488,183.5119 L580.7488,186.2306 Z " fill="#000000"/><text fill="#000000" font-family="sans-serif" font-size="14" lengthAdjust="spacing" textLength="74.4912" x="591.78" y="185.4367">Aprovacao</text><line style="stroke:#181818;stroke-width:0.5;" x1="563.78" x2="668.2712" y1="196.59" y2="196.59"/><rect fill="none" height="6" style="stroke:#C82930;stroke-width:1;" width="6" x="570.78" y="207.2384"/><text fill="#000000" font-family="sans-serif" font-size="14" lengthAdjust="spacing" textLength="31.5342" x="582.78" y="213.5851">data</text><rect fill="none" height="6" style="stroke:#C82930;stroke-width:1;" width="6" x="570.78" y="223.5353"/><text fill="#000000" font-family="sans-serif" font-size="14" lengthAdjust="spacing" textLength="43.0186" x="582.78" y="229.882">status</text><rect fill="none" height="6" style="stroke:#C82930;stroke-width:1;" width="6" x="570.78" y="239.8322"/><text fill="#000000" font-family="sans-serif" font-size="14" lengthAdjust="spacing" textLength="48.4326" x="582.78" y="246.1789">motivo</text><line style="stroke:#181818;stroke-width:0.5;" x1="563.78" x2="668.2712" y1="253.4806" y2="253.4806"/></g><!--reverse link Candidato to Volunt?rio--><g class="link" data-entity-1="Candidato" data-entity-2="Volunt.rio" data-source-line="11" data-uid="lnk5" id="link_Candidato_Volunt.rio"><path d="M126.1295,103.2495 C106.6295,134.8595 89.45,162.73 73.28,188.93" fill="none" id="Candidato-backto-Volunt&#225;rio" style="stroke:#181818;stroke-width:1;"/><polygon fill="none" points="135.58,87.93,121.023,100.0994,131.236,106.3997,135.58,87.93" style="stroke:#181818;stroke-width:1;"/></g><!--link Perfil to Habilidade--><g class="link" data-entity-1="Perfil" data-entity-2="Habilidade" data-source-line="53" data-uid="lnk15" id="link_Perfil_Habilidade"><path codeLine="53" d="M322.87,685.82 C311.87,707.04 295.58,738.46 283.42,761.9" fill="none" id="Perfil-Habilidade" style="stroke:#181818;stroke-width:1;"/><text fill="#000000" font-family="sans-serif" font-size="13" lengthAdjust="spacing" textLength="49.0991" x="309.03" y="728.4369">cont&#233;m</text><text fill="#000000" font-family="sans-serif" font-size="13" lengthAdjust="spacing" textLength="23.0356" x="294.4028" y="705.2907">1..*</text><text fill="#000000" font-family="sans-serif" font-size="13" lengthAdjust="spacing" textLength="23.0356" x="261.3567" y="751.332">1..*</text></g><!--link Perfil to Interesse--><g class="link" data-entity-1="Perfil" data-entity-2="Interesse" data-source-line="54" data-uid="lnk16" id="link_Perfil_Interesse"><path codeLine="54" d="M348.59,685.71 C353.83,694.9 359.81,705.57 365.03,715.37 C373.15,730.63 381.77,747.8 388.84,762.15" fill="none" id="Perfil-Interesse" style="stroke:#181818;stroke-width:1;"/><text fill="#000000" font-family="sans-serif" font-size="13" lengthAdjust="spacing" textLength="41.6025" x="375.03" y="728.4369">possui</text><text fill="#000000" font-family="sans-serif" font-size="13" lengthAdjust="spacing" textLength="23.0356" x="326.0965" y="705.5541">1..*</text><text fill="#000000" font-family="sans-serif" font-size="13" lengthAdjust="spacing" textLength="23.0356" x="360.5894" y="751.3809">1..*</text></g><!--link Candidato to Afiliacao--><g class="link" data-entity-1="Candidato" data-entity-2="Afiliacao" data-source-line="56" data-uid="lnk17" id="link_Candidato_Afiliacao"><path codeLine="56" d="M166.31,87.89 C169.18,102.74 173.06,119.63 178.03,134.59 C183.21,150.21 190.67,166.85 197.45,180.68" fill="none" id="Candidato-Afiliacao" style="stroke:#181818;stroke-width:1;"/><text fill="#000000" font-family="sans-serif" font-size="13" lengthAdjust="spacing" textLength="41.6025" x="179.03" y="130.6569">possui</text><text fill="#000000" font-family="sans-serif" font-size="13" lengthAdjust="spacing" textLength="8.271" x="158.6946" y="107.6323">1</text><text fill="#000000" font-family="sans-serif" font-size="13" lengthAdjust="spacing" textLength="8.271" x="185.4247" y="169.9128">1</text></g><!--link Volunt?rio to Perfil--><g class="link" data-entity-1="Volunt.rio" data-entity-2="Perfil" data-source-line="58" data-uid="lnk18" id="link_Volunt.rio_Perfil"><path codeLine="58" d="M59.38,237.44 C60.82,274.48 67.27,348.03 95.03,402.78 C147,505.27 252.07,596.15 304.22,637.2" fill="none" id="Volunt&#225;rio-Perfil" style="stroke:#181818;stroke-width:1;"/><text fill="#000000" font-family="sans-serif" font-size="13" lengthAdjust="spacing" textLength="41.6025" x="122.03" y="445.8469">possui</text><text fill="#000000" font-family="sans-serif" font-size="13" lengthAdjust="spacing" textLength="8.271" x="50.5236" y="257.2987">1</text><text fill="#000000" font-family="sans-serif" font-size="13" lengthAdjust="spacing" textLength="8.271" x="287.3347" y="626.1685">1</text></g><!--reverse link Volunt?rio to Email--><g class="link" data-entity-1="Volunt.rio" data-entity-2="Email" data-source-line="59" data-uid="lnk19" id="link_Volunt.rio_Email"><path codeLine="59" d="M80.293,247.4536 C97.343,274.2436 118.97,308.24 137.96,338.09" fill="none" id="Volunt&#225;rio-backto-Email" style="stroke:#181818;stroke-width:1;"/><polygon fill="#181818" points="73.85,237.33,73.697,244.5395,80.293,247.4536,80.446,240.2441,73.85,237.33" style="stroke:#181818;stroke-width:1;"/><text fill="#000000" font-family="sans-serif" font-size="13" lengthAdjust="spacing" textLength="41.6025" x="119.03" y="304.5469">possui</text><text fill="#000000" font-family="sans-serif" font-size="13" lengthAdjust="spacing" textLength="8.271" x="68.5207" y="257.1619">1</text><text fill="#000000" font-family="sans-serif" font-size="13" lengthAdjust="spacing" textLength="8.271" x="125.3977" y="327.5372">1</text></g><!--reverse link ONG to Campanha--><g class="link" data-entity-1="ONG" data-entity-2="Campanha" data-source-line="61" data-uid="lnk20" id="link_ONG_Campanha"><path codeLine="61" d="M465.8923,415.2059 C463.7723,437.4659 462.07,455.47 459.8,479.33" fill="none" id="ONG-backto-Campanha" style="stroke:#181818;stroke-width:1;"/><polygon fill="#181818" points="467.03,403.26,462.4792,408.8537,465.8923,415.2059,470.4431,409.6122,467.03,403.26" style="stroke:#181818;stroke-width:1;"/><text fill="#000000" font-family="sans-serif" font-size="13" lengthAdjust="spacing" textLength="29.561" x="464.03" y="445.8469">abre</text><text fill="#000000" font-family="sans-serif" font-size="13" lengthAdjust="spacing" textLength="8.271" x="457.7653" y="422.7384">1</text><text fill="#000000" font-family="sans-serif" font-size="13" lengthAdjust="spacing" textLength="23.0356" x="435.5706" y="468.7181">0..*</text></g><!--link Campanha to Perfil--><g class="link" data-entity-1="Campanha" data-entity-2="Perfil" data-source-line="62" data-uid="lnk21" id="link_Campanha_Perfil"><path codeLine="62" d="M421.68,560.62 C400.3,585.23 373.52,616.06 355.44,636.88" fill="none" id="Campanha-Perfil" style="stroke:#181818;stroke-width:1;"/><text fill="#000000" font-family="sans-serif" font-size="13" lengthAdjust="spacing" textLength="49.0991" x="397.03" y="603.4369">cont&#233;m</text><text fill="#000000" font-family="sans-serif" font-size="13" lengthAdjust="spacing" textLength="23.0356" x="391.3752" y="580.3544">1..*</text><text fill="#000000" font-family="sans-serif" font-size="13" lengthAdjust="spacing" textLength="23.0356" x="334.6162" y="626.1655">1..*</text></g><!--link Representante to Afiliacao--><g class="link" data-entity-1="Representante" data-entity-2="Afiliacao" data-source-line="64" data-uid="lnk22" id="link_Representante_Afiliacao"><path codeLine="64" d="M312.41,71.51 C298.57,84.31 281.91,100.96 269.03,117.59 C253.81,137.25 239.77,161.52 229.68,180.53" fill="none" id="Representante-Afiliacao" style="stroke:#181818;stroke-width:1;"/><text fill="#000000" font-family="sans-serif" font-size="13" lengthAdjust="spacing" textLength="38.8159" x="270.03" y="130.6569">avalia</text><text fill="#000000" font-family="sans-serif" font-size="13" lengthAdjust="spacing" textLength="8.271" x="296.9793" y="91.3248">1</text><text fill="#000000" font-family="sans-serif" font-size="13" lengthAdjust="spacing" textLength="23.0356" x="207.5002" y="169.7333">1..*</text></g><!--link Representante to Aprovacao--><g class="link" data-entity-1="Representante" data-entity-2="Aprovacao" data-source-line="65" data-uid="lnk23" id="link_Representante_Aprovacao"><path codeLine="65" d="M383.26,71.75 C425.6,94.53 490.98,130.56 546.03,164.59 C551.4,167.91 556.94,171.46 562.44,175.05" fill="none" id="Representante-Aprovacao" style="stroke:#181818;stroke-width:1;"/><text fill="#000000" font-family="sans-serif" font-size="13" lengthAdjust="spacing" textLength="45.7729" x="496.03" y="130.6569">solicita</text><text fill="#000000" font-family="sans-serif" font-size="13" lengthAdjust="spacing" textLength="8.271" x="384.5944" y="91.223">1</text><text fill="#000000" font-family="sans-serif" font-size="13" lengthAdjust="spacing" textLength="23.0356" x="531.9165" y="166.8653">1..*</text></g><!--link Representante to Perfil--><g class="link" data-entity-1="Representante" data-entity-2="Perfil" data-source-line="66" data-uid="lnk24" id="link_Representante_Perfil"><path codeLine="66" d="M338.1,71.61 C336.92,103.36 335.03,161.99 335.03,212.04 C335.03,212.04 335.03,212.04 335.03,521.08 C335.03,561.95 335.03,609.56 335.03,637.2" fill="none" id="Representante-Perfil" style="stroke:#181818;stroke-width:1;"/><text fill="#000000" font-family="sans-serif" font-size="13" lengthAdjust="spacing" textLength="65.0825" x="336.03" y="375.1969">especifica</text><text fill="#000000" font-family="sans-serif" font-size="13" lengthAdjust="spacing" textLength="8.271" x="328.9312" y="91.4492">1</text><text fill="#000000" font-family="sans-serif" font-size="13" lengthAdjust="spacing" textLength="23.0356" x="309.0878" y="626.1685">1..*</text></g><!--link Representante to Recomendacao--><g class="link" data-entity-1="Representante" data-entity-2="Recomendacao" data-source-line="67" data-uid="lnk25" id="link_Representante_Recomendacao"><path codeLine="67" d="M356.08,71.76 C378.7,102.88 418.4,157.51 441.01,188.62" fill="none" id="Representante-Recomendacao" style="stroke:#181818;stroke-width:1;"/><text fill="#000000" font-family="sans-serif" font-size="13" lengthAdjust="spacing" textLength="45.7729" x="400.03" y="130.6569">solicita</text><text fill="#000000" font-family="sans-serif" font-size="13" lengthAdjust="spacing" textLength="8.271" x="351.129" y="91.2353">1</text><text fill="#000000" font-family="sans-serif" font-size="13" lengthAdjust="spacing" textLength="23.0356" x="411.0632" y="177.9226">1..*</text></g><!--link Recomendacao to ONG--><g class="link" data-entity-1="Recomendacao" data-entity-2="ONG" data-source-line="69" data-uid="lnk26" id="link_Recomendacao_ONG"><path codeLine="69" d="M459.83,237.33 C461.89,264.12 465.29,308.24 467.6,338.09" fill="none" id="Recomendacao-ONG" style="stroke:#181818;stroke-width:1;"/><text fill="#000000" font-family="sans-serif" font-size="13" lengthAdjust="spacing" textLength="65.6348" x="466.03" y="304.5469">apresenta</text><text fill="#000000" font-family="sans-serif" font-size="13" lengthAdjust="spacing" textLength="23.0356" x="434.4706" y="257.1619">0..*</text><text fill="#000000" font-family="sans-serif" font-size="13" lengthAdjust="spacing" textLength="23.0356" x="441.949" y="327.5372">0..*</text></g><!--SRC=[VPBFJiCm3CRlUOgenqcTsBKtD13i0eW3L-GbhWXgawZ99gI9X-78S_1YcBJvqqqq9olvnPy_sw83v_WMj5GIlE4dnkdKslGuHiAshqBRT_R9c0ZmuyCTF_62IoylfZje__CrACFnmwEMyzIPt49lGR_1fPv49mObm6JukbMT0hgADAM36qpNcNp2WIvdIlUm9qo2nFJxKc6dFGxet1BpZ9OGr1u8dhZyUjj340w_oJYb4xFFWXngERaelDd17C-zZP7pu0zkZ7lZrJ7aconMc_LwLV6wZb7ssN1XQ0hV_RziijjmQvmxACRocAhDX5QvyPahHroGerB2pgdLX8KkvMH_cvIUhq9fSJ4Q3li1MTgJ2mzHCNfby_casW9S684ZKBXCnvaqt9bE2UMN-LWAEej2jRGsYtYv2uK2c-t8r8xS6EeL5H-p_W80]--></g></svg>