<svg xmlns="http://www.w3.org/2000/svg" xmlns:xlink="http://www.w3.org/1999/xlink" contentStyleType="text/css" data-diagram-type="CLASS" height="833px" preserveAspectRatio="none" style="width:701px;height:833px;background:#FFFFFF;" version="1.1" viewBox="0 0 701 833" width="701px" zoomAndPan="magnify"><defs/><g><!--class Candidato--><g class="entity" data-entity="Candidato" data-source-line="1" data-uid="ent0002" id="entity_Candidato"><rect fill="#F1F1F1" height="80.5938" rx="2.5" ry="2.5" style="stroke:#181818;stroke-width:0.5;" width="103.5244" x="125.27" y="7"/><ellipse cx="140.27" cy="23" fill="#ADD1B2" rx="11" ry="11" style="stroke:#181818;stroke-width:1;"/><path d="M143.2387,28.6406 Q142.6606,28.9375 142.02,29.0781 Q141.3794,29.2344 140.6762,29.2344 Q138.1762,29.2344 136.8481,27.5938 Q135.5356,25.9375 135.5356,22.8125 Q135.5356,19.6875 136.8481,18.0313 Q138.1762,16.375 140.6762,16.375 Q141.3794,16.375 142.02,16.5313 Q142.6762,16.6875 143.2387,16.9844 L143.2387,19.7031 Q142.6137,19.125 142.02,18.8594 Q141.4262,18.5781 140.8012,18.5781 Q139.4575,18.5781 138.77,19.6563 Q138.0825,20.7188 138.0825,22.8125 Q138.0825,24.9063 138.77,25.9844 Q139.4575,27.0469 140.8012,27.0469 Q141.4262,27.0469 142.02,26.7813 Q142.6137,26.5 143.2387,25.9219 L143.2387,28.6406 Z " fill="#000000"/><text fill="#000000" font-family="sans-serif" font-size="14" lengthAdjust="spacing" textLength="71.5244" x="154.27" y="27.8467">Candidato</text><line style="stroke:#181818;stroke-width:0.5;" x1="126.27" x2="227.7944" y1="39" y2="39"/><rect fill="none" height="6" style="stroke:#C82930;stroke-width:1;" width="6" x="133.27" y="49.6484"/><text fill="#000000" font-family="sans-serif" font-size="14" lengthAdjust="spacing" textLength="39.6895" x="145.27" y="55.9951">nome</text><rect fill="none" height="6" style="stroke:#C82930;stroke-width:1;" width="6" x="133.27" y="65.9453"/><text fill="#000000" font-family="sans-serif" font-size="14" lengthAdjust="spacing" textLength="57.8594" x="145.27" y="72.292">cpf_cnpj</text><line style="stroke:#181818;stroke-width:0.5;" x1="126.27" x2="227.7944" y1="79.5938" y2="79.5938"/></g><!--class ONG--><g class="entity" data-entity="ONG" data-source-line="6" data-uid="ent0003" id="entity_ONG"><rect fill="#F1F1F1" height="64.2969" rx="2.5" ry="2.5" style="stroke:#181818;stroke-width:0.5;" width="65.6895" x="471.18" y="322.19"/><ellipse cx="486.7869" cy="338.19" fill="#ADD1B2" rx="11" ry="11" style="stroke:#181818;stroke-width:1;"/><path d="M489.7556,343.8306 Q489.1775,344.1275 488.5369,344.2681 Q487.8963,344.4244 487.1931,344.4244 Q484.6931,344.4244 483.365,342.7837 Q482.0525,341.1275 482.0525,338.0025 Q482.0525,334.8775 483.365,333.2212 Q484.6931,331.565 487.1931,331.565 Q487.8963,331.565 488.5369,331.7212 Q489.1931,331.8775 489.7556,332.1744 L489.7556,334.8931 Q489.1306,334.315 488.5369,334.0494 Q487.9431,333.7681 487.3181,333.7681 Q485.9744,333.7681 485.2869,334.8462 Q484.5994,335.9087 484.5994,338.0025 Q484.5994,340.0962 485.2869,341.1744 Q485.9744,342.2369 487.3181,342.2369 Q487.9431,342.2369 488.5369,341.9712 Q489.1306,341.69 489.7556,341.1119 L489.7556,343.8306 Z " fill="#000000"/><text fill="#000000" font-family="sans-serif" font-size="14" lengthAdjust="spacing" textLength="32.3408" x="500.9217" y="343.0367">ONG</text><line style="stroke:#181818;stroke-width:0.5;" x1="472.18" x2="535.8695" y1="354.19" y2="354.19"/><rect fill="none" height="6" style="stroke:#C82930;stroke-width:1;" width="6" x="479.18" y="364.8384"/><text fill="#000000" font-family="sans-serif" font-size="14" lengthAdjust="spacing" textLength="39.6895" x="491.18" y="371.1851">nome</text><line style="stroke:#181818;stroke-width:0.5;" x1="472.18" x2="535.8695" y1="378.4869" y2="378.4869"/></g><!--class Voluntario--><g class="entity" data-entity="Voluntario" data-source-line="10" data-uid="ent0004" id="entity_Voluntario"><rect fill="#F1F1F1" height="48" rx="2.5" ry="2.5" style="stroke:#181818;stroke-width:0.5;" width="104.0576" x="7" y="172.74"/><ellipse cx="22" cy="188.74" fill="#ADD1B2" rx="11" ry="11" style="stroke:#181818;stroke-width:1;"/><path d="M24.9688,194.3806 Q24.3906,194.6775 23.75,194.8181 Q23.1094,194.9744 22.4063,194.9744 Q19.9063,194.9744 18.5781,193.3338 Q17.2656,191.6775 17.2656,188.5525 Q17.2656,185.4275 18.5781,183.7713 Q19.9063,182.115 22.4063,182.115 Q23.1094,182.115 23.75,182.2713 Q24.4063,182.4275 24.9688,182.7244 L24.9688,185.4431 Q24.3438,184.865 23.75,184.5994 Q23.1563,184.3181 22.5313,184.3181 Q21.1875,184.3181 20.5,185.3963 Q19.8125,186.4588 19.8125,188.5525 Q19.8125,190.6463 20.5,191.7244 Q21.1875,192.7869 22.5313,192.7869 Q23.1563,192.7869 23.75,192.5213 Q24.3438,192.24 24.9688,191.6619 L24.9688,194.3806 Z " fill="#000000"/><text fill="#000000" font-family="sans-serif" font-size="14" lengthAdjust="spacing" textLength="72.0576" x="36" y="193.5867">Voluntario</text><line style="stroke:#181818;stroke-width:0.5;" x1="8" x2="110.0576" y1="204.74" y2="204.74"/><line style="stroke:#181818;stroke-width:0.5;" x1="8" x2="110.0576" y1="212.74" y2="212.74"/></g><!--class Campanha--><g class="entity" data-entity="Campanha" data-source-line="14" data-uid="ent0006" id="entity_Campanha"><rect fill="#F1F1F1" height="80.5938" rx="2.5" ry="2.5" style="stroke:#181818;stroke-width:0.5;" width="107.7832" x="450.14" y="479.78"/><ellipse cx="465.14" cy="495.78" fill="#ADD1B2" rx="11" ry="11" style="stroke:#181818;stroke-width:1;"/><path d="M468.1088,501.4206 Q467.5306,501.7175 466.89,501.8581 Q466.2494,502.0144 465.5463,502.0144 Q463.0463,502.0144 461.7181,500.3738 Q460.4056,498.7175 460.4056,495.5925 Q460.4056,492.4675 461.7181,490.8113 Q463.0463,489.155 465.5463,489.155 Q466.2494,489.155 466.89,489.3113 Q467.5463,489.4675 468.1088,489.7644 L468.1088,492.4831 Q467.4838,491.905 466.89,491.6394 Q466.2963,491.3581 465.6713,491.3581 Q464.3275,491.3581 463.64,492.4363 Q462.9525,493.4988 462.9525,495.5925 Q462.9525,497.6863 463.64,498.7644 Q464.3275,499.8269 465.6713,499.8269 Q466.2963,499.8269 466.89,499.5613 Q467.4838,499.28 468.1088,498.7019 L468.1088,501.4206 Z " fill="#000000"/><text fill="#000000" font-family="sans-serif" font-size="14" lengthAdjust="spacing" textLength="75.7832" x="479.14" y="500.6267">Campanha</text><line style="stroke:#181818;stroke-width:0.5;" x1="451.14" x2="556.9232" y1="511.78" y2="511.78"/><rect fill="none" height="6" style="stroke:#C82930;stroke-width:1;" width="6" x="458.14" y="522.4284"/><text fill="#000000" font-family="sans-serif" font-size="14" lengthAdjust="spacing" textLength="39.6895" x="470.14" y="528.7751">nome</text><rect fill="none" height="6" style="stroke:#C82930;stroke-width:1;" width="6" x="458.14" y="538.7253"/><text fill="#000000" font-family="sans-serif" font-size="14" lengthAdjust="spacing" textLength="66.9785" x="470.14" y="545.072">descricao</text><line style="stroke:#181818;stroke-width:0.5;" x1="451.14" x2="556.9232" y1="552.3738" y2="552.3738"/></g><!--class Afiliacao--><g class="entity" data-entity="Afiliacao" data-source-line="19" data-uid="ent0007" id="entity_Afiliacao"><rect fill="#F1F1F1" height="64.2969" rx="2.5" ry="2.5" style="stroke:#181818;stroke-width:0.5;" width="136.5234" x="145.77" y="164.59"/><ellipse cx="180.9875" cy="180.59" fill="#ADD1B2" rx="11" ry="11" style="stroke:#181818;stroke-width:1;"/><path d="M183.9562,186.2306 Q183.3781,186.5275 182.7375,186.6681 Q182.0969,186.8244 181.3937,186.8244 Q178.8937,186.8244 177.5656,185.1837 Q176.2531,183.5275 176.2531,180.4025 Q176.2531,177.2775 177.5656,175.6212 Q178.8937,173.965 181.3937,173.965 Q182.0969,173.965 182.7375,174.1212 Q183.3937,174.2775 183.9562,174.5744 L183.9562,177.2931 Q183.3312,176.715 182.7375,176.4494 Q182.1437,176.1681 181.5187,176.1681 Q180.175,176.1681 179.4875,177.2462 Q178.8,178.3087 178.8,180.4025 Q178.8,182.4962 179.4875,183.5744 Q180.175,184.6369 181.5187,184.6369 Q182.1437,184.6369 182.7375,184.3712 Q183.3312,184.09 183.9562,183.5119 L183.9562,186.2306 Z " fill="#000000"/><text fill="#000000" font-family="sans-serif" font-size="14" lengthAdjust="spacing" textLength="59.5957" x="199.4803" y="185.4367">Afiliacao</text><line style="stroke:#181818;stroke-width:0.5;" x1="146.77" x2="281.2934" y1="196.59" y2="196.59"/><rect fill="none" height="6" style="stroke:#C82930;stroke-width:1;" width="6" x="153.77" y="207.2384"/><text fill="#000000" font-family="sans-serif" font-size="14" lengthAdjust="spacing" textLength="110.5234" x="165.77" y="213.5851">dataDeAfiliacao</text><line style="stroke:#181818;stroke-width:0.5;" x1="146.77" x2="281.2934" y1="220.8869" y2="220.8869"/></g><!--class Perfil--><g class="entity" data-entity="Perfil" data-source-line="23" data-uid="ent0008" id="entity_Perfil"><rect fill="#F1F1F1" height="48" rx="2.5" ry="2.5" style="stroke:#181818;stroke-width:0.5;" width="67.5195" x="470.27" y="637.37"/><ellipse cx="485.27" cy="653.37" fill="#ADD1B2" rx="11" ry="11" style="stroke:#181818;stroke-width:1;"/><path d="M488.2388,659.0106 Q487.6606,659.3075 487.02,659.4481 Q486.3794,659.6044 485.6763,659.6044 Q483.1763,659.6044 481.8481,657.9638 Q480.5356,656.3075 480.5356,653.1825 Q480.5356,650.0575 481.8481,648.4013 Q483.1763,646.745 485.6763,646.745 Q486.3794,646.745 487.02,646.9013 Q487.6763,647.0575 488.2388,647.3544 L488.2388,650.0731 Q487.6138,649.495 487.02,649.2294 Q486.4263,648.9481 485.8013,648.9481 Q484.4575,648.9481 483.77,650.0263 Q483.0825,651.0888 483.0825,653.1825 Q483.0825,655.2763 483.77,656.3544 Q484.4575,657.4169 485.8013,657.4169 Q486.4263,657.4169 487.02,657.1513 Q487.6138,656.87 488.2388,656.2919 L488.2388,659.0106 Z " fill="#000000"/><text fill="#000000" font-family="sans-serif" font-size="14" lengthAdjust="spacing" textLength="35.5195" x="499.27" y="658.2167">Perfil</text><line style="stroke:#181818;stroke-width:0.5;" x1="471.27" x2="536.7895" y1="669.37" y2="669.37"/><line style="stroke:#181818;stroke-width:0.5;" x1="471.27" x2="536.7895" y1="677.37" y2="677.37"/></g><!--class Habilidade--><g class="entity" data-entity="Habilidade" data-source-line="27" data-uid="ent0009" id="entity_Habilidade"><rect fill="#F1F1F1" height="64.2969" rx="2.5" ry="2.5" style="stroke:#181818;stroke-width:0.5;" width="106.6279" x="382.71" y="762.37"/><ellipse cx="397.71" cy="778.37" fill="#ADD1B2" rx="11" ry="11" style="stroke:#181818;stroke-width:1;"/><path d="M400.6788,784.0106 Q400.1006,784.3075 399.46,784.4481 Q398.8194,784.6044 398.1163,784.6044 Q395.6163,784.6044 394.2881,782.9638 Q392.9756,781.3075 392.9756,778.1825 Q392.9756,775.0575 394.2881,773.4013 Q395.6163,771.745 398.1163,771.745 Q398.8194,771.745 399.46,771.9013 Q400.1163,772.0575 400.6788,772.3544 L400.6788,775.0731 Q400.0538,774.495 399.46,774.2294 Q398.8663,773.9481 398.2413,773.9481 Q396.8975,773.9481 396.21,775.0263 Q395.5225,776.0888 395.5225,778.1825 Q395.5225,780.2763 396.21,781.3544 Q396.8975,782.4169 398.2413,782.4169 Q398.8663,782.4169 399.46,782.1513 Q400.0538,781.87 400.6788,781.2919 L400.6788,784.0106 Z " fill="#000000"/><text fill="#000000" font-family="sans-serif" font-size="14" lengthAdjust="spacing" textLength="74.6279" x="411.71" y="783.2167">Habilidade</text><line style="stroke:#181818;stroke-width:0.5;" x1="383.71" x2="488.3379" y1="794.37" y2="794.37"/><rect fill="none" height="6" style="stroke:#C82930;stroke-width:1;" width="6" x="390.71" y="805.0184"/><text fill="#000000" font-family="sans-serif" font-size="14" lengthAdjust="spacing" textLength="66.9785" x="402.71" y="811.3651">descricao</text><line style="stroke:#181818;stroke-width:0.5;" x1="383.71" x2="488.3379" y1="818.6669" y2="818.6669"/></g><!--class Interesse--><g class="entity" data-entity="Interesse" data-source-line="31" data-uid="ent0010" id="entity_Interesse"><rect fill="#F1F1F1" height="64.2969" rx="2.5" ry="2.5" style="stroke:#181818;stroke-width:0.5;" width="96.6748" x="524.69" y="762.37"/><ellipse cx="539.69" cy="778.37" fill="#ADD1B2" rx="11" ry="11" style="stroke:#181818;stroke-width:1;"/><path d="M542.6588,784.0106 Q542.0806,784.3075 541.44,784.4481 Q540.7994,784.6044 540.0963,784.6044 Q537.5963,784.6044 536.2681,782.9638 Q534.9556,781.3075 534.9556,778.1825 Q534.9556,775.0575 536.2681,773.4013 Q537.5963,771.745 540.0963,771.745 Q540.7994,771.745 541.44,771.9013 Q542.0963,772.0575 542.6588,772.3544 L542.6588,775.0731 Q542.0338,774.495 541.44,774.2294 Q540.8463,773.9481 540.2213,773.9481 Q538.8775,773.9481 538.19,775.0263 Q537.5025,776.0888 537.5025,778.1825 Q537.5025,780.2763 538.19,781.3544 Q538.8775,782.4169 540.2213,782.4169 Q540.8463,782.4169 541.44,782.1513 Q542.0338,781.87 542.6588,781.2919 L542.6588,784.0106 Z " fill="#000000"/><text fill="#000000" font-family="sans-serif" font-size="14" lengthAdjust="spacing" textLength="64.6748" x="553.69" y="783.2167">Interesse</text><line style="stroke:#181818;stroke-width:0.5;" x1="525.69" x2="620.3648" y1="794.37" y2="794.37"/><rect fill="none" height="6" style="stroke:#C82930;stroke-width:1;" width="6" x="532.69" y="805.0184"/><text fill="#000000" font-family="sans-serif" font-size="14" lengthAdjust="spacing" textLength="66.9785" x="544.69" y="811.3651">descricao</text><line style="stroke:#181818;stroke-width:0.5;" x1="525.69" x2="620.3648" y1="818.6669" y2="818.6669"/></g><!--class Representante--><g class="entity" data-entity="Representante" data-source-line="35" data-uid="ent0011" id="entity_Representante"><rect fill="#F1F1F1" height="48" rx="2.5" ry="2.5" style="stroke:#181818;stroke-width:0.5;" width="135.4209" x="288.32" y="23.29"/><ellipse cx="303.32" cy="39.29" fill="#ADD1B2" rx="11" ry="11" style="stroke:#181818;stroke-width:1;"/><path d="M306.2888,44.9306 Q305.7106,45.2275 305.07,45.3681 Q304.4294,45.5244 303.7263,45.5244 Q301.2263,45.5244 299.8981,43.8837 Q298.5856,42.2275 298.5856,39.1025 Q298.5856,35.9775 299.8981,34.3212 Q301.2263,32.665 303.7263,32.665 Q304.4294,32.665 305.07,32.8212 Q305.7263,32.9775 306.2888,33.2744 L306.2888,35.9931 Q305.6638,35.415 305.07,35.1494 Q304.4763,34.8681 303.8513,34.8681 Q302.5075,34.8681 301.82,35.9462 Q301.1325,37.0087 301.1325,39.1025 Q301.1325,41.1962 301.82,42.2744 Q302.5075,43.3369 303.8513,43.3369 Q304.4763,43.3369 305.07,43.0712 Q305.6638,42.79 306.2888,42.2119 L306.2888,44.9306 Z " fill="#000000"/><text fill="#000000" font-family="sans-serif" font-size="14" lengthAdjust="spacing" textLength="103.4209" x="317.32" y="44.1367">Representante</text><line style="stroke:#181818;stroke-width:0.5;" x1="289.32" x2="422.7409" y1="55.29" y2="55.29"/><line style="stroke:#181818;stroke-width:0.5;" x1="289.32" x2="422.7409" y1="63.29" y2="63.29"/></g><!--class Email--><g class="entity" data-entity="Email" data-source-line="39" data-uid="ent0012" id="entity_Email"><rect fill="#F1F1F1" height="64.2969" rx="2.5" ry="2.5" style="stroke:#181818;stroke-width:0.5;" width="91.6182" x="112.22" y="322.19"/><ellipse cx="136.5694" cy="338.19" fill="#ADD1B2" rx="11" ry="11" style="stroke:#181818;stroke-width:1;"/><path d="M139.5381,343.8306 Q138.96,344.1275 138.3194,344.2681 Q137.6787,344.4244 136.9756,344.4244 Q134.4756,344.4244 133.1475,342.7837 Q131.835,341.1275 131.835,338.0025 Q131.835,334.8775 133.1475,333.2212 Q134.4756,331.565 136.9756,331.565 Q137.6787,331.565 138.3194,331.7212 Q138.9756,331.8775 139.5381,332.1744 L139.5381,334.8931 Q138.9131,334.315 138.3194,334.0494 Q137.7256,333.7681 137.1006,333.7681 Q135.7569,333.7681 135.0694,334.8462 Q134.3819,335.9087 134.3819,338.0025 Q134.3819,340.0962 135.0694,341.1744 Q135.7569,342.2369 137.1006,342.2369 Q137.7256,342.2369 138.3194,341.9712 Q138.9131,341.69 139.5381,341.1119 L139.5381,343.8306 Z " fill="#000000"/><text fill="#000000" font-family="sans-serif" font-size="14" lengthAdjust="spacing" textLength="38.8418" x="152.647" y="343.0367">Email</text><line style="stroke:#181818;stroke-width:0.5;" x1="113.22" x2="202.8382" y1="354.19" y2="354.19"/><rect fill="none" height="6" style="stroke:#C82930;stroke-width:1;" width="6" x="120.22" y="364.8384"/><text fill="#000000" font-family="sans-serif" font-size="14" lengthAdjust="spacing" textLength="65.6182" x="132.22" y="371.1851">endereco</text><line style="stroke:#181818;stroke-width:0.5;" x1="113.22" x2="202.8382" y1="378.4869" y2="378.4869"/></g><!--class Recomendacao--><g class="entity" data-entity="Recomendacao" data-source-line="43" data-uid="ent0013" id="entity_Recomendacao"><rect fill="#F1F1F1" height="48" rx="2.5" ry="2.5" style="stroke:#181818;stroke-width:0.5;" width="140.0352" x="434.01" y="172.74"/><ellipse cx="449.01" cy="188.74" fill="#ADD1B2" rx="11" ry="11" style="stroke:#181818;stroke-width:1;"/><path d="M451.9788,194.3806 Q451.4006,194.6775 450.76,194.8181 Q450.1194,194.9744 449.4163,194.9744 Q446.9163,194.9744 445.5881,193.3338 Q444.2756,191.6775 444.2756,188.5525 Q444.2756,185.4275 445.5881,183.7713 Q446.9163,182.115 449.4163,182.115 Q450.1194,182.115 450.76,182.2713 Q451.4163,182.4275 451.9788,182.7244 L451.9788,185.4431 Q451.3538,184.865 450.76,184.5994 Q450.1663,184.3181 449.5413,184.3181 Q448.1975,184.3181 447.51,185.3963 Q446.8225,186.4588 446.8225,188.5525 Q446.8225,190.6463 447.51,191.7244 Q448.1975,192.7869 449.5413,192.7869 Q450.1663,192.7869 450.76,192.5213 Q451.3538,192.24 451.9788,191.6619 L451.9788,194.3806 Z " fill="#000000"/><text fill="#000000" font-family="sans-serif" font-size="14" lengthAdjust="spacing" textLength="108.0352" x="463.01" y="193.5867">Recomendacao</text><line style="stroke:#181818;stroke-width:0.5;" x1="435.01" x2="573.0452" y1="204.74" y2="204.74"/><line style="stroke:#181818;stroke-width:0.5;" x1="435.01" x2="573.0452" y1="212.74" y2="212.74"/></g><!--class Aprovacao--><g class="entity" data-entity="Aprovacao" data-source-line="47" data-uid="ent0014" id="entity_Aprovacao"><rect fill="#F1F1F1" height="96.8906" rx="2.5" ry="2.5" style="stroke:#181818;stroke-width:0.5;" width="106.4912" x="268.78" y="305.89"/><ellipse cx="283.78" cy="321.89" fill="#ADD1B2" rx="11" ry="11" style="stroke:#181818;stroke-width:1;"/><path d="M286.7488,327.5306 Q286.1706,327.8275 285.53,327.9681 Q284.8894,328.1244 284.1863,328.1244 Q281.6863,328.1244 280.3581,326.4838 Q279.0456,324.8275 279.0456,321.7025 Q279.0456,318.5775 280.3581,316.9213 Q281.6863,315.265 284.1863,315.265 Q284.8894,315.265 285.53,315.4213 Q286.1863,315.5775 286.7488,315.8744 L286.7488,318.5931 Q286.1238,318.015 285.53,317.7494 Q284.9363,317.4681 284.3113,317.4681 Q282.9675,317.4681 282.28,318.5463 Q281.5925,319.6088 281.5925,321.7025 Q281.5925,323.7963 282.28,324.8744 Q282.9675,325.9369 284.3113,325.9369 Q284.9363,325.9369 285.53,325.6713 Q286.1238,325.39 286.7488,324.8119 L286.7488,327.5306 Z " fill="#000000"/><text fill="#000000" font-family="sans-serif" font-size="14" lengthAdjust="spacing" textLength="74.4912" x="297.78" y="326.7367">Aprovacao</text><line style="stroke:#181818;stroke-width:0.5;" x1="269.78" x2="374.2712" y1="337.89" y2="337.89"/><rect fill="none" height="6" style="stroke:#C82930;stroke-width:1;" width="6" x="276.78" y="348.5384"/><text fill="#000000" font-family="sans-serif" font-size="14" lengthAdjust="spacing" textLength="31.5342" x="288.78" y="354.8851">data</text><rect fill="none" height="6" style="stroke:#C82930;stroke-width:1;" width="6" x="276.78" y="364.8353"/><text fill="#000000" font-family="sans-serif" font-size="14" lengthAdjust="spacing" textLength="43.0186" x="288.78" y="371.182">status</text><rect fill="none" height="6" style="stroke:#C82930;stroke-width:1;" width="6" x="276.78" y="381.1322"/><text fill="#000000" font-family="sans-serif" font-size="14" lengthAdjust="spacing" textLength="48.4326" x="288.78" y="387.4789">motivo</text><line style="stroke:#181818;stroke-width:0.5;" x1="269.78" x2="374.2712" y1="394.7806" y2="394.7806"/></g><!--class CertidoesCNPJ--><g class="entity" data-entity="CertidoesCNPJ" data-source-line="53" data-uid="ent0015" id="entity_CertidoesCNPJ"><rect fill="#F1F1F1" height="48" rx="2.5" ry="2.5" style="stroke:#181818;stroke-width:0.5;" width="131.7021" x="459.18" y="23.29"/><ellipse cx="474.18" cy="39.29" fill="#ADD1B2" rx="11" ry="11" style="stroke:#181818;stroke-width:1;"/><path d="M477.1488,44.9306 Q476.5706,45.2275 475.93,45.3681 Q475.2894,45.5244 474.5863,45.5244 Q472.0863,45.5244 470.7581,43.8837 Q469.4456,42.2275 469.4456,39.1025 Q469.4456,35.9775 470.7581,34.3212 Q472.0863,32.665 474.5863,32.665 Q475.2894,32.665 475.93,32.8212 Q476.5863,32.9775 477.1488,33.2744 L477.1488,35.9931 Q476.5238,35.415 475.93,35.1494 Q475.3363,34.8681 474.7113,34.8681 Q473.3675,34.8681 472.68,35.9462 Q471.9925,37.0087 471.9925,39.1025 Q471.9925,41.1962 472.68,42.2744 Q473.3675,43.3369 474.7113,43.3369 Q475.3363,43.3369 475.93,43.0712 Q476.5238,42.79 477.1488,42.2119 L477.1488,44.9306 Z " fill="#000000"/><text fill="#000000" font-family="sans-serif" font-size="14" lengthAdjust="spacing" textLength="99.7021" x="488.18" y="44.1367">CertidoesCNPJ</text><line style="stroke:#181818;stroke-width:0.5;" x1="460.18" x2="589.8821" y1="55.29" y2="55.29"/><line style="stroke:#181818;stroke-width:0.5;" x1="460.18" x2="589.8821" y1="63.29" y2="63.29"/></g><!--reverse link Candidato to Voluntario--><g class="link" data-entity-1="Candidato" data-entity-2="Voluntario" data-source-line="11" data-uid="lnk5" id="link_Candidato_Voluntario"><path d="M134.1591,101.8606 C112.5791,128.8106 95.99,149.56 77.83,172.25" fill="none" id="Candidato-backto-Voluntario" style="stroke:#181818;stroke-width:1;"/><polygon fill="none" points="145.41,87.81,129.4756,98.1103,138.8426,105.6108,145.41,87.81" style="stroke:#181818;stroke-width:1;"/></g><!--link Perfil to Habilidade--><g class="link" data-entity-1="Perfil" data-entity-2="Habilidade" data-source-line="57" data-uid="lnk16" id="link_Perfil_Habilidade"><path codeLine="57" d="M491.87,685.82 C480.87,707.04 464.58,738.46 452.42,761.9" fill="none" id="Perfil-Habilidade" style="stroke:#181818;stroke-width:1;"/><text fill="#000000" font-family="sans-serif" font-size="13" lengthAdjust="spacing" textLength="49.0991" x="477.03" y="728.4369">cont&#233;m</text><text fill="#000000" font-family="sans-serif" font-size="13" lengthAdjust="spacing" textLength="23.0356" x="463.4028" y="705.2907">1..*</text><text fill="#000000" font-family="sans-serif" font-size="13" lengthAdjust="spacing" textLength="23.0356" x="430.3567" y="751.332">1..*</text></g><!--link Perfil to Interesse--><g class="link" data-entity-1="Perfil" data-entity-2="Interesse" data-source-line="58" data-uid="lnk17" id="link_Perfil_Interesse"><path codeLine="58" d="M517.59,685.71 C522.83,694.9 528.81,705.57 534.03,715.37 C542.15,730.63 550.77,747.8 557.84,762.15" fill="none" id="Perfil-Interesse" style="stroke:#181818;stroke-width:1;"/><text fill="#000000" font-family="sans-serif" font-size="13" lengthAdjust="spacing" textLength="41.6025" x="543.03" y="728.4369">possui</text><text fill="#000000" font-family="sans-serif" font-size="13" lengthAdjust="spacing" textLength="23.0356" x="495.0965" y="705.5541">1..*</text><text fill="#000000" font-family="sans-serif" font-size="13" lengthAdjust="spacing" textLength="23.0356" x="529.5894" y="751.3809">1..*</text></g><!--link Candidato to Afiliacao--><g class="link" data-entity-1="Candidato" data-entity-2="Afiliacao" data-source-line="60" data-uid="lnk18" id="link_Candidato_Afiliacao"><path codeLine="60" d="M184.48,88 C187.46,102.71 191.11,119.48 195.03,134.59 C197.54,144.28 200.63,154.71 203.59,164.17" fill="none" id="Candidato-Afiliacao" style="stroke:#181818;stroke-width:1;"/><text fill="#000000" font-family="sans-serif" font-size="13" lengthAdjust="spacing" textLength="41.6025" x="196.03" y="130.6569">possui</text><text fill="#000000" font-family="sans-serif" font-size="13" lengthAdjust="spacing" textLength="8.271" x="177.0511" y="107.7599">1</text><text fill="#000000" font-family="sans-serif" font-size="13" lengthAdjust="spacing" textLength="8.271" x="192.8629" y="153.6115">1</text></g><!--link Voluntario to Perfil--><g class="link" data-entity-1="Voluntario" data-entity-2="Perfil" data-source-line="62" data-uid="lnk19" id="link_Voluntario_Perfil"><path codeLine="62" d="M57.3,221.19 C55.48,261.78 57.05,346.22 95.03,402.78 C189.63,543.69 390.04,622.73 470.02,649.71" fill="none" id="Voluntario-Perfil" style="stroke:#181818;stroke-width:1;"/><text fill="#000000" font-family="sans-serif" font-size="13" lengthAdjust="spacing" textLength="41.6025" x="133.03" y="445.8469">possui</text><text fill="#000000" font-family="sans-serif" font-size="13" lengthAdjust="spacing" textLength="8.271" x="48.0065" y="240.6607">1</text><text fill="#000000" font-family="sans-serif" font-size="13" lengthAdjust="spacing" textLength="8.271" x="454.2084" y="642.8388">1</text></g><!--reverse link Voluntario to Email--><g class="link" data-entity-1="Voluntario" data-entity-2="Email" data-source-line="63" data-uid="lnk20" id="link_Voluntario_Email"><path codeLine="63" d="M80.293,231.1536 C97.343,257.9436 118.97,291.94 137.96,321.79" fill="none" id="Voluntario-backto-Email" style="stroke:#181818;stroke-width:1;"/><polygon fill="#181818" points="73.85,221.03,73.697,228.2395,80.293,231.1536,80.446,223.9441,73.85,221.03" style="stroke:#181818;stroke-width:1;"/><text fill="#000000" font-family="sans-serif" font-size="13" lengthAdjust="spacing" textLength="41.6025" x="109.03" y="271.9569">possui</text><text fill="#000000" font-family="sans-serif" font-size="13" lengthAdjust="spacing" textLength="8.271" x="68.5207" y="240.8619">1</text><text fill="#000000" font-family="sans-serif" font-size="13" lengthAdjust="spacing" textLength="8.271" x="125.3977" y="311.2353">1</text></g><!--reverse link ONG to Campanha--><g class="link" data-entity-1="ONG" data-entity-2="Campanha" data-source-line="65" data-uid="lnk21" id="link_ONG_Campanha"><path codeLine="65" d="M504.03,398.91 C504.03,425.3 504.03,451.08 504.03,479.49" fill="none" id="ONG-backto-Campanha" style="stroke:#181818;stroke-width:1;"/><polygon fill="#181818" points="504.03,386.91,500.03,392.91,504.03,398.91,508.03,392.91,504.03,386.91" style="stroke:#181818;stroke-width:1;"/><text fill="#000000" font-family="sans-serif" font-size="13" lengthAdjust="spacing" textLength="29.561" x="505.03" y="445.8469">abre</text><text fill="#000000" font-family="sans-serif" font-size="13" lengthAdjust="spacing" textLength="8.271" x="495.2943" y="406.6282">1</text><text fill="#000000" font-family="sans-serif" font-size="13" lengthAdjust="spacing" textLength="23.0356" x="479.128" y="468.6035">0..*</text></g><!--link Campanha to Perfil--><g class="link" data-entity-1="Campanha" data-entity-2="Perfil" data-source-line="66" data-uid="lnk22" id="link_Campanha_Perfil"><path codeLine="66" d="M504.03,560.62 C504.03,585.23 504.03,616.06 504.03,636.88" fill="none" id="Campanha-Perfil" style="stroke:#181818;stroke-width:1;"/><text fill="#000000" font-family="sans-serif" font-size="13" lengthAdjust="spacing" textLength="49.0991" x="505.03" y="603.4369">cont&#233;m</text><text fill="#000000" font-family="sans-serif" font-size="13" lengthAdjust="spacing" textLength="23.0356" x="479.1998" y="580.3544">1..*</text><text fill="#000000" font-family="sans-serif" font-size="13" lengthAdjust="spacing" textLength="23.0356" x="478.2313" y="626.1655">1..*</text></g><!--link Representante to Afiliacao--><g class="link" data-entity-1="Representante" data-entity-2="Afiliacao" data-source-line="68" data-uid="lnk23" id="link_Representante_Afiliacao"><path codeLine="68" d="M331.78,71.76 C318.18,85.06 300.99,102.09 286.03,117.59 C271.43,132.73 255.55,149.88 242.43,164.25" fill="none" id="Representante-Afiliacao" style="stroke:#181818;stroke-width:1;"/><text fill="#000000" font-family="sans-serif" font-size="13" lengthAdjust="spacing" textLength="38.8159" x="287.03" y="130.6569">avalia</text><text fill="#000000" font-family="sans-serif" font-size="13" lengthAdjust="spacing" textLength="8.271" x="317.2784" y="91.2353">1</text><text fill="#000000" font-family="sans-serif" font-size="13" lengthAdjust="spacing" textLength="23.0356" x="222.7604" y="153.4572">1..*</text></g><!--link Representante to Aprovacao--><g class="link" data-entity-1="Representante" data-entity-2="Aprovacao" data-source-line="69" data-uid="lnk24" id="link_Representante_Aprovacao"><path codeLine="69" d="M353.42,71.72 C347.86,121.6 334.76,239.12 327.36,305.51" fill="none" id="Representante-Aprovacao" style="stroke:#181818;stroke-width:1;"/><text fill="#000000" font-family="sans-serif" font-size="13" lengthAdjust="spacing" textLength="45.7729" x="343.03" y="201.3069">solicita</text><text fill="#000000" font-family="sans-serif" font-size="13" lengthAdjust="spacing" textLength="8.271" x="343.9227" y="91.1861">1</text><text fill="#000000" font-family="sans-serif" font-size="13" lengthAdjust="spacing" textLength="23.0356" x="303.4955" y="294.6655">1..*</text></g><!--link Representante to Perfil--><g class="link" data-entity-1="Representante" data-entity-2="Perfil" data-source-line="70" data-uid="lnk25" id="link_Representante_Perfil"><path codeLine="70" d="M407.65,71.75 C466.87,99 559.92,142.97 592.03,164.59 C609.3,176.22 627.03,174.92 627.03,195.74 C627.03,195.74 627.03,195.74 627.03,521.08 C627.03,575.12 574.37,618.07 537.96,641.32" fill="none" id="Representante-Perfil" style="stroke:#181818;stroke-width:1;"/><text fill="#000000" font-family="sans-serif" font-size="13" lengthAdjust="spacing" textLength="65.0825" x="628.03" y="358.8969">especifica</text><text fill="#000000" font-family="sans-serif" font-size="13" lengthAdjust="spacing" textLength="8.271" x="410.6934" y="91.223">1</text><text fill="#000000" font-family="sans-serif" font-size="13" lengthAdjust="spacing" textLength="23.0356" x="545.7714" y="633.6632">1..*</text></g><!--link Representante to Recomendacao--><g class="link" data-entity-1="Representante" data-entity-2="Recomendacao" data-source-line="71" data-uid="lnk26" id="link_Representante_Recomendacao"><path codeLine="71" d="M379.48,71.66 C407.19,99.27 453.02,144.93 480.69,172.49" fill="none" id="Representante-Recomendacao" style="stroke:#181818;stroke-width:1;"/><text fill="#000000" font-family="sans-serif" font-size="13" lengthAdjust="spacing" textLength="45.7729" x="439.03" y="130.6569">solicita</text><text fill="#000000" font-family="sans-serif" font-size="13" lengthAdjust="spacing" textLength="8.271" x="376.2539" y="91.5114">1</text><text fill="#000000" font-family="sans-serif" font-size="13" lengthAdjust="spacing" textLength="23.0356" x="449.2027" y="161.834">1..*</text></g><!--link Recomendacao to ONG--><g class="link" data-entity-1="Recomendacao" data-entity-2="ONG" data-source-line="73" data-uid="lnk27" id="link_Recomendacao_ONG"><path codeLine="73" d="M504.03,221.03 C504.03,247.82 504.03,291.94 504.03,321.79" fill="none" id="Recomendacao-ONG" style="stroke:#181818;stroke-width:1;"/><text fill="#000000" font-family="sans-serif" font-size="13" lengthAdjust="spacing" textLength="65.6348" x="505.03" y="271.9569">apresenta</text><text fill="#000000" font-family="sans-serif" font-size="13" lengthAdjust="spacing" textLength="23.0356" x="478.2318" y="240.8619">0..*</text><text fill="#000000" font-family="sans-serif" font-size="13" lengthAdjust="spacing" textLength="23.0356" x="478.8422" y="311.2353">0..*</text></g><!--link Afiliacao to Aprovacao--><g class="link" data-entity-1="Afiliacao" data-entity-2="Aprovacao" data-source-line="75" data-uid="lnk28" id="link_Afiliacao_Aprovacao"><path codeLine="75" d="M231.68,229.11 C240.15,243.61 250.68,260.91 261.03,275.89 C267.84,285.75 275.48,296.01 283,305.71" fill="none" id="Afiliacao-Aprovacao" style="stroke:#181818;stroke-width:1;"/><text fill="#000000" font-family="sans-serif" font-size="13" lengthAdjust="spacing" textLength="63.4131" x="262.03" y="271.9569">passa por</text><text fill="#000000" font-family="sans-serif" font-size="13" lengthAdjust="spacing" textLength="8.271" x="226.3937" y="249.0397">1</text><text fill="#000000" font-family="sans-serif" font-size="13" lengthAdjust="spacing" textLength="8.271" x="268.9686" y="294.8936">1</text></g><!--SRC=[VPCxRiCm38PtdKBm6211itehtAAF8GqwT2qOYK4Ls98WAK61e0VgENgnihRrS8BQ4o5z8lcJlqKBtlC6j5GIWk5dnkbRQjFX40cxVnVQ7jWNOwA7NpOF_CmBBjsycVQe0pXbE7u6r7AQEOCDT1Rq1roNa-Y5Km9CXc_tgbL0Hv6cT727wJYJMtHqEAdq23l294XChwyhFEc03hsVOrxH4e8aZ-2HoxVt7VI5-zSadDA9oMD12hKSLHJQh3EdIsr3v0E4en_YpWHrAl8rw8AI1dspsJwF2KVnrNgrMbHykOnHda3DXT7Xvxlxbqs3gBartXyLOtc1rNf4gxoIp1MxBy2XKA8keCL8zTFBgVuCbgvl-iQYOMeEEuSi-UTAGImObRBftb9hFLp8W1DGE4_7NTNScrO95URvs0fwYqBjoKwpUEcHeWARU6SSHnuCpOgQZraPopzBkQxaiffNbWm4D6jN_G80]--></g></svg>