<svg xmlns="http://www.w3.org/2000/svg" xmlns:xlink="http://www.w3.org/1999/xlink" contentStyleType="text/css" data-diagram-type="SEQUENCE" height="716px" preserveAspectRatio="none" style="width:1382px;height:716px;background:#FFFFFF;" version="1.1" viewBox="0 0 1382 716" width="1382px" zoomAndPan="magnify"><defs/><g><g><title>..fronteira..</title><rect fill="#FFFFFF" height="275.1953" style="stroke:#181818;stroke-width:1;" width="10" x="332.0186" y="112.4297"/></g><g><title>..fronteira..</title><rect fill="#FFFFFF" height="200.7969" style="stroke:#181818;stroke-width:1;" width="10" x="332.0186" y="416.7578"/></g><g><title>..controller..</title><rect fill="#FFFFFF" height="246.0625" style="stroke:#181818;stroke-width:1;" width="10" x="550.5342" y="141.5625"/></g><g><title>..controller..</title><rect fill="#FFFFFF" height="171.6641" style="stroke:#181818;stroke-width:1;" width="10" x="752.5186" y="445.8906"/></g><g><title>Candidatos</title><rect fill="#FFFFFF" height="87.3984" style="stroke:#181818;stroke-width:1;" width="10" x="1131.8438" y="170.6953"/></g><g><title>Candidatos</title><rect fill="#FFFFFF" height="29.1328" style="stroke:#181818;stroke-width:1;" width="10" x="1131.8438" y="517.1563"/></g><g><title>Candidato</title><rect fill="#FFFFFF" height="29.1328" style="stroke:#181818;stroke-width:1;" width="10" x="1230.3296" y="199.8281"/></g><g><title>voluntarios</title><rect fill="#FFFFFF" height="29.1328" style="stroke:#181818;stroke-width:1;" width="10" x="1325.1216" y="329.3594"/></g><g><title>Representante R.S</title><rect fill="#000000" fill-opacity="0.00000" height="554.2578" width="8" x="73.1079" y="81.2969"/><line style="stroke:#181818;stroke-width:0.5;stroke-dasharray:5,5;" x1="77" x2="77" y1="81.2969" y2="635.5547"/></g><g><title>..fronteira..</title><rect fill="#000000" fill-opacity="0.00000" height="554.2578" width="8" x="333.0186" y="81.2969"/><line style="stroke:#181818;stroke-width:0.5;stroke-dasharray:5,5;" x1="336.228" x2="336.228" y1="81.2969" y2="635.5547"/></g><g><title>..controller..</title><rect fill="#000000" fill-opacity="0.00000" height="554.2578" width="8" x="551.5342" y="81.2969"/><line style="stroke:#181818;stroke-width:0.5;stroke-dasharray:5,5;" x1="555.1855" x2="555.1855" y1="81.2969" y2="635.5547"/></g><g><title>..controller..</title><rect fill="#000000" fill-opacity="0.00000" height="554.2578" width="8" x="753.5186" y="81.2969"/><line style="stroke:#181818;stroke-width:0.5;stroke-dasharray:5,5;" x1="756.6865" x2="756.6865" y1="81.2969" y2="635.5547"/></g><g><title>Candidatos</title><rect fill="#000000" fill-opacity="0.00000" height="554.2578" width="8" x="1132.8438" y="81.2969"/><line style="stroke:#181818;stroke-width:0.5;stroke-dasharray:5,5;" x1="1136.4346" x2="1136.4346" y1="81.2969" y2="635.5547"/></g><g><title>Candidato</title><rect fill="#000000" fill-opacity="0.00000" height="554.2578" width="8" x="1231.3296" y="81.2969"/><line style="stroke:#181818;stroke-width:0.5;stroke-dasharray:5,5;" x1="1234.5674" x2="1234.5674" y1="81.2969" y2="635.5547"/></g><g><title>voluntarios</title><rect fill="#000000" fill-opacity="0.00000" height="554.2578" width="8" x="1326.1216" y="81.2969"/><line style="stroke:#181818;stroke-width:0.5;stroke-dasharray:5,5;" x1="1330.0918" x2="1330.0918" y1="81.2969" y2="635.5547"/></g><g class="participant participant-head" data-participant="representante"><text fill="#000000" font-family="sans-serif" font-size="14" lengthAdjust="spacing" textLength="138.2158" x="5" y="77.9951">Representante R+S</text><ellipse cx="77.1079" cy="13.5" fill="#E2E2F0" rx="8" ry="8" style="stroke:#181818;stroke-width:0.5;"/><path d="M77.1079,21.5 L77.1079,48.5 M64.1079,29.5 L90.1079,29.5 M77.1079,48.5 L64.1079,63.5 M77.1079,48.5 L90.1079,63.5" fill="none" style="stroke:#181818;stroke-width:0.5;"/></g><g class="participant participant-tail" data-participant="representante"><text fill="#000000" font-family="sans-serif" font-size="14" lengthAdjust="spacing" textLength="138.2158" x="5" y="647.5498">Representante R+S</text><ellipse cx="77.1079" cy="659.3516" fill="#E2E2F0" rx="8" ry="8" style="stroke:#181818;stroke-width:0.5;"/><path d="M77.1079,667.3516 L77.1079,694.3516 M64.1079,675.3516 L90.1079,675.3516 M77.1079,694.3516 L64.1079,709.3516 M77.1079,694.3516 L90.1079,709.3516" fill="none" style="stroke:#181818;stroke-width:0.5;"/></g><g class="participant participant-head" data-participant="gui"><text fill="#000000" font-family="sans-serif" font-size="14" font-style="italic" lengthAdjust="spacing" textLength="77.5811" x="295.228" y="61.6982">&#171;fronteira&#187;</text><text fill="#000000" font-family="sans-serif" font-size="14" lengthAdjust="spacing" textLength="25.2246" x="321.4063" y="77.9951">GUI</text><path d="M316.5186,20.7031 L316.5186,44.7031 M316.5186,32.7031 L333.5186,32.7031" fill="none" style="stroke:#181818;stroke-width:0.5;"/><ellipse cx="345.5186" cy="32.7031" fill="#E2E2F0" rx="12" ry="12" style="stroke:#181818;stroke-width:0.5;"/></g><g class="participant participant-tail" data-participant="gui"><text fill="#000000" font-family="sans-serif" font-size="14" font-style="italic" lengthAdjust="spacing" textLength="77.5811" x="295.228" y="647.5498">&#171;fronteira&#187;</text><text fill="#000000" font-family="sans-serif" font-size="14" lengthAdjust="spacing" textLength="25.2246" x="321.4063" y="663.8467">GUI</text><path d="M316.5186,671.1484 L316.5186,695.1484 M316.5186,683.1484 L333.5186,683.1484" fill="none" style="stroke:#181818;stroke-width:0.5;"/><ellipse cx="345.5186" cy="683.1484" fill="#E2E2F0" rx="12" ry="12" style="stroke:#181818;stroke-width:0.5;"/></g><g class="participant participant-head" data-participant="candidatoController"><text fill="#000000" font-family="sans-serif" font-size="14" font-style="italic" lengthAdjust="spacing" textLength="84.2256" x="510.4214" y="61.6982">&#171;controller&#187;</text><text fill="#000000" font-family="sans-serif" font-size="14" lengthAdjust="spacing" textLength="140.6973" x="482.1855" y="77.9951">CandidatoController</text><ellipse cx="555.5342" cy="32.7031" fill="#E2E2F0" rx="12" ry="12" style="stroke:#181818;stroke-width:0.5;"/><polygon fill="#181818" points="551.5342,20.7031,557.5342,15.7031,555.5342,20.7031,557.5342,25.7031,551.5342,20.7031" style="stroke:#181818;stroke-width:1;"/></g><g class="participant participant-tail" data-participant="candidatoController"><text fill="#000000" font-family="sans-serif" font-size="14" font-style="italic" lengthAdjust="spacing" textLength="84.2256" x="510.4214" y="647.5498">&#171;controller&#187;</text><text fill="#000000" font-family="sans-serif" font-size="14" lengthAdjust="spacing" textLength="140.6973" x="482.1855" y="663.8467">CandidatoController</text><ellipse cx="555.5342" cy="683.1484" fill="#E2E2F0" rx="12" ry="12" style="stroke:#181818;stroke-width:0.5;"/><polygon fill="#181818" points="551.5342,671.1484,557.5342,666.1484,555.5342,671.1484,557.5342,676.1484,551.5342,671.1484" style="stroke:#181818;stroke-width:1;"/></g><g class="participant participant-head" data-participant="aprovacaoController"><text fill="#000000" font-family="sans-serif" font-size="14" font-style="italic" lengthAdjust="spacing" textLength="84.2256" x="712.4058" y="61.6982">&#171;controller&#187;</text><text fill="#000000" font-family="sans-serif" font-size="14" lengthAdjust="spacing" textLength="143.6641" x="682.6865" y="77.9951">AprovacaoController</text><ellipse cx="757.5186" cy="32.7031" fill="#E2E2F0" rx="12" ry="12" style="stroke:#181818;stroke-width:0.5;"/><polygon fill="#181818" points="753.5186,20.7031,759.5186,15.7031,757.5186,20.7031,759.5186,25.7031,753.5186,20.7031" style="stroke:#181818;stroke-width:1;"/></g><g class="participant participant-tail" data-participant="aprovacaoController"><text fill="#000000" font-family="sans-serif" font-size="14" font-style="italic" lengthAdjust="spacing" textLength="84.2256" x="712.4058" y="647.5498">&#171;controller&#187;</text><text fill="#000000" font-family="sans-serif" font-size="14" lengthAdjust="spacing" textLength="143.6641" x="682.6865" y="663.8467">AprovacaoController</text><ellipse cx="757.5186" cy="683.1484" fill="#E2E2F0" rx="12" ry="12" style="stroke:#181818;stroke-width:0.5;"/><polygon fill="#181818" points="753.5186,671.1484,759.5186,666.1484,757.5186,671.1484,759.5186,676.1484,753.5186,671.1484" style="stroke:#181818;stroke-width:1;"/></g><g class="participant participant-head" data-participant="candidatos"><rect fill="#E2E2F0" height="30.2969" style="stroke:#181818;stroke-width:0.5;" width="92.8184" x="1092.4346" y="46"/><rect fill="#E2E2F0" height="30.2969" style="stroke:#181818;stroke-width:0.5;" width="92.8184" x="1088.4346" y="50"/><text fill="#000000" font-family="sans-serif" font-size="14" lengthAdjust="spacing" textLength="78.8184" x="1095.4346" y="69.9951">Candidatos</text></g><g class="participant participant-tail" data-participant="candidatos"><rect fill="#E2E2F0" height="30.2969" style="stroke:#181818;stroke-width:0.5;" width="92.8184" x="1092.4346" y="634.5547"/><rect fill="#E2E2F0" height="30.2969" style="stroke:#181818;stroke-width:0.5;" width="92.8184" x="1088.4346" y="638.5547"/><text fill="#000000" font-family="sans-serif" font-size="14" lengthAdjust="spacing" textLength="78.8184" x="1095.4346" y="658.5498">Candidatos</text></g><g class="participant participant-head" data-participant="candidato"><text fill="#000000" font-family="sans-serif" font-size="14" lengthAdjust="spacing" textLength="71.5244" x="1196.5674" y="77.9951">Candidato</text><ellipse cx="1235.3296" cy="49" fill="#E2E2F0" rx="12" ry="12" style="stroke:#181818;stroke-width:0.5;"/><line style="stroke:#181818;stroke-width:0.5;" x1="1223.3296" x2="1247.3296" y1="63" y2="63"/></g><g class="participant participant-tail" data-participant="candidato"><text fill="#000000" font-family="sans-serif" font-size="14" lengthAdjust="spacing" textLength="71.5244" x="1196.5674" y="647.5498">Candidato</text><ellipse cx="1235.3296" cy="666.8516" fill="#E2E2F0" rx="12" ry="12" style="stroke:#181818;stroke-width:0.5;"/><line style="stroke:#181818;stroke-width:0.5;" x1="1223.3296" x2="1247.3296" y1="680.8516" y2="680.8516"/></g><g class="participant participant-head" data-participant="voluntarios"><rect fill="#E2E2F0" height="30.2969" rx="2.5" ry="2.5" style="stroke:#181818;stroke-width:0.5;" width="92.0596" x="1284.0918" y="50"/><text fill="#000000" font-family="sans-serif" font-size="14" lengthAdjust="spacing" textLength="78.0596" x="1291.0918" y="69.9951">voluntarios</text></g><g class="participant participant-tail" data-participant="voluntarios"><rect fill="#E2E2F0" height="30.2969" rx="2.5" ry="2.5" style="stroke:#181818;stroke-width:0.5;" width="92.0596" x="1284.0918" y="634.5547"/><text fill="#000000" font-family="sans-serif" font-size="14" lengthAdjust="spacing" textLength="78.0596" x="1291.0918" y="654.5498">voluntarios</text></g><g><title>..fronteira..</title><rect fill="#FFFFFF" height="275.1953" style="stroke:#181818;stroke-width:1;" width="10" x="332.0186" y="112.4297"/></g><g><title>..fronteira..</title><rect fill="#FFFFFF" height="200.7969" style="stroke:#181818;stroke-width:1;" width="10" x="332.0186" y="416.7578"/></g><g><title>..controller..</title><rect fill="#FFFFFF" height="246.0625" style="stroke:#181818;stroke-width:1;" width="10" x="550.5342" y="141.5625"/></g><g><title>..controller..</title><rect fill="#FFFFFF" height="171.6641" style="stroke:#181818;stroke-width:1;" width="10" x="752.5186" y="445.8906"/></g><g><title>Candidatos</title><rect fill="#FFFFFF" height="87.3984" style="stroke:#181818;stroke-width:1;" width="10" x="1131.8438" y="170.6953"/></g><g><title>Candidatos</title><rect fill="#FFFFFF" height="29.1328" style="stroke:#181818;stroke-width:1;" width="10" x="1131.8438" y="517.1563"/></g><g><title>Candidato</title><rect fill="#FFFFFF" height="29.1328" style="stroke:#181818;stroke-width:1;" width="10" x="1230.3296" y="199.8281"/></g><g><title>voluntarios</title><rect fill="#FFFFFF" height="29.1328" style="stroke:#181818;stroke-width:1;" width="10" x="1325.1216" y="329.3594"/></g><g class="message" data-participant-1="representante" data-participant-2="gui"><polygon fill="#181818" points="320.0186,108.4297,330.0186,112.4297,320.0186,116.4297,324.0186,112.4297" style="stroke:#181818;stroke-width:1;"/><line style="stroke:#181818;stroke-width:1;" x1="77.1079" x2="326.0186" y1="112.4297" y2="112.4297"/><text fill="#000000" font-family="sans-serif" font-size="13" lengthAdjust="spacing" textLength="189.5156" x="84.1079" y="107.3638">solicitaRejeicaoCandidato(id)</text></g><g class="message" data-participant-1="gui" data-participant-2="candidatoController"><polygon fill="#181818" points="538.5342,137.5625,548.5342,141.5625,538.5342,145.5625,542.5342,141.5625" style="stroke:#181818;stroke-width:1;"/><line style="stroke:#181818;stroke-width:1;" x1="342.0186" x2="544.5342" y1="141.5625" y2="141.5625"/><text fill="#000000" font-family="sans-serif" font-size="13" lengthAdjust="spacing" textLength="189.5156" x="349.0186" y="136.4966">solicitaRejeicaoCandidato(id)</text></g><g class="message" data-participant-1="candidatoController" data-participant-2="candidatos"><polygon fill="#181818" points="1119.8438,166.6953,1129.8438,170.6953,1119.8438,174.6953,1123.8438,170.6953" style="stroke:#181818;stroke-width:1;"/><line style="stroke:#181818;stroke-width:1;" x1="560.5342" x2="1125.8438" y1="170.6953" y2="170.6953"/><text fill="#000000" font-family="sans-serif" font-size="13" lengthAdjust="spacing" textLength="126.8008" x="567.5342" y="165.6294">buscaCandidato(id)</text></g><g class="message" data-participant-1="candidatos" data-participant-2="candidato"><polygon fill="#181818" points="1218.3296,195.8281,1228.3296,199.8281,1218.3296,203.8281,1222.3296,199.8281" style="stroke:#181818;stroke-width:1;"/><line style="stroke:#181818;stroke-width:1;" x1="1141.8438" x2="1224.3296" y1="199.8281" y2="199.8281"/><text fill="#000000" font-family="sans-serif" font-size="13" lengthAdjust="spacing" textLength="43.3545" x="1148.8438" y="194.7622">get(id)</text></g><g class="message" data-participant-1="candidato" data-participant-2="candidatos"><polygon fill="#181818" points="1152.8438,224.9609,1142.8438,228.9609,1152.8438,232.9609,1148.8438,228.9609" style="stroke:#181818;stroke-width:1;"/><line style="stroke:#181818;stroke-width:1;stroke-dasharray:2,2;" x1="1146.8438" x2="1234.3296" y1="228.9609" y2="228.9609"/><text fill="#000000" font-family="sans-serif" font-size="13" lengthAdjust="spacing" textLength="64.4858" x="1158.8438" y="223.895">candidato</text></g><g class="message" data-participant-1="candidatos" data-participant-2="candidatoController"><polygon fill="#181818" points="571.5342,254.0938,561.5342,258.0938,571.5342,262.0938,567.5342,258.0938" style="stroke:#181818;stroke-width:1;"/><line style="stroke:#181818;stroke-width:1;stroke-dasharray:2,2;" x1="565.5342" x2="1135.8438" y1="258.0938" y2="258.0938"/><text fill="#000000" font-family="sans-serif" font-size="13" lengthAdjust="spacing" textLength="64.4858" x="577.5342" y="253.0278">candidato</text></g><g class="message" data-participant-1="candidatoController" data-participant-2="candidatoController"><line style="stroke:#181818;stroke-width:1;" x1="560.5342" x2="602.5342" y1="287.2266" y2="287.2266"/><line style="stroke:#181818;stroke-width:1;" x1="602.5342" x2="602.5342" y1="287.2266" y2="300.2266"/><line style="stroke:#181818;stroke-width:1;" x1="561.5342" x2="602.5342" y1="300.2266" y2="300.2266"/><polygon fill="#181818" points="571.5342,296.2266,561.5342,300.2266,571.5342,304.2266,567.5342,300.2266" style="stroke:#181818;stroke-width:1;"/><text fill="#000000" font-family="sans-serif" font-size="13" lengthAdjust="spacing" textLength="167.9844" x="567.5342" y="282.1606">mudaSituacao(candidato)</text></g><g class="message" data-participant-1="candidatoController" data-participant-2="candidatos"><polygon fill="#181818" points="1124.8438,325.3594,1134.8438,329.3594,1124.8438,333.3594,1128.8438,329.3594" style="stroke:#181818;stroke-width:1;"/><line style="stroke:#181818;stroke-width:1;" x1="560.5342" x2="1130.8438" y1="329.3594" y2="329.3594"/><text fill="#000000" font-family="sans-serif" font-size="13" lengthAdjust="spacing" textLength="108.6401" x="567.5342" y="324.2935">salva(candidato)</text></g><g class="message" data-participant-1="voluntarios" data-participant-2="candidatoController"><polygon fill="#181818" points="571.5342,354.4922,561.5342,358.4922,571.5342,362.4922,567.5342,358.4922" style="stroke:#181818;stroke-width:1;"/><line style="stroke:#181818;stroke-width:1;stroke-dasharray:2,2;" x1="565.5342" x2="1329.1216" y1="358.4922" y2="358.4922"/><text fill="#000000" font-family="sans-serif" font-size="13" lengthAdjust="spacing" textLength="64.4858" x="577.5342" y="353.4263">candidato</text></g><g class="message" data-participant-1="candidatoController" data-participant-2="gui"><polygon fill="#181818" points="348.0186,383.625,338.0186,387.625,348.0186,391.625,344.0186,387.625" style="stroke:#181818;stroke-width:1;"/><line style="stroke:#181818;stroke-width:1;stroke-dasharray:2,2;" x1="342.0186" x2="554.5342" y1="387.625" y2="387.625"/><text fill="#000000" font-family="sans-serif" font-size="13" lengthAdjust="spacing" textLength="64.4858" x="354.0186" y="382.5591">candidato</text></g><g class="message" data-participant-1="representante" data-participant-2="gui"><polygon fill="#181818" points="320.0186,412.7578,330.0186,416.7578,320.0186,420.7578,324.0186,416.7578" style="stroke:#181818;stroke-width:1;"/><line style="stroke:#181818;stroke-width:1;" x1="77.1079" x2="326.0186" y1="416.7578" y2="416.7578"/><text fill="#000000" font-family="sans-serif" font-size="13" lengthAdjust="spacing" textLength="235.9106" x="84.1079" y="411.6919">rejeitaCandidato(candidato, motivo)</text></g><g class="message" data-participant-1="gui" data-participant-2="aprovacaoController"><polygon fill="#181818" points="740.5186,441.8906,750.5186,445.8906,740.5186,449.8906,744.5186,445.8906" style="stroke:#181818;stroke-width:1;"/><line style="stroke:#181818;stroke-width:1;" x1="342.0186" x2="746.5186" y1="445.8906" y2="445.8906"/><text fill="#000000" font-family="sans-serif" font-size="13" lengthAdjust="spacing" textLength="235.9106" x="349.0186" y="440.8247">rejeitaCandidato(candidato, motivo)</text></g><g class="message" data-participant-1="aprovacaoController" data-participant-2="aprovacaoController"><line style="stroke:#181818;stroke-width:1;" x1="762.5186" x2="804.5186" y1="475.0234" y2="475.0234"/><line style="stroke:#181818;stroke-width:1;" x1="804.5186" x2="804.5186" y1="475.0234" y2="488.0234"/><line style="stroke:#181818;stroke-width:1;" x1="763.5186" x2="804.5186" y1="488.0234" y2="488.0234"/><polygon fill="#181818" points="773.5186,484.0234,763.5186,488.0234,773.5186,492.0234,769.5186,488.0234" style="stroke:#181818;stroke-width:1;"/><text fill="#000000" font-family="sans-serif" font-size="13" lengthAdjust="spacing" textLength="345.3252" x="769.5186" y="469.9575">atualizaMotivoSituacaoCandidato(candidato, motivo)</text></g><g class="message" data-participant-1="aprovacaoController" data-participant-2="candidatos"><polygon fill="#181818" points="1119.8438,513.1563,1129.8438,517.1563,1119.8438,521.1563,1123.8438,517.1563" style="stroke:#181818;stroke-width:1;"/><line style="stroke:#181818;stroke-width:1;" x1="762.5186" x2="1125.8438" y1="517.1563" y2="517.1563"/><text fill="#000000" font-family="sans-serif" font-size="13" lengthAdjust="spacing" textLength="108.6401" x="769.5186" y="512.0903">salva(candidato)</text></g><g class="message" data-participant-1="candidatos" data-participant-2="aprovacaoController"><polygon fill="#181818" points="773.5186,542.2891,763.5186,546.2891,773.5186,550.2891,769.5186,546.2891" style="stroke:#181818;stroke-width:1;"/><line style="stroke:#181818;stroke-width:1;stroke-dasharray:2,2;" x1="767.5186" x2="1135.8438" y1="546.2891" y2="546.2891"/><text fill="#000000" font-family="sans-serif" font-size="13" lengthAdjust="spacing" textLength="64.4858" x="779.5186" y="541.2231">candidato</text></g><g class="message" data-participant-1="aprovacaoController" data-participant-2="aprovacaoController"><line style="stroke:#181818;stroke-width:1;" x1="762.5186" x2="804.5186" y1="575.4219" y2="575.4219"/><line style="stroke:#181818;stroke-width:1;" x1="804.5186" x2="804.5186" y1="575.4219" y2="588.4219"/><line style="stroke:#181818;stroke-width:1;" x1="763.5186" x2="804.5186" y1="588.4219" y2="588.4219"/><polygon fill="#181818" points="773.5186,584.4219,763.5186,588.4219,773.5186,592.4219,769.5186,588.4219" style="stroke:#181818;stroke-width:1;"/><text fill="#000000" font-family="sans-serif" font-size="13" lengthAdjust="spacing" textLength="237.5928" x="769.5186" y="570.356">enviaEmailRejeicao(candidatoEmail)</text></g><g class="message" data-participant-1="aprovacaoController" data-participant-2="gui"><polygon fill="#181818" points="348.0186,613.5547,338.0186,617.5547,348.0186,621.5547,344.0186,617.5547" style="stroke:#181818;stroke-width:1;"/><line style="stroke:#181818;stroke-width:1;stroke-dasharray:2,2;" x1="342.0186" x2="756.5186" y1="617.5547" y2="617.5547"/><text fill="#000000" font-family="sans-serif" font-size="13" lengthAdjust="spacing" textLength="51.6572" x="354.0186" y="612.4888">sucesso</text></g><!--SRC=[dPHBQiCm443tEiNWLKAR2uGGAA6KBhfnw04ciXfK52j8iY4zVIKNEv8rJjnePS_dpKSpGkwqWQ8KPoEig1tMJa3vj2y0BPXOoWwwgIiq5oZUFjyx_R6HiDby6UtLqk1soxZ_D5f1iSEwaXKwlVkJA64w5vxBFO8FFp7ZvMnqYnp73Cpb6S9_S2TrRQDKR9g1PRuowIwHHMh0MD80M6r3nMkmMaak7PRYMyYGHk-maDMIeO_ReZVtjWpy2LtohaJbzr31Uy0H_fr1E5HNuv1s3OV6SipnT0WxwC99VgusIOGr78LBg3GvKISyM8qofdqgGK0PbTrKptCknRHiTdTZ-AcfS2zT4yPpCLWi_tDJ5bMBiMz-KQrMZHzA8qSt5SaVh3yciyc4-qr8KLGRes6Dr64r9fRBX4rmqQGEg6SuQU-lfrUCU1Zc0PFc4fJh3UIwoS3efq397_peWlH3SJUF6s5kJidSRHwj29dwt1Lvf2sYRYM-db2g_j6xLj69xxHXU8KRBgmbCwHkC9s-Nm00]--></g></svg>