<svg xmlns="http://www.w3.org/2000/svg" xmlns:xlink="http://www.w3.org/1999/xlink" contentStyleType="text/css" data-diagram-type="SEQUENCE" height="541px" preserveAspectRatio="none" style="width:1455px;height:541px;background:#FFFFFF;" version="1.1" viewBox="0 0 1455 541" width="1455px" zoomAndPan="magnify"><defs/><g><g><title>..fronteira..</title><rect fill="#FFFFFF" height="339.3281" style="stroke:#181818;stroke-width:1;" width="10" x="297.1128" y="112.4297"/></g><g><title>..controller..</title><rect fill="#FFFFFF" height="310.1953" style="stroke:#181818;stroke-width:1;" width="10" x="580.4326" y="141.5625"/></g><g><title>Voluntarios</title><rect fill="#FFFFFF" height="158.6641" style="stroke:#181818;stroke-width:1;" width="10" x="1224.855" y="170.6953"/></g><g><title>Voluntario</title><rect fill="#FFFFFF" height="29.1328" style="stroke:#181818;stroke-width:1;" width="10" x="1410.084" y="199.8281"/></g><g><title>Representante R.S</title><rect fill="#000000" fill-opacity="0.00000" height="379.4609" width="8" x="73.1079" y="81.2969"/><line style="stroke:#181818;stroke-width:0.5;stroke-dasharray:5,5;" x1="77" x2="77" y1="81.2969" y2="460.7578"/></g><g><title>..fronteira..</title><rect fill="#000000" fill-opacity="0.00000" height="379.4609" width="8" x="298.1128" y="81.2969"/><line style="stroke:#181818;stroke-width:0.5;stroke-dasharray:5,5;" x1="301.3223" x2="301.3223" y1="81.2969" y2="460.7578"/></g><g><title>..controller..</title><rect fill="#000000" fill-opacity="0.00000" height="379.4609" width="8" x="423.252" y="81.2969"/><line style="stroke:#181818;stroke-width:0.5;stroke-dasharray:5,5;" x1="426.9033" x2="426.9033" y1="81.2969" y2="460.7578"/></g><g><title>..controller..</title><rect fill="#000000" fill-opacity="0.00000" height="379.4609" width="8" x="581.4326" y="81.2969"/><line style="stroke:#181818;stroke-width:0.5;stroke-dasharray:5,5;" x1="584.6006" x2="584.6006" y1="81.2969" y2="460.7578"/></g><g><title>Candidatos</title><rect fill="#000000" fill-opacity="0.00000" height="379.4609" width="8" x="1118.77" y="81.2969"/><line style="stroke:#181818;stroke-width:0.5;stroke-dasharray:5,5;" x1="1122.3608" x2="1122.3608" y1="81.2969" y2="460.7578"/></g><g><title>Voluntarios</title><rect fill="#000000" fill-opacity="0.00000" height="379.4609" width="8" x="1225.855" y="81.2969"/><line style="stroke:#181818;stroke-width:0.5;stroke-dasharray:5,5;" x1="1229.1792" x2="1229.1792" y1="81.2969" y2="460.7578"/></g><g><title>Candidato</title><rect fill="#000000" fill-opacity="0.00000" height="379.4609" width="8" x="1323.293" y="81.2969"/><line style="stroke:#181818;stroke-width:0.5;stroke-dasharray:5,5;" x1="1326.5308" x2="1326.5308" y1="81.2969" y2="460.7578"/></g><g><title>Voluntario</title><rect fill="#000000" fill-opacity="0.00000" height="379.4609" width="8" x="1411.084" y="81.2969"/><line style="stroke:#181818;stroke-width:0.5;stroke-dasharray:5,5;" x1="1415.0552" x2="1415.0552" y1="81.2969" y2="460.7578"/></g><g class="participant participant-head" data-participant="representante"><text fill="#000000" font-family="sans-serif" font-size="14" lengthAdjust="spacing" textLength="138.2158" x="5" y="77.9951">Representante R+S</text><ellipse cx="77.1079" cy="13.5" fill="#E2E2F0" rx="8" ry="8" style="stroke:#181818;stroke-width:0.5;"/><path d="M77.1079,21.5 L77.1079,48.5 M64.1079,29.5 L90.1079,29.5 M77.1079,48.5 L64.1079,63.5 M77.1079,48.5 L90.1079,63.5" fill="none" style="stroke:#181818;stroke-width:0.5;"/></g><g class="participant participant-tail" data-participant="representante"><text fill="#000000" font-family="sans-serif" font-size="14" lengthAdjust="spacing" textLength="138.2158" x="5" y="472.7529">Representante R+S</text><ellipse cx="77.1079" cy="484.5547" fill="#E2E2F0" rx="8" ry="8" style="stroke:#181818;stroke-width:0.5;"/><path d="M77.1079,492.5547 L77.1079,519.5547 M64.1079,500.5547 L90.1079,500.5547 M77.1079,519.5547 L64.1079,534.5547 M77.1079,519.5547 L90.1079,534.5547" fill="none" style="stroke:#181818;stroke-width:0.5;"/></g><g class="participant participant-head" data-participant="gui"><text fill="#000000" font-family="sans-serif" font-size="14" font-style="italic" lengthAdjust="spacing" textLength="77.5811" x="260.3223" y="61.6982">&#171;fronteira&#187;</text><text fill="#000000" font-family="sans-serif" font-size="14" lengthAdjust="spacing" textLength="25.2246" x="286.5005" y="77.9951">GUI</text><path d="M281.6128,20.7031 L281.6128,44.7031 M281.6128,32.7031 L298.6128,32.7031" fill="none" style="stroke:#181818;stroke-width:0.5;"/><ellipse cx="310.6128" cy="32.7031" fill="#E2E2F0" rx="12" ry="12" style="stroke:#181818;stroke-width:0.5;"/></g><g class="participant participant-tail" data-participant="gui"><text fill="#000000" font-family="sans-serif" font-size="14" font-style="italic" lengthAdjust="spacing" textLength="77.5811" x="260.3223" y="472.7529">&#171;fronteira&#187;</text><text fill="#000000" font-family="sans-serif" font-size="14" lengthAdjust="spacing" textLength="25.2246" x="286.5005" y="489.0498">GUI</text><path d="M281.6128,496.3516 L281.6128,520.3516 M281.6128,508.3516 L298.6128,508.3516" fill="none" style="stroke:#181818;stroke-width:0.5;"/><ellipse cx="310.6128" cy="508.3516" fill="#E2E2F0" rx="12" ry="12" style="stroke:#181818;stroke-width:0.5;"/></g><g class="participant participant-head" data-participant="candidatoController"><text fill="#000000" font-family="sans-serif" font-size="14" font-style="italic" lengthAdjust="spacing" textLength="84.2256" x="382.1392" y="61.6982">&#171;controller&#187;</text><text fill="#000000" font-family="sans-serif" font-size="14" lengthAdjust="spacing" textLength="140.6973" x="353.9033" y="77.9951">CandidatoController</text><ellipse cx="427.252" cy="32.7031" fill="#E2E2F0" rx="12" ry="12" style="stroke:#181818;stroke-width:0.5;"/><polygon fill="#181818" points="423.252,20.7031,429.252,15.7031,427.252,20.7031,429.252,25.7031,423.252,20.7031" style="stroke:#181818;stroke-width:1;"/></g><g class="participant participant-tail" data-participant="candidatoController"><text fill="#000000" font-family="sans-serif" font-size="14" font-style="italic" lengthAdjust="spacing" textLength="84.2256" x="382.1392" y="472.7529">&#171;controller&#187;</text><text fill="#000000" font-family="sans-serif" font-size="14" lengthAdjust="spacing" textLength="140.6973" x="353.9033" y="489.0498">CandidatoController</text><ellipse cx="427.252" cy="508.3516" fill="#E2E2F0" rx="12" ry="12" style="stroke:#181818;stroke-width:0.5;"/><polygon fill="#181818" points="423.252,496.3516,429.252,491.3516,427.252,496.3516,429.252,501.3516,423.252,496.3516" style="stroke:#181818;stroke-width:1;"/></g><g class="participant participant-head" data-participant="aprovacaoController"><text fill="#000000" font-family="sans-serif" font-size="14" font-style="italic" lengthAdjust="spacing" textLength="84.2256" x="540.3198" y="61.6982">&#171;controller&#187;</text><text fill="#000000" font-family="sans-serif" font-size="14" lengthAdjust="spacing" textLength="143.6641" x="510.6006" y="77.9951">AprovacaoController</text><ellipse cx="585.4326" cy="32.7031" fill="#E2E2F0" rx="12" ry="12" style="stroke:#181818;stroke-width:0.5;"/><polygon fill="#181818" points="581.4326,20.7031,587.4326,15.7031,585.4326,20.7031,587.4326,25.7031,581.4326,20.7031" style="stroke:#181818;stroke-width:1;"/></g><g class="participant participant-tail" data-participant="aprovacaoController"><text fill="#000000" font-family="sans-serif" font-size="14" font-style="italic" lengthAdjust="spacing" textLength="84.2256" x="540.3198" y="472.7529">&#171;controller&#187;</text><text fill="#000000" font-family="sans-serif" font-size="14" lengthAdjust="spacing" textLength="143.6641" x="510.6006" y="489.0498">AprovacaoController</text><ellipse cx="585.4326" cy="508.3516" fill="#E2E2F0" rx="12" ry="12" style="stroke:#181818;stroke-width:0.5;"/><polygon fill="#181818" points="581.4326,496.3516,587.4326,491.3516,585.4326,496.3516,587.4326,501.3516,581.4326,496.3516" style="stroke:#181818;stroke-width:1;"/></g><g class="participant participant-head" data-participant="candidatos"><rect fill="#E2E2F0" height="30.2969" style="stroke:#181818;stroke-width:0.5;" width="92.8184" x="1078.3608" y="46"/><rect fill="#E2E2F0" height="30.2969" style="stroke:#181818;stroke-width:0.5;" width="92.8184" x="1074.3608" y="50"/><text fill="#000000" font-family="sans-serif" font-size="14" lengthAdjust="spacing" textLength="78.8184" x="1081.3608" y="69.9951">Candidatos</text></g><g class="participant participant-tail" data-participant="candidatos"><rect fill="#E2E2F0" height="30.2969" style="stroke:#181818;stroke-width:0.5;" width="92.8184" x="1078.3608" y="459.7578"/><rect fill="#E2E2F0" height="30.2969" style="stroke:#181818;stroke-width:0.5;" width="92.8184" x="1074.3608" y="463.7578"/><text fill="#000000" font-family="sans-serif" font-size="14" lengthAdjust="spacing" textLength="78.8184" x="1081.3608" y="483.7529">Candidatos</text></g><g class="participant participant-head" data-participant="voluntarios"><rect fill="#E2E2F0" height="30.2969" style="stroke:#181818;stroke-width:0.5;" width="93.3516" x="1185.1792" y="46"/><rect fill="#E2E2F0" height="30.2969" style="stroke:#181818;stroke-width:0.5;" width="93.3516" x="1181.1792" y="50"/><text fill="#000000" font-family="sans-serif" font-size="14" lengthAdjust="spacing" textLength="79.3516" x="1188.1792" y="69.9951">Voluntarios</text></g><g class="participant participant-tail" data-participant="voluntarios"><rect fill="#E2E2F0" height="30.2969" style="stroke:#181818;stroke-width:0.5;" width="93.3516" x="1185.1792" y="459.7578"/><rect fill="#E2E2F0" height="30.2969" style="stroke:#181818;stroke-width:0.5;" width="93.3516" x="1181.1792" y="463.7578"/><text fill="#000000" font-family="sans-serif" font-size="14" lengthAdjust="spacing" textLength="79.3516" x="1188.1792" y="483.7529">Voluntarios</text></g><g class="participant participant-head" data-participant="candidato"><text fill="#000000" font-family="sans-serif" font-size="14" lengthAdjust="spacing" textLength="71.5244" x="1288.5308" y="77.9951">Candidato</text><ellipse cx="1327.293" cy="49" fill="#E2E2F0" rx="12" ry="12" style="stroke:#181818;stroke-width:0.5;"/><line style="stroke:#181818;stroke-width:0.5;" x1="1315.293" x2="1339.293" y1="63" y2="63"/></g><g class="participant participant-tail" data-participant="candidato"><text fill="#000000" font-family="sans-serif" font-size="14" lengthAdjust="spacing" textLength="71.5244" x="1288.5308" y="472.7529">Candidato</text><ellipse cx="1327.293" cy="492.0547" fill="#E2E2F0" rx="12" ry="12" style="stroke:#181818;stroke-width:0.5;"/><line style="stroke:#181818;stroke-width:0.5;" x1="1315.293" x2="1339.293" y1="506.0547" y2="506.0547"/></g><g class="participant participant-head" data-participant="voluntario"><text fill="#000000" font-family="sans-serif" font-size="14" lengthAdjust="spacing" textLength="72.0576" x="1376.0552" y="77.9951">Voluntario</text><ellipse cx="1415.084" cy="49" fill="#E2E2F0" rx="12" ry="12" style="stroke:#181818;stroke-width:0.5;"/><line style="stroke:#181818;stroke-width:0.5;" x1="1403.084" x2="1427.084" y1="63" y2="63"/></g><g class="participant participant-tail" data-participant="voluntario"><text fill="#000000" font-family="sans-serif" font-size="14" lengthAdjust="spacing" textLength="72.0576" x="1376.0552" y="472.7529">Voluntario</text><ellipse cx="1415.084" cy="492.0547" fill="#E2E2F0" rx="12" ry="12" style="stroke:#181818;stroke-width:0.5;"/><line style="stroke:#181818;stroke-width:0.5;" x1="1403.084" x2="1427.084" y1="506.0547" y2="506.0547"/></g><g><title>..fronteira..</title><rect fill="#FFFFFF" height="339.3281" style="stroke:#181818;stroke-width:1;" width="10" x="297.1128" y="112.4297"/></g><g><title>..controller..</title><rect fill="#FFFFFF" height="310.1953" style="stroke:#181818;stroke-width:1;" width="10" x="580.4326" y="141.5625"/></g><g><title>Voluntarios</title><rect fill="#FFFFFF" height="158.6641" style="stroke:#181818;stroke-width:1;" width="10" x="1224.855" y="170.6953"/></g><g><title>Voluntario</title><rect fill="#FFFFFF" height="29.1328" style="stroke:#181818;stroke-width:1;" width="10" x="1410.084" y="199.8281"/></g><g class="message" data-participant-1="representante" data-participant-2="gui"><polygon fill="#181818" points="285.1128,108.4297,295.1128,112.4297,285.1128,116.4297,289.1128,112.4297" style="stroke:#181818;stroke-width:1;"/><line style="stroke:#181818;stroke-width:1;" x1="77.1079" x2="291.1128" y1="112.4297" y2="112.4297"/><text fill="#000000" font-family="sans-serif" font-size="13" lengthAdjust="spacing" textLength="201.0049" x="84.1079" y="107.3638">aprovaVoluntario(idVoluntario)</text></g><g class="message" data-participant-1="gui" data-participant-2="aprovacaoController"><polygon fill="#181818" points="568.4326,137.5625,578.4326,141.5625,568.4326,145.5625,572.4326,141.5625" style="stroke:#181818;stroke-width:1;"/><line style="stroke:#181818;stroke-width:1;" x1="307.1128" x2="574.4326" y1="141.5625" y2="141.5625"/><text fill="#000000" font-family="sans-serif" font-size="13" lengthAdjust="spacing" textLength="201.0049" x="314.1128" y="136.4966">aprovaVoluntario(idVoluntario)</text></g><g class="message" data-participant-1="aprovacaoController" data-participant-2="voluntarios"><polygon fill="#181818" points="1212.855,166.6953,1222.855,170.6953,1212.855,174.6953,1216.855,170.6953" style="stroke:#181818;stroke-width:1;"/><line style="stroke:#181818;stroke-width:1;" x1="590.4326" x2="1218.855" y1="170.6953" y2="170.6953"/><text fill="#000000" font-family="sans-serif" font-size="13" lengthAdjust="spacing" textLength="206.0767" x="597.4326" y="165.6294">procuraVoluntario(idVoluntario)</text></g><g class="message" data-participant-1="voluntarios" data-participant-2="voluntario"><polygon fill="#181818" points="1398.084,195.8281,1408.084,199.8281,1398.084,203.8281,1402.084,199.8281" style="stroke:#181818;stroke-width:1;"/><line style="stroke:#181818;stroke-width:1;" x1="1234.855" x2="1404.084" y1="199.8281" y2="199.8281"/><text fill="#000000" font-family="sans-serif" font-size="13" lengthAdjust="spacing" textLength="110.2651" x="1241.855" y="194.7622">get(idVoluntario)</text></g><g class="message" data-participant-1="voluntario" data-participant-2="voluntarios"><polygon fill="#181818" points="1245.855,224.9609,1235.855,228.9609,1245.855,232.9609,1241.855,228.9609" style="stroke:#181818;stroke-width:1;"/><line style="stroke:#181818;stroke-width:1;stroke-dasharray:2,2;" x1="1239.855" x2="1414.084" y1="228.9609" y2="228.9609"/><text fill="#000000" font-family="sans-serif" font-size="13" lengthAdjust="spacing" textLength="65.7109" x="1251.855" y="223.895">voluntario</text></g><g class="message" data-participant-1="voluntarios" data-participant-2="aprovacaoController"><polygon fill="#181818" points="601.4326,254.0938,591.4326,258.0938,601.4326,262.0938,597.4326,258.0938" style="stroke:#181818;stroke-width:1;"/><line style="stroke:#181818;stroke-width:1;stroke-dasharray:2,2;" x1="595.4326" x2="1223.855" y1="258.0938" y2="258.0938"/><text fill="#000000" font-family="sans-serif" font-size="13" lengthAdjust="spacing" textLength="65.7109" x="607.4326" y="253.0278">voluntario</text></g><g class="message" data-participant-1="aprovacaoController" data-participant-2="aprovacaoController"><line style="stroke:#181818;stroke-width:1;" x1="590.4326" x2="632.4326" y1="287.2266" y2="287.2266"/><line style="stroke:#181818;stroke-width:1;" x1="632.4326" x2="632.4326" y1="287.2266" y2="300.2266"/><line style="stroke:#181818;stroke-width:1;" x1="591.4326" x2="632.4326" y1="300.2266" y2="300.2266"/><polygon fill="#181818" points="601.4326,296.2266,591.4326,300.2266,601.4326,304.2266,597.4326,300.2266" style="stroke:#181818;stroke-width:1;"/><text fill="#000000" font-family="sans-serif" font-size="13" lengthAdjust="spacing" textLength="248.3203" x="597.4326" y="282.1606">geraLoginSenhaVoluntario(voluntario)</text></g><g class="message" data-participant-1="aprovacaoController" data-participant-2="voluntarios"><polygon fill="#181818" points="1217.855,325.3594,1227.855,329.3594,1217.855,333.3594,1221.855,329.3594" style="stroke:#181818;stroke-width:1;"/><line style="stroke:#181818;stroke-width:1;" x1="590.4326" x2="1223.855" y1="329.3594" y2="329.3594"/><text fill="#000000" font-family="sans-serif" font-size="13" lengthAdjust="spacing" textLength="176.7759" x="597.4326" y="324.2935">salvaVoluntario(voluntario)</text></g><g class="message" data-participant-1="aprovacaoController" data-participant-2="aprovacaoController"><line style="stroke:#181818;stroke-width:1;" x1="590.4326" x2="632.4326" y1="358.4922" y2="358.4922"/><line style="stroke:#181818;stroke-width:1;" x1="632.4326" x2="632.4326" y1="358.4922" y2="371.4922"/><line style="stroke:#181818;stroke-width:1;" x1="591.4326" x2="632.4326" y1="371.4922" y2="371.4922"/><polygon fill="#181818" points="601.4326,367.4922,591.4326,371.4922,601.4326,375.4922,597.4326,371.4922" style="stroke:#181818;stroke-width:1;"/><text fill="#000000" font-family="sans-serif" font-size="13" lengthAdjust="spacing" textLength="503.3374" x="597.4326" y="353.4263">enviaEmailLoginInstrucao(voluntarioEmail, voluntarioLogin, voluntarioSenha)</text></g><g class="message" data-participant-1="aprovacaoController" data-participant-2="aprovacaoController"><line style="stroke:#181818;stroke-width:1;" x1="590.4326" x2="632.4326" y1="400.625" y2="400.625"/><line style="stroke:#181818;stroke-width:1;" x1="632.4326" x2="632.4326" y1="400.625" y2="413.625"/><line style="stroke:#181818;stroke-width:1;" x1="591.4326" x2="632.4326" y1="413.625" y2="413.625"/><polygon fill="#181818" points="601.4326,409.625,591.4326,413.625,601.4326,417.625,597.4326,413.625" style="stroke:#181818;stroke-width:1;"/><text fill="#000000" font-family="sans-serif" font-size="13" lengthAdjust="spacing" textLength="404.0791" x="597.4326" y="395.5591">enviaEmailResultadoAfiliacaoRecomendacao(voluntarioEmail)</text></g><g class="message" data-participant-1="aprovacaoController" data-participant-2="gui"><polygon fill="#181818" points="318.1128,438.7578,308.1128,442.7578,318.1128,446.7578,314.1128,442.7578" style="stroke:#181818;stroke-width:1;"/><line style="stroke:#181818;stroke-width:1;stroke-dasharray:2,2;" x1="312.1128" x2="579.4326" y1="442.7578" y2="442.7578"/><text fill="#000000" font-family="sans-serif" font-size="13" lengthAdjust="spacing" textLength="70.7637" x="324.1128" y="437.6919">"successo"</text></g><!--SRC=[fPJFQiCm3CRlVWgJqyhM5mYbKCeOXPrIjhlcg9aXjOl_1FhsKxmkiLkd6PjFjlJf9-aBBGYd3IygF1cqg1meXxnwt1SSB3Tnb7rehsemPrwylEr2ll6IhrO7eoaj3QpNJD3Lw9ONMr2rhC7fxNUaHHDAn6sS469un8pDoUWE15mpu3P-Ww2BS58h6urYqmbiAdlNhQTDZRpekl7Do0BfpX4g9GtvaN65O2pnaY_NlNdbPPMnx47MusF1W8RhWFGaPfnExpZLPXoOPVNb0oy328B-39UCg6yU6LDoaWXlxdTDEiUsykX4yRH9oHjq4zG9Sf9FuNnvlS54MOrpu6JYgO-IgPtpDyjfqC2hRgJQe_gCxUvoPl_YmrbekpaEksk6PN_Q15KduVa8iWtxx9HrnfCccY1adw9MGHa7WWkBV_QlqFhMGQqt1zdANbUXq4UaVxdCF8kPTNz-qeNrGg2rklW2]--></g></svg>