<svg xmlns="http://www.w3.org/2000/svg" xmlns:xlink="http://www.w3.org/1999/xlink" contentStyleType="text/css" data-diagram-type="SEQUENCE" height="386px" preserveAspectRatio="none" style="width:1174px;height:386px;background:#FFFFFF;" version="1.1" viewBox="0 0 1174 386" width="1174px" zoomAndPan="magnify"><defs/><g><g><title>..fronteira..</title><rect fill="#FFFFFF" height="174.7969" style="stroke:#181818;stroke-width:1;" width="10" x="286.252" y="112.4297"/></g><g><title>..controller..</title><rect fill="#FFFFFF" height="145.6641" style="stroke:#181818;stroke-width:1;" width="10" x="615.5322" y="141.5625"/></g><g><title>PedidoAfiliacao</title><rect fill="#FFFFFF" height="87.3984" style="stroke:#181818;stroke-width:1;" width="10" x="912.0537" y="170.6953"/></g><g><title>Candidato</title><rect fill="#FFFFFF" height="29.1328" style="stroke:#181818;stroke-width:1;" width="10" x="1130.0742" y="199.8281"/></g><g><title>Representante R.S</title><rect fill="#000000" fill-opacity="0.00000" height="223.9297" width="8" x="73.1079" y="81.2969"/><line style="stroke:#181818;stroke-width:0.5;stroke-dasharray:5,5;" x1="77" x2="77" y1="81.2969" y2="305.2266"/></g><g><title>..fronteira..</title><rect fill="#000000" fill-opacity="0.00000" height="223.9297" width="8" x="287.252" y="81.2969"/><line style="stroke:#181818;stroke-width:0.5;stroke-dasharray:5,5;" x1="290.4614" x2="290.4614" y1="81.2969" y2="305.2266"/></g><g><title>..controller..</title><rect fill="#000000" fill-opacity="0.00000" height="223.9297" width="8" x="616.5322" y="81.2969"/><line style="stroke:#181818;stroke-width:0.5;stroke-dasharray:5,5;" x1="620.1479" x2="620.1479" y1="81.2969" y2="305.2266"/></g><g><title>..controller..</title><rect fill="#000000" fill-opacity="0.00000" height="223.9297" width="8" x="767.2651" y="81.2969"/><line style="stroke:#181818;stroke-width:0.5;stroke-dasharray:5,5;" x1="770.9165" x2="770.9165" y1="81.2969" y2="305.2266"/></g><g><title>PedidoAfiliacao</title><rect fill="#000000" fill-opacity="0.00000" height="223.9297" width="8" x="913.0537" y="81.2969"/><line style="stroke:#181818;stroke-width:0.5;stroke-dasharray:5,5;" x1="916.6138" x2="916.6138" y1="81.2969" y2="305.2266"/></g><g><title>Candidatos</title><rect fill="#000000" fill-opacity="0.00000" height="223.9297" width="8" x="1033.9028" y="81.2969"/><line style="stroke:#181818;stroke-width:0.5;stroke-dasharray:5,5;" x1="1037.4937" x2="1037.4937" y1="81.2969" y2="305.2266"/></g><g><title>Candidato</title><rect fill="#000000" fill-opacity="0.00000" height="223.9297" width="8" x="1131.0742" y="81.2969"/><line style="stroke:#181818;stroke-width:0.5;stroke-dasharray:5,5;" x1="1134.312" x2="1134.312" y1="81.2969" y2="305.2266"/></g><g class="participant participant-head" data-participant="representante"><text fill="#000000" font-family="sans-serif" font-size="14" lengthAdjust="spacing" textLength="138.2158" x="5" y="77.9951">Representante R+S</text><ellipse cx="77.1079" cy="13.5" fill="#E2E2F0" rx="8" ry="8" style="stroke:#181818;stroke-width:0.5;"/><path d="M77.1079,21.5 L77.1079,48.5 M64.1079,29.5 L90.1079,29.5 M77.1079,48.5 L64.1079,63.5 M77.1079,48.5 L90.1079,63.5" fill="none" style="stroke:#181818;stroke-width:0.5;"/></g><g class="participant participant-tail" data-participant="representante"><text fill="#000000" font-family="sans-serif" font-size="14" lengthAdjust="spacing" textLength="138.2158" x="5" y="317.2217">Representante R+S</text><ellipse cx="77.1079" cy="329.0234" fill="#E2E2F0" rx="8" ry="8" style="stroke:#181818;stroke-width:0.5;"/><path d="M77.1079,337.0234 L77.1079,364.0234 M64.1079,345.0234 L90.1079,345.0234 M77.1079,364.0234 L64.1079,379.0234 M77.1079,364.0234 L90.1079,379.0234" fill="none" style="stroke:#181818;stroke-width:0.5;"/></g><g class="participant participant-head" data-participant="gui"><text fill="#000000" font-family="sans-serif" font-size="14" font-style="italic" lengthAdjust="spacing" textLength="77.5811" x="249.4614" y="61.6982">&#171;fronteira&#187;</text><text fill="#000000" font-family="sans-serif" font-size="14" lengthAdjust="spacing" textLength="25.2246" x="275.6396" y="77.9951">GUI</text><path d="M270.752,20.7031 L270.752,44.7031 M270.752,32.7031 L287.752,32.7031" fill="none" style="stroke:#181818;stroke-width:0.5;"/><ellipse cx="299.752" cy="32.7031" fill="#E2E2F0" rx="12" ry="12" style="stroke:#181818;stroke-width:0.5;"/></g><g class="participant participant-tail" data-participant="gui"><text fill="#000000" font-family="sans-serif" font-size="14" font-style="italic" lengthAdjust="spacing" textLength="77.5811" x="249.4614" y="317.2217">&#171;fronteira&#187;</text><text fill="#000000" font-family="sans-serif" font-size="14" lengthAdjust="spacing" textLength="25.2246" x="275.6396" y="333.5186">GUI</text><path d="M270.752,340.8203 L270.752,364.8203 M270.752,352.8203 L287.752,352.8203" fill="none" style="stroke:#181818;stroke-width:0.5;"/><ellipse cx="299.752" cy="352.8203" fill="#E2E2F0" rx="12" ry="12" style="stroke:#181818;stroke-width:0.5;"/></g><g class="participant participant-head" data-participant="afiliacaoController"><text fill="#000000" font-family="sans-serif" font-size="14" font-style="italic" lengthAdjust="spacing" textLength="84.2256" x="575.4194" y="61.6982">&#171;controller&#187;</text><text fill="#000000" font-family="sans-serif" font-size="14" lengthAdjust="spacing" textLength="128.7686" x="553.1479" y="77.9951">AfiliacaoController</text><ellipse cx="620.5322" cy="32.7031" fill="#E2E2F0" rx="12" ry="12" style="stroke:#181818;stroke-width:0.5;"/><polygon fill="#181818" points="616.5322,20.7031,622.5322,15.7031,620.5322,20.7031,622.5322,25.7031,616.5322,20.7031" style="stroke:#181818;stroke-width:1;"/></g><g class="participant participant-tail" data-participant="afiliacaoController"><text fill="#000000" font-family="sans-serif" font-size="14" font-style="italic" lengthAdjust="spacing" textLength="84.2256" x="575.4194" y="317.2217">&#171;controller&#187;</text><text fill="#000000" font-family="sans-serif" font-size="14" lengthAdjust="spacing" textLength="128.7686" x="553.1479" y="333.5186">AfiliacaoController</text><ellipse cx="620.5322" cy="352.8203" fill="#E2E2F0" rx="12" ry="12" style="stroke:#181818;stroke-width:0.5;"/><polygon fill="#181818" points="616.5322,340.8203,622.5322,335.8203,620.5322,340.8203,622.5322,345.8203,616.5322,340.8203" style="stroke:#181818;stroke-width:1;"/></g><g class="participant participant-head" data-participant="candidatoController"><text fill="#000000" font-family="sans-serif" font-size="14" font-style="italic" lengthAdjust="spacing" textLength="84.2256" x="726.1523" y="61.6982">&#171;controller&#187;</text><text fill="#000000" font-family="sans-serif" font-size="14" lengthAdjust="spacing" textLength="140.6973" x="697.9165" y="77.9951">CandidatoController</text><ellipse cx="771.2651" cy="32.7031" fill="#E2E2F0" rx="12" ry="12" style="stroke:#181818;stroke-width:0.5;"/><polygon fill="#181818" points="767.2651,20.7031,773.2651,15.7031,771.2651,20.7031,773.2651,25.7031,767.2651,20.7031" style="stroke:#181818;stroke-width:1;"/></g><g class="participant participant-tail" data-participant="candidatoController"><text fill="#000000" font-family="sans-serif" font-size="14" font-style="italic" lengthAdjust="spacing" textLength="84.2256" x="726.1523" y="317.2217">&#171;controller&#187;</text><text fill="#000000" font-family="sans-serif" font-size="14" lengthAdjust="spacing" textLength="140.6973" x="697.9165" y="333.5186">CandidatoController</text><ellipse cx="771.2651" cy="352.8203" fill="#E2E2F0" rx="12" ry="12" style="stroke:#181818;stroke-width:0.5;"/><polygon fill="#181818" points="767.2651,340.8203,773.2651,335.8203,771.2651,340.8203,773.2651,345.8203,767.2651,340.8203" style="stroke:#181818;stroke-width:1;"/></g><g class="participant participant-head" data-participant="pedidoAfiliacao"><rect fill="#E2E2F0" height="30.2969" style="stroke:#181818;stroke-width:0.5;" width="120.8799" x="858.6138" y="46"/><rect fill="#E2E2F0" height="30.2969" style="stroke:#181818;stroke-width:0.5;" width="120.8799" x="854.6138" y="50"/><text fill="#000000" font-family="sans-serif" font-size="14" lengthAdjust="spacing" textLength="106.8799" x="861.6138" y="69.9951">PedidoAfiliacao</text></g><g class="participant participant-tail" data-participant="pedidoAfiliacao"><rect fill="#E2E2F0" height="30.2969" style="stroke:#181818;stroke-width:0.5;" width="120.8799" x="858.6138" y="304.2266"/><rect fill="#E2E2F0" height="30.2969" style="stroke:#181818;stroke-width:0.5;" width="120.8799" x="854.6138" y="308.2266"/><text fill="#000000" font-family="sans-serif" font-size="14" lengthAdjust="spacing" textLength="106.8799" x="861.6138" y="328.2217">PedidoAfiliacao</text></g><g class="participant participant-head" data-participant="candidatos"><rect fill="#E2E2F0" height="30.2969" style="stroke:#181818;stroke-width:0.5;" width="92.8184" x="993.4937" y="46"/><rect fill="#E2E2F0" height="30.2969" style="stroke:#181818;stroke-width:0.5;" width="92.8184" x="989.4937" y="50"/><text fill="#000000" font-family="sans-serif" font-size="14" lengthAdjust="spacing" textLength="78.8184" x="996.4937" y="69.9951">Candidatos</text></g><g class="participant participant-tail" data-participant="candidatos"><rect fill="#E2E2F0" height="30.2969" style="stroke:#181818;stroke-width:0.5;" width="92.8184" x="993.4937" y="304.2266"/><rect fill="#E2E2F0" height="30.2969" style="stroke:#181818;stroke-width:0.5;" width="92.8184" x="989.4937" y="308.2266"/><text fill="#000000" font-family="sans-serif" font-size="14" lengthAdjust="spacing" textLength="78.8184" x="996.4937" y="328.2217">Candidatos</text></g><g class="participant participant-head" data-participant="candidato"><text fill="#000000" font-family="sans-serif" font-size="14" lengthAdjust="spacing" textLength="71.5244" x="1096.312" y="77.9951">Candidato</text><ellipse cx="1135.0742" cy="49" fill="#E2E2F0" rx="12" ry="12" style="stroke:#181818;stroke-width:0.5;"/><line style="stroke:#181818;stroke-width:0.5;" x1="1123.0742" x2="1147.0742" y1="63" y2="63"/></g><g class="participant participant-tail" data-participant="candidato"><text fill="#000000" font-family="sans-serif" font-size="14" lengthAdjust="spacing" textLength="71.5244" x="1096.312" y="317.2217">Candidato</text><ellipse cx="1135.0742" cy="336.5234" fill="#E2E2F0" rx="12" ry="12" style="stroke:#181818;stroke-width:0.5;"/><line style="stroke:#181818;stroke-width:0.5;" x1="1123.0742" x2="1147.0742" y1="350.5234" y2="350.5234"/></g><g><title>..fronteira..</title><rect fill="#FFFFFF" height="174.7969" style="stroke:#181818;stroke-width:1;" width="10" x="286.252" y="112.4297"/></g><g><title>..controller..</title><rect fill="#FFFFFF" height="145.6641" style="stroke:#181818;stroke-width:1;" width="10" x="615.5322" y="141.5625"/></g><g><title>PedidoAfiliacao</title><rect fill="#FFFFFF" height="87.3984" style="stroke:#181818;stroke-width:1;" width="10" x="912.0537" y="170.6953"/></g><g><title>Candidato</title><rect fill="#FFFFFF" height="29.1328" style="stroke:#181818;stroke-width:1;" width="10" x="1130.0742" y="199.8281"/></g><g class="message" data-participant-1="representante" data-participant-2="gui"><polygon fill="#181818" points="274.252,108.4297,284.252,112.4297,274.252,116.4297,278.252,112.4297" style="stroke:#181818;stroke-width:1;"/><line style="stroke:#181818;stroke-width:1;" x1="77.1079" x2="280.252" y1="112.4297" y2="112.4297"/><text fill="#000000" font-family="sans-serif" font-size="13" lengthAdjust="spacing" textLength="190.144" x="84.1079" y="107.3638">buscaCandidatosPendentes()</text></g><g class="message" data-participant-1="gui" data-participant-2="afiliacaoController"><polygon fill="#181818" points="603.5322,137.5625,613.5322,141.5625,603.5322,145.5625,607.5322,141.5625" style="stroke:#181818;stroke-width:1;"/><line style="stroke:#181818;stroke-width:1;" x1="296.252" x2="609.5322" y1="141.5625" y2="141.5625"/><text fill="#000000" font-family="sans-serif" font-size="13" lengthAdjust="spacing" textLength="190.144" x="303.252" y="136.4966">buscaCandidatosPendentes()</text></g><g class="message" data-participant-1="afiliacaoController" data-participant-2="pedidoAfiliacao"><polygon fill="#181818" points="900.0537,166.6953,910.0537,170.6953,900.0537,174.6953,904.0537,170.6953" style="stroke:#181818;stroke-width:1;"/><line style="stroke:#181818;stroke-width:1;" x1="625.5322" x2="906.0537" y1="170.6953" y2="170.6953"/><text fill="#000000" font-family="sans-serif" font-size="13" lengthAdjust="spacing" textLength="190.144" x="632.5322" y="165.6294">buscaCandidatosPendentes()</text></g><g class="message" data-participant-1="pedidoAfiliacao" data-participant-2="candidato"><polygon fill="#181818" points="1118.0742,195.8281,1128.0742,199.8281,1118.0742,203.8281,1122.0742,199.8281" style="stroke:#181818;stroke-width:1;"/><line style="stroke:#181818;stroke-width:1;" x1="922.0537" x2="1124.0742" y1="199.8281" y2="199.8281"/><text fill="#000000" font-family="sans-serif" font-size="13" lengthAdjust="spacing" textLength="97.9063" x="929.0537" y="194.7622">getCandidato()</text></g><g class="message" data-participant-1="candidato" data-participant-2="pedidoAfiliacao"><polygon fill="#181818" points="933.0537,224.9609,923.0537,228.9609,933.0537,232.9609,929.0537,228.9609" style="stroke:#181818;stroke-width:1;"/><line style="stroke:#181818;stroke-width:1;stroke-dasharray:2,2;" x1="927.0537" x2="1134.0742" y1="228.9609" y2="228.9609"/><text fill="#000000" font-family="sans-serif" font-size="13" lengthAdjust="spacing" textLength="23.7021" x="939.0537" y="223.895">null</text></g><g class="message" data-participant-1="pedidoAfiliacao" data-participant-2="afiliacaoController"><polygon fill="#181818" points="636.5322,254.0938,626.5322,258.0938,636.5322,262.0938,632.5322,258.0938" style="stroke:#181818;stroke-width:1;"/><line style="stroke:#181818;stroke-width:1;stroke-dasharray:2,2;" x1="630.5322" x2="916.0537" y1="258.0938" y2="258.0938"/><text fill="#000000" font-family="sans-serif" font-size="13" lengthAdjust="spacing" textLength="23.7021" x="642.5322" y="253.0278">null</text></g><g class="message" data-participant-1="afiliacaoController" data-participant-2="gui"><polygon fill="#181818" points="302.252,283.2266,292.252,287.2266,302.252,291.2266,298.252,287.2266" style="stroke:#181818;stroke-width:1;"/><line style="stroke:#181818;stroke-width:1;stroke-dasharray:2,2;" x1="296.252" x2="619.5322" y1="287.2266" y2="287.2266"/><text fill="#000000" font-family="sans-serif" font-size="13" lengthAdjust="spacing" textLength="295.2803" x="308.252" y="282.1606">"Sem candidatos pendentes para aprova&#231;&#227;o"</text></g><!--SRC=[XL91QWCn3Bpx5SAdbf8FXB1GSYYzXOG-GF4gmR2r5ziRo7jww4FoiMethMDxdLGdhpIQqOw4AbW7Sakz8qyce0a4svUT1FJWqgpOsy6qwCuWtpxUf_fnqB1Q7PpbidROD4BnqzaEvEj1TneLslKrqv6RMd2UPmeLFrAEDPfMjnXA3ZNFbnnCmYyLj3KUv8OOR-D84qcVv_A6gEnpGI_O31tE2I8728xCDLWqeqrBs0zUuOrtGwPb2FcdPu4iUqB6Cb08u1YDvSQAMG-9njP8Lcc-aa-eoXfOi33bNx5Ci7Gq8iOeYgDOD6q9HmfH9A7Ew6yUGn6pH8J2elPJPkYwVBgMAZAFvx-tdeVaTosgxkFlTEIEFfCRP9RVBK2F3W5xPqzu-RvyMIagejL3IEgiyGC0]--></g></svg>