<svg xmlns="http://www.w3.org/2000/svg" xmlns:xlink="http://www.w3.org/1999/xlink" contentStyleType="text/css" data-diagram-type="SEQUENCE" height="558px" preserveAspectRatio="none" style="width:1558px;height:558px;background:#FFFFFF;" version="1.1" viewBox="0 0 1558 558" width="1558px" zoomAndPan="magnify"><defs/><g><g><title>..fronteira..</title><rect fill="#FFFFFF" height="356.3281" style="stroke:#181818;stroke-width:1;" width="10" x="297.1128" y="112.4297"/></g><g><title>..controller..</title><rect fill="#FFFFFF" height="327.1953" style="stroke:#181818;stroke-width:1;" width="10" x="683.9219" y="141.5625"/></g><g><title>Voluntarios</title><rect fill="#FFFFFF" height="175.6641" style="stroke:#181818;stroke-width:1;" width="10" x="1328.3442" y="170.6953"/></g><g><title>Voluntario</title><rect fill="#FFFFFF" height="29.1328" style="stroke:#181818;stroke-width:1;" width="10" x="1513.5732" y="199.8281"/></g><g><title>Voluntario</title><rect fill="#FFFFFF" height="30" style="stroke:#181818;stroke-width:1;" width="10" x="1513.5732" y="287.2266"/></g><g><title>Representante R.S</title><rect fill="#000000" fill-opacity="0.00000" height="396.4609" width="8" x="73.1079" y="81.2969"/><line style="stroke:#181818;stroke-width:0.5;stroke-dasharray:5,5;" x1="77" x2="77" y1="81.2969" y2="477.7578"/></g><g><title>..fronteira..</title><rect fill="#000000" fill-opacity="0.00000" height="396.4609" width="8" x="298.1128" y="81.2969"/><line style="stroke:#181818;stroke-width:0.5;stroke-dasharray:5,5;" x1="301.3223" x2="301.3223" y1="81.2969" y2="477.7578"/></g><g><title>..controller..</title><rect fill="#000000" fill-opacity="0.00000" height="396.4609" width="8" x="423.252" y="81.2969"/><line style="stroke:#181818;stroke-width:0.5;stroke-dasharray:5,5;" x1="426.9033" x2="426.9033" y1="81.2969" y2="477.7578"/></g><g><title>..controller..</title><rect fill="#000000" fill-opacity="0.00000" height="396.4609" width="8" x="684.9219" y="81.2969"/><line style="stroke:#181818;stroke-width:0.5;stroke-dasharray:5,5;" x1="688.0898" x2="688.0898" y1="81.2969" y2="477.7578"/></g><g><title>Candidatos</title><rect fill="#000000" fill-opacity="0.00000" height="396.4609" width="8" x="1222.2593" y="81.2969"/><line style="stroke:#181818;stroke-width:0.5;stroke-dasharray:5,5;" x1="1225.8501" x2="1225.8501" y1="81.2969" y2="477.7578"/></g><g><title>Voluntarios</title><rect fill="#000000" fill-opacity="0.00000" height="396.4609" width="8" x="1329.3442" y="81.2969"/><line style="stroke:#181818;stroke-width:0.5;stroke-dasharray:5,5;" x1="1332.6685" x2="1332.6685" y1="81.2969" y2="477.7578"/></g><g><title>Candidato</title><rect fill="#000000" fill-opacity="0.00000" height="396.4609" width="8" x="1426.7822" y="81.2969"/><line style="stroke:#181818;stroke-width:0.5;stroke-dasharray:5,5;" x1="1430.02" x2="1430.02" y1="81.2969" y2="477.7578"/></g><g><title>Voluntario</title><rect fill="#000000" fill-opacity="0.00000" height="396.4609" width="8" x="1514.5732" y="81.2969"/><line style="stroke:#181818;stroke-width:0.5;stroke-dasharray:5,5;" x1="1518.5444" x2="1518.5444" y1="81.2969" y2="477.7578"/></g><g class="participant participant-head" data-participant="representante"><text fill="#000000" font-family="sans-serif" font-size="14" lengthAdjust="spacing" textLength="138.2158" x="5" y="77.9951">Representante R+S</text><ellipse cx="77.1079" cy="13.5" fill="#E2E2F0" rx="8" ry="8" style="stroke:#181818;stroke-width:0.5;"/><path d="M77.1079,21.5 L77.1079,48.5 M64.1079,29.5 L90.1079,29.5 M77.1079,48.5 L64.1079,63.5 M77.1079,48.5 L90.1079,63.5" fill="none" style="stroke:#181818;stroke-width:0.5;"/></g><g class="participant participant-tail" data-participant="representante"><text fill="#000000" font-family="sans-serif" font-size="14" lengthAdjust="spacing" textLength="138.2158" x="5" y="489.7529">Representante R+S</text><ellipse cx="77.1079" cy="501.5547" fill="#E2E2F0" rx="8" ry="8" style="stroke:#181818;stroke-width:0.5;"/><path d="M77.1079,509.5547 L77.1079,536.5547 M64.1079,517.5547 L90.1079,517.5547 M77.1079,536.5547 L64.1079,551.5547 M77.1079,536.5547 L90.1079,551.5547" fill="none" style="stroke:#181818;stroke-width:0.5;"/></g><g class="participant participant-head" data-participant="gui"><text fill="#000000" font-family="sans-serif" font-size="14" font-style="italic" lengthAdjust="spacing" textLength="77.5811" x="260.3223" y="61.6982">&#171;fronteira&#187;</text><text fill="#000000" font-family="sans-serif" font-size="14" lengthAdjust="spacing" textLength="25.2246" x="286.5005" y="77.9951">GUI</text><path d="M281.6128,20.7031 L281.6128,44.7031 M281.6128,32.7031 L298.6128,32.7031" fill="none" style="stroke:#181818;stroke-width:0.5;"/><ellipse cx="310.6128" cy="32.7031" fill="#E2E2F0" rx="12" ry="12" style="stroke:#181818;stroke-width:0.5;"/></g><g class="participant participant-tail" data-participant="gui"><text fill="#000000" font-family="sans-serif" font-size="14" font-style="italic" lengthAdjust="spacing" textLength="77.5811" x="260.3223" y="489.7529">&#171;fronteira&#187;</text><text fill="#000000" font-family="sans-serif" font-size="14" lengthAdjust="spacing" textLength="25.2246" x="286.5005" y="506.0498">GUI</text><path d="M281.6128,513.3516 L281.6128,537.3516 M281.6128,525.3516 L298.6128,525.3516" fill="none" style="stroke:#181818;stroke-width:0.5;"/><ellipse cx="310.6128" cy="525.3516" fill="#E2E2F0" rx="12" ry="12" style="stroke:#181818;stroke-width:0.5;"/></g><g class="participant participant-head" data-participant="candidatoController"><text fill="#000000" font-family="sans-serif" font-size="14" font-style="italic" lengthAdjust="spacing" textLength="84.2256" x="382.1392" y="61.6982">&#171;controller&#187;</text><text fill="#000000" font-family="sans-serif" font-size="14" lengthAdjust="spacing" textLength="140.6973" x="353.9033" y="77.9951">CandidatoController</text><ellipse cx="427.252" cy="32.7031" fill="#E2E2F0" rx="12" ry="12" style="stroke:#181818;stroke-width:0.5;"/><polygon fill="#181818" points="423.252,20.7031,429.252,15.7031,427.252,20.7031,429.252,25.7031,423.252,20.7031" style="stroke:#181818;stroke-width:1;"/></g><g class="participant participant-tail" data-participant="candidatoController"><text fill="#000000" font-family="sans-serif" font-size="14" font-style="italic" lengthAdjust="spacing" textLength="84.2256" x="382.1392" y="489.7529">&#171;controller&#187;</text><text fill="#000000" font-family="sans-serif" font-size="14" lengthAdjust="spacing" textLength="140.6973" x="353.9033" y="506.0498">CandidatoController</text><ellipse cx="427.252" cy="525.3516" fill="#E2E2F0" rx="12" ry="12" style="stroke:#181818;stroke-width:0.5;"/><polygon fill="#181818" points="423.252,513.3516,429.252,508.3516,427.252,513.3516,429.252,518.3516,423.252,513.3516" style="stroke:#181818;stroke-width:1;"/></g><g class="participant participant-head" data-participant="aprovacaoController"><text fill="#000000" font-family="sans-serif" font-size="14" font-style="italic" lengthAdjust="spacing" textLength="84.2256" x="643.8091" y="61.6982">&#171;controller&#187;</text><text fill="#000000" font-family="sans-serif" font-size="14" lengthAdjust="spacing" textLength="143.6641" x="614.0898" y="77.9951">AprovacaoController</text><ellipse cx="688.9219" cy="32.7031" fill="#E2E2F0" rx="12" ry="12" style="stroke:#181818;stroke-width:0.5;"/><polygon fill="#181818" points="684.9219,20.7031,690.9219,15.7031,688.9219,20.7031,690.9219,25.7031,684.9219,20.7031" style="stroke:#181818;stroke-width:1;"/></g><g class="participant participant-tail" data-participant="aprovacaoController"><text fill="#000000" font-family="sans-serif" font-size="14" font-style="italic" lengthAdjust="spacing" textLength="84.2256" x="643.8091" y="489.7529">&#171;controller&#187;</text><text fill="#000000" font-family="sans-serif" font-size="14" lengthAdjust="spacing" textLength="143.6641" x="614.0898" y="506.0498">AprovacaoController</text><ellipse cx="688.9219" cy="525.3516" fill="#E2E2F0" rx="12" ry="12" style="stroke:#181818;stroke-width:0.5;"/><polygon fill="#181818" points="684.9219,513.3516,690.9219,508.3516,688.9219,513.3516,690.9219,518.3516,684.9219,513.3516" style="stroke:#181818;stroke-width:1;"/></g><g class="participant participant-head" data-participant="candidatos"><rect fill="#E2E2F0" height="30.2969" style="stroke:#181818;stroke-width:0.5;" width="92.8184" x="1181.8501" y="46"/><rect fill="#E2E2F0" height="30.2969" style="stroke:#181818;stroke-width:0.5;" width="92.8184" x="1177.8501" y="50"/><text fill="#000000" font-family="sans-serif" font-size="14" lengthAdjust="spacing" textLength="78.8184" x="1184.8501" y="69.9951">Candidatos</text></g><g class="participant participant-tail" data-participant="candidatos"><rect fill="#E2E2F0" height="30.2969" style="stroke:#181818;stroke-width:0.5;" width="92.8184" x="1181.8501" y="476.7578"/><rect fill="#E2E2F0" height="30.2969" style="stroke:#181818;stroke-width:0.5;" width="92.8184" x="1177.8501" y="480.7578"/><text fill="#000000" font-family="sans-serif" font-size="14" lengthAdjust="spacing" textLength="78.8184" x="1184.8501" y="500.7529">Candidatos</text></g><g class="participant participant-head" data-participant="voluntarios"><rect fill="#E2E2F0" height="30.2969" style="stroke:#181818;stroke-width:0.5;" width="93.3516" x="1288.6685" y="46"/><rect fill="#E2E2F0" height="30.2969" style="stroke:#181818;stroke-width:0.5;" width="93.3516" x="1284.6685" y="50"/><text fill="#000000" font-family="sans-serif" font-size="14" lengthAdjust="spacing" textLength="79.3516" x="1291.6685" y="69.9951">Voluntarios</text></g><g class="participant participant-tail" data-participant="voluntarios"><rect fill="#E2E2F0" height="30.2969" style="stroke:#181818;stroke-width:0.5;" width="93.3516" x="1288.6685" y="476.7578"/><rect fill="#E2E2F0" height="30.2969" style="stroke:#181818;stroke-width:0.5;" width="93.3516" x="1284.6685" y="480.7578"/><text fill="#000000" font-family="sans-serif" font-size="14" lengthAdjust="spacing" textLength="79.3516" x="1291.6685" y="500.7529">Voluntarios</text></g><g class="participant participant-head" data-participant="candidato"><text fill="#000000" font-family="sans-serif" font-size="14" lengthAdjust="spacing" textLength="71.5244" x="1392.02" y="77.9951">Candidato</text><ellipse cx="1430.7822" cy="49" fill="#E2E2F0" rx="12" ry="12" style="stroke:#181818;stroke-width:0.5;"/><line style="stroke:#181818;stroke-width:0.5;" x1="1418.7822" x2="1442.7822" y1="63" y2="63"/></g><g class="participant participant-tail" data-participant="candidato"><text fill="#000000" font-family="sans-serif" font-size="14" lengthAdjust="spacing" textLength="71.5244" x="1392.02" y="489.7529">Candidato</text><ellipse cx="1430.7822" cy="509.0547" fill="#E2E2F0" rx="12" ry="12" style="stroke:#181818;stroke-width:0.5;"/><line style="stroke:#181818;stroke-width:0.5;" x1="1418.7822" x2="1442.7822" y1="523.0547" y2="523.0547"/></g><g class="participant participant-head" data-participant="voluntario"><text fill="#000000" font-family="sans-serif" font-size="14" lengthAdjust="spacing" textLength="72.0576" x="1479.5444" y="77.9951">Voluntario</text><ellipse cx="1518.5732" cy="49" fill="#E2E2F0" rx="12" ry="12" style="stroke:#181818;stroke-width:0.5;"/><line style="stroke:#181818;stroke-width:0.5;" x1="1506.5732" x2="1530.5732" y1="63" y2="63"/></g><g class="participant participant-tail" data-participant="voluntario"><text fill="#000000" font-family="sans-serif" font-size="14" lengthAdjust="spacing" textLength="72.0576" x="1479.5444" y="489.7529">Voluntario</text><ellipse cx="1518.5732" cy="509.0547" fill="#E2E2F0" rx="12" ry="12" style="stroke:#181818;stroke-width:0.5;"/><line style="stroke:#181818;stroke-width:0.5;" x1="1506.5732" x2="1530.5732" y1="523.0547" y2="523.0547"/></g><g><title>..fronteira..</title><rect fill="#FFFFFF" height="356.3281" style="stroke:#181818;stroke-width:1;" width="10" x="297.1128" y="112.4297"/></g><g><title>..controller..</title><rect fill="#FFFFFF" height="327.1953" style="stroke:#181818;stroke-width:1;" width="10" x="683.9219" y="141.5625"/></g><g><title>Voluntarios</title><rect fill="#FFFFFF" height="175.6641" style="stroke:#181818;stroke-width:1;" width="10" x="1328.3442" y="170.6953"/></g><g><title>Voluntario</title><rect fill="#FFFFFF" height="29.1328" style="stroke:#181818;stroke-width:1;" width="10" x="1513.5732" y="199.8281"/></g><g><title>Voluntario</title><rect fill="#FFFFFF" height="30" style="stroke:#181818;stroke-width:1;" width="10" x="1513.5732" y="287.2266"/></g><g class="message" data-participant-1="representante" data-participant-2="gui"><polygon fill="#181818" points="285.1128,108.4297,295.1128,112.4297,285.1128,116.4297,289.1128,112.4297" style="stroke:#181818;stroke-width:1;"/><line style="stroke:#181818;stroke-width:1;" x1="77.1079" x2="291.1128" y1="112.4297" y2="112.4297"/><text fill="#000000" font-family="sans-serif" font-size="13" lengthAdjust="spacing" textLength="201.0049" x="84.1079" y="107.3638">aprovaVoluntario(idVoluntario)</text></g><g class="message" data-participant-1="gui" data-participant-2="aprovacaoController"><polygon fill="#181818" points="671.9219,137.5625,681.9219,141.5625,671.9219,145.5625,675.9219,141.5625" style="stroke:#181818;stroke-width:1;"/><line style="stroke:#181818;stroke-width:1;" x1="307.1128" x2="677.9219" y1="141.5625" y2="141.5625"/><text fill="#000000" font-family="sans-serif" font-size="13" lengthAdjust="spacing" textLength="201.0049" x="314.1128" y="136.4966">aprovaVoluntario(idVoluntario)</text></g><g class="message" data-participant-1="aprovacaoController" data-participant-2="voluntarios"><polygon fill="#181818" points="1316.3442,166.6953,1326.3442,170.6953,1316.3442,174.6953,1320.3442,170.6953" style="stroke:#181818;stroke-width:1;"/><line style="stroke:#181818;stroke-width:1;" x1="693.9219" x2="1322.3442" y1="170.6953" y2="170.6953"/><text fill="#000000" font-family="sans-serif" font-size="13" lengthAdjust="spacing" textLength="206.0767" x="700.9219" y="165.6294">procuraVoluntario(idVoluntario)</text></g><g class="message" data-participant-1="voluntarios" data-participant-2="voluntario"><polygon fill="#181818" points="1501.5732,195.8281,1511.5732,199.8281,1501.5732,203.8281,1505.5732,199.8281" style="stroke:#181818;stroke-width:1;"/><line style="stroke:#181818;stroke-width:1;" x1="1338.3442" x2="1507.5732" y1="199.8281" y2="199.8281"/><text fill="#000000" font-family="sans-serif" font-size="13" lengthAdjust="spacing" textLength="110.2651" x="1345.3442" y="194.7622">get(idVoluntario)</text></g><g class="message" data-participant-1="voluntario" data-participant-2="voluntarios"><polygon fill="#181818" points="1349.3442,224.9609,1339.3442,228.9609,1349.3442,232.9609,1345.3442,228.9609" style="stroke:#181818;stroke-width:1;"/><line style="stroke:#181818;stroke-width:1;stroke-dasharray:2,2;" x1="1343.3442" x2="1517.5732" y1="228.9609" y2="228.9609"/><text fill="#000000" font-family="sans-serif" font-size="13" lengthAdjust="spacing" textLength="65.7109" x="1355.3442" y="223.895">voluntario</text></g><g class="message" data-participant-1="voluntarios" data-participant-2="aprovacaoController"><polygon fill="#181818" points="704.9219,254.0938,694.9219,258.0938,704.9219,262.0938,700.9219,258.0938" style="stroke:#181818;stroke-width:1;"/><line style="stroke:#181818;stroke-width:1;stroke-dasharray:2,2;" x1="698.9219" x2="1327.3442" y1="258.0938" y2="258.0938"/><text fill="#000000" font-family="sans-serif" font-size="13" lengthAdjust="spacing" textLength="65.7109" x="710.9219" y="253.0278">voluntario</text></g><g class="message" data-participant-1="aprovacaoController" data-participant-2="voluntario"><polygon fill="#181818" points="1501.5732,283.2266,1511.5732,287.2266,1501.5732,291.2266,1505.5732,287.2266" style="stroke:#181818;stroke-width:1;"/><line style="stroke:#181818;stroke-width:1;" x1="693.9219" x2="1507.5732" y1="287.2266" y2="287.2266"/><text fill="#000000" font-family="sans-serif" font-size="13" lengthAdjust="spacing" textLength="248.3203" x="700.9219" y="282.1606">geraLoginSenhaVoluntario(voluntario)</text></g><g class="message" data-participant-1="aprovacaoController" data-participant-2="voluntarios"><polygon fill="#181818" points="1321.3442,342.3594,1331.3442,346.3594,1321.3442,350.3594,1325.3442,346.3594" style="stroke:#181818;stroke-width:1;"/><line style="stroke:#181818;stroke-width:1;" x1="693.9219" x2="1327.3442" y1="346.3594" y2="346.3594"/><text fill="#000000" font-family="sans-serif" font-size="13" lengthAdjust="spacing" textLength="176.7759" x="700.9219" y="341.2935">salvaVoluntario(voluntario)</text></g><g class="message" data-participant-1="aprovacaoController" data-participant-2="aprovacaoController"><line style="stroke:#181818;stroke-width:1;" x1="693.9219" x2="735.9219" y1="375.4922" y2="375.4922"/><line style="stroke:#181818;stroke-width:1;" x1="735.9219" x2="735.9219" y1="375.4922" y2="388.4922"/><line style="stroke:#181818;stroke-width:1;" x1="694.9219" x2="735.9219" y1="388.4922" y2="388.4922"/><polygon fill="#181818" points="704.9219,384.4922,694.9219,388.4922,704.9219,392.4922,700.9219,388.4922" style="stroke:#181818;stroke-width:1;"/><text fill="#000000" font-family="sans-serif" font-size="13" lengthAdjust="spacing" textLength="503.3374" x="700.9219" y="370.4263">enviaEmailLoginInstrucao(voluntarioEmail, voluntarioLogin, voluntarioSenha)</text></g><g class="message" data-participant-1="aprovacaoController" data-participant-2="aprovacaoController"><line style="stroke:#181818;stroke-width:1;" x1="693.9219" x2="735.9219" y1="417.625" y2="417.625"/><line style="stroke:#181818;stroke-width:1;" x1="735.9219" x2="735.9219" y1="417.625" y2="430.625"/><line style="stroke:#181818;stroke-width:1;" x1="694.9219" x2="735.9219" y1="430.625" y2="430.625"/><polygon fill="#181818" points="704.9219,426.625,694.9219,430.625,704.9219,434.625,700.9219,430.625" style="stroke:#181818;stroke-width:1;"/><text fill="#000000" font-family="sans-serif" font-size="13" lengthAdjust="spacing" textLength="404.0791" x="700.9219" y="412.5591">enviaEmailResultadoAfiliacaoRecomendacao(voluntarioEmail)</text></g><g class="message" data-participant-1="aprovacaoController" data-participant-2="gui"><polygon fill="#181818" points="318.1128,455.7578,308.1128,459.7578,318.1128,463.7578,314.1128,459.7578" style="stroke:#181818;stroke-width:1;"/><line style="stroke:#181818;stroke-width:1;stroke-dasharray:2,2;" x1="312.1128" x2="682.9219" y1="459.7578" y2="459.7578"/><text fill="#000000" font-family="sans-serif" font-size="13" lengthAdjust="spacing" textLength="352.8091" x="324.1128" y="454.6919">"E-mails foram enviados sem recomenda&#231;&#227;o de ongs"</text></g><!--SRC=[fLH1Ri8m4Bpx5QkSYbe-W10IGgX2wYcelMyTarfAR6GxaNXF3tq87-iwqCI6XA3YqtftTdPs4XcvqmQILEoDi48vL4v0-hnD02sOCCi-TQKoD0T8NjytJJsl9CpdEwEfB0qk5enJQ7G1oGfL9ZDqUdNA5C8qBVmwJnIylOGSoxtHDNAyvC3h_1K51Tn9hMmWnSOAR0pxq4L5cnfvnjNTdP45qXq2gfYfhNSS5nICHLx2TE7DcvrNwTgUPDPT9Wn9N8s49p03EjvnwkrnO9JBjxTyFGGDm9ysw07vuO4nCo08hypjgT7aq5O8Jf2FXymW5sw0TO0vgiVaCBtSOA0j4sF4aUAXZzBJ-m-ZlGS6ttGkrLQehz3k-ZwpsNrxFIAIlBHOr6FYRYknR6nWhyr2rHBN9SgYCMcZh3CLOG85JVKb6DKWmqHZxUJ1-QcmLU4mqykTBAJ7fOBhKj3JsQDdChBktpkHhASURc6d3PQdSHdzTrQKz4gV-Oy_nszDje9MkKr-0G00]--></g></svg>