<svg xmlns="http://www.w3.org/2000/svg" xmlns:xlink="http://www.w3.org/1999/xlink" contentStyleType="text/css" data-diagram-type="SEQUENCE" height="761px" preserveAspectRatio="none" style="width:1960px;height:761px;background:#FFFFFF;" version="1.1" viewBox="0 0 1960 761" width="1960px" zoomAndPan="magnify"><defs/><g><g><title>..fronteira..</title><rect fill="#FFFFFF" height="550.3906" style="stroke:#181818;stroke-width:1;" width="10" x="402.0078" y="112.4297"/></g><g><title>..controller..</title><rect fill="#FFFFFF" height="521.2578" style="stroke:#181818;stroke-width:1;" width="10" x="736.9077" y="141.5625"/></g><g><title>Voluntarios</title><rect fill="#FFFFFF" height="320.4609" style="stroke:#181818;stroke-width:1;" width="10" x="1386.9668" y="228.9609"/></g><g><title>Recomendacoes</title><rect fill="#FFFFFF" height="29.1328" style="stroke:#181818;stroke-width:1;" width="10" x="1512.3242" y="170.6953"/></g><g><title>Voluntario</title><rect fill="#FFFFFF" height="262.1953" style="stroke:#181818;stroke-width:1;" width="10" x="1825.3784" y="258.0938"/></g><g><title>Aprovacao</title><rect fill="#FFFFFF" height="145.6641" style="stroke:#181818;stroke-width:1;" width="10" x="1914.6528" y="374.625"/></g><g><title>Representante R.S</title><rect fill="#000000" fill-opacity="0.00000" height="599.5234" width="8" x="73.1079" y="81.2969"/><line style="stroke:#181818;stroke-width:0.5;stroke-dasharray:5,5;" x1="77" x2="77" y1="81.2969" y2="680.8203"/></g><g><title>..fronteira..</title><rect fill="#000000" fill-opacity="0.00000" height="599.5234" width="8" x="403.0078" y="81.2969"/><line style="stroke:#181818;stroke-width:0.5;stroke-dasharray:5,5;" x1="406.2173" x2="406.2173" y1="81.2969" y2="680.8203"/></g><g><title>..controller..</title><rect fill="#000000" fill-opacity="0.00000" height="599.5234" width="8" x="737.9077" y="81.2969"/><line style="stroke:#181818;stroke-width:0.5;stroke-dasharray:5,5;" x1="741.0757" x2="741.0757" y1="81.2969" y2="680.8203"/></g><g><title>Candidatos</title><rect fill="#000000" fill-opacity="0.00000" height="599.5234" width="8" x="1280.8818" y="81.2969"/><line style="stroke:#181818;stroke-width:0.5;stroke-dasharray:5,5;" x1="1284.4727" x2="1284.4727" y1="81.2969" y2="680.8203"/></g><g><title>Voluntarios</title><rect fill="#000000" fill-opacity="0.00000" height="599.5234" width="8" x="1387.9668" y="81.2969"/><line style="stroke:#181818;stroke-width:0.5;stroke-dasharray:5,5;" x1="1391.291" x2="1391.291" y1="81.2969" y2="680.8203"/></g><g><title>Recomendacoes</title><rect fill="#000000" fill-opacity="0.00000" height="599.5234" width="8" x="1513.3242" y="81.2969"/><line style="stroke:#181818;stroke-width:0.5;stroke-dasharray:5,5;" x1="1516.6426" x2="1516.6426" y1="81.2969" y2="680.8203"/></g><g><title>Aprova..es</title><rect fill="#000000" fill-opacity="0.00000" height="599.5234" width="8" x="1639.9155" y="81.2969"/><line style="stroke:#181818;stroke-width:0.5;stroke-dasharray:5,5;" x1="1643.0059" x2="1643.0059" y1="81.2969" y2="680.8203"/></g><g><title>Candidato</title><rect fill="#000000" fill-opacity="0.00000" height="599.5234" width="8" x="1738.5874" y="81.2969"/><line style="stroke:#181818;stroke-width:0.5;stroke-dasharray:5,5;" x1="1741.8252" x2="1741.8252" y1="81.2969" y2="680.8203"/></g><g><title>Voluntario</title><rect fill="#000000" fill-opacity="0.00000" height="599.5234" width="8" x="1826.3784" y="81.2969"/><line style="stroke:#181818;stroke-width:0.5;stroke-dasharray:5,5;" x1="1830.3496" x2="1830.3496" y1="81.2969" y2="680.8203"/></g><g><title>Aprovacao</title><rect fill="#000000" fill-opacity="0.00000" height="599.5234" width="8" x="1915.6528" y="81.2969"/><line style="stroke:#181818;stroke-width:0.5;stroke-dasharray:5,5;" x1="1919.4072" x2="1919.4072" y1="81.2969" y2="680.8203"/></g><g class="participant participant-head" data-participant="representante"><text fill="#000000" font-family="sans-serif" font-size="14" lengthAdjust="spacing" textLength="138.2158" x="5" y="77.9951">Representante R+S</text><ellipse cx="77.1079" cy="13.5" fill="#E2E2F0" rx="8" ry="8" style="stroke:#181818;stroke-width:0.5;"/><path d="M77.1079,21.5 L77.1079,48.5 M64.1079,29.5 L90.1079,29.5 M77.1079,48.5 L64.1079,63.5 M77.1079,48.5 L90.1079,63.5" fill="none" style="stroke:#181818;stroke-width:0.5;"/></g><g class="participant participant-tail" data-participant="representante"><text fill="#000000" font-family="sans-serif" font-size="14" lengthAdjust="spacing" textLength="138.2158" x="5" y="692.8154">Representante R+S</text><ellipse cx="77.1079" cy="704.6172" fill="#E2E2F0" rx="8" ry="8" style="stroke:#181818;stroke-width:0.5;"/><path d="M77.1079,712.6172 L77.1079,739.6172 M64.1079,720.6172 L90.1079,720.6172 M77.1079,739.6172 L64.1079,754.6172 M77.1079,739.6172 L90.1079,754.6172" fill="none" style="stroke:#181818;stroke-width:0.5;"/></g><g class="participant participant-head" data-participant="gui"><text fill="#000000" font-family="sans-serif" font-size="14" font-style="italic" lengthAdjust="spacing" textLength="77.5811" x="365.2173" y="61.6982">&#171;fronteira&#187;</text><text fill="#000000" font-family="sans-serif" font-size="14" lengthAdjust="spacing" textLength="25.2246" x="391.3955" y="77.9951">GUI</text><path d="M386.5078,20.7031 L386.5078,44.7031 M386.5078,32.7031 L403.5078,32.7031" fill="none" style="stroke:#181818;stroke-width:0.5;"/><ellipse cx="415.5078" cy="32.7031" fill="#E2E2F0" rx="12" ry="12" style="stroke:#181818;stroke-width:0.5;"/></g><g class="participant participant-tail" data-participant="gui"><text fill="#000000" font-family="sans-serif" font-size="14" font-style="italic" lengthAdjust="spacing" textLength="77.5811" x="365.2173" y="692.8154">&#171;fronteira&#187;</text><text fill="#000000" font-family="sans-serif" font-size="14" lengthAdjust="spacing" textLength="25.2246" x="391.3955" y="709.1123">GUI</text><path d="M386.5078,716.4141 L386.5078,740.4141 M386.5078,728.4141 L403.5078,728.4141" fill="none" style="stroke:#181818;stroke-width:0.5;"/><ellipse cx="415.5078" cy="728.4141" fill="#E2E2F0" rx="12" ry="12" style="stroke:#181818;stroke-width:0.5;"/></g><g class="participant participant-head" data-participant="aprovacaoController"><text fill="#000000" font-family="sans-serif" font-size="14" font-style="italic" lengthAdjust="spacing" textLength="84.2256" x="696.7949" y="61.6982">&#171;controller&#187;</text><text fill="#000000" font-family="sans-serif" font-size="14" lengthAdjust="spacing" textLength="143.6641" x="667.0757" y="77.9951">AprovacaoController</text><ellipse cx="741.9077" cy="32.7031" fill="#E2E2F0" rx="12" ry="12" style="stroke:#181818;stroke-width:0.5;"/><polygon fill="#181818" points="737.9077,20.7031,743.9077,15.7031,741.9077,20.7031,743.9077,25.7031,737.9077,20.7031" style="stroke:#181818;stroke-width:1;"/></g><g class="participant participant-tail" data-participant="aprovacaoController"><text fill="#000000" font-family="sans-serif" font-size="14" font-style="italic" lengthAdjust="spacing" textLength="84.2256" x="696.7949" y="692.8154">&#171;controller&#187;</text><text fill="#000000" font-family="sans-serif" font-size="14" lengthAdjust="spacing" textLength="143.6641" x="667.0757" y="709.1123">AprovacaoController</text><ellipse cx="741.9077" cy="728.4141" fill="#E2E2F0" rx="12" ry="12" style="stroke:#181818;stroke-width:0.5;"/><polygon fill="#181818" points="737.9077,716.4141,743.9077,711.4141,741.9077,716.4141,743.9077,721.4141,737.9077,716.4141" style="stroke:#181818;stroke-width:1;"/></g><g class="participant participant-head" data-participant="candidatos"><rect fill="#E2E2F0" height="30.2969" style="stroke:#181818;stroke-width:0.5;" width="92.8184" x="1240.4727" y="46"/><rect fill="#E2E2F0" height="30.2969" style="stroke:#181818;stroke-width:0.5;" width="92.8184" x="1236.4727" y="50"/><text fill="#000000" font-family="sans-serif" font-size="14" lengthAdjust="spacing" textLength="78.8184" x="1243.4727" y="69.9951">Candidatos</text></g><g class="participant participant-tail" data-participant="candidatos"><rect fill="#E2E2F0" height="30.2969" style="stroke:#181818;stroke-width:0.5;" width="92.8184" x="1240.4727" y="679.8203"/><rect fill="#E2E2F0" height="30.2969" style="stroke:#181818;stroke-width:0.5;" width="92.8184" x="1236.4727" y="683.8203"/><text fill="#000000" font-family="sans-serif" font-size="14" lengthAdjust="spacing" textLength="78.8184" x="1243.4727" y="703.8154">Candidatos</text></g><g class="participant participant-head" data-participant="voluntarios"><rect fill="#E2E2F0" height="30.2969" style="stroke:#181818;stroke-width:0.5;" width="93.3516" x="1347.291" y="46"/><rect fill="#E2E2F0" height="30.2969" style="stroke:#181818;stroke-width:0.5;" width="93.3516" x="1343.291" y="50"/><text fill="#000000" font-family="sans-serif" font-size="14" lengthAdjust="spacing" textLength="79.3516" x="1350.291" y="69.9951">Voluntarios</text></g><g class="participant participant-tail" data-participant="voluntarios"><rect fill="#E2E2F0" height="30.2969" style="stroke:#181818;stroke-width:0.5;" width="93.3516" x="1347.291" y="679.8203"/><rect fill="#E2E2F0" height="30.2969" style="stroke:#181818;stroke-width:0.5;" width="93.3516" x="1343.291" y="683.8203"/><text fill="#000000" font-family="sans-serif" font-size="14" lengthAdjust="spacing" textLength="79.3516" x="1350.291" y="703.8154">Voluntarios</text></g><g class="participant participant-head" data-participant="recomendacoes"><rect fill="#E2E2F0" height="30.2969" style="stroke:#181818;stroke-width:0.5;" width="129.3633" x="1454.6426" y="46"/><rect fill="#E2E2F0" height="30.2969" style="stroke:#181818;stroke-width:0.5;" width="129.3633" x="1450.6426" y="50"/><text fill="#000000" font-family="sans-serif" font-size="14" lengthAdjust="spacing" textLength="115.3633" x="1457.6426" y="69.9951">Recomendacoes</text></g><g class="participant participant-tail" data-participant="recomendacoes"><rect fill="#E2E2F0" height="30.2969" style="stroke:#181818;stroke-width:0.5;" width="129.3633" x="1454.6426" y="679.8203"/><rect fill="#E2E2F0" height="30.2969" style="stroke:#181818;stroke-width:0.5;" width="129.3633" x="1450.6426" y="683.8203"/><text fill="#000000" font-family="sans-serif" font-size="14" lengthAdjust="spacing" textLength="115.3633" x="1457.6426" y="703.8154">Recomendacoes</text></g><g class="participant participant-head" data-participant="aprovacoes"><rect fill="#E2E2F0" height="30.2969" style="stroke:#181818;stroke-width:0.5;" width="95.8193" x="1598.0059" y="46"/><rect fill="#E2E2F0" height="30.2969" style="stroke:#181818;stroke-width:0.5;" width="95.8193" x="1594.0059" y="50"/><text fill="#000000" font-family="sans-serif" font-size="14" lengthAdjust="spacing" textLength="81.8193" x="1601.0059" y="69.9951">Aprova&#231;&#245;es</text></g><g class="participant participant-tail" data-participant="aprovacoes"><rect fill="#E2E2F0" height="30.2969" style="stroke:#181818;stroke-width:0.5;" width="95.8193" x="1598.0059" y="679.8203"/><rect fill="#E2E2F0" height="30.2969" style="stroke:#181818;stroke-width:0.5;" width="95.8193" x="1594.0059" y="683.8203"/><text fill="#000000" font-family="sans-serif" font-size="14" lengthAdjust="spacing" textLength="81.8193" x="1601.0059" y="703.8154">Aprova&#231;&#245;es</text></g><g class="participant participant-head" data-participant="candidato"><text fill="#000000" font-family="sans-serif" font-size="14" lengthAdjust="spacing" textLength="71.5244" x="1703.8252" y="77.9951">Candidato</text><ellipse cx="1742.5874" cy="49" fill="#E2E2F0" rx="12" ry="12" style="stroke:#181818;stroke-width:0.5;"/><line style="stroke:#181818;stroke-width:0.5;" x1="1730.5874" x2="1754.5874" y1="63" y2="63"/></g><g class="participant participant-tail" data-participant="candidato"><text fill="#000000" font-family="sans-serif" font-size="14" lengthAdjust="spacing" textLength="71.5244" x="1703.8252" y="692.8154">Candidato</text><ellipse cx="1742.5874" cy="712.1172" fill="#E2E2F0" rx="12" ry="12" style="stroke:#181818;stroke-width:0.5;"/><line style="stroke:#181818;stroke-width:0.5;" x1="1730.5874" x2="1754.5874" y1="726.1172" y2="726.1172"/></g><g class="participant participant-head" data-participant="voluntario"><text fill="#000000" font-family="sans-serif" font-size="14" lengthAdjust="spacing" textLength="72.0576" x="1791.3496" y="77.9951">Voluntario</text><ellipse cx="1830.3784" cy="49" fill="#E2E2F0" rx="12" ry="12" style="stroke:#181818;stroke-width:0.5;"/><line style="stroke:#181818;stroke-width:0.5;" x1="1818.3784" x2="1842.3784" y1="63" y2="63"/></g><g class="participant participant-tail" data-participant="voluntario"><text fill="#000000" font-family="sans-serif" font-size="14" lengthAdjust="spacing" textLength="72.0576" x="1791.3496" y="692.8154">Voluntario</text><ellipse cx="1830.3784" cy="712.1172" fill="#E2E2F0" rx="12" ry="12" style="stroke:#181818;stroke-width:0.5;"/><line style="stroke:#181818;stroke-width:0.5;" x1="1818.3784" x2="1842.3784" y1="726.1172" y2="726.1172"/></g><g class="participant participant-head" data-participant="aprovacao"><text fill="#000000" font-family="sans-serif" font-size="14" lengthAdjust="spacing" textLength="74.4912" x="1879.4072" y="77.9951">Aprovacao</text><ellipse cx="1919.6528" cy="49" fill="#E2E2F0" rx="12" ry="12" style="stroke:#181818;stroke-width:0.5;"/><line style="stroke:#181818;stroke-width:0.5;" x1="1907.6528" x2="1931.6528" y1="63" y2="63"/></g><g class="participant participant-tail" data-participant="aprovacao"><text fill="#000000" font-family="sans-serif" font-size="14" lengthAdjust="spacing" textLength="74.4912" x="1879.4072" y="692.8154">Aprovacao</text><ellipse cx="1919.6528" cy="712.1172" fill="#E2E2F0" rx="12" ry="12" style="stroke:#181818;stroke-width:0.5;"/><line style="stroke:#181818;stroke-width:0.5;" x1="1907.6528" x2="1931.6528" y1="726.1172" y2="726.1172"/></g><g><title>..fronteira..</title><rect fill="#FFFFFF" height="550.3906" style="stroke:#181818;stroke-width:1;" width="10" x="402.0078" y="112.4297"/></g><g><title>..controller..</title><rect fill="#FFFFFF" height="521.2578" style="stroke:#181818;stroke-width:1;" width="10" x="736.9077" y="141.5625"/></g><g><title>Voluntarios</title><rect fill="#FFFFFF" height="320.4609" style="stroke:#181818;stroke-width:1;" width="10" x="1386.9668" y="228.9609"/></g><g><title>Recomendacoes</title><rect fill="#FFFFFF" height="29.1328" style="stroke:#181818;stroke-width:1;" width="10" x="1512.3242" y="170.6953"/></g><g><title>Voluntario</title><rect fill="#FFFFFF" height="262.1953" style="stroke:#181818;stroke-width:1;" width="10" x="1825.3784" y="258.0938"/></g><g><title>Aprovacao</title><rect fill="#FFFFFF" height="145.6641" style="stroke:#181818;stroke-width:1;" width="10" x="1914.6528" y="374.625"/></g><g class="message" data-participant-1="representante" data-participant-2="gui"><polygon fill="#181818" points="390.0078,108.4297,400.0078,112.4297,390.0078,116.4297,394.0078,112.4297" style="stroke:#181818;stroke-width:1;"/><line style="stroke:#181818;stroke-width:1;" x1="77.1079" x2="396.0078" y1="112.4297" y2="112.4297"/><text fill="#000000" font-family="sans-serif" font-size="13" lengthAdjust="spacing" textLength="305.8999" x="84.1079" y="107.3638">aprovaVoluntario(idVoluntario, recomendacao)</text></g><g class="message" data-participant-1="gui" data-participant-2="aprovacaoController"><polygon fill="#181818" points="724.9077,137.5625,734.9077,141.5625,724.9077,145.5625,728.9077,141.5625" style="stroke:#181818;stroke-width:1;"/><line style="stroke:#181818;stroke-width:1;" x1="412.0078" x2="730.9077" y1="141.5625" y2="141.5625"/><text fill="#000000" font-family="sans-serif" font-size="13" lengthAdjust="spacing" textLength="305.8999" x="419.0078" y="136.4966">aprovaVoluntario(idVoluntario, recomendacao)</text></g><g class="message" data-participant-1="aprovacaoController" data-participant-2="recomendacoes"><polygon fill="#181818" points="1500.3242,166.6953,1510.3242,170.6953,1500.3242,174.6953,1504.3242,170.6953" style="stroke:#181818;stroke-width:1;"/><line style="stroke:#181818;stroke-width:1;" x1="746.9077" x2="1506.3242" y1="170.6953" y2="170.6953"/><text fill="#000000" font-family="sans-serif" font-size="13" lengthAdjust="spacing" textLength="241.103" x="753.9077" y="165.6294">salvaRecomendacao(recomendacao)</text></g><g class="message" data-participant-1="recomendacoes" data-participant-2="aprovacaoController"><polygon fill="#181818" points="757.9077,195.8281,747.9077,199.8281,757.9077,203.8281,753.9077,199.8281" style="stroke:#181818;stroke-width:1;"/><line style="stroke:#181818;stroke-width:1;stroke-dasharray:2,2;" x1="751.9077" x2="1516.3242" y1="199.8281" y2="199.8281"/><text fill="#000000" font-family="sans-serif" font-size="13" lengthAdjust="spacing" textLength="96.6304" x="763.9077" y="194.7622">recomendacao</text></g><g class="message" data-participant-1="aprovacaoController" data-participant-2="voluntarios"><polygon fill="#181818" points="1374.9668,224.9609,1384.9668,228.9609,1374.9668,232.9609,1378.9668,228.9609" style="stroke:#181818;stroke-width:1;"/><line style="stroke:#181818;stroke-width:1;" x1="746.9077" x2="1380.9668" y1="228.9609" y2="228.9609"/><text fill="#000000" font-family="sans-serif" font-size="13" lengthAdjust="spacing" textLength="206.0767" x="753.9077" y="223.895">procuraVoluntario(idVoluntario)</text></g><g class="message" data-participant-1="voluntarios" data-participant-2="voluntario"><polygon fill="#181818" points="1813.3784,254.0938,1823.3784,258.0938,1813.3784,262.0938,1817.3784,258.0938" style="stroke:#181818;stroke-width:1;"/><line style="stroke:#181818;stroke-width:1;" x1="1396.9668" x2="1819.3784" y1="258.0938" y2="258.0938"/><text fill="#000000" font-family="sans-serif" font-size="13" lengthAdjust="spacing" textLength="110.2651" x="1403.9668" y="253.0278">get(idVoluntario)</text></g><g class="message" data-participant-1="voluntario" data-participant-2="voluntarios"><polygon fill="#181818" points="1407.9668,283.2266,1397.9668,287.2266,1407.9668,291.2266,1403.9668,287.2266" style="stroke:#181818;stroke-width:1;"/><line style="stroke:#181818;stroke-width:1;stroke-dasharray:2,2;" x1="1401.9668" x2="1824.3784" y1="287.2266" y2="287.2266"/><text fill="#000000" font-family="sans-serif" font-size="13" lengthAdjust="spacing" textLength="65.7109" x="1413.9668" y="282.1606">voluntario</text></g><g class="message" data-participant-1="voluntarios" data-participant-2="aprovacaoController"><polygon fill="#181818" points="757.9077,312.3594,747.9077,316.3594,757.9077,320.3594,753.9077,316.3594" style="stroke:#181818;stroke-width:1;"/><line style="stroke:#181818;stroke-width:1;stroke-dasharray:2,2;" x1="751.9077" x2="1385.9668" y1="316.3594" y2="316.3594"/><text fill="#000000" font-family="sans-serif" font-size="13" lengthAdjust="spacing" textLength="65.7109" x="763.9077" y="311.2935">voluntario</text></g><g class="message" data-participant-1="aprovacaoController" data-participant-2="voluntario"><polygon fill="#181818" points="1813.3784,341.4922,1823.3784,345.4922,1813.3784,349.4922,1817.3784,345.4922" style="stroke:#181818;stroke-width:1;"/><line style="stroke:#181818;stroke-width:1;" x1="746.9077" x2="1819.3784" y1="345.4922" y2="345.4922"/><text fill="#000000" font-family="sans-serif" font-size="13" lengthAdjust="spacing" textLength="248.3203" x="753.9077" y="340.4263">geraLoginSenhaVoluntario(voluntario)</text></g><g class="message" data-participant-1="aprovacaoController" data-participant-2="aprovacao"><polygon fill="#181818" points="1902.6528,370.625,1912.6528,374.625,1902.6528,378.625,1906.6528,374.625" style="stroke:#181818;stroke-width:1;"/><line style="stroke:#181818;stroke-width:1;" x1="746.9077" x2="1908.6528" y1="374.625" y2="374.625"/><text fill="#000000" font-family="sans-serif" font-size="13" lengthAdjust="spacing" textLength="57.459" x="753.9077" y="369.5591">&#171;create&#187;</text></g><g class="message" data-participant-1="aprovacaoController" data-participant-2="aprovacao"><polygon fill="#181818" points="1902.6528,399.7578,1912.6528,403.7578,1902.6528,407.7578,1906.6528,403.7578" style="stroke:#181818;stroke-width:1;"/><line style="stroke:#181818;stroke-width:1;" x1="746.9077" x2="1908.6528" y1="403.7578" y2="403.7578"/><text fill="#000000" font-family="sans-serif" font-size="13" lengthAdjust="spacing" textLength="190.9565" x="753.9077" y="398.6919">associaVoluntario(voluntario)</text></g><g class="message" data-participant-1="aprovacaoController" data-participant-2="aprovacao"><polygon fill="#181818" points="1902.6528,428.8906,1912.6528,432.8906,1902.6528,436.8906,1906.6528,432.8906" style="stroke:#181818;stroke-width:1;"/><line style="stroke:#181818;stroke-width:1;" x1="746.9077" x2="1908.6528" y1="432.8906" y2="432.8906"/><text fill="#000000" font-family="sans-serif" font-size="13" lengthAdjust="spacing" textLength="138.6074" x="753.9077" y="427.8247">insereMotivo(motivo)</text></g><g class="message" data-participant-1="aprovacaoController" data-participant-2="aprovacao"><polygon fill="#181818" points="1902.6528,458.0234,1912.6528,462.0234,1902.6528,466.0234,1906.6528,462.0234" style="stroke:#181818;stroke-width:1;"/><line style="stroke:#181818;stroke-width:1;" x1="746.9077" x2="1908.6528" y1="462.0234" y2="462.0234"/><text fill="#000000" font-family="sans-serif" font-size="13" lengthAdjust="spacing" textLength="131.479" x="753.9077" y="456.9575">insereStatus(status)</text></g><g class="message" data-participant-1="aprovacaoController" data-participant-2="aprovacao"><polygon fill="#181818" points="1902.6528,487.1563,1912.6528,491.1563,1902.6528,495.1563,1906.6528,491.1563" style="stroke:#181818;stroke-width:1;"/><line style="stroke:#181818;stroke-width:1;" x1="746.9077" x2="1908.6528" y1="491.1563" y2="491.1563"/><text fill="#000000" font-family="sans-serif" font-size="13" lengthAdjust="spacing" textLength="81.1484" x="753.9077" y="486.0903">insereData()</text></g><g class="message" data-participant-1="aprovacaoController" data-participant-2="aprovacoes"><polygon fill="#181818" points="1631.9155,516.2891,1641.9155,520.2891,1631.9155,524.2891,1635.9155,520.2891" style="stroke:#181818;stroke-width:1;"/><line style="stroke:#181818;stroke-width:1;" x1="746.9077" x2="1637.9155" y1="520.2891" y2="520.2891"/><text fill="#000000" font-family="sans-serif" font-size="13" lengthAdjust="spacing" textLength="258.3242" x="753.9077" y="515.2231">salvaAprovacao(aprovacao): aprovacao</text></g><g class="message" data-participant-1="aprovacaoController" data-participant-2="voluntarios"><polygon fill="#181818" points="1379.9668,545.4219,1389.9668,549.4219,1379.9668,553.4219,1383.9668,549.4219" style="stroke:#181818;stroke-width:1;"/><line style="stroke:#181818;stroke-width:1;" x1="746.9077" x2="1385.9668" y1="549.4219" y2="549.4219"/><text fill="#000000" font-family="sans-serif" font-size="13" lengthAdjust="spacing" textLength="176.7759" x="753.9077" y="544.356">salvaVoluntario(voluntario)</text></g><g class="message" data-participant-1="aprovacaoController" data-participant-2="aprovacaoController"><line style="stroke:#181818;stroke-width:1;" x1="746.9077" x2="788.9077" y1="578.5547" y2="578.5547"/><line style="stroke:#181818;stroke-width:1;" x1="788.9077" x2="788.9077" y1="578.5547" y2="591.5547"/><line style="stroke:#181818;stroke-width:1;" x1="747.9077" x2="788.9077" y1="591.5547" y2="591.5547"/><polygon fill="#181818" points="757.9077,587.5547,747.9077,591.5547,757.9077,595.5547,753.9077,591.5547" style="stroke:#181818;stroke-width:1;"/><text fill="#000000" font-family="sans-serif" font-size="13" lengthAdjust="spacing" textLength="503.3374" x="753.9077" y="573.4888">enviaEmailLoginInstrucao(voluntarioEmail, voluntarioLogin, voluntarioSenha)</text></g><g class="message" data-participant-1="aprovacaoController" data-participant-2="aprovacaoController"><line style="stroke:#181818;stroke-width:1;" x1="746.9077" x2="788.9077" y1="620.6875" y2="620.6875"/><line style="stroke:#181818;stroke-width:1;" x1="788.9077" x2="788.9077" y1="620.6875" y2="633.6875"/><line style="stroke:#181818;stroke-width:1;" x1="747.9077" x2="788.9077" y1="633.6875" y2="633.6875"/><polygon fill="#181818" points="757.9077,629.6875,747.9077,633.6875,757.9077,637.6875,753.9077,633.6875" style="stroke:#181818;stroke-width:1;"/><text fill="#000000" font-family="sans-serif" font-size="13" lengthAdjust="spacing" textLength="508.9741" x="753.9077" y="615.6216">enviaEmailResultadoAfiliacaoRecomendacao(voluntarioEmail, recomendacao)</text></g><g class="message" data-participant-1="aprovacaoController" data-participant-2="gui"><polygon fill="#181818" points="418.0078,658.8203,408.0078,662.8203,418.0078,666.8203,414.0078,662.8203" style="stroke:#181818;stroke-width:1;"/><line style="stroke:#181818;stroke-width:1;stroke-dasharray:2,2;" x1="412.0078" x2="740.9077" y1="662.8203" y2="662.8203"/><text fill="#000000" font-family="sans-serif" font-size="13" lengthAdjust="spacing" textLength="63.6162" x="424.0078" y="657.7544">"sucesso"</text></g><!--SRC=[fLLTRjmW47xtAP2Vl6fo0MkrKfHMLQJsnQlqVOh95iaB4M1BEL5Fa1FaOXs8YuSrR7OLNcpcvvkPRmO0xhHXTIUUZR12EL1EiExBlcPWcQ7IwhSULG_cXTNV7n-2_Z1Ajjq-6OrgQM2tgt1nt1aziFhksUW9EEZxTyaWJF22jNoxvV7Vet3_nvtKohBw7bGlUt3Q1dSUjwdPBpsCcAcHizsqxAiJn4vmVHHO3DV2pfKIIMhyNiRRtxVNsNREtniYDTAza1JJ3AD-oUqajMWHoKefggga1-nsvqblPuC5jf7zihaXvO3UL82bJ83Uw5enNBvlY9Hfn9N87YoYP-22GJ1Qwtm62Uqjip1Cq948pJfS4Z9j6oChqR3RKhKKF_htueC0XMh8nBKCJVXeIaHcQg7pIYiXyZH8omx25L0Bo8a-1GyS9HKKtCh9bKZE05MdO1zIwgiry4CVfDeBzOSIE-LepUD5SOiN5pS2wS7xPiNOSluknmDhDPUVpqigAupugJ4LtHp3vthtlGCtsiQ6p_NkNy51SwdRSdJZ9TP4ZqsR8PCSiBFApE1SSlH2BcVxi9h3V5HyE2vbZiwxK9E4RqUGGnZN1sMT6Jqh2tBGtf1GmP8Amf1lFXc_4tOS7FJwxaaEqjibj-igd_IwFH_y_rDKsv4BdFswAhMMl0T4ZSx_0000]--></g></svg>