<svg xmlns="http://www.w3.org/2000/svg" xmlns:xlink="http://www.w3.org/1999/xlink" contentStyleType="text/css" data-diagram-type="SEQUENCE" height="766px" preserveAspectRatio="none" style="width:1678px;height:766px;background:#FFFFFF;" version="1.1" viewBox="0 0 1678 766" width="1678px" zoomAndPan="magnify"><defs/><g><g><title>..fronteira..</title><rect fill="#FFFFFF" height="555.5234" style="stroke:#181818;stroke-width:1;" width="10" x="388.7476" y="112.4297"/></g><g><title>..controller..</title><rect fill="#FFFFFF" height="526.3906" style="stroke:#181818;stroke-width:1;" width="10" x="710.3872" y="141.5625"/></g><g><title>Campanhas</title><rect fill="#FFFFFF" height="87.3984" style="stroke:#181818;stroke-width:1;" width="10" x="999.1357" y="522.2891"/></g><g><title>Vagas</title><rect fill="#FFFFFF" height="506.2578" style="stroke:#181818;stroke-width:1;" width="10" x="1157.0562" y="170.6953"/></g><g><title>ONG</title><rect fill="#FFFFFF" height="145.6641" style="stroke:#181818;stroke-width:1;" width="10" x="1268.2041" y="493.1563"/></g><g><title>Recomendacao</title><rect fill="#FFFFFF" height="262.1953" style="stroke:#181818;stroke-width:1;" width="10" x="1441.9165" y="376.625"/></g><g><title>Campanha</title><rect fill="#FFFFFF" height="29.1328" style="stroke:#181818;stroke-width:1;" width="10" x="1549.8257" y="282.2266"/></g><g><title>Campanha</title><rect fill="#FFFFFF" height="29.1328" style="stroke:#181818;stroke-width:1;" width="10" x="1549.8257" y="551.4219"/></g><g><title>Vaga</title><rect fill="#FFFFFF" height="87.3984" style="stroke:#181818;stroke-width:1;" width="10" x="1637.04" y="253.0938"/></g><rect fill="none" height="133.6641" style="stroke:#000000;stroke-width:1.5;" width="1021.2207" x="651.6304" y="214.8281"/><g><title>Representante R.S</title><rect fill="#000000" fill-opacity="0.00000" height="604.6563" width="8" x="73.1079" y="81.2969"/><line style="stroke:#181818;stroke-width:0.5;stroke-dasharray:5,5;" x1="77" x2="77" y1="81.2969" y2="685.9531"/></g><g><title>..fronteira..</title><rect fill="#000000" fill-opacity="0.00000" height="604.6563" width="8" x="389.7476" y="81.2969"/><line style="stroke:#181818;stroke-width:0.5;stroke-dasharray:5,5;" x1="392.957" x2="392.957" y1="81.2969" y2="685.9531"/></g><g><title>..controller..</title><rect fill="#000000" fill-opacity="0.00000" height="604.6563" width="8" x="514.8867" y="81.2969"/><line style="stroke:#181818;stroke-width:0.5;stroke-dasharray:5,5;" x1="518.5381" x2="518.5381" y1="81.2969" y2="685.9531"/></g><g><title>..controller..</title><rect fill="#000000" fill-opacity="0.00000" height="604.6563" width="8" x="711.3872" y="81.2969"/><line style="stroke:#181818;stroke-width:0.5;stroke-dasharray:5,5;" x1="714.6304" x2="714.6304" y1="81.2969" y2="685.9531"/></g><g><title>Candidatos</title><rect fill="#000000" fill-opacity="0.00000" height="604.6563" width="8" x="823.5532" y="81.2969"/><line style="stroke:#181818;stroke-width:0.5;stroke-dasharray:5,5;" x1="827.144" x2="827.144" y1="81.2969" y2="685.9531"/></g><g><title>ONGs</title><rect fill="#000000" fill-opacity="0.00000" height="604.6563" width="8" x="910.7798" y="81.2969"/><line style="stroke:#181818;stroke-width:0.5;stroke-dasharray:5,5;" x1="913.9624" x2="913.9624" y1="81.2969" y2="685.9531"/></g><g><title>Campanhas</title><rect fill="#000000" fill-opacity="0.00000" height="604.6563" width="8" x="1000.1357" y="81.2969"/><line style="stroke:#181818;stroke-width:0.5;stroke-dasharray:5,5;" x1="1003.5972" x2="1003.5972" y1="81.2969" y2="685.9531"/></g><g><title>Perfis</title><rect fill="#000000" fill-opacity="0.00000" height="604.6563" width="8" x="1089.1362" y="81.2969"/><line style="stroke:#181818;stroke-width:0.5;stroke-dasharray:5,5;" x1="1092.6743" x2="1092.6743" y1="81.2969" y2="685.9531"/></g><g><title>Vagas</title><rect fill="#000000" fill-opacity="0.00000" height="604.6563" width="8" x="1158.0562" y="81.2969"/><line style="stroke:#181818;stroke-width:0.5;stroke-dasharray:5,5;" x1="1161.5981" x2="1161.5981" y1="81.2969" y2="685.9531"/></g><g><title>Perfil</title><rect fill="#000000" fill-opacity="0.00000" height="604.6563" width="8" x="1219.2739" y="81.2969"/><line style="stroke:#181818;stroke-width:0.5;stroke-dasharray:5,5;" x1="1222.5142" x2="1222.5142" y1="81.2969" y2="685.9531"/></g><g><title>ONG</title><rect fill="#000000" fill-opacity="0.00000" height="604.6563" width="8" x="1269.2041" y="81.2969"/><line style="stroke:#181818;stroke-width:0.5;stroke-dasharray:5,5;" x1="1273.0337" x2="1273.0337" y1="81.2969" y2="685.9531"/></g><g><title>Candidato</title><rect fill="#000000" fill-opacity="0.00000" height="604.6563" width="8" x="1337.1367" y="81.2969"/><line style="stroke:#181818;stroke-width:0.5;stroke-dasharray:5,5;" x1="1340.3745" x2="1340.3745" y1="81.2969" y2="685.9531"/></g><g><title>Recomendacao</title><rect fill="#000000" fill-opacity="0.00000" height="604.6563" width="8" x="1442.9165" y="81.2969"/><line style="stroke:#181818;stroke-width:0.5;stroke-dasharray:5,5;" x1="1446.8989" x2="1446.8989" y1="81.2969" y2="685.9531"/></g><g><title>Campanha</title><rect fill="#000000" fill-opacity="0.00000" height="604.6563" width="8" x="1550.8257" y="81.2969"/><line style="stroke:#181818;stroke-width:0.5;stroke-dasharray:5,5;" x1="1553.9341" x2="1553.9341" y1="81.2969" y2="685.9531"/></g><g><title>Vaga</title><rect fill="#000000" fill-opacity="0.00000" height="604.6563" width="8" x="1638.04" y="81.2969"/><line style="stroke:#181818;stroke-width:0.5;stroke-dasharray:5,5;" x1="1641.229" x2="1641.229" y1="81.2969" y2="685.9531"/></g><g class="participant participant-head" data-participant="representante"><text fill="#000000" font-family="sans-serif" font-size="14" lengthAdjust="spacing" textLength="138.2158" x="5" y="77.9951">Representante R+S</text><ellipse cx="77.1079" cy="13.5" fill="#E2E2F0" rx="8" ry="8" style="stroke:#181818;stroke-width:0.5;"/><path d="M77.1079,21.5 L77.1079,48.5 M64.1079,29.5 L90.1079,29.5 M77.1079,48.5 L64.1079,63.5 M77.1079,48.5 L90.1079,63.5" fill="none" style="stroke:#181818;stroke-width:0.5;"/></g><g class="participant participant-tail" data-participant="representante"><text fill="#000000" font-family="sans-serif" font-size="14" lengthAdjust="spacing" textLength="138.2158" x="5" y="697.9482">Representante R+S</text><ellipse cx="77.1079" cy="709.75" fill="#E2E2F0" rx="8" ry="8" style="stroke:#181818;stroke-width:0.5;"/><path d="M77.1079,717.75 L77.1079,744.75 M64.1079,725.75 L90.1079,725.75 M77.1079,744.75 L64.1079,759.75 M77.1079,744.75 L90.1079,759.75" fill="none" style="stroke:#181818;stroke-width:0.5;"/></g><g class="participant participant-head" data-participant="gui"><text fill="#000000" font-family="sans-serif" font-size="14" font-style="italic" lengthAdjust="spacing" textLength="77.5811" x="351.957" y="61.6982">&#171;fronteira&#187;</text><text fill="#000000" font-family="sans-serif" font-size="14" lengthAdjust="spacing" textLength="25.2246" x="378.1353" y="77.9951">GUI</text><path d="M373.2476,20.7031 L373.2476,44.7031 M373.2476,32.7031 L390.2476,32.7031" fill="none" style="stroke:#181818;stroke-width:0.5;"/><ellipse cx="402.2476" cy="32.7031" fill="#E2E2F0" rx="12" ry="12" style="stroke:#181818;stroke-width:0.5;"/></g><g class="participant participant-tail" data-participant="gui"><text fill="#000000" font-family="sans-serif" font-size="14" font-style="italic" lengthAdjust="spacing" textLength="77.5811" x="351.957" y="697.9482">&#171;fronteira&#187;</text><text fill="#000000" font-family="sans-serif" font-size="14" lengthAdjust="spacing" textLength="25.2246" x="378.1353" y="714.2451">GUI</text><path d="M373.2476,721.5469 L373.2476,745.5469 M373.2476,733.5469 L390.2476,733.5469" fill="none" style="stroke:#181818;stroke-width:0.5;"/><ellipse cx="402.2476" cy="733.5469" fill="#E2E2F0" rx="12" ry="12" style="stroke:#181818;stroke-width:0.5;"/></g><g class="participant participant-head" data-participant="candidatoController"><text fill="#000000" font-family="sans-serif" font-size="14" font-style="italic" lengthAdjust="spacing" textLength="84.2256" x="473.7739" y="61.6982">&#171;controller&#187;</text><text fill="#000000" font-family="sans-serif" font-size="14" lengthAdjust="spacing" textLength="140.6973" x="445.5381" y="77.9951">CandidatoController</text><ellipse cx="518.8867" cy="32.7031" fill="#E2E2F0" rx="12" ry="12" style="stroke:#181818;stroke-width:0.5;"/><polygon fill="#181818" points="514.8867,20.7031,520.8867,15.7031,518.8867,20.7031,520.8867,25.7031,514.8867,20.7031" style="stroke:#181818;stroke-width:1;"/></g><g class="participant participant-tail" data-participant="candidatoController"><text fill="#000000" font-family="sans-serif" font-size="14" font-style="italic" lengthAdjust="spacing" textLength="84.2256" x="473.7739" y="697.9482">&#171;controller&#187;</text><text fill="#000000" font-family="sans-serif" font-size="14" lengthAdjust="spacing" textLength="140.6973" x="445.5381" y="714.2451">CandidatoController</text><ellipse cx="518.8867" cy="733.5469" fill="#E2E2F0" rx="12" ry="12" style="stroke:#181818;stroke-width:0.5;"/><polygon fill="#181818" points="514.8867,721.5469,520.8867,716.5469,518.8867,721.5469,520.8867,726.5469,514.8867,721.5469" style="stroke:#181818;stroke-width:1;"/></g><g class="participant participant-head" data-participant="ongController"><text fill="#000000" font-family="sans-serif" font-size="14" font-style="italic" lengthAdjust="spacing" textLength="84.2256" x="670.2744" y="61.6982">&#171;controller&#187;</text><text fill="#000000" font-family="sans-serif" font-size="14" lengthAdjust="spacing" textLength="101.5137" x="661.6304" y="77.9951">ONGController</text><ellipse cx="715.3872" cy="32.7031" fill="#E2E2F0" rx="12" ry="12" style="stroke:#181818;stroke-width:0.5;"/><polygon fill="#181818" points="711.3872,20.7031,717.3872,15.7031,715.3872,20.7031,717.3872,25.7031,711.3872,20.7031" style="stroke:#181818;stroke-width:1;"/></g><g class="participant participant-tail" data-participant="ongController"><text fill="#000000" font-family="sans-serif" font-size="14" font-style="italic" lengthAdjust="spacing" textLength="84.2256" x="670.2744" y="697.9482">&#171;controller&#187;</text><text fill="#000000" font-family="sans-serif" font-size="14" lengthAdjust="spacing" textLength="101.5137" x="661.6304" y="714.2451">ONGController</text><ellipse cx="715.3872" cy="733.5469" fill="#E2E2F0" rx="12" ry="12" style="stroke:#181818;stroke-width:0.5;"/><polygon fill="#181818" points="711.3872,721.5469,717.3872,716.5469,715.3872,721.5469,717.3872,726.5469,711.3872,721.5469" style="stroke:#181818;stroke-width:1;"/></g><g class="participant participant-head" data-participant="candidatos"><rect fill="#E2E2F0" height="30.2969" style="stroke:#181818;stroke-width:0.5;" width="92.8184" x="783.144" y="46"/><rect fill="#E2E2F0" height="30.2969" style="stroke:#181818;stroke-width:0.5;" width="92.8184" x="779.144" y="50"/><text fill="#000000" font-family="sans-serif" font-size="14" lengthAdjust="spacing" textLength="78.8184" x="786.144" y="69.9951">Candidatos</text></g><g class="participant participant-tail" data-participant="candidatos"><rect fill="#E2E2F0" height="30.2969" style="stroke:#181818;stroke-width:0.5;" width="92.8184" x="783.144" y="684.9531"/><rect fill="#E2E2F0" height="30.2969" style="stroke:#181818;stroke-width:0.5;" width="92.8184" x="779.144" y="688.9531"/><text fill="#000000" font-family="sans-serif" font-size="14" lengthAdjust="spacing" textLength="78.8184" x="786.144" y="708.9482">Candidatos</text></g><g class="participant participant-head" data-participant="ongs"><rect fill="#E2E2F0" height="30.2969" style="stroke:#181818;stroke-width:0.5;" width="53.6348" x="889.9624" y="46"/><rect fill="#E2E2F0" height="30.2969" style="stroke:#181818;stroke-width:0.5;" width="53.6348" x="885.9624" y="50"/><text fill="#000000" font-family="sans-serif" font-size="14" lengthAdjust="spacing" textLength="39.6348" x="892.9624" y="69.9951">ONGs</text></g><g class="participant participant-tail" data-participant="ongs"><rect fill="#E2E2F0" height="30.2969" style="stroke:#181818;stroke-width:0.5;" width="53.6348" x="889.9624" y="684.9531"/><rect fill="#E2E2F0" height="30.2969" style="stroke:#181818;stroke-width:0.5;" width="53.6348" x="885.9624" y="688.9531"/><text fill="#000000" font-family="sans-serif" font-size="14" lengthAdjust="spacing" textLength="39.6348" x="892.9624" y="708.9482">ONGs</text></g><g class="participant participant-head" data-participant="campanhas"><rect fill="#E2E2F0" height="30.2969" style="stroke:#181818;stroke-width:0.5;" width="97.0771" x="957.5972" y="46"/><rect fill="#E2E2F0" height="30.2969" style="stroke:#181818;stroke-width:0.5;" width="97.0771" x="953.5972" y="50"/><text fill="#000000" font-family="sans-serif" font-size="14" lengthAdjust="spacing" textLength="83.0771" x="960.5972" y="69.9951">Campanhas</text></g><g class="participant participant-tail" data-participant="campanhas"><rect fill="#E2E2F0" height="30.2969" style="stroke:#181818;stroke-width:0.5;" width="97.0771" x="957.5972" y="684.9531"/><rect fill="#E2E2F0" height="30.2969" style="stroke:#181818;stroke-width:0.5;" width="97.0771" x="953.5972" y="688.9531"/><text fill="#000000" font-family="sans-serif" font-size="14" lengthAdjust="spacing" textLength="83.0771" x="960.5972" y="708.9482">Campanhas</text></g><g class="participant participant-head" data-participant="perfis"><rect fill="#E2E2F0" height="30.2969" style="stroke:#181818;stroke-width:0.5;" width="52.9238" x="1068.6743" y="46"/><rect fill="#E2E2F0" height="30.2969" style="stroke:#181818;stroke-width:0.5;" width="52.9238" x="1064.6743" y="50"/><text fill="#000000" font-family="sans-serif" font-size="14" lengthAdjust="spacing" textLength="38.9238" x="1071.6743" y="69.9951">Perfis</text></g><g class="participant participant-tail" data-participant="perfis"><rect fill="#E2E2F0" height="30.2969" style="stroke:#181818;stroke-width:0.5;" width="52.9238" x="1068.6743" y="684.9531"/><rect fill="#E2E2F0" height="30.2969" style="stroke:#181818;stroke-width:0.5;" width="52.9238" x="1064.6743" y="688.9531"/><text fill="#000000" font-family="sans-serif" font-size="14" lengthAdjust="spacing" textLength="38.9238" x="1071.6743" y="708.9482">Perfis</text></g><g class="participant participant-head" data-participant="vagas"><rect fill="#E2E2F0" height="30.2969" style="stroke:#181818;stroke-width:0.5;" width="56.916" x="1135.5981" y="46"/><rect fill="#E2E2F0" height="30.2969" style="stroke:#181818;stroke-width:0.5;" width="56.916" x="1131.5981" y="50"/><text fill="#000000" font-family="sans-serif" font-size="14" lengthAdjust="spacing" textLength="42.916" x="1138.5981" y="69.9951">Vagas</text></g><g class="participant participant-tail" data-participant="vagas"><rect fill="#E2E2F0" height="30.2969" style="stroke:#181818;stroke-width:0.5;" width="56.916" x="1135.5981" y="684.9531"/><rect fill="#E2E2F0" height="30.2969" style="stroke:#181818;stroke-width:0.5;" width="56.916" x="1131.5981" y="688.9531"/><text fill="#000000" font-family="sans-serif" font-size="14" lengthAdjust="spacing" textLength="42.916" x="1138.5981" y="708.9482">Vagas</text></g><g class="participant participant-head" data-participant="perfil"><text fill="#000000" font-family="sans-serif" font-size="14" lengthAdjust="spacing" textLength="35.5195" x="1202.5142" y="77.9951">Perfil</text><ellipse cx="1223.2739" cy="49" fill="#E2E2F0" rx="12" ry="12" style="stroke:#181818;stroke-width:0.5;"/><line style="stroke:#181818;stroke-width:0.5;" x1="1211.2739" x2="1235.2739" y1="63" y2="63"/></g><g class="participant participant-tail" data-participant="perfil"><text fill="#000000" font-family="sans-serif" font-size="14" lengthAdjust="spacing" textLength="35.5195" x="1202.5142" y="697.9482">Perfil</text><ellipse cx="1223.2739" cy="717.25" fill="#E2E2F0" rx="12" ry="12" style="stroke:#181818;stroke-width:0.5;"/><line style="stroke:#181818;stroke-width:0.5;" x1="1211.2739" x2="1235.2739" y1="731.25" y2="731.25"/></g><g class="participant participant-head" data-participant="ong"><text fill="#000000" font-family="sans-serif" font-size="14" lengthAdjust="spacing" textLength="32.3408" x="1254.0337" y="77.9951">ONG</text><ellipse cx="1273.2041" cy="49" fill="#E2E2F0" rx="12" ry="12" style="stroke:#181818;stroke-width:0.5;"/><line style="stroke:#181818;stroke-width:0.5;" x1="1261.2041" x2="1285.2041" y1="63" y2="63"/></g><g class="participant participant-tail" data-participant="ong"><text fill="#000000" font-family="sans-serif" font-size="14" lengthAdjust="spacing" textLength="32.3408" x="1254.0337" y="697.9482">ONG</text><ellipse cx="1273.2041" cy="717.25" fill="#E2E2F0" rx="12" ry="12" style="stroke:#181818;stroke-width:0.5;"/><line style="stroke:#181818;stroke-width:0.5;" x1="1261.2041" x2="1285.2041" y1="731.25" y2="731.25"/></g><g class="participant participant-head" data-participant="candidato"><text fill="#000000" font-family="sans-serif" font-size="14" lengthAdjust="spacing" textLength="71.5244" x="1302.3745" y="77.9951">Candidato</text><ellipse cx="1341.1367" cy="49" fill="#E2E2F0" rx="12" ry="12" style="stroke:#181818;stroke-width:0.5;"/><line style="stroke:#181818;stroke-width:0.5;" x1="1329.1367" x2="1353.1367" y1="63" y2="63"/></g><g class="participant participant-tail" data-participant="candidato"><text fill="#000000" font-family="sans-serif" font-size="14" lengthAdjust="spacing" textLength="71.5244" x="1302.3745" y="697.9482">Candidato</text><ellipse cx="1341.1367" cy="717.25" fill="#E2E2F0" rx="12" ry="12" style="stroke:#181818;stroke-width:0.5;"/><line style="stroke:#181818;stroke-width:0.5;" x1="1329.1367" x2="1353.1367" y1="731.25" y2="731.25"/></g><g class="participant participant-head" data-participant="recomendacao"><text fill="#000000" font-family="sans-serif" font-size="14" lengthAdjust="spacing" textLength="108.0352" x="1389.8989" y="77.9951">Recomendacao</text><ellipse cx="1446.9165" cy="49" fill="#E2E2F0" rx="12" ry="12" style="stroke:#181818;stroke-width:0.5;"/><line style="stroke:#181818;stroke-width:0.5;" x1="1434.9165" x2="1458.9165" y1="63" y2="63"/></g><g class="participant participant-tail" data-participant="recomendacao"><text fill="#000000" font-family="sans-serif" font-size="14" lengthAdjust="spacing" textLength="108.0352" x="1389.8989" y="697.9482">Recomendacao</text><ellipse cx="1446.9165" cy="717.25" fill="#E2E2F0" rx="12" ry="12" style="stroke:#181818;stroke-width:0.5;"/><line style="stroke:#181818;stroke-width:0.5;" x1="1434.9165" x2="1458.9165" y1="731.25" y2="731.25"/></g><g class="participant participant-head" data-participant="campanha"><text fill="#000000" font-family="sans-serif" font-size="14" lengthAdjust="spacing" textLength="75.7832" x="1513.9341" y="77.9951">Campanha</text><ellipse cx="1554.8257" cy="49" fill="#E2E2F0" rx="12" ry="12" style="stroke:#181818;stroke-width:0.5;"/><line style="stroke:#181818;stroke-width:0.5;" x1="1542.8257" x2="1566.8257" y1="63" y2="63"/></g><g class="participant participant-tail" data-participant="campanha"><text fill="#000000" font-family="sans-serif" font-size="14" lengthAdjust="spacing" textLength="75.7832" x="1513.9341" y="697.9482">Campanha</text><ellipse cx="1554.8257" cy="717.25" fill="#E2E2F0" rx="12" ry="12" style="stroke:#181818;stroke-width:0.5;"/><line style="stroke:#181818;stroke-width:0.5;" x1="1542.8257" x2="1566.8257" y1="731.25" y2="731.25"/></g><g class="participant participant-head" data-participant="vaga"><text fill="#000000" font-family="sans-serif" font-size="14" lengthAdjust="spacing" textLength="35.6221" x="1621.229" y="77.9951">Vaga</text><ellipse cx="1642.04" cy="49" fill="#E2E2F0" rx="12" ry="12" style="stroke:#181818;stroke-width:0.5;"/><line style="stroke:#181818;stroke-width:0.5;" x1="1630.04" x2="1654.04" y1="63" y2="63"/></g><g class="participant participant-tail" data-participant="vaga"><text fill="#000000" font-family="sans-serif" font-size="14" lengthAdjust="spacing" textLength="35.6221" x="1621.229" y="697.9482">Vaga</text><ellipse cx="1642.04" cy="717.25" fill="#E2E2F0" rx="12" ry="12" style="stroke:#181818;stroke-width:0.5;"/><line style="stroke:#181818;stroke-width:0.5;" x1="1630.04" x2="1654.04" y1="731.25" y2="731.25"/></g><g><title>..fronteira..</title><rect fill="#FFFFFF" height="555.5234" style="stroke:#181818;stroke-width:1;" width="10" x="388.7476" y="112.4297"/></g><g><title>..controller..</title><rect fill="#FFFFFF" height="526.3906" style="stroke:#181818;stroke-width:1;" width="10" x="710.3872" y="141.5625"/></g><g><title>Campanhas</title><rect fill="#FFFFFF" height="87.3984" style="stroke:#181818;stroke-width:1;" width="10" x="999.1357" y="522.2891"/></g><g><title>Vagas</title><rect fill="#FFFFFF" height="506.2578" style="stroke:#181818;stroke-width:1;" width="10" x="1157.0562" y="170.6953"/></g><g><title>ONG</title><rect fill="#FFFFFF" height="145.6641" style="stroke:#181818;stroke-width:1;" width="10" x="1268.2041" y="493.1563"/></g><g><title>Recomendacao</title><rect fill="#FFFFFF" height="262.1953" style="stroke:#181818;stroke-width:1;" width="10" x="1441.9165" y="376.625"/></g><g><title>Campanha</title><rect fill="#FFFFFF" height="29.1328" style="stroke:#181818;stroke-width:1;" width="10" x="1549.8257" y="282.2266"/></g><g><title>Campanha</title><rect fill="#FFFFFF" height="29.1328" style="stroke:#181818;stroke-width:1;" width="10" x="1549.8257" y="551.4219"/></g><g><title>Vaga</title><rect fill="#FFFFFF" height="87.3984" style="stroke:#181818;stroke-width:1;" width="10" x="1637.04" y="253.0938"/></g><g class="message" data-participant-1="representante" data-participant-2="gui"><polygon fill="#181818" points="376.7476,108.4297,386.7476,112.4297,376.7476,116.4297,380.7476,112.4297" style="stroke:#181818;stroke-width:1;"/><line style="stroke:#181818;stroke-width:1;" x1="77.1079" x2="382.7476" y1="112.4297" y2="112.4297"/><text fill="#000000" font-family="sans-serif" font-size="13" lengthAdjust="spacing" textLength="292.6396" x="84.1079" y="107.3638">solicita&#231;&#227;oRecomendacaoOngParceira(perfil)</text></g><g class="message" data-participant-1="gui" data-participant-2="ongController"><polygon fill="#181818" points="698.3872,137.5625,708.3872,141.5625,698.3872,145.5625,702.3872,141.5625" style="stroke:#181818;stroke-width:1;"/><line style="stroke:#181818;stroke-width:1;" x1="398.7476" x2="704.3872" y1="141.5625" y2="141.5625"/><text fill="#000000" font-family="sans-serif" font-size="13" lengthAdjust="spacing" textLength="292.6396" x="405.7476" y="136.4966">solicita&#231;&#227;oRecomendacaoOngParceira(perfil)</text></g><g class="message" data-participant-1="ongController" data-participant-2="vagas"><polygon fill="#181818" points="1145.0562,166.6953,1155.0562,170.6953,1145.0562,174.6953,1149.0562,170.6953" style="stroke:#181818;stroke-width:1;"/><line style="stroke:#181818;stroke-width:1;" x1="720.3872" x2="1151.0562" y1="170.6953" y2="170.6953"/><text fill="#000000" font-family="sans-serif" font-size="13" lengthAdjust="spacing" textLength="257.5625" x="727.3872" y="165.6294">retornaVagasDeAcordoComPerfil(perfil)</text></g><g class="message" data-participant-1="vagas" data-participant-2="ongController"><polygon fill="#181818" points="731.3872,195.8281,721.3872,199.8281,731.3872,203.8281,727.3872,199.8281" style="stroke:#181818;stroke-width:1;"/><line style="stroke:#181818;stroke-width:1;stroke-dasharray:2,2;" x1="725.3872" x2="1156.0562" y1="199.8281" y2="199.8281"/><text fill="#000000" font-family="sans-serif" font-size="13" lengthAdjust="spacing" textLength="66.9106" x="737.3872" y="194.7622">listaVagas</text></g><path d="M651.6304,214.8281 L728.2544,214.8281 L728.2544,221.9609 L718.2544,231.9609 L651.6304,231.9609 L651.6304,214.8281" fill="#EEEEEE" style="stroke:#000000;stroke-width:1.5;"/><rect fill="none" height="133.6641" style="stroke:#000000;stroke-width:1.5;" width="1021.2207" x="651.6304" y="214.8281"/><text fill="#000000" font-family="sans-serif" font-size="13" font-weight="bold" lengthAdjust="spacing" textLength="31.624" x="666.6304" y="227.895">loop</text><text fill="#000000" font-family="sans-serif" font-size="11" font-weight="bold" lengthAdjust="spacing" textLength="203.0435" x="743.2544" y="227.0386">['Para cada vaga em listaVagas']</text><g class="message" data-participant-1="ongController" data-participant-2="vaga"><polygon fill="#181818" points="1625.04,249.0938,1635.04,253.0938,1625.04,257.0938,1629.04,253.0938" style="stroke:#181818;stroke-width:1;"/><line style="stroke:#181818;stroke-width:1;" x1="720.3872" x2="1631.04" y1="253.0938" y2="253.0938"/><text fill="#000000" font-family="sans-serif" font-size="13" lengthAdjust="spacing" textLength="128.4575" x="727.3872" y="248.0278">retornaCampanha()</text></g><g class="message" data-participant-1="vaga" data-participant-2="campanha"><polygon fill="#181818" points="1570.8257,278.2266,1560.8257,282.2266,1570.8257,286.2266,1566.8257,282.2266" style="stroke:#181818;stroke-width:1;"/><line style="stroke:#181818;stroke-width:1;" x1="1564.8257" x2="1636.04" y1="282.2266" y2="282.2266"/><text fill="#000000" font-family="sans-serif" font-size="13" lengthAdjust="spacing" textLength="58.2144" x="1576.8257" y="277.1606">getOng()</text></g><g class="message" data-participant-1="campanha" data-participant-2="vaga"><polygon fill="#181818" points="1625.04,307.3594,1635.04,311.3594,1625.04,315.3594,1629.04,311.3594" style="stroke:#181818;stroke-width:1;"/><line style="stroke:#181818;stroke-width:1;stroke-dasharray:2,2;" x1="1554.8257" x2="1631.04" y1="311.3594" y2="311.3594"/><text fill="#000000" font-family="sans-serif" font-size="13" lengthAdjust="spacing" textLength="24.4448" x="1561.8257" y="306.2935">ong</text></g><g class="message" data-participant-1="vaga" data-participant-2="ongController"><polygon fill="#181818" points="731.3872,336.4922,721.3872,340.4922,731.3872,344.4922,727.3872,340.4922" style="stroke:#181818;stroke-width:1;"/><line style="stroke:#181818;stroke-width:1;stroke-dasharray:2,2;" x1="725.3872" x2="1641.04" y1="340.4922" y2="340.4922"/><text fill="#000000" font-family="sans-serif" font-size="13" lengthAdjust="spacing" textLength="24.4448" x="737.3872" y="335.4263">ong</text></g><g class="message" data-participant-1="ongController" data-participant-2="recomendacao"><polygon fill="#181818" points="1429.9165,372.625,1439.9165,376.625,1429.9165,380.625,1433.9165,376.625" style="stroke:#181818;stroke-width:1;"/><line style="stroke:#181818;stroke-width:1;" x1="720.3872" x2="1435.9165" y1="376.625" y2="376.625"/><text fill="#000000" font-family="sans-serif" font-size="13" lengthAdjust="spacing" textLength="41.5518" x="727.3872" y="371.5591">create</text></g><g class="message" data-participant-1="recomendacao" data-participant-2="ongController"><polygon fill="#181818" points="731.3872,401.7578,721.3872,405.7578,731.3872,409.7578,727.3872,405.7578" style="stroke:#181818;stroke-width:1;"/><line style="stroke:#181818;stroke-width:1;stroke-dasharray:2,2;" x1="725.3872" x2="1440.9165" y1="405.7578" y2="405.7578"/><text fill="#000000" font-family="sans-serif" font-size="13" lengthAdjust="spacing" textLength="96.6304" x="737.3872" y="400.6919">recomendacao</text></g><g class="message" data-participant-1="ongController" data-participant-2="recomendacao"><polygon fill="#181818" points="1429.9165,430.8906,1439.9165,434.8906,1429.9165,438.8906,1433.9165,434.8906" style="stroke:#181818;stroke-width:1;"/><line style="stroke:#181818;stroke-width:1;" x1="720.3872" x2="1435.9165" y1="434.8906" y2="434.8906"/><text fill="#000000" font-family="sans-serif" font-size="13" lengthAdjust="spacing" textLength="123.0493" x="727.3872" y="429.8247">associaOngs(ongs)</text></g><g class="message" data-participant-1="ongController" data-participant-2="recomendacao"><polygon fill="#181818" points="1429.9165,460.0234,1439.9165,464.0234,1429.9165,468.0234,1433.9165,464.0234" style="stroke:#181818;stroke-width:1;"/><line style="stroke:#181818;stroke-width:1;" x1="720.3872" x2="1435.9165" y1="464.0234" y2="464.0234"/><text fill="#000000" font-family="sans-serif" font-size="13" lengthAdjust="spacing" textLength="159.9229" x="727.3872" y="458.9575">associaCampanha(ongs)</text></g><g class="message" data-participant-1="recomendacao" data-participant-2="ong"><polygon fill="#181818" points="1289.2041,489.1563,1279.2041,493.1563,1289.2041,497.1563,1285.2041,493.1563" style="stroke:#181818;stroke-width:1;"/><line style="stroke:#181818;stroke-width:1;" x1="1283.2041" x2="1440.9165" y1="493.1563" y2="493.1563"/><text fill="#000000" font-family="sans-serif" font-size="13" lengthAdjust="spacing" textLength="108.6338" x="1295.2041" y="488.0903">getCampanhas()</text></g><g class="message" data-participant-1="ong" data-participant-2="campanhas"><polygon fill="#181818" points="1020.1357,518.2891,1010.1357,522.2891,1020.1357,526.2891,1016.1357,522.2891" style="stroke:#181818;stroke-width:1;"/><line style="stroke:#181818;stroke-width:1;" x1="1014.1357" x2="1267.2041" y1="522.2891" y2="522.2891"/><text fill="#000000" font-family="sans-serif" font-size="13" lengthAdjust="spacing" textLength="101.8608" x="1026.1357" y="517.2231">getCampanha()</text></g><g class="message" data-participant-1="campanhas" data-participant-2="campanha"><polygon fill="#181818" points="1537.8257,547.4219,1547.8257,551.4219,1537.8257,555.4219,1541.8257,551.4219" style="stroke:#181818;stroke-width:1;"/><line style="stroke:#181818;stroke-width:1;" x1="1009.1357" x2="1543.8257" y1="551.4219" y2="551.4219"/><text fill="#000000" font-family="sans-serif" font-size="13" lengthAdjust="spacing" textLength="31.4907" x="1016.1357" y="546.356">get()</text></g><g class="message" data-participant-1="campanha" data-participant-2="campanhas"><polygon fill="#181818" points="1020.1357,576.5547,1010.1357,580.5547,1020.1357,584.5547,1016.1357,580.5547" style="stroke:#181818;stroke-width:1;"/><line style="stroke:#181818;stroke-width:1;stroke-dasharray:2,2;" x1="1014.1357" x2="1553.8257" y1="580.5547" y2="580.5547"/><text fill="#000000" font-family="sans-serif" font-size="13" lengthAdjust="spacing" textLength="68.4404" x="1026.1357" y="575.4888">campanha</text></g><g class="message" data-participant-1="campanhas" data-participant-2="ong"><polygon fill="#181818" points="1256.2041,605.6875,1266.2041,609.6875,1256.2041,613.6875,1260.2041,609.6875" style="stroke:#181818;stroke-width:1;"/><line style="stroke:#181818;stroke-width:1;stroke-dasharray:2,2;" x1="1004.1357" x2="1262.2041" y1="609.6875" y2="609.6875"/><text fill="#000000" font-family="sans-serif" font-size="13" lengthAdjust="spacing" textLength="83.1797" x="1011.1357" y="604.6216">camapanhas</text></g><g class="message" data-participant-1="ong" data-participant-2="recomendacao"><polygon fill="#181818" points="1434.9165,634.8203,1444.9165,638.8203,1434.9165,642.8203,1438.9165,638.8203" style="stroke:#181818;stroke-width:1;"/><line style="stroke:#181818;stroke-width:1;stroke-dasharray:2,2;" x1="1273.2041" x2="1440.9165" y1="638.8203" y2="638.8203"/><text fill="#000000" font-family="sans-serif" font-size="13" lengthAdjust="spacing" textLength="75.2134" x="1280.2041" y="633.7544">campanhas</text></g><g class="message" data-participant-1="ongController" data-participant-2="gui"><polygon fill="#181818" points="404.7476,663.9531,394.7476,667.9531,404.7476,671.9531,400.7476,667.9531" style="stroke:#181818;stroke-width:1;"/><line style="stroke:#181818;stroke-width:1;stroke-dasharray:2,2;" x1="398.7476" x2="714.3872" y1="667.9531" y2="667.9531"/><text fill="#000000" font-family="sans-serif" font-size="13" lengthAdjust="spacing" textLength="96.6304" x="410.7476" y="662.8872">recomenda&#231;&#227;o</text></g><!--SRC=[dLLBRYCX4Drp2kHDR8ro0IkoDCf8qMmcaKV9laAJ7gGsM40YvJnPv22vM0emcEgc7MTOqVLvLQ_g6OFmnlB5LkwjT59xq5xoxO-_2mwEszhA7ispxi2-yiND_U_exvyLlxfwiWRToi9cmmHUhHduuXfqfphmvZfP1cbZYfZQ4KAKZnhZzi_DADle_cWPfM4UteHNHhkglgDb7Gt34YuZkp72RW_w7sI0mnSDkfFsIQM8VRnIzmFqX_oNS6CCPwdywo5lEEODnOCTvOQAhP2XN8f_AuNPILoE07DOtD5GeIGAX4_nXbPBfumnidj-kGdBNdDd1YMKXu_tZpTJbxtL_HrO4MImJ8nM370CBu3PcCeudg0NH29R_2PcW2cu12YwmY7MK2_EVer3GQbhY3lv9NyAOpjKuIwjWXGWHTBcU7MYXLzEcGpA-OHFuWTZzlm2gG2ElOEOp-Mk2hyWyRCa2eUyokLgaaZwddXp-m4nIs3DU-bnrWqm0bWamsTE3eYZIVq65RT2EtaUREfrEkaMReKvuOwA8j_iD4CQo-QbLV_GrbnOYJ1J2P6VuxZjsjcYUZBvYuR0EICKu7BTChnmg_y4A7fhWr0AaK4KLNb2J-cqjKgqrGfr1EqKsF6PdXEdcqZ_73psfTwhNcUJpb5zrMUU99fWXbK3qRMdEHNhR7m5EbuEQyGq1JhILVx_AB7niKzmj5pre5SEJFu4]--></g></svg>