<svg xmlns="http://www.w3.org/2000/svg" xmlns:xlink="http://www.w3.org/1999/xlink" contentStyleType="text/css" data-diagram-type="CLASS" height="849px" preserveAspectRatio="none" style="width:817px;height:849px;background:#FFFFFF;" version="1.1" viewBox="0 0 817 849" width="817px" zoomAndPan="magnify"><defs/><g><!--class Candidato--><g class="entity" data-entity="Candidato" data-source-line="1" data-uid="ent0002" id="entity_Candidato"><rect fill="#F1F1F1" height="80.5938" rx="2.5" ry="2.5" style="stroke:#181818;stroke-width:0.5;" width="103.5244" x="166.42" y="7"/><ellipse cx="181.42" cy="23" fill="#ADD1B2" rx="11" ry="11" style="stroke:#181818;stroke-width:1;"/><path d="M184.3888,28.6406 Q183.8106,28.9375 183.17,29.0781 Q182.5294,29.2344 181.8263,29.2344 Q179.3263,29.2344 177.9981,27.5938 Q176.6856,25.9375 176.6856,22.8125 Q176.6856,19.6875 177.9981,18.0313 Q179.3263,16.375 181.8263,16.375 Q182.5294,16.375 183.17,16.5313 Q183.8263,16.6875 184.3888,16.9844 L184.3888,19.7031 Q183.7638,19.125 183.17,18.8594 Q182.5763,18.5781 181.9513,18.5781 Q180.6075,18.5781 179.92,19.6563 Q179.2325,20.7188 179.2325,22.8125 Q179.2325,24.9063 179.92,25.9844 Q180.6075,27.0469 181.9513,27.0469 Q182.5763,27.0469 183.17,26.7813 Q183.7638,26.5 184.3888,25.9219 L184.3888,28.6406 Z " fill="#000000"/><text fill="#000000" font-family="sans-serif" font-size="14" lengthAdjust="spacing" textLength="71.5244" x="195.42" y="27.8467">Candidato</text><line style="stroke:#181818;stroke-width:0.5;" x1="167.42" x2="268.9444" y1="39" y2="39"/><rect fill="none" height="6" style="stroke:#C82930;stroke-width:1;" width="6" x="174.42" y="49.6484"/><text fill="#000000" font-family="sans-serif" font-size="14" lengthAdjust="spacing" textLength="39.6895" x="186.42" y="55.9951">nome</text><rect fill="none" height="6" style="stroke:#C82930;stroke-width:1;" width="6" x="174.42" y="65.9453"/><text fill="#000000" font-family="sans-serif" font-size="14" lengthAdjust="spacing" textLength="57.8594" x="186.42" y="72.292">cpf_cnpj</text><line style="stroke:#181818;stroke-width:0.5;" x1="167.42" x2="268.9444" y1="79.5938" y2="79.5938"/></g><!--class ONG--><g class="entity" data-entity="ONG" data-source-line="6" data-uid="ent0003" id="entity_ONG"><rect fill="#F1F1F1" height="64.2969" rx="2.5" ry="2.5" style="stroke:#181818;stroke-width:0.5;" width="65.6895" x="713.34" y="338.49"/><ellipse cx="728.9469" cy="354.49" fill="#ADD1B2" rx="11" ry="11" style="stroke:#181818;stroke-width:1;"/><path d="M731.9156,360.1306 Q731.3375,360.4275 730.6969,360.5681 Q730.0563,360.7244 729.3531,360.7244 Q726.8531,360.7244 725.525,359.0838 Q724.2125,357.4275 724.2125,354.3025 Q724.2125,351.1775 725.525,349.5213 Q726.8531,347.865 729.3531,347.865 Q730.0563,347.865 730.6969,348.0213 Q731.3531,348.1775 731.9156,348.4744 L731.9156,351.1931 Q731.2906,350.615 730.6969,350.3494 Q730.1031,350.0681 729.4781,350.0681 Q728.1344,350.0681 727.4469,351.1463 Q726.7594,352.2088 726.7594,354.3025 Q726.7594,356.3963 727.4469,357.4744 Q728.1344,358.5369 729.4781,358.5369 Q730.1031,358.5369 730.6969,358.2713 Q731.2906,357.99 731.9156,357.4119 L731.9156,360.1306 Z " fill="#000000"/><text fill="#000000" font-family="sans-serif" font-size="14" lengthAdjust="spacing" textLength="32.3408" x="743.0817" y="359.3367">ONG</text><line style="stroke:#181818;stroke-width:0.5;" x1="714.34" x2="778.0295" y1="370.49" y2="370.49"/><rect fill="none" height="6" style="stroke:#C82930;stroke-width:1;" width="6" x="721.34" y="381.1384"/><text fill="#000000" font-family="sans-serif" font-size="14" lengthAdjust="spacing" textLength="39.6895" x="733.34" y="387.4851">nome</text><line style="stroke:#181818;stroke-width:0.5;" x1="714.34" x2="778.0295" y1="394.7869" y2="394.7869"/></g><!--class Voluntario--><g class="entity" data-entity="Voluntario" data-source-line="10" data-uid="ent0004" id="entity_Voluntario"><rect fill="#F1F1F1" height="48" rx="2.5" ry="2.5" style="stroke:#181818;stroke-width:0.5;" width="104.0576" x="166.16" y="180.89"/><ellipse cx="181.16" cy="196.89" fill="#ADD1B2" rx="11" ry="11" style="stroke:#181818;stroke-width:1;"/><path d="M184.1288,202.5306 Q183.5506,202.8275 182.91,202.9681 Q182.2694,203.1244 181.5663,203.1244 Q179.0663,203.1244 177.7381,201.4838 Q176.4256,199.8275 176.4256,196.7025 Q176.4256,193.5775 177.7381,191.9213 Q179.0663,190.265 181.5663,190.265 Q182.2694,190.265 182.91,190.4213 Q183.5663,190.5775 184.1288,190.8744 L184.1288,193.5931 Q183.5038,193.015 182.91,192.7494 Q182.3163,192.4681 181.6913,192.4681 Q180.3475,192.4681 179.66,193.5463 Q178.9725,194.6088 178.9725,196.7025 Q178.9725,198.7963 179.66,199.8744 Q180.3475,200.9369 181.6913,200.9369 Q182.3163,200.9369 182.91,200.6713 Q183.5038,200.39 184.1288,199.8119 L184.1288,202.5306 Z " fill="#000000"/><text fill="#000000" font-family="sans-serif" font-size="14" lengthAdjust="spacing" textLength="72.0576" x="195.16" y="201.7367">Voluntario</text><line style="stroke:#181818;stroke-width:0.5;" x1="167.16" x2="269.2176" y1="212.89" y2="212.89"/><line style="stroke:#181818;stroke-width:0.5;" x1="167.16" x2="269.2176" y1="220.89" y2="220.89"/></g><!--class Campanha--><g class="entity" data-entity="Campanha" data-source-line="14" data-uid="ent0006" id="entity_Campanha"><rect fill="#F1F1F1" height="80.5938" rx="2.5" ry="2.5" style="stroke:#181818;stroke-width:0.5;" width="107.7832" x="678.3" y="496.08"/><ellipse cx="693.3" cy="512.08" fill="#ADD1B2" rx="11" ry="11" style="stroke:#181818;stroke-width:1;"/><path d="M696.2688,517.7206 Q695.6906,518.0175 695.05,518.1581 Q694.4094,518.3144 693.7063,518.3144 Q691.2063,518.3144 689.8781,516.6738 Q688.5656,515.0175 688.5656,511.8925 Q688.5656,508.7675 689.8781,507.1113 Q691.2063,505.455 693.7063,505.455 Q694.4094,505.455 695.05,505.6113 Q695.7063,505.7675 696.2688,506.0644 L696.2688,508.7831 Q695.6438,508.205 695.05,507.9394 Q694.4563,507.6581 693.8313,507.6581 Q692.4875,507.6581 691.8,508.7363 Q691.1125,509.7988 691.1125,511.8925 Q691.1125,513.9863 691.8,515.0644 Q692.4875,516.1269 693.8313,516.1269 Q694.4563,516.1269 695.05,515.8613 Q695.6438,515.58 696.2688,515.0019 L696.2688,517.7206 Z " fill="#000000"/><text fill="#000000" font-family="sans-serif" font-size="14" lengthAdjust="spacing" textLength="75.7832" x="707.3" y="516.9267">Campanha</text><line style="stroke:#181818;stroke-width:0.5;" x1="679.3" x2="785.0832" y1="528.08" y2="528.08"/><rect fill="none" height="6" style="stroke:#C82930;stroke-width:1;" width="6" x="686.3" y="538.7284"/><text fill="#000000" font-family="sans-serif" font-size="14" lengthAdjust="spacing" textLength="39.6895" x="698.3" y="545.0751">nome</text><rect fill="none" height="6" style="stroke:#C82930;stroke-width:1;" width="6" x="686.3" y="555.0253"/><text fill="#000000" font-family="sans-serif" font-size="14" lengthAdjust="spacing" textLength="66.9785" x="698.3" y="561.372">descricao</text><line style="stroke:#181818;stroke-width:0.5;" x1="679.3" x2="785.0832" y1="568.6738" y2="568.6738"/></g><!--class Afiliacao--><g class="entity" data-entity="Afiliacao" data-source-line="19" data-uid="ent0007" id="entity_Afiliacao"><rect fill="#F1F1F1" height="64.2969" rx="2.5" ry="2.5" style="stroke:#181818;stroke-width:0.5;" width="136.5234" x="304.93" y="172.74"/><ellipse cx="340.1475" cy="188.74" fill="#ADD1B2" rx="11" ry="11" style="stroke:#181818;stroke-width:1;"/><path d="M343.1162,194.3806 Q342.5381,194.6775 341.8975,194.8181 Q341.2569,194.9744 340.5537,194.9744 Q338.0537,194.9744 336.7256,193.3338 Q335.4131,191.6775 335.4131,188.5525 Q335.4131,185.4275 336.7256,183.7713 Q338.0537,182.115 340.5537,182.115 Q341.2569,182.115 341.8975,182.2713 Q342.5537,182.4275 343.1162,182.7244 L343.1162,185.4431 Q342.4912,184.865 341.8975,184.5994 Q341.3037,184.3181 340.6787,184.3181 Q339.335,184.3181 338.6475,185.3963 Q337.96,186.4588 337.96,188.5525 Q337.96,190.6463 338.6475,191.7244 Q339.335,192.7869 340.6787,192.7869 Q341.3037,192.7869 341.8975,192.5213 Q342.4912,192.24 343.1162,191.6619 L343.1162,194.3806 Z " fill="#000000"/><text fill="#000000" font-family="sans-serif" font-size="14" lengthAdjust="spacing" textLength="59.5957" x="358.6403" y="193.5867">Afiliacao</text><line style="stroke:#181818;stroke-width:0.5;" x1="305.93" x2="440.4534" y1="204.74" y2="204.74"/><rect fill="none" height="6" style="stroke:#C82930;stroke-width:1;" width="6" x="312.93" y="215.3884"/><text fill="#000000" font-family="sans-serif" font-size="14" lengthAdjust="spacing" textLength="110.5234" x="324.93" y="221.7351">dataDeAfiliacao</text><line style="stroke:#181818;stroke-width:0.5;" x1="305.93" x2="440.4534" y1="229.0369" y2="229.0369"/></g><!--class Perfil--><g class="entity" data-entity="Perfil" data-source-line="23" data-uid="ent0008" id="entity_Perfil"><rect fill="#F1F1F1" height="48" rx="2.5" ry="2.5" style="stroke:#181818;stroke-width:0.5;" width="67.5195" x="577.43" y="653.67"/><ellipse cx="592.43" cy="669.67" fill="#ADD1B2" rx="11" ry="11" style="stroke:#181818;stroke-width:1;"/><path d="M595.3988,675.3106 Q594.8206,675.6075 594.18,675.7481 Q593.5394,675.9044 592.8363,675.9044 Q590.3363,675.9044 589.0081,674.2638 Q587.6956,672.6075 587.6956,669.4825 Q587.6956,666.3575 589.0081,664.7013 Q590.3363,663.045 592.8363,663.045 Q593.5394,663.045 594.18,663.2013 Q594.8363,663.3575 595.3988,663.6544 L595.3988,666.3731 Q594.7738,665.795 594.18,665.5294 Q593.5863,665.2481 592.9613,665.2481 Q591.6175,665.2481 590.93,666.3263 Q590.2425,667.3888 590.2425,669.4825 Q590.2425,671.5763 590.93,672.6544 Q591.6175,673.7169 592.9613,673.7169 Q593.5863,673.7169 594.18,673.4513 Q594.7738,673.17 595.3988,672.5919 L595.3988,675.3106 Z " fill="#000000"/><text fill="#000000" font-family="sans-serif" font-size="14" lengthAdjust="spacing" textLength="35.5195" x="606.43" y="674.5167">Perfil</text><line style="stroke:#181818;stroke-width:0.5;" x1="578.43" x2="643.9495" y1="685.67" y2="685.67"/><line style="stroke:#181818;stroke-width:0.5;" x1="578.43" x2="643.9495" y1="693.67" y2="693.67"/></g><!--class Habilidade--><g class="entity" data-entity="Habilidade" data-source-line="27" data-uid="ent0009" id="entity_Habilidade"><rect fill="#F1F1F1" height="64.2969" rx="2.5" ry="2.5" style="stroke:#181818;stroke-width:0.5;" width="106.6279" x="489.87" y="778.67"/><ellipse cx="504.87" cy="794.67" fill="#ADD1B2" rx="11" ry="11" style="stroke:#181818;stroke-width:1;"/><path d="M507.8388,800.3106 Q507.2606,800.6075 506.62,800.7481 Q505.9794,800.9044 505.2763,800.9044 Q502.7763,800.9044 501.4481,799.2638 Q500.1356,797.6075 500.1356,794.4825 Q500.1356,791.3575 501.4481,789.7013 Q502.7763,788.045 505.2763,788.045 Q505.9794,788.045 506.62,788.2013 Q507.2763,788.3575 507.8388,788.6544 L507.8388,791.3731 Q507.2138,790.795 506.62,790.5294 Q506.0263,790.2481 505.4013,790.2481 Q504.0575,790.2481 503.37,791.3263 Q502.6825,792.3888 502.6825,794.4825 Q502.6825,796.5763 503.37,797.6544 Q504.0575,798.7169 505.4013,798.7169 Q506.0263,798.7169 506.62,798.4513 Q507.2138,798.17 507.8388,797.5919 L507.8388,800.3106 Z " fill="#000000"/><text fill="#000000" font-family="sans-serif" font-size="14" lengthAdjust="spacing" textLength="74.6279" x="518.87" y="799.5167">Habilidade</text><line style="stroke:#181818;stroke-width:0.5;" x1="490.87" x2="595.4979" y1="810.67" y2="810.67"/><rect fill="none" height="6" style="stroke:#C82930;stroke-width:1;" width="6" x="497.87" y="821.3184"/><text fill="#000000" font-family="sans-serif" font-size="14" lengthAdjust="spacing" textLength="66.9785" x="509.87" y="827.6651">descricao</text><line style="stroke:#181818;stroke-width:0.5;" x1="490.87" x2="595.4979" y1="834.9669" y2="834.9669"/></g><!--class Interesse--><g class="entity" data-entity="Interesse" data-source-line="31" data-uid="ent0010" id="entity_Interesse"><rect fill="#F1F1F1" height="64.2969" rx="2.5" ry="2.5" style="stroke:#181818;stroke-width:0.5;" width="96.6748" x="631.85" y="778.67"/><ellipse cx="646.85" cy="794.67" fill="#ADD1B2" rx="11" ry="11" style="stroke:#181818;stroke-width:1;"/><path d="M649.8188,800.3106 Q649.2406,800.6075 648.6,800.7481 Q647.9594,800.9044 647.2563,800.9044 Q644.7563,800.9044 643.4281,799.2638 Q642.1156,797.6075 642.1156,794.4825 Q642.1156,791.3575 643.4281,789.7013 Q644.7563,788.045 647.2563,788.045 Q647.9594,788.045 648.6,788.2013 Q649.2563,788.3575 649.8188,788.6544 L649.8188,791.3731 Q649.1938,790.795 648.6,790.5294 Q648.0063,790.2481 647.3813,790.2481 Q646.0375,790.2481 645.35,791.3263 Q644.6625,792.3888 644.6625,794.4825 Q644.6625,796.5763 645.35,797.6544 Q646.0375,798.7169 647.3813,798.7169 Q648.0063,798.7169 648.6,798.4513 Q649.1938,798.17 649.8188,797.5919 L649.8188,800.3106 Z " fill="#000000"/><text fill="#000000" font-family="sans-serif" font-size="14" lengthAdjust="spacing" textLength="64.6748" x="660.85" y="799.5167">Interesse</text><line style="stroke:#181818;stroke-width:0.5;" x1="632.85" x2="727.5248" y1="810.67" y2="810.67"/><rect fill="none" height="6" style="stroke:#C82930;stroke-width:1;" width="6" x="639.85" y="821.3184"/><text fill="#000000" font-family="sans-serif" font-size="14" lengthAdjust="spacing" textLength="66.9785" x="651.85" y="827.6651">descricao</text><line style="stroke:#181818;stroke-width:0.5;" x1="632.85" x2="727.5248" y1="834.9669" y2="834.9669"/></g><!--class Representante--><g class="entity" data-entity="Representante" data-source-line="35" data-uid="ent0011" id="entity_Representante"><rect fill="#F1F1F1" height="48" rx="2.5" ry="2.5" style="stroke:#181818;stroke-width:0.5;" width="135.4209" x="493.48" y="23.3"/><ellipse cx="508.48" cy="39.3" fill="#ADD1B2" rx="11" ry="11" style="stroke:#181818;stroke-width:1;"/><path d="M511.4488,44.9406 Q510.8706,45.2375 510.23,45.3781 Q509.5894,45.5344 508.8863,45.5344 Q506.3863,45.5344 505.0581,43.8938 Q503.7456,42.2375 503.7456,39.1125 Q503.7456,35.9875 505.0581,34.3313 Q506.3863,32.675 508.8863,32.675 Q509.5894,32.675 510.23,32.8313 Q510.8863,32.9875 511.4488,33.2844 L511.4488,36.0031 Q510.8238,35.425 510.23,35.1594 Q509.6363,34.8781 509.0113,34.8781 Q507.6675,34.8781 506.98,35.9563 Q506.2925,37.0188 506.2925,39.1125 Q506.2925,41.2063 506.98,42.2844 Q507.6675,43.3469 509.0113,43.3469 Q509.6363,43.3469 510.23,43.0813 Q510.8238,42.8 511.4488,42.2219 L511.4488,44.9406 Z " fill="#000000"/><text fill="#000000" font-family="sans-serif" font-size="14" lengthAdjust="spacing" textLength="103.4209" x="522.48" y="44.1467">Representante</text><line style="stroke:#181818;stroke-width:0.5;" x1="494.48" x2="627.9009" y1="55.3" y2="55.3"/><line style="stroke:#181818;stroke-width:0.5;" x1="494.48" x2="627.9009" y1="63.3" y2="63.3"/></g><!--class Email--><g class="entity" data-entity="Email" data-source-line="39" data-uid="ent0012" id="entity_Email"><rect fill="#F1F1F1" height="64.2969" rx="2.5" ry="2.5" style="stroke:#181818;stroke-width:0.5;" width="91.6182" x="271.38" y="338.49"/><ellipse cx="295.7294" cy="354.49" fill="#ADD1B2" rx="11" ry="11" style="stroke:#181818;stroke-width:1;"/><path d="M298.6981,360.1306 Q298.12,360.4275 297.4794,360.5681 Q296.8387,360.7244 296.1356,360.7244 Q293.6356,360.7244 292.3075,359.0838 Q290.995,357.4275 290.995,354.3025 Q290.995,351.1775 292.3075,349.5213 Q293.6356,347.865 296.1356,347.865 Q296.8387,347.865 297.4794,348.0213 Q298.1356,348.1775 298.6981,348.4744 L298.6981,351.1931 Q298.0731,350.615 297.4794,350.3494 Q296.8856,350.0681 296.2606,350.0681 Q294.9169,350.0681 294.2294,351.1463 Q293.5419,352.2088 293.5419,354.3025 Q293.5419,356.3963 294.2294,357.4744 Q294.9169,358.5369 296.2606,358.5369 Q296.8856,358.5369 297.4794,358.2713 Q298.0731,357.99 298.6981,357.4119 L298.6981,360.1306 Z " fill="#000000"/><text fill="#000000" font-family="sans-serif" font-size="14" lengthAdjust="spacing" textLength="38.8418" x="311.807" y="359.3367">Email</text><line style="stroke:#181818;stroke-width:0.5;" x1="272.38" x2="361.9982" y1="370.49" y2="370.49"/><rect fill="none" height="6" style="stroke:#C82930;stroke-width:1;" width="6" x="279.38" y="381.1384"/><text fill="#000000" font-family="sans-serif" font-size="14" lengthAdjust="spacing" textLength="65.6182" x="291.38" y="387.4851">endereco</text><line style="stroke:#181818;stroke-width:0.5;" x1="272.38" x2="361.9982" y1="394.7869" y2="394.7869"/></g><!--class Recomendacao--><g class="entity" data-entity="Recomendacao" data-source-line="43" data-uid="ent0013" id="entity_Recomendacao"><rect fill="#F1F1F1" height="48" rx="2.5" ry="2.5" style="stroke:#181818;stroke-width:0.5;" width="140.0352" x="670.17" y="180.89"/><ellipse cx="685.17" cy="196.89" fill="#ADD1B2" rx="11" ry="11" style="stroke:#181818;stroke-width:1;"/><path d="M688.1388,202.5306 Q687.5606,202.8275 686.92,202.9681 Q686.2794,203.1244 685.5763,203.1244 Q683.0763,203.1244 681.7481,201.4838 Q680.4356,199.8275 680.4356,196.7025 Q680.4356,193.5775 681.7481,191.9213 Q683.0763,190.265 685.5763,190.265 Q686.2794,190.265 686.92,190.4213 Q687.5763,190.5775 688.1388,190.8744 L688.1388,193.5931 Q687.5138,193.015 686.92,192.7494 Q686.3263,192.4681 685.7013,192.4681 Q684.3575,192.4681 683.67,193.5463 Q682.9825,194.6088 682.9825,196.7025 Q682.9825,198.7963 683.67,199.8744 Q684.3575,200.9369 685.7013,200.9369 Q686.3263,200.9369 686.92,200.6713 Q687.5138,200.39 688.1388,199.8119 L688.1388,202.5306 Z " fill="#000000"/><text fill="#000000" font-family="sans-serif" font-size="14" lengthAdjust="spacing" textLength="108.0352" x="699.17" y="201.7367">Recomendacao</text><line style="stroke:#181818;stroke-width:0.5;" x1="671.17" x2="809.2052" y1="212.89" y2="212.89"/><line style="stroke:#181818;stroke-width:0.5;" x1="671.17" x2="809.2052" y1="220.89" y2="220.89"/></g><!--class Aprovacao--><g class="entity" data-entity="Aprovacao" data-source-line="47" data-uid="ent0014" id="entity_Aprovacao"><rect fill="#F1F1F1" height="96.8906" rx="2.5" ry="2.5" style="stroke:#181818;stroke-width:0.5;" width="106.4912" x="416.94" y="322.19"/><ellipse cx="431.94" cy="338.19" fill="#ADD1B2" rx="11" ry="11" style="stroke:#181818;stroke-width:1;"/><path d="M434.9088,343.8306 Q434.3306,344.1275 433.69,344.2681 Q433.0494,344.4244 432.3463,344.4244 Q429.8463,344.4244 428.5181,342.7838 Q427.2056,341.1275 427.2056,338.0025 Q427.2056,334.8775 428.5181,333.2213 Q429.8463,331.565 432.3463,331.565 Q433.0494,331.565 433.69,331.7213 Q434.3463,331.8775 434.9088,332.1744 L434.9088,334.8931 Q434.2838,334.315 433.69,334.0494 Q433.0963,333.7681 432.4713,333.7681 Q431.1275,333.7681 430.44,334.8463 Q429.7525,335.9088 429.7525,338.0025 Q429.7525,340.0963 430.44,341.1744 Q431.1275,342.2369 432.4713,342.2369 Q433.0963,342.2369 433.69,341.9713 Q434.2838,341.69 434.9088,341.1119 L434.9088,343.8306 Z " fill="#000000"/><text fill="#000000" font-family="sans-serif" font-size="14" lengthAdjust="spacing" textLength="74.4912" x="445.94" y="343.0367">Aprovacao</text><line style="stroke:#181818;stroke-width:0.5;" x1="417.94" x2="522.4312" y1="354.19" y2="354.19"/><rect fill="none" height="6" style="stroke:#C82930;stroke-width:1;" width="6" x="424.94" y="364.8384"/><text fill="#000000" font-family="sans-serif" font-size="14" lengthAdjust="spacing" textLength="31.5342" x="436.94" y="371.1851">data</text><rect fill="none" height="6" style="stroke:#C82930;stroke-width:1;" width="6" x="424.94" y="381.1353"/><text fill="#000000" font-family="sans-serif" font-size="14" lengthAdjust="spacing" textLength="43.0186" x="436.94" y="387.482">status</text><rect fill="none" height="6" style="stroke:#C82930;stroke-width:1;" width="6" x="424.94" y="397.4322"/><text fill="#000000" font-family="sans-serif" font-size="14" lengthAdjust="spacing" textLength="48.4326" x="436.94" y="403.7789">motivo</text><line style="stroke:#181818;stroke-width:0.5;" x1="417.94" x2="522.4312" y1="411.0806" y2="411.0806"/></g><!--class CertidaoCNPJ--><g class="entity" data-entity="CertidaoCNPJ" data-source-line="53" data-uid="ent0015" id="entity_CertidaoCNPJ"><rect fill="#F1F1F1" height="80.5938" rx="2.5" ry="2.5" style="stroke:#181818;stroke-width:0.5;" width="124.374" x="7" y="164.59"/><ellipse cx="22" cy="180.59" fill="#ADD1B2" rx="11" ry="11" style="stroke:#181818;stroke-width:1;"/><path d="M24.9688,186.2306 Q24.3906,186.5275 23.75,186.6681 Q23.1094,186.8244 22.4063,186.8244 Q19.9063,186.8244 18.5781,185.1838 Q17.2656,183.5275 17.2656,180.4025 Q17.2656,177.2775 18.5781,175.6213 Q19.9063,173.965 22.4063,173.965 Q23.1094,173.965 23.75,174.1213 Q24.4063,174.2775 24.9688,174.5744 L24.9688,177.2931 Q24.3438,176.715 23.75,176.4494 Q23.1563,176.1681 22.5313,176.1681 Q21.1875,176.1681 20.5,177.2463 Q19.8125,178.3088 19.8125,180.4025 Q19.8125,182.4963 20.5,183.5744 Q21.1875,184.6369 22.5313,184.6369 Q23.1563,184.6369 23.75,184.3713 Q24.3438,184.09 24.9688,183.5119 L24.9688,186.2306 Z " fill="#000000"/><text fill="#000000" font-family="sans-serif" font-size="14" lengthAdjust="spacing" textLength="92.374" x="36" y="185.4367">CertidaoCNPJ</text><line style="stroke:#181818;stroke-width:0.5;" x1="8" x2="130.374" y1="196.59" y2="196.59"/><rect fill="none" height="6" style="stroke:#C82930;stroke-width:1;" width="6" x="15" y="207.2384"/><text fill="#000000" font-family="sans-serif" font-size="14" lengthAdjust="spacing" textLength="93.5225" x="27" y="213.5851">nomeArquivo</text><rect fill="none" height="6" style="stroke:#C82930;stroke-width:1;" width="6" x="15" y="223.5353"/><text fill="#000000" font-family="sans-serif" font-size="14" lengthAdjust="spacing" textLength="26.8311" x="27" y="229.882">tipo</text><line style="stroke:#181818;stroke-width:0.5;" x1="8" x2="130.374" y1="237.1838" y2="237.1838"/></g><!--reverse link Candidato to Voluntario--><g class="link" data-entity-1="Candidato" data-entity-2="Voluntario" data-source-line="11" data-uid="lnk5" id="link_Candidato_Voluntario"><path d="M218.19,105.96 C218.19,135.32 218.19,156.29 218.19,180.73" fill="none" id="Candidato-backto-Voluntario" style="stroke:#181818;stroke-width:1;"/><polygon fill="none" points="218.19,87.96,212.19,105.96,224.19,105.96,218.19,87.96" style="stroke:#181818;stroke-width:1;"/></g><!--link Perfil to Habilidade--><g class="link" data-entity-1="Perfil" data-entity-2="Habilidade" data-source-line="58" data-uid="lnk16" id="link_Perfil_Habilidade"><path codeLine="58" d="M599.03,702.12 C588.03,723.34 571.73,754.76 559.58,778.2" fill="none" id="Perfil-Habilidade" style="stroke:#181818;stroke-width:1;"/><text fill="#000000" font-family="sans-serif" font-size="13" lengthAdjust="spacing" textLength="49.0991" x="584.19" y="744.7369">cont&#233;m</text><text fill="#000000" font-family="sans-serif" font-size="13" lengthAdjust="spacing" textLength="23.0356" x="570.5628" y="721.5907">1..*</text><text fill="#000000" font-family="sans-serif" font-size="13" lengthAdjust="spacing" textLength="23.0356" x="537.5167" y="767.632">1..*</text></g><!--link Perfil to Interesse--><g class="link" data-entity-1="Perfil" data-entity-2="Interesse" data-source-line="59" data-uid="lnk17" id="link_Perfil_Interesse"><path codeLine="59" d="M624.74,702.01 C629.99,711.2 635.97,721.87 641.19,731.67 C649.31,746.93 657.93,764.1 665,778.45" fill="none" id="Perfil-Interesse" style="stroke:#181818;stroke-width:1;"/><text fill="#000000" font-family="sans-serif" font-size="13" lengthAdjust="spacing" textLength="41.6025" x="650.19" y="744.7369">possui</text><text fill="#000000" font-family="sans-serif" font-size="13" lengthAdjust="spacing" textLength="23.0356" x="602.2441" y="721.8541">1..*</text><text fill="#000000" font-family="sans-serif" font-size="13" lengthAdjust="spacing" textLength="23.0356" x="636.7494" y="767.6809">1..*</text></g><!--link Candidato to Afiliacao--><g class="link" data-entity-1="Candidato" data-entity-2="Afiliacao" data-source-line="61" data-uid="lnk18" id="link_Candidato_Afiliacao"><path codeLine="61" d="M257.7,87.96 C283.8,114.16 317.54,148.03 341.8,172.39" fill="none" id="Candidato-Afiliacao" style="stroke:#181818;stroke-width:1;"/><text fill="#000000" font-family="sans-serif" font-size="13" lengthAdjust="spacing" textLength="41.6025" x="301.19" y="130.6569">possui</text><text fill="#000000" font-family="sans-serif" font-size="13" lengthAdjust="spacing" textLength="8.271" x="255.3822" y="107.7135">1</text><text fill="#000000" font-family="sans-serif" font-size="13" lengthAdjust="spacing" textLength="8.271" x="326.8589" y="161.5953">1</text></g><!--link Candidato to CertidaoCNPJ--><g class="link" data-entity-1="Candidato" data-entity-2="CertidaoCNPJ" data-source-line="62" data-uid="lnk19" id="link_Candidato_CertidaoCNPJ"><path codeLine="62" d="M180.2,87.96 C157.79,111.37 129.51,140.9 107.1,164.3" fill="none" id="Candidato-CertidaoCNPJ" style="stroke:#181818;stroke-width:1;"/><text fill="#000000" font-family="sans-serif" font-size="13" lengthAdjust="spacing" textLength="39.8633" x="149.19" y="130.6569">anexa</text><text fill="#000000" font-family="sans-serif" font-size="13" lengthAdjust="spacing" textLength="8.271" x="165.5307" y="107.7135">1</text><text fill="#000000" font-family="sans-serif" font-size="13" lengthAdjust="spacing" textLength="23.0356" x="88.4776" y="153.4135">0..*</text></g><!--link Voluntario to Perfil--><g class="link" data-entity-1="Voluntario" data-entity-2="Perfil" data-source-line="64" data-uid="lnk20" id="link_Voluntario_Perfil"><path codeLine="64" d="M216.61,229.35 C214.94,270.89 216.61,358.68 254.19,419.08 C334.23,547.74 504.4,631.61 577.1,662.9" fill="none" id="Voluntario-Perfil" style="stroke:#181818;stroke-width:1;"/><text fill="#000000" font-family="sans-serif" font-size="13" lengthAdjust="spacing" textLength="41.6025" x="287.19" y="462.1469">possui</text><text fill="#000000" font-family="sans-serif" font-size="13" lengthAdjust="spacing" textLength="8.271" x="207.3512" y="248.823">1</text><text fill="#000000" font-family="sans-serif" font-size="13" lengthAdjust="spacing" textLength="8.271" x="561.2719" y="655.3874">1</text></g><!--reverse link Voluntario to Email--><g class="link" data-entity-1="Voluntario" data-entity-2="Email" data-source-line="65" data-uid="lnk21" id="link_Voluntario_Email"><path codeLine="65" d="M238.5793,239.6186 C255.8493,268.1786 278.88,306.27 298.11,338.08" fill="none" id="Voluntario-backto-Email" style="stroke:#181818;stroke-width:1;"/><polygon fill="#181818" points="232.37,229.35,232.0518,236.5541,238.5793,239.6186,238.8975,232.4145,232.37,229.35" style="stroke:#181818;stroke-width:1;"/><text fill="#000000" font-family="sans-serif" font-size="13" lengthAdjust="spacing" textLength="41.6025" x="269.19" y="288.2569">possui</text><text fill="#000000" font-family="sans-serif" font-size="13" lengthAdjust="spacing" textLength="8.271" x="226.7557" y="248.823">1</text><text fill="#000000" font-family="sans-serif" font-size="13" lengthAdjust="spacing" textLength="8.271" x="285.7364" y="327.5234">1</text></g><!--reverse link ONG to Campanha--><g class="link" data-entity-1="ONG" data-entity-2="Campanha" data-source-line="67" data-uid="lnk22" id="link_ONG_Campanha"><path codeLine="67" d="M742.4661,415.1662 C740.2061,441.5562 738,467.38 735.57,495.79" fill="none" id="ONG-backto-Campanha" style="stroke:#181818;stroke-width:1;"/><polygon fill="#181818" points="743.49,403.21,738.9926,408.8468,742.4661,415.1662,746.9635,409.5294,743.49,403.21" style="stroke:#181818;stroke-width:1;"/><text fill="#000000" font-family="sans-serif" font-size="13" lengthAdjust="spacing" textLength="29.561" x="740.19" y="462.1469">abre</text><text fill="#000000" font-family="sans-serif" font-size="13" lengthAdjust="spacing" textLength="8.271" x="734.2396" y="422.9282">1</text><text fill="#000000" font-family="sans-serif" font-size="13" lengthAdjust="spacing" textLength="23.0356" x="711.2278" y="484.9035">0..*</text></g><!--link Campanha to Perfil--><g class="link" data-entity-1="Campanha" data-entity-2="Perfil" data-source-line="68" data-uid="lnk23" id="link_Campanha_Perfil"><path codeLine="68" d="M697.84,576.92 C676.46,601.53 649.68,632.36 631.6,653.18" fill="none" id="Campanha-Perfil" style="stroke:#181818;stroke-width:1;"/><text fill="#000000" font-family="sans-serif" font-size="13" lengthAdjust="spacing" textLength="49.0991" x="672.19" y="619.7369">cont&#233;m</text><text fill="#000000" font-family="sans-serif" font-size="13" lengthAdjust="spacing" textLength="23.0356" x="667.5352" y="596.6544">1..*</text><text fill="#000000" font-family="sans-serif" font-size="13" lengthAdjust="spacing" textLength="23.0356" x="610.7762" y="642.4655">1..*</text></g><!--link Representante to Afiliacao--><g class="link" data-entity-1="Representante" data-entity-2="Afiliacao" data-source-line="70" data-uid="lnk24" id="link_Representante_Afiliacao"><path codeLine="70" d="M513.9,71.79 C491.86,83.9 465.97,99.84 445.19,117.59 C426.35,133.69 408.48,155.05 395.26,172.5" fill="none" id="Representante-Afiliacao" style="stroke:#181818;stroke-width:1;"/><text fill="#000000" font-family="sans-serif" font-size="13" lengthAdjust="spacing" textLength="38.8159" x="446.19" y="130.6569">avalia</text><text fill="#000000" font-family="sans-serif" font-size="13" lengthAdjust="spacing" textLength="8.271" x="494.0704" y="91.2699">1</text><text fill="#000000" font-family="sans-serif" font-size="13" lengthAdjust="spacing" textLength="23.0356" x="374.3441" y="161.7269">1..*</text></g><!--link Representante to Aprovacao--><g class="link" data-entity-1="Representante" data-entity-2="Aprovacao" data-source-line="71" data-uid="lnk25" id="link_Representante_Aprovacao"><path codeLine="71" d="M554.57,71.67 C539.72,124.09 503.51,251.96 483.69,321.94" fill="none" id="Representante-Aprovacao" style="stroke:#181818;stroke-width:1;"/><text fill="#000000" font-family="sans-serif" font-size="13" lengthAdjust="spacing" textLength="45.7729" x="528.19" y="209.4569">solicita</text><text fill="#000000" font-family="sans-serif" font-size="13" lengthAdjust="spacing" textLength="8.271" x="544.0143" y="91.5214">1</text><text fill="#000000" font-family="sans-serif" font-size="13" lengthAdjust="spacing" textLength="23.0356" x="460.9744" y="311.1138">1..*</text></g><!--link Representante to Perfil--><g class="link" data-entity-1="Representante" data-entity-2="Perfil" data-source-line="72" data-uid="lnk26" id="link_Representante_Perfil"><path codeLine="72" d="M573.8,71.8 C588.62,101.63 611.19,155.09 611.19,203.89 C611.19,203.89 611.19,203.89 611.19,537.38 C611.19,578.25 611.19,625.86 611.19,653.5" fill="none" id="Representante-Perfil" style="stroke:#181818;stroke-width:1;"/><text fill="#000000" font-family="sans-serif" font-size="13" lengthAdjust="spacing" textLength="65.0825" x="612.19" y="375.1969">especifica</text><text fill="#000000" font-family="sans-serif" font-size="13" lengthAdjust="spacing" textLength="8.271" x="567.8223" y="91.2823">1</text><text fill="#000000" font-family="sans-serif" font-size="13" lengthAdjust="spacing" textLength="23.0356" x="585.2478" y="642.4685">1..*</text></g><!--link Representante to Recomendacao--><g class="link" data-entity-1="Representante" data-entity-2="Recomendacao" data-source-line="73" data-uid="lnk27" id="link_Representante_Recomendacao"><path codeLine="73" d="M587.99,71.59 C621.73,100.92 679.37,151.03 713.21,180.44" fill="none" id="Representante-Recomendacao" style="stroke:#181818;stroke-width:1;"/><text fill="#000000" font-family="sans-serif" font-size="13" lengthAdjust="spacing" textLength="45.7729" x="656.19" y="130.6569">solicita</text><text fill="#000000" font-family="sans-serif" font-size="13" lengthAdjust="spacing" textLength="8.271" x="585.5804" y="91.4219">1</text><text fill="#000000" font-family="sans-serif" font-size="13" lengthAdjust="spacing" textLength="23.0356" x="680.8354" y="169.7353">1..*</text></g><!--link Recomendacao to ONG--><g class="link" data-entity-1="Recomendacao" data-entity-2="ONG" data-source-line="75" data-uid="lnk28" id="link_Recomendacao_ONG"><path codeLine="75" d="M741.05,229.35 C742.09,257.91 743.87,306.27 745.03,338.08" fill="none" id="Recomendacao-ONG" style="stroke:#181818;stroke-width:1;"/><text fill="#000000" font-family="sans-serif" font-size="13" lengthAdjust="spacing" textLength="65.6348" x="744.19" y="288.2569">apresenta</text><text fill="#000000" font-family="sans-serif" font-size="13" lengthAdjust="spacing" textLength="23.0356" x="715.5942" y="248.823">0..*</text><text fill="#000000" font-family="sans-serif" font-size="13" lengthAdjust="spacing" textLength="23.0356" x="719.6211" y="327.5234">0..*</text></g><!--link Afiliacao to Aprovacao--><g class="link" data-entity-1="Afiliacao" data-entity-2="Aprovacao" data-source-line="77" data-uid="lnk29" id="link_Afiliacao_Aprovacao"><path codeLine="77" d="M389.6,237.36 C398.39,253.86 409.56,274.29 420.19,292.19 C425.99,301.96 432.42,312.27 438.68,322.06" fill="none" id="Afiliacao-Aprovacao" style="stroke:#181818;stroke-width:1;"/><text fill="#000000" font-family="sans-serif" font-size="13" lengthAdjust="spacing" textLength="63.4131" x="421.19" y="288.2569">passa por</text><text fill="#000000" font-family="sans-serif" font-size="13" lengthAdjust="spacing" textLength="8.271" x="383.9912" y="257.0591">1</text><text fill="#000000" font-family="sans-serif" font-size="13" lengthAdjust="spacing" textLength="8.271" x="425.7061" y="311.2506">1</text></g><!--SRC=[VPFFJiCm3CRlUOgenqcRsBMtQI3-7CR4WIloKay4jKb8qcdIn0Fn7BmONjecAHNjoKf-iVtPNqKDpl4jg4fMu3M_C4xVKka6kqYOuvjGveDzCIO2_BoxvnUUSV7cLTUjyc2bvdZsgAfnvWHkeJ6Wtc5Qha8dh1IW4xmvobe27GqqfODRZCU9tAEbmr6b1pWGLa65yVMqmgFoQD6vEUO53I58yWZkkNHxrq0e75wJS4edHey5ALHLhoBJPgm-_TNMHSw3RrqNDzhBKvPlYzQJABtTxP_o6MxiPti5mu6N9ZpffrAiLwj5mPVB8KgZARdGolzyD_-oSK8bDzgvLZAMDbkiUxH8kuhS5Bi96NC99GU5Ps0iCr2Mj6igPlm3BNegh22rTtLflEvBzgwZSWUBB9fmedOeE4o5ZPSVMmjm9XbEGE4yFIoyv4xNKaW_pm-je3Cev94yEOldHiigi941-t6amT2igFaXAsFfZyjN6wrQyiAG2u5cROjV]--></g></svg>