<svg xmlns="http://www.w3.org/2000/svg" xmlns:xlink="http://www.w3.org/1999/xlink" contentStyleType="text/css" data-diagram-type="CLASS" height="849px" preserveAspectRatio="none" style="width:1038px;height:849px;background:#FFFFFF;" version="1.1" viewBox="0 0 1038 849" width="1038px" zoomAndPan="magnify"><defs/><g><!--class Candidato--><g class="entity" data-entity="Candidato" data-source-line="1" data-uid="ent0002" id="entity_Candidato"><rect fill="#F1F1F1" height="80.5938" rx="2.5" ry="2.5" style="stroke:#181818;stroke-width:0.5;" width="103.5244" x="652.26" y="7"/><ellipse cx="667.26" cy="23" fill="#ADD1B2" rx="11" ry="11" style="stroke:#181818;stroke-width:1;"/><path d="M670.2288,28.6406 Q669.6506,28.9375 669.01,29.0781 Q668.3694,29.2344 667.6663,29.2344 Q665.1663,29.2344 663.8381,27.5938 Q662.5256,25.9375 662.5256,22.8125 Q662.5256,19.6875 663.8381,18.0313 Q665.1663,16.375 667.6663,16.375 Q668.3694,16.375 669.01,16.5313 Q669.6663,16.6875 670.2288,16.9844 L670.2288,19.7031 Q669.6038,19.125 669.01,18.8594 Q668.4163,18.5781 667.7913,18.5781 Q666.4475,18.5781 665.76,19.6563 Q665.0725,20.7188 665.0725,22.8125 Q665.0725,24.9063 665.76,25.9844 Q666.4475,27.0469 667.7913,27.0469 Q668.4163,27.0469 669.01,26.7813 Q669.6038,26.5 670.2288,25.9219 L670.2288,28.6406 Z " fill="#000000"/><text fill="#000000" font-family="sans-serif" font-size="14" lengthAdjust="spacing" textLength="71.5244" x="681.26" y="27.8467">Candidato</text><line style="stroke:#181818;stroke-width:0.5;" x1="653.26" x2="754.7844" y1="39" y2="39"/><rect fill="none" height="6" style="stroke:#C82930;stroke-width:1;" width="6" x="660.26" y="49.6484"/><text fill="#000000" font-family="sans-serif" font-size="14" lengthAdjust="spacing" textLength="39.6895" x="672.26" y="55.9951">nome</text><rect fill="none" height="6" style="stroke:#C82930;stroke-width:1;" width="6" x="660.26" y="65.9453"/><text fill="#000000" font-family="sans-serif" font-size="14" lengthAdjust="spacing" textLength="57.8594" x="672.26" y="72.292">cpf_cnpj</text><line style="stroke:#181818;stroke-width:0.5;" x1="653.26" x2="754.7844" y1="79.5938" y2="79.5938"/></g><!--class ONG--><g class="entity" data-entity="ONG" data-source-line="6" data-uid="ent0003" id="entity_ONG"><rect fill="#F1F1F1" height="64.2969" rx="2.5" ry="2.5" style="stroke:#181818;stroke-width:0.5;" width="65.6895" x="50.17" y="338.49"/><ellipse cx="65.7769" cy="354.49" fill="#ADD1B2" rx="11" ry="11" style="stroke:#181818;stroke-width:1;"/><path d="M68.7456,360.1306 Q68.1675,360.4275 67.5269,360.5681 Q66.8863,360.7244 66.1831,360.7244 Q63.6831,360.7244 62.355,359.0838 Q61.0425,357.4275 61.0425,354.3025 Q61.0425,351.1775 62.355,349.5213 Q63.6831,347.865 66.1831,347.865 Q66.8863,347.865 67.5269,348.0213 Q68.1831,348.1775 68.7456,348.4744 L68.7456,351.1931 Q68.1206,350.615 67.5269,350.3494 Q66.9331,350.0681 66.3081,350.0681 Q64.9644,350.0681 64.2769,351.1463 Q63.5894,352.2088 63.5894,354.3025 Q63.5894,356.3963 64.2769,357.4744 Q64.9644,358.5369 66.3081,358.5369 Q66.9331,358.5369 67.5269,358.2713 Q68.1206,357.99 68.7456,357.4119 L68.7456,360.1306 Z " fill="#000000"/><text fill="#000000" font-family="sans-serif" font-size="14" lengthAdjust="spacing" textLength="32.3408" x="79.9117" y="359.3367">ONG</text><line style="stroke:#181818;stroke-width:0.5;" x1="51.17" x2="114.8595" y1="370.49" y2="370.49"/><rect fill="none" height="6" style="stroke:#C82930;stroke-width:1;" width="6" x="58.17" y="381.1384"/><text fill="#000000" font-family="sans-serif" font-size="14" lengthAdjust="spacing" textLength="39.6895" x="70.17" y="387.4851">nome</text><line style="stroke:#181818;stroke-width:0.5;" x1="51.17" x2="114.8595" y1="394.7869" y2="394.7869"/></g><!--class Voluntario--><g class="entity" data-entity="Voluntario" data-source-line="10" data-uid="ent0004" id="entity_Voluntario"><rect fill="#F1F1F1" height="48" rx="2.5" ry="2.5" style="stroke:#181818;stroke-width:0.5;" width="104.0576" x="540.99" y="180.89"/><ellipse cx="555.99" cy="196.89" fill="#ADD1B2" rx="11" ry="11" style="stroke:#181818;stroke-width:1;"/><path d="M558.9588,202.5306 Q558.3806,202.8275 557.74,202.9681 Q557.0994,203.1244 556.3963,203.1244 Q553.8963,203.1244 552.5681,201.4838 Q551.2556,199.8275 551.2556,196.7025 Q551.2556,193.5775 552.5681,191.9213 Q553.8963,190.265 556.3963,190.265 Q557.0994,190.265 557.74,190.4213 Q558.3963,190.5775 558.9588,190.8744 L558.9588,193.5931 Q558.3338,193.015 557.74,192.7494 Q557.1463,192.4681 556.5213,192.4681 Q555.1775,192.4681 554.49,193.5463 Q553.8025,194.6088 553.8025,196.7025 Q553.8025,198.7963 554.49,199.8744 Q555.1775,200.9369 556.5213,200.9369 Q557.1463,200.9369 557.74,200.6713 Q558.3338,200.39 558.9588,199.8119 L558.9588,202.5306 Z " fill="#000000"/><text fill="#000000" font-family="sans-serif" font-size="14" lengthAdjust="spacing" textLength="72.0576" x="569.99" y="201.7367">Voluntario</text><line style="stroke:#181818;stroke-width:0.5;" x1="541.99" x2="644.0476" y1="212.89" y2="212.89"/><line style="stroke:#181818;stroke-width:0.5;" x1="541.99" x2="644.0476" y1="220.89" y2="220.89"/></g><!--class Campanha--><g class="entity" data-entity="Campanha" data-source-line="14" data-uid="ent0006" id="entity_Campanha"><rect fill="#F1F1F1" height="80.5938" rx="2.5" ry="2.5" style="stroke:#181818;stroke-width:0.5;" width="107.7832" x="38.13" y="496.08"/><ellipse cx="53.13" cy="512.08" fill="#ADD1B2" rx="11" ry="11" style="stroke:#181818;stroke-width:1;"/><path d="M56.0987,517.7206 Q55.5206,518.0175 54.88,518.1581 Q54.2394,518.3144 53.5362,518.3144 Q51.0362,518.3144 49.7081,516.6738 Q48.3956,515.0175 48.3956,511.8925 Q48.3956,508.7675 49.7081,507.1113 Q51.0362,505.455 53.5362,505.455 Q54.2394,505.455 54.88,505.6113 Q55.5362,505.7675 56.0987,506.0644 L56.0987,508.7831 Q55.4737,508.205 54.88,507.9394 Q54.2862,507.6581 53.6612,507.6581 Q52.3175,507.6581 51.63,508.7363 Q50.9425,509.7988 50.9425,511.8925 Q50.9425,513.9863 51.63,515.0644 Q52.3175,516.1269 53.6612,516.1269 Q54.2862,516.1269 54.88,515.8613 Q55.4737,515.58 56.0987,515.0019 L56.0987,517.7206 Z " fill="#000000"/><text fill="#000000" font-family="sans-serif" font-size="14" lengthAdjust="spacing" textLength="75.7832" x="67.13" y="516.9267">Campanha</text><line style="stroke:#181818;stroke-width:0.5;" x1="39.13" x2="144.9132" y1="528.08" y2="528.08"/><rect fill="none" height="6" style="stroke:#C82930;stroke-width:1;" width="6" x="46.13" y="538.7284"/><text fill="#000000" font-family="sans-serif" font-size="14" lengthAdjust="spacing" textLength="39.6895" x="58.13" y="545.0751">nome</text><rect fill="none" height="6" style="stroke:#C82930;stroke-width:1;" width="6" x="46.13" y="555.0253"/><text fill="#000000" font-family="sans-serif" font-size="14" lengthAdjust="spacing" textLength="66.9785" x="58.13" y="561.372">descricao</text><line style="stroke:#181818;stroke-width:0.5;" x1="39.13" x2="144.9132" y1="568.6738" y2="568.6738"/></g><!--class Afiliacao--><g class="entity" data-entity="Afiliacao" data-source-line="19" data-uid="ent0007" id="entity_Afiliacao"><rect fill="#F1F1F1" height="64.2969" rx="2.5" ry="2.5" style="stroke:#181818;stroke-width:0.5;" width="136.5234" x="369.76" y="172.74"/><ellipse cx="404.9775" cy="188.74" fill="#ADD1B2" rx="11" ry="11" style="stroke:#181818;stroke-width:1;"/><path d="M407.9462,194.3806 Q407.3681,194.6775 406.7275,194.8181 Q406.0869,194.9744 405.3837,194.9744 Q402.8837,194.9744 401.5556,193.3338 Q400.2431,191.6775 400.2431,188.5525 Q400.2431,185.4275 401.5556,183.7713 Q402.8837,182.115 405.3837,182.115 Q406.0869,182.115 406.7275,182.2713 Q407.3837,182.4275 407.9462,182.7244 L407.9462,185.4431 Q407.3212,184.865 406.7275,184.5994 Q406.1337,184.3181 405.5087,184.3181 Q404.165,184.3181 403.4775,185.3963 Q402.79,186.4588 402.79,188.5525 Q402.79,190.6463 403.4775,191.7244 Q404.165,192.7869 405.5087,192.7869 Q406.1337,192.7869 406.7275,192.5213 Q407.3212,192.24 407.9462,191.6619 L407.9462,194.3806 Z " fill="#000000"/><text fill="#000000" font-family="sans-serif" font-size="14" lengthAdjust="spacing" textLength="59.5957" x="423.4703" y="193.5867">Afiliacao</text><line style="stroke:#181818;stroke-width:0.5;" x1="370.76" x2="505.2834" y1="204.74" y2="204.74"/><rect fill="none" height="6" style="stroke:#C82930;stroke-width:1;" width="6" x="377.76" y="215.3884"/><text fill="#000000" font-family="sans-serif" font-size="14" lengthAdjust="spacing" textLength="110.5234" x="389.76" y="221.7351">dataDeAfiliacao</text><line style="stroke:#181818;stroke-width:0.5;" x1="370.76" x2="505.2834" y1="229.0369" y2="229.0369"/></g><!--class Perfil--><g class="entity" data-entity="Perfil" data-source-line="23" data-uid="ent0008" id="entity_Perfil"><rect fill="#F1F1F1" height="48" rx="2.5" ry="2.5" style="stroke:#181818;stroke-width:0.5;" width="67.5195" x="166.26" y="653.67"/><ellipse cx="181.26" cy="669.67" fill="#ADD1B2" rx="11" ry="11" style="stroke:#181818;stroke-width:1;"/><path d="M184.2288,675.3106 Q183.6506,675.6075 183.01,675.7481 Q182.3694,675.9044 181.6663,675.9044 Q179.1663,675.9044 177.8381,674.2638 Q176.5256,672.6075 176.5256,669.4825 Q176.5256,666.3575 177.8381,664.7013 Q179.1663,663.045 181.6663,663.045 Q182.3694,663.045 183.01,663.2013 Q183.6663,663.3575 184.2288,663.6544 L184.2288,666.3731 Q183.6038,665.795 183.01,665.5294 Q182.4163,665.2481 181.7913,665.2481 Q180.4475,665.2481 179.76,666.3263 Q179.0725,667.3888 179.0725,669.4825 Q179.0725,671.5763 179.76,672.6544 Q180.4475,673.7169 181.7913,673.7169 Q182.4163,673.7169 183.01,673.4513 Q183.6038,673.17 184.2288,672.5919 L184.2288,675.3106 Z " fill="#000000"/><text fill="#000000" font-family="sans-serif" font-size="14" lengthAdjust="spacing" textLength="35.5195" x="195.26" y="674.5167">Perfil</text><line style="stroke:#181818;stroke-width:0.5;" x1="167.26" x2="232.7795" y1="685.67" y2="685.67"/><line style="stroke:#181818;stroke-width:0.5;" x1="167.26" x2="232.7795" y1="693.67" y2="693.67"/></g><!--class Habilidade--><g class="entity" data-entity="Habilidade" data-source-line="27" data-uid="ent0009" id="entity_Habilidade"><rect fill="#F1F1F1" height="64.2969" rx="2.5" ry="2.5" style="stroke:#181818;stroke-width:0.5;" width="106.6279" x="78.7" y="778.67"/><ellipse cx="93.7" cy="794.67" fill="#ADD1B2" rx="11" ry="11" style="stroke:#181818;stroke-width:1;"/><path d="M96.6688,800.3106 Q96.0906,800.6075 95.45,800.7481 Q94.8094,800.9044 94.1063,800.9044 Q91.6063,800.9044 90.2781,799.2638 Q88.9656,797.6075 88.9656,794.4825 Q88.9656,791.3575 90.2781,789.7013 Q91.6063,788.045 94.1063,788.045 Q94.8094,788.045 95.45,788.2013 Q96.1063,788.3575 96.6688,788.6544 L96.6688,791.3731 Q96.0438,790.795 95.45,790.5294 Q94.8563,790.2481 94.2313,790.2481 Q92.8875,790.2481 92.2,791.3263 Q91.5125,792.3888 91.5125,794.4825 Q91.5125,796.5763 92.2,797.6544 Q92.8875,798.7169 94.2313,798.7169 Q94.8563,798.7169 95.45,798.4513 Q96.0438,798.17 96.6688,797.5919 L96.6688,800.3106 Z " fill="#000000"/><text fill="#000000" font-family="sans-serif" font-size="14" lengthAdjust="spacing" textLength="74.6279" x="107.7" y="799.5167">Habilidade</text><line style="stroke:#181818;stroke-width:0.5;" x1="79.7" x2="184.3279" y1="810.67" y2="810.67"/><rect fill="none" height="6" style="stroke:#C82930;stroke-width:1;" width="6" x="86.7" y="821.3184"/><text fill="#000000" font-family="sans-serif" font-size="14" lengthAdjust="spacing" textLength="66.9785" x="98.7" y="827.6651">descricao</text><line style="stroke:#181818;stroke-width:0.5;" x1="79.7" x2="184.3279" y1="834.9669" y2="834.9669"/></g><!--class Interesse--><g class="entity" data-entity="Interesse" data-source-line="31" data-uid="ent0010" id="entity_Interesse"><rect fill="#F1F1F1" height="64.2969" rx="2.5" ry="2.5" style="stroke:#181818;stroke-width:0.5;" width="96.6748" x="220.68" y="778.67"/><ellipse cx="235.68" cy="794.67" fill="#ADD1B2" rx="11" ry="11" style="stroke:#181818;stroke-width:1;"/><path d="M238.6488,800.3106 Q238.0706,800.6075 237.43,800.7481 Q236.7894,800.9044 236.0863,800.9044 Q233.5863,800.9044 232.2581,799.2638 Q230.9456,797.6075 230.9456,794.4825 Q230.9456,791.3575 232.2581,789.7013 Q233.5863,788.045 236.0863,788.045 Q236.7894,788.045 237.43,788.2013 Q238.0863,788.3575 238.6488,788.6544 L238.6488,791.3731 Q238.0238,790.795 237.43,790.5294 Q236.8363,790.2481 236.2113,790.2481 Q234.8675,790.2481 234.18,791.3263 Q233.4925,792.3888 233.4925,794.4825 Q233.4925,796.5763 234.18,797.6544 Q234.8675,798.7169 236.2113,798.7169 Q236.8363,798.7169 237.43,798.4513 Q238.0238,798.17 238.6488,797.5919 L238.6488,800.3106 Z " fill="#000000"/><text fill="#000000" font-family="sans-serif" font-size="14" lengthAdjust="spacing" textLength="64.6748" x="249.68" y="799.5167">Interesse</text><line style="stroke:#181818;stroke-width:0.5;" x1="221.68" x2="316.3548" y1="810.67" y2="810.67"/><rect fill="none" height="6" style="stroke:#C82930;stroke-width:1;" width="6" x="228.68" y="821.3184"/><text fill="#000000" font-family="sans-serif" font-size="14" lengthAdjust="spacing" textLength="66.9785" x="240.68" y="827.6651">descricao</text><line style="stroke:#181818;stroke-width:0.5;" x1="221.68" x2="316.3548" y1="834.9669" y2="834.9669"/></g><!--class Representante--><g class="entity" data-entity="Representante" data-source-line="35" data-uid="ent0011" id="entity_Representante"><rect fill="#F1F1F1" height="48" rx="2.5" ry="2.5" style="stroke:#181818;stroke-width:0.5;" width="135.4209" x="176.31" y="23.3"/><ellipse cx="191.31" cy="39.3" fill="#ADD1B2" rx="11" ry="11" style="stroke:#181818;stroke-width:1;"/><path d="M194.2788,44.9406 Q193.7006,45.2375 193.06,45.3781 Q192.4194,45.5344 191.7163,45.5344 Q189.2163,45.5344 187.8881,43.8938 Q186.5756,42.2375 186.5756,39.1125 Q186.5756,35.9875 187.8881,34.3313 Q189.2163,32.675 191.7163,32.675 Q192.4194,32.675 193.06,32.8313 Q193.7163,32.9875 194.2788,33.2844 L194.2788,36.0031 Q193.6538,35.425 193.06,35.1594 Q192.4663,34.8781 191.8413,34.8781 Q190.4975,34.8781 189.81,35.9563 Q189.1225,37.0188 189.1225,39.1125 Q189.1225,41.2063 189.81,42.2844 Q190.4975,43.3469 191.8413,43.3469 Q192.4663,43.3469 193.06,43.0813 Q193.6538,42.8 194.2788,42.2219 L194.2788,44.9406 Z " fill="#000000"/><text fill="#000000" font-family="sans-serif" font-size="14" lengthAdjust="spacing" textLength="103.4209" x="205.31" y="44.1467">Representante</text><line style="stroke:#181818;stroke-width:0.5;" x1="177.31" x2="310.7309" y1="55.3" y2="55.3"/><line style="stroke:#181818;stroke-width:0.5;" x1="177.31" x2="310.7309" y1="63.3" y2="63.3"/></g><!--class Email--><g class="entity" data-entity="Email" data-source-line="39" data-uid="ent0012" id="entity_Email"><rect fill="#F1F1F1" height="64.2969" rx="2.5" ry="2.5" style="stroke:#181818;stroke-width:0.5;" width="91.6182" x="547.21" y="338.49"/><ellipse cx="571.5594" cy="354.49" fill="#ADD1B2" rx="11" ry="11" style="stroke:#181818;stroke-width:1;"/><path d="M574.5281,360.1306 Q573.95,360.4275 573.3094,360.5681 Q572.6687,360.7244 571.9656,360.7244 Q569.4656,360.7244 568.1375,359.0838 Q566.825,357.4275 566.825,354.3025 Q566.825,351.1775 568.1375,349.5213 Q569.4656,347.865 571.9656,347.865 Q572.6687,347.865 573.3094,348.0213 Q573.9656,348.1775 574.5281,348.4744 L574.5281,351.1931 Q573.9031,350.615 573.3094,350.3494 Q572.7156,350.0681 572.0906,350.0681 Q570.7469,350.0681 570.0594,351.1463 Q569.3719,352.2088 569.3719,354.3025 Q569.3719,356.3963 570.0594,357.4744 Q570.7469,358.5369 572.0906,358.5369 Q572.7156,358.5369 573.3094,358.2713 Q573.9031,357.99 574.5281,357.4119 L574.5281,360.1306 Z " fill="#000000"/><text fill="#000000" font-family="sans-serif" font-size="14" lengthAdjust="spacing" textLength="38.8418" x="587.637" y="359.3367">Email</text><line style="stroke:#181818;stroke-width:0.5;" x1="548.21" x2="637.8282" y1="370.49" y2="370.49"/><rect fill="none" height="6" style="stroke:#C82930;stroke-width:1;" width="6" x="555.21" y="381.1384"/><text fill="#000000" font-family="sans-serif" font-size="14" lengthAdjust="spacing" textLength="65.6182" x="567.21" y="387.4851">endereco</text><line style="stroke:#181818;stroke-width:0.5;" x1="548.21" x2="637.8282" y1="394.7869" y2="394.7869"/></g><!--class Recomendacao--><g class="entity" data-entity="Recomendacao" data-source-line="43" data-uid="ent0013" id="entity_Recomendacao"><rect fill="#F1F1F1" height="48" rx="2.5" ry="2.5" style="stroke:#181818;stroke-width:0.5;" width="140.0352" x="7" y="180.89"/><ellipse cx="22" cy="196.89" fill="#ADD1B2" rx="11" ry="11" style="stroke:#181818;stroke-width:1;"/><path d="M24.9688,202.5306 Q24.3906,202.8275 23.75,202.9681 Q23.1094,203.1244 22.4063,203.1244 Q19.9063,203.1244 18.5781,201.4838 Q17.2656,199.8275 17.2656,196.7025 Q17.2656,193.5775 18.5781,191.9213 Q19.9063,190.265 22.4063,190.265 Q23.1094,190.265 23.75,190.4213 Q24.4063,190.5775 24.9688,190.8744 L24.9688,193.5931 Q24.3438,193.015 23.75,192.7494 Q23.1563,192.4681 22.5313,192.4681 Q21.1875,192.4681 20.5,193.5463 Q19.8125,194.6088 19.8125,196.7025 Q19.8125,198.7963 20.5,199.8744 Q21.1875,200.9369 22.5313,200.9369 Q23.1563,200.9369 23.75,200.6713 Q24.3438,200.39 24.9688,199.8119 L24.9688,202.5306 Z " fill="#000000"/><text fill="#000000" font-family="sans-serif" font-size="14" lengthAdjust="spacing" textLength="108.0352" x="36" y="201.7367">Recomendacao</text><line style="stroke:#181818;stroke-width:0.5;" x1="8" x2="146.0352" y1="212.89" y2="212.89"/><line style="stroke:#181818;stroke-width:0.5;" x1="8" x2="146.0352" y1="220.89" y2="220.89"/></g><!--class Aprovacao--><g class="entity" data-entity="Aprovacao" data-source-line="47" data-uid="ent0014" id="entity_Aprovacao"><rect fill="#F1F1F1" height="96.8906" rx="2.5" ry="2.5" style="stroke:#181818;stroke-width:0.5;" width="106.4912" x="310.77" y="322.19"/><ellipse cx="325.77" cy="338.19" fill="#ADD1B2" rx="11" ry="11" style="stroke:#181818;stroke-width:1;"/><path d="M328.7388,343.8306 Q328.1606,344.1275 327.52,344.2681 Q326.8794,344.4244 326.1763,344.4244 Q323.6763,344.4244 322.3481,342.7838 Q321.0356,341.1275 321.0356,338.0025 Q321.0356,334.8775 322.3481,333.2213 Q323.6763,331.565 326.1763,331.565 Q326.8794,331.565 327.52,331.7213 Q328.1763,331.8775 328.7388,332.1744 L328.7388,334.8931 Q328.1138,334.315 327.52,334.0494 Q326.9263,333.7681 326.3013,333.7681 Q324.9575,333.7681 324.27,334.8463 Q323.5825,335.9088 323.5825,338.0025 Q323.5825,340.0963 324.27,341.1744 Q324.9575,342.2369 326.3013,342.2369 Q326.9263,342.2369 327.52,341.9713 Q328.1138,341.69 328.7388,341.1119 L328.7388,343.8306 Z " fill="#000000"/><text fill="#000000" font-family="sans-serif" font-size="14" lengthAdjust="spacing" textLength="74.4912" x="339.77" y="343.0367">Aprovacao</text><line style="stroke:#181818;stroke-width:0.5;" x1="311.77" x2="416.2612" y1="354.19" y2="354.19"/><rect fill="none" height="6" style="stroke:#C82930;stroke-width:1;" width="6" x="318.77" y="364.8384"/><text fill="#000000" font-family="sans-serif" font-size="14" lengthAdjust="spacing" textLength="31.5342" x="330.77" y="371.1851">data</text><rect fill="none" height="6" style="stroke:#C82930;stroke-width:1;" width="6" x="318.77" y="381.1353"/><text fill="#000000" font-family="sans-serif" font-size="14" lengthAdjust="spacing" textLength="43.0186" x="330.77" y="387.482">status</text><rect fill="none" height="6" style="stroke:#C82930;stroke-width:1;" width="6" x="318.77" y="397.4322"/><text fill="#000000" font-family="sans-serif" font-size="14" lengthAdjust="spacing" textLength="48.4326" x="330.77" y="403.7789">motivo</text><line style="stroke:#181818;stroke-width:0.5;" x1="311.77" x2="416.2612" y1="411.0806" y2="411.0806"/></g><!--class CertidaoCNPJ--><g class="entity" data-entity="CertidaoCNPJ" data-source-line="53" data-uid="ent0015" id="entity_CertidaoCNPJ"><rect fill="#F1F1F1" height="80.5938" rx="2.5" ry="2.5" style="stroke:#181818;stroke-width:0.5;" width="124.374" x="679.83" y="164.59"/><ellipse cx="694.83" cy="180.59" fill="#ADD1B2" rx="11" ry="11" style="stroke:#181818;stroke-width:1;"/><path d="M697.7988,186.2306 Q697.2206,186.5275 696.58,186.6681 Q695.9394,186.8244 695.2363,186.8244 Q692.7363,186.8244 691.4081,185.1838 Q690.0956,183.5275 690.0956,180.4025 Q690.0956,177.2775 691.4081,175.6213 Q692.7363,173.965 695.2363,173.965 Q695.9394,173.965 696.58,174.1213 Q697.2363,174.2775 697.7988,174.5744 L697.7988,177.2931 Q697.1738,176.715 696.58,176.4494 Q695.9863,176.1681 695.3613,176.1681 Q694.0175,176.1681 693.33,177.2463 Q692.6425,178.3088 692.6425,180.4025 Q692.6425,182.4963 693.33,183.5744 Q694.0175,184.6369 695.3613,184.6369 Q695.9863,184.6369 696.58,184.3713 Q697.1738,184.09 697.7988,183.5119 L697.7988,186.2306 Z " fill="#000000"/><text fill="#000000" font-family="sans-serif" font-size="14" lengthAdjust="spacing" textLength="92.374" x="708.83" y="185.4367">CertidaoCNPJ</text><line style="stroke:#181818;stroke-width:0.5;" x1="680.83" x2="803.204" y1="196.59" y2="196.59"/><rect fill="none" height="6" style="stroke:#C82930;stroke-width:1;" width="6" x="687.83" y="207.2384"/><text fill="#000000" font-family="sans-serif" font-size="14" lengthAdjust="spacing" textLength="93.5225" x="699.83" y="213.5851">nomeArquivo</text><rect fill="none" height="6" style="stroke:#C82930;stroke-width:1;" width="6" x="687.83" y="223.5353"/><text fill="#000000" font-family="sans-serif" font-size="14" lengthAdjust="spacing" textLength="26.8311" x="699.83" y="229.882">tipo</text><line style="stroke:#181818;stroke-width:0.5;" x1="680.83" x2="803.204" y1="237.1838" y2="237.1838"/></g><!--class TermoDeCompromisso--><g class="entity" data-entity="TermoDeCompromisso" data-source-line="58" data-uid="ent0016" id="entity_TermoDeCompromisso"><rect fill="#F1F1F1" height="64.2969" rx="2.5" ry="2.5" style="stroke:#181818;stroke-width:0.5;" width="192.3848" x="838.83" y="172.74"/><ellipse cx="853.83" cy="188.74" fill="#ADD1B2" rx="11" ry="11" style="stroke:#181818;stroke-width:1;"/><path d="M856.7988,194.3806 Q856.2206,194.6775 855.58,194.8181 Q854.9394,194.9744 854.2363,194.9744 Q851.7363,194.9744 850.4081,193.3338 Q849.0956,191.6775 849.0956,188.5525 Q849.0956,185.4275 850.4081,183.7713 Q851.7363,182.115 854.2363,182.115 Q854.9394,182.115 855.58,182.2713 Q856.2363,182.4275 856.7988,182.7244 L856.7988,185.4431 Q856.1738,184.865 855.58,184.5994 Q854.9863,184.3181 854.3613,184.3181 Q853.0175,184.3181 852.33,185.3963 Q851.6425,186.4588 851.6425,188.5525 Q851.6425,190.6463 852.33,191.7244 Q853.0175,192.7869 854.3613,192.7869 Q854.9863,192.7869 855.58,192.5213 Q856.1738,192.24 856.7988,191.6619 L856.7988,194.3806 Z " fill="#000000"/><text fill="#000000" font-family="sans-serif" font-size="14" lengthAdjust="spacing" textLength="160.3848" x="867.83" y="193.5867">TermoDeCompromisso</text><line style="stroke:#181818;stroke-width:0.5;" x1="839.83" x2="1030.2148" y1="204.74" y2="204.74"/><rect fill="none" height="6" style="stroke:#C82930;stroke-width:1;" width="6" x="846.83" y="215.3884"/><text fill="#000000" font-family="sans-serif" font-size="14" lengthAdjust="spacing" textLength="36.4424" x="858.83" y="221.7351">texto</text><line style="stroke:#181818;stroke-width:0.5;" x1="839.83" x2="1030.2148" y1="229.0369" y2="229.0369"/></g><!--reverse link Candidato to Voluntario--><g class="link" data-entity-1="Candidato" data-entity-2="Voluntario" data-source-line="11" data-uid="lnk5" id="link_Candidato_Voluntario"><path d="M665.2681,102.6146 C644.3281,131.9746 626.98,156.29 609.54,180.73" fill="none" id="Candidato-backto-Voluntario" style="stroke:#181818;stroke-width:1;"/><polygon fill="none" points="675.72,87.96,660.3832,99.1307,670.153,106.0986,675.72,87.96" style="stroke:#181818;stroke-width:1;"/></g><!--link Perfil to Habilidade--><g class="link" data-entity-1="Perfil" data-entity-2="Habilidade" data-source-line="62" data-uid="lnk17" id="link_Perfil_Habilidade"><path codeLine="62" d="M187.86,702.12 C176.86,723.34 160.56,754.76 148.41,778.2" fill="none" id="Perfil-Habilidade" style="stroke:#181818;stroke-width:1;"/><text fill="#000000" font-family="sans-serif" font-size="13" lengthAdjust="spacing" textLength="49.0991" x="174.02" y="744.7369">cont&#233;m</text><text fill="#000000" font-family="sans-serif" font-size="13" lengthAdjust="spacing" textLength="23.0356" x="159.3928" y="721.5907">1..*</text><text fill="#000000" font-family="sans-serif" font-size="13" lengthAdjust="spacing" textLength="23.0356" x="126.3467" y="767.632">1..*</text></g><!--link Perfil to Interesse--><g class="link" data-entity-1="Perfil" data-entity-2="Interesse" data-source-line="63" data-uid="lnk18" id="link_Perfil_Interesse"><path codeLine="63" d="M213.57,702.01 C218.82,711.2 224.8,721.87 230.02,731.67 C238.14,746.93 246.76,764.1 253.83,778.45" fill="none" id="Perfil-Interesse" style="stroke:#181818;stroke-width:1;"/><text fill="#000000" font-family="sans-serif" font-size="13" lengthAdjust="spacing" textLength="41.6025" x="240.02" y="744.7369">possui</text><text fill="#000000" font-family="sans-serif" font-size="13" lengthAdjust="spacing" textLength="23.0356" x="191.0741" y="721.8541">1..*</text><text fill="#000000" font-family="sans-serif" font-size="13" lengthAdjust="spacing" textLength="23.0356" x="225.5794" y="767.6809">1..*</text></g><!--link Candidato to Afiliacao--><g class="link" data-entity-1="Candidato" data-entity-2="Afiliacao" data-source-line="65" data-uid="lnk19" id="link_Candidato_Afiliacao"><path codeLine="65" d="M651.78,78.85 C605.64,105.85 538.61,145.05 491.96,172.34" fill="none" id="Candidato-Afiliacao" style="stroke:#181818;stroke-width:1;"/><text fill="#000000" font-family="sans-serif" font-size="13" lengthAdjust="spacing" textLength="41.6025" x="580.02" y="130.6569">possui</text><text fill="#000000" font-family="sans-serif" font-size="13" lengthAdjust="spacing" textLength="8.271" x="635.89" y="79.3087">1</text><text fill="#000000" font-family="sans-serif" font-size="13" lengthAdjust="spacing" textLength="8.271" x="493.5053" y="161.7853">1</text></g><!--link Candidato to CertidaoCNPJ--><g class="link" data-entity-1="Candidato" data-entity-2="CertidaoCNPJ" data-source-line="66" data-uid="lnk20" id="link_Candidato_CertidaoCNPJ"><path codeLine="66" d="M713.7,87.96 C719.42,111.37 726.63,140.9 732.35,164.3" fill="none" id="Candidato-CertidaoCNPJ" style="stroke:#181818;stroke-width:1;"/><text fill="#000000" font-family="sans-serif" font-size="13" lengthAdjust="spacing" textLength="39.8633" x="726.02" y="130.6569">anexa</text><text fill="#000000" font-family="sans-serif" font-size="13" lengthAdjust="spacing" textLength="8.271" x="706.6265" y="107.7135">1</text><text fill="#000000" font-family="sans-serif" font-size="13" lengthAdjust="spacing" textLength="23.0356" x="705.8472" y="153.4135">0..*</text></g><!--link Candidato to TermoDeCompromisso--><g class="link" data-entity-1="Candidato" data-entity-2="TermoDeCompromisso" data-source-line="67" data-uid="lnk21" id="link_Candidato_TermoDeCompromisso"><path codeLine="67" d="M756.15,83.41 C795.8,110.12 849.89,146.55 888.18,172.34" fill="none" id="Candidato-TermoDeCompromisso" style="stroke:#181818;stroke-width:1;"/><text fill="#000000" font-family="sans-serif" font-size="13" lengthAdjust="spacing" textLength="39.7871" x="828.02" y="130.6569">aceita</text><text fill="#000000" font-family="sans-serif" font-size="13" lengthAdjust="spacing" textLength="8.271" x="763.7104" y="84.3307">1</text><text fill="#000000" font-family="sans-serif" font-size="13" lengthAdjust="spacing" textLength="8.271" x="870.514" y="161.7853">1</text></g><!--link Voluntario to Perfil--><g class="link" data-entity-1="Voluntario" data-entity-2="Perfil" data-source-line="69" data-uid="lnk22" id="link_Voluntario_Perfil"><path codeLine="69" d="M576.93,229.19 C549.15,269.03 489.91,352.39 435.02,419.08 C361.15,508.82 265.9,608.84 222.89,653.25" fill="none" id="Voluntario-Perfil" style="stroke:#181818;stroke-width:1;"/><text fill="#000000" font-family="sans-serif" font-size="13" lengthAdjust="spacing" textLength="41.6025" x="411.02" y="462.1469">possui</text><text fill="#000000" font-family="sans-serif" font-size="13" lengthAdjust="spacing" textLength="8.271" x="564.0664" y="249.0243">1</text><text fill="#000000" font-family="sans-serif" font-size="13" lengthAdjust="spacing" textLength="8.271" x="219.5226" y="642.5526">1</text></g><!--reverse link Voluntario to Email--><g class="link" data-entity-1="Voluntario" data-entity-2="Email" data-source-line="70" data-uid="lnk23" id="link_Voluntario_Email"><path codeLine="70" d="M593.02,241.35 C593.02,269.91 593.02,306.27 593.02,338.08" fill="none" id="Voluntario-backto-Email" style="stroke:#181818;stroke-width:1;"/><polygon fill="#181818" points="593.02,229.35,589.02,235.35,593.02,241.35,597.02,235.35,593.02,229.35" style="stroke:#181818;stroke-width:1;"/><text fill="#000000" font-family="sans-serif" font-size="13" lengthAdjust="spacing" textLength="41.6025" x="594.02" y="288.2569">possui</text><text fill="#000000" font-family="sans-serif" font-size="13" lengthAdjust="spacing" textLength="8.271" x="584.1266" y="248.823">1</text><text fill="#000000" font-family="sans-serif" font-size="13" lengthAdjust="spacing" textLength="8.271" x="584.2835" y="327.5234">1</text></g><!--reverse link ONG to Campanha--><g class="link" data-entity-1="ONG" data-entity-2="Campanha" data-source-line="72" data-uid="lnk24" id="link_ONG_Campanha"><path codeLine="72" d="M85.4083,415.1919 C86.8583,441.5819 88.28,467.38 89.84,495.79" fill="none" id="ONG-backto-Campanha" style="stroke:#181818;stroke-width:1;"/><polygon fill="#181818" points="84.75,403.21,81.0852,409.4204,85.4083,415.1919,89.0731,408.9815,84.75,403.21" style="stroke:#181818;stroke-width:1;"/><text fill="#000000" font-family="sans-serif" font-size="13" lengthAdjust="spacing" textLength="29.561" x="90.02" y="462.1469">abre</text><text fill="#000000" font-family="sans-serif" font-size="13" lengthAdjust="spacing" textLength="8.271" x="76.3441" y="422.9282">1</text><text fill="#000000" font-family="sans-serif" font-size="13" lengthAdjust="spacing" textLength="23.0356" x="64.5769" y="484.9035">0..*</text></g><!--link Campanha to Perfil--><g class="link" data-entity-1="Campanha" data-entity-2="Perfil" data-source-line="73" data-uid="lnk25" id="link_Campanha_Perfil"><path codeLine="73" d="M100.6,576.9 C105.37,592.57 112.53,610.05 123.02,623.67 C134.41,638.46 151.1,650.65 166.04,659.61" fill="none" id="Campanha-Perfil" style="stroke:#181818;stroke-width:1;"/><text fill="#000000" font-family="sans-serif" font-size="13" lengthAdjust="spacing" textLength="49.0991" x="124.02" y="619.7369">cont&#233;m</text><text fill="#000000" font-family="sans-serif" font-size="13" lengthAdjust="spacing" textLength="23.0356" x="77.1372" y="596.6312">1..*</text><text fill="#000000" font-family="sans-serif" font-size="13" lengthAdjust="spacing" textLength="23.0356" x="135.2262" y="652.2952">1..*</text></g><!--link Representante to Afiliacao--><g class="link" data-entity-1="Representante" data-entity-2="Afiliacao" data-source-line="75" data-uid="lnk26" id="link_Representante_Afiliacao"><path codeLine="75" d="M273.06,71.59 C306.46,98.38 361.47,142.5 398.69,172.35" fill="none" id="Representante-Afiliacao" style="stroke:#181818;stroke-width:1;"/><text fill="#000000" font-family="sans-serif" font-size="13" lengthAdjust="spacing" textLength="38.8159" x="348.02" y="130.6569">avalia</text><text fill="#000000" font-family="sans-serif" font-size="13" lengthAdjust="spacing" textLength="8.271" x="271.1964" y="91.4219">1</text><text fill="#000000" font-family="sans-serif" font-size="13" lengthAdjust="spacing" textLength="23.0356" x="366.0036" y="161.7972">1..*</text></g><!--link Representante to Aprovacao--><g class="link" data-entity-1="Representante" data-entity-2="Aprovacao" data-source-line="76" data-uid="lnk27" id="link_Representante_Aprovacao"><path codeLine="76" d="M250.11,71.7 C260.06,108.96 281.11,183.84 305.02,245.19 C315.09,271.03 328.15,299.01 339.42,321.87" fill="none" id="Representante-Aprovacao" style="stroke:#181818;stroke-width:1;"/><text fill="#000000" font-family="sans-serif" font-size="13" lengthAdjust="spacing" textLength="45.7729" x="306.02" y="209.4569">solicita</text><text fill="#000000" font-family="sans-serif" font-size="13" lengthAdjust="spacing" textLength="8.271" x="242.6524" y="91.5587">1</text><text fill="#000000" font-family="sans-serif" font-size="13" lengthAdjust="spacing" textLength="23.0356" x="311.3466" y="311.0339">1..*</text></g><!--link Representante to Perfil--><g class="link" data-entity-1="Representante" data-entity-2="Perfil" data-source-line="77" data-uid="lnk28" id="link_Representante_Perfil"><path codeLine="77" d="M233.03,71.7 C220,101.66 200.02,155.47 200.02,203.89 C200.02,203.89 200.02,203.89 200.02,537.38 C200.02,578.25 200.02,625.86 200.02,653.5" fill="none" id="Representante-Perfil" style="stroke:#181818;stroke-width:1;"/><text fill="#000000" font-family="sans-serif" font-size="13" lengthAdjust="spacing" textLength="65.0825" x="201.02" y="375.1969">especifica</text><text fill="#000000" font-family="sans-serif" font-size="13" lengthAdjust="spacing" textLength="8.271" x="221.4091" y="91.5587">1</text><text fill="#000000" font-family="sans-serif" font-size="13" lengthAdjust="spacing" textLength="23.0356" x="174.0778" y="642.4685">1..*</text></g><!--link Representante to Recomendacao--><g class="link" data-entity-1="Representante" data-entity-2="Recomendacao" data-source-line="78" data-uid="lnk29" id="link_Representante_Recomendacao"><path codeLine="78" d="M191.97,71.73 C170.12,83.34 145.54,98.89 127.02,117.59 C108.98,135.8 95.09,161.8 86.58,180.5" fill="none" id="Representante-Recomendacao" style="stroke:#181818;stroke-width:1;"/><text fill="#000000" font-family="sans-serif" font-size="13" lengthAdjust="spacing" textLength="45.7729" x="128.02" y="130.6569">solicita</text><text fill="#000000" font-family="sans-serif" font-size="13" lengthAdjust="spacing" textLength="8.271" x="171.0397" y="91.1961">1</text><text fill="#000000" font-family="sans-serif" font-size="13" lengthAdjust="spacing" textLength="23.0356" x="63.1121" y="169.8099">1..*</text></g><!--link Recomendacao to ONG--><g class="link" data-entity-1="Recomendacao" data-entity-2="ONG" data-source-line="80" data-uid="lnk30" id="link_Recomendacao_ONG"><path codeLine="80" d="M77.88,229.35 C78.92,257.91 80.7,306.27 81.86,338.08" fill="none" id="Recomendacao-ONG" style="stroke:#181818;stroke-width:1;"/><text fill="#000000" font-family="sans-serif" font-size="13" lengthAdjust="spacing" textLength="65.6348" x="81.02" y="288.2569">apresenta</text><text fill="#000000" font-family="sans-serif" font-size="13" lengthAdjust="spacing" textLength="23.0356" x="52.4242" y="248.823">0..*</text><text fill="#000000" font-family="sans-serif" font-size="13" lengthAdjust="spacing" textLength="23.0356" x="56.4511" y="327.5234">0..*</text></g><!--link Afiliacao to Aprovacao--><g class="link" data-entity-1="Afiliacao" data-entity-2="Aprovacao" data-source-line="82" data-uid="lnk31" id="link_Afiliacao_Aprovacao"><path codeLine="82" d="M416.24,237.43 C408.87,248.98 401,262.36 395.02,275.19 C388.16,289.89 382.16,306.53 377.31,321.7" fill="none" id="Afiliacao-Aprovacao" style="stroke:#181818;stroke-width:1;"/><text fill="#000000" font-family="sans-serif" font-size="13" lengthAdjust="spacing" textLength="63.4131" x="396.02" y="288.2569">passa por</text><text fill="#000000" font-family="sans-serif" font-size="13" lengthAdjust="spacing" textLength="8.271" x="403.3512" y="257.1425">1</text><text fill="#000000" font-family="sans-serif" font-size="13" lengthAdjust="spacing" textLength="8.271" x="370.5771" y="311.1923">1</text></g><!--SRC=[VPDDRiCW48Ntd09v6IbHi_KkSgh-BDAeghgj9dYYKjb00KUHeXwev-Z5El4FuBYDLmW-PkOzdaK5pl42L2bBy9gV6ATlhdIDtKgO_PjGveDzCIPQ-6bpnqyyuSB9gwuQvS5ApV7eKPNZoX4ie3QWtc7QhaGdh1IW8xpQoqe2RGqqbOCrXkr8Rj7IvgZJFUm8Aw74S7lQuK5vjEZSDUOP3I58yWZkkNXwMqFRkBrDmgcS65qMf52LlOf4cx7wSAcjMpaFld7TkjPU7f9w1LfFedInsJwc7gxiPtC6smqlJNBb1MsjrrZecbhMqhdGqjDRjM1lNxPSB6OPdy-7LVGmvq8h__DT_yi6AtDkj7EDP2n685lsQ1OVDN1JxAQjc6hDEIWymjybfme95oZ9K9OaCxdHYGWJN42pdchVDievnpySzoFsSQP-Euiif7lYpj1mS96DKnL6Q-748ZW0BQ_JGv9oxdGbnLdsDNuO1Pr18VSKzgjuck2a0nibkxSZ6aDUqV13LSRYhvn68Vm3ESyCPHN8Qvlz0W00]--></g></svg>