<svg xmlns="http://www.w3.org/2000/svg" xmlns:xlink="http://www.w3.org/1999/xlink" contentStyleType="text/css" data-diagram-type="CLASS" height="1100px" preserveAspectRatio="none" style="width:980px;height:1100px;background:#FFFFFF;" version="1.1" viewBox="0 0 980 1100" width="980px" zoomAndPan="magnify"><defs/><g><!--class Entidade--><g class="entity" data-entity="Entidade" data-source-line="1" data-uid="ent0002" id="entity_Entidade"><rect fill="#F1F1F1" height="64.2969" rx="2.5" ry="2.5" style="stroke:#181818;stroke-width:0.5;" width="94.0635" x="414.97" y="7"/><ellipse cx="429.97" cy="23" fill="#ADD1B2" rx="11" ry="11" style="stroke:#181818;stroke-width:1;"/><path d="M432.9388,28.6406 Q432.3606,28.9375 431.72,29.0781 Q431.0794,29.2344 430.3763,29.2344 Q427.8763,29.2344 426.5481,27.5938 Q425.2356,25.9375 425.2356,22.8125 Q425.2356,19.6875 426.5481,18.0313 Q427.8763,16.375 430.3763,16.375 Q431.0794,16.375 431.72,16.5313 Q432.3763,16.6875 432.9388,16.9844 L432.9388,19.7031 Q432.3138,19.125 431.72,18.8594 Q431.1263,18.5781 430.5013,18.5781 Q429.1575,18.5781 428.47,19.6563 Q427.7825,20.7188 427.7825,22.8125 Q427.7825,24.9063 428.47,25.9844 Q429.1575,27.0469 430.5013,27.0469 Q431.1263,27.0469 431.72,26.7813 Q432.3138,26.5 432.9388,25.9219 L432.9388,28.6406 Z " fill="#000000"/><text fill="#000000" font-family="sans-serif" font-size="14" lengthAdjust="spacing" textLength="62.0635" x="443.97" y="27.8467">Entidade</text><line style="stroke:#181818;stroke-width:0.5;" x1="415.97" x2="508.0335" y1="39" y2="39"/><rect fill="none" height="6" style="stroke:#C82930;stroke-width:1;" width="6" x="422.97" y="49.6484"/><text fill="#000000" font-family="sans-serif" font-size="14" lengthAdjust="spacing" textLength="39.6895" x="434.97" y="55.9951">nome</text><line style="stroke:#181818;stroke-width:0.5;" x1="415.97" x2="508.0335" y1="63.2969" y2="63.2969"/></g><!--class Papel--><g class="entity" data-entity="Papel" data-source-line="5" data-uid="ent0003" id="entity_Papel"><rect fill="#F1F1F1" height="48" rx="2.5" ry="2.5" style="stroke:#181818;stroke-width:0.5;" width="70.4111" x="360.79" y="156.45"/><ellipse cx="375.79" cy="172.45" fill="#ADD1B2" rx="11" ry="11" style="stroke:#181818;stroke-width:1;"/><path d="M378.7588,178.0906 Q378.1806,178.3875 377.54,178.5281 Q376.8994,178.6844 376.1963,178.6844 Q373.6963,178.6844 372.3681,177.0437 Q371.0556,175.3875 371.0556,172.2625 Q371.0556,169.1375 372.3681,167.4812 Q373.6963,165.825 376.1963,165.825 Q376.8994,165.825 377.54,165.9812 Q378.1963,166.1375 378.7588,166.4344 L378.7588,169.1531 Q378.1338,168.575 377.54,168.3094 Q376.9463,168.0281 376.3213,168.0281 Q374.9775,168.0281 374.29,169.1062 Q373.6025,170.1687 373.6025,172.2625 Q373.6025,174.3562 374.29,175.4344 Q374.9775,176.4969 376.3213,176.4969 Q376.9463,176.4969 377.54,176.2312 Q378.1338,175.95 378.7588,175.3719 L378.7588,178.0906 Z " fill="#000000"/><text fill="#000000" font-family="sans-serif" font-size="14" lengthAdjust="spacing" textLength="38.4111" x="389.79" y="177.2967">Papel</text><line style="stroke:#181818;stroke-width:0.5;" x1="361.79" x2="430.2011" y1="188.45" y2="188.45"/><line style="stroke:#181818;stroke-width:0.5;" x1="361.79" x2="430.2011" y1="196.45" y2="196.45"/></g><!--class Pessoa--><g class="entity" data-entity="Pessoa" data-source-line="7" data-uid="ent0004" id="entity_Pessoa"><rect fill="#F1F1F1" height="48" rx="2.5" ry="2.5" style="stroke:#181818;stroke-width:0.5;" width="80.7881" x="475.61" y="156.45"/><ellipse cx="490.61" cy="172.45" fill="#ADD1B2" rx="11" ry="11" style="stroke:#181818;stroke-width:1;"/><path d="M493.5788,178.0906 Q493.0006,178.3875 492.36,178.5281 Q491.7194,178.6844 491.0163,178.6844 Q488.5163,178.6844 487.1881,177.0437 Q485.8756,175.3875 485.8756,172.2625 Q485.8756,169.1375 487.1881,167.4812 Q488.5163,165.825 491.0163,165.825 Q491.7194,165.825 492.36,165.9812 Q493.0163,166.1375 493.5788,166.4344 L493.5788,169.1531 Q492.9538,168.575 492.36,168.3094 Q491.7663,168.0281 491.1413,168.0281 Q489.7975,168.0281 489.11,169.1062 Q488.4225,170.1687 488.4225,172.2625 Q488.4225,174.3562 489.11,175.4344 Q489.7975,176.4969 491.1413,176.4969 Q491.7663,176.4969 492.36,176.2312 Q492.9538,175.95 493.5788,175.3719 L493.5788,178.0906 Z " fill="#000000"/><text fill="#000000" font-family="sans-serif" font-size="14" lengthAdjust="spacing" textLength="48.7881" x="504.61" y="177.2967">Pessoa</text><line style="stroke:#181818;stroke-width:0.5;" x1="476.61" x2="555.3981" y1="188.45" y2="188.45"/><line style="stroke:#181818;stroke-width:0.5;" x1="476.61" x2="555.3981" y1="196.45" y2="196.45"/></g><!--class Fisica--><g class="entity" data-entity="Fisica" data-source-line="9" data-uid="ent0005" id="entity_Fisica"><rect fill="#F1F1F1" height="64.2969" rx="2.5" ry="2.5" style="stroke:#181818;stroke-width:0.5;" width="71.4023" x="602.3" y="273.6"/><ellipse cx="617.3" cy="289.6" fill="#ADD1B2" rx="11" ry="11" style="stroke:#181818;stroke-width:1;"/><path d="M620.2688,295.2406 Q619.6906,295.5375 619.05,295.6781 Q618.4094,295.8344 617.7063,295.8344 Q615.2063,295.8344 613.8781,294.1938 Q612.5656,292.5375 612.5656,289.4125 Q612.5656,286.2875 613.8781,284.6313 Q615.2063,282.975 617.7063,282.975 Q618.4094,282.975 619.05,283.1313 Q619.7063,283.2875 620.2688,283.5844 L620.2688,286.3031 Q619.6438,285.725 619.05,285.4594 Q618.4563,285.1781 617.8313,285.1781 Q616.4875,285.1781 615.8,286.2563 Q615.1125,287.3188 615.1125,289.4125 Q615.1125,291.5063 615.8,292.5844 Q616.4875,293.6469 617.8313,293.6469 Q618.4563,293.6469 619.05,293.3813 Q619.6438,293.1 620.2688,292.5219 L620.2688,295.2406 Z " fill="#000000"/><text fill="#000000" font-family="sans-serif" font-size="14" lengthAdjust="spacing" textLength="39.4023" x="631.3" y="294.4467">Fisica</text><line style="stroke:#181818;stroke-width:0.5;" x1="603.3" x2="672.7023" y1="305.6" y2="305.6"/><rect fill="none" height="6" style="stroke:#C82930;stroke-width:1;" width="6" x="610.3" y="316.2484"/><text fill="#000000" font-family="sans-serif" font-size="14" lengthAdjust="spacing" textLength="21.5127" x="622.3" y="322.5951">cpf</text><line style="stroke:#181818;stroke-width:0.5;" x1="603.3" x2="672.7023" y1="329.8969" y2="329.8969"/></g><!--class Juridica--><g class="entity" data-entity="Juridica" data-source-line="13" data-uid="ent0007" id="entity_Juridica"><rect fill="#F1F1F1" height="64.2969" rx="2.5" ry="2.5" style="stroke:#181818;stroke-width:0.5;" width="83.7002" x="483.15" y="273.6"/><ellipse cx="498.15" cy="289.6" fill="#ADD1B2" rx="11" ry="11" style="stroke:#181818;stroke-width:1;"/><path d="M501.1188,295.2406 Q500.5406,295.5375 499.9,295.6781 Q499.2594,295.8344 498.5563,295.8344 Q496.0563,295.8344 494.7281,294.1938 Q493.4156,292.5375 493.4156,289.4125 Q493.4156,286.2875 494.7281,284.6313 Q496.0563,282.975 498.5563,282.975 Q499.2594,282.975 499.9,283.1313 Q500.5563,283.2875 501.1188,283.5844 L501.1188,286.3031 Q500.4938,285.725 499.9,285.4594 Q499.3063,285.1781 498.6813,285.1781 Q497.3375,285.1781 496.65,286.2563 Q495.9625,287.3188 495.9625,289.4125 Q495.9625,291.5063 496.65,292.5844 Q497.3375,293.6469 498.6813,293.6469 Q499.3063,293.6469 499.9,293.3813 Q500.4938,293.1 501.1188,292.5219 L501.1188,295.2406 Z " fill="#000000"/><text fill="#000000" font-family="sans-serif" font-size="14" lengthAdjust="spacing" textLength="51.7002" x="512.15" y="294.4467">Juridica</text><line style="stroke:#181818;stroke-width:0.5;" x1="484.15" x2="565.8502" y1="305.6" y2="305.6"/><rect fill="none" height="6" style="stroke:#C82930;stroke-width:1;" width="6" x="491.15" y="316.2484"/><text fill="#000000" font-family="sans-serif" font-size="14" lengthAdjust="spacing" textLength="29.3467" x="503.15" y="322.5951">cnpj</text><line style="stroke:#181818;stroke-width:0.5;" x1="484.15" x2="565.8502" y1="329.8969" y2="329.8969"/></g><!--class Candidato--><g class="entity" data-entity="Candidato" data-source-line="17" data-uid="ent0009" id="entity_Candidato"><rect fill="#F1F1F1" height="48" rx="2.5" ry="2.5" style="stroke:#181818;stroke-width:0.5;" width="103.5244" x="205.24" y="281.75"/><ellipse cx="220.24" cy="297.75" fill="#ADD1B2" rx="11" ry="11" style="stroke:#181818;stroke-width:1;"/><path d="M223.2088,303.3906 Q222.6306,303.6875 221.99,303.8281 Q221.3494,303.9844 220.6463,303.9844 Q218.1463,303.9844 216.8181,302.3438 Q215.5056,300.6875 215.5056,297.5625 Q215.5056,294.4375 216.8181,292.7813 Q218.1463,291.125 220.6463,291.125 Q221.3494,291.125 221.99,291.2813 Q222.6463,291.4375 223.2088,291.7344 L223.2088,294.4531 Q222.5838,293.875 221.99,293.6094 Q221.3963,293.3281 220.7713,293.3281 Q219.4275,293.3281 218.74,294.4063 Q218.0525,295.4688 218.0525,297.5625 Q218.0525,299.6563 218.74,300.7344 Q219.4275,301.7969 220.7713,301.7969 Q221.3963,301.7969 221.99,301.5313 Q222.5838,301.25 223.2088,300.6719 L223.2088,303.3906 Z " fill="#000000"/><text fill="#000000" font-family="sans-serif" font-size="14" lengthAdjust="spacing" textLength="71.5244" x="234.24" y="302.5967">Candidato</text><line style="stroke:#181818;stroke-width:0.5;" x1="206.24" x2="307.7644" y1="313.75" y2="313.75"/><line style="stroke:#181818;stroke-width:0.5;" x1="206.24" x2="307.7644" y1="321.75" y2="321.75"/></g><!--class ONG--><g class="entity" data-entity="ONG" data-source-line="20" data-uid="ent0011" id="entity_ONG"><rect fill="#F1F1F1" height="64.2969" rx="2.5" ry="2.5" style="stroke:#181818;stroke-width:0.5;" width="65.6895" x="878.16" y="588.79"/><ellipse cx="893.7669" cy="604.79" fill="#ADD1B2" rx="11" ry="11" style="stroke:#181818;stroke-width:1;"/><path d="M896.7356,610.4306 Q896.1575,610.7275 895.5169,610.8681 Q894.8763,611.0244 894.1731,611.0244 Q891.6731,611.0244 890.345,609.3838 Q889.0325,607.7275 889.0325,604.6025 Q889.0325,601.4775 890.345,599.8213 Q891.6731,598.165 894.1731,598.165 Q894.8763,598.165 895.5169,598.3213 Q896.1731,598.4775 896.7356,598.7744 L896.7356,601.4931 Q896.1106,600.915 895.5169,600.6494 Q894.9231,600.3681 894.2981,600.3681 Q892.9544,600.3681 892.2669,601.4463 Q891.5794,602.5088 891.5794,604.6025 Q891.5794,606.6963 892.2669,607.7744 Q892.9544,608.8369 894.2981,608.8369 Q894.9231,608.8369 895.5169,608.5713 Q896.1106,608.29 896.7356,607.7119 L896.7356,610.4306 Z " fill="#000000"/><text fill="#000000" font-family="sans-serif" font-size="14" lengthAdjust="spacing" textLength="32.3408" x="907.9017" y="609.6367">ONG</text><line style="stroke:#181818;stroke-width:0.5;" x1="879.16" x2="942.8495" y1="620.79" y2="620.79"/><rect fill="none" height="6" style="stroke:#C82930;stroke-width:1;" width="6" x="886.16" y="631.4384"/><text fill="#000000" font-family="sans-serif" font-size="14" lengthAdjust="spacing" textLength="39.6895" x="898.16" y="637.7851">nome</text><line style="stroke:#181818;stroke-width:0.5;" x1="879.16" x2="942.8495" y1="645.0869" y2="645.0869"/></g><!--class Voluntario--><g class="entity" data-entity="Voluntario" data-source-line="24" data-uid="ent0012" id="entity_Voluntario"><rect fill="#F1F1F1" height="48" rx="2.5" ry="2.5" style="stroke:#181818;stroke-width:0.5;" width="104.0576" x="343.97" y="281.75"/><ellipse cx="358.97" cy="297.75" fill="#ADD1B2" rx="11" ry="11" style="stroke:#181818;stroke-width:1;"/><path d="M361.9388,303.3906 Q361.3606,303.6875 360.72,303.8281 Q360.0794,303.9844 359.3763,303.9844 Q356.8763,303.9844 355.5481,302.3438 Q354.2356,300.6875 354.2356,297.5625 Q354.2356,294.4375 355.5481,292.7813 Q356.8763,291.125 359.3763,291.125 Q360.0794,291.125 360.72,291.2813 Q361.3763,291.4375 361.9388,291.7344 L361.9388,294.4531 Q361.3138,293.875 360.72,293.6094 Q360.1263,293.3281 359.5013,293.3281 Q358.1575,293.3281 357.47,294.4063 Q356.7825,295.4688 356.7825,297.5625 Q356.7825,299.6563 357.47,300.7344 Q358.1575,301.7969 359.5013,301.7969 Q360.1263,301.7969 360.72,301.5313 Q361.3138,301.25 361.9388,300.6719 L361.9388,303.3906 Z " fill="#000000"/><text fill="#000000" font-family="sans-serif" font-size="14" lengthAdjust="spacing" textLength="72.0576" x="372.97" y="302.5967">Voluntario</text><line style="stroke:#181818;stroke-width:0.5;" x1="344.97" x2="447.0276" y1="313.75" y2="313.75"/><line style="stroke:#181818;stroke-width:0.5;" x1="344.97" x2="447.0276" y1="321.75" y2="321.75"/></g><!--class Campanha--><g class="entity" data-entity="Campanha" data-source-line="28" data-uid="ent0014" id="entity_Campanha"><rect fill="#F1F1F1" height="80.5938" rx="2.5" ry="2.5" style="stroke:#181818;stroke-width:0.5;" width="107.7832" x="843.11" y="746.38"/><ellipse cx="858.11" cy="762.38" fill="#ADD1B2" rx="11" ry="11" style="stroke:#181818;stroke-width:1;"/><path d="M861.0788,768.0206 Q860.5006,768.3175 859.86,768.4581 Q859.2194,768.6144 858.5163,768.6144 Q856.0163,768.6144 854.6881,766.9738 Q853.3756,765.3175 853.3756,762.1925 Q853.3756,759.0675 854.6881,757.4113 Q856.0163,755.755 858.5163,755.755 Q859.2194,755.755 859.86,755.9113 Q860.5163,756.0675 861.0788,756.3644 L861.0788,759.0831 Q860.4538,758.505 859.86,758.2394 Q859.2663,757.9581 858.6413,757.9581 Q857.2975,757.9581 856.61,759.0363 Q855.9225,760.0988 855.9225,762.1925 Q855.9225,764.2863 856.61,765.3644 Q857.2975,766.4269 858.6413,766.4269 Q859.2663,766.4269 859.86,766.1613 Q860.4538,765.88 861.0788,765.3019 L861.0788,768.0206 Z " fill="#000000"/><text fill="#000000" font-family="sans-serif" font-size="14" lengthAdjust="spacing" textLength="75.7832" x="872.11" y="767.2267">Campanha</text><line style="stroke:#181818;stroke-width:0.5;" x1="844.11" x2="949.8932" y1="778.38" y2="778.38"/><rect fill="none" height="6" style="stroke:#C82930;stroke-width:1;" width="6" x="851.11" y="789.0284"/><text fill="#000000" font-family="sans-serif" font-size="14" lengthAdjust="spacing" textLength="39.6895" x="863.11" y="795.3751">nome</text><rect fill="none" height="6" style="stroke:#C82930;stroke-width:1;" width="6" x="851.11" y="805.3253"/><text fill="#000000" font-family="sans-serif" font-size="14" lengthAdjust="spacing" textLength="66.9785" x="863.11" y="811.672">descricao</text><line style="stroke:#181818;stroke-width:0.5;" x1="844.11" x2="949.8932" y1="818.9738" y2="818.9738"/></g><!--class Afiliacao--><g class="entity" data-entity="Afiliacao" data-source-line="33" data-uid="ent0015" id="entity_Afiliacao"><rect fill="#F1F1F1" height="64.2969" rx="2.5" ry="2.5" style="stroke:#181818;stroke-width:0.5;" width="136.5234" x="469.74" y="423.04"/><ellipse cx="504.9575" cy="439.04" fill="#ADD1B2" rx="11" ry="11" style="stroke:#181818;stroke-width:1;"/><path d="M507.9262,444.6806 Q507.3481,444.9775 506.7075,445.1181 Q506.0669,445.2744 505.3637,445.2744 Q502.8637,445.2744 501.5356,443.6337 Q500.2231,441.9775 500.2231,438.8525 Q500.2231,435.7275 501.5356,434.0712 Q502.8637,432.415 505.3637,432.415 Q506.0669,432.415 506.7075,432.5712 Q507.3637,432.7275 507.9262,433.0244 L507.9262,435.7431 Q507.3012,435.165 506.7075,434.8994 Q506.1137,434.6181 505.4887,434.6181 Q504.145,434.6181 503.4575,435.6962 Q502.77,436.7587 502.77,438.8525 Q502.77,440.9462 503.4575,442.0244 Q504.145,443.0869 505.4887,443.0869 Q506.1137,443.0869 506.7075,442.8212 Q507.3012,442.54 507.9262,441.9619 L507.9262,444.6806 Z " fill="#000000"/><text fill="#000000" font-family="sans-serif" font-size="14" lengthAdjust="spacing" textLength="59.5957" x="523.4503" y="443.8867">Afiliacao</text><line style="stroke:#181818;stroke-width:0.5;" x1="470.74" x2="605.2634" y1="455.04" y2="455.04"/><rect fill="none" height="6" style="stroke:#C82930;stroke-width:1;" width="6" x="477.74" y="465.6884"/><text fill="#000000" font-family="sans-serif" font-size="14" lengthAdjust="spacing" textLength="110.5234" x="489.74" y="472.0351">dataDeAfiliacao</text><line style="stroke:#181818;stroke-width:0.5;" x1="470.74" x2="605.2634" y1="479.3369" y2="479.3369"/></g><!--class Perfil--><g class="entity" data-entity="Perfil" data-source-line="37" data-uid="ent0016" id="entity_Perfil"><rect fill="#F1F1F1" height="48" rx="2.5" ry="2.5" style="stroke:#181818;stroke-width:0.5;" width="67.5195" x="742.24" y="903.97"/><ellipse cx="757.24" cy="919.97" fill="#ADD1B2" rx="11" ry="11" style="stroke:#181818;stroke-width:1;"/><path d="M760.2088,925.6106 Q759.6306,925.9075 758.99,926.0481 Q758.3494,926.2044 757.6463,926.2044 Q755.1463,926.2044 753.8181,924.5638 Q752.5056,922.9075 752.5056,919.7825 Q752.5056,916.6575 753.8181,915.0013 Q755.1463,913.345 757.6463,913.345 Q758.3494,913.345 758.99,913.5013 Q759.6463,913.6575 760.2088,913.9544 L760.2088,916.6731 Q759.5838,916.095 758.99,915.8294 Q758.3963,915.5481 757.7713,915.5481 Q756.4275,915.5481 755.74,916.6263 Q755.0525,917.6888 755.0525,919.7825 Q755.0525,921.8763 755.74,922.9544 Q756.4275,924.0169 757.7713,924.0169 Q758.3963,924.0169 758.99,923.7513 Q759.5838,923.47 760.2088,922.8919 L760.2088,925.6106 Z " fill="#000000"/><text fill="#000000" font-family="sans-serif" font-size="14" lengthAdjust="spacing" textLength="35.5195" x="771.24" y="924.8167">Perfil</text><line style="stroke:#181818;stroke-width:0.5;" x1="743.24" x2="808.7595" y1="935.97" y2="935.97"/><line style="stroke:#181818;stroke-width:0.5;" x1="743.24" x2="808.7595" y1="943.97" y2="943.97"/></g><!--class Habilidade--><g class="entity" data-entity="Habilidade" data-source-line="41" data-uid="ent0017" id="entity_Habilidade"><rect fill="#F1F1F1" height="64.2969" rx="2.5" ry="2.5" style="stroke:#181818;stroke-width:0.5;" width="106.6279" x="654.69" y="1028.97"/><ellipse cx="669.69" cy="1044.97" fill="#ADD1B2" rx="11" ry="11" style="stroke:#181818;stroke-width:1;"/><path d="M672.6588,1050.6106 Q672.0806,1050.9075 671.44,1051.0481 Q670.7994,1051.2044 670.0963,1051.2044 Q667.5963,1051.2044 666.2681,1049.5638 Q664.9556,1047.9075 664.9556,1044.7825 Q664.9556,1041.6575 666.2681,1040.0013 Q667.5963,1038.345 670.0963,1038.345 Q670.7994,1038.345 671.44,1038.5013 Q672.0963,1038.6575 672.6588,1038.9544 L672.6588,1041.6731 Q672.0338,1041.095 671.44,1040.8294 Q670.8463,1040.5481 670.2213,1040.5481 Q668.8775,1040.5481 668.19,1041.6263 Q667.5025,1042.6888 667.5025,1044.7825 Q667.5025,1046.8763 668.19,1047.9544 Q668.8775,1049.0169 670.2213,1049.0169 Q670.8463,1049.0169 671.44,1048.7513 Q672.0338,1048.47 672.6588,1047.8919 L672.6588,1050.6106 Z " fill="#000000"/><text fill="#000000" font-family="sans-serif" font-size="14" lengthAdjust="spacing" textLength="74.6279" x="683.69" y="1049.8167">Habilidade</text><line style="stroke:#181818;stroke-width:0.5;" x1="655.69" x2="760.3179" y1="1060.97" y2="1060.97"/><rect fill="none" height="6" style="stroke:#C82930;stroke-width:1;" width="6" x="662.69" y="1071.6184"/><text fill="#000000" font-family="sans-serif" font-size="14" lengthAdjust="spacing" textLength="66.9785" x="674.69" y="1077.9651">descricao</text><line style="stroke:#181818;stroke-width:0.5;" x1="655.69" x2="760.3179" y1="1085.2669" y2="1085.2669"/></g><!--class Interesse--><g class="entity" data-entity="Interesse" data-source-line="45" data-uid="ent0018" id="entity_Interesse"><rect fill="#F1F1F1" height="64.2969" rx="2.5" ry="2.5" style="stroke:#181818;stroke-width:0.5;" width="96.6748" x="796.66" y="1028.97"/><ellipse cx="811.66" cy="1044.97" fill="#ADD1B2" rx="11" ry="11" style="stroke:#181818;stroke-width:1;"/><path d="M814.6288,1050.6106 Q814.0506,1050.9075 813.41,1051.0481 Q812.7694,1051.2044 812.0663,1051.2044 Q809.5663,1051.2044 808.2381,1049.5638 Q806.9256,1047.9075 806.9256,1044.7825 Q806.9256,1041.6575 808.2381,1040.0013 Q809.5663,1038.345 812.0663,1038.345 Q812.7694,1038.345 813.41,1038.5013 Q814.0663,1038.6575 814.6288,1038.9544 L814.6288,1041.6731 Q814.0038,1041.095 813.41,1040.8294 Q812.8163,1040.5481 812.1913,1040.5481 Q810.8475,1040.5481 810.16,1041.6263 Q809.4725,1042.6888 809.4725,1044.7825 Q809.4725,1046.8763 810.16,1047.9544 Q810.8475,1049.0169 812.1913,1049.0169 Q812.8163,1049.0169 813.41,1048.7513 Q814.0038,1048.47 814.6288,1047.8919 L814.6288,1050.6106 Z " fill="#000000"/><text fill="#000000" font-family="sans-serif" font-size="14" lengthAdjust="spacing" textLength="64.6748" x="825.66" y="1049.8167">Interesse</text><line style="stroke:#181818;stroke-width:0.5;" x1="797.66" x2="892.3348" y1="1060.97" y2="1060.97"/><rect fill="none" height="6" style="stroke:#C82930;stroke-width:1;" width="6" x="804.66" y="1071.6184"/><text fill="#000000" font-family="sans-serif" font-size="14" lengthAdjust="spacing" textLength="66.9785" x="816.66" y="1077.9651">descricao</text><line style="stroke:#181818;stroke-width:0.5;" x1="797.66" x2="892.3348" y1="1085.2669" y2="1085.2669"/></g><!--class Representante--><g class="entity" data-entity="Representante" data-source-line="49" data-uid="ent0019" id="entity_Representante"><rect fill="#F1F1F1" height="48" rx="2.5" ry="2.5" style="stroke:#181818;stroke-width:0.5;" width="135.4209" x="708.29" y="281.75"/><ellipse cx="723.29" cy="297.75" fill="#ADD1B2" rx="11" ry="11" style="stroke:#181818;stroke-width:1;"/><path d="M726.2588,303.3906 Q725.6806,303.6875 725.04,303.8281 Q724.3994,303.9844 723.6963,303.9844 Q721.1963,303.9844 719.8681,302.3438 Q718.5556,300.6875 718.5556,297.5625 Q718.5556,294.4375 719.8681,292.7813 Q721.1963,291.125 723.6963,291.125 Q724.3994,291.125 725.04,291.2813 Q725.6963,291.4375 726.2588,291.7344 L726.2588,294.4531 Q725.6338,293.875 725.04,293.6094 Q724.4463,293.3281 723.8213,293.3281 Q722.4775,293.3281 721.79,294.4063 Q721.1025,295.4688 721.1025,297.5625 Q721.1025,299.6563 721.79,300.7344 Q722.4775,301.7969 723.8213,301.7969 Q724.4463,301.7969 725.04,301.5313 Q725.6338,301.25 726.2588,300.6719 L726.2588,303.3906 Z " fill="#000000"/><text fill="#000000" font-family="sans-serif" font-size="14" lengthAdjust="spacing" textLength="103.4209" x="737.29" y="302.5967">Representante</text><line style="stroke:#181818;stroke-width:0.5;" x1="709.29" x2="842.7109" y1="313.75" y2="313.75"/><line style="stroke:#181818;stroke-width:0.5;" x1="709.29" x2="842.7109" y1="321.75" y2="321.75"/></g><!--class Email--><g class="entity" data-entity="Email" data-source-line="53" data-uid="ent0020" id="entity_Email"><rect fill="#F1F1F1" height="64.2969" rx="2.5" ry="2.5" style="stroke:#181818;stroke-width:0.5;" width="91.6182" x="591.19" y="148.3"/><ellipse cx="615.5394" cy="164.3" fill="#ADD1B2" rx="11" ry="11" style="stroke:#181818;stroke-width:1;"/><path d="M618.5081,169.9406 Q617.93,170.2375 617.2894,170.3781 Q616.6487,170.5344 615.9456,170.5344 Q613.4456,170.5344 612.1175,168.8937 Q610.805,167.2375 610.805,164.1125 Q610.805,160.9875 612.1175,159.3312 Q613.4456,157.675 615.9456,157.675 Q616.6487,157.675 617.2894,157.8312 Q617.9456,157.9875 618.5081,158.2844 L618.5081,161.0031 Q617.8831,160.425 617.2894,160.1594 Q616.6956,159.8781 616.0706,159.8781 Q614.7269,159.8781 614.0394,160.9562 Q613.3519,162.0187 613.3519,164.1125 Q613.3519,166.2062 614.0394,167.2844 Q614.7269,168.3469 616.0706,168.3469 Q616.6956,168.3469 617.2894,168.0812 Q617.8831,167.8 618.5081,167.2219 L618.5081,169.9406 Z " fill="#000000"/><text fill="#000000" font-family="sans-serif" font-size="14" lengthAdjust="spacing" textLength="38.8418" x="631.617" y="169.1467">Email</text><line style="stroke:#181818;stroke-width:0.5;" x1="592.19" x2="681.8082" y1="180.3" y2="180.3"/><rect fill="none" height="6" style="stroke:#C82930;stroke-width:1;" width="6" x="599.19" y="190.9484"/><text fill="#000000" font-family="sans-serif" font-size="14" lengthAdjust="spacing" textLength="65.6182" x="611.19" y="197.2951">endereco</text><line style="stroke:#181818;stroke-width:0.5;" x1="592.19" x2="681.8082" y1="204.5969" y2="204.5969"/></g><!--class Recomendacao--><g class="entity" data-entity="Recomendacao" data-source-line="57" data-uid="ent0021" id="entity_Recomendacao"><rect fill="#F1F1F1" height="48" rx="2.5" ry="2.5" style="stroke:#181818;stroke-width:0.5;" width="140.0352" x="831.98" y="431.19"/><ellipse cx="846.98" cy="447.19" fill="#ADD1B2" rx="11" ry="11" style="stroke:#181818;stroke-width:1;"/><path d="M849.9488,452.8306 Q849.3706,453.1275 848.73,453.2681 Q848.0894,453.4244 847.3863,453.4244 Q844.8863,453.4244 843.5581,451.7837 Q842.2456,450.1275 842.2456,447.0025 Q842.2456,443.8775 843.5581,442.2212 Q844.8863,440.565 847.3863,440.565 Q848.0894,440.565 848.73,440.7212 Q849.3863,440.8775 849.9488,441.1744 L849.9488,443.8931 Q849.3238,443.315 848.73,443.0494 Q848.1363,442.7681 847.5113,442.7681 Q846.1675,442.7681 845.48,443.8462 Q844.7925,444.9087 844.7925,447.0025 Q844.7925,449.0962 845.48,450.1744 Q846.1675,451.2369 847.5113,451.2369 Q848.1363,451.2369 848.73,450.9712 Q849.3238,450.69 849.9488,450.1119 L849.9488,452.8306 Z " fill="#000000"/><text fill="#000000" font-family="sans-serif" font-size="14" lengthAdjust="spacing" textLength="108.0352" x="860.98" y="452.0367">Recomendacao</text><line style="stroke:#181818;stroke-width:0.5;" x1="832.98" x2="971.0152" y1="463.19" y2="463.19"/><line style="stroke:#181818;stroke-width:0.5;" x1="832.98" x2="971.0152" y1="471.19" y2="471.19"/></g><!--class Aprovacao--><g class="entity" data-entity="Aprovacao" data-source-line="61" data-uid="ent0022" id="entity_Aprovacao"><rect fill="#F1F1F1" height="96.8906" rx="2.5" ry="2.5" style="stroke:#181818;stroke-width:0.5;" width="106.4912" x="554.75" y="572.49"/><ellipse cx="569.75" cy="588.49" fill="#ADD1B2" rx="11" ry="11" style="stroke:#181818;stroke-width:1;"/><path d="M572.7188,594.1306 Q572.1406,594.4275 571.5,594.5681 Q570.8594,594.7244 570.1563,594.7244 Q567.6563,594.7244 566.3281,593.0838 Q565.0156,591.4275 565.0156,588.3025 Q565.0156,585.1775 566.3281,583.5213 Q567.6563,581.865 570.1563,581.865 Q570.8594,581.865 571.5,582.0213 Q572.1563,582.1775 572.7188,582.4744 L572.7188,585.1931 Q572.0938,584.615 571.5,584.3494 Q570.9063,584.0681 570.2813,584.0681 Q568.9375,584.0681 568.25,585.1463 Q567.5625,586.2088 567.5625,588.3025 Q567.5625,590.3963 568.25,591.4744 Q568.9375,592.5369 570.2813,592.5369 Q570.9063,592.5369 571.5,592.2713 Q572.0938,591.99 572.7188,591.4119 L572.7188,594.1306 Z " fill="#000000"/><text fill="#000000" font-family="sans-serif" font-size="14" lengthAdjust="spacing" textLength="74.4912" x="583.75" y="593.3367">Aprovacao</text><line style="stroke:#181818;stroke-width:0.5;" x1="555.75" x2="660.2412" y1="604.49" y2="604.49"/><rect fill="none" height="6" style="stroke:#C82930;stroke-width:1;" width="6" x="562.75" y="615.1384"/><text fill="#000000" font-family="sans-serif" font-size="14" lengthAdjust="spacing" textLength="31.5342" x="574.75" y="621.4851">data</text><rect fill="none" height="6" style="stroke:#C82930;stroke-width:1;" width="6" x="562.75" y="631.4353"/><text fill="#000000" font-family="sans-serif" font-size="14" lengthAdjust="spacing" textLength="43.0186" x="574.75" y="637.782">status</text><rect fill="none" height="6" style="stroke:#C82930;stroke-width:1;" width="6" x="562.75" y="647.7322"/><text fill="#000000" font-family="sans-serif" font-size="14" lengthAdjust="spacing" textLength="48.4326" x="574.75" y="654.0789">motivo</text><line style="stroke:#181818;stroke-width:0.5;" x1="555.75" x2="660.2412" y1="661.3806" y2="661.3806"/></g><!--class CertidaoCNPJ--><g class="entity" data-entity="CertidaoCNPJ" data-source-line="67" data-uid="ent0023" id="entity_CertidaoCNPJ"><rect fill="#F1F1F1" height="80.5938" rx="2.5" ry="2.5" style="stroke:#181818;stroke-width:0.5;" width="124.374" x="83.81" y="414.89"/><ellipse cx="98.81" cy="430.89" fill="#ADD1B2" rx="11" ry="11" style="stroke:#181818;stroke-width:1;"/><path d="M101.7788,436.5306 Q101.2006,436.8275 100.56,436.9681 Q99.9194,437.1244 99.2163,437.1244 Q96.7163,437.1244 95.3881,435.4838 Q94.0756,433.8275 94.0756,430.7025 Q94.0756,427.5775 95.3881,425.9213 Q96.7163,424.265 99.2163,424.265 Q99.9194,424.265 100.56,424.4213 Q101.2163,424.5775 101.7788,424.8744 L101.7788,427.5931 Q101.1538,427.015 100.56,426.7494 Q99.9663,426.4681 99.3413,426.4681 Q97.9975,426.4681 97.31,427.5463 Q96.6225,428.6088 96.6225,430.7025 Q96.6225,432.7963 97.31,433.8744 Q97.9975,434.9369 99.3413,434.9369 Q99.9663,434.9369 100.56,434.6713 Q101.1538,434.39 101.7788,433.8119 L101.7788,436.5306 Z " fill="#000000"/><text fill="#000000" font-family="sans-serif" font-size="14" lengthAdjust="spacing" textLength="92.374" x="112.81" y="435.7367">CertidaoCNPJ</text><line style="stroke:#181818;stroke-width:0.5;" x1="84.81" x2="207.184" y1="446.89" y2="446.89"/><rect fill="none" height="6" style="stroke:#C82930;stroke-width:1;" width="6" x="91.81" y="457.5384"/><text fill="#000000" font-family="sans-serif" font-size="14" lengthAdjust="spacing" textLength="93.5225" x="103.81" y="463.8851">nomeArquivo</text><rect fill="none" height="6" style="stroke:#C82930;stroke-width:1;" width="6" x="91.81" y="473.8353"/><text fill="#000000" font-family="sans-serif" font-size="14" lengthAdjust="spacing" textLength="26.8311" x="103.81" y="480.182">tipo</text><line style="stroke:#181818;stroke-width:0.5;" x1="84.81" x2="207.184" y1="487.4838" y2="487.4838"/></g><!--class TermoDeCompromisso--><g class="entity" data-entity="TermoDeCompromisso" data-source-line="72" data-uid="ent0024" id="entity_TermoDeCompromisso"><rect fill="#F1F1F1" height="64.2969" rx="2.5" ry="2.5" style="stroke:#181818;stroke-width:0.5;" width="192.3848" x="242.81" y="423.04"/><ellipse cx="257.81" cy="439.04" fill="#ADD1B2" rx="11" ry="11" style="stroke:#181818;stroke-width:1;"/><path d="M260.7788,444.6806 Q260.2006,444.9775 259.56,445.1181 Q258.9194,445.2744 258.2163,445.2744 Q255.7163,445.2744 254.3881,443.6337 Q253.0756,441.9775 253.0756,438.8525 Q253.0756,435.7275 254.3881,434.0712 Q255.7163,432.415 258.2163,432.415 Q258.9194,432.415 259.56,432.5712 Q260.2163,432.7275 260.7788,433.0244 L260.7788,435.7431 Q260.1538,435.165 259.56,434.8994 Q258.9663,434.6181 258.3413,434.6181 Q256.9975,434.6181 256.31,435.6962 Q255.6225,436.7587 255.6225,438.8525 Q255.6225,440.9462 256.31,442.0244 Q256.9975,443.0869 258.3413,443.0869 Q258.9663,443.0869 259.56,442.8212 Q260.1538,442.54 260.7788,441.9619 L260.7788,444.6806 Z " fill="#000000"/><text fill="#000000" font-family="sans-serif" font-size="14" lengthAdjust="spacing" textLength="160.3848" x="271.81" y="443.8867">TermoDeCompromisso</text><line style="stroke:#181818;stroke-width:0.5;" x1="243.81" x2="434.1948" y1="455.04" y2="455.04"/><rect fill="none" height="6" style="stroke:#C82930;stroke-width:1;" width="6" x="250.81" y="465.6884"/><text fill="#000000" font-family="sans-serif" font-size="14" lengthAdjust="spacing" textLength="36.4424" x="262.81" y="472.0351">texto</text><line style="stroke:#181818;stroke-width:0.5;" x1="243.81" x2="434.1948" y1="479.3369" y2="479.3369"/></g><!--reverse link Pessoa to Fisica--><g class="link" data-entity-1="Pessoa" data-entity-2="Fisica" data-source-line="10" data-uid="lnk6" id="link_Pessoa_Fisica"><path d="M551.8919,217.7236 C571.1119,237.1436 585.92,252.11 607.01,273.43" fill="none" id="Pessoa-backto-Fisica" style="stroke:#181818;stroke-width:1;"/><polygon fill="none" points="539.23,204.93,547.6273,221.9443,556.1564,213.503,539.23,204.93" style="stroke:#181818;stroke-width:1;"/></g><!--reverse link Pessoa to Juridica--><g class="link" data-entity-1="Pessoa" data-entity-2="Juridica" data-source-line="14" data-uid="lnk8" id="link_Pessoa_Juridica"><path d="M519.0227,222.8821 C520.4427,242.3021 521.16,252.11 522.71,273.43" fill="none" id="Pessoa-backto-Juridica" style="stroke:#181818;stroke-width:1;"/><polygon fill="none" points="517.71,204.93,513.0386,223.3196,525.0067,222.4445,517.71,204.93" style="stroke:#181818;stroke-width:1;"/></g><!--reverse link Papel to Candidato--><g class="link" data-entity-1="Papel" data-entity-2="Candidato" data-uid="lnk10" id="link_Papel_Candidato"><path d="M356.0628,216.873 C331.3228,238.813 308.07,259.44 283.37,281.35" fill="none" id="Papel-backto-Candidato" style="stroke:#181818;stroke-width:1;"/><polygon fill="none" points="369.53,204.93,352.0818,212.3839,360.0438,221.3621,369.53,204.93" style="stroke:#181818;stroke-width:1;"/></g><!--reverse link Papel to Voluntario--><g class="link" data-entity-1="Papel" data-entity-2="Voluntario" data-source-line="25" data-uid="lnk13" id="link_Papel_Voluntario"><path d="M396,222.93 C396,244.87 396,259.44 396,281.35" fill="none" id="Papel-backto-Voluntario" style="stroke:#181818;stroke-width:1;"/><polygon fill="none" points="396,204.93,390,222.93,402,222.93,396,204.93" style="stroke:#181818;stroke-width:1;"/></g><!--reverse link Perfil to Habilidade--><g class="link" data-entity-1="Perfil" data-entity-2="Habilidade" data-source-line="76" data-uid="lnk25" id="link_Perfil_Habilidade"><path codeLine="76" d="M758.3174,963.0737 C747.3174,984.2937 736.55,1005.06 724.4,1028.5" fill="none" id="Perfil-backto-Habilidade" style="stroke:#181818;stroke-width:1;"/><polygon fill="none" points="763.84,952.42,757.5275,955.906,758.3174,963.0737,764.6299,959.5877,763.84,952.42" style="stroke:#181818;stroke-width:1;"/><text fill="#000000" font-family="sans-serif" font-size="13" lengthAdjust="spacing" textLength="49.0991" x="749" y="995.0369">cont&#233;m</text><text fill="#000000" font-family="sans-serif" font-size="13" lengthAdjust="spacing" textLength="23.0356" x="735.3728" y="971.8907">1..*</text><text fill="#000000" font-family="sans-serif" font-size="13" lengthAdjust="spacing" textLength="23.0356" x="702.3367" y="1017.932">1..*</text></g><!--reverse link Perfil to Interesse--><g class="link" data-entity-1="Perfil" data-entity-2="Interesse" data-source-line="77" data-uid="lnk26" id="link_Perfil_Interesse"><path codeLine="77" d="M795.5039,962.7345 C800.7439,971.9245 800.79,972.17 806,981.97 C814.12,997.23 822.74,1014.4 829.81,1028.75" fill="none" id="Perfil-backto-Interesse" style="stroke:#181818;stroke-width:1;"/><polygon fill="none" points="789.56,952.31,789.0571,959.5035,795.5039,962.7345,796.0068,955.541,789.56,952.31" style="stroke:#181818;stroke-width:1;"/><text fill="#000000" font-family="sans-serif" font-size="13" lengthAdjust="spacing" textLength="41.6025" x="815" y="995.0369">possui</text><text fill="#000000" font-family="sans-serif" font-size="13" lengthAdjust="spacing" textLength="23.0356" x="767.0665" y="972.1541">1..*</text><text fill="#000000" font-family="sans-serif" font-size="13" lengthAdjust="spacing" textLength="23.0356" x="801.5594" y="1017.9809">1..*</text></g><!--link Entidade to Papel--><g class="link" data-entity-1="Entidade" data-entity-2="Papel" data-source-line="79" data-uid="lnk27" id="link_Entidade_Papel"><path codeLine="79" d="M447.02,71.76 C434.85,97.45 417.96,133.09 407.01,156.21" fill="none" id="Entidade-Papel" style="stroke:#181818;stroke-width:1;"/><text fill="#000000" font-family="sans-serif" font-size="13" lengthAdjust="spacing" textLength="41.6025" x="434" y="114.3669">possui</text><text fill="#000000" font-family="sans-serif" font-size="13" lengthAdjust="spacing" textLength="8.271" x="435.4274" y="91.4858">1</text><text fill="#000000" font-family="sans-serif" font-size="13" lengthAdjust="spacing" textLength="8.271" x="400.7528" y="145.5565">1</text></g><!--link Entidade to Pessoa--><g class="link" data-entity-1="Entidade" data-entity-2="Pessoa" data-source-line="80" data-uid="lnk28" id="link_Entidade_Pessoa"><path codeLine="80" d="M474.25,71.76 C484.21,97.45 498.03,133.09 506.99,156.21" fill="none" id="Entidade-Pessoa" style="stroke:#181818;stroke-width:1;"/><text fill="#000000" font-family="sans-serif" font-size="13" lengthAdjust="spacing" textLength="7.998" x="494" y="114.3669">&#233;</text><text fill="#000000" font-family="sans-serif" font-size="13" lengthAdjust="spacing" textLength="8.271" x="467.8482" y="91.4858">1</text><text fill="#000000" font-family="sans-serif" font-size="13" lengthAdjust="spacing" textLength="8.271" x="495.8509" y="145.5565">1</text></g><!--link Candidato to Afiliacao--><g class="link" data-entity-1="Candidato" data-entity-2="Afiliacao" data-source-line="81" data-uid="lnk29" id="link_Candidato_Afiliacao"><path codeLine="81" d="M301.53,330.11 C349.11,355.08 424.84,394.81 477.74,422.57" fill="none" id="Candidato-Afiliacao" style="stroke:#181818;stroke-width:1;"/><text fill="#000000" font-family="sans-serif" font-size="13" lengthAdjust="spacing" textLength="45.7729" x="407" y="380.9569">solicita</text><text fill="#000000" font-family="sans-serif" font-size="13" lengthAdjust="spacing" textLength="8.271" x="303.4417" y="349.959">1</text><text fill="#000000" font-family="sans-serif" font-size="13" lengthAdjust="spacing" textLength="8.271" x="457.5159" y="412.002">1</text></g><!--link Candidato to CertidaoCNPJ--><g class="link" data-entity-1="Candidato" data-entity-2="CertidaoCNPJ" data-source-line="82" data-uid="lnk30" id="link_Candidato_CertidaoCNPJ"><path codeLine="82" d="M239.41,330.11 C222.36,352.77 196.15,387.57 175.83,414.56" fill="none" id="Candidato-CertidaoCNPJ" style="stroke:#181818;stroke-width:1;"/><text fill="#000000" font-family="sans-serif" font-size="13" lengthAdjust="spacing" textLength="39.8633" x="210" y="380.9569">anexa</text><text fill="#000000" font-family="sans-serif" font-size="13" lengthAdjust="spacing" textLength="8.271" x="226.1799" y="349.959">1</text><text fill="#000000" font-family="sans-serif" font-size="13" lengthAdjust="spacing" textLength="23.0356" x="155.7547" y="403.9673">0..*</text></g><!--link Candidato to TermoDeCompromisso--><g class="link" data-entity-1="Candidato" data-entity-2="TermoDeCompromisso" data-source-line="83" data-uid="lnk31" id="link_Candidato_TermoDeCompromisso"><path codeLine="83" d="M269.99,330.11 C283.9,355.12 306.05,394.94 321.49,422.71" fill="none" id="Candidato-TermoDeCompromisso" style="stroke:#181818;stroke-width:1;"/><text fill="#000000" font-family="sans-serif" font-size="13" lengthAdjust="spacing" textLength="39.7871" x="302" y="380.9569">aceita</text><text fill="#000000" font-family="sans-serif" font-size="13" lengthAdjust="spacing" textLength="8.271" x="264.2138" y="349.959">1</text><text fill="#000000" font-family="sans-serif" font-size="13" lengthAdjust="spacing" textLength="8.271" x="309.2814" y="411.9192">1</text></g><!--link Entidade to Perfil--><g class="link" data-entity-1="Entidade" data-entity-2="Perfil" data-source-line="85" data-uid="lnk32" id="link_Entidade_Perfil"><path codeLine="85" d="M414.49,44.48 C297.7,56.41 6,94.71 6,179.45 C6,179.45 6,179.45 6,787.68 C6,863.58 592.9,913.12 741.92,924.48" fill="none" id="Entidade-Perfil" style="stroke:#181818;stroke-width:1;"/><text fill="#000000" font-family="sans-serif" font-size="13" lengthAdjust="spacing" textLength="41.6025" x="7" y="459.7569">possui</text><text fill="#000000" font-family="sans-serif" font-size="13" lengthAdjust="spacing" textLength="8.271" x="398.623" y="41.225">1</text><text fill="#000000" font-family="sans-serif" font-size="13" lengthAdjust="spacing" textLength="8.271" x="726.094" y="919.2939">1</text></g><!--reverse link Entidade to Email--><g class="link" data-entity-1="Entidade" data-entity-2="Email" data-source-line="86" data-uid="lnk33" id="link_Entidade_Email"><path codeLine="86" d="M511.0983,79.2339 C539.7383,102.0339 568.84,125.2 597.45,147.97" fill="none" id="Entidade-backto-Email" style="stroke:#181818;stroke-width:1;"/><polygon fill="#181818" points="501.71,71.76,503.9128,78.6264,511.0983,79.2339,508.8955,72.3675,501.71,71.76" style="stroke:#181818;stroke-width:1;"/><text fill="#000000" font-family="sans-serif" font-size="13" lengthAdjust="spacing" textLength="41.6025" x="561" y="114.3669">possui</text><text fill="#000000" font-family="sans-serif" font-size="13" lengthAdjust="spacing" textLength="8.271" x="500.5427" y="91.4858">1</text><text fill="#000000" font-family="sans-serif" font-size="13" lengthAdjust="spacing" textLength="8.271" x="580.903" y="137.1792">1</text></g><!--reverse link ONG to Campanha--><g class="link" data-entity-1="ONG" data-entity-2="Campanha" data-source-line="88" data-uid="lnk34" id="link_ONG_Campanha"><path codeLine="88" d="M907.2761,665.4662 C905.0161,691.8562 902.81,717.68 900.38,746.09" fill="none" id="ONG-backto-Campanha" style="stroke:#181818;stroke-width:1;"/><polygon fill="#181818" points="908.3,653.51,903.8026,659.1468,907.2761,665.4662,911.7735,659.8294,908.3,653.51" style="stroke:#181818;stroke-width:1;"/><text fill="#000000" font-family="sans-serif" font-size="13" lengthAdjust="spacing" textLength="29.561" x="905" y="712.4469">abre</text><text fill="#000000" font-family="sans-serif" font-size="13" lengthAdjust="spacing" textLength="8.271" x="899.0477" y="673.2282">1</text><text fill="#000000" font-family="sans-serif" font-size="13" lengthAdjust="spacing" textLength="23.0356" x="876.0378" y="735.2035">0..*</text></g><!--link Campanha to Perfil--><g class="link" data-entity-1="Campanha" data-entity-2="Perfil" data-source-line="89" data-uid="lnk35" id="link_Campanha_Perfil"><path codeLine="89" d="M862.65,827.22 C841.27,851.83 814.5,882.66 796.41,903.48" fill="none" id="Campanha-Perfil" style="stroke:#181818;stroke-width:1;"/><text fill="#000000" font-family="sans-serif" font-size="13" lengthAdjust="spacing" textLength="49.0991" x="837" y="870.0369">cont&#233;m</text><text fill="#000000" font-family="sans-serif" font-size="13" lengthAdjust="spacing" textLength="23.0356" x="832.3452" y="846.9544">1..*</text><text fill="#000000" font-family="sans-serif" font-size="13" lengthAdjust="spacing" textLength="23.0356" x="775.5862" y="892.7655">1..*</text></g><!--link Representante to Afiliacao--><g class="link" data-entity-1="Representante" data-entity-2="Afiliacao" data-source-line="91" data-uid="lnk36" id="link_Representante_Afiliacao"><path codeLine="91" d="M712.13,330.17 C665.6,347.25 610.58,367.49 610,367.89 C589.27,382.51 571.03,404.54 558.09,422.68" fill="none" id="Representante-Afiliacao" style="stroke:#181818;stroke-width:1;"/><text fill="#000000" font-family="sans-serif" font-size="13" lengthAdjust="spacing" textLength="38.8159" x="611" y="380.9569">avalia</text><text fill="#000000" font-family="sans-serif" font-size="13" lengthAdjust="spacing" textLength="8.271" x="692.0647" y="347.9345">1</text><text fill="#000000" font-family="sans-serif" font-size="13" lengthAdjust="spacing" textLength="23.0356" x="536.7843" y="411.8833">1..*</text></g><!--link Representante to Aprovacao--><g class="link" data-entity-1="Representante" data-entity-2="Aprovacao" data-source-line="92" data-uid="lnk37" id="link_Representante_Aprovacao"><path codeLine="92" d="M758.53,330.05 C742.91,351.46 719.94,384.4 703,414.89 C672.85,469.19 672.35,486.25 646,542.49 C641.49,552.12 636.56,562.36 631.78,572.14" fill="none" id="Representante-Aprovacao" style="stroke:#181818;stroke-width:1;"/><text fill="#000000" font-family="sans-serif" font-size="13" lengthAdjust="spacing" textLength="45.7729" x="704" y="459.7569">solicita</text><text fill="#000000" font-family="sans-serif" font-size="13" lengthAdjust="spacing" textLength="8.271" x="745.3296" y="349.8843">1</text><text fill="#000000" font-family="sans-serif" font-size="13" lengthAdjust="spacing" textLength="23.0356" x="610.51" y="561.2997">1..*</text></g><!--link Representante to Perfil--><g class="link" data-entity-1="Representante" data-entity-2="Perfil" data-source-line="93" data-uid="lnk38" id="link_Representante_Perfil"><path codeLine="93" d="M776,330.24 C776,359.34 776,410.42 776,454.19 C776,454.19 776,454.19 776,787.68 C776,828.55 776,876.16 776,903.8" fill="none" id="Representante-Perfil" style="stroke:#181818;stroke-width:1;"/><text fill="#000000" font-family="sans-serif" font-size="13" lengthAdjust="spacing" textLength="65.0825" x="777" y="625.4969">especifica</text><text fill="#000000" font-family="sans-serif" font-size="13" lengthAdjust="spacing" textLength="8.271" x="767.1062" y="349.7199">1</text><text fill="#000000" font-family="sans-serif" font-size="13" lengthAdjust="spacing" textLength="23.0356" x="750.0578" y="892.7685">1..*</text></g><!--link Representante to Recomendacao--><g class="link" data-entity-1="Representante" data-entity-2="Recomendacao" data-source-line="94" data-uid="lnk39" id="link_Representante_Recomendacao"><path codeLine="94" d="M795.97,330.11 C819.56,357.72 858.58,403.38 882.13,430.94" fill="none" id="Representante-Recomendacao" style="stroke:#181818;stroke-width:1;"/><text fill="#000000" font-family="sans-serif" font-size="13" lengthAdjust="spacing" textLength="45.7729" x="843" y="380.9569">solicita</text><text fill="#000000" font-family="sans-serif" font-size="13" lengthAdjust="spacing" textLength="8.271" x="791.8956" y="349.959">1</text><text fill="#000000" font-family="sans-serif" font-size="13" lengthAdjust="spacing" textLength="23.0356" x="851.4885" y="420.284">1..*</text></g><!--link Recomendacao to ONG--><g class="link" data-entity-1="Recomendacao" data-entity-2="ONG" data-source-line="96" data-uid="lnk40" id="link_Recomendacao_ONG"><path codeLine="96" d="M903.29,479.65 C904.86,508.21 907.52,556.57 909.27,588.38" fill="none" id="Recomendacao-ONG" style="stroke:#181818;stroke-width:1;"/><text fill="#000000" font-family="sans-serif" font-size="13" lengthAdjust="spacing" textLength="65.6348" x="907" y="538.5569">apresenta</text><text fill="#000000" font-family="sans-serif" font-size="13" lengthAdjust="spacing" textLength="23.0356" x="877.9336" y="499.123">0..*</text><text fill="#000000" font-family="sans-serif" font-size="13" lengthAdjust="spacing" textLength="23.0356" x="883.7505" y="577.8234">0..*</text></g><!--link Afiliacao to Aprovacao--><g class="link" data-entity-1="Afiliacao" data-entity-2="Aprovacao" data-source-line="98" data-uid="lnk41" id="link_Afiliacao_Aprovacao"><path codeLine="98" d="M551.5,487.76 C561.71,511.65 575.9,544.85 587.51,572.01" fill="none" id="Afiliacao-Aprovacao" style="stroke:#181818;stroke-width:1;"/><text fill="#000000" font-family="sans-serif" font-size="13" lengthAdjust="spacing" textLength="63.4131" x="574" y="538.5569">passa por</text><text fill="#000000" font-family="sans-serif" font-size="13" lengthAdjust="spacing" textLength="8.271" x="545.3364" y="507.4782">1</text><text fill="#000000" font-family="sans-serif" font-size="13" lengthAdjust="spacing" textLength="8.271" x="576.238" y="561.5037">1</text></g><!--link Voluntario to Afiliacao--><g class="link" data-entity-1="Voluntario" data-entity-2="Afiliacao" data-source-line="100" data-uid="lnk42" id="link_Voluntario_Afiliacao"><path codeLine="100" d="M432.34,330.03 C447.37,340.59 464.42,353.85 478,367.89 C493.99,384.42 508.77,405.58 519.66,422.82" fill="none" id="Voluntario-Afiliacao" style="stroke:#181818;stroke-width:1;"/><text fill="#000000" font-family="sans-serif" font-size="13" lengthAdjust="spacing" textLength="41.6025" x="493" y="380.9569">possui</text><text fill="#000000" font-family="sans-serif" font-size="13" lengthAdjust="spacing" textLength="8.271" x="432.2562" y="349.8595">1</text><text fill="#000000" font-family="sans-serif" font-size="13" lengthAdjust="spacing" textLength="8.271" x="507.2882" y="412.0509">1</text></g><!--SRC=[VPHBRkGW48Rtd0AnZDHHilKkwcJoM6IYKPHz1LThY6nW0BSYjUP0EKSkDcLi7Zrszmx3Hpr-_hBim7j-fuDgeKL-O9nljEcH_MLCnhCNiDZn_8NU6qXVFvHN4ZX-1jHjEfo2IBihCPu6fzebEO7QVXHo2xgbKe8fw9Z_K8YVp_VymEdcej8tqmqwW5EBotNyteB-FHMP8iHLYruwgj4K-6QdEWMqbMWg36unRrSYeQDDNcTwW7V2ighh6HvrG4TQd6D-eIK4gJE2PwwStlKG4yVRr3E5aqUN9NMesxcBgZVhpFx_tgQL3n06Fwrx4zI-YhT5Drh5R9zVdceDRzoVOGJZHb2sklAAhZUtk3KzfUmLFNow6EYP8ZZB9wulBoy4DvjDMXOH6owD3jzV_MauYzbmQxmV56FPsE9Qy4YAoHCPMIMYEnl-_SMA7wlpR826UzCfgKYv9NWLYwe5QpXe_8Jre4kP29SunZvHv2Z3UXyNCnFDKTGOHoSVp-NDyq2vtXsoF1wpf4NSb2wz0ZksPIuimfL0i0TQdgUJ5Iivp_6f5FGMfThHj9p5wn6eCh2ZqPZbACAGLbHyYifO-HVKHiX3r71XoUn0MZl1MFKhMlUDcDv4_0C0]--></g></svg>