<svg xmlns="http://www.w3.org/2000/svg" xmlns:xlink="http://www.w3.org/1999/xlink" contentStyleType="text/css" data-diagram-type="CLASS" height="849px" preserveAspectRatio="none" style="width:811px;height:849px;background:#FFFFFF;" version="1.1" viewBox="0 0 811 849" width="811px" zoomAndPan="magnify"><defs/><g><!--class Candidato--><g class="entity" data-entity="Candidato" data-source-line="1" data-uid="ent0002" id="entity_Candidato"><rect fill="#F1F1F1" height="80.5938" rx="2.5" ry="2.5" style="stroke:#181818;stroke-width:0.5;" width="103.5244" x="125.27" y="7"/><ellipse cx="140.27" cy="23" fill="#ADD1B2" rx="11" ry="11" style="stroke:#181818;stroke-width:1;"/><path d="M143.2387,28.6406 Q142.6606,28.9375 142.02,29.0781 Q141.3794,29.2344 140.6762,29.2344 Q138.1762,29.2344 136.8481,27.5938 Q135.5356,25.9375 135.5356,22.8125 Q135.5356,19.6875 136.8481,18.0313 Q138.1762,16.375 140.6762,16.375 Q141.3794,16.375 142.02,16.5313 Q142.6762,16.6875 143.2387,16.9844 L143.2387,19.7031 Q142.6137,19.125 142.02,18.8594 Q141.4262,18.5781 140.8012,18.5781 Q139.4575,18.5781 138.77,19.6563 Q138.0825,20.7188 138.0825,22.8125 Q138.0825,24.9063 138.77,25.9844 Q139.4575,27.0469 140.8012,27.0469 Q141.4262,27.0469 142.02,26.7813 Q142.6137,26.5 143.2387,25.9219 L143.2387,28.6406 Z " fill="#000000"/><text fill="#000000" font-family="sans-serif" font-size="14" lengthAdjust="spacing" textLength="71.5244" x="154.27" y="27.8467">Candidato</text><line style="stroke:#181818;stroke-width:0.5;" x1="126.27" x2="227.7944" y1="39" y2="39"/><rect fill="none" height="6" style="stroke:#C82930;stroke-width:1;" width="6" x="133.27" y="49.6484"/><text fill="#000000" font-family="sans-serif" font-size="14" lengthAdjust="spacing" textLength="39.6895" x="145.27" y="55.9951">nome</text><rect fill="none" height="6" style="stroke:#C82930;stroke-width:1;" width="6" x="133.27" y="65.9453"/><text fill="#000000" font-family="sans-serif" font-size="14" lengthAdjust="spacing" textLength="57.8594" x="145.27" y="72.292">cpf_cnpj</text><line style="stroke:#181818;stroke-width:0.5;" x1="126.27" x2="227.7944" y1="79.5938" y2="79.5938"/></g><!--class ONG--><g class="entity" data-entity="ONG" data-source-line="6" data-uid="ent0003" id="entity_ONG"><rect fill="#F1F1F1" height="64.2969" rx="2.5" ry="2.5" style="stroke:#181818;stroke-width:0.5;" width="65.6895" x="471.18" y="338.49"/><ellipse cx="486.7869" cy="354.49" fill="#ADD1B2" rx="11" ry="11" style="stroke:#181818;stroke-width:1;"/><path d="M489.7556,360.1306 Q489.1775,360.4275 488.5369,360.5681 Q487.8963,360.7244 487.1931,360.7244 Q484.6931,360.7244 483.365,359.0838 Q482.0525,357.4275 482.0525,354.3025 Q482.0525,351.1775 483.365,349.5213 Q484.6931,347.865 487.1931,347.865 Q487.8963,347.865 488.5369,348.0213 Q489.1931,348.1775 489.7556,348.4744 L489.7556,351.1931 Q489.1306,350.615 488.5369,350.3494 Q487.9431,350.0681 487.3181,350.0681 Q485.9744,350.0681 485.2869,351.1463 Q484.5994,352.2088 484.5994,354.3025 Q484.5994,356.3963 485.2869,357.4744 Q485.9744,358.5369 487.3181,358.5369 Q487.9431,358.5369 488.5369,358.2713 Q489.1306,357.99 489.7556,357.4119 L489.7556,360.1306 Z " fill="#000000"/><text fill="#000000" font-family="sans-serif" font-size="14" lengthAdjust="spacing" textLength="32.3408" x="500.9217" y="359.3367">ONG</text><line style="stroke:#181818;stroke-width:0.5;" x1="472.18" x2="535.8695" y1="370.49" y2="370.49"/><rect fill="none" height="6" style="stroke:#C82930;stroke-width:1;" width="6" x="479.18" y="381.1384"/><text fill="#000000" font-family="sans-serif" font-size="14" lengthAdjust="spacing" textLength="39.6895" x="491.18" y="387.4851">nome</text><line style="stroke:#181818;stroke-width:0.5;" x1="472.18" x2="535.8695" y1="394.7869" y2="394.7869"/></g><!--class Voluntario--><g class="entity" data-entity="Voluntario" data-source-line="10" data-uid="ent0004" id="entity_Voluntario"><rect fill="#F1F1F1" height="48" rx="2.5" ry="2.5" style="stroke:#181818;stroke-width:0.5;" width="104.0576" x="7" y="180.89"/><ellipse cx="22" cy="196.89" fill="#ADD1B2" rx="11" ry="11" style="stroke:#181818;stroke-width:1;"/><path d="M24.9688,202.5306 Q24.3906,202.8275 23.75,202.9681 Q23.1094,203.1244 22.4063,203.1244 Q19.9063,203.1244 18.5781,201.4838 Q17.2656,199.8275 17.2656,196.7025 Q17.2656,193.5775 18.5781,191.9213 Q19.9063,190.265 22.4063,190.265 Q23.1094,190.265 23.75,190.4213 Q24.4063,190.5775 24.9688,190.8744 L24.9688,193.5931 Q24.3438,193.015 23.75,192.7494 Q23.1563,192.4681 22.5313,192.4681 Q21.1875,192.4681 20.5,193.5463 Q19.8125,194.6088 19.8125,196.7025 Q19.8125,198.7963 20.5,199.8744 Q21.1875,200.9369 22.5313,200.9369 Q23.1563,200.9369 23.75,200.6713 Q24.3438,200.39 24.9688,199.8119 L24.9688,202.5306 Z " fill="#000000"/><text fill="#000000" font-family="sans-serif" font-size="14" lengthAdjust="spacing" textLength="72.0576" x="36" y="201.7367">Voluntario</text><line style="stroke:#181818;stroke-width:0.5;" x1="8" x2="110.0576" y1="212.89" y2="212.89"/><line style="stroke:#181818;stroke-width:0.5;" x1="8" x2="110.0576" y1="220.89" y2="220.89"/></g><!--class Campanha--><g class="entity" data-entity="Campanha" data-source-line="14" data-uid="ent0006" id="entity_Campanha"><rect fill="#F1F1F1" height="80.5938" rx="2.5" ry="2.5" style="stroke:#181818;stroke-width:0.5;" width="107.7832" x="450.14" y="496.08"/><ellipse cx="465.14" cy="512.08" fill="#ADD1B2" rx="11" ry="11" style="stroke:#181818;stroke-width:1;"/><path d="M468.1088,517.7206 Q467.5306,518.0175 466.89,518.1581 Q466.2494,518.3144 465.5463,518.3144 Q463.0463,518.3144 461.7181,516.6738 Q460.4056,515.0175 460.4056,511.8925 Q460.4056,508.7675 461.7181,507.1113 Q463.0463,505.455 465.5463,505.455 Q466.2494,505.455 466.89,505.6113 Q467.5463,505.7675 468.1088,506.0644 L468.1088,508.7831 Q467.4838,508.205 466.89,507.9394 Q466.2963,507.6581 465.6713,507.6581 Q464.3275,507.6581 463.64,508.7363 Q462.9525,509.7988 462.9525,511.8925 Q462.9525,513.9863 463.64,515.0644 Q464.3275,516.1269 465.6713,516.1269 Q466.2963,516.1269 466.89,515.8613 Q467.4838,515.58 468.1088,515.0019 L468.1088,517.7206 Z " fill="#000000"/><text fill="#000000" font-family="sans-serif" font-size="14" lengthAdjust="spacing" textLength="75.7832" x="479.14" y="516.9267">Campanha</text><line style="stroke:#181818;stroke-width:0.5;" x1="451.14" x2="556.9232" y1="528.08" y2="528.08"/><rect fill="none" height="6" style="stroke:#C82930;stroke-width:1;" width="6" x="458.14" y="538.7284"/><text fill="#000000" font-family="sans-serif" font-size="14" lengthAdjust="spacing" textLength="39.6895" x="470.14" y="545.0751">nome</text><rect fill="none" height="6" style="stroke:#C82930;stroke-width:1;" width="6" x="458.14" y="555.0253"/><text fill="#000000" font-family="sans-serif" font-size="14" lengthAdjust="spacing" textLength="66.9785" x="470.14" y="561.372">descricao</text><line style="stroke:#181818;stroke-width:0.5;" x1="451.14" x2="556.9232" y1="568.6738" y2="568.6738"/></g><!--class Afiliacao--><g class="entity" data-entity="Afiliacao" data-source-line="19" data-uid="ent0007" id="entity_Afiliacao"><rect fill="#F1F1F1" height="64.2969" rx="2.5" ry="2.5" style="stroke:#181818;stroke-width:0.5;" width="136.5234" x="145.77" y="172.74"/><ellipse cx="180.9875" cy="188.74" fill="#ADD1B2" rx="11" ry="11" style="stroke:#181818;stroke-width:1;"/><path d="M183.9562,194.3806 Q183.3781,194.6775 182.7375,194.8181 Q182.0969,194.9744 181.3937,194.9744 Q178.8937,194.9744 177.5656,193.3338 Q176.2531,191.6775 176.2531,188.5525 Q176.2531,185.4275 177.5656,183.7713 Q178.8937,182.115 181.3937,182.115 Q182.0969,182.115 182.7375,182.2713 Q183.3937,182.4275 183.9562,182.7244 L183.9562,185.4431 Q183.3312,184.865 182.7375,184.5994 Q182.1437,184.3181 181.5187,184.3181 Q180.175,184.3181 179.4875,185.3963 Q178.8,186.4588 178.8,188.5525 Q178.8,190.6463 179.4875,191.7244 Q180.175,192.7869 181.5187,192.7869 Q182.1437,192.7869 182.7375,192.5213 Q183.3312,192.24 183.9562,191.6619 L183.9562,194.3806 Z " fill="#000000"/><text fill="#000000" font-family="sans-serif" font-size="14" lengthAdjust="spacing" textLength="59.5957" x="199.4803" y="193.5867">Afiliacao</text><line style="stroke:#181818;stroke-width:0.5;" x1="146.77" x2="281.2934" y1="204.74" y2="204.74"/><rect fill="none" height="6" style="stroke:#C82930;stroke-width:1;" width="6" x="153.77" y="215.3884"/><text fill="#000000" font-family="sans-serif" font-size="14" lengthAdjust="spacing" textLength="110.5234" x="165.77" y="221.7351">dataDeAfiliacao</text><line style="stroke:#181818;stroke-width:0.5;" x1="146.77" x2="281.2934" y1="229.0369" y2="229.0369"/></g><!--class Perfil--><g class="entity" data-entity="Perfil" data-source-line="23" data-uid="ent0008" id="entity_Perfil"><rect fill="#F1F1F1" height="48" rx="2.5" ry="2.5" style="stroke:#181818;stroke-width:0.5;" width="67.5195" x="470.27" y="653.67"/><ellipse cx="485.27" cy="669.67" fill="#ADD1B2" rx="11" ry="11" style="stroke:#181818;stroke-width:1;"/><path d="M488.2388,675.3106 Q487.6606,675.6075 487.02,675.7481 Q486.3794,675.9044 485.6763,675.9044 Q483.1763,675.9044 481.8481,674.2638 Q480.5356,672.6075 480.5356,669.4825 Q480.5356,666.3575 481.8481,664.7013 Q483.1763,663.045 485.6763,663.045 Q486.3794,663.045 487.02,663.2013 Q487.6763,663.3575 488.2388,663.6544 L488.2388,666.3731 Q487.6138,665.795 487.02,665.5294 Q486.4263,665.2481 485.8013,665.2481 Q484.4575,665.2481 483.77,666.3263 Q483.0825,667.3888 483.0825,669.4825 Q483.0825,671.5763 483.77,672.6544 Q484.4575,673.7169 485.8013,673.7169 Q486.4263,673.7169 487.02,673.4513 Q487.6138,673.17 488.2388,672.5919 L488.2388,675.3106 Z " fill="#000000"/><text fill="#000000" font-family="sans-serif" font-size="14" lengthAdjust="spacing" textLength="35.5195" x="499.27" y="674.5167">Perfil</text><line style="stroke:#181818;stroke-width:0.5;" x1="471.27" x2="536.7895" y1="685.67" y2="685.67"/><line style="stroke:#181818;stroke-width:0.5;" x1="471.27" x2="536.7895" y1="693.67" y2="693.67"/></g><!--class Habilidade--><g class="entity" data-entity="Habilidade" data-source-line="27" data-uid="ent0009" id="entity_Habilidade"><rect fill="#F1F1F1" height="64.2969" rx="2.5" ry="2.5" style="stroke:#181818;stroke-width:0.5;" width="106.6279" x="382.71" y="778.67"/><ellipse cx="397.71" cy="794.67" fill="#ADD1B2" rx="11" ry="11" style="stroke:#181818;stroke-width:1;"/><path d="M400.6788,800.3106 Q400.1006,800.6075 399.46,800.7481 Q398.8194,800.9044 398.1163,800.9044 Q395.6163,800.9044 394.2881,799.2638 Q392.9756,797.6075 392.9756,794.4825 Q392.9756,791.3575 394.2881,789.7013 Q395.6163,788.045 398.1163,788.045 Q398.8194,788.045 399.46,788.2013 Q400.1163,788.3575 400.6788,788.6544 L400.6788,791.3731 Q400.0538,790.795 399.46,790.5294 Q398.8663,790.2481 398.2413,790.2481 Q396.8975,790.2481 396.21,791.3263 Q395.5225,792.3888 395.5225,794.4825 Q395.5225,796.5763 396.21,797.6544 Q396.8975,798.7169 398.2413,798.7169 Q398.8663,798.7169 399.46,798.4513 Q400.0538,798.17 400.6788,797.5919 L400.6788,800.3106 Z " fill="#000000"/><text fill="#000000" font-family="sans-serif" font-size="14" lengthAdjust="spacing" textLength="74.6279" x="411.71" y="799.5167">Habilidade</text><line style="stroke:#181818;stroke-width:0.5;" x1="383.71" x2="488.3379" y1="810.67" y2="810.67"/><rect fill="none" height="6" style="stroke:#C82930;stroke-width:1;" width="6" x="390.71" y="821.3184"/><text fill="#000000" font-family="sans-serif" font-size="14" lengthAdjust="spacing" textLength="66.9785" x="402.71" y="827.6651">descricao</text><line style="stroke:#181818;stroke-width:0.5;" x1="383.71" x2="488.3379" y1="834.9669" y2="834.9669"/></g><!--class Interesse--><g class="entity" data-entity="Interesse" data-source-line="31" data-uid="ent0010" id="entity_Interesse"><rect fill="#F1F1F1" height="64.2969" rx="2.5" ry="2.5" style="stroke:#181818;stroke-width:0.5;" width="96.6748" x="524.69" y="778.67"/><ellipse cx="539.69" cy="794.67" fill="#ADD1B2" rx="11" ry="11" style="stroke:#181818;stroke-width:1;"/><path d="M542.6588,800.3106 Q542.0806,800.6075 541.44,800.7481 Q540.7994,800.9044 540.0963,800.9044 Q537.5963,800.9044 536.2681,799.2638 Q534.9556,797.6075 534.9556,794.4825 Q534.9556,791.3575 536.2681,789.7013 Q537.5963,788.045 540.0963,788.045 Q540.7994,788.045 541.44,788.2013 Q542.0963,788.3575 542.6588,788.6544 L542.6588,791.3731 Q542.0338,790.795 541.44,790.5294 Q540.8463,790.2481 540.2213,790.2481 Q538.8775,790.2481 538.19,791.3263 Q537.5025,792.3888 537.5025,794.4825 Q537.5025,796.5763 538.19,797.6544 Q538.8775,798.7169 540.2213,798.7169 Q540.8463,798.7169 541.44,798.4513 Q542.0338,798.17 542.6588,797.5919 L542.6588,800.3106 Z " fill="#000000"/><text fill="#000000" font-family="sans-serif" font-size="14" lengthAdjust="spacing" textLength="64.6748" x="553.69" y="799.5167">Interesse</text><line style="stroke:#181818;stroke-width:0.5;" x1="525.69" x2="620.3648" y1="810.67" y2="810.67"/><rect fill="none" height="6" style="stroke:#C82930;stroke-width:1;" width="6" x="532.69" y="821.3184"/><text fill="#000000" font-family="sans-serif" font-size="14" lengthAdjust="spacing" textLength="66.9785" x="544.69" y="827.6651">descricao</text><line style="stroke:#181818;stroke-width:0.5;" x1="525.69" x2="620.3648" y1="834.9669" y2="834.9669"/></g><!--class Representante--><g class="entity" data-entity="Representante" data-source-line="35" data-uid="ent0011" id="entity_Representante"><rect fill="#F1F1F1" height="48" rx="2.5" ry="2.5" style="stroke:#181818;stroke-width:0.5;" width="135.4209" x="288.32" y="23.3"/><ellipse cx="303.32" cy="39.3" fill="#ADD1B2" rx="11" ry="11" style="stroke:#181818;stroke-width:1;"/><path d="M306.2888,44.9406 Q305.7106,45.2375 305.07,45.3781 Q304.4294,45.5344 303.7263,45.5344 Q301.2263,45.5344 299.8981,43.8938 Q298.5856,42.2375 298.5856,39.1125 Q298.5856,35.9875 299.8981,34.3313 Q301.2263,32.675 303.7263,32.675 Q304.4294,32.675 305.07,32.8313 Q305.7263,32.9875 306.2888,33.2844 L306.2888,36.0031 Q305.6638,35.425 305.07,35.1594 Q304.4763,34.8781 303.8513,34.8781 Q302.5075,34.8781 301.82,35.9563 Q301.1325,37.0188 301.1325,39.1125 Q301.1325,41.2063 301.82,42.2844 Q302.5075,43.3469 303.8513,43.3469 Q304.4763,43.3469 305.07,43.0813 Q305.6638,42.8 306.2888,42.2219 L306.2888,44.9406 Z " fill="#000000"/><text fill="#000000" font-family="sans-serif" font-size="14" lengthAdjust="spacing" textLength="103.4209" x="317.32" y="44.1467">Representante</text><line style="stroke:#181818;stroke-width:0.5;" x1="289.32" x2="422.7409" y1="55.3" y2="55.3"/><line style="stroke:#181818;stroke-width:0.5;" x1="289.32" x2="422.7409" y1="63.3" y2="63.3"/></g><!--class Email--><g class="entity" data-entity="Email" data-source-line="39" data-uid="ent0012" id="entity_Email"><rect fill="#F1F1F1" height="64.2969" rx="2.5" ry="2.5" style="stroke:#181818;stroke-width:0.5;" width="91.6182" x="112.22" y="338.49"/><ellipse cx="136.5694" cy="354.49" fill="#ADD1B2" rx="11" ry="11" style="stroke:#181818;stroke-width:1;"/><path d="M139.5381,360.1306 Q138.96,360.4275 138.3194,360.5681 Q137.6787,360.7244 136.9756,360.7244 Q134.4756,360.7244 133.1475,359.0838 Q131.835,357.4275 131.835,354.3025 Q131.835,351.1775 133.1475,349.5213 Q134.4756,347.865 136.9756,347.865 Q137.6787,347.865 138.3194,348.0213 Q138.9756,348.1775 139.5381,348.4744 L139.5381,351.1931 Q138.9131,350.615 138.3194,350.3494 Q137.7256,350.0681 137.1006,350.0681 Q135.7569,350.0681 135.0694,351.1463 Q134.3819,352.2088 134.3819,354.3025 Q134.3819,356.3963 135.0694,357.4744 Q135.7569,358.5369 137.1006,358.5369 Q137.7256,358.5369 138.3194,358.2713 Q138.9131,357.99 139.5381,357.4119 L139.5381,360.1306 Z " fill="#000000"/><text fill="#000000" font-family="sans-serif" font-size="14" lengthAdjust="spacing" textLength="38.8418" x="152.647" y="359.3367">Email</text><line style="stroke:#181818;stroke-width:0.5;" x1="113.22" x2="202.8382" y1="370.49" y2="370.49"/><rect fill="none" height="6" style="stroke:#C82930;stroke-width:1;" width="6" x="120.22" y="381.1384"/><text fill="#000000" font-family="sans-serif" font-size="14" lengthAdjust="spacing" textLength="65.6182" x="132.22" y="387.4851">endereco</text><line style="stroke:#181818;stroke-width:0.5;" x1="113.22" x2="202.8382" y1="394.7869" y2="394.7869"/></g><!--class Recomendacao--><g class="entity" data-entity="Recomendacao" data-source-line="43" data-uid="ent0013" id="entity_Recomendacao"><rect fill="#F1F1F1" height="48" rx="2.5" ry="2.5" style="stroke:#181818;stroke-width:0.5;" width="140.0352" x="434.01" y="180.89"/><ellipse cx="449.01" cy="196.89" fill="#ADD1B2" rx="11" ry="11" style="stroke:#181818;stroke-width:1;"/><path d="M451.9788,202.5306 Q451.4006,202.8275 450.76,202.9681 Q450.1194,203.1244 449.4163,203.1244 Q446.9163,203.1244 445.5881,201.4838 Q444.2756,199.8275 444.2756,196.7025 Q444.2756,193.5775 445.5881,191.9213 Q446.9163,190.265 449.4163,190.265 Q450.1194,190.265 450.76,190.4213 Q451.4163,190.5775 451.9788,190.8744 L451.9788,193.5931 Q451.3538,193.015 450.76,192.7494 Q450.1663,192.4681 449.5413,192.4681 Q448.1975,192.4681 447.51,193.5463 Q446.8225,194.6088 446.8225,196.7025 Q446.8225,198.7963 447.51,199.8744 Q448.1975,200.9369 449.5413,200.9369 Q450.1663,200.9369 450.76,200.6713 Q451.3538,200.39 451.9788,199.8119 L451.9788,202.5306 Z " fill="#000000"/><text fill="#000000" font-family="sans-serif" font-size="14" lengthAdjust="spacing" textLength="108.0352" x="463.01" y="201.7367">Recomendacao</text><line style="stroke:#181818;stroke-width:0.5;" x1="435.01" x2="573.0452" y1="212.89" y2="212.89"/><line style="stroke:#181818;stroke-width:0.5;" x1="435.01" x2="573.0452" y1="220.89" y2="220.89"/></g><!--class Aprovacao--><g class="entity" data-entity="Aprovacao" data-source-line="47" data-uid="ent0014" id="entity_Aprovacao"><rect fill="#F1F1F1" height="96.8906" rx="2.5" ry="2.5" style="stroke:#181818;stroke-width:0.5;" width="106.4912" x="268.78" y="322.19"/><ellipse cx="283.78" cy="338.19" fill="#ADD1B2" rx="11" ry="11" style="stroke:#181818;stroke-width:1;"/><path d="M286.7488,343.8306 Q286.1706,344.1275 285.53,344.2681 Q284.8894,344.4244 284.1863,344.4244 Q281.6863,344.4244 280.3581,342.7838 Q279.0456,341.1275 279.0456,338.0025 Q279.0456,334.8775 280.3581,333.2213 Q281.6863,331.565 284.1863,331.565 Q284.8894,331.565 285.53,331.7213 Q286.1863,331.8775 286.7488,332.1744 L286.7488,334.8931 Q286.1238,334.315 285.53,334.0494 Q284.9363,333.7681 284.3113,333.7681 Q282.9675,333.7681 282.28,334.8463 Q281.5925,335.9088 281.5925,338.0025 Q281.5925,340.0963 282.28,341.1744 Q282.9675,342.2369 284.3113,342.2369 Q284.9363,342.2369 285.53,341.9713 Q286.1238,341.69 286.7488,341.1119 L286.7488,343.8306 Z " fill="#000000"/><text fill="#000000" font-family="sans-serif" font-size="14" lengthAdjust="spacing" textLength="74.4912" x="297.78" y="343.0367">Aprovacao</text><line style="stroke:#181818;stroke-width:0.5;" x1="269.78" x2="374.2712" y1="354.19" y2="354.19"/><rect fill="none" height="6" style="stroke:#C82930;stroke-width:1;" width="6" x="276.78" y="364.8384"/><text fill="#000000" font-family="sans-serif" font-size="14" lengthAdjust="spacing" textLength="31.5342" x="288.78" y="371.1851">data</text><rect fill="none" height="6" style="stroke:#C82930;stroke-width:1;" width="6" x="276.78" y="381.1353"/><text fill="#000000" font-family="sans-serif" font-size="14" lengthAdjust="spacing" textLength="43.0186" x="288.78" y="387.482">status</text><rect fill="none" height="6" style="stroke:#C82930;stroke-width:1;" width="6" x="276.78" y="397.4322"/><text fill="#000000" font-family="sans-serif" font-size="14" lengthAdjust="spacing" textLength="48.4326" x="288.78" y="403.7789">motivo</text><line style="stroke:#181818;stroke-width:0.5;" x1="269.78" x2="374.2712" y1="411.0806" y2="411.0806"/></g><!--class CertidaoCNPJ--><g class="entity" data-entity="CertidaoCNPJ" data-source-line="53" data-uid="ent0015" id="entity_CertidaoCNPJ"><rect fill="#F1F1F1" height="80.5938" rx="2.5" ry="2.5" style="stroke:#181818;stroke-width:0.5;" width="124.374" x="679.84" y="164.59"/><ellipse cx="694.84" cy="180.59" fill="#ADD1B2" rx="11" ry="11" style="stroke:#181818;stroke-width:1;"/><path d="M697.8088,186.2306 Q697.2306,186.5275 696.59,186.6681 Q695.9494,186.8244 695.2463,186.8244 Q692.7463,186.8244 691.4181,185.1838 Q690.1056,183.5275 690.1056,180.4025 Q690.1056,177.2775 691.4181,175.6213 Q692.7463,173.965 695.2463,173.965 Q695.9494,173.965 696.59,174.1213 Q697.2463,174.2775 697.8088,174.5744 L697.8088,177.2931 Q697.1838,176.715 696.59,176.4494 Q695.9963,176.1681 695.3713,176.1681 Q694.0275,176.1681 693.34,177.2463 Q692.6525,178.3088 692.6525,180.4025 Q692.6525,182.4963 693.34,183.5744 Q694.0275,184.6369 695.3713,184.6369 Q695.9963,184.6369 696.59,184.3713 Q697.1838,184.09 697.8088,183.5119 L697.8088,186.2306 Z " fill="#000000"/><text fill="#000000" font-family="sans-serif" font-size="14" lengthAdjust="spacing" textLength="92.374" x="708.84" y="185.4367">CertidaoCNPJ</text><line style="stroke:#181818;stroke-width:0.5;" x1="680.84" x2="803.214" y1="196.59" y2="196.59"/><rect fill="none" height="6" style="stroke:#C82930;stroke-width:1;" width="6" x="687.84" y="207.2384"/><text fill="#000000" font-family="sans-serif" font-size="14" lengthAdjust="spacing" textLength="93.5225" x="699.84" y="213.5851">nomeArquivo</text><rect fill="none" height="6" style="stroke:#C82930;stroke-width:1;" width="6" x="687.84" y="223.5353"/><text fill="#000000" font-family="sans-serif" font-size="14" lengthAdjust="spacing" textLength="26.8311" x="699.84" y="229.882">tipo</text><line style="stroke:#181818;stroke-width:0.5;" x1="680.84" x2="803.214" y1="237.1838" y2="237.1838"/></g><!--class Solicitante--><g class="entity" data-entity="Solicitante" data-source-line="62" data-uid="ent0019" id="entity_Solicitante"><rect fill="#F1F1F1" height="48" rx="2.5" ry="2.5" style="stroke:#181818;stroke-width:0.5;" width="105.8623" x="689.1" y="23.3"/><ellipse cx="704.1" cy="39.3" fill="#ADD1B2" rx="11" ry="11" style="stroke:#181818;stroke-width:1;"/><path d="M707.0688,44.9406 Q706.4906,45.2375 705.85,45.3781 Q705.2094,45.5344 704.5063,45.5344 Q702.0063,45.5344 700.6781,43.8938 Q699.3656,42.2375 699.3656,39.1125 Q699.3656,35.9875 700.6781,34.3313 Q702.0063,32.675 704.5063,32.675 Q705.2094,32.675 705.85,32.8313 Q706.5063,32.9875 707.0688,33.2844 L707.0688,36.0031 Q706.4438,35.425 705.85,35.1594 Q705.2563,34.8781 704.6313,34.8781 Q703.2875,34.8781 702.6,35.9563 Q701.9125,37.0188 701.9125,39.1125 Q701.9125,41.2063 702.6,42.2844 Q703.2875,43.3469 704.6313,43.3469 Q705.2563,43.3469 705.85,43.0813 Q706.4438,42.8 707.0688,42.2219 L707.0688,44.9406 Z " fill="#000000"/><text fill="#000000" font-family="sans-serif" font-size="14" lengthAdjust="spacing" textLength="73.8623" x="718.1" y="44.1467">Solicitante</text><line style="stroke:#181818;stroke-width:0.5;" x1="690.1" x2="793.9623" y1="55.3" y2="55.3"/><line style="stroke:#181818;stroke-width:0.5;" x1="690.1" x2="793.9623" y1="63.3" y2="63.3"/></g><!--reverse link Candidato to Voluntario--><g class="link" data-entity-1="Candidato" data-entity-2="Voluntario" data-source-line="11" data-uid="lnk5" id="link_Candidato_Voluntario"><path d="M136.0751,102.3035 C113.8151,131.6635 95.13,156.29 76.59,180.73" fill="none" id="Candidato-backto-Voluntario" style="stroke:#181818;stroke-width:1;"/><polygon fill="none" points="146.95,87.96,131.2939,98.6786,140.8563,105.9285,146.95,87.96" style="stroke:#181818;stroke-width:1;"/></g><!--link Perfil to Habilidade--><g class="link" data-entity-1="Perfil" data-entity-2="Habilidade" data-source-line="58" data-uid="lnk16" id="link_Perfil_Habilidade"><path codeLine="58" d="M491.87,702.12 C480.87,723.34 464.58,754.76 452.42,778.2" fill="none" id="Perfil-Habilidade" style="stroke:#181818;stroke-width:1;"/><text fill="#000000" font-family="sans-serif" font-size="13" lengthAdjust="spacing" textLength="49.0991" x="478.03" y="744.7369">cont&#233;m</text><text fill="#000000" font-family="sans-serif" font-size="13" lengthAdjust="spacing" textLength="23.0356" x="463.4028" y="721.5907">1..*</text><text fill="#000000" font-family="sans-serif" font-size="13" lengthAdjust="spacing" textLength="23.0356" x="430.3567" y="767.632">1..*</text></g><!--link Perfil to Interesse--><g class="link" data-entity-1="Perfil" data-entity-2="Interesse" data-source-line="59" data-uid="lnk17" id="link_Perfil_Interesse"><path codeLine="59" d="M517.59,702.01 C522.83,711.2 528.81,721.87 534.03,731.67 C542.15,746.93 550.77,764.1 557.84,778.45" fill="none" id="Perfil-Interesse" style="stroke:#181818;stroke-width:1;"/><text fill="#000000" font-family="sans-serif" font-size="13" lengthAdjust="spacing" textLength="41.6025" x="544.03" y="744.7369">possui</text><text fill="#000000" font-family="sans-serif" font-size="13" lengthAdjust="spacing" textLength="23.0356" x="495.0965" y="721.8541">1..*</text><text fill="#000000" font-family="sans-serif" font-size="13" lengthAdjust="spacing" textLength="23.0356" x="529.5894" y="767.6809">1..*</text></g><!--link Candidato to Afiliacao--><g class="link" data-entity-1="Candidato" data-entity-2="Afiliacao" data-source-line="61" data-uid="lnk18" id="link_Candidato_Afiliacao"><path codeLine="61" d="M184.76,87.94 C187.77,102.64 191.37,119.42 195.03,134.59 C198.01,146.96 201.63,160.48 204.91,172.26" fill="none" id="Candidato-Afiliacao" style="stroke:#181818;stroke-width:1;"/><text fill="#000000" font-family="sans-serif" font-size="13" lengthAdjust="spacing" textLength="41.6025" x="196.03" y="130.6569">possui</text><text fill="#000000" font-family="sans-serif" font-size="13" lengthAdjust="spacing" textLength="8.271" x="177.3757" y="107.6903">1</text><text fill="#000000" font-family="sans-serif" font-size="13" lengthAdjust="spacing" textLength="8.271" x="194.4345" y="161.6901">1</text></g><!--link Solicitante to CertidaoCNPJ--><g class="link" data-entity-1="Solicitante" data-entity-2="CertidaoCNPJ" data-source-line="62" data-uid="lnk20" id="link_Solicitante_CertidaoCNPJ"><path codeLine="62" d="M742.03,71.59 C742.03,96.01 742.03,134.82 742.03,164.1" fill="none" id="Solicitante-CertidaoCNPJ" style="stroke:#181818;stroke-width:1;"/><text fill="#000000" font-family="sans-serif" font-size="13" lengthAdjust="spacing" textLength="39.8633" x="743.03" y="130.6569">anexa</text><text fill="#000000" font-family="sans-serif" font-size="13" lengthAdjust="spacing" textLength="8.271" x="733.0877" y="91.4219">1</text><text fill="#000000" font-family="sans-serif" font-size="13" lengthAdjust="spacing" textLength="23.0356" x="717.2005" y="153.4818">0..*</text></g><!--link Voluntario to Perfil--><g class="link" data-entity-1="Voluntario" data-entity-2="Perfil" data-source-line="64" data-uid="lnk21" id="link_Voluntario_Perfil"><path codeLine="64" d="M57.08,229.26 C54.8,271.05 55.47,359.74 95.03,419.08 C189.17,560.29 389.84,639.16 469.96,666.05" fill="none" id="Voluntario-Perfil" style="stroke:#181818;stroke-width:1;"/><text fill="#000000" font-family="sans-serif" font-size="13" lengthAdjust="spacing" textLength="41.6025" x="134.03" y="462.1469">possui</text><text fill="#000000" font-family="sans-serif" font-size="13" lengthAdjust="spacing" textLength="8.271" x="47.663" y="249.1114">1</text><text fill="#000000" font-family="sans-serif" font-size="13" lengthAdjust="spacing" textLength="8.271" x="454.1361" y="659.1871">1</text></g><!--reverse link Voluntario to Email--><g class="link" data-entity-1="Voluntario" data-entity-2="Email" data-source-line="65" data-uid="lnk22" id="link_Voluntario_Email"><path codeLine="65" d="M79.4193,239.6186 C96.6893,268.1786 119.72,306.27 138.95,338.08" fill="none" id="Voluntario-backto-Email" style="stroke:#181818;stroke-width:1;"/><polygon fill="#181818" points="73.21,229.35,72.8918,236.5541,79.4193,239.6186,79.7375,232.4145,73.21,229.35" style="stroke:#181818;stroke-width:1;"/><text fill="#000000" font-family="sans-serif" font-size="13" lengthAdjust="spacing" textLength="41.6025" x="110.03" y="288.2569">possui</text><text fill="#000000" font-family="sans-serif" font-size="13" lengthAdjust="spacing" textLength="8.271" x="67.5957" y="248.823">1</text><text fill="#000000" font-family="sans-serif" font-size="13" lengthAdjust="spacing" textLength="8.271" x="126.5764" y="327.5234">1</text></g><!--reverse link ONG to Campanha--><g class="link" data-entity-1="ONG" data-entity-2="Campanha" data-source-line="67" data-uid="lnk23" id="link_ONG_Campanha"><path codeLine="67" d="M504.03,415.21 C504.03,441.6 504.03,467.38 504.03,495.79" fill="none" id="ONG-backto-Campanha" style="stroke:#181818;stroke-width:1;"/><polygon fill="#181818" points="504.03,403.21,500.03,409.21,504.03,415.21,508.03,409.21,504.03,403.21" style="stroke:#181818;stroke-width:1;"/><text fill="#000000" font-family="sans-serif" font-size="13" lengthAdjust="spacing" textLength="29.561" x="505.03" y="462.1469">abre</text><text fill="#000000" font-family="sans-serif" font-size="13" lengthAdjust="spacing" textLength="8.271" x="495.2943" y="422.9282">1</text><text fill="#000000" font-family="sans-serif" font-size="13" lengthAdjust="spacing" textLength="23.0356" x="479.128" y="484.9035">0..*</text></g><!--link Campanha to Perfil--><g class="link" data-entity-1="Campanha" data-entity-2="Perfil" data-source-line="68" data-uid="lnk24" id="link_Campanha_Perfil"><path codeLine="68" d="M504.03,576.92 C504.03,601.53 504.03,632.36 504.03,653.18" fill="none" id="Campanha-Perfil" style="stroke:#181818;stroke-width:1;"/><text fill="#000000" font-family="sans-serif" font-size="13" lengthAdjust="spacing" textLength="49.0991" x="505.03" y="619.7369">cont&#233;m</text><text fill="#000000" font-family="sans-serif" font-size="13" lengthAdjust="spacing" textLength="23.0356" x="479.1998" y="596.6544">1..*</text><text fill="#000000" font-family="sans-serif" font-size="13" lengthAdjust="spacing" textLength="23.0356" x="478.2313" y="642.4655">1..*</text></g><!--link Representante to Afiliacao--><g class="link" data-entity-1="Representante" data-entity-2="Afiliacao" data-source-line="70" data-uid="lnk25" id="link_Representante_Afiliacao"><path codeLine="70" d="M331.16,71.8 C317.52,84.96 300.49,101.85 286.03,117.59 C269.8,135.27 252.54,155.88 238.99,172.53" fill="none" id="Representante-Afiliacao" style="stroke:#181818;stroke-width:1;"/><text fill="#000000" font-family="sans-serif" font-size="13" lengthAdjust="spacing" textLength="38.8159" x="287.03" y="130.6569">avalia</text><text fill="#000000" font-family="sans-serif" font-size="13" lengthAdjust="spacing" textLength="8.271" x="316.515" y="91.2823">1</text><text fill="#000000" font-family="sans-serif" font-size="13" lengthAdjust="spacing" textLength="23.0356" x="218.6431" y="161.7628">1..*</text></g><!--link Representante to Aprovacao--><g class="link" data-entity-1="Representante" data-entity-2="Aprovacao" data-source-line="71" data-uid="lnk26" id="link_Representante_Aprovacao"><path codeLine="71" d="M353.56,71.67 C348.01,124.09 334.48,251.96 327.08,321.94" fill="none" id="Representante-Aprovacao" style="stroke:#181818;stroke-width:1;"/><text fill="#000000" font-family="sans-serif" font-size="13" lengthAdjust="spacing" textLength="45.7729" x="345.03" y="209.4569">solicita</text><text fill="#000000" font-family="sans-serif" font-size="13" lengthAdjust="spacing" textLength="8.271" x="344.0159" y="91.5214">1</text><text fill="#000000" font-family="sans-serif" font-size="13" lengthAdjust="spacing" textLength="23.0356" x="303.1761" y="311.1138">1..*</text></g><!--link Representante to Perfil--><g class="link" data-entity-1="Representante" data-entity-2="Perfil" data-source-line="72" data-uid="lnk27" id="link_Representante_Perfil"><path codeLine="72" d="M424.06,57.36 C504.34,72.31 627.03,110.44 627.03,203.89 C627.03,203.89 627.03,203.89 627.03,537.38 C627.03,591.42 574.37,634.37 537.96,657.62" fill="none" id="Representante-Perfil" style="stroke:#181818;stroke-width:1;"/><text fill="#000000" font-family="sans-serif" font-size="13" lengthAdjust="spacing" textLength="65.0825" x="628.03" y="375.1969">especifica</text><text fill="#000000" font-family="sans-serif" font-size="13" lengthAdjust="spacing" textLength="8.271" x="431.9531" y="54.7142">1</text><text fill="#000000" font-family="sans-serif" font-size="13" lengthAdjust="spacing" textLength="23.0356" x="545.7714" y="649.9632">1..*</text></g><!--link Representante to Recomendacao--><g class="link" data-entity-1="Representante" data-entity-2="Recomendacao" data-source-line="73" data-uid="lnk28" id="link_Representante_Recomendacao"><path codeLine="73" d="M378.19,71.59 C406.09,100.92 453.75,151.03 481.72,180.44" fill="none" id="Representante-Recomendacao" style="stroke:#181818;stroke-width:1;"/><text fill="#000000" font-family="sans-serif" font-size="13" lengthAdjust="spacing" textLength="45.7729" x="436.03" y="130.6569">solicita</text><text fill="#000000" font-family="sans-serif" font-size="13" lengthAdjust="spacing" textLength="8.271" x="374.6494" y="91.4219">1</text><text fill="#000000" font-family="sans-serif" font-size="13" lengthAdjust="spacing" textLength="23.0356" x="450.4837" y="169.7353">1..*</text></g><!--link Recomendacao to ONG--><g class="link" data-entity-1="Recomendacao" data-entity-2="ONG" data-source-line="75" data-uid="lnk29" id="link_Recomendacao_ONG"><path codeLine="75" d="M504.03,229.35 C504.03,257.91 504.03,306.27 504.03,338.08" fill="none" id="Recomendacao-ONG" style="stroke:#181818;stroke-width:1;"/><text fill="#000000" font-family="sans-serif" font-size="13" lengthAdjust="spacing" textLength="65.6348" x="505.03" y="288.2569">apresenta</text><text fill="#000000" font-family="sans-serif" font-size="13" lengthAdjust="spacing" textLength="23.0356" x="478.3753" y="248.823">0..*</text><text fill="#000000" font-family="sans-serif" font-size="13" lengthAdjust="spacing" textLength="23.0356" x="478.8422" y="327.5234">0..*</text></g><!--link Afiliacao to Aprovacao--><g class="link" data-entity-1="Afiliacao" data-entity-2="Aprovacao" data-source-line="77" data-uid="lnk30" id="link_Afiliacao_Aprovacao"><path codeLine="77" d="M229.55,237.38 C238.18,254.06 249.48,274.67 261.03,292.19 C267.53,302.05 274.96,312.22 282.34,321.82" fill="none" id="Afiliacao-Aprovacao" style="stroke:#181818;stroke-width:1;"/><text fill="#000000" font-family="sans-serif" font-size="13" lengthAdjust="spacing" textLength="63.4131" x="262.03" y="288.2569">passa por</text><text fill="#000000" font-family="sans-serif" font-size="13" lengthAdjust="spacing" textLength="8.271" x="223.7715" y="257.0829">1</text><text fill="#000000" font-family="sans-serif" font-size="13" lengthAdjust="spacing" textLength="8.271" x="268.2158" y="310.9769">1</text></g><!--SRC=[VPDBQiCm48RtEeNmCf3GRBqBQUbZaOOMkYqJMQ4gjgHASWY47gZdwCKwaVLoGktL87sQcV-VCMl1Mhe6sOW6dA8dGl6RIzNn8M9w_ywa_YJVX30FFs_kwOaMNBfvKsql7HYXA3ywBfjnvWokeTCWF-2wNCCjCuA1ol1gBre1U1HfJ0UtF1rdSiiD7eugFS0EiGOQdbvVLtYKZXjkxHJpmZKY7EKX7BXyUzU1B-nVet1CnqQF6IgKJL1HQDD67Iwr3P5ru7exn9roub3aMtFZK9HQRxPFfOShyzMVGN_WXFPFWYlLSh6OLNG-Zr6sfgPCIVVxq_tB9eTggfMrlI0aJxPQ1hJAiqhSgse54uDh4RpnEKiHDGN9Zq18iK95sg6jbFC2cWNA3o4tUDxJT1rAXht3SZl3ILh3AxsnOFI5ZCUVMlDm8HeEWE4q7KTUKnkycUHZAzngpiGUjt8IBrUjg416AnZioCQWLzXyp4f8_kVAuQPbhMcbSGy1lJRL7m00]--></g></svg>