<svg xmlns="http://www.w3.org/2000/svg" xmlns:xlink="http://www.w3.org/1999/xlink" contentStyleType="text/css" data-diagram-type="CLASS" height="1080px" preserveAspectRatio="none" style="width:1742px;height:1080px;background:#FFFFFF;" version="1.1" viewBox="0 0 1742 1080" width="1742px" zoomAndPan="magnify"><title>Diagrama de Classes de Projeto - Fluxo de Solicita&#231;&#227;o de Afilia&#231;&#227;o</title><defs/><g><g class="title" data-source-line="1"><text fill="#000000" font-family="sans-serif" font-size="14" font-weight="bold" lengthAdjust="spacing" textLength="522.3066" x="603.191" y="22.9951">Diagrama de Classes de Projeto - Fluxo de Solicita&#231;&#227;o de Afilia&#231;&#227;o</text></g><!--class GUI--><g class="entity" data-entity="GUI" data-source-line="6" data-uid="ent0002" id="entity_GUI"><rect fill="#F1F1F1" height="137.75" rx="2.5" ry="2.5" style="stroke:#181818;stroke-width:0.5;" width="316.7324" x="832.63" y="44.2969"/><ellipse cx="955.4972" cy="64.4297" fill="#ADD1B2" rx="11" ry="11" style="stroke:#181818;stroke-width:1;"/><path d="M958.4659,70.0703 Q957.8878,70.3672 957.2472,70.5078 Q956.6066,70.6641 955.9034,70.6641 Q953.4034,70.6641 952.0753,69.0234 Q950.7628,67.3672 950.7628,64.2422 Q950.7628,61.1172 952.0753,59.4609 Q953.4034,57.8047 955.9034,57.8047 Q956.6066,57.8047 957.2472,57.9609 Q957.9034,58.1172 958.4659,58.4141 L958.4659,61.1328 Q957.8409,60.5547 957.2472,60.2891 Q956.6534,60.0078 956.0284,60.0078 Q954.6847,60.0078 953.9972,61.0859 Q953.3097,62.1484 953.3097,64.2422 Q953.3097,66.3359 953.9972,67.4141 Q954.6847,68.4766 956.0284,68.4766 Q956.6534,68.4766 957.2472,68.2109 Q957.8409,67.9297 958.4659,67.3516 L958.4659,70.0703 Z " fill="#000000"/><text fill="#000000" font-family="sans-serif" font-size="12" font-style="italic" lengthAdjust="spacing" textLength="66.498" x="973.9972" y="60.4355">&#171;fronteira&#187;</text><text fill="#000000" font-family="sans-serif" font-size="14" lengthAdjust="spacing" textLength="25.2246" x="994.6339" y="76.2607">GUI</text><line style="stroke:#181818;stroke-width:0.5;" x1="833.63" x2="1148.3624" y1="84.5625" y2="84.5625"/><line style="stroke:#181818;stroke-width:0.5;" x1="833.63" x2="1148.3624" y1="92.5625" y2="92.5625"/><ellipse cx="843.63" cy="106.2109" fill="#84BE84" rx="3" ry="3" style="stroke:#038048;stroke-width:1;"/><text fill="#000000" font-family="sans-serif" font-size="14" lengthAdjust="spacing" textLength="290.7324" x="852.63" y="109.5576">solicitaAfiliacao(email: String, cpf: String)</text><ellipse cx="843.63" cy="122.5078" fill="#84BE84" rx="3" ry="3" style="stroke:#038048;stroke-width:1;"/><text fill="#000000" font-family="sans-serif" font-size="14" lengthAdjust="spacing" textLength="215.626" x="852.63" y="125.8545">exibirFormularioIdentificacao()</text><ellipse cx="843.63" cy="138.8047" fill="#84BE84" rx="3" ry="3" style="stroke:#038048;stroke-width:1;"/><text fill="#000000" font-family="sans-serif" font-size="14" lengthAdjust="spacing" textLength="243.25" x="852.63" y="142.1514">exibirFormularioPerfilHabilidades()</text><ellipse cx="843.63" cy="155.1016" fill="#84BE84" rx="3" ry="3" style="stroke:#038048;stroke-width:1;"/><text fill="#000000" font-family="sans-serif" font-size="14" lengthAdjust="spacing" textLength="191.2354" x="852.63" y="158.4482">exibirTermoCompromisso()</text><ellipse cx="843.63" cy="171.3984" fill="#84BE84" rx="3" ry="3" style="stroke:#038048;stroke-width:1;"/><text fill="#000000" font-family="sans-serif" font-size="14" lengthAdjust="spacing" textLength="271.6602" x="852.63" y="174.7451">mostrarMensagem(mensagem: String)</text></g><!--class AfiliacaoController--><g class="entity" data-entity="AfiliacaoController" data-source-line="16" data-uid="ent0003" id="entity_AfiliacaoController"><rect fill="#F1F1F1" height="137.75" rx="2.5" ry="2.5" style="stroke:#181818;stroke-width:0.5;" width="624.2607" x="678.87" y="259.0469"/><ellipse cx="922.3661" cy="279.1797" fill="#ADD1B2" rx="11" ry="11" style="stroke:#181818;stroke-width:1;"/><path d="M925.3348,284.8203 Q924.7567,285.1172 924.1161,285.2578 Q923.4755,285.4141 922.7723,285.4141 Q920.2723,285.4141 918.9442,283.7734 Q917.6317,282.1172 917.6317,278.9922 Q917.6317,275.8672 918.9442,274.2109 Q920.2723,272.5547 922.7723,272.5547 Q923.4755,272.5547 924.1161,272.7109 Q924.7723,272.8672 925.3348,273.1641 L925.3348,275.8828 Q924.7098,275.3047 924.1161,275.0391 Q923.5223,274.7578 922.8973,274.7578 Q921.5536,274.7578 920.8661,275.8359 Q920.1786,276.8984 920.1786,278.9922 Q920.1786,281.0859 920.8661,282.1641 Q921.5536,283.2266 922.8973,283.2266 Q923.5223,283.2266 924.1161,282.9609 Q924.7098,282.6797 925.3348,282.1016 L925.3348,284.8203 Z " fill="#000000"/><text fill="#000000" font-family="sans-serif" font-size="12" font-style="italic" lengthAdjust="spacing" textLength="63.9258" x="975.2875" y="275.1855">&#171;controle&#187;</text><text fill="#000000" font-family="sans-serif" font-size="14" lengthAdjust="spacing" textLength="128.7686" x="942.8661" y="291.0107">AfiliacaoController</text><line style="stroke:#181818;stroke-width:0.5;" x1="679.87" x2="1302.1307" y1="299.3125" y2="299.3125"/><line style="stroke:#181818;stroke-width:0.5;" x1="679.87" x2="1302.1307" y1="307.3125" y2="307.3125"/><ellipse cx="689.87" cy="320.9609" fill="#84BE84" rx="3" ry="3" style="stroke:#038048;stroke-width:1;"/><text fill="#000000" font-family="sans-serif" font-size="14" lengthAdjust="spacing" textLength="290.7324" x="698.87" y="324.3076">solicitaAfiliacao(email: String, cpf: String)</text><ellipse cx="689.87" cy="337.2578" fill="#84BE84" rx="3" ry="3" style="stroke:#038048;stroke-width:1;"/><text fill="#000000" font-family="sans-serif" font-size="14" lengthAdjust="spacing" textLength="273.6357" x="698.87" y="340.6045">validarDadosIdentificacao(dados: Map)</text><ellipse cx="689.87" cy="353.5547" fill="#84BE84" rx="3" ry="3" style="stroke:#038048;stroke-width:1;"/><text fill="#000000" font-family="sans-serif" font-size="14" lengthAdjust="spacing" textLength="598.2607" x="698.87" y="356.9014">validarPerfil(perfil: Perfil, habilidades: List&lt;Habilidade&gt;, interesses: List&lt;Interesse&gt;)</text><ellipse cx="689.87" cy="369.8516" fill="#84BE84" rx="3" ry="3" style="stroke:#038048;stroke-width:1;"/><text fill="#000000" font-family="sans-serif" font-size="14" lengthAdjust="spacing" textLength="114.8232" x="698.87" y="373.1982">registrarAceite()</text><ellipse cx="689.87" cy="386.1484" fill="#84BE84" rx="3" ry="3" style="stroke:#038048;stroke-width:1;"/><text fill="#000000" font-family="sans-serif" font-size="14" lengthAdjust="spacing" textLength="265.5283" x="698.87" y="389.4951">criarPedidoAfiliacao(): PedidoAfiliacao</text></g><!--class Candidato--><g class="entity" data-entity="Candidato" data-source-line="26" data-uid="ent0004" id="entity_Candidato"><rect fill="#F1F1F1" height="235.5313" rx="2.5" ry="2.5" style="stroke:#181818;stroke-width:0.5;" width="652.1172" x="169.94" y="473.7969"/><ellipse cx="455.9864" cy="493.9297" fill="#ADD1B2" rx="11" ry="11" style="stroke:#181818;stroke-width:1;"/><path d="M458.9551,499.5703 Q458.377,499.8672 457.7364,500.0078 Q457.0958,500.1641 456.3926,500.1641 Q453.8926,500.1641 452.5645,498.5234 Q451.252,496.8672 451.252,493.7422 Q451.252,490.6172 452.5645,488.9609 Q453.8926,487.3047 456.3926,487.3047 Q457.0958,487.3047 457.7364,487.4609 Q458.3926,487.6172 458.9551,487.9141 L458.9551,490.6328 Q458.3301,490.0547 457.7364,489.7891 Q457.1426,489.5078 456.5176,489.5078 Q455.1739,489.5078 454.4864,490.5859 Q453.7989,491.6484 453.7989,493.7422 Q453.7989,495.8359 454.4864,496.9141 Q455.1739,497.9766 456.5176,497.9766 Q457.1426,497.9766 457.7364,497.7109 Q458.3301,497.4297 458.9551,496.8516 L458.9551,499.5703 Z " fill="#000000"/><text fill="#000000" font-family="sans-serif" font-size="12" font-style="italic" lengthAdjust="spacing" textLength="67.6816" x="478.4078" y="489.9355">&#171;entidade&#187;</text><text fill="#000000" font-family="sans-serif" font-size="14" lengthAdjust="spacing" textLength="71.5244" x="476.4864" y="505.7607">Candidato</text><line style="stroke:#181818;stroke-width:0.5;" x1="170.94" x2="821.0572" y1="514.0625" y2="514.0625"/><rect fill="none" height="6" style="stroke:#C82930;stroke-width:1;" width="6" x="177.94" y="524.7109"/><text fill="#000000" font-family="sans-serif" font-size="14" lengthAdjust="spacing" textLength="90.6377" x="189.94" y="531.0576">nome: String</text><rect fill="none" height="6" style="stroke:#C82930;stroke-width:1;" width="6" x="177.94" y="541.0078"/><text fill="#000000" font-family="sans-serif" font-size="14" lengthAdjust="spacing" textLength="74.9082" x="189.94" y="547.3545">sexo: Char</text><rect fill="none" height="6" style="stroke:#C82930;stroke-width:1;" width="6" x="177.94" y="557.3047"/><text fill="#000000" font-family="sans-serif" font-size="14" lengthAdjust="spacing" textLength="157.2744" x="189.94" y="563.6514">dataNascimento: Date</text><rect fill="none" height="6" style="stroke:#C82930;stroke-width:1;" width="6" x="177.94" y="573.6016"/><text fill="#000000" font-family="sans-serif" font-size="14" lengthAdjust="spacing" textLength="148.75" x="189.94" y="579.9482">nacionalidade: String</text><rect fill="none" height="6" style="stroke:#C82930;stroke-width:1;" width="6" x="177.94" y="589.8984"/><text fill="#000000" font-family="sans-serif" font-size="14" lengthAdjust="spacing" textLength="116.5664" x="189.94" y="596.2451">endereco: String</text><rect fill="none" height="6" style="stroke:#C82930;stroke-width:1;" width="6" x="177.94" y="606.1953"/><text fill="#000000" font-family="sans-serif" font-size="14" lengthAdjust="spacing" textLength="114.707" x="189.94" y="612.542">profissao: String</text><rect fill="none" height="6" style="stroke:#C82930;stroke-width:1;" width="6" x="177.94" y="622.4922"/><text fill="#000000" font-family="sans-serif" font-size="14" lengthAdjust="spacing" textLength="109.915" x="189.94" y="628.8389">situacao: String</text><rect fill="none" height="6" style="stroke:#C82930;stroke-width:1;" width="6" x="177.94" y="638.7891"/><text fill="#000000" font-family="sans-serif" font-size="14" lengthAdjust="spacing" textLength="80.6504" x="189.94" y="645.1357">perfil: Perfil</text><line style="stroke:#181818;stroke-width:0.5;" x1="170.94" x2="821.0572" y1="652.4375" y2="652.4375"/><ellipse cx="180.94" cy="666.0859" fill="#84BE84" rx="3" ry="3" style="stroke:#038048;stroke-width:1;"/><text fill="#000000" font-family="sans-serif" font-size="14" lengthAdjust="spacing" textLength="195.0498" x="189.94" y="669.4326">criarCandidato(dados: Map)</text><ellipse cx="180.94" cy="682.3828" fill="#84BE84" rx="3" ry="3" style="stroke:#038048;stroke-width:1;"/><text fill="#000000" font-family="sans-serif" font-size="14" lengthAdjust="spacing" textLength="626.1172" x="189.94" y="685.7295">armazenarPerfil(perfil: Perfil, habilidades: List&lt;Habilidade&gt;, interesses: List&lt;Interesse&gt;)</text><ellipse cx="180.94" cy="698.6797" fill="#84BE84" rx="3" ry="3" style="stroke:#038048;stroke-width:1;"/><text fill="#000000" font-family="sans-serif" font-size="14" lengthAdjust="spacing" textLength="226.4336" x="189.94" y="702.0264">atualizarSituacao(status: String)</text></g><!--class PedidoAfiliacao--><g class="entity" data-entity="PedidoAfiliacao" data-source-line="40" data-uid="ent0005" id="entity_PedidoAfiliacao"><rect fill="#F1F1F1" height="137.75" rx="2.5" ry="2.5" style="stroke:#181818;stroke-width:0.5;" width="316.2402" x="118.88" y="786.3269"/><ellipse cx="219.3102" cy="806.4597" fill="#ADD1B2" rx="11" ry="11" style="stroke:#181818;stroke-width:1;"/><path d="M222.2789,812.1003 Q221.7008,812.3972 221.0602,812.5378 Q220.4196,812.6941 219.7164,812.6941 Q217.2164,812.6941 215.8883,811.0534 Q214.5758,809.3972 214.5758,806.2722 Q214.5758,803.1472 215.8883,801.4909 Q217.2164,799.8347 219.7164,799.8347 Q220.4196,799.8347 221.0602,799.9909 Q221.7164,800.1472 222.2789,800.4441 L222.2789,803.1628 Q221.6539,802.5847 221.0602,802.3191 Q220.4664,802.0378 219.8414,802.0378 Q218.4977,802.0378 217.8102,803.1159 Q217.1227,804.1784 217.1227,806.2722 Q217.1227,808.3659 217.8102,809.4441 Q218.4977,810.5066 219.8414,810.5066 Q220.4664,810.5066 221.0602,810.2409 Q221.6539,809.9597 222.2789,809.3816 L222.2789,812.1003 Z " fill="#000000"/><text fill="#000000" font-family="sans-serif" font-size="12" font-style="italic" lengthAdjust="spacing" textLength="67.6816" x="259.4093" y="802.4655">&#171;entidade&#187;</text><text fill="#000000" font-family="sans-serif" font-size="14" lengthAdjust="spacing" textLength="106.8799" x="239.8102" y="818.2907">PedidoAfiliacao</text><line style="stroke:#181818;stroke-width:0.5;" x1="119.88" x2="434.1202" y1="826.5925" y2="826.5925"/><rect fill="none" height="6" style="stroke:#C82930;stroke-width:1;" width="6" x="126.88" y="837.2409"/><text fill="#000000" font-family="sans-serif" font-size="14" lengthAdjust="spacing" textLength="93.9668" x="138.88" y="843.5876">status: String</text><rect fill="none" height="6" style="stroke:#C82930;stroke-width:1;" width="6" x="126.88" y="853.5378"/><text fill="#000000" font-family="sans-serif" font-size="14" lengthAdjust="spacing" textLength="74.1631" x="138.88" y="859.8845">data: Date</text><rect fill="none" height="6" style="stroke:#C82930;stroke-width:1;" width="6" x="126.88" y="869.8347"/><text fill="#000000" font-family="sans-serif" font-size="14" lengthAdjust="spacing" textLength="150.1377" x="138.88" y="876.1814">candidato: Candidato</text><line style="stroke:#181818;stroke-width:0.5;" x1="119.88" x2="434.1202" y1="883.4831" y2="883.4831"/><ellipse cx="129.88" cy="897.1316" fill="#84BE84" rx="3" ry="3" style="stroke:#038048;stroke-width:1;"/><text fill="#000000" font-family="sans-serif" font-size="14" lengthAdjust="spacing" textLength="149.4814" x="138.88" y="900.4782">criarPedidoAfiliacao()</text><ellipse cx="129.88" cy="913.4284" fill="#84BE84" rx="3" ry="3" style="stroke:#038048;stroke-width:1;"/><text fill="#000000" font-family="sans-serif" font-size="14" lengthAdjust="spacing" textLength="290.2402" x="138.88" y="916.7751">associarCandidato(candidato: Candidato)</text></g><!--class EmailValidador--><g class="entity" data-entity="EmailValidador" data-source-line="48" data-uid="ent0006" id="entity_EmailValidador"><rect fill="#F1F1F1" height="72.5625" rx="2.5" ry="2.5" style="stroke:#181818;stroke-width:0.5;" width="267.3906" x="857.3" y="555.2769"/><ellipse cx="934.0197" cy="575.4097" fill="#ADD1B2" rx="11" ry="11" style="stroke:#181818;stroke-width:1;"/><path d="M936.9885,581.0503 Q936.4104,581.3472 935.7697,581.4878 Q935.1291,581.6441 934.426,581.6441 Q931.926,581.6441 930.5979,580.0034 Q929.2854,578.3472 929.2854,575.2222 Q929.2854,572.0972 930.5979,570.4409 Q931.926,568.7847 934.426,568.7847 Q935.1291,568.7847 935.7697,568.9409 Q936.426,569.0972 936.9885,569.3941 L936.9885,572.1128 Q936.3635,571.5347 935.7697,571.2691 Q935.176,570.9878 934.551,570.9878 Q933.2072,570.9878 932.5197,572.0659 Q931.8322,573.1284 931.8322,575.2222 Q931.8322,577.3159 932.5197,578.3941 Q933.2072,579.4566 934.551,579.4566 Q935.176,579.4566 935.7697,579.1909 Q936.3635,578.9097 936.9885,578.3316 L936.9885,581.0503 Z " fill="#000000"/><text fill="#000000" font-family="sans-serif" font-size="12" font-style="italic" lengthAdjust="spacing" textLength="67.6816" x="973.4045" y="571.4155">&#171;entidade&#187;</text><text fill="#000000" font-family="sans-serif" font-size="14" lengthAdjust="spacing" textLength="105.4512" x="954.5197" y="587.2407">EmailValidador</text><line style="stroke:#181818;stroke-width:0.5;" x1="858.3" x2="1123.6906" y1="595.5425" y2="595.5425"/><line style="stroke:#181818;stroke-width:0.5;" x1="858.3" x2="1123.6906" y1="603.5425" y2="603.5425"/><ellipse cx="868.3" cy="617.1909" fill="#84BE84" rx="3" ry="3" style="stroke:#038048;stroke-width:1;"/><text fill="#000000" font-family="sans-serif" font-size="14" lengthAdjust="spacing" textLength="241.3906" x="877.3" y="620.5376">enviarLinkValidacao(email: String)</text></g><!--class Perfil--><g class="entity" data-entity="Perfil" data-source-line="52" data-uid="ent0007" id="entity_Perfil"><rect fill="#F1F1F1" height="88.8594" rx="2.5" ry="2.5" style="stroke:#181818;stroke-width:0.5;" width="237.9961" x="785" y="810.7669"/><ellipse cx="867.9072" cy="830.8997" fill="#ADD1B2" rx="11" ry="11" style="stroke:#181818;stroke-width:1;"/><path d="M870.876,836.5403 Q870.2979,836.8372 869.6572,836.9778 Q869.0166,837.1341 868.3135,837.1341 Q865.8135,837.1341 864.4854,835.4934 Q863.1729,833.8372 863.1729,830.7122 Q863.1729,827.5872 864.4854,825.9309 Q865.8135,824.2747 868.3135,824.2747 Q869.0166,824.2747 869.6572,824.4309 Q870.3135,824.5872 870.876,824.8841 L870.876,827.6028 Q870.251,827.0247 869.6572,826.7591 Q869.0635,826.4778 868.4385,826.4778 Q867.0947,826.4778 866.4072,827.5559 Q865.7197,828.6184 865.7197,830.7122 Q865.7197,832.8059 866.4072,833.8841 Q867.0947,834.9466 868.4385,834.9466 Q869.0635,834.9466 869.6572,834.6809 Q870.251,834.3997 870.876,833.8216 L870.876,836.5403 Z " fill="#000000"/><text fill="#000000" font-family="sans-serif" font-size="12" font-style="italic" lengthAdjust="spacing" textLength="67.6816" x="886.4072" y="826.9055">&#171;entidade&#187;</text><text fill="#000000" font-family="sans-serif" font-size="14" lengthAdjust="spacing" textLength="35.5195" x="902.4883" y="842.7307">Perfil</text><line style="stroke:#181818;stroke-width:0.5;" x1="786" x2="1021.9961" y1="851.0325" y2="851.0325"/><rect fill="none" height="6" style="stroke:#C82930;stroke-width:1;" width="6" x="793" y="861.6809"/><text fill="#000000" font-family="sans-serif" font-size="14" lengthAdjust="spacing" textLength="211.9961" x="805" y="868.0276">habilidades: List&lt;Habilidade&gt;</text><rect fill="none" height="6" style="stroke:#C82930;stroke-width:1;" width="6" x="793" y="877.9778"/><text fill="#000000" font-family="sans-serif" font-size="14" lengthAdjust="spacing" textLength="193.5049" x="805" y="884.3245">interesses: List&lt;Interesse&gt;</text><line style="stroke:#181818;stroke-width:0.5;" x1="786" x2="1021.9961" y1="891.6262" y2="891.6262"/></g><!--class Habilidade--><g class="entity" data-entity="Habilidade" data-source-line="57" data-uid="ent0008" id="entity_Habilidade"><rect fill="#F1F1F1" height="72.5625" rx="2.5" ry="2.5" style="stroke:#181818;stroke-width:0.5;" width="143.9268" x="742.03" y="1001.0769"/><ellipse cx="773.8145" cy="1021.2097" fill="#ADD1B2" rx="11" ry="11" style="stroke:#181818;stroke-width:1;"/><path d="M776.7832,1026.8503 Q776.2051,1027.1472 775.5645,1027.2878 Q774.9238,1027.4441 774.2207,1027.4441 Q771.7207,1027.4441 770.3926,1025.8034 Q769.0801,1024.1472 769.0801,1021.0222 Q769.0801,1017.8972 770.3926,1016.2409 Q771.7207,1014.5847 774.2207,1014.5847 Q774.9238,1014.5847 775.5645,1014.7409 Q776.2207,1014.8972 776.7832,1015.1941 L776.7832,1017.9128 Q776.1582,1017.3347 775.5645,1017.0691 Q774.9707,1016.7878 774.3457,1016.7878 Q773.002,1016.7878 772.3145,1017.8659 Q771.627,1018.9284 771.627,1021.0222 Q771.627,1023.1159 772.3145,1024.1941 Q773.002,1025.2566 774.3457,1025.2566 Q774.9707,1025.2566 775.5645,1024.9909 Q776.1582,1024.7097 776.7832,1024.1316 L776.7832,1026.8503 Z " fill="#000000"/><text fill="#000000" font-family="sans-serif" font-size="12" font-style="italic" lengthAdjust="spacing" textLength="67.6816" x="795.0175" y="1017.2155">&#171;entidade&#187;</text><text fill="#000000" font-family="sans-serif" font-size="14" lengthAdjust="spacing" textLength="74.6279" x="791.5444" y="1033.0407">Habilidade</text><line style="stroke:#181818;stroke-width:0.5;" x1="743.03" x2="884.9568" y1="1041.3425" y2="1041.3425"/><rect fill="none" height="6" style="stroke:#C82930;stroke-width:1;" width="6" x="750.03" y="1051.9909"/><text fill="#000000" font-family="sans-serif" font-size="14" lengthAdjust="spacing" textLength="117.9268" x="762.03" y="1058.3376">descricao: String</text><line style="stroke:#181818;stroke-width:0.5;" x1="743.03" x2="884.9568" y1="1065.6394" y2="1065.6394"/></g><!--class Interesse--><g class="entity" data-entity="Interesse" data-source-line="61" data-uid="ent0009" id="entity_Interesse"><rect fill="#F1F1F1" height="72.5625" rx="2.5" ry="2.5" style="stroke:#181818;stroke-width:0.5;" width="143.9268" x="921.03" y="1001.0769"/><ellipse cx="957.2934" cy="1021.2097" fill="#ADD1B2" rx="11" ry="11" style="stroke:#181818;stroke-width:1;"/><path d="M960.2621,1026.8503 Q959.684,1027.1472 959.0434,1027.2878 Q958.4028,1027.4441 957.6996,1027.4441 Q955.1996,1027.4441 953.8715,1025.8034 Q952.559,1024.1472 952.559,1021.0222 Q952.559,1017.8972 953.8715,1016.2409 Q955.1996,1014.5847 957.6996,1014.5847 Q958.4028,1014.5847 959.0434,1014.7409 Q959.6996,1014.8972 960.2621,1015.1941 L960.2621,1017.9128 Q959.6371,1017.3347 959.0434,1017.0691 Q958.4496,1016.7878 957.8246,1016.7878 Q956.4809,1016.7878 955.7934,1017.8659 Q955.1059,1018.9284 955.1059,1021.0222 Q955.1059,1023.1159 955.7934,1024.1941 Q956.4809,1025.2566 957.8246,1025.2566 Q958.4496,1025.2566 959.0434,1024.9909 Q959.6371,1024.7097 960.2621,1024.1316 L960.2621,1026.8503 Z " fill="#000000"/><text fill="#000000" font-family="sans-serif" font-size="12" font-style="italic" lengthAdjust="spacing" textLength="67.6816" x="974.5152" y="1017.2155">&#171;entidade&#187;</text><text fill="#000000" font-family="sans-serif" font-size="14" lengthAdjust="spacing" textLength="64.6748" x="976.0186" y="1033.0407">Interesse</text><line style="stroke:#181818;stroke-width:0.5;" x1="922.03" x2="1063.9568" y1="1041.3425" y2="1041.3425"/><rect fill="none" height="6" style="stroke:#C82930;stroke-width:1;" width="6" x="929.03" y="1051.9909"/><text fill="#000000" font-family="sans-serif" font-size="14" lengthAdjust="spacing" textLength="117.9268" x="941.03" y="1058.3376">descricao: String</text><line style="stroke:#181818;stroke-width:0.5;" x1="922.03" x2="1063.9568" y1="1065.6394" y2="1065.6394"/></g><!--class CandidatoCollection--><g class="entity" data-entity="CandidatoCollection" data-source-line="65" data-uid="ent0010" id="entity_CandidatoCollection"><rect fill="#F1F1F1" height="72.5625" rx="2.5" ry="2.5" style="stroke:#181818;stroke-width:0.5;" width="443.3887" x="1292.3" y="555.2769"/><ellipse cx="1439.3581" cy="575.4097" fill="#ADD1B2" rx="11" ry="11" style="stroke:#181818;stroke-width:1;"/><path d="M1442.3269,581.0503 Q1441.7487,581.3472 1441.1081,581.4878 Q1440.4675,581.6441 1439.7644,581.6441 Q1437.2644,581.6441 1435.9362,580.0034 Q1434.6237,578.3472 1434.6237,575.2222 Q1434.6237,572.0972 1435.9362,570.4409 Q1437.2644,568.7847 1439.7644,568.7847 Q1440.4675,568.7847 1441.1081,568.9409 Q1441.7644,569.0972 1442.3269,569.3941 L1442.3269,572.1128 Q1441.7019,571.5347 1441.1081,571.2691 Q1440.5144,570.9878 1439.8894,570.9878 Q1438.5456,570.9878 1437.8581,572.0659 Q1437.1706,573.1284 1437.1706,575.2222 Q1437.1706,577.3159 1437.8581,578.3941 Q1438.5456,579.4566 1439.8894,579.4566 Q1440.5144,579.4566 1441.1081,579.1909 Q1441.7019,578.9097 1442.3269,578.3316 L1442.3269,581.0503 Z " fill="#000000"/><text fill="#000000" font-family="sans-serif" font-size="12" font-style="italic" lengthAdjust="spacing" textLength="67.6816" x="1496.4035" y="571.4155">&#171;entidade&#187;</text><text fill="#000000" font-family="sans-serif" font-size="14" lengthAdjust="spacing" textLength="140.7725" x="1459.8581" y="587.2407">CandidatoCollection</text><line style="stroke:#181818;stroke-width:0.5;" x1="1293.3" x2="1734.6887" y1="595.5425" y2="595.5425"/><line style="stroke:#181818;stroke-width:0.5;" x1="1293.3" x2="1734.6887" y1="603.5425" y2="603.5425"/><ellipse cx="1303.3" cy="617.1909" fill="#84BE84" rx="3" ry="3" style="stroke:#038048;stroke-width:1;"/><text fill="#000000" font-family="sans-serif" font-size="14" lengthAdjust="spacing" textLength="417.3887" x="1312.3" y="620.5376">buscarPorEmailOuCPF(email: String, cpf: String): Candidato</text></g><!--link GUI to AfiliacaoController--><g class="link" data-entity-1="GUI" data-entity-2="AfiliacaoController" data-source-line="71" data-uid="lnk11" id="link_GUI_AfiliacaoController"><path codeLine="71" d="M991,182.3569 C991,206.7869 991,234.3169 991,258.7469" fill="none" id="GUI-AfiliacaoController" style="stroke:#181818;stroke-width:1;"/><text fill="#000000" font-family="sans-serif" font-size="13" lengthAdjust="spacing" textLength="42.8848" x="992" y="225.1138">aciona</text><text fill="#000000" font-family="sans-serif" font-size="13" lengthAdjust="spacing" textLength="8.271" x="982.6019" y="202.3388">1</text><text fill="#000000" font-family="sans-serif" font-size="13" lengthAdjust="spacing" textLength="8.271" x="982.6014" y="247.9135">1</text></g><!--link AfiliacaoController to CandidatoCollection--><g class="link" data-entity-1="AfiliacaoController" data-entity-2="CandidatoCollection" data-source-line="72" data-uid="lnk12" id="link_AfiliacaoController_CandidatoCollection"><path codeLine="72" d="M1157.48,397.2469 C1179.01,406.8269 1200.64,416.8069 1221,426.7969 C1303.79,467.4069 1396.19,520.3869 1454.68,554.9269" fill="none" id="AfiliacaoController-CandidatoCollection" style="stroke:#181818;stroke-width:1;"/><text fill="#000000" font-family="sans-serif" font-size="13" lengthAdjust="spacing" textLength="55.0278" x="1255" y="439.8638">consulta</text><text fill="#000000" font-family="sans-serif" font-size="13" lengthAdjust="spacing" textLength="8.271" x="1165.4874" y="416.8828">1</text><text fill="#000000" font-family="sans-serif" font-size="13" lengthAdjust="spacing" textLength="8.271" x="1435.4263" y="544.1447">1</text></g><!--link AfiliacaoController to PedidoAfiliacao--><g class="link" data-entity-1="AfiliacaoController" data-entity-2="PedidoAfiliacao" data-source-line="73" data-uid="lnk13" id="link_AfiliacaoController_PedidoAfiliacao"><path codeLine="73" d="M678.37,336.2169 C444.12,349.0669 151.25,383.3869 74,473.7969 C6,553.3769 26.08,616.2569 74,709.3269 C89.7,739.8269 115.14,765.3369 142.78,786.0069" fill="none" id="AfiliacaoController-PedidoAfiliacao" style="stroke:#181818;stroke-width:1;"/><text fill="#000000" font-family="sans-serif" font-size="13" lengthAdjust="spacing" textLength="76.6416" x="75" y="596.1238">cria/associa</text><text fill="#000000" font-family="sans-serif" font-size="13" lengthAdjust="spacing" textLength="8.271" x="662.9522" y="333.304">1</text><text fill="#000000" font-family="sans-serif" font-size="13" lengthAdjust="spacing" textLength="8.271" x="120.54" y="775.1714">1</text></g><!--link AfiliacaoController to Candidato--><g class="link" data-entity-1="AfiliacaoController" data-entity-2="Candidato" data-source-line="74" data-uid="lnk14" id="link_AfiliacaoController_Candidato"><path codeLine="74" d="M861.91,397.1469 C817.8,420.4669 767.12,447.2569 717.81,473.3169" fill="none" id="AfiliacaoController-Candidato" style="stroke:#181818;stroke-width:1;"/><text fill="#000000" font-family="sans-serif" font-size="13" lengthAdjust="spacing" textLength="79.7329" x="804" y="439.8638">cria/atualiza</text><text fill="#000000" font-family="sans-serif" font-size="13" lengthAdjust="spacing" textLength="8.271" x="840.8223" y="416.7729">1</text><text fill="#000000" font-family="sans-serif" font-size="13" lengthAdjust="spacing" textLength="8.271" x="723.0911" y="462.7252">1</text></g><!--link AfiliacaoController to EmailValidador--><g class="link" data-entity-1="AfiliacaoController" data-entity-2="EmailValidador" data-source-line="75" data-uid="lnk15" id="link_AfiliacaoController_EmailValidador"><path codeLine="75" d="M991,396.9769 C991,447.5469 991,514.5169 991,554.9769" fill="none" id="AfiliacaoController-EmailValidador" style="stroke:#181818;stroke-width:1;"/><text fill="#000000" font-family="sans-serif" font-size="13" lengthAdjust="spacing" textLength="42.8848" x="992" y="439.8638">aciona</text><text fill="#000000" font-family="sans-serif" font-size="13" lengthAdjust="spacing" textLength="8.271" x="982.6014" y="416.9454">1</text><text fill="#000000" font-family="sans-serif" font-size="13" lengthAdjust="spacing" textLength="8.271" x="982.3125" y="544.2036">1</text></g><!--link AfiliacaoController to Perfil--><g class="link" data-entity-1="AfiliacaoController" data-entity-2="Perfil" data-source-line="76" data-uid="lnk16" id="link_AfiliacaoController_Perfil"><path codeLine="76" d="M1085.32,396.9569 C1108.19,418.6769 1129.6,444.7169 1142,473.7969 C1183.06,570.0869 1193.28,618.0669 1142,709.3269 C1116.11,755.3969 1068.97,788.5269 1023.43,811.3769" fill="none" id="AfiliacaoController-Perfil" style="stroke:#181818;stroke-width:1;"/><text fill="#000000" font-family="sans-serif" font-size="13" lengthAdjust="spacing" textLength="60.855" x="1178" y="596.1238">coordena</text><text fill="#000000" font-family="sans-serif" font-size="13" lengthAdjust="spacing" textLength="8.271" x="1086.6482" y="416.9233">1</text><text fill="#000000" font-family="sans-serif" font-size="13" lengthAdjust="spacing" textLength="8.271" x="1030.9594" y="801.5566">1</text></g><!--link Candidato to PedidoAfiliacao--><g class="link" data-entity-1="Candidato" data-entity-2="PedidoAfiliacao" data-source-line="78" data-uid="lnk17" id="link_Candidato_PedidoAfiliacao"><path codeLine="78" d="M398.03,709.6069 C376.16,735.7269 353.67,762.5969 334.11,785.9669" fill="none" id="Candidato-PedidoAfiliacao" style="stroke:#181818;stroke-width:1;"/><text fill="#000000" font-family="sans-serif" font-size="13" lengthAdjust="spacing" textLength="45.7729" x="368" y="752.3938">solicita</text><text fill="#000000" font-family="sans-serif" font-size="13" lengthAdjust="spacing" textLength="8.271" x="383.8245" y="729.3282">1</text><text fill="#000000" font-family="sans-serif" font-size="13" lengthAdjust="spacing" textLength="8.271" x="331.6009" y="775.1273">1</text></g><!--link Candidato to Perfil--><g class="link" data-entity-1="Candidato" data-entity-2="Perfil" data-source-line="79" data-uid="lnk18" id="link_Candidato_Perfil"><path codeLine="79" d="M678.81,709.7969 C734.57,745.5469 792.46,782.6769 835.59,810.3269" fill="none" id="Candidato-Perfil" style="stroke:#181818;stroke-width:1;"/><text fill="#000000" font-family="sans-serif" font-size="13" lengthAdjust="spacing" textLength="40.6758" x="750" y="752.3938">define</text><text fill="#000000" font-family="sans-serif" font-size="13" lengthAdjust="spacing" textLength="8.271" x="681.7146" y="729.5298">1</text><text fill="#000000" font-family="sans-serif" font-size="13" lengthAdjust="spacing" textLength="8.271" x="816.975" y="799.7117">1</text></g><!--link Perfil to Habilidade--><g class="link" data-entity-1="Perfil" data-entity-2="Habilidade" data-source-line="80" data-uid="lnk19" id="link_Perfil_Habilidade"><path codeLine="80" d="M882.21,899.8069 C866.76,930.7369 846.28,971.7269 831.81,1000.7069" fill="none" id="Perfil-Habilidade" style="stroke:#181818;stroke-width:1;"/><text fill="#000000" font-family="sans-serif" font-size="13" lengthAdjust="spacing" textLength="49.0991" x="855" y="967.1438">cont&#233;m</text><text fill="#000000" font-family="sans-serif" font-size="13" lengthAdjust="spacing" textLength="8.271" x="870.4423" y="919.5372">1</text><text fill="#000000" font-family="sans-serif" font-size="13" lengthAdjust="spacing" textLength="6.5" x="828.4937" y="989.9212">*</text></g><!--link Perfil to Interesse--><g class="link" data-entity-1="Perfil" data-entity-2="Interesse" data-source-line="81" data-uid="lnk20" id="link_Perfil_Interesse"><path codeLine="81" d="M925.54,899.8069 C940.82,930.7369 961.07,971.7269 975.39,1000.7069" fill="none" id="Perfil-Interesse" style="stroke:#181818;stroke-width:1;"/><text fill="#000000" font-family="sans-serif" font-size="13" lengthAdjust="spacing" textLength="41.6025" x="961" y="967.1438">possui</text><text fill="#000000" font-family="sans-serif" font-size="13" lengthAdjust="spacing" textLength="8.271" x="920.1364" y="919.5372">1</text><text fill="#000000" font-family="sans-serif" font-size="13" lengthAdjust="spacing" textLength="6.5" x="965.7646" y="989.9212">*</text></g><!--SRC=[jLLBRjim4Dth54GsTPeOHRU2Qq2GxDQ0Fu6TTZ-XQ6TQIJH8AWXIz3HT53r7BjQXg7yK9qLHRIGEvyFtvWrbq2I2HGW71IcmMB0m0Qs5jfzNIduLHh8ncoVvlRIcdKoGeu77Nuy_2qEmnmJTqlEyD-o3UrWOh88eOD6CpRURzVLiiGsgFS_ZjWRx-7d19fEzafaHg60wPTyzHi-5Bekut1paIAI0YSzsHc5sk6JykAyMvov4tECDghbKQPw0Ghc8HMPmZxm8VyRfIYYgy0bkg4mCiT1TnskXKXdAzAXaYbhNQLAfZGAr4fc6WqX7QVdH7Ed7C1CX4R7TB6Tz8cgS8L6XP988HSHmjn3_nCiTM6WgWbZgBYUnDVbi1SUkgoDbT2nUFdFBItRRiEIp9MepQNYRNZAa7YfXXLFkBYh3j4oln04BtW8kq8YAJAxGremnbWsiSrktOtgEqjdwUX45qMpNvpI4Z180gNSoiR2BSrPCZZEPYeefPz7YNleil0NbrXGAQz0SgRk6TY8meem5ZZ831xsRH6GnWUQoQoNzx4a_q3DhDBc5rdFkyDxYg0Rqj7EWKdWGsV_h7T194tm0jIlFFDA6RBgZUCTxhs-3x7U36xxRBFCAhj-qyfHYoeFIcF8EMKDvMiUTsG7wufefrT1fBqHsHncNc7rpVa_cheFUCZu8-cGJdCk9HZGbcgZ1CfIU26hBgewii_rjO4rSQEycRaZ-WqpTv9fJQwGgMDtauTNyr0tLxcndlBUpPH0kDkjWHUEzQOss_MESlJzZut7n6hetVUR6qnlQRCKEOV8PtRawJyoBqNsLKoIfybqflrVNhkFA-NefiAVMrs8jLMdXIKK_0V2yvWWdKLL_dEVyoxons6Ccl79TURmzQukr8DSy_au7t1fb-kmejSxn3m00]--></g></svg>