<svg xmlns="http://www.w3.org/2000/svg" xmlns:xlink="http://www.w3.org/1999/xlink" contentStyleType="text/css" data-diagram-type="SEQUENCE" height="937px" preserveAspectRatio="none" style="width:1664px;height:937px;background:#FFFFFF;" version="1.1" viewBox="0 0 1664 937" width="1664px" zoomAndPan="magnify"><defs/><g><g><title>..fronteira..</title><rect fill="#FFFFFF" height="203.2578" style="stroke:#181818;stroke-width:1;" width="10" x="667.4468" y="112.4297"/></g><g><title>..fronteira..</title><rect fill="#FFFFFF" height="203.2578" style="stroke:#181818;stroke-width:1;" width="10" x="667.4468" y="344.8203"/></g><g><title>..fronteira..</title><rect fill="#FFFFFF" height="116.5313" style="stroke:#181818;stroke-width:1;" width="10" x="667.4468" y="577.2109"/></g><g><title>..fronteira..</title><rect fill="#FFFFFF" height="87.3984" style="stroke:#181818;stroke-width:1;" width="10" x="667.4468" y="722.875"/></g><g><title>..controle..</title><rect fill="#FFFFFF" height="174.125" style="stroke:#181818;stroke-width:1;" width="10" x="927.3218" y="141.5625"/></g><g><title>..controle..</title><rect fill="#FFFFFF" height="174.125" style="stroke:#181818;stroke-width:1;" width="10" x="927.3218" y="373.9531"/></g><g><title>..controle..</title><rect fill="#FFFFFF" height="87.3984" style="stroke:#181818;stroke-width:1;" width="10" x="927.3218" y="606.3438"/></g><g><title>..controle..</title><rect fill="#FFFFFF" height="58.2656" style="stroke:#181818;stroke-width:1;" width="10" x="927.3218" y="752.0078"/></g><g><title>..entidade..</title><rect fill="#FFFFFF" height="47.5938" style="stroke:#181818;stroke-width:1;" width="10" x="1238.145" y="413.0859"/></g><g><title>..entidade..</title><rect fill="#FFFFFF" height="29.1328" style="stroke:#181818;stroke-width:1;" width="10" x="1238.145" y="635.4766"/></g><g><title>..entidade..</title><rect fill="#FFFFFF" height="47.5938" style="stroke:#181818;stroke-width:1;" width="10" x="1357.4243" y="238.9609"/></g><g><title>Candidato</title><rect fill="#FFFFFF" height="29.1328" style="stroke:#181818;stroke-width:1;" width="10" x="1609.1528" y="170.6953"/></g><g><title>Cliente</title><rect fill="#000000" fill-opacity="0.00000" height="775.4375" width="8" x="28.5718" y="81.2969"/><line style="stroke:#181818;stroke-width:0.5;stroke-dasharray:5,5;" x1="32" x2="32" y1="81.2969" y2="856.7344"/></g><g><title>..fronteira..</title><rect fill="#000000" fill-opacity="0.00000" height="775.4375" width="8" x="668.4468" y="81.2969"/><line style="stroke:#181818;stroke-width:0.5;stroke-dasharray:5,5;" x1="671.6563" x2="671.6563" y1="81.2969" y2="856.7344"/></g><g><title>..controle..</title><rect fill="#000000" fill-opacity="0.00000" height="775.4375" width="8" x="928.3218" y="81.2969"/><line style="stroke:#181818;stroke-width:0.5;stroke-dasharray:5,5;" x1="931.5791" x2="931.5791" y1="81.2969" y2="856.7344"/></g><g><title>..entidade..</title><rect fill="#000000" fill-opacity="0.00000" height="435.9844" width="8" x="1239.145" y="420.75"/><line style="stroke:#181818;stroke-width:0.5;stroke-dasharray:5,5;" x1="1242.6641" x2="1242.6641" y1="420.75" y2="856.7344"/></g><g><title>..entidade..</title><rect fill="#000000" fill-opacity="0.00000" height="610.1094" width="8" x="1358.4243" y="246.625"/><line style="stroke:#181818;stroke-width:0.5;stroke-dasharray:5,5;" x1="1361.626" x2="1361.626" y1="246.625" y2="856.7344"/></g><g><title>..entidade..</title><rect fill="#000000" fill-opacity="0.00000" height="28.7969" width="8" x="1493.3066" y="827.9375"/><line style="stroke:#181818;stroke-width:0.5;stroke-dasharray:5,5;" x1="1497.2227" x2="1497.2227" y1="827.9375" y2="856.7344"/></g><g><title>Candidato</title><rect fill="#000000" fill-opacity="0.00000" height="775.4375" width="8" x="1610.1528" y="81.2969"/><line style="stroke:#181818;stroke-width:0.5;stroke-dasharray:5,5;" x1="1613.3906" x2="1613.3906" y1="81.2969" y2="856.7344"/></g><g class="participant participant-head" data-participant="ator"><text fill="#000000" font-family="sans-serif" font-size="14" lengthAdjust="spacing" textLength="49.1436" x="5" y="77.9951">Cliente</text><ellipse cx="32.5718" cy="13.5" fill="#E2E2F0" rx="8" ry="8" style="stroke:#181818;stroke-width:0.5;"/><path d="M32.5718,21.5 L32.5718,48.5 M19.5718,29.5 L45.5718,29.5 M32.5718,48.5 L19.5718,63.5 M32.5718,48.5 L45.5718,63.5" fill="none" style="stroke:#181818;stroke-width:0.5;"/></g><g class="participant participant-tail" data-participant="ator"><text fill="#000000" font-family="sans-serif" font-size="14" lengthAdjust="spacing" textLength="49.1436" x="5" y="868.7295">Cliente</text><ellipse cx="32.5718" cy="880.5313" fill="#E2E2F0" rx="8" ry="8" style="stroke:#181818;stroke-width:0.5;"/><path d="M32.5718,888.5313 L32.5718,915.5313 M19.5718,896.5313 L45.5718,896.5313 M32.5718,915.5313 L19.5718,930.5313 M32.5718,915.5313 L45.5718,930.5313" fill="none" style="stroke:#181818;stroke-width:0.5;"/></g><g class="participant participant-head" data-participant="gui"><rect fill="#E2E2F0" height="46.5938" rx="2.5" ry="2.5" style="stroke:#181818;stroke-width:0.5;" width="91.5811" x="626.6563" y="33.7031"/><text fill="#000000" font-family="sans-serif" font-size="14" font-style="italic" lengthAdjust="spacing" textLength="77.5811" x="633.6563" y="53.6982">&#171;fronteira&#187;</text><text fill="#000000" font-family="sans-serif" font-size="14" lengthAdjust="spacing" textLength="25.2246" x="659.8345" y="69.9951">GUI</text></g><g class="participant participant-tail" data-participant="gui"><rect fill="#E2E2F0" height="46.5938" rx="2.5" ry="2.5" style="stroke:#181818;stroke-width:0.5;" width="91.5811" x="626.6563" y="855.7344"/><text fill="#000000" font-family="sans-serif" font-size="14" font-style="italic" lengthAdjust="spacing" textLength="77.5811" x="633.6563" y="875.7295">&#171;fronteira&#187;</text><text fill="#000000" font-family="sans-serif" font-size="14" lengthAdjust="spacing" textLength="25.2246" x="659.8345" y="892.0264">GUI</text></g><g class="participant participant-head" data-participant="controller"><rect fill="#E2E2F0" height="46.5938" rx="2.5" ry="2.5" style="stroke:#181818;stroke-width:0.5;" width="147.4854" x="858.5791" y="33.7031"/><text fill="#000000" font-family="sans-serif" font-size="14" font-style="italic" lengthAdjust="spacing" textLength="74.5801" x="895.0317" y="53.6982">&#171;controle&#187;</text><text fill="#000000" font-family="sans-serif" font-size="14" lengthAdjust="spacing" textLength="133.4854" x="865.5791" y="69.9951">:AfiliacaoController</text></g><g class="participant participant-tail" data-participant="controller"><rect fill="#E2E2F0" height="46.5938" rx="2.5" ry="2.5" style="stroke:#181818;stroke-width:0.5;" width="147.4854" x="858.5791" y="855.7344"/><text fill="#000000" font-family="sans-serif" font-size="14" font-style="italic" lengthAdjust="spacing" textLength="74.5801" x="895.0317" y="875.7295">&#171;controle&#187;</text><text fill="#000000" font-family="sans-serif" font-size="14" lengthAdjust="spacing" textLength="133.4854" x="865.5791" y="892.0264">:AfiliacaoController</text></g><g class="participant participant-tail" data-participant="candidato"><rect fill="#E2E2F0" height="46.5938" rx="2.5" ry="2.5" style="stroke:#181818;stroke-width:0.5;" width="92.9619" x="1196.6641" y="855.7344"/><text fill="#000000" font-family="sans-serif" font-size="14" font-style="italic" lengthAdjust="spacing" textLength="78.9619" x="1203.6641" y="875.7295">&#171;entidade&#187;</text><text fill="#000000" font-family="sans-serif" font-size="14" lengthAdjust="spacing" textLength="76.2412" x="1205.0244" y="892.0264">:Candidato</text></g><g class="participant participant-tail" data-participant="afiliacao"><rect fill="#E2E2F0" height="46.5938" rx="2.5" ry="2.5" style="stroke:#181818;stroke-width:0.5;" width="125.5967" x="1299.626" y="855.7344"/><text fill="#000000" font-family="sans-serif" font-size="14" font-style="italic" lengthAdjust="spacing" textLength="78.9619" x="1322.9434" y="875.7295">&#171;entidade&#187;</text><text fill="#000000" font-family="sans-serif" font-size="14" lengthAdjust="spacing" textLength="111.5967" x="1306.626" y="892.0264">:PedidoAfiliacao</text></g><g class="participant participant-tail" data-participant="emailValidador"><rect fill="#E2E2F0" height="46.5938" rx="2.5" ry="2.5" style="stroke:#181818;stroke-width:0.5;" width="124.168" x="1435.2227" y="855.7344"/><text fill="#000000" font-family="sans-serif" font-size="14" font-style="italic" lengthAdjust="spacing" textLength="78.9619" x="1457.8257" y="875.7295">&#171;entidade&#187;</text><text fill="#000000" font-family="sans-serif" font-size="14" lengthAdjust="spacing" textLength="110.168" x="1442.2227" y="892.0264">:EmailValidador</text></g><g class="participant participant-head" data-participant="collectionCandidato"><rect fill="#E2E2F0" height="30.2969" style="stroke:#181818;stroke-width:0.5;" width="85.5244" x="1573.3906" y="46"/><rect fill="#E2E2F0" height="30.2969" style="stroke:#181818;stroke-width:0.5;" width="85.5244" x="1569.3906" y="50"/><text fill="#000000" font-family="sans-serif" font-size="14" lengthAdjust="spacing" textLength="71.5244" x="1576.3906" y="69.9951">Candidato</text></g><g class="participant participant-tail" data-participant="collectionCandidato"><rect fill="#E2E2F0" height="30.2969" style="stroke:#181818;stroke-width:0.5;" width="85.5244" x="1573.3906" y="855.7344"/><rect fill="#E2E2F0" height="30.2969" style="stroke:#181818;stroke-width:0.5;" width="85.5244" x="1569.3906" y="859.7344"/><text fill="#000000" font-family="sans-serif" font-size="14" lengthAdjust="spacing" textLength="71.5244" x="1576.3906" y="879.7295">Candidato</text></g><g><title>..fronteira..</title><rect fill="#FFFFFF" height="203.2578" style="stroke:#181818;stroke-width:1;" width="10" x="667.4468" y="112.4297"/></g><g><title>..fronteira..</title><rect fill="#FFFFFF" height="203.2578" style="stroke:#181818;stroke-width:1;" width="10" x="667.4468" y="344.8203"/></g><g><title>..fronteira..</title><rect fill="#FFFFFF" height="116.5313" style="stroke:#181818;stroke-width:1;" width="10" x="667.4468" y="577.2109"/></g><g><title>..fronteira..</title><rect fill="#FFFFFF" height="87.3984" style="stroke:#181818;stroke-width:1;" width="10" x="667.4468" y="722.875"/></g><g><title>..controle..</title><rect fill="#FFFFFF" height="174.125" style="stroke:#181818;stroke-width:1;" width="10" x="927.3218" y="141.5625"/></g><g><title>..controle..</title><rect fill="#FFFFFF" height="174.125" style="stroke:#181818;stroke-width:1;" width="10" x="927.3218" y="373.9531"/></g><g><title>..controle..</title><rect fill="#FFFFFF" height="87.3984" style="stroke:#181818;stroke-width:1;" width="10" x="927.3218" y="606.3438"/></g><g><title>..controle..</title><rect fill="#FFFFFF" height="58.2656" style="stroke:#181818;stroke-width:1;" width="10" x="927.3218" y="752.0078"/></g><g><title>..entidade..</title><rect fill="#FFFFFF" height="47.5938" style="stroke:#181818;stroke-width:1;" width="10" x="1238.145" y="413.0859"/></g><g><title>..entidade..</title><rect fill="#FFFFFF" height="29.1328" style="stroke:#181818;stroke-width:1;" width="10" x="1238.145" y="635.4766"/></g><g><title>..entidade..</title><rect fill="#FFFFFF" height="47.5938" style="stroke:#181818;stroke-width:1;" width="10" x="1357.4243" y="238.9609"/></g><g><title>Candidato</title><rect fill="#FFFFFF" height="29.1328" style="stroke:#181818;stroke-width:1;" width="10" x="1609.1528" y="170.6953"/></g><g class="message" data-participant-1="ator" data-participant-2="gui"><polygon fill="#181818" points="655.4468,108.4297,665.4468,112.4297,655.4468,116.4297,659.4468,112.4297" style="stroke:#181818;stroke-width:1;"/><line style="stroke:#181818;stroke-width:1;" x1="32.5718" x2="661.4468" y1="112.4297" y2="112.4297"/><text fill="#000000" font-family="sans-serif" font-size="13" lengthAdjust="spacing" textLength="175.3477" x="39.5718" y="107.3638">solicitaAfiliacao(email, cpf)</text></g><g class="message" data-participant-1="gui" data-participant-2="controller"><polygon fill="#181818" points="915.3218,137.5625,925.3218,141.5625,915.3218,145.5625,919.3218,141.5625" style="stroke:#181818;stroke-width:1;"/><line style="stroke:#181818;stroke-width:1;" x1="677.4468" x2="921.3218" y1="141.5625" y2="141.5625"/><text fill="#000000" font-family="sans-serif" font-size="13" lengthAdjust="spacing" textLength="175.3477" x="684.4468" y="136.4966">solicitaAfiliacao(email, cpf)</text></g><g class="message" data-participant-1="controller" data-participant-2="collectionCandidato"><polygon fill="#181818" points="1597.1528,166.6953,1607.1528,170.6953,1597.1528,174.6953,1601.1528,170.6953" style="stroke:#181818;stroke-width:1;"/><line style="stroke:#181818;stroke-width:1;" x1="937.3218" x2="1603.1528" y1="170.6953" y2="170.6953"/><text fill="#000000" font-family="sans-serif" font-size="13" lengthAdjust="spacing" textLength="218.0293" x="944.3218" y="165.6294">buscarPorEmailOuCPF(email, cpf)</text></g><g class="message" data-participant-1="collectionCandidato" data-participant-2="controller"><polygon fill="#181818" points="948.3218,195.8281,938.3218,199.8281,948.3218,203.8281,944.3218,199.8281" style="stroke:#181818;stroke-width:1;"/><line style="stroke:#181818;stroke-width:1;stroke-dasharray:2,2;" x1="942.3218" x2="1613.1528" y1="199.8281" y2="199.8281"/><text fill="#000000" font-family="sans-serif" font-size="13" lengthAdjust="spacing" textLength="98.5664" x="954.3218" y="194.7622">naoEncontrado</text></g><line style="stroke:#A80036;stroke-width:2;" x1="1605.1528" x2="1623.1528" y1="190.8281" y2="208.8281"/><line style="stroke:#A80036;stroke-width:2;" x1="1605.1528" x2="1623.1528" y1="208.8281" y2="190.8281"/><g class="message" data-participant-1="controller" data-participant-2="afiliacao"><polygon fill="#181818" points="1287.626,224.9609,1297.626,228.9609,1287.626,232.9609,1291.626,228.9609" style="stroke:#181818;stroke-width:1;"/><line style="stroke:#181818;stroke-width:1;" x1="937.3218" x2="1293.626" y1="228.9609" y2="228.9609"/><text fill="#000000" font-family="sans-serif" font-size="13" lengthAdjust="spacing" textLength="138.8042" x="944.3218" y="223.895">criarPedidoAfiliacao()</text></g><rect fill="#E2E2F0" height="46.5938" rx="2.5" ry="2.5" style="stroke:#181818;stroke-width:0.5;" width="125.5967" x="1299.626" y="207.8281"/><text fill="#000000" font-family="sans-serif" font-size="14" font-style="italic" lengthAdjust="spacing" textLength="78.9619" x="1322.9434" y="227.8232">&#171;entidade&#187;</text><text fill="#000000" font-family="sans-serif" font-size="14" lengthAdjust="spacing" textLength="111.5967" x="1306.626" y="244.1201">:PedidoAfiliacao</text><g class="message" data-participant-1="afiliacao" data-participant-2="controller"><polygon fill="#181818" points="948.3218,282.5547,938.3218,286.5547,948.3218,290.5547,944.3218,286.5547" style="stroke:#181818;stroke-width:1;"/><line style="stroke:#181818;stroke-width:1;stroke-dasharray:2,2;" x1="942.3218" x2="1361.4243" y1="286.5547" y2="286.5547"/><text fill="#000000" font-family="sans-serif" font-size="13" lengthAdjust="spacing" textLength="86.5249" x="954.3218" y="281.4888">pedidoCriado</text></g><g class="message" data-participant-1="controller" data-participant-2="gui"><polygon fill="#181818" points="683.4468,311.6875,673.4468,315.6875,683.4468,319.6875,679.4468,315.6875" style="stroke:#181818;stroke-width:1;"/><line style="stroke:#181818;stroke-width:1;stroke-dasharray:2,2;" x1="677.4468" x2="931.3218" y1="315.6875" y2="315.6875"/><text fill="#000000" font-family="sans-serif" font-size="13" lengthAdjust="spacing" textLength="200.2241" x="689.4468" y="310.6216">exibirFormularioIdentificacao()</text></g><g class="message" data-participant-1="ator" data-participant-2="gui"><polygon fill="#181818" points="655.4468,340.8203,665.4468,344.8203,655.4468,348.8203,659.4468,344.8203" style="stroke:#181818;stroke-width:1;"/><line style="stroke:#181818;stroke-width:1;" x1="32.5718" x2="661.4468" y1="344.8203" y2="344.8203"/><text fill="#000000" font-family="sans-serif" font-size="13" lengthAdjust="spacing" textLength="615.875" x="39.5718" y="339.7544">informaDadosIdentificacao(nome, sexo, data_nascimento, nacionalidade, endereco, profissao)</text></g><g class="message" data-participant-1="gui" data-participant-2="controller"><polygon fill="#181818" points="915.3218,369.9531,925.3218,373.9531,915.3218,377.9531,919.3218,373.9531" style="stroke:#181818;stroke-width:1;"/><line style="stroke:#181818;stroke-width:1;" x1="677.4468" x2="921.3218" y1="373.9531" y2="373.9531"/><text fill="#000000" font-family="sans-serif" font-size="13" lengthAdjust="spacing" textLength="218.1436" x="684.4468" y="368.8872">validarDadosIdentificacao(dados)</text></g><g class="message" data-participant-1="controller" data-participant-2="candidato"><polygon fill="#181818" points="1184.6641,399.0859,1194.6641,403.0859,1184.6641,407.0859,1188.6641,403.0859" style="stroke:#181818;stroke-width:1;"/><line style="stroke:#181818;stroke-width:1;" x1="937.3218" x2="1190.6641" y1="403.0859" y2="403.0859"/><text fill="#000000" font-family="sans-serif" font-size="13" lengthAdjust="spacing" textLength="145.1709" x="944.3218" y="398.02">criarCandidato(dados)</text></g><rect fill="#E2E2F0" height="46.5938" rx="2.5" ry="2.5" style="stroke:#181818;stroke-width:0.5;" width="92.9619" x="1196.6641" y="381.9531"/><text fill="#000000" font-family="sans-serif" font-size="14" font-style="italic" lengthAdjust="spacing" textLength="78.9619" x="1203.6641" y="401.9482">&#171;entidade&#187;</text><text fill="#000000" font-family="sans-serif" font-size="14" lengthAdjust="spacing" textLength="76.2412" x="1205.0244" y="418.2451">:Candidato</text><g class="message" data-participant-1="candidato" data-participant-2="controller"><polygon fill="#181818" points="948.3218,456.6797,938.3218,460.6797,948.3218,464.6797,944.3218,460.6797" style="stroke:#181818;stroke-width:1;"/><line style="stroke:#181818;stroke-width:1;stroke-dasharray:2,2;" x1="942.3218" x2="1242.145" y1="460.6797" y2="460.6797"/><text fill="#000000" font-family="sans-serif" font-size="13" lengthAdjust="spacing" textLength="106.6914" x="954.3218" y="455.6138">candidatoCriado</text></g><g class="message" data-participant-1="controller" data-participant-2="afiliacao"><polygon fill="#181818" points="1350.4243,485.8125,1360.4243,489.8125,1350.4243,493.8125,1354.4243,489.8125" style="stroke:#181818;stroke-width:1;"/><line style="stroke:#181818;stroke-width:1;" x1="937.3218" x2="1356.4243" y1="489.8125" y2="489.8125"/><text fill="#000000" font-family="sans-serif" font-size="13" lengthAdjust="spacing" textLength="194.5811" x="944.3218" y="484.7466">associarCandidato(candidato)</text></g><g class="message" data-participant-1="afiliacao" data-participant-2="controller"><polygon fill="#181818" points="948.3218,514.9453,938.3218,518.9453,948.3218,522.9453,944.3218,518.9453" style="stroke:#181818;stroke-width:1;"/><line style="stroke:#181818;stroke-width:1;stroke-dasharray:2,2;" x1="942.3218" x2="1361.4243" y1="518.9453" y2="518.9453"/><text fill="#000000" font-family="sans-serif" font-size="13" lengthAdjust="spacing" textLength="64.397" x="954.3218" y="513.8794">associado</text></g><g class="message" data-participant-1="controller" data-participant-2="gui"><polygon fill="#181818" points="683.4468,544.0781,673.4468,548.0781,683.4468,552.0781,679.4468,548.0781" style="stroke:#181818;stroke-width:1;"/><line style="stroke:#181818;stroke-width:1;" x1="677.4468" x2="931.3218" y1="548.0781" y2="548.0781"/><text fill="#000000" font-family="sans-serif" font-size="13" lengthAdjust="spacing" textLength="225.875" x="689.4468" y="543.0122">exibirFormularioPerfilHabilidades()</text></g><g class="message" data-participant-1="ator" data-participant-2="gui"><polygon fill="#181818" points="655.4468,573.2109,665.4468,577.2109,655.4468,581.2109,659.4468,577.2109" style="stroke:#181818;stroke-width:1;"/><line style="stroke:#181818;stroke-width:1;" x1="32.5718" x2="661.4468" y1="577.2109" y2="577.2109"/><text fill="#000000" font-family="sans-serif" font-size="13" lengthAdjust="spacing" textLength="284.7178" x="39.5718" y="572.145">informaPerfilEInteresses(perfil, habilidades)</text></g><g class="message" data-participant-1="gui" data-participant-2="controller"><polygon fill="#181818" points="915.3218,602.3438,925.3218,606.3438,915.3218,610.3438,919.3218,606.3438" style="stroke:#181818;stroke-width:1;"/><line style="stroke:#181818;stroke-width:1;" x1="677.4468" x2="921.3218" y1="606.3438" y2="606.3438"/><text fill="#000000" font-family="sans-serif" font-size="13" lengthAdjust="spacing" textLength="203.7661" x="684.4468" y="601.2778">validarPerfil(perfil, habilidades)</text></g><g class="message" data-participant-1="controller" data-participant-2="candidato"><polygon fill="#181818" points="1226.145,631.4766,1236.145,635.4766,1226.145,639.4766,1230.145,635.4766" style="stroke:#181818;stroke-width:1;"/><line style="stroke:#181818;stroke-width:1;" x1="937.3218" x2="1232.145" y1="635.4766" y2="635.4766"/><text fill="#000000" font-family="sans-serif" font-size="13" lengthAdjust="spacing" textLength="229.6328" x="944.3218" y="630.4106">armazenarPerfil(perfil, habilidades)</text></g><g class="message" data-participant-1="candidato" data-participant-2="controller"><polygon fill="#181818" points="948.3218,660.6094,938.3218,664.6094,948.3218,668.6094,944.3218,664.6094" style="stroke:#181818;stroke-width:1;"/><line style="stroke:#181818;stroke-width:1;stroke-dasharray:2,2;" x1="942.3218" x2="1242.145" y1="664.6094" y2="664.6094"/><text fill="#000000" font-family="sans-serif" font-size="13" lengthAdjust="spacing" textLength="115.4956" x="954.3218" y="659.5435">perfilArmazenado</text></g><g class="message" data-participant-1="controller" data-participant-2="gui"><polygon fill="#181818" points="683.4468,689.7422,673.4468,693.7422,683.4468,697.7422,679.4468,693.7422" style="stroke:#181818;stroke-width:1;"/><line style="stroke:#181818;stroke-width:1;" x1="677.4468" x2="931.3218" y1="693.7422" y2="693.7422"/><text fill="#000000" font-family="sans-serif" font-size="13" lengthAdjust="spacing" textLength="177.5757" x="689.4468" y="688.6763">exibirTermoCompromisso()</text></g><g class="message" data-participant-1="ator" data-participant-2="gui"><polygon fill="#181818" points="655.4468,718.875,665.4468,722.875,655.4468,726.875,659.4468,722.875" style="stroke:#181818;stroke-width:1;"/><line style="stroke:#181818;stroke-width:1;" x1="32.5718" x2="661.4468" y1="722.875" y2="722.875"/><text fill="#000000" font-family="sans-serif" font-size="13" lengthAdjust="spacing" textLength="91.8315" x="39.5718" y="717.8091">aceitaTermo()</text></g><g class="message" data-participant-1="gui" data-participant-2="controller"><polygon fill="#181818" points="915.3218,748.0078,925.3218,752.0078,915.3218,756.0078,919.3218,752.0078" style="stroke:#181818;stroke-width:1;"/><line style="stroke:#181818;stroke-width:1;" x1="677.4468" x2="921.3218" y1="752.0078" y2="752.0078"/><text fill="#000000" font-family="sans-serif" font-size="13" lengthAdjust="spacing" textLength="106.6216" x="684.4468" y="746.9419">registrarAceite()</text></g><g class="message" data-participant-1="controller" data-participant-2="candidato"><polygon fill="#181818" points="1231.145,777.1406,1241.145,781.1406,1231.145,785.1406,1235.145,781.1406" style="stroke:#181818;stroke-width:1;"/><line style="stroke:#181818;stroke-width:1;" x1="937.3218" x2="1237.145" y1="781.1406" y2="781.1406"/><text fill="#000000" font-family="sans-serif" font-size="13" lengthAdjust="spacing" textLength="281.8232" x="944.3218" y="776.0747">atualizarSituacao("Aguardando Valida&#231;&#227;o")</text></g><g class="message" data-participant-1="controller" data-participant-2="emailValidador"><polygon fill="#181818" points="1423.2227,806.2734,1433.2227,810.2734,1423.2227,814.2734,1427.2227,810.2734" style="stroke:#181818;stroke-width:1;"/><line style="stroke:#181818;stroke-width:1;" x1="932.3218" x2="1429.2227" y1="810.2734" y2="810.2734"/><text fill="#000000" font-family="sans-serif" font-size="13" lengthAdjust="spacing" textLength="176.8394" x="939.3218" y="805.2075">enviarLinkValidacao(email)</text></g><rect fill="#E2E2F0" height="46.5938" rx="2.5" ry="2.5" style="stroke:#181818;stroke-width:0.5;" width="124.168" x="1435.2227" y="789.1406"/><text fill="#000000" font-family="sans-serif" font-size="14" font-style="italic" lengthAdjust="spacing" textLength="78.9619" x="1457.8257" y="809.1357">&#171;entidade&#187;</text><text fill="#000000" font-family="sans-serif" font-size="14" lengthAdjust="spacing" textLength="110.168" x="1442.2227" y="825.4326">:EmailValidador</text><!--SRC=[fLL1Zjf04Bpx5ICkWHLy0AsG464Jf4X1IhBNg1ctsLRi6THZq6Q_aqCUiXzBZmV6DeR5gznmJrTrKLrZWoujgy4Y9pGb3XGu1L99Ti0bQTg1ATNWquzLTRBTaxg_pzXAAp7CPksswJoZd423NKW7spn7hd0wFWhy-80Tz09CIgbC3vZJaq14clnCkv0rIe-DOuFyqzDRm6K1b3z2xazj48cjKXkilNXTaZLEl6hhZ4UndYI9zr1DPjwngN8sbyabH9t3QjPOwLqsIa301oZHzoRUOO7LXlL6rv0aQVXTaNKKJjLcxpJmsdBbnDVzOlrmZRVx_oxKrEHCjW6xD5L1x4nIT7Bo-x9RRRdr_kxkfaepYSpsceSDUR4xgN7dKdOLV25CbP8Bs9Q4qzhmcJR43vQBVGvCTfNwH6IaZneQJ0tp6rM_qEI344xKcX6DVg92AAn2TQXozlhtzOzLgNNAPyxvpdPoo6Go7Zxwq_PuOmiSAuVFTYpW4duQS3hGZyLxBGw7A4iNcXGPjHpis6Ra7DZRiGiA-SBeIck_vCLqn5N6jNTfwdXT3LKywIvJtypJLAwhixeb8g96R-Jd24ixr1TZiaOMfi-meU2_-w-ef5RYwmclXYFCMwxadSpedCmBWB5wgZNqtdTWkq7HO-FYccXxGTENiiVs0yFyoDjp_OqTVKSkvDDKo2qev1QyzmxFDP9KP2Eb9-ek17m3L5E6jmrdt9Ay5843x_3T_fPxMTaBy3UIN_vY3kRRFN0gBLOzrY-OmUYCvEnBv-ycceFSYozaVeLw_Cpqi-WV]--></g></svg>