<svg xmlns="http://www.w3.org/2000/svg" xmlns:xlink="http://www.w3.org/1999/xlink" contentStyleType="text/css" data-diagram-type="SEQUENCE" height="1743px" preserveAspectRatio="none" style="width:1792px;height:1743px;background:#FFFFFF;" version="1.1" viewBox="0 0 1792 1743" width="1792px" zoomAndPan="magnify"><defs/><g><g><title>..fronteira..</title><rect fill="#FFFFFF" height="159.6641" style="stroke:#181818;stroke-width:1;" width="10" x="909.1968" y="155.5625"/></g><g><title>..fronteira..</title><rect fill="#FFFFFF" height="260.0625" style="stroke:#181818;stroke-width:1;" width="10" x="909.1968" y="344.3594"/></g><g><title>..fronteira..</title><rect fill="#FFFFFF" height="260.0625" style="stroke:#181818;stroke-width:1;" width="10" x="909.1968" y="633.5547"/></g><g><title>..fronteira..</title><rect fill="#FFFFFF" height="389.5938" style="stroke:#181818;stroke-width:1;" width="10" x="909.1968" y="922.75"/></g><g><title>..fronteira..</title><rect fill="#FFFFFF" height="262.1953" style="stroke:#181818;stroke-width:1;" width="10" x="909.1968" y="1382.2813"/></g><g><title>..controle..</title><rect fill="#FFFFFF" height="130.5313" style="stroke:#181818;stroke-width:1;" width="10" x="1234.3975" y="184.6953"/></g><g><title>..controle..</title><rect fill="#FFFFFF" height="230.9297" style="stroke:#181818;stroke-width:1;" width="10" x="1234.3975" y="373.4922"/></g><g><title>..controle..</title><rect fill="#FFFFFF" height="230.9297" style="stroke:#181818;stroke-width:1;" width="10" x="1234.3975" y="662.6875"/></g><g><title>..controle..</title><rect fill="#FFFFFF" height="360.4609" style="stroke:#181818;stroke-width:1;" width="10" x="1234.3975" y="951.8828"/></g><g><title>..controle..</title><rect fill="#FFFFFF" height="233.0625" style="stroke:#181818;stroke-width:1;" width="10" x="1234.3975" y="1411.4141"/></g><g><title>..entidade..</title><rect fill="#FFFFFF" height="29.1328" style="stroke:#181818;stroke-width:1;" width="10" x="1481.4268" y="213.8281"/></g><g><title>..entidade..</title><rect fill="#FFFFFF" height="29.1328" style="stroke:#181818;stroke-width:1;" width="10" x="1481.4268" y="1586.2109"/></g><g><title>..entidade..</title><rect fill="#FFFFFF" height="29.1328" style="stroke:#181818;stroke-width:1;" width="10" x="1607.4033" y="835.3516"/></g><g><title>..entidade..</title><rect fill="#FFFFFF" height="87.3984" style="stroke:#181818;stroke-width:1;" width="10" x="1733.3799" y="444.7578"/></g><g><title>..entidade..</title><rect fill="#FFFFFF" height="29.1328" style="stroke:#181818;stroke-width:1;" width="10" x="1733.3799" y="733.9531"/></g><g><title>..entidade..</title><rect fill="#FFFFFF" height="58.2656" style="stroke:#181818;stroke-width:1;" width="10" x="1733.3799" y="981.0156"/></g><g><title>..entidade..</title><rect fill="#FFFFFF" height="29.1328" style="stroke:#181818;stroke-width:1;" width="10" x="1733.3799" y="1153.6797"/></g><g><title>..entidade..</title><rect fill="#FFFFFF" height="29.1328" style="stroke:#181818;stroke-width:1;" width="10" x="1733.3799" y="1440.5469"/></g><g><title>..entidade..</title><rect fill="#FFFFFF" height="58.2656" style="stroke:#181818;stroke-width:1;" width="10" x="1733.3799" y="1498.8125"/></g><g><title>Candidato</title><rect fill="#000000" fill-opacity="0.00000" height="1239.0469" width="8" x="39.7622" y="81.2969"/><line style="stroke:#181818;stroke-width:0.5;stroke-dasharray:5,5;" x1="43" x2="43" y1="81.2969" y2="1320.3438"/></g><line style="stroke:#181818;stroke-width:0.5;stroke-dasharray:1,4;" x1="43" x2="43" y1="1320.3438" y2="1361.1484"/><g><title>Candidato</title><rect fill="#000000" fill-opacity="0.00000" height="301.3281" width="8" x="39.7622" y="1361.1484"/><line style="stroke:#181818;stroke-width:0.5;stroke-dasharray:5,5;" x1="43" x2="43" y1="1361.1484" y2="1662.4766"/></g><g><title>..fronteira..</title><rect fill="#000000" fill-opacity="0.00000" height="1239.0469" width="8" x="910.1968" y="81.2969"/><line style="stroke:#181818;stroke-width:0.5;stroke-dasharray:5,5;" x1="913.4063" x2="913.4063" y1="81.2969" y2="1320.3438"/></g><line style="stroke:#181818;stroke-width:0.5;stroke-dasharray:1,4;" x1="913.4063" x2="913.4063" y1="1320.3438" y2="1361.1484"/><g><title>..fronteira..</title><rect fill="#000000" fill-opacity="0.00000" height="301.3281" width="8" x="910.1968" y="1361.1484"/><line style="stroke:#181818;stroke-width:0.5;stroke-dasharray:5,5;" x1="913.4063" x2="913.4063" y1="1361.1484" y2="1662.4766"/></g><g><title>..controle..</title><rect fill="#000000" fill-opacity="0.00000" height="1239.0469" width="8" x="1235.3975" y="81.2969"/><line style="stroke:#181818;stroke-width:0.5;stroke-dasharray:5,5;" x1="1238.5122" x2="1238.5122" y1="81.2969" y2="1320.3438"/></g><line style="stroke:#181818;stroke-width:0.5;stroke-dasharray:1,4;" x1="1238.5122" x2="1238.5122" y1="1320.3438" y2="1361.1484"/><g><title>..controle..</title><rect fill="#000000" fill-opacity="0.00000" height="301.3281" width="8" x="1235.3975" y="1361.1484"/><line style="stroke:#181818;stroke-width:0.5;stroke-dasharray:5,5;" x1="1238.5122" x2="1238.5122" y1="1361.1484" y2="1662.4766"/></g><g><title>..entidade..</title><rect fill="#000000" fill-opacity="0.00000" height="1239.0469" width="8" x="1482.4268" y="81.2969"/><line style="stroke:#181818;stroke-width:0.5;stroke-dasharray:5,5;" x1="1485.9458" x2="1485.9458" y1="81.2969" y2="1320.3438"/></g><line style="stroke:#181818;stroke-width:0.5;stroke-dasharray:1,4;" x1="1485.9458" x2="1485.9458" y1="1320.3438" y2="1361.1484"/><g><title>..entidade..</title><rect fill="#000000" fill-opacity="0.00000" height="301.3281" width="8" x="1482.4268" y="1361.1484"/><line style="stroke:#181818;stroke-width:0.5;stroke-dasharray:5,5;" x1="1485.9458" x2="1485.9458" y1="1361.1484" y2="1662.4766"/></g><g><title>..entidade..</title><rect fill="#000000" fill-opacity="0.00000" height="1239.0469" width="8" x="1608.4033" y="81.2969"/><line style="stroke:#181818;stroke-width:0.5;stroke-dasharray:5,5;" x1="1611.9077" x2="1611.9077" y1="81.2969" y2="1320.3438"/></g><line style="stroke:#181818;stroke-width:0.5;stroke-dasharray:1,4;" x1="1611.9077" x2="1611.9077" y1="1320.3438" y2="1361.1484"/><g><title>..entidade..</title><rect fill="#000000" fill-opacity="0.00000" height="301.3281" width="8" x="1608.4033" y="1361.1484"/><line style="stroke:#181818;stroke-width:0.5;stroke-dasharray:5,5;" x1="1611.9077" x2="1611.9077" y1="1361.1484" y2="1662.4766"/></g><g><title>..entidade..</title><rect fill="#000000" fill-opacity="0.00000" height="1239.0469" width="8" x="1734.3799" y="81.2969"/><line style="stroke:#181818;stroke-width:0.5;stroke-dasharray:5,5;" x1="1737.8989" x2="1737.8989" y1="81.2969" y2="1320.3438"/></g><line style="stroke:#181818;stroke-width:0.5;stroke-dasharray:1,4;" x1="1737.8989" x2="1737.8989" y1="1320.3438" y2="1361.1484"/><g><title>..entidade..</title><rect fill="#000000" fill-opacity="0.00000" height="301.3281" width="8" x="1734.3799" y="1361.1484"/><line style="stroke:#181818;stroke-width:0.5;stroke-dasharray:5,5;" x1="1737.8989" x2="1737.8989" y1="1361.1484" y2="1662.4766"/></g><g class="participant participant-head" data-participant="candidato"><text fill="#000000" font-family="sans-serif" font-size="14" lengthAdjust="spacing" textLength="71.5244" x="5" y="77.9951">Candidato</text><ellipse cx="43.7622" cy="13.5" fill="#E2E2F0" rx="8" ry="8" style="stroke:#181818;stroke-width:0.5;"/><path d="M43.7622,21.5 L43.7622,48.5 M30.7622,29.5 L56.7622,29.5 M43.7622,48.5 L30.7622,63.5 M43.7622,48.5 L56.7622,63.5" fill="none" style="stroke:#181818;stroke-width:0.5;"/></g><g class="participant participant-tail" data-participant="candidato"><text fill="#000000" font-family="sans-serif" font-size="14" lengthAdjust="spacing" textLength="71.5244" x="5" y="1674.4717">Candidato</text><ellipse cx="43.7622" cy="1686.2734" fill="#E2E2F0" rx="8" ry="8" style="stroke:#181818;stroke-width:0.5;"/><path d="M43.7622,1694.2734 L43.7622,1721.2734 M30.7622,1702.2734 L56.7622,1702.2734 M43.7622,1721.2734 L30.7622,1736.2734 M43.7622,1721.2734 L56.7622,1736.2734" fill="none" style="stroke:#181818;stroke-width:0.5;"/></g><g class="participant participant-head" data-participant="gui"><text fill="#000000" font-family="sans-serif" font-size="14" font-style="italic" lengthAdjust="spacing" textLength="77.5811" x="872.4063" y="61.6982">&#171;fronteira&#187;</text><text fill="#000000" font-family="sans-serif" font-size="14" lengthAdjust="spacing" textLength="25.2246" x="898.5845" y="77.9951">GUI</text><path d="M893.6968,20.7031 L893.6968,44.7031 M893.6968,32.7031 L910.6968,32.7031" fill="none" style="stroke:#181818;stroke-width:0.5;"/><ellipse cx="922.6968" cy="32.7031" fill="#E2E2F0" rx="12" ry="12" style="stroke:#181818;stroke-width:0.5;"/></g><g class="participant participant-tail" data-participant="gui"><text fill="#000000" font-family="sans-serif" font-size="14" font-style="italic" lengthAdjust="spacing" textLength="77.5811" x="872.4063" y="1674.4717">&#171;fronteira&#187;</text><text fill="#000000" font-family="sans-serif" font-size="14" lengthAdjust="spacing" textLength="25.2246" x="898.5845" y="1690.7686">GUI</text><path d="M893.6968,1698.0703 L893.6968,1722.0703 M893.6968,1710.0703 L910.6968,1710.0703" fill="none" style="stroke:#181818;stroke-width:0.5;"/><ellipse cx="922.6968" cy="1710.0703" fill="#E2E2F0" rx="12" ry="12" style="stroke:#181818;stroke-width:0.5;"/></g><g class="participant participant-head" data-participant="controller"><rect fill="#E2E2F0" height="46.5938" rx="2.5" ry="2.5" style="stroke:#181818;stroke-width:0.5;" width="141.7705" x="1168.5122" y="33.7031"/><text fill="#000000" font-family="sans-serif" font-size="14" font-style="italic" lengthAdjust="spacing" textLength="74.5801" x="1202.1074" y="53.6982">&#171;controle&#187;</text><text fill="#000000" font-family="sans-serif" font-size="14" lengthAdjust="spacing" textLength="127.7705" x="1175.5122" y="69.9951">afiliacaoController</text></g><g class="participant participant-tail" data-participant="controller"><rect fill="#E2E2F0" height="46.5938" rx="2.5" ry="2.5" style="stroke:#181818;stroke-width:0.5;" width="141.7705" x="1168.5122" y="1661.4766"/><text fill="#000000" font-family="sans-serif" font-size="14" font-style="italic" lengthAdjust="spacing" textLength="74.5801" x="1202.1074" y="1681.4717">&#171;controle&#187;</text><text fill="#000000" font-family="sans-serif" font-size="14" lengthAdjust="spacing" textLength="127.7705" x="1175.5122" y="1697.7686">afiliacaoController</text></g><g class="participant participant-head" data-participant="voluntario"><text fill="#000000" font-family="sans-serif" font-size="14" font-style="italic" lengthAdjust="spacing" textLength="78.9619" x="1443.9458" y="61.6982">&#171;entidade&#187;</text><text fill="#000000" font-family="sans-serif" font-size="14" lengthAdjust="spacing" textLength="72.0576" x="1447.3979" y="77.9951">Voluntario</text><ellipse cx="1486.4268" cy="32.7031" fill="#E2E2F0" rx="12" ry="12" style="stroke:#181818;stroke-width:0.5;"/><line style="stroke:#181818;stroke-width:0.5;" x1="1474.4268" x2="1498.4268" y1="46.7031" y2="46.7031"/></g><g class="participant participant-tail" data-participant="voluntario"><text fill="#000000" font-family="sans-serif" font-size="14" font-style="italic" lengthAdjust="spacing" textLength="78.9619" x="1443.9458" y="1674.4717">&#171;entidade&#187;</text><text fill="#000000" font-family="sans-serif" font-size="14" lengthAdjust="spacing" textLength="72.0576" x="1447.3979" y="1690.7686">Voluntario</text><ellipse cx="1486.4268" cy="1710.0703" fill="#E2E2F0" rx="12" ry="12" style="stroke:#181818;stroke-width:0.5;"/><line style="stroke:#181818;stroke-width:0.5;" x1="1474.4268" x2="1498.4268" y1="1724.0703" y2="1724.0703"/></g><g class="participant participant-head" data-participant="termo"><text fill="#000000" font-family="sans-serif" font-size="14" font-style="italic" lengthAdjust="spacing" textLength="78.9619" x="1569.9224" y="61.6982">&#171;entidade&#187;</text><text fill="#000000" font-family="sans-serif" font-size="14" lengthAdjust="spacing" textLength="140.9912" x="1538.9077" y="77.9951">TermoCompromisso</text><ellipse cx="1612.4033" cy="32.7031" fill="#E2E2F0" rx="12" ry="12" style="stroke:#181818;stroke-width:0.5;"/><line style="stroke:#181818;stroke-width:0.5;" x1="1600.4033" x2="1624.4033" y1="46.7031" y2="46.7031"/></g><g class="participant participant-tail" data-participant="termo"><text fill="#000000" font-family="sans-serif" font-size="14" font-style="italic" lengthAdjust="spacing" textLength="78.9619" x="1569.9224" y="1674.4717">&#171;entidade&#187;</text><text fill="#000000" font-family="sans-serif" font-size="14" lengthAdjust="spacing" textLength="140.9912" x="1538.9077" y="1690.7686">TermoCompromisso</text><ellipse cx="1612.4033" cy="1710.0703" fill="#E2E2F0" rx="12" ry="12" style="stroke:#181818;stroke-width:0.5;"/><line style="stroke:#181818;stroke-width:0.5;" x1="1600.4033" x2="1624.4033" y1="1724.0703" y2="1724.0703"/></g><g class="participant participant-head" data-participant="afiliacao"><text fill="#000000" font-family="sans-serif" font-size="14" font-style="italic" lengthAdjust="spacing" textLength="78.9619" x="1695.8989" y="61.6982">&#171;entidade&#187;</text><text fill="#000000" font-family="sans-serif" font-size="14" lengthAdjust="spacing" textLength="59.5957" x="1705.582" y="77.9951">Afiliacao</text><ellipse cx="1738.3799" cy="32.7031" fill="#E2E2F0" rx="12" ry="12" style="stroke:#181818;stroke-width:0.5;"/><line style="stroke:#181818;stroke-width:0.5;" x1="1726.3799" x2="1750.3799" y1="46.7031" y2="46.7031"/></g><g class="participant participant-tail" data-participant="afiliacao"><text fill="#000000" font-family="sans-serif" font-size="14" font-style="italic" lengthAdjust="spacing" textLength="78.9619" x="1695.8989" y="1674.4717">&#171;entidade&#187;</text><text fill="#000000" font-family="sans-serif" font-size="14" lengthAdjust="spacing" textLength="59.5957" x="1705.582" y="1690.7686">Afiliacao</text><ellipse cx="1738.3799" cy="1710.0703" fill="#E2E2F0" rx="12" ry="12" style="stroke:#181818;stroke-width:0.5;"/><line style="stroke:#181818;stroke-width:0.5;" x1="1726.3799" x2="1750.3799" y1="1724.0703" y2="1724.0703"/></g><g><title>..fronteira..</title><rect fill="#FFFFFF" height="159.6641" style="stroke:#181818;stroke-width:1;" width="10" x="909.1968" y="155.5625"/></g><g><title>..fronteira..</title><rect fill="#FFFFFF" height="260.0625" style="stroke:#181818;stroke-width:1;" width="10" x="909.1968" y="344.3594"/></g><g><title>..fronteira..</title><rect fill="#FFFFFF" height="260.0625" style="stroke:#181818;stroke-width:1;" width="10" x="909.1968" y="633.5547"/></g><g><title>..fronteira..</title><rect fill="#FFFFFF" height="389.5938" style="stroke:#181818;stroke-width:1;" width="10" x="909.1968" y="922.75"/></g><g><title>..fronteira..</title><rect fill="#FFFFFF" height="262.1953" style="stroke:#181818;stroke-width:1;" width="10" x="909.1968" y="1382.2813"/></g><g><title>..controle..</title><rect fill="#FFFFFF" height="130.5313" style="stroke:#181818;stroke-width:1;" width="10" x="1234.3975" y="184.6953"/></g><g><title>..controle..</title><rect fill="#FFFFFF" height="230.9297" style="stroke:#181818;stroke-width:1;" width="10" x="1234.3975" y="373.4922"/></g><g><title>..controle..</title><rect fill="#FFFFFF" height="230.9297" style="stroke:#181818;stroke-width:1;" width="10" x="1234.3975" y="662.6875"/></g><g><title>..controle..</title><rect fill="#FFFFFF" height="360.4609" style="stroke:#181818;stroke-width:1;" width="10" x="1234.3975" y="951.8828"/></g><g><title>..controle..</title><rect fill="#FFFFFF" height="233.0625" style="stroke:#181818;stroke-width:1;" width="10" x="1234.3975" y="1411.4141"/></g><g><title>..entidade..</title><rect fill="#FFFFFF" height="29.1328" style="stroke:#181818;stroke-width:1;" width="10" x="1481.4268" y="213.8281"/></g><g><title>..entidade..</title><rect fill="#FFFFFF" height="29.1328" style="stroke:#181818;stroke-width:1;" width="10" x="1481.4268" y="1586.2109"/></g><g><title>..entidade..</title><rect fill="#FFFFFF" height="29.1328" style="stroke:#181818;stroke-width:1;" width="10" x="1607.4033" y="835.3516"/></g><g><title>..entidade..</title><rect fill="#FFFFFF" height="87.3984" style="stroke:#181818;stroke-width:1;" width="10" x="1733.3799" y="444.7578"/></g><g><title>..entidade..</title><rect fill="#FFFFFF" height="29.1328" style="stroke:#181818;stroke-width:1;" width="10" x="1733.3799" y="733.9531"/></g><g><title>..entidade..</title><rect fill="#FFFFFF" height="58.2656" style="stroke:#181818;stroke-width:1;" width="10" x="1733.3799" y="981.0156"/></g><g><title>..entidade..</title><rect fill="#FFFFFF" height="29.1328" style="stroke:#181818;stroke-width:1;" width="10" x="1733.3799" y="1153.6797"/></g><g><title>..entidade..</title><rect fill="#FFFFFF" height="29.1328" style="stroke:#181818;stroke-width:1;" width="10" x="1733.3799" y="1440.5469"/></g><g><title>..entidade..</title><rect fill="#FFFFFF" height="58.2656" style="stroke:#181818;stroke-width:1;" width="10" x="1733.3799" y="1498.8125"/></g><rect fill="#EEEEEE" height="3" style="stroke:#EEEEEE;stroke-width:1;" width="1785.8608" x="0" y="111.8633"/><line style="stroke:#000000;stroke-width:1;" x1="0" x2="1785.8608" y1="111.8633" y2="111.8633"/><line style="stroke:#000000;stroke-width:1;" x1="0" x2="1785.8608" y1="114.8633" y2="114.8633"/><rect fill="#EEEEEE" height="23.1328" style="stroke:#000000;stroke-width:2;" width="146.7549" x="819.553" y="101.2969"/><text fill="#000000" font-family="sans-serif" font-size="13" font-weight="bold" lengthAdjust="spacing" textLength="128.229" x="825.553" y="117.3638">Solicita&#231;&#227;o Inicial</text><g class="message" data-participant-1="candidato" data-participant-2="gui"><polygon fill="#181818" points="897.1968,151.5625,907.1968,155.5625,897.1968,159.5625,901.1968,155.5625" style="stroke:#181818;stroke-width:1;"/><line style="stroke:#181818;stroke-width:1;" x1="43.7622" x2="903.1968" y1="155.5625" y2="155.5625"/><text fill="#000000" font-family="sans-serif" font-size="13" lengthAdjust="spacing" textLength="193.2671" x="50.7622" y="150.4966">informaEmailECPF(email, cpf)</text></g><g class="message" data-participant-1="gui" data-participant-2="controller"><polygon fill="#181818" points="1222.3975,180.6953,1232.3975,184.6953,1222.3975,188.6953,1226.3975,184.6953" style="stroke:#181818;stroke-width:1;"/><line style="stroke:#181818;stroke-width:1;" x1="919.1968" x2="1228.3975" y1="184.6953" y2="184.6953"/><text fill="#000000" font-family="sans-serif" font-size="13" lengthAdjust="spacing" textLength="175.3477" x="926.1968" y="179.6294">solicitaAfiliacao(email, cpf)</text></g><g class="message" data-participant-1="controller" data-participant-2="voluntario"><polygon fill="#181818" points="1469.4268,209.8281,1479.4268,213.8281,1469.4268,217.8281,1473.4268,213.8281" style="stroke:#181818;stroke-width:1;"/><line style="stroke:#181818;stroke-width:1;" x1="1244.3975" x2="1475.4268" y1="213.8281" y2="213.8281"/><text fill="#000000" font-family="sans-serif" font-size="13" lengthAdjust="spacing" textLength="218.0293" x="1251.3975" y="208.7622">buscarPorEmailOuCPF(email, cpf)</text></g><g class="message" data-participant-1="voluntario" data-participant-2="controller"><polygon fill="#181818" points="1255.3975,238.9609,1245.3975,242.9609,1255.3975,246.9609,1251.3975,242.9609" style="stroke:#181818;stroke-width:1;"/><line style="stroke:#181818;stroke-width:1;stroke-dasharray:2,2;" x1="1249.3975" x2="1485.4268" y1="242.9609" y2="242.9609"/><text fill="#000000" font-family="sans-serif" font-size="13" lengthAdjust="spacing" textLength="98.5664" x="1261.3975" y="237.895">naoEncontrado</text></g><rect fill="#EEEEEE" height="3" style="stroke:#EEEEEE;stroke-width:1;" width="1785.8608" x="0" y="271.5273"/><line style="stroke:#000000;stroke-width:1;" x1="0" x2="1785.8608" y1="271.5273" y2="271.5273"/><line style="stroke:#000000;stroke-width:1;" x1="0" x2="1785.8608" y1="274.5273" y2="274.5273"/><rect fill="#EEEEEE" height="23.1328" style="stroke:#000000;stroke-width:2;" width="215.2524" x="785.3042" y="260.9609"/><text fill="#000000" font-family="sans-serif" font-size="13" font-weight="bold" lengthAdjust="spacing" textLength="196.7266" x="791.3042" y="277.0278">Identifica&#231;&#227;o do Candidato</text><g class="message" data-participant-1="controller" data-participant-2="gui"><polygon fill="#181818" points="925.1968,311.2266,915.1968,315.2266,925.1968,319.2266,921.1968,315.2266" style="stroke:#181818;stroke-width:1;"/><line style="stroke:#181818;stroke-width:1;stroke-dasharray:2,2;" x1="919.1968" x2="1238.3975" y1="315.2266" y2="315.2266"/><text fill="#000000" font-family="sans-serif" font-size="13" lengthAdjust="spacing" textLength="199.2656" x="931.1968" y="310.1606">exibeFormularioIdentificacao()</text></g><g class="message" data-participant-1="candidato" data-participant-2="gui"><polygon fill="#181818" points="897.1968,340.3594,907.1968,344.3594,897.1968,348.3594,901.1968,344.3594" style="stroke:#181818;stroke-width:1;"/><line style="stroke:#181818;stroke-width:1;" x1="43.7622" x2="903.1968" y1="344.3594" y2="344.3594"/><text fill="#000000" font-family="sans-serif" font-size="13" lengthAdjust="spacing" textLength="846.4346" x="50.7622" y="339.2935">enviaFormularioIdentificacao(nome, sexo, data_nascimento, nacionalidade, endereco_residencial, endereco_comercial, profissao)</text></g><g class="message" data-participant-1="gui" data-participant-2="controller"><polygon fill="#181818" points="1222.3975,369.4922,1232.3975,373.4922,1222.3975,377.4922,1226.3975,373.4922" style="stroke:#181818;stroke-width:1;"/><line style="stroke:#181818;stroke-width:1;" x1="919.1968" x2="1228.3975" y1="373.4922" y2="373.4922"/><text fill="#000000" font-family="sans-serif" font-size="13" lengthAdjust="spacing" textLength="296.2007" x="926.1968" y="368.4263">validaDadosIdentificacao(dadosIdentificacao)</text></g><g class="message" data-participant-1="controller" data-participant-2="controller"><line style="stroke:#181818;stroke-width:1;" x1="1244.3975" x2="1286.3975" y1="402.625" y2="402.625"/><line style="stroke:#181818;stroke-width:1;" x1="1286.3975" x2="1286.3975" y1="402.625" y2="415.625"/><line style="stroke:#181818;stroke-width:1;" x1="1245.3975" x2="1286.3975" y1="415.625" y2="415.625"/><polygon fill="#181818" points="1255.3975,411.625,1245.3975,415.625,1255.3975,419.625,1251.3975,415.625" style="stroke:#181818;stroke-width:1;"/><text fill="#000000" font-family="sans-serif" font-size="13" lengthAdjust="spacing" textLength="90.2002" x="1251.3975" y="397.5591">validaDados()</text></g><g class="message" data-participant-1="controller" data-participant-2="afiliacao"><polygon fill="#181818" points="1721.3799,440.7578,1731.3799,444.7578,1721.3799,448.7578,1725.3799,444.7578" style="stroke:#181818;stroke-width:1;"/><line style="stroke:#181818;stroke-width:1;" x1="1244.3975" x2="1727.3799" y1="444.7578" y2="444.7578"/><text fill="#000000" font-family="sans-serif" font-size="13" lengthAdjust="spacing" textLength="115.7876" x="1251.3975" y="439.6919">create(email, cpf)</text></g><g class="message" data-participant-1="afiliacao" data-participant-2="controller"><polygon fill="#181818" points="1255.3975,469.8906,1245.3975,473.8906,1255.3975,477.8906,1251.3975,473.8906" style="stroke:#181818;stroke-width:1;"/><line style="stroke:#181818;stroke-width:1;stroke-dasharray:2,2;" x1="1249.3975" x2="1732.3799" y1="473.8906" y2="473.8906"/><text fill="#000000" font-family="sans-serif" font-size="13" lengthAdjust="spacing" textLength="66.498" x="1261.3975" y="468.8247">afiliacaoId</text></g><g class="message" data-participant-1="controller" data-participant-2="afiliacao"><polygon fill="#181818" points="1721.3799,499.0234,1731.3799,503.0234,1721.3799,507.0234,1725.3799,503.0234" style="stroke:#181818;stroke-width:1;"/><line style="stroke:#181818;stroke-width:1;" x1="1244.3975" x2="1727.3799" y1="503.0234" y2="503.0234"/><text fill="#000000" font-family="sans-serif" font-size="13" lengthAdjust="spacing" textLength="322.0674" x="1251.3975" y="497.9575">armazenaDadosIdentificacao(dadosIdentificacao)</text></g><g class="message" data-participant-1="afiliacao" data-participant-2="controller"><polygon fill="#181818" points="1255.3975,528.1563,1245.3975,532.1563,1255.3975,536.1563,1251.3975,532.1563" style="stroke:#181818;stroke-width:1;"/><line style="stroke:#181818;stroke-width:1;stroke-dasharray:2,2;" x1="1249.3975" x2="1737.3799" y1="532.1563" y2="532.1563"/><text fill="#000000" font-family="sans-serif" font-size="13" lengthAdjust="spacing" textLength="128.0703" x="1261.3975" y="527.0903">dadosArmazenados</text></g><rect fill="#EEEEEE" height="3" style="stroke:#EEEEEE;stroke-width:1;" width="1785.8608" x="0" y="560.7227"/><line style="stroke:#000000;stroke-width:1;" x1="0" x2="1785.8608" y1="560.7227" y2="560.7227"/><line style="stroke:#000000;stroke-width:1;" x1="0" x2="1785.8608" y1="563.7227" y2="563.7227"/><rect fill="#EEEEEE" height="23.1328" style="stroke:#000000;stroke-width:2;" width="247.8286" x="769.0161" y="550.1563"/><text fill="#000000" font-family="sans-serif" font-size="13" font-weight="bold" lengthAdjust="spacing" textLength="229.3027" x="775.0161" y="566.2231">Perfil, Habilidades e Interesses</text><g class="message" data-participant-1="controller" data-participant-2="gui"><polygon fill="#181818" points="925.1968,600.4219,915.1968,604.4219,925.1968,608.4219,921.1968,604.4219" style="stroke:#181818;stroke-width:1;"/><line style="stroke:#181818;stroke-width:1;stroke-dasharray:2,2;" x1="919.1968" x2="1238.3975" y1="604.4219" y2="604.4219"/><text fill="#000000" font-family="sans-serif" font-size="13" lengthAdjust="spacing" textLength="148.8462" x="931.1968" y="599.356">exibeFormularioPerfil()</text></g><g class="message" data-participant-1="candidato" data-participant-2="gui"><polygon fill="#181818" points="897.1968,629.5547,907.1968,633.5547,897.1968,637.5547,901.1968,633.5547" style="stroke:#181818;stroke-width:1;"/><line style="stroke:#181818;stroke-width:1;" x1="43.7622" x2="903.1968" y1="633.5547" y2="633.5547"/><text fill="#000000" font-family="sans-serif" font-size="13" lengthAdjust="spacing" textLength="339.8662" x="50.7622" y="628.4888">enviaFormularioPerfil(perfil, habilidades, interesses)</text></g><g class="message" data-participant-1="gui" data-participant-2="controller"><polygon fill="#181818" points="1222.3975,658.6875,1232.3975,662.6875,1222.3975,666.6875,1226.3975,662.6875" style="stroke:#181818;stroke-width:1;"/><line style="stroke:#181818;stroke-width:1;" x1="919.1968" x2="1228.3975" y1="662.6875" y2="662.6875"/><text fill="#000000" font-family="sans-serif" font-size="13" lengthAdjust="spacing" textLength="195.3618" x="926.1968" y="657.6216">validaDadosPerfil(dadosPerfil)</text></g><g class="message" data-participant-1="controller" data-participant-2="controller"><line style="stroke:#181818;stroke-width:1;" x1="1244.3975" x2="1286.3975" y1="691.8203" y2="691.8203"/><line style="stroke:#181818;stroke-width:1;" x1="1286.3975" x2="1286.3975" y1="691.8203" y2="704.8203"/><line style="stroke:#181818;stroke-width:1;" x1="1245.3975" x2="1286.3975" y1="704.8203" y2="704.8203"/><polygon fill="#181818" points="1255.3975,700.8203,1245.3975,704.8203,1255.3975,708.8203,1251.3975,704.8203" style="stroke:#181818;stroke-width:1;"/><text fill="#000000" font-family="sans-serif" font-size="13" lengthAdjust="spacing" textLength="90.2002" x="1251.3975" y="686.7544">validaDados()</text></g><g class="message" data-participant-1="controller" data-participant-2="afiliacao"><polygon fill="#181818" points="1721.3799,729.9531,1731.3799,733.9531,1721.3799,737.9531,1725.3799,733.9531" style="stroke:#181818;stroke-width:1;"/><line style="stroke:#181818;stroke-width:1;" x1="1244.3975" x2="1727.3799" y1="733.9531" y2="733.9531"/><text fill="#000000" font-family="sans-serif" font-size="13" lengthAdjust="spacing" textLength="221.2285" x="1251.3975" y="728.8872">armazenaDadosPerfil(dadosPerfil)</text></g><g class="message" data-participant-1="afiliacao" data-participant-2="controller"><polygon fill="#181818" points="1255.3975,759.0859,1245.3975,763.0859,1255.3975,767.0859,1251.3975,763.0859" style="stroke:#181818;stroke-width:1;"/><line style="stroke:#181818;stroke-width:1;stroke-dasharray:2,2;" x1="1249.3975" x2="1737.3799" y1="763.0859" y2="763.0859"/><text fill="#000000" font-family="sans-serif" font-size="13" lengthAdjust="spacing" textLength="128.0703" x="1261.3975" y="758.02">dadosArmazenados</text></g><rect fill="#EEEEEE" height="3" style="stroke:#EEEEEE;stroke-width:1;" width="1785.8608" x="0" y="791.6523"/><line style="stroke:#000000;stroke-width:1;" x1="0" x2="1785.8608" y1="791.6523" y2="791.6523"/><line style="stroke:#000000;stroke-width:1;" x1="0" x2="1785.8608" y1="794.6523" y2="794.6523"/><rect fill="#EEEEEE" height="23.1328" style="stroke:#000000;stroke-width:2;" width="191.3472" x="797.2568" y="781.0859"/><text fill="#000000" font-family="sans-serif" font-size="13" font-weight="bold" lengthAdjust="spacing" textLength="172.8213" x="803.2568" y="797.1528">Termo de Compromisso</text><g class="message" data-participant-1="controller" data-participant-2="termo"><polygon fill="#181818" points="1595.4033,831.3516,1605.4033,835.3516,1595.4033,839.3516,1599.4033,835.3516" style="stroke:#181818;stroke-width:1;"/><line style="stroke:#181818;stroke-width:1;" x1="1244.3975" x2="1601.4033" y1="835.3516" y2="835.3516"/><text fill="#000000" font-family="sans-serif" font-size="13" lengthAdjust="spacing" textLength="86.6899" x="1251.3975" y="830.2856">obterTermo()</text></g><g class="message" data-participant-1="termo" data-participant-2="controller"><polygon fill="#181818" points="1255.3975,860.4844,1245.3975,864.4844,1255.3975,868.4844,1251.3975,864.4844" style="stroke:#181818;stroke-width:1;"/><line style="stroke:#181818;stroke-width:1;stroke-dasharray:2,2;" x1="1249.3975" x2="1611.4033" y1="864.4844" y2="864.4844"/><text fill="#000000" font-family="sans-serif" font-size="13" lengthAdjust="spacing" textLength="102.7813" x="1261.3975" y="859.4185">conteudoTermo</text></g><g class="message" data-participant-1="controller" data-participant-2="gui"><polygon fill="#181818" points="925.1968,889.6172,915.1968,893.6172,925.1968,897.6172,921.1968,893.6172" style="stroke:#181818;stroke-width:1;"/><line style="stroke:#181818;stroke-width:1;stroke-dasharray:2,2;" x1="919.1968" x2="1238.3975" y1="893.6172" y2="893.6172"/><text fill="#000000" font-family="sans-serif" font-size="13" lengthAdjust="spacing" textLength="190.3789" x="931.1968" y="888.5513">exibeTermo(conteudoTermo)</text></g><g class="message" data-participant-1="candidato" data-participant-2="gui"><polygon fill="#181818" points="897.1968,918.75,907.1968,922.75,897.1968,926.75,901.1968,922.75" style="stroke:#181818;stroke-width:1;"/><line style="stroke:#181818;stroke-width:1;" x1="43.7622" x2="903.1968" y1="922.75" y2="922.75"/><text fill="#000000" font-family="sans-serif" font-size="13" lengthAdjust="spacing" textLength="91.8315" x="50.7622" y="917.6841">aceitaTermo()</text></g><g class="message" data-participant-1="gui" data-participant-2="controller"><polygon fill="#181818" points="1222.3975,947.8828,1232.3975,951.8828,1222.3975,955.8828,1226.3975,951.8828" style="stroke:#181818;stroke-width:1;"/><line style="stroke:#181818;stroke-width:1;" x1="919.1968" x2="1228.3975" y1="951.8828" y2="951.8828"/><text fill="#000000" font-family="sans-serif" font-size="13" lengthAdjust="spacing" textLength="135.7764" x="926.1968" y="946.8169">processaAceite(true)</text></g><g class="message" data-participant-1="controller" data-participant-2="afiliacao"><polygon fill="#181818" points="1721.3799,977.0156,1731.3799,981.0156,1721.3799,985.0156,1725.3799,981.0156" style="stroke:#181818;stroke-width:1;"/><line style="stroke:#181818;stroke-width:1;" x1="1244.3975" x2="1727.3799" y1="981.0156" y2="981.0156"/><text fill="#000000" font-family="sans-serif" font-size="13" lengthAdjust="spacing" textLength="142.5366" x="1251.3975" y="975.9497">armazenaAceite(true)</text></g><g class="message" data-participant-1="controller" data-participant-2="afiliacao"><polygon fill="#181818" points="1721.3799,1006.1484,1731.3799,1010.1484,1721.3799,1014.1484,1725.3799,1010.1484" style="stroke:#181818;stroke-width:1;"/><line style="stroke:#181818;stroke-width:1;" x1="1244.3975" x2="1727.3799" y1="1010.1484" y2="1010.1484"/><text fill="#000000" font-family="sans-serif" font-size="13" lengthAdjust="spacing" textLength="276.4785" x="1251.3975" y="1005.0825">atualizaSituacao("Aguardando Valida&#231;&#227;o")</text></g><g class="message" data-participant-1="afiliacao" data-participant-2="controller"><polygon fill="#181818" points="1255.3975,1035.2813,1245.3975,1039.2813,1255.3975,1043.2813,1251.3975,1039.2813" style="stroke:#181818;stroke-width:1;"/><line style="stroke:#181818;stroke-width:1;stroke-dasharray:2,2;" x1="1249.3975" x2="1737.3799" y1="1039.2813" y2="1039.2813"/><text fill="#000000" font-family="sans-serif" font-size="13" lengthAdjust="spacing" textLength="123.1826" x="1261.3975" y="1034.2153">situacaoAtualizada</text></g><rect fill="#EEEEEE" height="3" style="stroke:#EEEEEE;stroke-width:1;" width="1785.8608" x="0" y="1067.8477"/><line style="stroke:#000000;stroke-width:1;" x1="0" x2="1785.8608" y1="1067.8477" y2="1067.8477"/><line style="stroke:#000000;stroke-width:1;" x1="0" x2="1785.8608" y1="1070.8477" y2="1070.8477"/><rect fill="#EEEEEE" height="23.1328" style="stroke:#000000;stroke-width:2;" width="157.0444" x="814.4082" y="1057.2813"/><text fill="#000000" font-family="sans-serif" font-size="13" font-weight="bold" lengthAdjust="spacing" textLength="138.5186" x="820.4082" y="1073.3481">Valida&#231;&#227;o de Email</text><g class="message" data-participant-1="controller" data-participant-2="controller"><line style="stroke:#181818;stroke-width:1;" x1="1244.3975" x2="1286.3975" y1="1111.5469" y2="1111.5469"/><line style="stroke:#181818;stroke-width:1;" x1="1286.3975" x2="1286.3975" y1="1111.5469" y2="1124.5469"/><line style="stroke:#181818;stroke-width:1;" x1="1245.3975" x2="1286.3975" y1="1124.5469" y2="1124.5469"/><polygon fill="#181818" points="1255.3975,1120.5469,1245.3975,1124.5469,1255.3975,1128.5469,1251.3975,1124.5469" style="stroke:#181818;stroke-width:1;"/><text fill="#000000" font-family="sans-serif" font-size="13" lengthAdjust="spacing" textLength="129.6953" x="1251.3975" y="1106.481">geraLinkValidacao()</text></g><g class="message" data-participant-1="controller" data-participant-2="afiliacao"><polygon fill="#181818" points="1721.3799,1149.6797,1731.3799,1153.6797,1721.3799,1157.6797,1725.3799,1153.6797" style="stroke:#181818;stroke-width:1;"/><line style="stroke:#181818;stroke-width:1;" x1="1244.3975" x2="1727.3799" y1="1153.6797" y2="1153.6797"/><text fill="#000000" font-family="sans-serif" font-size="13" lengthAdjust="spacing" textLength="316.6528" x="1251.3975" y="1148.6138">armazenaTokenValidacao(token, dataExpiracao)</text></g><g class="message" data-participant-1="afiliacao" data-participant-2="controller"><polygon fill="#181818" points="1255.3975,1178.8125,1245.3975,1182.8125,1255.3975,1186.8125,1251.3975,1182.8125" style="stroke:#181818;stroke-width:1;"/><line style="stroke:#181818;stroke-width:1;stroke-dasharray:2,2;" x1="1249.3975" x2="1737.3799" y1="1182.8125" y2="1182.8125"/><text fill="#000000" font-family="sans-serif" font-size="13" lengthAdjust="spacing" textLength="118.917" x="1261.3975" y="1177.7466">tokenArmazenado</text></g><g class="message" data-participant-1="controller" data-participant-2="gui"><polygon fill="#181818" points="930.1968,1207.9453,920.1968,1211.9453,930.1968,1215.9453,926.1968,1211.9453" style="stroke:#181818;stroke-width:1;"/><line style="stroke:#181818;stroke-width:1;" x1="924.1968" x2="1233.3975" y1="1211.9453" y2="1211.9453"/><text fill="#000000" font-family="sans-serif" font-size="13" lengthAdjust="spacing" textLength="280.9092" x="936.1968" y="1206.8794">enviarEmailValidacao(email, linkValidacao)</text></g><g class="message" data-participant-1="gui" data-participant-2="gui"><line style="stroke:#181818;stroke-width:1;" x1="919.1968" x2="961.1968" y1="1241.0781" y2="1241.0781"/><line style="stroke:#181818;stroke-width:1;" x1="961.1968" x2="961.1968" y1="1241.0781" y2="1254.0781"/><line style="stroke:#181818;stroke-width:1;" x1="920.1968" x2="961.1968" y1="1254.0781" y2="1254.0781"/><polygon fill="#181818" points="930.1968,1250.0781,920.1968,1254.0781,930.1968,1258.0781,926.1968,1254.0781" style="stroke:#181818;stroke-width:1;"/><text fill="#000000" font-family="sans-serif" font-size="13" lengthAdjust="spacing" textLength="81.7197" x="926.1968" y="1236.0122">enviaEmail()</text></g><g class="message" data-participant-1="gui" data-participant-2="controller"><polygon fill="#181818" points="1222.3975,1279.2109,1232.3975,1283.2109,1222.3975,1287.2109,1226.3975,1283.2109" style="stroke:#181818;stroke-width:1;"/><line style="stroke:#181818;stroke-width:1;stroke-dasharray:2,2;" x1="919.1968" x2="1228.3975" y1="1283.2109" y2="1283.2109"/><text fill="#000000" font-family="sans-serif" font-size="13" lengthAdjust="spacing" textLength="87.7817" x="926.1968" y="1278.145">emailEnviado</text></g><g class="message" data-participant-1="controller" data-participant-2="gui"><polygon fill="#181818" points="925.1968,1308.3438,915.1968,1312.3438,925.1968,1316.3438,921.1968,1312.3438" style="stroke:#181818;stroke-width:1;"/><line style="stroke:#181818;stroke-width:1;stroke-dasharray:2,2;" x1="919.1968" x2="1238.3975" y1="1312.3438" y2="1312.3438"/><text fill="#000000" font-family="sans-serif" font-size="13" lengthAdjust="spacing" textLength="180.1719" x="931.1968" y="1307.2778">exibeMensagemValidacao()</text></g><text fill="#000000" font-family="sans-serif" font-size="11" lengthAdjust="spacing" textLength="131.2856" x="825.4282" y="1344.5542">Candidato acessa email</text><g class="message" data-participant-1="candidato" data-participant-2="gui"><polygon fill="#181818" points="897.1968,1378.2813,907.1968,1382.2813,897.1968,1386.2813,901.1968,1382.2813" style="stroke:#181818;stroke-width:1;"/><line style="stroke:#181818;stroke-width:1;" x1="43.7622" x2="903.1968" y1="1382.2813" y2="1382.2813"/><text fill="#000000" font-family="sans-serif" font-size="13" lengthAdjust="spacing" textLength="166.4355" x="50.7622" y="1377.2153">clicaLinkValidacao(token)</text></g><g class="message" data-participant-1="gui" data-participant-2="controller"><polygon fill="#181818" points="1222.3975,1407.4141,1232.3975,1411.4141,1222.3975,1415.4141,1226.3975,1411.4141" style="stroke:#181818;stroke-width:1;"/><line style="stroke:#181818;stroke-width:1;" x1="919.1968" x2="1228.3975" y1="1411.4141" y2="1411.4141"/><text fill="#000000" font-family="sans-serif" font-size="13" lengthAdjust="spacing" textLength="122.1289" x="926.1968" y="1406.3481">validaEmail(token)</text></g><g class="message" data-participant-1="controller" data-participant-2="afiliacao"><polygon fill="#181818" points="1721.3799,1436.5469,1731.3799,1440.5469,1721.3799,1444.5469,1725.3799,1440.5469" style="stroke:#181818;stroke-width:1;"/><line style="stroke:#181818;stroke-width:1;" x1="1244.3975" x2="1727.3799" y1="1440.5469" y2="1440.5469"/><text fill="#000000" font-family="sans-serif" font-size="13" lengthAdjust="spacing" textLength="151.4805" x="1251.3975" y="1435.481">buscarPorToken(token)</text></g><g class="message" data-participant-1="afiliacao" data-participant-2="controller"><polygon fill="#181818" points="1255.3975,1465.6797,1245.3975,1469.6797,1255.3975,1473.6797,1251.3975,1469.6797" style="stroke:#181818;stroke-width:1;"/><line style="stroke:#181818;stroke-width:1;stroke-dasharray:2,2;" x1="1249.3975" x2="1737.3799" y1="1469.6797" y2="1469.6797"/><text fill="#000000" font-family="sans-serif" font-size="13" lengthAdjust="spacing" textLength="94.5356" x="1261.3975" y="1464.6138">dadosAfiliacao</text></g><g class="message" data-participant-1="controller" data-participant-2="afiliacao"><polygon fill="#181818" points="1721.3799,1494.8125,1731.3799,1498.8125,1721.3799,1502.8125,1725.3799,1498.8125" style="stroke:#181818;stroke-width:1;"/><line style="stroke:#181818;stroke-width:1;" x1="1244.3975" x2="1727.3799" y1="1498.8125" y2="1498.8125"/><text fill="#000000" font-family="sans-serif" font-size="13" lengthAdjust="spacing" textLength="282.2803" x="1251.3975" y="1493.7466">atualizaSituacao("Aguardando Aprova&#231;&#227;o")</text></g><g class="message" data-participant-1="controller" data-participant-2="afiliacao"><polygon fill="#181818" points="1721.3799,1523.9453,1731.3799,1527.9453,1721.3799,1531.9453,1725.3799,1527.9453" style="stroke:#181818;stroke-width:1;"/><line style="stroke:#181818;stroke-width:1;" x1="1244.3975" x2="1727.3799" y1="1527.9453" y2="1527.9453"/><text fill="#000000" font-family="sans-serif" font-size="13" lengthAdjust="spacing" textLength="149.1509" x="1251.3975" y="1522.8794">marcarEmailValidado()</text></g><g class="message" data-participant-1="afiliacao" data-participant-2="controller"><polygon fill="#181818" points="1255.3975,1553.0781,1245.3975,1557.0781,1255.3975,1561.0781,1251.3975,1557.0781" style="stroke:#181818;stroke-width:1;"/><line style="stroke:#181818;stroke-width:1;stroke-dasharray:2,2;" x1="1249.3975" x2="1737.3799" y1="1557.0781" y2="1557.0781"/><text fill="#000000" font-family="sans-serif" font-size="13" lengthAdjust="spacing" textLength="123.1826" x="1261.3975" y="1552.0122">situacaoAtualizada</text></g><g class="message" data-participant-1="controller" data-participant-2="voluntario"><polygon fill="#181818" points="1469.4268,1582.2109,1479.4268,1586.2109,1469.4268,1590.2109,1473.4268,1586.2109" style="stroke:#181818;stroke-width:1;"/><line style="stroke:#181818;stroke-width:1;" x1="1244.3975" x2="1475.4268" y1="1586.2109" y2="1586.2109"/><text fill="#000000" font-family="sans-serif" font-size="13" lengthAdjust="spacing" textLength="146.231" x="1251.3975" y="1581.145">create(dadosAfiliacao)</text></g><g class="message" data-participant-1="voluntario" data-participant-2="controller"><polygon fill="#181818" points="1255.3975,1611.3438,1245.3975,1615.3438,1255.3975,1619.3438,1251.3975,1615.3438" style="stroke:#181818;stroke-width:1;"/><line style="stroke:#181818;stroke-width:1;stroke-dasharray:2,2;" x1="1249.3975" x2="1485.4268" y1="1615.3438" y2="1615.3438"/><text fill="#000000" font-family="sans-serif" font-size="13" lengthAdjust="spacing" textLength="77.7969" x="1261.3975" y="1610.2778">voluntarioId</text></g><g class="message" data-participant-1="controller" data-participant-2="gui"><polygon fill="#181818" points="925.1968,1640.4766,915.1968,1644.4766,925.1968,1648.4766,921.1968,1644.4766" style="stroke:#181818;stroke-width:1;"/><line style="stroke:#181818;stroke-width:1;stroke-dasharray:2,2;" x1="919.1968" x2="1238.3975" y1="1644.4766" y2="1644.4766"/><text fill="#000000" font-family="sans-serif" font-size="13" lengthAdjust="spacing" textLength="265.332" x="931.1968" y="1639.4106">exibeMensagemAguardandoAprovacao()</text></g><!--SRC=[jLPBRjim4Dth58HN3k3u04Pim4YTra2B1aYQRJ0cnouHYJGeoKXpdIvwa5oiGr8MALbob7wq4icPn-6RDqC2BxHXesjGGWeez8X1plXnb6nqgGIO7spqyTlQhUrAoQwkjaQh0gM1nIBPWoaabtjG1Hl1LgOIEEXhCZ0wJT5uo7f8tjK0oHbL8Gk2Vz1fgGemqaTmg8TaRcq4YDZy7ar6MsHxepEPvzwfi9CDUqPVxRCyXkQCwq2R6oJpERlJAPsdWDTVhpyrMoiQGChcywJcXLqkB14p9jLMcmnM6SXqTNrxCqRxDs5ylxr8W1Vo00LQqyJoHbw1XndBgttgmBgzWqiIiKXOWQGPsvGv1tEhZGlbQzaRIt1A8f8lMw4fq2lb9a3eH62NkwLgBIntMyahieHcjPGSOr70HyxmMMxmXcWhKuiJ82m35_5cqScZMSjcHofG7IJqmIgTuOJb-AmdZBpWKK7EPKOcDA60IwqWTHgO4910Wrm_6imbeTZiHxESe8oV8_LjINsWtyxrmS5_83RpPcJYPAexzQtSzs0JVot3MkSpnWqIQBSiQhCa54PR5FNAMfpP1QWUNb0DFcllTivwMQ7HRwo14AvLuIsQhJtI9zX8dyMS8HKkDGJCSneCKwA7-NSIhF3sLNJVGtGJQXp7uDwbdGfIXF__ffP67i_kEqGxmvFfMZiJoABstaxWmlVw6TCR-d4UuoWWjvZuww0TYFt7KcZd54VXdVfrudTfkF-vKe0ZDVwJm7i4G3HmqWeihHUE2rFYeBHtPBCR8cIW7w0eIJWlS2VfnnRpQBahmGWwccOFJbFk2XYTA-cySbvMO0BwTH1XMZMuU-rK1p7w3Wrybkh9U_hRv4r2xlKJgk1HsA6_8rRFUthWD1lo4AaxY23rdXCs0mljmr_W8Q2gMwVnkIwE8WbkpcjSBRG2SX0hQoNE2VmBgXnscCNq3TFtT3gDhdrmMlMxCbhgqZ-dbqyhLuwseStG7xVjCgWIwfUIo_m9nl1cLXiEIV3GIbfIhHz29RsZG3CmlA4UuLhBtzTY_wEpUb0qwNZtMpCiqRkYvwdvfcW3XPx1uVBz3G00]--></g></svg>